<?xml version="1.0" encoding="UTF-8" standalone="no"?><svg xmlns="http://www.w3.org/2000/svg" xmlns:xlink="http://www.w3.org/1999/xlink" contentStyleType="text/css" height="502px" preserveAspectRatio="none" style="width:193px;height:502px;background:#FFFFFF;" version="1.1" viewBox="0 0 193 502" width="193px" zoomAndPan="magnify"><defs/><g><!--class vv.Game--><a href="Game.html" target="_top" title="Game.html" xlink:actuate="onRequest" xlink:href="Game.html" xlink:show="new" xlink:title="Game.html" xlink:type="simple"><g id="elem_vv.Game"><rect codeLine="5" fill="#F1F1F1" height="340.3987" id="vv.Game" rx="2.5" ry="2.5" style="stroke:#181818;stroke-width:0.5;" width="179" x="7" y="136.3"/><ellipse cx="72.75" cy="155.7" fill="#ADD1B2" rx="11" ry="11" style="stroke:#181818;stroke-width:1.0;"/><path d="M67.75,156.8562 C67.75,159.3562 69.8906,161.1687 72.8125,161.1687 C74.0469,161.1687 75.2188,160.8718 75.9688,160.3562 C76.5781,159.9343 76.9063,159.5125 76.9063,159.1062 C76.9063,158.6375 76.4844,158.2312 75.9844,158.2312 C75.75,158.2312 75.5313,158.3093 75.3281,158.5125 C74.8906,158.95 74.8906,158.95 74.7188,159.0437 C74.2656,159.2781 73.625,159.4187 72.8594,159.4187 C70.8594,159.4187 69.5781,158.4031 69.5781,156.825 L69.5781,155.7781 C69.5781,154.075 70.7969,152.8718 72.5,152.8718 C73.0781,152.8718 73.6563,153.0125 74.125,153.2625 C74.5938,153.5281 74.7656,153.7156 74.8281,154.075 C74.9531,154.7468 75.2031,154.9968 75.7344,154.9968 C76.0156,154.9968 76.2969,154.8562 76.4844,154.6375 C76.6094,154.4656 76.6563,154.2937 76.6563,153.8562 L76.6563,152.4968 C76.6563,152.075 76.6406,151.9343 76.5156,151.7625 C76.3438,151.5125 76.0625,151.3562 75.7344,151.3562 C75.4219,151.3562 75.2188,151.4656 75,151.7312 C73.8281,151.2312 73.3906,151.1218 72.4375,151.1218 C69.7656,151.1218 67.75,153.1375 67.75,155.7625 L67.75,156.8562 Z " fill="#000000"/><text fill="#000000" font-family="sans-serif" font-size="14" lengthAdjust="spacing" textLength="39" x="93.25" y="154.3059">Game</text><text fill="#000000" font-family="sans-serif" font-size="10" lengthAdjust="spacing" textLength="10" x="107.75" y="167.3899">vv</text><line style="stroke:#181818;stroke-width:0.5;" x1="8" x2="185" y1="175.0999" y2="175.0999"/><ellipse cx="18" cy="188.9999" fill="none" rx="3" ry="3" style="stroke:#038048;stroke-width:1.0;"/><text fill="#000000" font-family="sans-serif" font-size="14" lengthAdjust="spacing" textLength="72" x="27" y="192.1059">state: State</text><ellipse cx="18" cy="205.7998" fill="none" rx="3" ry="3" style="stroke:#038048;stroke-width:1.0;"/><text fill="#000000" font-family="sans-serif" font-size="14" lengthAdjust="spacing" textLength="92" x="27" y="208.9058">bedsCount: int</text><ellipse cx="18" cy="222.5997" fill="none" rx="3" ry="3" style="stroke:#038048;stroke-width:1.0;"/><text fill="#000000" font-family="sans-serif" font-size="14" lengthAdjust="spacing" textLength="93" x="27" y="225.7057">deadCount: int</text><ellipse cx="18" cy="239.3997" fill="none" rx="3" ry="3" style="stroke:#038048;stroke-width:1.0;"/><text fill="#000000" font-family="sans-serif" font-size="14" lengthAdjust="spacing" textLength="143" x="27" y="242.5056">roomsVisitedCount: int</text><ellipse cx="18" cy="256.1996" fill="none" rx="3" ry="3" style="stroke:#038048;stroke-width:1.0;"/><text fill="#000000" font-family="sans-serif" font-size="14" lengthAdjust="spacing" textLength="153" x="27" y="259.3056">deathBySpikes: boolean</text><ellipse cx="18" cy="272.9995" fill="none" rx="3" ry="3" style="stroke:#038048;stroke-width:1.0;"/><text fill="#000000" font-family="sans-serif" font-size="14" lengthAdjust="spacing" textLength="145" x="27" y="276.1055">shoesSoaked: boolean</text><ellipse cx="18" cy="289.7994" fill="none" rx="3" ry="3" style="stroke:#038048;stroke-width:1.0;"/><text fill="#000000" font-family="sans-serif" font-size="14" lengthAdjust="spacing" textLength="133" x="27" y="292.9054">gameStartTime: long</text><ellipse cx="18" cy="306.5994" fill="none" rx="3" ry="3" style="stroke:#038048;stroke-width:1.0;"/><text fill="#000000" font-family="sans-serif" font-size="14" lengthAdjust="spacing" textLength="99" x="27" y="309.7053">notifyStart: long</text><ellipse cx="18" cy="323.3993" fill="none" rx="3" ry="3" style="stroke:#038048;stroke-width:1.0;"/><text fill="#000000" font-family="sans-serif" font-size="14" lengthAdjust="spacing" textLength="106" x="27" y="326.5053">notifyMsg: String</text><ellipse cx="18" cy="340.1992" fill="none" rx="3" ry="3" style="stroke:#038048;stroke-width:1.0;"/><text fill="#000000" font-family="sans-serif" font-size="14" lengthAdjust="spacing" textLength="128" x="27" y="343.3052">showNotify: boolean</text><line style="stroke:#181818;stroke-width:0.5;" x1="8" x2="185" y1="351.0992" y2="351.0992"/><ellipse cx="18" cy="364.9991" fill="#84BE84" rx="3" ry="3" style="stroke:#038048;stroke-width:1.0;"/><text fill="#000000" font-family="sans-serif" font-size="14" lengthAdjust="spacing" text-decoration="underline" textLength="131" x="27" y="368.1051">getInstance(): Game</text><ellipse cx="18" cy="381.7991" fill="#84BE84" rx="3" ry="3" style="stroke:#038048;stroke-width:1.0;"/><text fill="#000000" font-family="sans-serif" font-size="14" lengthAdjust="spacing" textLength="115" x="27" y="384.9051">notify(String): void</text><ellipse cx="18" cy="398.599" fill="#84BE84" rx="3" ry="3" style="stroke:#038048;stroke-width:1.0;"/><text fill="#000000" font-family="sans-serif" font-size="14" lengthAdjust="spacing" textLength="65" x="27" y="401.705">run(): void</text><ellipse cx="18" cy="415.3989" fill="#84BE84" rx="3" ry="3" style="stroke:#038048;stroke-width:1.0;"/><text fill="#000000" font-family="sans-serif" font-size="14" lengthAdjust="spacing" textLength="113" x="27" y="418.5049">StartGame(): void</text><ellipse cx="18" cy="432.1989" fill="#84BE84" rx="3" ry="3" style="stroke:#038048;stroke-width:1.0;"/><text fill="#000000" font-family="sans-serif" font-size="14" lengthAdjust="spacing" textLength="112" x="27" y="435.3048">StopGame(): void</text><ellipse cx="18" cy="448.9988" fill="#84BE84" rx="3" ry="3" style="stroke:#038048;stroke-width:1.0;"/><text fill="#000000" font-family="sans-serif" font-size="14" lengthAdjust="spacing" textLength="92" x="27" y="452.1048">GetWidth(): int</text><ellipse cx="18" cy="465.7987" fill="#84BE84" rx="3" ry="3" style="stroke:#038048;stroke-width:1.0;"/><text fill="#000000" font-family="sans-serif" font-size="14" lengthAdjust="spacing" textLength="97" x="27" y="468.9047">GetHeight(): int</text></g></a><!--class java.lang.Runnable--><g id="elem_java.lang.Runnable"><rect codeLine="25" fill="#F1F1F1" height="69.2998" id="java.lang.Runnable" rx="2.5" ry="2.5" style="stroke:#181818;stroke-width:0.5;" width="93" x="50" y="7"/><ellipse cx="65" cy="28.2" fill="#B4A7E5" rx="11" ry="11" style="stroke:#181818;stroke-width:1.0;"/><path d="M66.0156,25.3562 L67.6719,25.3562 C68.0625,25.3562 68.2656,25.325 68.4219,25.2468 C68.6875,25.075 68.8594,24.7781 68.8594,24.4812 C68.8594,24.2 68.7188,23.95 68.4844,23.7781 C68.2969,23.6531 68.1406,23.6062 67.6719,23.6062 L62.5313,23.6062 C62.0938,23.6062 61.9531,23.6218 61.7813,23.7312 C61.5156,23.9031 61.3438,24.1843 61.3438,24.4812 C61.3438,24.7625 61.4844,25.0437 61.7188,25.2 C61.9063,25.325 62.0938,25.3562 62.5313,25.3562 L64.1875,25.3562 L64.1875,31.45 L62.5313,31.45 C62.0938,31.45 61.9531,31.4656 61.7813,31.575 C61.5156,31.7312 61.3438,32.0281 61.3438,32.3093 C61.3438,32.9187 61.75,33.2 62.5313,33.2 L67.6719,33.2 C68.4531,33.2 68.8594,32.9187 68.8594,32.3093 C68.8594,32.0437 68.7188,31.7937 68.4844,31.6218 C68.2969,31.4812 68.125,31.45 67.6719,31.45 L66.0156,31.45 L66.0156,25.3562 Z " fill="#000000"/><text fill="#000000" font-family="sans-serif" font-size="14" font-style="italic" lengthAdjust="spacing" textLength="61" x="79" y="27.3999">Runnable</text><text fill="#000000" font-family="sans-serif" font-size="10" font-style="italic" lengthAdjust="spacing" textLength="42" x="88.5" y="41.8999">java.lang</text><line style="stroke:#181818;stroke-width:0.5;" x1="51" x2="142" y1="49.3999" y2="49.3999"/><ellipse cx="61" cy="64.3499" fill="#84BE84" rx="3" ry="3" style="stroke:#038048;stroke-width:1.0;"/><text fill="#000000" font-family="sans-serif" font-size="14" font-style="italic" lengthAdjust="spacing" textLength="65" x="70" y="68.7998">run(): void</text></g><!--reverse link java.lang.Runnable to vv.Game--><g id="link_java.lang.Runnable_vv.Game"><path codeLine="29" d="M96.5,97.59 C96.5,109.31 96.5,122.29 96.5,135.85 " fill="none" id="java.lang.Runnable-backto-vv.Game" style="stroke:#181818;stroke-width:1.0;stroke-dasharray:7.0,7.0;"/><polygon fill="none" points="89.5,97.74,96.5,77.74,103.5,97.74,89.5,97.74" style="stroke:#181818;stroke-width:1.0;"/></g><text fill="#888888" font-family="sans-serif" font-size="10" lengthAdjust="spacing" textLength="179" x="0" y="491.9887">UMLDoclet 2.1.0, PlantUML 1.2022.14</text><!--SRC=[TPDDJy9048Rl_eg9YGb6qu3nr10EQe8cOepuSK0EItTeLzgTfZlK8FBVdIqW5MelatcVtPdPoLi008SCLcNeSXNX47DLAAO2B5ay4Wo9qGYOvRo0gS5KktqrGqv8v4gFKkKS77UT-SAmSzdhI-LtkqdRlR8y1kMWB0CFO3Jo8KWuIyTZM5OL_7VcM366CFHXfqvGkskQMmx1MDxf6fLkqWkYpBqQPnZrF_SukLeCSpD35yA4A4LbQrCaX6v8QeQwWSOokWnOyBF9PDQKRBo3bjXC5nLkHWCN-_SLfewauUT3XG_xBVrEJBIIniXtLZ8ROUiq1B_2_UgjTMMX9HbTsyZSjWx4QafVfGbHtapwo6z6S-B9dwKAk4KJ9rmdgxKx9CLYAZwhEUHfRgsQf7MNVAXI1QcoSMMMtopO7gqvPQacZWiLyUhmSPkc3VUxtq6mDU76j-X7WocH3o-3-nkAKlapBe9Eq3w7HxdFei99YOKp98r-0000]--></g></svg>