<?xml version="1.0" encoding="UTF-8" standalone="no"?><svg xmlns="http://www.w3.org/2000/svg" xmlns:xlink="http://www.w3.org/1999/xlink" contentStyleType="text/css" height="309px" preserveAspectRatio="none" style="width:187px;height:309px;background:#FFFFFF;" version="1.1" viewBox="0 0 187 309" width="187px" zoomAndPan="magnify"><defs/><g><!--class VV.Game--><a href="Game.html" target="_top" title="Game.html" xlink:actuate="onRequest" xlink:href="Game.html" xlink:show="new" xlink:title="Game.html" xlink:type="simple"><g id="elem_VV.Game"><rect codeLine="5" fill="#F1F1F1" height="147.5995" id="VV.Game" rx="2.5" ry="2.5" style="stroke:#181818;stroke-width:0.5;" width="157" x="18" y="136"/><ellipse cx="72.75" cy="155.4" fill="#ADD1B2" rx="11" ry="11" style="stroke:#181818;stroke-width:1.0;"/><path d="M67.75,156.5562 C67.75,159.0562 69.8906,160.8687 72.8125,160.8687 C74.0469,160.8687 75.2188,160.5718 75.9688,160.0562 C76.5781,159.6343 76.9063,159.2125 76.9063,158.8062 C76.9063,158.3375 76.4844,157.9312 75.9844,157.9312 C75.75,157.9312 75.5313,158.0093 75.3281,158.2125 C74.8906,158.65 74.8906,158.65 74.7188,158.7437 C74.2656,158.9781 73.625,159.1187 72.8594,159.1187 C70.8594,159.1187 69.5781,158.1031 69.5781,156.525 L69.5781,155.4781 C69.5781,153.775 70.7969,152.5718 72.5,152.5718 C73.0781,152.5718 73.6563,152.7125 74.125,152.9625 C74.5938,153.2281 74.7656,153.4156 74.8281,153.775 C74.9531,154.4468 75.2031,154.6968 75.7344,154.6968 C76.0156,154.6968 76.2969,154.5562 76.4844,154.3375 C76.6094,154.1656 76.6563,153.9937 76.6563,153.5562 L76.6563,152.1968 C76.6563,151.775 76.6406,151.6343 76.5156,151.4625 C76.3438,151.2125 76.0625,151.0562 75.7344,151.0562 C75.4219,151.0562 75.2188,151.1656 75,151.4312 C73.8281,150.9312 73.3906,150.8218 72.4375,150.8218 C69.7656,150.8218 67.75,152.8375 67.75,155.4625 L67.75,156.5562 Z " fill="#000000"/><text fill="#000000" font-family="sans-serif" font-size="14" lengthAdjust="spacing" textLength="39" x="93.25" y="154.0059">Game</text><text fill="#000000" font-family="sans-serif" font-size="10" lengthAdjust="spacing" textLength="14" x="105.75" y="167.0899">VV</text><line style="stroke:#181818;stroke-width:0.5;" x1="19" x2="174" y1="174.7999" y2="174.7999"/><ellipse cx="29" cy="188.6999" fill="#84BE84" rx="3" ry="3" style="stroke:#038048;stroke-width:1.0;"/><text fill="#000000" font-family="sans-serif" font-size="14" lengthAdjust="spacing" text-decoration="underline" textLength="131" x="38" y="191.8059">getInstance(): Game</text><ellipse cx="29" cy="205.4998" fill="#84BE84" rx="3" ry="3" style="stroke:#038048;stroke-width:1.0;"/><text fill="#000000" font-family="sans-serif" font-size="14" lengthAdjust="spacing" textLength="65" x="38" y="208.6058">run(): void</text><ellipse cx="29" cy="222.2997" fill="#84BE84" rx="3" ry="3" style="stroke:#038048;stroke-width:1.0;"/><text fill="#000000" font-family="sans-serif" font-size="14" lengthAdjust="spacing" textLength="113" x="38" y="225.4057">StartGame(): void</text><ellipse cx="29" cy="239.0997" fill="#84BE84" rx="3" ry="3" style="stroke:#038048;stroke-width:1.0;"/><text fill="#000000" font-family="sans-serif" font-size="14" lengthAdjust="spacing" textLength="112" x="38" y="242.2056">StopGame(): void</text><ellipse cx="29" cy="255.8996" fill="#84BE84" rx="3" ry="3" style="stroke:#038048;stroke-width:1.0;"/><text fill="#000000" font-family="sans-serif" font-size="14" lengthAdjust="spacing" textLength="92" x="38" y="259.0056">GetWidth(): int</text><ellipse cx="29" cy="272.6995" fill="#84BE84" rx="3" ry="3" style="stroke:#038048;stroke-width:1.0;"/><text fill="#000000" font-family="sans-serif" font-size="14" lengthAdjust="spacing" textLength="97" x="38" y="275.8055">GetHeight(): int</text></g></a><!--class java.lang.Runnable--><g id="elem_java.lang.Runnable"><rect codeLine="14" fill="#F1F1F1" height="69.2998" id="java.lang.Runnable" rx="2.5" ry="2.5" style="stroke:#181818;stroke-width:0.5;" width="93" x="50" y="7"/><ellipse cx="65" cy="28.2" fill="#B4A7E5" rx="11" ry="11" style="stroke:#181818;stroke-width:1.0;"/><path d="M66.0156,25.3562 L67.6719,25.3562 C68.0625,25.3562 68.2656,25.325 68.4219,25.2468 C68.6875,25.075 68.8594,24.7781 68.8594,24.4812 C68.8594,24.2 68.7188,23.95 68.4844,23.7781 C68.2969,23.6531 68.1406,23.6062 67.6719,23.6062 L62.5313,23.6062 C62.0938,23.6062 61.9531,23.6218 61.7813,23.7312 C61.5156,23.9031 61.3438,24.1843 61.3438,24.4812 C61.3438,24.7625 61.4844,25.0437 61.7188,25.2 C61.9063,25.325 62.0938,25.3562 62.5313,25.3562 L64.1875,25.3562 L64.1875,31.45 L62.5313,31.45 C62.0938,31.45 61.9531,31.4656 61.7813,31.575 C61.5156,31.7312 61.3438,32.0281 61.3438,32.3093 C61.3438,32.9187 61.75,33.2 62.5313,33.2 L67.6719,33.2 C68.4531,33.2 68.8594,32.9187 68.8594,32.3093 C68.8594,32.0437 68.7188,31.7937 68.4844,31.6218 C68.2969,31.4812 68.125,31.45 67.6719,31.45 L66.0156,31.45 L66.0156,25.3562 Z " fill="#000000"/><text fill="#000000" font-family="sans-serif" font-size="14" font-style="italic" lengthAdjust="spacing" textLength="61" x="79" y="27.3999">Runnable</text><text fill="#000000" font-family="sans-serif" font-size="10" font-style="italic" lengthAdjust="spacing" textLength="42" x="88.5" y="41.8999">java.lang</text><line style="stroke:#181818;stroke-width:0.5;" x1="51" x2="142" y1="49.3999" y2="49.3999"/><ellipse cx="61" cy="64.3499" fill="#84BE84" rx="3" ry="3" style="stroke:#038048;stroke-width:1.0;"/><text fill="#000000" font-family="sans-serif" font-size="14" font-style="italic" lengthAdjust="spacing" textLength="65" x="70" y="68.7998">run(): void</text></g><!--reverse link java.lang.Runnable to VV.Game--><g id="link_java.lang.Runnable_VV.Game"><path codeLine="18" d="M96.5,97.14 C96.5,109.5 96.5,122.82 96.5,135.82 " fill="none" id="java.lang.Runnable-backto-VV.Game" style="stroke:#181818;stroke-width:1.0;stroke-dasharray:7.0,7.0;"/><polygon fill="none" points="89.5,97.19,96.5,77.19,103.5,97.19,89.5,97.19" style="stroke:#181818;stroke-width:1.0;"/></g><text fill="#888888" font-family="sans-serif" font-size="10" lengthAdjust="spacing" textLength="179" x="0" y="298.8895">UMLDoclet 2.1.0, PlantUML 1.2022.14</text><!--SRC=[RL71IiD04Btx5KD1K2fBAvvAwKceWe9OZ8VQmtGpILOsks5t6j2QVtStfctKx6MOzzxCx9i10F34OB0aNw6a5LNeaAq3OmsT1HeAbH9GMV47P8fqwl-Y9N5X0zpYKgFtC9fxzKcpwSrY6Jg_cIwTB99a1EWXIKGaOBsEGHHSwiq6zcs7-FQUaPLiO9mJtvkG6KaNbpE8ygDgx7OcWhLLwGbSCJgEkY7ALiFCalXLfLn4HXd-HToHoWlkCysFrv2IoyBMUdwVTyRWLlSzlsEDGgF9M-l7J1oaVT-uzUnGSlFVN3Tqe7x-9SHXfTqLA7uDCcjZU7bykBLIXpjVYwcONC5JgEU0mdbDpYiR1dq3]--></g></svg>