<?xml version="1.0" encoding="UTF-8" standalone="no"?><svg xmlns="http://www.w3.org/2000/svg" xmlns:xlink="http://www.w3.org/1999/xlink" contentStyleType="text/css" height="374px" preserveAspectRatio="none" style="width:203px;height:374px;background:#FFFFFF;" version="1.1" viewBox="0 0 203 374" width="203px" zoomAndPan="magnify"><defs/><g><!--cluster VV--><g id="cluster_VV"><path d="M8.5,148.294 L27.5,148.294 A3.75,3.75 0 0 1 30,150.794 L37,171.0939 L193.5,171.0939 A2.5,2.5 0 0 1 196,173.5939 L196,345.794 A2.5,2.5 0 0 1 193.5,348.294 L8.5,348.294 A2.5,2.5 0 0 1 6,345.794 L6,150.794 A2.5,2.5 0 0 1 8.5,148.294 " fill="none" style="stroke:#000000;stroke-width:1.5;"/><line style="stroke:#000000;stroke-width:1.5;" x1="6" x2="37" y1="171.0939" y2="171.0939"/><text fill="#000000" font-family="sans-serif" font-size="14" font-weight="bold" lengthAdjust="spacing" textLength="18" x="10" y="163.2999">VV</text></g><!--cluster java.lang--><g id="cluster_java.lang"><path d="M40.5,6.294 L103.5,6.294 A3.75,3.75 0 0 1 106,8.794 L113,29.0939 L161.5,29.0939 A2.5,2.5 0 0 1 164,31.5939 L164,121.794 A2.5,2.5 0 0 1 161.5,124.294 L40.5,124.294 A2.5,2.5 0 0 1 38,121.794 L38,8.794 A2.5,2.5 0 0 1 40.5,6.294 " fill="none" style="stroke:#000000;stroke-width:1.5;"/><line style="stroke:#000000;stroke-width:1.5;" x1="38" x2="113" y1="29.0939" y2="29.0939"/><text fill="#000000" font-family="sans-serif" font-size="14" font-weight="bold" lengthAdjust="spacing" textLength="62" x="42" y="21.2999">java.lang</text></g><!--class VV.Game--><a href="Game.html" target="_top" title="Game.html" xlink:actuate="onRequest" xlink:href="Game.html" xlink:show="new" xlink:title="Game.html" xlink:type="simple"><g id="elem_VV.Game"><rect codeLine="3" fill="#F1F1F1" height="148.7996" id="VV.Game" rx="2.5" ry="2.5" style="stroke:#181818;stroke-width:0.5;" width="157" x="22.5" y="183.294"/><ellipse cx="77.25" cy="199.294" fill="#ADD1B2" rx="11" ry="11" style="stroke:#181818;stroke-width:1.0;"/><path d="M72.25,200.4502 C72.25,202.9502 74.3906,204.7627 77.3125,204.7627 C78.5469,204.7627 79.7188,204.4659 80.4688,203.9502 C81.0781,203.5284 81.4063,203.1065 81.4063,202.7002 C81.4063,202.2315 80.9844,201.8252 80.4844,201.8252 C80.25,201.8252 80.0313,201.9034 79.8281,202.1065 C79.3906,202.544 79.3906,202.544 79.2188,202.6377 C78.7656,202.8721 78.125,203.0127 77.3594,203.0127 C75.3594,203.0127 74.0781,201.9971 74.0781,200.419 L74.0781,199.3721 C74.0781,197.669 75.2969,196.4659 77,196.4659 C77.5781,196.4659 78.1563,196.6065 78.625,196.8565 C79.0938,197.1221 79.2656,197.3096 79.3281,197.669 C79.4531,198.3409 79.7031,198.5909 80.2344,198.5909 C80.5156,198.5909 80.7969,198.4502 80.9844,198.2315 C81.1094,198.0596 81.1563,197.8877 81.1563,197.4502 L81.1563,196.0909 C81.1563,195.669 81.1406,195.5284 81.0156,195.3565 C80.8438,195.1065 80.5625,194.9502 80.2344,194.9502 C79.9219,194.9502 79.7188,195.0596 79.5,195.3252 C78.3281,194.8252 77.8906,194.7159 76.9375,194.7159 C74.2656,194.7159 72.25,196.7315 72.25,199.3565 L72.25,200.4502 Z " fill="#000000"/><text fill="#000000" font-family="sans-serif" font-size="14" lengthAdjust="spacing" textLength="39" x="97.75" y="203.9">Game</text><line style="stroke:#181818;stroke-width:0.5;" x1="23.5" x2="178.5" y1="215.294" y2="215.294"/><line style="stroke:#181818;stroke-width:0.5;" x1="23.5" x2="178.5" y1="223.294" y2="223.294"/><ellipse cx="33.5" cy="237.1939" fill="#84BE84" rx="3" ry="3" style="stroke:#038048;stroke-width:1.0;"/><text fill="#000000" font-family="sans-serif" font-size="14" lengthAdjust="spacing" text-decoration="underline" textLength="131" x="42.5" y="240.2999">getInstance(): Game</text><ellipse cx="33.5" cy="253.9939" fill="#84BE84" rx="3" ry="3" style="stroke:#038048;stroke-width:1.0;"/><text fill="#000000" font-family="sans-serif" font-size="14" lengthAdjust="spacing" textLength="65" x="42.5" y="257.0999">run(): void</text><ellipse cx="33.5" cy="270.7938" fill="#84BE84" rx="3" ry="3" style="stroke:#038048;stroke-width:1.0;"/><text fill="#000000" font-family="sans-serif" font-size="14" lengthAdjust="spacing" textLength="113" x="42.5" y="273.8998">StartGame(): void</text><ellipse cx="33.5" cy="287.5937" fill="#84BE84" rx="3" ry="3" style="stroke:#038048;stroke-width:1.0;"/><text fill="#000000" font-family="sans-serif" font-size="14" lengthAdjust="spacing" textLength="112" x="42.5" y="290.6997">StopGame(): void</text><ellipse cx="33.5" cy="304.3937" fill="#84BE84" rx="3" ry="3" style="stroke:#038048;stroke-width:1.0;"/><text fill="#000000" font-family="sans-serif" font-size="14" lengthAdjust="spacing" textLength="92" x="42.5" y="307.4996">GetWidth(): int</text><ellipse cx="33.5" cy="321.1936" fill="#84BE84" rx="3" ry="3" style="stroke:#038048;stroke-width:1.0;"/><text fill="#000000" font-family="sans-serif" font-size="14" lengthAdjust="spacing" textLength="97" x="42.5" y="324.2996">GetHeight(): int</text></g></a><!--class java.lang.Runnable--><g id="elem_java.lang.Runnable"><rect codeLine="16" fill="#F1F1F1" height="66.8999" id="java.lang.Runnable" rx="2.5" ry="2.5" style="stroke:#181818;stroke-width:0.5;" width="93" x="54.5" y="41.294"/><ellipse cx="69.5" cy="57.294" fill="#B4A7E5" rx="11" ry="11" style="stroke:#181818;stroke-width:1.0;"/><path d="M70.5156,54.4502 L72.1719,54.4502 C72.5625,54.4502 72.7656,54.419 72.9219,54.3409 C73.1875,54.169 73.3594,53.8721 73.3594,53.5752 C73.3594,53.294 73.2188,53.044 72.9844,52.8721 C72.7969,52.7471 72.6406,52.7002 72.1719,52.7002 L67.0313,52.7002 C66.5938,52.7002 66.4531,52.7159 66.2813,52.8252 C66.0156,52.9971 65.8438,53.2784 65.8438,53.5752 C65.8438,53.8565 65.9844,54.1377 66.2188,54.294 C66.4063,54.419 66.5938,54.4502 67.0313,54.4502 L68.6875,54.4502 L68.6875,60.544 L67.0313,60.544 C66.5938,60.544 66.4531,60.5596 66.2813,60.669 C66.0156,60.8252 65.8438,61.1221 65.8438,61.4034 C65.8438,62.0127 66.25,62.294 67.0313,62.294 L72.1719,62.294 C72.9531,62.294 73.3594,62.0127 73.3594,61.4034 C73.3594,61.1377 73.2188,60.8877 72.9844,60.7159 C72.7969,60.5752 72.625,60.544 72.1719,60.544 L70.5156,60.544 L70.5156,54.4502 Z " fill="#000000"/><text fill="#000000" font-family="sans-serif" font-size="14" font-style="italic" lengthAdjust="spacing" textLength="61" x="83.5" y="63.244">Runnable</text><line style="stroke:#181818;stroke-width:0.5;" x1="55.5" x2="146.5" y1="73.294" y2="73.294"/><line style="stroke:#181818;stroke-width:0.5;" x1="55.5" x2="146.5" y1="81.294" y2="81.294"/><ellipse cx="65.5" cy="96.2439" fill="#84BE84" rx="3" ry="3" style="stroke:#038048;stroke-width:1.0;"/><text fill="#000000" font-family="sans-serif" font-size="14" font-style="italic" lengthAdjust="spacing" textLength="65" x="74.5" y="100.6939">run(): void</text></g><!--reverse link java.lang.Runnable to VV.Game--><g id="link_java.lang.Runnable_VV.Game"><path codeLine="12" d="M101,129.544 C101,146.304 101,165.084 101,182.974 " fill="none" id="java.lang.Runnable-backto-VV.Game" style="stroke:#181818;stroke-width:1.0;stroke-dasharray:7.0,7.0;"/><polygon fill="none" points="94,129.574,101,109.574,108,129.574,94,129.574" style="stroke:#181818;stroke-width:1.0;"/></g><text fill="#888888" font-family="sans-serif" font-size="10" lengthAdjust="spacing" textLength="179" x="5" y="363.584">UMLDoclet 2.1.0, PlantUML 1.2022.14</text><!--SRC=[TP0_2m8n3CLtFqKMGL6AEegZe8A2AEeW3h7cxYgrbJRUelVTRKMyyr-MqFvUNiW3031u8dz6IR1UmxLMWsT9ZTx3A53ORcCJ6P_qRXSqKAchPsGb2sYbn1CJNaPIezb_JBufM-vY8iYjEho39QFZgF-7xVa_7H5lr86pI9NXBpWcbMRyIOloq2FcA3IQL2mknk1U4mnkGfG7FBLbKA-9IXR1d5mIwSlb8oZSUtOekVYTH57T9IdQGM9jRAlPT6Yb9eQUw8fE6-PXEOTVgEValBB1xGu0]--></g></svg>