<?xml version="1.0" encoding="UTF-8" standalone="no"?><svg xmlns="http://www.w3.org/2000/svg" xmlns:xlink="http://www.w3.org/1999/xlink" contentStyleType="text/css" height="682px" preserveAspectRatio="none" style="width:329px;height:682px;background:#FFFFFF;" version="1.1" viewBox="0 0 329 682" width="329px" zoomAndPan="magnify"><defs/><g><!--cluster VV--><g id="cluster_VV"><path d="M17.5,157.294 L36.5,157.294 A3.75,3.75 0 0 1 39,159.794 L46,180.0939 L318.5,180.0939 A2.5,2.5 0 0 1 321,182.5939 L321,505.794 A2.5,2.5 0 0 1 318.5,508.294 L17.5,508.294 A2.5,2.5 0 0 1 15,505.794 L15,159.794 A2.5,2.5 0 0 1 17.5,157.294 " fill="none" style="stroke:#000000;stroke-width:1.5;"/><line style="stroke:#000000;stroke-width:1.5;" x1="15" x2="46" y1="180.0939" y2="180.0939"/><text fill="#000000" font-family="sans-serif" font-size="14" font-weight="bold" lengthAdjust="spacing" textLength="18" x="19" y="172.2999">VV</text></g><!--cluster java.lang--><g id="cluster_java.lang"><path d="M51.5,6.294 L114.5,6.294 A3.75,3.75 0 0 1 117,8.794 L124,29.0939 L172.5,29.0939 A2.5,2.5 0 0 1 175,31.5939 L175,121.794 A2.5,2.5 0 0 1 172.5,124.294 L51.5,124.294 A2.5,2.5 0 0 1 49,121.794 L49,8.794 A2.5,2.5 0 0 1 51.5,6.294 " fill="none" style="stroke:#000000;stroke-width:1.5;"/><line style="stroke:#000000;stroke-width:1.5;" x1="49" x2="124" y1="29.0939" y2="29.0939"/><text fill="#000000" font-family="sans-serif" font-size="14" font-weight="bold" lengthAdjust="spacing" textLength="62" x="53" y="21.2999">java.lang</text></g><!--cluster VV.GameWindow--><g id="cluster_VV.GameWindow"><path d="M8.5,557.294 L125.5,557.294 A3.75,3.75 0 0 1 128,559.794 L135,580.0939 L157.5,580.0939 A2.5,2.5 0 0 1 160,582.5939 L160,653.794 A2.5,2.5 0 0 1 157.5,656.294 L8.5,656.294 A2.5,2.5 0 0 1 6,653.794 L6,559.794 A2.5,2.5 0 0 1 8.5,557.294 " fill="none" style="stroke:#000000;stroke-width:1.5;"/><line style="stroke:#000000;stroke-width:1.5;" x1="6" x2="135" y1="580.0939" y2="580.0939"/><text fill="#000000" font-family="sans-serif" font-size="14" font-weight="bold" lengthAdjust="spacing" textLength="116" x="10" y="572.2999">VV.GameWindow</text></g><!--cluster VV.States--><g id="cluster_VV.States"><path d="M186.5,557.294 L252.5,557.294 A3.75,3.75 0 0 1 255,559.794 L262,580.0939 L305.5,580.0939 A2.5,2.5 0 0 1 308,582.5939 L308,653.794 A2.5,2.5 0 0 1 305.5,656.294 L186.5,656.294 A2.5,2.5 0 0 1 184,653.794 L184,559.794 A2.5,2.5 0 0 1 186.5,557.294 " fill="none" style="stroke:#000000;stroke-width:1.5;"/><line style="stroke:#000000;stroke-width:1.5;" x1="184" x2="262" y1="580.0939" y2="580.0939"/><text fill="#000000" font-family="sans-serif" font-size="14" font-weight="bold" lengthAdjust="spacing" textLength="65" x="188" y="572.2999">VV.States</text></g><!--class VV.Game--><a href="Game.html" target="_top" title="Game.html" xlink:actuate="onRequest" xlink:href="Game.html" xlink:show="new" xlink:title="Game.html" xlink:type="simple"><g id="elem_VV.Game"><rect codeLine="3" fill="#F1F1F1" height="299.9989" id="VV.Game" rx="2.5" ry="2.5" style="stroke:#181818;stroke-width:0.5;" width="162" x="31" y="192.294"/><ellipse cx="88.25" cy="208.294" fill="#ADD1B2" rx="11" ry="11" style="stroke:#181818;stroke-width:1.0;"/><path d="M83.25,209.4502 C83.25,211.9502 85.3906,213.7627 88.3125,213.7627 C89.5469,213.7627 90.7188,213.4659 91.4688,212.9502 C92.0781,212.5284 92.4063,212.1065 92.4063,211.7002 C92.4063,211.2315 91.9844,210.8252 91.4844,210.8252 C91.25,210.8252 91.0313,210.9034 90.8281,211.1065 C90.3906,211.544 90.3906,211.544 90.2188,211.6377 C89.7656,211.8721 89.125,212.0127 88.3594,212.0127 C86.3594,212.0127 85.0781,210.9971 85.0781,209.419 L85.0781,208.3721 C85.0781,206.669 86.2969,205.4659 88,205.4659 C88.5781,205.4659 89.1563,205.6065 89.625,205.8565 C90.0938,206.1221 90.2656,206.3096 90.3281,206.669 C90.4531,207.3409 90.7031,207.5909 91.2344,207.5909 C91.5156,207.5909 91.7969,207.4502 91.9844,207.2315 C92.1094,207.0596 92.1563,206.8877 92.1563,206.4502 L92.1563,205.0909 C92.1563,204.669 92.1406,204.5284 92.0156,204.3565 C91.8438,204.1065 91.5625,203.9502 91.2344,203.9502 C90.9219,203.9502 90.7188,204.0596 90.5,204.3252 C89.3281,203.8252 88.8906,203.7159 87.9375,203.7159 C85.2656,203.7159 83.25,205.7315 83.25,208.3565 L83.25,209.4502 Z " fill="#000000"/><text fill="#000000" font-family="sans-serif" font-size="14" lengthAdjust="spacing" textLength="39" x="108.75" y="212.9">Game</text><line style="stroke:#181818;stroke-width:0.5;" x1="32" x2="192" y1="224.294" y2="224.294"/><rect fill="none" height="6" style="stroke:#C82930;stroke-width:1.0;" width="6" x="39" y="235.1939"/><text fill="#000000" font-family="sans-serif" font-size="14" lengthAdjust="spacing" textLength="113" x="51" y="241.2999">runState: boolean</text><rect fill="none" height="6" style="stroke:#C82930;stroke-width:1.0;" width="6" x="39" y="251.9939"/><text fill="#000000" font-family="sans-serif" font-size="14" lengthAdjust="spacing" textLength="136" x="51" y="258.0999">gameThread: Thread</text><rect fill="none" height="6" style="stroke:#C82930;stroke-width:1.0;" width="6" x="39" y="268.7938"/><text fill="#000000" font-family="sans-serif" font-size="14" lengthAdjust="spacing" textLength="114" x="51" y="274.8998">bs: BufferStrategy</text><rect fill="none" height="6" style="stroke:#C82930;stroke-width:1.0;" width="6" x="39" y="285.5937"/><text fill="#000000" font-family="sans-serif" font-size="14" lengthAdjust="spacing" textLength="73" x="51" y="291.6997">g: Graphics</text><ellipse cx="42" cy="305.3937" fill="none" rx="3" ry="3" style="stroke:#038048;stroke-width:1.0;"/><text fill="#000000" font-family="sans-serif" font-size="14" lengthAdjust="spacing" textLength="85" x="51" y="308.4996">bedCount: int</text><line style="stroke:#181818;stroke-width:0.5;" x1="32" x2="192" y1="316.2936" y2="316.2936"/><rect fill="#F24D5C" height="6" style="stroke:#C82930;stroke-width:1.0;" width="6" x="39" y="327.1936"/><text fill="#000000" font-family="sans-serif" font-size="14" lengthAdjust="spacing" textLength="132" x="51" y="333.2996">Game(String, int, int)</text><ellipse cx="42" cy="346.9935" fill="#84BE84" rx="3" ry="3" style="stroke:#038048;stroke-width:1.0;"/><text fill="#000000" font-family="sans-serif" font-size="14" lengthAdjust="spacing" text-decoration="underline" textLength="131" x="51" y="350.0995">getInstance(): Game</text><rect fill="#F24D5C" height="6" style="stroke:#C82930;stroke-width:1.0;" width="6" x="39" y="360.7934"/><text fill="#000000" font-family="sans-serif" font-size="14" lengthAdjust="spacing" textLength="102" x="51" y="366.8994">InitGame(): void</text><ellipse cx="42" cy="380.5934" fill="#84BE84" rx="3" ry="3" style="stroke:#038048;stroke-width:1.0;"/><text fill="#000000" font-family="sans-serif" font-size="14" lengthAdjust="spacing" textLength="65" x="51" y="383.6993">run(): void</text><ellipse cx="42" cy="397.3933" fill="#84BE84" rx="3" ry="3" style="stroke:#038048;stroke-width:1.0;"/><text fill="#000000" font-family="sans-serif" font-size="14" lengthAdjust="spacing" textLength="113" x="51" y="400.4993">StartGame(): void</text><ellipse cx="42" cy="414.1932" fill="#84BE84" rx="3" ry="3" style="stroke:#038048;stroke-width:1.0;"/><text fill="#000000" font-family="sans-serif" font-size="14" lengthAdjust="spacing" textLength="112" x="51" y="417.2992">StopGame(): void</text><rect fill="#F24D5C" height="6" style="stroke:#C82930;stroke-width:1.0;" width="6" x="39" y="427.9931"/><text fill="#000000" font-family="sans-serif" font-size="14" lengthAdjust="spacing" textLength="90" x="51" y="434.0991">Update(): void</text><rect fill="#F24D5C" height="6" style="stroke:#C82930;stroke-width:1.0;" width="6" x="39" y="444.7931"/><text fill="#000000" font-family="sans-serif" font-size="14" lengthAdjust="spacing" textLength="77" x="51" y="450.899">Draw(): void</text><ellipse cx="42" cy="464.593" fill="#84BE84" rx="3" ry="3" style="stroke:#038048;stroke-width:1.0;"/><text fill="#000000" font-family="sans-serif" font-size="14" lengthAdjust="spacing" textLength="92" x="51" y="467.699">GetWidth(): int</text><ellipse cx="42" cy="481.3929" fill="#84BE84" rx="3" ry="3" style="stroke:#038048;stroke-width:1.0;"/><text fill="#000000" font-family="sans-serif" font-size="14" lengthAdjust="spacing" textLength="97" x="51" y="484.4989">GetHeight(): int</text></g></a><!--class java.lang.Runnable--><g id="elem_java.lang.Runnable"><rect codeLine="28" fill="#F1F1F1" height="66.8999" id="java.lang.Runnable" rx="2.5" ry="2.5" style="stroke:#181818;stroke-width:0.5;" width="93" x="65.5" y="41.294"/><ellipse cx="80.5" cy="57.294" fill="#B4A7E5" rx="11" ry="11" style="stroke:#181818;stroke-width:1.0;"/><path d="M81.5156,54.4502 L83.1719,54.4502 C83.5625,54.4502 83.7656,54.419 83.9219,54.3409 C84.1875,54.169 84.3594,53.8721 84.3594,53.5752 C84.3594,53.294 84.2188,53.044 83.9844,52.8721 C83.7969,52.7471 83.6406,52.7002 83.1719,52.7002 L78.0313,52.7002 C77.5938,52.7002 77.4531,52.7159 77.2813,52.8252 C77.0156,52.9971 76.8438,53.2784 76.8438,53.5752 C76.8438,53.8565 76.9844,54.1377 77.2188,54.294 C77.4063,54.419 77.5938,54.4502 78.0313,54.4502 L79.6875,54.4502 L79.6875,60.544 L78.0313,60.544 C77.5938,60.544 77.4531,60.5596 77.2813,60.669 C77.0156,60.8252 76.8438,61.1221 76.8438,61.4034 C76.8438,62.0127 77.25,62.294 78.0313,62.294 L83.1719,62.294 C83.9531,62.294 84.3594,62.0127 84.3594,61.4034 C84.3594,61.1377 84.2188,60.8877 83.9844,60.7159 C83.7969,60.5752 83.625,60.544 83.1719,60.544 L81.5156,60.544 L81.5156,54.4502 Z " fill="#000000"/><text fill="#000000" font-family="sans-serif" font-size="14" font-style="italic" lengthAdjust="spacing" textLength="61" x="94.5" y="63.244">Runnable</text><line style="stroke:#181818;stroke-width:0.5;" x1="66.5" x2="157.5" y1="73.294" y2="73.294"/><line style="stroke:#181818;stroke-width:0.5;" x1="66.5" x2="157.5" y1="81.294" y2="81.294"/><ellipse cx="76.5" cy="96.2439" fill="#84BE84" rx="3" ry="3" style="stroke:#038048;stroke-width:1.0;"/><text fill="#000000" font-family="sans-serif" font-size="14" font-style="italic" lengthAdjust="spacing" textLength="65" x="85.5" y="100.6939">run(): void</text></g><!--class VV.GameWindow.GameWindow--><g id="elem_VV.GameWindow.GameWindow"><rect fill="#F1F1F1" height="48" id="VV.GameWindow.GameWindow" rx="2.5" ry="2.5" style="stroke:#181818;stroke-width:0.5;" width="121" x="22.5" y="592.294"/><ellipse cx="37.5" cy="608.294" fill="#ADD1B2" rx="11" ry="11" style="stroke:#181818;stroke-width:1.0;"/><path d="M32.5,609.4502 C32.5,611.9502 34.6406,613.7627 37.5625,613.7627 C38.7969,613.7627 39.9688,613.4659 40.7188,612.9502 C41.3281,612.5284 41.6563,612.1065 41.6563,611.7002 C41.6563,611.2315 41.2344,610.8252 40.7344,610.8252 C40.5,610.8252 40.2813,610.9034 40.0781,611.1065 C39.6406,611.544 39.6406,611.544 39.4688,611.6377 C39.0156,611.8721 38.375,612.0127 37.6094,612.0127 C35.6094,612.0127 34.3281,610.9971 34.3281,609.419 L34.3281,608.3721 C34.3281,606.669 35.5469,605.4659 37.25,605.4659 C37.8281,605.4659 38.4063,605.6065 38.875,605.8565 C39.3438,606.1221 39.5156,606.3096 39.5781,606.669 C39.7031,607.3409 39.9531,607.5909 40.4844,607.5909 C40.7656,607.5909 41.0469,607.4502 41.2344,607.2315 C41.3594,607.0596 41.4063,606.8877 41.4063,606.4502 L41.4063,605.0909 C41.4063,604.669 41.3906,604.5284 41.2656,604.3565 C41.0938,604.1065 40.8125,603.9502 40.4844,603.9502 C40.1719,603.9502 39.9688,604.0596 39.75,604.3252 C38.5781,603.8252 38.1406,603.7159 37.1875,603.7159 C34.5156,603.7159 32.5,605.7315 32.5,608.3565 L32.5,609.4502 Z " fill="#000000"/><text fill="#000000" font-family="sans-serif" font-size="14" lengthAdjust="spacing" textLength="89" x="51.5" y="612.9">GameWindow</text><line style="stroke:#181818;stroke-width:0.5;" x1="23.5" x2="142.5" y1="624.294" y2="624.294"/><line style="stroke:#181818;stroke-width:0.5;" x1="23.5" x2="142.5" y1="632.294" y2="632.294"/></g><!--class VV.States.PlayState--><g id="elem_VV.States.PlayState"><rect fill="#F1F1F1" height="48" id="VV.States.PlayState" rx="2.5" ry="2.5" style="stroke:#181818;stroke-width:0.5;" width="92" x="200" y="592.294"/><ellipse cx="215" cy="608.294" fill="#ADD1B2" rx="11" ry="11" style="stroke:#181818;stroke-width:1.0;"/><path d="M210,609.4502 C210,611.9502 212.1406,613.7627 215.0625,613.7627 C216.2969,613.7627 217.4688,613.4659 218.2188,612.9502 C218.8281,612.5284 219.1563,612.1065 219.1563,611.7002 C219.1563,611.2315 218.7344,610.8252 218.2344,610.8252 C218,610.8252 217.7813,610.9034 217.5781,611.1065 C217.1406,611.544 217.1406,611.544 216.9688,611.6377 C216.5156,611.8721 215.875,612.0127 215.1094,612.0127 C213.1094,612.0127 211.8281,610.9971 211.8281,609.419 L211.8281,608.3721 C211.8281,606.669 213.0469,605.4659 214.75,605.4659 C215.3281,605.4659 215.9063,605.6065 216.375,605.8565 C216.8438,606.1221 217.0156,606.3096 217.0781,606.669 C217.2031,607.3409 217.4531,607.5909 217.9844,607.5909 C218.2656,607.5909 218.5469,607.4502 218.7344,607.2315 C218.8594,607.0596 218.9063,606.8877 218.9063,606.4502 L218.9063,605.0909 C218.9063,604.669 218.8906,604.5284 218.7656,604.3565 C218.5938,604.1065 218.3125,603.9502 217.9844,603.9502 C217.6719,603.9502 217.4688,604.0596 217.25,604.3252 C216.0781,603.8252 215.6406,603.7159 214.6875,603.7159 C212.0156,603.7159 210,605.7315 210,608.3565 L210,609.4502 Z " fill="#000000"/><text fill="#000000" font-family="sans-serif" font-size="14" lengthAdjust="spacing" textLength="60" x="229" y="612.9">PlayState</text><line style="stroke:#181818;stroke-width:0.5;" x1="201" x2="291" y1="624.294" y2="624.294"/><line style="stroke:#181818;stroke-width:0.5;" x1="201" x2="291" y1="632.294" y2="632.294"/></g><!--reverse link java.lang.Runnable to VV.Game--><g id="link_java.lang.Runnable_VV.Game"><path codeLine="21" d="M112,129.394 C112,147.884 112,169.594 112,191.944 " fill="none" id="java.lang.Runnable-backto-VV.Game" style="stroke:#181818;stroke-width:1.0;stroke-dasharray:7.0,7.0;"/><polygon fill="none" points="105,129.614,112,109.614,119,129.614,105,129.614" style="stroke:#181818;stroke-width:1.0;"/></g><!--link VV.Game to VV.Game--><g id="link_VV.Game_VV.Game"><path codeLine="22" d="M193.31,307.134 C213.2,309.734 228,321.454 228,342.294 C228,361.014 216.05,372.374 199.2,376.384 " fill="none" id="VV.Game-to-VV.Game" style="stroke:#181818;stroke-width:1.0;"/><polygon fill="#181818" points="194.31,377.454,203.8833,379.7673,199.2282,376.5533,202.4422,371.8981,194.31,377.454" style="stroke:#181818;stroke-width:1.0;"/><text fill="#000000" font-family="sans-serif" font-size="13" lengthAdjust="spacing" textLength="82" x="234" y="346.871">gameInstance</text></g><!--link VV.Game to VV.GameWindow.GameWindow--><g id="link_VV.Game_VV.GameWindow.GameWindow"><path codeLine="23" d="M96.1,492.424 C92.28,528.244 88.59,562.834 86.11,586.134 " fill="none" id="VV.Game-to-VV.GameWindow.GameWindow" style="stroke:#181818;stroke-width:1.0;"/><polygon fill="#181818" points="85.5,590.814,90.4291,582.2873,86.0286,585.842,82.474,581.4415,85.5,590.814" style="stroke:#181818;stroke-width:1.0;"/><text fill="#000000" font-family="sans-serif" font-size="13" lengthAdjust="spacing" textLength="23" x="94" y="537.371">wnd</text></g><!--link VV.Game to VV.States.PlayState--><g id="link_VV.Game_VV.States.PlayState"><path codeLine="24" d="M185.47,492.424 C203.19,528.394 220.3,563.124 231.78,586.434 " fill="none" id="VV.Game-to-VV.States.PlayState" style="stroke:#181818;stroke-width:1.0;"/><polygon fill="#181818" points="234.43,590.814,234.0331,580.9731,232.2168,586.3305,226.8595,584.5142,234.43,590.814" style="stroke:#181818;stroke-width:1.0;"/><text fill="#000000" font-family="sans-serif" font-size="13" lengthAdjust="spacing" textLength="29" x="207" y="537.371">state</text></g><text fill="#888888" font-family="sans-serif" font-size="10" lengthAdjust="spacing" textLength="179" x="68" y="671.584">UMLDoclet 2.1.0, PlantUML 1.2022.14</text><!--SRC=[VL9HJy8m47xdLzoB2GJNg8-DyK59a4GJ8m8FX8UkwxQQqIvj1o6u_-vr8AmuxSDwstVtxRkx3m10iRMm9UC2vdFOztfmFBnWri8OKLWk_KLojovMAyo1rebCfQQEEK4XrheGJ8LmXfKVkH4ieN2uGpos51whD1LcwWpIPBkBUWfZmyfSSXi0mrWaJxfIZe9KBgpnQlj89rLsxT7cCGXozXOrIrx3C1Dkel1DST4VqARXa6sYf6iO4Tre6UeVOllT00x5_5CtTRhy4urcPOApwCP6XcsxESV2BMJYSezU3iM3pq9ckRj4w_FEFzc6aOAfZBnNIh6u473_HKWubCOIKVJG11JyWdy6-3jdFYS-NaYLw6qhfB1LIMTwOoPBtWgsE_hAh-f0VPHwjkn9SCkLs9imgKTFJOIMtRFOejUugxlNLxV_nOMdWrHhVyrUNqQQ5yB17RabDzU0CfN3ht2r4SPAZMpV]--></g></svg>