<?xml version="1.0" encoding="UTF-8" standalone="no"?><svg xmlns="http://www.w3.org/2000/svg" xmlns:xlink="http://www.w3.org/1999/xlink" contentStyleType="text/css" height="548px" preserveAspectRatio="none" style="width:203px;height:548px;background:#FFFFFF;" version="1.1" viewBox="0 0 203 548" width="203px" zoomAndPan="magnify"><defs/><g><!--cluster VV--><g id="cluster_VV"><path d="M8.5,157.294 L27.5,157.294 A3.75,3.75 0 0 1 30,159.794 L37,180.0939 L193.5,180.0939 A2.5,2.5 0 0 1 196,182.5939 L196,371.794 A2.5,2.5 0 0 1 193.5,374.294 L8.5,374.294 A2.5,2.5 0 0 1 6,371.794 L6,159.794 A2.5,2.5 0 0 1 8.5,157.294 " fill="none" style="stroke:#000000;stroke-width:1.5;"/><line style="stroke:#000000;stroke-width:1.5;" x1="6" x2="37" y1="180.0939" y2="180.0939"/><text fill="#000000" font-family="sans-serif" font-size="14" font-weight="bold" lengthAdjust="spacing" textLength="18" x="10" y="172.2999">VV</text></g><!--cluster java.lang--><g id="cluster_java.lang"><path d="M40.5,6.294 L103.5,6.294 A3.75,3.75 0 0 1 106,8.794 L113,29.0939 L161.5,29.0939 A2.5,2.5 0 0 1 164,31.5939 L164,121.794 A2.5,2.5 0 0 1 161.5,124.294 L40.5,124.294 A2.5,2.5 0 0 1 38,121.794 L38,8.794 A2.5,2.5 0 0 1 40.5,6.294 " fill="none" style="stroke:#000000;stroke-width:1.5;"/><line style="stroke:#000000;stroke-width:1.5;" x1="38" x2="113" y1="29.0939" y2="29.0939"/><text fill="#000000" font-family="sans-serif" font-size="14" font-weight="bold" lengthAdjust="spacing" textLength="62" x="42" y="21.2999">java.lang</text></g><!--cluster VV.States--><g id="cluster_VV.States"><path d="M41.5,423.294 L107.5,423.294 A3.75,3.75 0 0 1 110,425.794 L117,446.0939 L160.5,446.0939 A2.5,2.5 0 0 1 163,448.5939 L163,519.794 A2.5,2.5 0 0 1 160.5,522.294 L41.5,522.294 A2.5,2.5 0 0 1 39,519.794 L39,425.794 A2.5,2.5 0 0 1 41.5,423.294 " fill="none" style="stroke:#000000;stroke-width:1.5;"/><line style="stroke:#000000;stroke-width:1.5;" x1="39" x2="117" y1="446.0939" y2="446.0939"/><text fill="#000000" font-family="sans-serif" font-size="14" font-weight="bold" lengthAdjust="spacing" textLength="65" x="43" y="438.2999">VV.States</text></g><!--class VV.Game--><a href="Game.html" target="_top" title="Game.html" xlink:actuate="onRequest" xlink:href="Game.html" xlink:show="new" xlink:title="Game.html" xlink:type="simple"><g id="elem_VV.Game"><rect codeLine="3" fill="#F1F1F1" height="165.5995" id="VV.Game" rx="2.5" ry="2.5" style="stroke:#181818;stroke-width:0.5;" width="157" x="22.5" y="192.294"/><ellipse cx="77.25" cy="208.294" fill="#ADD1B2" rx="11" ry="11" style="stroke:#181818;stroke-width:1.0;"/><path d="M72.25,209.4502 C72.25,211.9502 74.3906,213.7627 77.3125,213.7627 C78.5469,213.7627 79.7188,213.4659 80.4688,212.9502 C81.0781,212.5284 81.4063,212.1065 81.4063,211.7002 C81.4063,211.2315 80.9844,210.8252 80.4844,210.8252 C80.25,210.8252 80.0313,210.9034 79.8281,211.1065 C79.3906,211.544 79.3906,211.544 79.2188,211.6377 C78.7656,211.8721 78.125,212.0127 77.3594,212.0127 C75.3594,212.0127 74.0781,210.9971 74.0781,209.419 L74.0781,208.3721 C74.0781,206.669 75.2969,205.4659 77,205.4659 C77.5781,205.4659 78.1563,205.6065 78.625,205.8565 C79.0938,206.1221 79.2656,206.3096 79.3281,206.669 C79.4531,207.3409 79.7031,207.5909 80.2344,207.5909 C80.5156,207.5909 80.7969,207.4502 80.9844,207.2315 C81.1094,207.0596 81.1563,206.8877 81.1563,206.4502 L81.1563,205.0909 C81.1563,204.669 81.1406,204.5284 81.0156,204.3565 C80.8438,204.1065 80.5625,203.9502 80.2344,203.9502 C79.9219,203.9502 79.7188,204.0596 79.5,204.3252 C78.3281,203.8252 77.8906,203.7159 76.9375,203.7159 C74.2656,203.7159 72.25,205.7315 72.25,208.3565 L72.25,209.4502 Z " fill="#000000"/><text fill="#000000" font-family="sans-serif" font-size="14" lengthAdjust="spacing" textLength="39" x="97.75" y="212.9">Game</text><line style="stroke:#181818;stroke-width:0.5;" x1="23.5" x2="178.5" y1="224.294" y2="224.294"/><ellipse cx="33.5" cy="238.1939" fill="none" rx="3" ry="3" style="stroke:#038048;stroke-width:1.0;"/><text fill="#000000" font-family="sans-serif" font-size="14" lengthAdjust="spacing" textLength="85" x="42.5" y="241.2999">bedCount: int</text><line style="stroke:#181818;stroke-width:0.5;" x1="23.5" x2="178.5" y1="249.0939" y2="249.0939"/><ellipse cx="33.5" cy="262.9939" fill="#84BE84" rx="3" ry="3" style="stroke:#038048;stroke-width:1.0;"/><text fill="#000000" font-family="sans-serif" font-size="14" lengthAdjust="spacing" text-decoration="underline" textLength="131" x="42.5" y="266.0999">getInstance(): Game</text><ellipse cx="33.5" cy="279.7938" fill="#84BE84" rx="3" ry="3" style="stroke:#038048;stroke-width:1.0;"/><text fill="#000000" font-family="sans-serif" font-size="14" lengthAdjust="spacing" textLength="65" x="42.5" y="282.8998">run(): void</text><ellipse cx="33.5" cy="296.5937" fill="#84BE84" rx="3" ry="3" style="stroke:#038048;stroke-width:1.0;"/><text fill="#000000" font-family="sans-serif" font-size="14" lengthAdjust="spacing" textLength="113" x="42.5" y="299.6997">StartGame(): void</text><ellipse cx="33.5" cy="313.3937" fill="#84BE84" rx="3" ry="3" style="stroke:#038048;stroke-width:1.0;"/><text fill="#000000" font-family="sans-serif" font-size="14" lengthAdjust="spacing" textLength="112" x="42.5" y="316.4996">StopGame(): void</text><ellipse cx="33.5" cy="330.1936" fill="#84BE84" rx="3" ry="3" style="stroke:#038048;stroke-width:1.0;"/><text fill="#000000" font-family="sans-serif" font-size="14" lengthAdjust="spacing" textLength="92" x="42.5" y="333.2996">GetWidth(): int</text><ellipse cx="33.5" cy="346.9935" fill="#84BE84" rx="3" ry="3" style="stroke:#038048;stroke-width:1.0;"/><text fill="#000000" font-family="sans-serif" font-size="14" lengthAdjust="spacing" textLength="97" x="42.5" y="350.0995">GetHeight(): int</text></g></a><!--class java.lang.Runnable--><g id="elem_java.lang.Runnable"><rect codeLine="18" fill="#F1F1F1" height="66.8999" id="java.lang.Runnable" rx="2.5" ry="2.5" style="stroke:#181818;stroke-width:0.5;" width="93" x="54.5" y="41.294"/><ellipse cx="69.5" cy="57.294" fill="#B4A7E5" rx="11" ry="11" style="stroke:#181818;stroke-width:1.0;"/><path d="M70.5156,54.4502 L72.1719,54.4502 C72.5625,54.4502 72.7656,54.419 72.9219,54.3409 C73.1875,54.169 73.3594,53.8721 73.3594,53.5752 C73.3594,53.294 73.2188,53.044 72.9844,52.8721 C72.7969,52.7471 72.6406,52.7002 72.1719,52.7002 L67.0313,52.7002 C66.5938,52.7002 66.4531,52.7159 66.2813,52.8252 C66.0156,52.9971 65.8438,53.2784 65.8438,53.5752 C65.8438,53.8565 65.9844,54.1377 66.2188,54.294 C66.4063,54.419 66.5938,54.4502 67.0313,54.4502 L68.6875,54.4502 L68.6875,60.544 L67.0313,60.544 C66.5938,60.544 66.4531,60.5596 66.2813,60.669 C66.0156,60.8252 65.8438,61.1221 65.8438,61.4034 C65.8438,62.0127 66.25,62.294 67.0313,62.294 L72.1719,62.294 C72.9531,62.294 73.3594,62.0127 73.3594,61.4034 C73.3594,61.1377 73.2188,60.8877 72.9844,60.7159 C72.7969,60.5752 72.625,60.544 72.1719,60.544 L70.5156,60.544 L70.5156,54.4502 Z " fill="#000000"/><text fill="#000000" font-family="sans-serif" font-size="14" font-style="italic" lengthAdjust="spacing" textLength="61" x="83.5" y="63.244">Runnable</text><line style="stroke:#181818;stroke-width:0.5;" x1="55.5" x2="146.5" y1="73.294" y2="73.294"/><line style="stroke:#181818;stroke-width:0.5;" x1="55.5" x2="146.5" y1="81.294" y2="81.294"/><ellipse cx="65.5" cy="96.2439" fill="#84BE84" rx="3" ry="3" style="stroke:#038048;stroke-width:1.0;"/><text fill="#000000" font-family="sans-serif" font-size="14" font-style="italic" lengthAdjust="spacing" textLength="65" x="74.5" y="100.6939">run(): void</text></g><!--class VV.States.PlayState--><g id="elem_VV.States.PlayState"><rect fill="#F1F1F1" height="48" id="VV.States.PlayState" rx="2.5" ry="2.5" style="stroke:#181818;stroke-width:0.5;" width="92" x="55" y="458.294"/><ellipse cx="70" cy="474.294" fill="#ADD1B2" rx="11" ry="11" style="stroke:#181818;stroke-width:1.0;"/><path d="M65,475.4502 C65,477.9502 67.1406,479.7627 70.0625,479.7627 C71.2969,479.7627 72.4688,479.4659 73.2188,478.9502 C73.8281,478.5284 74.1563,478.1065 74.1563,477.7002 C74.1563,477.2315 73.7344,476.8252 73.2344,476.8252 C73,476.8252 72.7813,476.9034 72.5781,477.1065 C72.1406,477.544 72.1406,477.544 71.9688,477.6377 C71.5156,477.8721 70.875,478.0127 70.1094,478.0127 C68.1094,478.0127 66.8281,476.9971 66.8281,475.419 L66.8281,474.3721 C66.8281,472.669 68.0469,471.4659 69.75,471.4659 C70.3281,471.4659 70.9063,471.6065 71.375,471.8565 C71.8438,472.1221 72.0156,472.3096 72.0781,472.669 C72.2031,473.3409 72.4531,473.5909 72.9844,473.5909 C73.2656,473.5909 73.5469,473.4502 73.7344,473.2315 C73.8594,473.0596 73.9063,472.8877 73.9063,472.4502 L73.9063,471.0909 C73.9063,470.669 73.8906,470.5284 73.7656,470.3565 C73.5938,470.1065 73.3125,469.9502 72.9844,469.9502 C72.6719,469.9502 72.4688,470.0596 72.25,470.3252 C71.0781,469.8252 70.6406,469.7159 69.6875,469.7159 C67.0156,469.7159 65,471.7315 65,474.3565 L65,475.4502 Z " fill="#000000"/><text fill="#000000" font-family="sans-serif" font-size="14" lengthAdjust="spacing" textLength="60" x="84" y="478.9">PlayState</text><line style="stroke:#181818;stroke-width:0.5;" x1="56" x2="146" y1="490.294" y2="490.294"/><line style="stroke:#181818;stroke-width:0.5;" x1="56" x2="146" y1="498.294" y2="498.294"/></g><!--reverse link java.lang.Runnable to VV.Game--><g id="link_java.lang.Runnable_VV.Game"><path codeLine="13" d="M101,129.304 C101,148.654 101,170.964 101,192.204 " fill="none" id="java.lang.Runnable-backto-VV.Game" style="stroke:#181818;stroke-width:1.0;stroke-dasharray:7.0,7.0;"/><polygon fill="none" points="94,129.574,101,109.574,108,129.574,94,129.574" style="stroke:#181818;stroke-width:1.0;"/></g><!--link VV.Game to VV.States.PlayState--><g id="link_VV.Game_VV.States.PlayState"><path codeLine="14" d="M101,358.794 C101,391.814 101,427.724 101,452.074 " fill="none" id="VV.Game-to-VV.States.PlayState" style="stroke:#181818;stroke-width:1.0;"/><polygon fill="#181818" points="101,457.004,105,448.004,101,452.004,97,448.004,101,457.004" style="stroke:#181818;stroke-width:1.0;"/><text fill="#000000" font-family="sans-serif" font-size="13" lengthAdjust="spacing" textLength="29" x="102" y="403.371">state</text></g><text fill="#888888" font-family="sans-serif" font-size="10" lengthAdjust="spacing" textLength="179" x="5" y="537.584">UMLDoclet 2.1.0, PlantUML 1.2022.14</text><!--SRC=[TP11ImCn48Nl_HLp4PJQe1uNyQ9G1GLHh8VImsnskXj99oMPNP1r_xl9MjhTOkSoIRxXpSi3063SKDYY9bWie9rCO5VQOWWmZnIMozHK9HkxMiKP6DGqf-BUrImP69OHQeEW6Dt1j2HvudXZJUSNMIyw5l4r9z0uKup1kw2ND7yAk-rfEYVvD8LKYHwRI_2HJ5d9CUqE6NnXWyeYb-gjPiRS4jp-A3N-G1_HR7ONyrFHhb1GhnQ_-sC6AOE_sPtk8U-z-Y3IQ8JyEj7znd7UBUP1F6hf_a-j6-xIbEHWxLng7o_F3qvR4hXHr-hg4g9DblWAPmtvO5nK-mK0]--></g></svg>