<?xml version="1.0" encoding="UTF-8" standalone="no"?><svg xmlns="http://www.w3.org/2000/svg" xmlns:xlink="http://www.w3.org/1999/xlink" contentStyleType="text/css" height="698px" preserveAspectRatio="none" style="width:405px;height:698px;background:#FFFFFF;" version="1.1" viewBox="0 0 405 698" width="405px" zoomAndPan="magnify"><defs/><g><!--cluster vv--><g id="cluster_vv"><path d="M8.5,157.194 L25.5,157.194 A3.75,3.75 0 0 1 28,159.694 L35,179.9939 L395.5,179.9939 A2.5,2.5 0 0 1 398,182.4939 L398,522.494 A2.5,2.5 0 0 1 395.5,524.994 L8.5,524.994 A2.5,2.5 0 0 1 6,522.494 L6,159.694 A2.5,2.5 0 0 1 8.5,157.194 " fill="none" style="stroke:#000000;stroke-width:1.5;"/><line style="stroke:#000000;stroke-width:1.5;" x1="6" x2="35" y1="179.9939" y2="179.9939"/><text fill="#000000" font-family="sans-serif" font-size="14" font-weight="bold" lengthAdjust="spacing" textLength="16" x="10" y="172.1999">vv</text></g><!--cluster java.lang--><g id="cluster_java.lang"><path d="M50.5,6.294 L113.5,6.294 A3.75,3.75 0 0 1 116,8.794 L123,29.0939 L171.5,29.0939 A2.5,2.5 0 0 1 174,31.5939 L174,121.694 A2.5,2.5 0 0 1 171.5,124.194 L50.5,124.194 A2.5,2.5 0 0 1 48,121.694 L48,8.794 A2.5,2.5 0 0 1 50.5,6.294 " fill="none" style="stroke:#000000;stroke-width:1.5;"/><line style="stroke:#000000;stroke-width:1.5;" x1="48" x2="123" y1="29.0939" y2="29.0939"/><text fill="#000000" font-family="sans-serif" font-size="14" font-weight="bold" lengthAdjust="spacing" textLength="62" x="52" y="21.2999">java.lang</text></g><!--cluster vv.States--><g id="cluster_vv.States"><path d="M64.5,573.994 L128.5,573.994 A3.75,3.75 0 0 1 131,576.494 L138,596.7939 L157.5,596.7939 A2.5,2.5 0 0 1 160,599.2939 L160,670.494 A2.5,2.5 0 0 1 157.5,672.994 L64.5,672.994 A2.5,2.5 0 0 1 62,670.494 L62,576.494 A2.5,2.5 0 0 1 64.5,573.994 " fill="none" style="stroke:#000000;stroke-width:1.5;"/><line style="stroke:#000000;stroke-width:1.5;" x1="62" x2="138" y1="596.7939" y2="596.7939"/><text fill="#000000" font-family="sans-serif" font-size="14" font-weight="bold" lengthAdjust="spacing" textLength="63" x="66" y="588.9999">vv.States</text></g><!--class vv.App--><a href="App.html" target="_top" title="App.html" xlink:actuate="onRequest" xlink:href="App.html" xlink:show="new" xlink:title="App.html" xlink:type="simple"><g id="elem_vv.App"><rect codeLine="3" fill="#F1F1F1" height="64.7999" id="vv.App" rx="2.5" ry="2.5" style="stroke:#181818;stroke-width:0.5;" width="146" x="236" y="318.194"/><ellipse cx="292.25" cy="334.194" fill="#ADD1B2" rx="11" ry="11" style="stroke:#181818;stroke-width:1.0;"/><path d="M287.25,335.3502 C287.25,337.8502 289.3906,339.6627 292.3125,339.6627 C293.5469,339.6627 294.7188,339.3659 295.4688,338.8502 C296.0781,338.4284 296.4063,338.0065 296.4063,337.6002 C296.4063,337.1315 295.9844,336.7252 295.4844,336.7252 C295.25,336.7252 295.0313,336.8034 294.8281,337.0065 C294.3906,337.444 294.3906,337.444 294.2188,337.5377 C293.7656,337.7721 293.125,337.9127 292.3594,337.9127 C290.3594,337.9127 289.0781,336.8971 289.0781,335.319 L289.0781,334.2721 C289.0781,332.569 290.2969,331.3659 292,331.3659 C292.5781,331.3659 293.1563,331.5065 293.625,331.7565 C294.0938,332.0221 294.2656,332.2096 294.3281,332.569 C294.4531,333.2409 294.7031,333.4909 295.2344,333.4909 C295.5156,333.4909 295.7969,333.3502 295.9844,333.1315 C296.1094,332.9596 296.1563,332.7877 296.1563,332.3502 L296.1563,330.9909 C296.1563,330.569 296.1406,330.4284 296.0156,330.2565 C295.8438,330.0065 295.5625,329.8502 295.2344,329.8502 C294.9219,329.8502 294.7188,329.9596 294.5,330.2252 C293.3281,329.7252 292.8906,329.6159 291.9375,329.6159 C289.2656,329.6159 287.25,331.6315 287.25,334.2565 L287.25,335.3502 Z " fill="#000000"/><text fill="#000000" font-family="sans-serif" font-size="14" lengthAdjust="spacing" textLength="25" x="312.75" y="338.8">App</text><line style="stroke:#181818;stroke-width:0.5;" x1="237" x2="381" y1="350.194" y2="350.194"/><line style="stroke:#181818;stroke-width:0.5;" x1="237" x2="381" y1="358.194" y2="358.194"/><ellipse cx="247" cy="372.0939" fill="#84BE84" rx="3" ry="3" style="stroke:#038048;stroke-width:1.0;"/><text fill="#000000" font-family="sans-serif" font-size="14" lengthAdjust="spacing" text-decoration="underline" textLength="120" x="256" y="375.1999">main(String[]): void</text></g></a><!--class vv.Game--><a href="Game.html" target="_top" title="Game.html" xlink:actuate="onRequest" xlink:href="Game.html" xlink:show="new" xlink:title="Game.html" xlink:type="simple"><g id="elem_vv.Game"><rect codeLine="7" fill="#F1F1F1" height="316.7988" id="vv.Game" rx="2.5" ry="2.5" style="stroke:#181818;stroke-width:0.5;" width="179" x="21.5" y="192.194"/><ellipse cx="87.25" cy="208.194" fill="#ADD1B2" rx="11" ry="11" style="stroke:#181818;stroke-width:1.0;"/><path d="M82.25,209.3502 C82.25,211.8502 84.3906,213.6627 87.3125,213.6627 C88.5469,213.6627 89.7188,213.3659 90.4688,212.8502 C91.0781,212.4284 91.4063,212.0065 91.4063,211.6002 C91.4063,211.1315 90.9844,210.7252 90.4844,210.7252 C90.25,210.7252 90.0313,210.8034 89.8281,211.0065 C89.3906,211.444 89.3906,211.444 89.2188,211.5377 C88.7656,211.7721 88.125,211.9127 87.3594,211.9127 C85.3594,211.9127 84.0781,210.8971 84.0781,209.319 L84.0781,208.2721 C84.0781,206.569 85.2969,205.3659 87,205.3659 C87.5781,205.3659 88.1563,205.5065 88.625,205.7565 C89.0938,206.0221 89.2656,206.2096 89.3281,206.569 C89.4531,207.2409 89.7031,207.4909 90.2344,207.4909 C90.5156,207.4909 90.7969,207.3502 90.9844,207.1315 C91.1094,206.9596 91.1563,206.7877 91.1563,206.3502 L91.1563,204.9909 C91.1563,204.569 91.1406,204.4284 91.0156,204.2565 C90.8438,204.0065 90.5625,203.8502 90.2344,203.8502 C89.9219,203.8502 89.7188,203.9596 89.5,204.2252 C88.3281,203.7252 87.8906,203.6159 86.9375,203.6159 C84.2656,203.6159 82.25,205.6315 82.25,208.2565 L82.25,209.3502 Z " fill="#000000"/><text fill="#000000" font-family="sans-serif" font-size="14" lengthAdjust="spacing" textLength="39" x="107.75" y="212.8">Game</text><line style="stroke:#181818;stroke-width:0.5;" x1="22.5" x2="199.5" y1="224.194" y2="224.194"/><ellipse cx="32.5" cy="238.0939" fill="none" rx="3" ry="3" style="stroke:#038048;stroke-width:1.0;"/><text fill="#000000" font-family="sans-serif" font-size="14" lengthAdjust="spacing" textLength="92" x="41.5" y="241.1999">bedsCount: int</text><ellipse cx="32.5" cy="254.8939" fill="none" rx="3" ry="3" style="stroke:#038048;stroke-width:1.0;"/><text fill="#000000" font-family="sans-serif" font-size="14" lengthAdjust="spacing" textLength="93" x="41.5" y="257.9999">deadCount: int</text><ellipse cx="32.5" cy="271.6938" fill="none" rx="3" ry="3" style="stroke:#038048;stroke-width:1.0;"/><text fill="#000000" font-family="sans-serif" font-size="14" lengthAdjust="spacing" textLength="143" x="41.5" y="274.7998">roomsVisitedCount: int</text><ellipse cx="32.5" cy="288.4937" fill="none" rx="3" ry="3" style="stroke:#038048;stroke-width:1.0;"/><text fill="#000000" font-family="sans-serif" font-size="14" lengthAdjust="spacing" textLength="153" x="41.5" y="291.5997">deathBySpikes: boolean</text><ellipse cx="32.5" cy="305.2937" fill="none" rx="3" ry="3" style="stroke:#038048;stroke-width:1.0;"/><text fill="#000000" font-family="sans-serif" font-size="14" lengthAdjust="spacing" textLength="145" x="41.5" y="308.3996">shoesSoaked: boolean</text><ellipse cx="32.5" cy="322.0936" fill="none" rx="3" ry="3" style="stroke:#038048;stroke-width:1.0;"/><text fill="#000000" font-family="sans-serif" font-size="14" lengthAdjust="spacing" textLength="133" x="41.5" y="325.1996">gameStartTime: long</text><ellipse cx="32.5" cy="338.8935" fill="none" rx="3" ry="3" style="stroke:#038048;stroke-width:1.0;"/><text fill="#000000" font-family="sans-serif" font-size="14" lengthAdjust="spacing" textLength="99" x="41.5" y="341.9995">notifyStart: long</text><ellipse cx="32.5" cy="355.6934" fill="none" rx="3" ry="3" style="stroke:#038048;stroke-width:1.0;"/><text fill="#000000" font-family="sans-serif" font-size="14" lengthAdjust="spacing" textLength="106" x="41.5" y="358.7994">notifyMsg: String</text><ellipse cx="32.5" cy="372.4934" fill="none" rx="3" ry="3" style="stroke:#038048;stroke-width:1.0;"/><text fill="#000000" font-family="sans-serif" font-size="14" lengthAdjust="spacing" textLength="128" x="41.5" y="375.5993">showNotify: boolean</text><line style="stroke:#181818;stroke-width:0.5;" x1="22.5" x2="199.5" y1="383.3933" y2="383.3933"/><ellipse cx="32.5" cy="397.2933" fill="#84BE84" rx="3" ry="3" style="stroke:#038048;stroke-width:1.0;"/><text fill="#000000" font-family="sans-serif" font-size="14" lengthAdjust="spacing" text-decoration="underline" textLength="131" x="41.5" y="400.3993">getInstance(): Game</text><ellipse cx="32.5" cy="414.0932" fill="#84BE84" rx="3" ry="3" style="stroke:#038048;stroke-width:1.0;"/><text fill="#000000" font-family="sans-serif" font-size="14" lengthAdjust="spacing" textLength="115" x="41.5" y="417.1992">notify(String): void</text><ellipse cx="32.5" cy="430.8931" fill="#84BE84" rx="3" ry="3" style="stroke:#038048;stroke-width:1.0;"/><text fill="#000000" font-family="sans-serif" font-size="14" lengthAdjust="spacing" textLength="65" x="41.5" y="433.9991">run(): void</text><ellipse cx="32.5" cy="447.6931" fill="#84BE84" rx="3" ry="3" style="stroke:#038048;stroke-width:1.0;"/><text fill="#000000" font-family="sans-serif" font-size="14" lengthAdjust="spacing" textLength="113" x="41.5" y="450.799">StartGame(): void</text><ellipse cx="32.5" cy="464.493" fill="#84BE84" rx="3" ry="3" style="stroke:#038048;stroke-width:1.0;"/><text fill="#000000" font-family="sans-serif" font-size="14" lengthAdjust="spacing" textLength="112" x="41.5" y="467.599">StopGame(): void</text><ellipse cx="32.5" cy="481.2929" fill="#84BE84" rx="3" ry="3" style="stroke:#038048;stroke-width:1.0;"/><text fill="#000000" font-family="sans-serif" font-size="14" lengthAdjust="spacing" textLength="92" x="41.5" y="484.3989">GetWidth(): int</text><ellipse cx="32.5" cy="498.0928" fill="#84BE84" rx="3" ry="3" style="stroke:#038048;stroke-width:1.0;"/><text fill="#000000" font-family="sans-serif" font-size="14" lengthAdjust="spacing" textLength="97" x="41.5" y="501.1988">GetHeight(): int</text></g></a><!--class java.lang.Runnable--><g id="elem_java.lang.Runnable"><rect codeLine="31" fill="#F1F1F1" height="66.8999" id="java.lang.Runnable" rx="2.5" ry="2.5" style="stroke:#181818;stroke-width:0.5;" width="93" x="64.5" y="41.294"/><ellipse cx="79.5" cy="57.294" fill="#B4A7E5" rx="11" ry="11" style="stroke:#181818;stroke-width:1.0;"/><path d="M80.5156,54.4502 L82.1719,54.4502 C82.5625,54.4502 82.7656,54.419 82.9219,54.3409 C83.1875,54.169 83.3594,53.8721 83.3594,53.5752 C83.3594,53.294 83.2188,53.044 82.9844,52.8721 C82.7969,52.7471 82.6406,52.7002 82.1719,52.7002 L77.0313,52.7002 C76.5938,52.7002 76.4531,52.7159 76.2813,52.8252 C76.0156,52.9971 75.8438,53.2784 75.8438,53.5752 C75.8438,53.8565 75.9844,54.1377 76.2188,54.294 C76.4063,54.419 76.5938,54.4502 77.0313,54.4502 L78.6875,54.4502 L78.6875,60.544 L77.0313,60.544 C76.5938,60.544 76.4531,60.5596 76.2813,60.669 C76.0156,60.8252 75.8438,61.1221 75.8438,61.4034 C75.8438,62.0127 76.25,62.294 77.0313,62.294 L82.1719,62.294 C82.9531,62.294 83.3594,62.0127 83.3594,61.4034 C83.3594,61.1377 83.2188,60.8877 82.9844,60.7159 C82.7969,60.5752 82.625,60.544 82.1719,60.544 L80.5156,60.544 L80.5156,54.4502 Z " fill="#000000"/><text fill="#000000" font-family="sans-serif" font-size="14" font-style="italic" lengthAdjust="spacing" textLength="61" x="93.5" y="63.244">Runnable</text><line style="stroke:#181818;stroke-width:0.5;" x1="65.5" x2="156.5" y1="73.294" y2="73.294"/><line style="stroke:#181818;stroke-width:0.5;" x1="65.5" x2="156.5" y1="81.294" y2="81.294"/><ellipse cx="75.5" cy="96.2439" fill="#84BE84" rx="3" ry="3" style="stroke:#038048;stroke-width:1.0;"/><text fill="#000000" font-family="sans-serif" font-size="14" font-style="italic" lengthAdjust="spacing" textLength="65" x="84.5" y="100.6939">run(): void</text></g><!--class vv.States.State--><g id="elem_vv.States.State"><rect fill="#F1F1F1" height="48" id="vv.States.State" rx="2.5" ry="2.5" style="stroke:#181818;stroke-width:0.5;" width="65" x="78.5" y="608.994"/><ellipse cx="93.5" cy="624.994" fill="#ADD1B2" rx="11" ry="11" style="stroke:#181818;stroke-width:1.0;"/><path d="M88.5,626.1502 C88.5,628.6502 90.6406,630.4627 93.5625,630.4627 C94.7969,630.4627 95.9688,630.1659 96.7188,629.6502 C97.3281,629.2284 97.6563,628.8065 97.6563,628.4002 C97.6563,627.9315 97.2344,627.5252 96.7344,627.5252 C96.5,627.5252 96.2813,627.6034 96.0781,627.8065 C95.6406,628.244 95.6406,628.244 95.4688,628.3377 C95.0156,628.5721 94.375,628.7127 93.6094,628.7127 C91.6094,628.7127 90.3281,627.6971 90.3281,626.119 L90.3281,625.0721 C90.3281,623.369 91.5469,622.1659 93.25,622.1659 C93.8281,622.1659 94.4063,622.3065 94.875,622.5565 C95.3438,622.8221 95.5156,623.0096 95.5781,623.369 C95.7031,624.0409 95.9531,624.2909 96.4844,624.2909 C96.7656,624.2909 97.0469,624.1502 97.2344,623.9315 C97.3594,623.7596 97.4063,623.5877 97.4063,623.1502 L97.4063,621.7909 C97.4063,621.369 97.3906,621.2284 97.2656,621.0565 C97.0938,620.8065 96.8125,620.6502 96.4844,620.6502 C96.1719,620.6502 95.9688,620.7596 95.75,621.0252 C94.5781,620.5252 94.1406,620.4159 93.1875,620.4159 C90.5156,620.4159 88.5,622.4315 88.5,625.0565 L88.5,626.1502 Z " fill="#000000"/><text fill="#000000" font-family="sans-serif" font-size="14" lengthAdjust="spacing" textLength="33" x="107.5" y="629.6">State</text><line style="stroke:#181818;stroke-width:0.5;" x1="79.5" x2="142.5" y1="640.994" y2="640.994"/><line style="stroke:#181818;stroke-width:0.5;" x1="79.5" x2="142.5" y1="648.994" y2="648.994"/></g><!--reverse link java.lang.Runnable to vv.Game--><g id="link_java.lang.Runnable_vv.Game"><path codeLine="26" d="M111,129.244 C111,147.704 111,169.444 111,191.954 " fill="none" id="java.lang.Runnable-backto-vv.Game" style="stroke:#181818;stroke-width:1.0;stroke-dasharray:7.0,7.0;"/><polygon fill="none" points="104,129.504,111,109.504,118,129.504,104,129.504" style="stroke:#181818;stroke-width:1.0;"/></g><!--link vv.Game to vv.States.State--><g id="link_vv.Game_vv.States.State"><path codeLine="27" d="M111,509.414 C111,545.314 111,579.634 111,602.784 " fill="none" id="vv.Game-to-vv.States.State" style="stroke:#181818;stroke-width:1.0;"/><polygon fill="#181818" points="111,607.724,115,598.724,111,602.724,107,598.724,111,607.724" style="stroke:#181818;stroke-width:1.0;"/><text fill="#000000" font-family="sans-serif" font-size="13" lengthAdjust="spacing" textLength="29" x="112" y="554.071">state</text></g><text fill="#888888" font-family="sans-serif" font-size="10" lengthAdjust="spacing" textLength="179" x="106" y="688.284">UMLDoclet 2.1.0, PlantUML 1.2022.14</text><!--SRC=[VL9DJuD04BtxA-PYKbExKO_4cFYHL1DhZFXnQ7fOs2ciXLt2JZ5DvR-x2qqB5Dm34tXltnlU3020uYcQZ8S8HG7RanFOdJ3Xni1jbi5yRfyifZHPB2m36cThY9CCInYdNAgHJxbKqNnnva6XfTXJowxir9fQNLVwXSS12dElrueya8hQc40kXh1SwzHyIYC9nJ_tARxR-9bSeV4Wq3f1hjeS4siqlkOh50ECo3Rl4y_fNQReGQ9Lr2OeJNAvgIZ3yCn47jIv7JNmyr9H-lqFqKT8Jyg-gH17DdaNQf_JRZhTsTIfhTMe5wYwTuf3iCw6qIdIbnGKE_He21PyH1d5r4KRo_BD2yuIhYBsjbQA1md2zIzZxL-iTcaokR7xosoxXAOk7hY4QjvEyx3hU-N6tjacC5ywTE_MsNOU6CfvI6L_OcNJAqGd1qkjNVcOFJ_eC462AtR9BixXrPgJ_Ggd1UP6Qgls1m00]--></g></svg>