<?xml version="1.0" encoding="UTF-8" standalone="no"?><svg xmlns="http://www.w3.org/2000/svg" xmlns:xlink="http://www.w3.org/1999/xlink" contentStyleType="text/css" height="614px" preserveAspectRatio="none" style="width:384px;height:614px;background:#FFFFFF;" version="1.1" viewBox="0 0 384 614" width="384px" zoomAndPan="magnify"><defs/><g><!--cluster vv--><g id="cluster_vv"><path d="M8.5,157.194 L25.5,157.194 A3.75,3.75 0 0 1 28,159.694 L35,179.9939 L374.5,179.9939 A2.5,2.5 0 0 1 377,182.4939 L377,438.494 A2.5,2.5 0 0 1 374.5,440.994 L8.5,440.994 A2.5,2.5 0 0 1 6,438.494 L6,159.694 A2.5,2.5 0 0 1 8.5,157.194 " fill="none" style="stroke:#000000;stroke-width:1.5;"/><line style="stroke:#000000;stroke-width:1.5;" x1="6" x2="35" y1="179.9939" y2="179.9939"/><text fill="#000000" font-family="sans-serif" font-size="14" font-weight="bold" lengthAdjust="spacing" textLength="16" x="10" y="172.1999">vv</text></g><!--cluster java.lang--><g id="cluster_java.lang"><path d="M221.5,6.294 L284.5,6.294 A3.75,3.75 0 0 1 287,8.794 L294,29.0939 L342.5,29.0939 A2.5,2.5 0 0 1 345,31.5939 L345,121.694 A2.5,2.5 0 0 1 342.5,124.194 L221.5,124.194 A2.5,2.5 0 0 1 219,121.694 L219,8.794 A2.5,2.5 0 0 1 221.5,6.294 " fill="none" style="stroke:#000000;stroke-width:1.5;"/><line style="stroke:#000000;stroke-width:1.5;" x1="219" x2="294" y1="29.0939" y2="29.0939"/><text fill="#000000" font-family="sans-serif" font-size="14" font-weight="bold" lengthAdjust="spacing" textLength="62" x="223" y="21.2999">java.lang</text></g><!--cluster vv.States--><g id="cluster_vv.States"><path d="M235.5,489.994 L299.5,489.994 A3.75,3.75 0 0 1 302,492.494 L309,512.7939 L328.5,512.7939 A2.5,2.5 0 0 1 331,515.2939 L331,586.494 A2.5,2.5 0 0 1 328.5,588.994 L235.5,588.994 A2.5,2.5 0 0 1 233,586.494 L233,492.494 A2.5,2.5 0 0 1 235.5,489.994 " fill="none" style="stroke:#000000;stroke-width:1.5;"/><line style="stroke:#000000;stroke-width:1.5;" x1="233" x2="309" y1="512.7939" y2="512.7939"/><text fill="#000000" font-family="sans-serif" font-size="14" font-weight="bold" lengthAdjust="spacing" textLength="63" x="237" y="504.9999">vv.States</text></g><!--class vv.Game--><a href="Game.html" target="_top" title="Game.html" xlink:actuate="onRequest" xlink:href="Game.html" xlink:show="new" xlink:title="Game.html" xlink:type="simple"><g id="elem_vv.Game"><rect codeLine="3" fill="#F1F1F1" height="232.7992" id="vv.Game" rx="2.5" ry="2.5" style="stroke:#181818;stroke-width:0.5;" width="159" x="202.5" y="192.194"/><ellipse cx="258.25" cy="208.194" fill="#ADD1B2" rx="11" ry="11" style="stroke:#181818;stroke-width:1.0;"/><path d="M253.25,209.3502 C253.25,211.8502 255.3906,213.6627 258.3125,213.6627 C259.5469,213.6627 260.7188,213.3659 261.4688,212.8502 C262.0781,212.4284 262.4063,212.0065 262.4063,211.6002 C262.4063,211.1315 261.9844,210.7252 261.4844,210.7252 C261.25,210.7252 261.0313,210.8034 260.8281,211.0065 C260.3906,211.444 260.3906,211.444 260.2188,211.5377 C259.7656,211.7721 259.125,211.9127 258.3594,211.9127 C256.3594,211.9127 255.0781,210.8971 255.0781,209.319 L255.0781,208.2721 C255.0781,206.569 256.2969,205.3659 258,205.3659 C258.5781,205.3659 259.1563,205.5065 259.625,205.7565 C260.0938,206.0221 260.2656,206.2096 260.3281,206.569 C260.4531,207.2409 260.7031,207.4909 261.2344,207.4909 C261.5156,207.4909 261.7969,207.3502 261.9844,207.1315 C262.1094,206.9596 262.1563,206.7877 262.1563,206.3502 L262.1563,204.9909 C262.1563,204.569 262.1406,204.4284 262.0156,204.2565 C261.8438,204.0065 261.5625,203.8502 261.2344,203.8502 C260.9219,203.8502 260.7188,203.9596 260.5,204.2252 C259.3281,203.7252 258.8906,203.6159 257.9375,203.6159 C255.2656,203.6159 253.25,205.6315 253.25,208.2565 L253.25,209.3502 Z " fill="#000000"/><text fill="#000000" font-family="sans-serif" font-size="14" lengthAdjust="spacing" textLength="39" x="278.75" y="212.8">Game</text><line style="stroke:#181818;stroke-width:0.5;" x1="203.5" x2="360.5" y1="224.194" y2="224.194"/><ellipse cx="213.5" cy="238.0939" fill="none" rx="3" ry="3" style="stroke:#038048;stroke-width:1.0;"/><text fill="#000000" font-family="sans-serif" font-size="14" lengthAdjust="spacing" textLength="133" x="222.5" y="241.1999">gameStartTime: long</text><ellipse cx="213.5" cy="254.8939" fill="none" rx="3" ry="3" style="stroke:#038048;stroke-width:1.0;"/><text fill="#000000" font-family="sans-serif" font-size="14" lengthAdjust="spacing" textLength="99" x="222.5" y="257.9999">notifyStart: long</text><ellipse cx="213.5" cy="271.6938" fill="none" rx="3" ry="3" style="stroke:#038048;stroke-width:1.0;"/><text fill="#000000" font-family="sans-serif" font-size="14" lengthAdjust="spacing" textLength="106" x="222.5" y="274.7998">notifyMsg: String</text><ellipse cx="213.5" cy="288.4937" fill="none" rx="3" ry="3" style="stroke:#038048;stroke-width:1.0;"/><text fill="#000000" font-family="sans-serif" font-size="14" lengthAdjust="spacing" textLength="128" x="222.5" y="291.5997">showNotify: boolean</text><line style="stroke:#181818;stroke-width:0.5;" x1="203.5" x2="360.5" y1="299.3937" y2="299.3937"/><ellipse cx="213.5" cy="313.2937" fill="#84BE84" rx="3" ry="3" style="stroke:#038048;stroke-width:1.0;"/><text fill="#000000" font-family="sans-serif" font-size="14" lengthAdjust="spacing" text-decoration="underline" textLength="131" x="222.5" y="316.3996">getInstance(): Game</text><ellipse cx="213.5" cy="330.0936" fill="#84BE84" rx="3" ry="3" style="stroke:#038048;stroke-width:1.0;"/><text fill="#000000" font-family="sans-serif" font-size="14" lengthAdjust="spacing" textLength="115" x="222.5" y="333.1996">notify(String): void</text><ellipse cx="213.5" cy="346.8935" fill="#84BE84" rx="3" ry="3" style="stroke:#038048;stroke-width:1.0;"/><text fill="#000000" font-family="sans-serif" font-size="14" lengthAdjust="spacing" textLength="65" x="222.5" y="349.9995">run(): void</text><ellipse cx="213.5" cy="363.6934" fill="#84BE84" rx="3" ry="3" style="stroke:#038048;stroke-width:1.0;"/><text fill="#000000" font-family="sans-serif" font-size="14" lengthAdjust="spacing" textLength="113" x="222.5" y="366.7994">StartGame(): void</text><ellipse cx="213.5" cy="380.4934" fill="#84BE84" rx="3" ry="3" style="stroke:#038048;stroke-width:1.0;"/><text fill="#000000" font-family="sans-serif" font-size="14" lengthAdjust="spacing" textLength="112" x="222.5" y="383.5993">StopGame(): void</text><ellipse cx="213.5" cy="397.2933" fill="#84BE84" rx="3" ry="3" style="stroke:#038048;stroke-width:1.0;"/><text fill="#000000" font-family="sans-serif" font-size="14" lengthAdjust="spacing" textLength="92" x="222.5" y="400.3993">GetWidth(): int</text><ellipse cx="213.5" cy="414.0932" fill="#84BE84" rx="3" ry="3" style="stroke:#038048;stroke-width:1.0;"/><text fill="#000000" font-family="sans-serif" font-size="14" lengthAdjust="spacing" textLength="97" x="222.5" y="417.1992">GetHeight(): int</text></g></a><!--class vv.App--><a href="App.html" target="_top" title="App.html" xlink:actuate="onRequest" xlink:href="App.html" xlink:show="new" xlink:title="App.html" xlink:type="simple"><g id="elem_vv.App"><rect codeLine="17" fill="#F1F1F1" height="64.7999" id="vv.App" rx="2.5" ry="2.5" style="stroke:#181818;stroke-width:0.5;" width="146" x="22" y="276.194"/><ellipse cx="78.25" cy="292.194" fill="#ADD1B2" rx="11" ry="11" style="stroke:#181818;stroke-width:1.0;"/><path d="M73.25,293.3502 C73.25,295.8502 75.3906,297.6627 78.3125,297.6627 C79.5469,297.6627 80.7188,297.3659 81.4688,296.8502 C82.0781,296.4284 82.4063,296.0065 82.4063,295.6002 C82.4063,295.1315 81.9844,294.7252 81.4844,294.7252 C81.25,294.7252 81.0313,294.8034 80.8281,295.0065 C80.3906,295.444 80.3906,295.444 80.2188,295.5377 C79.7656,295.7721 79.125,295.9127 78.3594,295.9127 C76.3594,295.9127 75.0781,294.8971 75.0781,293.319 L75.0781,292.2721 C75.0781,290.569 76.2969,289.3659 78,289.3659 C78.5781,289.3659 79.1563,289.5065 79.625,289.7565 C80.0938,290.0221 80.2656,290.2096 80.3281,290.569 C80.4531,291.2409 80.7031,291.4909 81.2344,291.4909 C81.5156,291.4909 81.7969,291.3502 81.9844,291.1315 C82.1094,290.9596 82.1563,290.7877 82.1563,290.3502 L82.1563,288.9909 C82.1563,288.569 82.1406,288.4284 82.0156,288.2565 C81.8438,288.0065 81.5625,287.8502 81.2344,287.8502 C80.9219,287.8502 80.7188,287.9596 80.5,288.2252 C79.3281,287.7252 78.8906,287.6159 77.9375,287.6159 C75.2656,287.6159 73.25,289.6315 73.25,292.2565 L73.25,293.3502 Z " fill="#000000"/><text fill="#000000" font-family="sans-serif" font-size="14" lengthAdjust="spacing" textLength="25" x="98.75" y="296.8">App</text><line style="stroke:#181818;stroke-width:0.5;" x1="23" x2="167" y1="308.194" y2="308.194"/><line style="stroke:#181818;stroke-width:0.5;" x1="23" x2="167" y1="316.194" y2="316.194"/><ellipse cx="33" cy="330.0939" fill="#84BE84" rx="3" ry="3" style="stroke:#038048;stroke-width:1.0;"/><text fill="#000000" font-family="sans-serif" font-size="14" lengthAdjust="spacing" text-decoration="underline" textLength="120" x="42" y="333.1999">main(String[]): void</text></g></a><!--class java.lang.Runnable--><g id="elem_java.lang.Runnable"><rect codeLine="26" fill="#F1F1F1" height="66.8999" id="java.lang.Runnable" rx="2.5" ry="2.5" style="stroke:#181818;stroke-width:0.5;" width="93" x="235.5" y="41.294"/><ellipse cx="250.5" cy="57.294" fill="#B4A7E5" rx="11" ry="11" style="stroke:#181818;stroke-width:1.0;"/><path d="M251.5156,54.4502 L253.1719,54.4502 C253.5625,54.4502 253.7656,54.419 253.9219,54.3409 C254.1875,54.169 254.3594,53.8721 254.3594,53.5752 C254.3594,53.294 254.2188,53.044 253.9844,52.8721 C253.7969,52.7471 253.6406,52.7002 253.1719,52.7002 L248.0313,52.7002 C247.5938,52.7002 247.4531,52.7159 247.2813,52.8252 C247.0156,52.9971 246.8438,53.2784 246.8438,53.5752 C246.8438,53.8565 246.9844,54.1377 247.2188,54.294 C247.4063,54.419 247.5938,54.4502 248.0313,54.4502 L249.6875,54.4502 L249.6875,60.544 L248.0313,60.544 C247.5938,60.544 247.4531,60.5596 247.2813,60.669 C247.0156,60.8252 246.8438,61.1221 246.8438,61.4034 C246.8438,62.0127 247.25,62.294 248.0313,62.294 L253.1719,62.294 C253.9531,62.294 254.3594,62.0127 254.3594,61.4034 C254.3594,61.1377 254.2188,60.8877 253.9844,60.7159 C253.7969,60.5752 253.625,60.544 253.1719,60.544 L251.5156,60.544 L251.5156,54.4502 Z " fill="#000000"/><text fill="#000000" font-family="sans-serif" font-size="14" font-style="italic" lengthAdjust="spacing" textLength="61" x="264.5" y="63.244">Runnable</text><line style="stroke:#181818;stroke-width:0.5;" x1="236.5" x2="327.5" y1="73.294" y2="73.294"/><line style="stroke:#181818;stroke-width:0.5;" x1="236.5" x2="327.5" y1="81.294" y2="81.294"/><ellipse cx="246.5" cy="96.2439" fill="#84BE84" rx="3" ry="3" style="stroke:#038048;stroke-width:1.0;"/><text fill="#000000" font-family="sans-serif" font-size="14" font-style="italic" lengthAdjust="spacing" textLength="65" x="255.5" y="100.6939">run(): void</text></g><!--class vv.States.State--><g id="elem_vv.States.State"><rect fill="#F1F1F1" height="48" id="vv.States.State" rx="2.5" ry="2.5" style="stroke:#181818;stroke-width:0.5;" width="65" x="249.5" y="524.994"/><ellipse cx="264.5" cy="540.994" fill="#ADD1B2" rx="11" ry="11" style="stroke:#181818;stroke-width:1.0;"/><path d="M259.5,542.1502 C259.5,544.6502 261.6406,546.4627 264.5625,546.4627 C265.7969,546.4627 266.9688,546.1659 267.7188,545.6502 C268.3281,545.2284 268.6563,544.8065 268.6563,544.4002 C268.6563,543.9315 268.2344,543.5252 267.7344,543.5252 C267.5,543.5252 267.2813,543.6034 267.0781,543.8065 C266.6406,544.244 266.6406,544.244 266.4688,544.3377 C266.0156,544.5721 265.375,544.7127 264.6094,544.7127 C262.6094,544.7127 261.3281,543.6971 261.3281,542.119 L261.3281,541.0721 C261.3281,539.369 262.5469,538.1659 264.25,538.1659 C264.8281,538.1659 265.4063,538.3065 265.875,538.5565 C266.3438,538.8221 266.5156,539.0096 266.5781,539.369 C266.7031,540.0409 266.9531,540.2909 267.4844,540.2909 C267.7656,540.2909 268.0469,540.1502 268.2344,539.9315 C268.3594,539.7596 268.4063,539.5877 268.4063,539.1502 L268.4063,537.7909 C268.4063,537.369 268.3906,537.2284 268.2656,537.0565 C268.0938,536.8065 267.8125,536.6502 267.4844,536.6502 C267.1719,536.6502 266.9688,536.7596 266.75,537.0252 C265.5781,536.5252 265.1406,536.4159 264.1875,536.4159 C261.5156,536.4159 259.5,538.4315 259.5,541.0565 L259.5,542.1502 Z " fill="#000000"/><text fill="#000000" font-family="sans-serif" font-size="14" lengthAdjust="spacing" textLength="33" x="278.5" y="545.6">State</text><line style="stroke:#181818;stroke-width:0.5;" x1="250.5" x2="313.5" y1="556.994" y2="556.994"/><line style="stroke:#181818;stroke-width:0.5;" x1="250.5" x2="313.5" y1="564.994" y2="564.994"/></g><!--reverse link java.lang.Runnable to vv.Game--><g id="link_java.lang.Runnable_vv.Game"><path codeLine="21" d="M282,129.254 C282,148.024 282,169.904 282,191.784 " fill="none" id="java.lang.Runnable-backto-vv.Game" style="stroke:#181818;stroke-width:1.0;stroke-dasharray:7.0,7.0;"/><polygon fill="none" points="275,129.474,282,109.474,289,129.474,275,129.474" style="stroke:#181818;stroke-width:1.0;"/></g><!--link vv.Game to vv.States.State--><g id="link_vv.Game_vv.States.State"><path codeLine="22" d="M282,425.304 C282,460.084 282,495.254 282,518.974 " fill="none" id="vv.Game-to-vv.States.State" style="stroke:#181818;stroke-width:1.0;"/><polygon fill="#181818" points="282,523.744,286,514.744,282,518.744,278,514.744,282,523.744" style="stroke:#181818;stroke-width:1.0;"/><text fill="#000000" font-family="sans-serif" font-size="13" lengthAdjust="spacing" textLength="29" x="283" y="470.071">state</text></g><text fill="#888888" font-family="sans-serif" font-size="10" lengthAdjust="spacing" textLength="179" x="95.5" y="604.284">UMLDoclet 2.1.0, PlantUML 1.2022.14</text><!--SRC=[TL9TIyCm57tVhxWlmaGNrCSYWY1CmOaunOUnXpIxQoDfKfgxYip-Ts_QihMroqCkoJcSSxy00ApCqETI8PGbx2SJQ8yoqdkOCmghLGWYfSoiryo1phb865gIBEXTPnY1SJRf4wmZlVsfAQVXXKyYM5AXXx1FtVTBJOaWTiwWj3t2tfCahIfE1Ed9yiigd9v7TUPZJjF6XHcbqvi-ezZPwIXGPnyKJy4kFutEaJxrXjA0Qal_m4VKIKf3j1gEuZxFUH9yZm_Ys8XCQjjMkLeFC-h8VibI2YDj8jvsrihO8Dp-2j7lNBq0izaTRuVWBX3w9aGG_1fUgtdSf8Do9qUk3OjjG0zkWm9axAcGYghnGLHTBuL13hREXV2nU7vmoY31ZRWMLvVmokR4lt1MOk6rOxK_]--></g></svg>