<?xml version="1.0" encoding="UTF-8" standalone="no"?><svg xmlns="http://www.w3.org/2000/svg" xmlns:xlink="http://www.w3.org/1999/xlink" contentStyleType="text/css" height="422px" preserveAspectRatio="none" style="width:226px;height:422px;background:#FFFFFF;" version="1.1" viewBox="0 0 226 422" width="226px" zoomAndPan="magnify"><defs/><g><!--class VV.Input.KeyManager--><a href="KeyManager.html" target="_top" title="KeyManager.html" xlink:actuate="onRequest" xlink:href="KeyManager.html" xlink:show="new" xlink:title="KeyManager.html" xlink:type="simple"><g id="elem_VV.Input.KeyManager"><rect codeLine="5" fill="#F1F1F1" height="222.7992" id="VV.Input.KeyManager" rx="2.5" ry="2.5" style="stroke:#181818;stroke-width:0.5;" width="212" x="7" y="174"/><ellipse cx="68.25" cy="193.4" fill="#ADD1B2" rx="11" ry="11" style="stroke:#181818;stroke-width:1.0;"/><path d="M63.25,194.5562 C63.25,197.0562 65.3906,198.8687 68.3125,198.8687 C69.5469,198.8687 70.7188,198.5718 71.4688,198.0562 C72.0781,197.6343 72.4063,197.2125 72.4063,196.8062 C72.4063,196.3375 71.9844,195.9312 71.4844,195.9312 C71.25,195.9312 71.0313,196.0093 70.8281,196.2125 C70.3906,196.65 70.3906,196.65 70.2188,196.7437 C69.7656,196.9781 69.125,197.1187 68.3594,197.1187 C66.3594,197.1187 65.0781,196.1031 65.0781,194.525 L65.0781,193.4781 C65.0781,191.775 66.2969,190.5718 68,190.5718 C68.5781,190.5718 69.1563,190.7125 69.625,190.9625 C70.0938,191.2281 70.2656,191.4156 70.3281,191.775 C70.4531,192.4468 70.7031,192.6968 71.2344,192.6968 C71.5156,192.6968 71.7969,192.5562 71.9844,192.3375 C72.1094,192.1656 72.1563,191.9937 72.1563,191.5562 L72.1563,190.1968 C72.1563,189.775 72.1406,189.6343 72.0156,189.4625 C71.8438,189.2125 71.5625,189.0562 71.2344,189.0562 C70.9219,189.0562 70.7188,189.1656 70.5,189.4312 C69.3281,188.9312 68.8906,188.8218 67.9375,188.8218 C65.2656,188.8218 63.25,190.8375 63.25,193.4625 L63.25,194.5562 Z " fill="#000000"/><text fill="#000000" font-family="sans-serif" font-size="14" lengthAdjust="spacing" textLength="81" x="88.75" y="192.0059">KeyManager</text><text fill="#000000" font-family="sans-serif" font-size="10" lengthAdjust="spacing" textLength="41" x="108.75" y="205.0899">VV.Input</text><line style="stroke:#181818;stroke-width:0.5;" x1="8" x2="218" y1="212.7999" y2="212.7999"/><ellipse cx="18" cy="226.6999" fill="none" rx="3" ry="3" style="stroke:#038048;stroke-width:1.0;"/><text fill="#000000" font-family="sans-serif" font-size="14" lengthAdjust="spacing" textLength="75" x="27" y="229.8059">up: boolean</text><ellipse cx="18" cy="243.4998" fill="none" rx="3" ry="3" style="stroke:#038048;stroke-width:1.0;"/><text fill="#000000" font-family="sans-serif" font-size="14" lengthAdjust="spacing" textLength="93" x="27" y="246.6058">down: boolean</text><ellipse cx="18" cy="260.2997" fill="none" rx="3" ry="3" style="stroke:#038048;stroke-width:1.0;"/><text fill="#000000" font-family="sans-serif" font-size="14" lengthAdjust="spacing" textLength="78" x="27" y="263.4057">left: boolean</text><ellipse cx="18" cy="277.0997" fill="none" rx="3" ry="3" style="stroke:#038048;stroke-width:1.0;"/><text fill="#000000" font-family="sans-serif" font-size="14" lengthAdjust="spacing" textLength="87" x="27" y="280.2056">right: boolean</text><ellipse cx="18" cy="293.8996" fill="none" rx="3" ry="3" style="stroke:#038048;stroke-width:1.0;"/><text fill="#000000" font-family="sans-serif" font-size="14" lengthAdjust="spacing" textLength="97" x="27" y="297.0056">action: boolean</text><line style="stroke:#181818;stroke-width:0.5;" x1="8" x2="218" y1="304.7995" y2="304.7995"/><ellipse cx="18" cy="318.6995" fill="#84BE84" rx="3" ry="3" style="stroke:#038048;stroke-width:1.0;"/><text fill="#000000" font-family="sans-serif" font-size="14" lengthAdjust="spacing" text-decoration="underline" textLength="173" x="27" y="321.8055">getInstance(): KeyManager</text><ellipse cx="18" cy="335.4994" fill="#84BE84" rx="3" ry="3" style="stroke:#038048;stroke-width:1.0;"/><text fill="#000000" font-family="sans-serif" font-size="14" lengthAdjust="spacing" textLength="90" x="27" y="338.6054">Update(): void</text><ellipse cx="18" cy="352.2994" fill="#84BE84" rx="3" ry="3" style="stroke:#038048;stroke-width:1.0;"/><text fill="#000000" font-family="sans-serif" font-size="14" lengthAdjust="spacing" textLength="178" x="27" y="355.4053">keyPressed(KeyEvent): void</text><ellipse cx="18" cy="369.0993" fill="#84BE84" rx="3" ry="3" style="stroke:#038048;stroke-width:1.0;"/><text fill="#000000" font-family="sans-serif" font-size="14" lengthAdjust="spacing" textLength="186" x="27" y="372.2053">keyReleased(KeyEvent): void</text><ellipse cx="18" cy="385.8992" fill="#84BE84" rx="3" ry="3" style="stroke:#038048;stroke-width:1.0;"/><text fill="#000000" font-family="sans-serif" font-size="14" lengthAdjust="spacing" textLength="166" x="27" y="389.0052">keyTyped(KeyEvent): void</text></g></a><!--class java.awt.event.KeyListener--><g id="elem_java.awt.event.KeyListener"><rect codeLine="18" fill="#F1F1F1" height="107.0997" id="java.awt.event.KeyListener" rx="2.5" ry="2.5" style="stroke:#181818;stroke-width:0.5;" width="212" x="7" y="7"/><ellipse cx="71.25" cy="28.2" fill="#B4A7E5" rx="11" ry="11" style="stroke:#181818;stroke-width:1.0;"/><path d="M72.2656,25.3562 L73.9219,25.3562 C74.3125,25.3562 74.5156,25.325 74.6719,25.2468 C74.9375,25.075 75.1094,24.7781 75.1094,24.4812 C75.1094,24.2 74.9688,23.95 74.7344,23.7781 C74.5469,23.6531 74.3906,23.6062 73.9219,23.6062 L68.7813,23.6062 C68.3438,23.6062 68.2031,23.6218 68.0313,23.7312 C67.7656,23.9031 67.5938,24.1843 67.5938,24.4812 C67.5938,24.7625 67.7344,25.0437 67.9688,25.2 C68.1563,25.325 68.3438,25.3562 68.7813,25.3562 L70.4375,25.3562 L70.4375,31.45 L68.7813,31.45 C68.3438,31.45 68.2031,31.4656 68.0313,31.575 C67.7656,31.7312 67.5938,32.0281 67.5938,32.3093 C67.5938,32.9187 68,33.2 68.7813,33.2 L73.9219,33.2 C74.7031,33.2 75.1094,32.9187 75.1094,32.3093 C75.1094,32.0437 74.9688,31.7937 74.7344,31.6218 C74.5469,31.4812 74.375,31.45 73.9219,31.45 L72.2656,31.45 L72.2656,25.3562 Z " fill="#000000"/><text fill="#000000" font-family="sans-serif" font-size="14" font-style="italic" lengthAdjust="spacing" textLength="75" x="91.75" y="27.3999">KeyListener</text><text fill="#000000" font-family="sans-serif" font-size="10" font-style="italic" lengthAdjust="spacing" textLength="67" x="95.75" y="41.8999">java.awt.event</text><line style="stroke:#181818;stroke-width:0.5;" x1="8" x2="218" y1="49.3999" y2="49.3999"/><ellipse cx="18" cy="64.3499" fill="#84BE84" rx="3" ry="3" style="stroke:#038048;stroke-width:1.0;"/><text fill="#000000" font-family="sans-serif" font-size="14" font-style="italic" lengthAdjust="spacing" textLength="166" x="27" y="68.7998">keyTyped(KeyEvent): void</text><ellipse cx="18" cy="83.2498" fill="#84BE84" rx="3" ry="3" style="stroke:#038048;stroke-width:1.0;"/><text fill="#000000" font-family="sans-serif" font-size="14" font-style="italic" lengthAdjust="spacing" textLength="178" x="27" y="87.6998">keyPressed(KeyEvent): void</text><ellipse cx="18" cy="102.1497" fill="#84BE84" rx="3" ry="3" style="stroke:#038048;stroke-width:1.0;"/><text fill="#000000" font-family="sans-serif" font-size="14" font-style="italic" lengthAdjust="spacing" textLength="186" x="27" y="106.5997">keyReleased(KeyEvent): void</text></g><!--reverse link java.awt.event.KeyListener to VV.Input.KeyManager--><g id="link_java.awt.event.KeyListener_VV.Input.KeyManager"><path codeLine="24" d="M113,135.07 C113,147.47 113,160.57 113,173.67 " fill="none" id="java.awt.event.KeyListener-backto-VV.Input.KeyManager" style="stroke:#181818;stroke-width:1.0;stroke-dasharray:7.0,7.0;"/><polygon fill="none" points="106,135.35,113,115.35,120,135.35,106,135.35" style="stroke:#181818;stroke-width:1.0;"/></g><text fill="#888888" font-family="sans-serif" font-size="10" lengthAdjust="spacing" textLength="179" x="16.5" y="412.0892">UMLDoclet 2.1.0, PlantUML 1.2022.14</text><!--SRC=[XPF1Ri8m38RlUmeBQHA8AO9f9uGuRGSqaD0sk30EfdLfjZQ94bFKCTvzQSTKG1tDfVANFuxhtm40SCIWC2LdCA1NCcYHjGMb5TtuROXbI42fuHmYIKdeBcbA76kFInuaw1oqXav-qQ3_C7gcV8eADsJVrH7sHek562kpvHQWWxz0L59OBgj0n9mcgnNio_p5wcxD0DPQ9uIgWg7UgHgSKCGrsCfDNCSnOAbhykmT8ylW0DqDyLZvI0NKxWoWAhHACZSXShcRQHbM_9FocINdA6pxOqyPAQxJl92_kadqbfj_58TV9wHYif7tzDoDYNHCwioE3ynGu8u55QbAKywHE3btuiCUruwjxzYXeQ8QSLCVBkHNMtByuIir3x-5g1kquynIqIg8j2u-y-daKGU9VnNteYzwTp1BKB6dS9kHTNuwsfqV]--></g></svg>