<?xml version="1.0" encoding="UTF-8" standalone="no"?><svg xmlns="http://www.w3.org/2000/svg" xmlns:xlink="http://www.w3.org/1999/xlink" contentStyleType="text/css" height="374px" preserveAspectRatio="none" style="width:271px;height:374px;background:#FFFFFF;" version="1.1" viewBox="0 0 271 374" width="271px" zoomAndPan="magnify"><defs/><g><!--class VV.Input.KeyManager--><a href="KeyManager.html" target="_top" title="KeyManager.html" xlink:actuate="onRequest" xlink:href="KeyManager.html" xlink:show="new" xlink:title="KeyManager.html" xlink:type="simple"><g id="elem_VV.Input.KeyManager"><rect codeLine="5" fill="#F1F1F1" height="239.5991" id="VV.Input.KeyManager" rx="2.5" ry="2.5" style="stroke:#181818;stroke-width:0.5;" width="257" x="7" y="109"/><ellipse cx="90.75" cy="128.4" fill="#ADD1B2" rx="11" ry="11" style="stroke:#181818;stroke-width:1.0;"/><path d="M85.75,129.5562 C85.75,132.0562 87.8906,133.8687 90.8125,133.8687 C92.0469,133.8687 93.2188,133.5718 93.9688,133.0562 C94.5781,132.6343 94.9063,132.2125 94.9063,131.8062 C94.9063,131.3375 94.4844,130.9312 93.9844,130.9312 C93.75,130.9312 93.5313,131.0093 93.3281,131.2125 C92.8906,131.65 92.8906,131.65 92.7188,131.7437 C92.2656,131.9781 91.625,132.1187 90.8594,132.1187 C88.8594,132.1187 87.5781,131.1031 87.5781,129.525 L87.5781,128.4781 C87.5781,126.775 88.7969,125.5718 90.5,125.5718 C91.0781,125.5718 91.6563,125.7125 92.125,125.9625 C92.5938,126.2281 92.7656,126.4156 92.8281,126.775 C92.9531,127.4468 93.2031,127.6968 93.7344,127.6968 C94.0156,127.6968 94.2969,127.5562 94.4844,127.3375 C94.6094,127.1656 94.6563,126.9937 94.6563,126.5562 L94.6563,125.1968 C94.6563,124.775 94.6406,124.6343 94.5156,124.4625 C94.3438,124.2125 94.0625,124.0562 93.7344,124.0562 C93.4219,124.0562 93.2188,124.1656 93,124.4312 C91.8281,123.9312 91.3906,123.8218 90.4375,123.8218 C87.7656,123.8218 85.75,125.8375 85.75,128.4625 L85.75,129.5562 Z " fill="#000000"/><text fill="#000000" font-family="sans-serif" font-size="14" lengthAdjust="spacing" textLength="81" x="111.25" y="127.0059">KeyManager</text><text fill="#000000" font-family="sans-serif" font-size="10" lengthAdjust="spacing" textLength="41" x="131.25" y="140.0899">VV.Input</text><line style="stroke:#181818;stroke-width:0.5;" x1="8" x2="263" y1="147.7999" y2="147.7999"/><ellipse cx="18" cy="161.6999" fill="none" rx="3" ry="3" style="stroke:#038048;stroke-width:1.0;"/><text fill="#000000" font-family="sans-serif" font-size="14" lengthAdjust="spacing" textLength="75" x="27" y="164.8059">up: boolean</text><ellipse cx="18" cy="178.4998" fill="none" rx="3" ry="3" style="stroke:#038048;stroke-width:1.0;"/><text fill="#000000" font-family="sans-serif" font-size="14" lengthAdjust="spacing" textLength="93" x="27" y="181.6058">down: boolean</text><ellipse cx="18" cy="195.2997" fill="none" rx="3" ry="3" style="stroke:#038048;stroke-width:1.0;"/><text fill="#000000" font-family="sans-serif" font-size="14" lengthAdjust="spacing" textLength="78" x="27" y="198.4057">left: boolean</text><ellipse cx="18" cy="212.0997" fill="none" rx="3" ry="3" style="stroke:#038048;stroke-width:1.0;"/><text fill="#000000" font-family="sans-serif" font-size="14" lengthAdjust="spacing" textLength="87" x="27" y="215.2056">right: boolean</text><ellipse cx="18" cy="228.8996" fill="none" rx="3" ry="3" style="stroke:#038048;stroke-width:1.0;"/><text fill="#000000" font-family="sans-serif" font-size="14" lengthAdjust="spacing" textLength="97" x="27" y="232.0056">action: boolean</text><rect fill="none" height="6" style="stroke:#C82930;stroke-width:1.0;" width="6" x="15" y="242.6995"/><text fill="#000000" font-family="sans-serif" font-size="14" lengthAdjust="spacing" text-decoration="underline" textLength="142" x="27" y="248.8055">instance: KeyManager</text><line style="stroke:#181818;stroke-width:0.5;" x1="8" x2="263" y1="256.5995" y2="256.5995"/><ellipse cx="18" cy="270.4994" fill="#84BE84" rx="3" ry="3" style="stroke:#038048;stroke-width:1.0;"/><text fill="#000000" font-family="sans-serif" font-size="14" lengthAdjust="spacing" text-decoration="underline" textLength="173" x="27" y="273.6054">getInstance(): KeyManager</text><ellipse cx="18" cy="287.2994" fill="#84BE84" rx="3" ry="3" style="stroke:#038048;stroke-width:1.0;"/><text fill="#000000" font-family="sans-serif" font-size="14" lengthAdjust="spacing" textLength="90" x="27" y="290.4053">Update(): void</text><rect fill="#F24D5C" height="6" style="stroke:#C82930;stroke-width:1.0;" width="6" x="15" y="301.0993"/><text fill="#000000" font-family="sans-serif" font-size="14" lengthAdjust="spacing" textLength="231" x="27" y="307.2053">updateKey(KeyEvent, boolean): void</text><ellipse cx="18" cy="320.8992" fill="#84BE84" rx="3" ry="3" style="stroke:#038048;stroke-width:1.0;"/><text fill="#000000" font-family="sans-serif" font-size="14" lengthAdjust="spacing" textLength="178" x="27" y="324.0052">keyPressed(KeyEvent): void</text><ellipse cx="18" cy="337.6991" fill="#84BE84" rx="3" ry="3" style="stroke:#038048;stroke-width:1.0;"/><text fill="#000000" font-family="sans-serif" font-size="14" lengthAdjust="spacing" textLength="186" x="27" y="340.8051">keyReleased(KeyEvent): void</text></g></a><!--class java.awt.event.KeyAdapter--><g id="elem_java.awt.event.KeyAdapter"><rect codeLine="19" fill="#F1F1F1" height="42.3999" id="java.awt.event.KeyAdapter" rx="2.5" ry="2.5" style="stroke:#181818;stroke-width:0.5;" width="106" x="82.5" y="7"/><ellipse cx="97.5" cy="28.2" fill="#A9DCDF" rx="11" ry="11" style="stroke:#181818;stroke-width:1.0;"/><path d="M99.0313,30.1375 L99.3594,30.9343 L99.0781,30.9343 C98.625,30.9343 98.5,30.9656 98.3281,31.075 C98.0469,31.2156 97.875,31.5125 97.875,31.8093 C97.875,32.1062 98.0156,32.3562 98.25,32.5281 C98.4219,32.6531 98.6563,32.7 99.0781,32.7 L101.4375,32.7 C101.7969,32.7 102.0469,32.6687 102.1875,32.575 C102.4531,32.4343 102.625,32.1218 102.625,31.8093 C102.625,31.5437 102.4844,31.2781 102.25,31.1062 C102.0625,30.9812 101.9063,30.95 101.4531,30.9343 L98.0625,23.1062 L94.3438,23.1062 C93.8906,23.1062 93.75,23.1218 93.5781,23.2312 C93.3125,23.4031 93.1406,23.6843 93.1406,23.9812 C93.1406,24.2625 93.2813,24.5281 93.5313,24.7 C93.7031,24.825 93.8906,24.8562 94.3438,24.8562 L95.3125,24.8562 L92.7344,30.9343 C91.9844,30.9343 91.5781,31.2312 91.5781,31.8093 C91.5781,32.4187 91.9688,32.7 92.7656,32.7 L95.0313,32.7 C95.3906,32.7 95.6406,32.6687 95.7813,32.575 C96.0469,32.4187 96.2188,32.1218 96.2188,31.8093 C96.2188,31.5437 96.0781,31.2781 95.8438,31.1062 C95.6563,30.9656 95.5,30.9343 95.0313,30.9343 L94.7344,30.9343 L95.0781,30.1375 L99.0313,30.1375 Z M98.2656,28.3875 L95.8125,28.3875 L97.0469,25.5125 L98.2656,28.3875 Z " fill="#000000"/><text fill="#000000" font-family="sans-serif" font-size="14" font-style="italic" lengthAdjust="spacing" textLength="74" x="111.5" y="27.3999">KeyAdapter</text><text fill="#000000" font-family="sans-serif" font-size="10" font-style="italic" lengthAdjust="spacing" textLength="67" x="115" y="41.8999">java.awt.event</text></g><!--reverse link java.awt.event.KeyAdapter to VV.Input.KeyManager--><g id="link_java.awt.event.KeyAdapter_VV.Input.KeyManager"><path codeLine="21" d="M135.5,69.89 C135.5,81.6 135.5,94.99 135.5,108.92 " fill="none" id="java.awt.event.KeyAdapter-backto-VV.Input.KeyManager" style="stroke:#181818;stroke-width:1.0;"/><polygon fill="none" points="128.5,70.18,135.5,50.18,142.5,70.18,128.5,70.18" style="stroke:#181818;stroke-width:1.0;"/></g><text fill="#888888" font-family="sans-serif" font-size="10" lengthAdjust="spacing" textLength="179" x="39" y="363.8891">UMLDoclet 2.1.0, PlantUML 1.2022.14</text><!--SRC=[TPBVQy8m483VzrSSma2f3Jhs928CjWVP1DdG5-V3sLnjjZOfpLbnplzziVuekbW8JRxxxaYu0m2mnA0n8vjZH1-KOu5i2j16qvqBGw8a0MKvRo1Mb4fxJJFYn3XSyIX5Qw7Hj-g7Ujt7mIjjHgXnISMdFiBEO3eLGvslk05euNGGjGgpMNqG2MVfV0xRglx-2rPv3nR6f8IwXjAijGUd5BC75sgP-3X6h8odpjOoiefs42hjjZgY7jHt_Ay5I-BXqMosl6umoILo5IsDacSUhYhkCffklPIakNswpxKRVDDcN92r9C-optadbtrBsXrQXmlBXNk_huTF4dE-wE4NbYXmpOBsvQfENY9Hfntgtmn3_pSCVNDm72bdEoasPl-RZDwUJPIweNqGNT5fmpX5pOx2VKc5TSrhjlu0]--></g></svg>