<?xml version="1.0" encoding="UTF-8" standalone="no"?><svg xmlns="http://www.w3.org/2000/svg" xmlns:xlink="http://www.w3.org/1999/xlink" contentStyleType="text/css" height="340px" preserveAspectRatio="none" style="width:226px;height:340px;background:#FFFFFF;" version="1.1" viewBox="0 0 226 340" width="226px" zoomAndPan="magnify"><defs/><g><!--class VV.Input.KeyManager--><a href="KeyManager.html" target="_top" title="KeyManager.html" xlink:actuate="onRequest" xlink:href="KeyManager.html" xlink:show="new" xlink:title="KeyManager.html" xlink:type="simple"><g id="elem_VV.Input.KeyManager"><rect codeLine="5" fill="#F1F1F1" height="205.9993" id="VV.Input.KeyManager" rx="2.5" ry="2.5" style="stroke:#181818;stroke-width:0.5;" width="212" x="7" y="109"/><ellipse cx="68.25" cy="128.4" fill="#ADD1B2" rx="11" ry="11" style="stroke:#181818;stroke-width:1.0;"/><path d="M63.25,129.5562 C63.25,132.0562 65.3906,133.8687 68.3125,133.8687 C69.5469,133.8687 70.7188,133.5718 71.4688,133.0562 C72.0781,132.6343 72.4063,132.2125 72.4063,131.8062 C72.4063,131.3375 71.9844,130.9312 71.4844,130.9312 C71.25,130.9312 71.0313,131.0093 70.8281,131.2125 C70.3906,131.65 70.3906,131.65 70.2188,131.7437 C69.7656,131.9781 69.125,132.1187 68.3594,132.1187 C66.3594,132.1187 65.0781,131.1031 65.0781,129.525 L65.0781,128.4781 C65.0781,126.775 66.2969,125.5718 68,125.5718 C68.5781,125.5718 69.1563,125.7125 69.625,125.9625 C70.0938,126.2281 70.2656,126.4156 70.3281,126.775 C70.4531,127.4468 70.7031,127.6968 71.2344,127.6968 C71.5156,127.6968 71.7969,127.5562 71.9844,127.3375 C72.1094,127.1656 72.1563,126.9937 72.1563,126.5562 L72.1563,125.1968 C72.1563,124.775 72.1406,124.6343 72.0156,124.4625 C71.8438,124.2125 71.5625,124.0562 71.2344,124.0562 C70.9219,124.0562 70.7188,124.1656 70.5,124.4312 C69.3281,123.9312 68.8906,123.8218 67.9375,123.8218 C65.2656,123.8218 63.25,125.8375 63.25,128.4625 L63.25,129.5562 Z " fill="#000000"/><text fill="#000000" font-family="sans-serif" font-size="14" lengthAdjust="spacing" textLength="81" x="88.75" y="127.0059">KeyManager</text><text fill="#000000" font-family="sans-serif" font-size="10" lengthAdjust="spacing" textLength="41" x="108.75" y="140.0899">VV.Input</text><line style="stroke:#181818;stroke-width:0.5;" x1="8" x2="218" y1="147.7999" y2="147.7999"/><ellipse cx="18" cy="161.6999" fill="none" rx="3" ry="3" style="stroke:#038048;stroke-width:1.0;"/><text fill="#000000" font-family="sans-serif" font-size="14" lengthAdjust="spacing" textLength="75" x="27" y="164.8059">up: boolean</text><ellipse cx="18" cy="178.4998" fill="none" rx="3" ry="3" style="stroke:#038048;stroke-width:1.0;"/><text fill="#000000" font-family="sans-serif" font-size="14" lengthAdjust="spacing" textLength="93" x="27" y="181.6058">down: boolean</text><ellipse cx="18" cy="195.2997" fill="none" rx="3" ry="3" style="stroke:#038048;stroke-width:1.0;"/><text fill="#000000" font-family="sans-serif" font-size="14" lengthAdjust="spacing" textLength="78" x="27" y="198.4057">left: boolean</text><ellipse cx="18" cy="212.0997" fill="none" rx="3" ry="3" style="stroke:#038048;stroke-width:1.0;"/><text fill="#000000" font-family="sans-serif" font-size="14" lengthAdjust="spacing" textLength="87" x="27" y="215.2056">right: boolean</text><ellipse cx="18" cy="228.8996" fill="none" rx="3" ry="3" style="stroke:#038048;stroke-width:1.0;"/><text fill="#000000" font-family="sans-serif" font-size="14" lengthAdjust="spacing" textLength="97" x="27" y="232.0056">action: boolean</text><line style="stroke:#181818;stroke-width:0.5;" x1="8" x2="218" y1="239.7995" y2="239.7995"/><ellipse cx="18" cy="253.6995" fill="#84BE84" rx="3" ry="3" style="stroke:#038048;stroke-width:1.0;"/><text fill="#000000" font-family="sans-serif" font-size="14" lengthAdjust="spacing" text-decoration="underline" textLength="173" x="27" y="256.8055">getInstance(): KeyManager</text><ellipse cx="18" cy="270.4994" fill="#84BE84" rx="3" ry="3" style="stroke:#038048;stroke-width:1.0;"/><text fill="#000000" font-family="sans-serif" font-size="14" lengthAdjust="spacing" textLength="90" x="27" y="273.6054">Update(): void</text><ellipse cx="18" cy="287.2994" fill="#84BE84" rx="3" ry="3" style="stroke:#038048;stroke-width:1.0;"/><text fill="#000000" font-family="sans-serif" font-size="14" lengthAdjust="spacing" textLength="178" x="27" y="290.4053">keyPressed(KeyEvent): void</text><ellipse cx="18" cy="304.0993" fill="#84BE84" rx="3" ry="3" style="stroke:#038048;stroke-width:1.0;"/><text fill="#000000" font-family="sans-serif" font-size="14" lengthAdjust="spacing" textLength="186" x="27" y="307.2053">keyReleased(KeyEvent): void</text></g></a><!--class java.awt.event.KeyAdapter--><g id="elem_java.awt.event.KeyAdapter"><rect codeLine="17" fill="#F1F1F1" height="42.3999" id="java.awt.event.KeyAdapter" rx="2.5" ry="2.5" style="stroke:#181818;stroke-width:0.5;" width="106" x="60" y="7"/><ellipse cx="75" cy="28.2" fill="#A9DCDF" rx="11" ry="11" style="stroke:#181818;stroke-width:1.0;"/><path d="M76.5313,30.1375 L76.8594,30.9343 L76.5781,30.9343 C76.125,30.9343 76,30.9656 75.8281,31.075 C75.5469,31.2156 75.375,31.5125 75.375,31.8093 C75.375,32.1062 75.5156,32.3562 75.75,32.5281 C75.9219,32.6531 76.1563,32.7 76.5781,32.7 L78.9375,32.7 C79.2969,32.7 79.5469,32.6687 79.6875,32.575 C79.9531,32.4343 80.125,32.1218 80.125,31.8093 C80.125,31.5437 79.9844,31.2781 79.75,31.1062 C79.5625,30.9812 79.4063,30.95 78.9531,30.9343 L75.5625,23.1062 L71.8438,23.1062 C71.3906,23.1062 71.25,23.1218 71.0781,23.2312 C70.8125,23.4031 70.6406,23.6843 70.6406,23.9812 C70.6406,24.2625 70.7813,24.5281 71.0313,24.7 C71.2031,24.825 71.3906,24.8562 71.8438,24.8562 L72.8125,24.8562 L70.2344,30.9343 C69.4844,30.9343 69.0781,31.2312 69.0781,31.8093 C69.0781,32.4187 69.4688,32.7 70.2656,32.7 L72.5313,32.7 C72.8906,32.7 73.1406,32.6687 73.2813,32.575 C73.5469,32.4187 73.7188,32.1218 73.7188,31.8093 C73.7188,31.5437 73.5781,31.2781 73.3438,31.1062 C73.1563,30.9656 73,30.9343 72.5313,30.9343 L72.2344,30.9343 L72.5781,30.1375 L76.5313,30.1375 Z M75.7656,28.3875 L73.3125,28.3875 L74.5469,25.5125 L75.7656,28.3875 Z " fill="#000000"/><text fill="#000000" font-family="sans-serif" font-size="14" font-style="italic" lengthAdjust="spacing" textLength="74" x="89" y="27.3999">KeyAdapter</text><text fill="#000000" font-family="sans-serif" font-size="10" font-style="italic" lengthAdjust="spacing" textLength="67" x="92.5" y="41.8999">java.awt.event</text></g><!--reverse link java.awt.event.KeyAdapter to VV.Input.KeyManager--><g id="link_java.awt.event.KeyAdapter_VV.Input.KeyManager"><path codeLine="19" d="M113,69.93 C113,81.62 113,94.9 113,108.54 " fill="none" id="java.awt.event.KeyAdapter-backto-VV.Input.KeyManager" style="stroke:#181818;stroke-width:1.0;"/><polygon fill="none" points="106,70.17,113,50.17,120,70.17,106,70.17" style="stroke:#181818;stroke-width:1.0;"/></g><text fill="#888888" font-family="sans-serif" font-size="10" lengthAdjust="spacing" textLength="179" x="16.5" y="330.2892">UMLDoclet 2.1.0, PlantUML 1.2022.14</text><!--SRC=[TP91Qm8n48Nl_HM3K52iGKjF8aAXFKWhI8jUh8TnCxffiqdOZ2lM-jyRLqkmn5p2VFFoChm40C0JWy62lCECtibXYMnBCDRGJMX3hYG15Ovti5AafVzF2-BS1bppJAFtq1XuzKtztiFmXNPZDBYcyiESONSucucHSHjk07huAqIKmdmU2v5peHSBsDV-nzNUk3uihTM49a9fjoQ1DQquWKkrpbCSCrOsuRFtZAoo0xJNn2CJAfDHizM7E6WqcJg9N7ShgsJaNxIRbEGzoMOuzboHuPJcZSBLrqI7Kywuz5o6OLE1FqfqV17u9rOeSCk2ZdPrx9T8n6Cd_wjj6FnqEgb7Exz_K0VHojhZDXs_FjbCXnzsBtgYUmSJZOO3XTkAIX-IRhP-0G00]--></g></svg>