<?xml version="1.0" encoding="UTF-8" standalone="no"?><svg xmlns="http://www.w3.org/2000/svg" xmlns:xlink="http://www.w3.org/1999/xlink" contentStyleType="text/css" height="341px" preserveAspectRatio="none" style="width:226px;height:341px;background:#FFFFFF;" version="1.1" viewBox="0 0 226 341" width="226px" zoomAndPan="magnify"><defs/><g><!--class vv.Input.KeyManager--><a href="KeyManager.html" target="_top" title="KeyManager.html" xlink:actuate="onRequest" xlink:href="KeyManager.html" xlink:show="new" xlink:title="KeyManager.html" xlink:type="simple"><g id="elem_vv.Input.KeyManager"><rect codeLine="5" fill="#F1F1F1" height="205.9993" id="vv.Input.KeyManager" rx="2.5" ry="2.5" style="stroke:#181818;stroke-width:0.5;" width="212" x="7" y="109.4"/><ellipse cx="68.25" cy="128.8" fill="#ADD1B2" rx="11" ry="11" style="stroke:#181818;stroke-width:1.0;"/><path d="M63.25,129.9562 C63.25,132.4562 65.3906,134.2687 68.3125,134.2687 C69.5469,134.2687 70.7188,133.9718 71.4688,133.4562 C72.0781,133.0343 72.4063,132.6125 72.4063,132.2062 C72.4063,131.7375 71.9844,131.3312 71.4844,131.3312 C71.25,131.3312 71.0313,131.4093 70.8281,131.6125 C70.3906,132.05 70.3906,132.05 70.2188,132.1437 C69.7656,132.3781 69.125,132.5187 68.3594,132.5187 C66.3594,132.5187 65.0781,131.5031 65.0781,129.925 L65.0781,128.8781 C65.0781,127.175 66.2969,125.9718 68,125.9718 C68.5781,125.9718 69.1563,126.1125 69.625,126.3625 C70.0938,126.6281 70.2656,126.8156 70.3281,127.175 C70.4531,127.8468 70.7031,128.0968 71.2344,128.0968 C71.5156,128.0968 71.7969,127.9562 71.9844,127.7375 C72.1094,127.5656 72.1563,127.3937 72.1563,126.9562 L72.1563,125.5968 C72.1563,125.175 72.1406,125.0343 72.0156,124.8625 C71.8438,124.6125 71.5625,124.4562 71.2344,124.4562 C70.9219,124.4562 70.7188,124.5656 70.5,124.8312 C69.3281,124.3312 68.8906,124.2218 67.9375,124.2218 C65.2656,124.2218 63.25,126.2375 63.25,128.8625 L63.25,129.9562 Z " fill="#000000"/><text fill="#000000" font-family="sans-serif" font-size="14" lengthAdjust="spacing" textLength="81" x="88.75" y="127.4059">KeyManager</text><text fill="#000000" font-family="sans-serif" font-size="10" lengthAdjust="spacing" textLength="37" x="110.75" y="140.4899">vv.Input</text><line style="stroke:#181818;stroke-width:0.5;" x1="8" x2="218" y1="148.1999" y2="148.1999"/><ellipse cx="18" cy="162.0999" fill="none" rx="3" ry="3" style="stroke:#038048;stroke-width:1.0;"/><text fill="#000000" font-family="sans-serif" font-size="14" lengthAdjust="spacing" textLength="75" x="27" y="165.2059">up: boolean</text><ellipse cx="18" cy="178.8998" fill="none" rx="3" ry="3" style="stroke:#038048;stroke-width:1.0;"/><text fill="#000000" font-family="sans-serif" font-size="14" lengthAdjust="spacing" textLength="93" x="27" y="182.0058">down: boolean</text><ellipse cx="18" cy="195.6997" fill="none" rx="3" ry="3" style="stroke:#038048;stroke-width:1.0;"/><text fill="#000000" font-family="sans-serif" font-size="14" lengthAdjust="spacing" textLength="78" x="27" y="198.8057">left: boolean</text><ellipse cx="18" cy="212.4997" fill="none" rx="3" ry="3" style="stroke:#038048;stroke-width:1.0;"/><text fill="#000000" font-family="sans-serif" font-size="14" lengthAdjust="spacing" textLength="87" x="27" y="215.6056">right: boolean</text><ellipse cx="18" cy="229.2996" fill="none" rx="3" ry="3" style="stroke:#038048;stroke-width:1.0;"/><text fill="#000000" font-family="sans-serif" font-size="14" lengthAdjust="spacing" textLength="97" x="27" y="232.4056">action: boolean</text><line style="stroke:#181818;stroke-width:0.5;" x1="8" x2="218" y1="240.1995" y2="240.1995"/><ellipse cx="18" cy="254.0995" fill="#84BE84" rx="3" ry="3" style="stroke:#038048;stroke-width:1.0;"/><text fill="#000000" font-family="sans-serif" font-size="14" lengthAdjust="spacing" text-decoration="underline" textLength="173" x="27" y="257.2055">getInstance(): KeyManager</text><ellipse cx="18" cy="270.8994" fill="#84BE84" rx="3" ry="3" style="stroke:#038048;stroke-width:1.0;"/><text fill="#000000" font-family="sans-serif" font-size="14" lengthAdjust="spacing" textLength="90" x="27" y="274.0054">Update(): void</text><ellipse cx="18" cy="287.6994" fill="#84BE84" rx="3" ry="3" style="stroke:#038048;stroke-width:1.0;"/><text fill="#000000" font-family="sans-serif" font-size="14" lengthAdjust="spacing" textLength="178" x="27" y="290.8053">keyPressed(KeyEvent): void</text><ellipse cx="18" cy="304.4993" fill="#84BE84" rx="3" ry="3" style="stroke:#038048;stroke-width:1.0;"/><text fill="#000000" font-family="sans-serif" font-size="14" lengthAdjust="spacing" textLength="186" x="27" y="307.6053">keyReleased(KeyEvent): void</text></g></a><!--class java.awt.event.KeyAdapter--><g id="elem_java.awt.event.KeyAdapter"><rect codeLine="17" fill="#F1F1F1" height="42.3999" id="java.awt.event.KeyAdapter" rx="2.5" ry="2.5" style="stroke:#181818;stroke-width:0.5;" width="106" x="60" y="7"/><ellipse cx="75" cy="28.2" fill="#A9DCDF" rx="11" ry="11" style="stroke:#181818;stroke-width:1.0;"/><path d="M76.5313,30.1375 L76.8594,30.9343 L76.5781,30.9343 C76.125,30.9343 76,30.9656 75.8281,31.075 C75.5469,31.2156 75.375,31.5125 75.375,31.8093 C75.375,32.1062 75.5156,32.3562 75.75,32.5281 C75.9219,32.6531 76.1563,32.7 76.5781,32.7 L78.9375,32.7 C79.2969,32.7 79.5469,32.6687 79.6875,32.575 C79.9531,32.4343 80.125,32.1218 80.125,31.8093 C80.125,31.5437 79.9844,31.2781 79.75,31.1062 C79.5625,30.9812 79.4063,30.95 78.9531,30.9343 L75.5625,23.1062 L71.8438,23.1062 C71.3906,23.1062 71.25,23.1218 71.0781,23.2312 C70.8125,23.4031 70.6406,23.6843 70.6406,23.9812 C70.6406,24.2625 70.7813,24.5281 71.0313,24.7 C71.2031,24.825 71.3906,24.8562 71.8438,24.8562 L72.8125,24.8562 L70.2344,30.9343 C69.4844,30.9343 69.0781,31.2312 69.0781,31.8093 C69.0781,32.4187 69.4688,32.7 70.2656,32.7 L72.5313,32.7 C72.8906,32.7 73.1406,32.6687 73.2813,32.575 C73.5469,32.4187 73.7188,32.1218 73.7188,31.8093 C73.7188,31.5437 73.5781,31.2781 73.3438,31.1062 C73.1563,30.9656 73,30.9343 72.5313,30.9343 L72.2344,30.9343 L72.5781,30.1375 L76.5313,30.1375 Z M75.7656,28.3875 L73.3125,28.3875 L74.5469,25.5125 L75.7656,28.3875 Z " fill="#000000"/><text fill="#000000" font-family="sans-serif" font-size="14" font-style="italic" lengthAdjust="spacing" textLength="74" x="89" y="27.3999">KeyAdapter</text><text fill="#000000" font-family="sans-serif" font-size="10" font-style="italic" lengthAdjust="spacing" textLength="67" x="92.5" y="41.8999">java.awt.event</text></g><!--reverse link java.awt.event.KeyAdapter to vv.Input.KeyManager--><g id="link_java.awt.event.KeyAdapter_vv.Input.KeyManager"><path codeLine="19" d="M113,70.57 C113,82.28 113,95.57 113,109.19 " fill="none" id="java.awt.event.KeyAdapter-backto-vv.Input.KeyManager" style="stroke:#181818;stroke-width:1.0;"/><polygon fill="none" points="106,70.75,113,50.75,120,70.75,106,70.75" style="stroke:#181818;stroke-width:1.0;"/></g><text fill="#888888" font-family="sans-serif" font-size="10" lengthAdjust="spacing" textLength="179" x="16.5" y="330.6892">UMLDoclet 2.1.0, PlantUML 1.2022.14</text><!--SRC=[TP91Qm8n48Nl_HM3K52iGKjF8aAXFKWhI8idws7SpBffiqdOZ2lM-jyRLqkmn5p2VFFoChm40C0JWy6IlCECtibXXMmhCDRGJMX3eIG1bOvta2lIql-d9N5X0svufj5xQ8sy-gRXu67yGhif6bnJzM7Ei3-kQp4nRiCjG0z_XOXIM2nY8GekzN89-yR_kBeRDuILjPhGH2ZjrYImffmJk5Bh8iKnOsKJFdlFo2exG7TDF36XCXcrEqE8WqQJkPF8JRUsIaR-HRjPHTwJR8TZppKPJcdUA5nzJNGuvOmhprKODXNueqJ75u5_Oeq2jopeQDV4Veb4F7Rolzg6qK-lbtgqy_i7TH3brXwt-VJroMOw_B1xCH3zEvXfD1metDPK-P1qk_CB]--></g></svg>