<?xml version="1.0" encoding="UTF-8" standalone="no"?><svg xmlns="http://www.w3.org/2000/svg" xmlns:xlink="http://www.w3.org/1999/xlink" contentStyleType="text/css" height="324px" preserveAspectRatio="none" style="width:296px;height:324px;background:#FFFFFF;" version="1.1" viewBox="0 0 296 324" width="296px" zoomAndPan="magnify"><defs/><g><!--class VV.Input.Mouse--><a href="Mouse.html" target="_top" title="Mouse.html" xlink:actuate="onRequest" xlink:href="Mouse.html" xlink:show="new" xlink:title="Mouse.html" xlink:type="simple"><g id="elem_VV.Input.Mouse"><rect codeLine="5" fill="#F1F1F1" height="189.1993" id="VV.Input.Mouse" rx="2.5" ry="2.5" style="stroke:#181818;stroke-width:0.5;" width="282" x="7" y="109"/><ellipse cx="122.25" cy="128.4" fill="#ADD1B2" rx="11" ry="11" style="stroke:#181818;stroke-width:1.0;"/><path d="M117.25,129.5562 C117.25,132.0562 119.3906,133.8687 122.3125,133.8687 C123.5469,133.8687 124.7188,133.5718 125.4688,133.0562 C126.0781,132.6343 126.4063,132.2125 126.4063,131.8062 C126.4063,131.3375 125.9844,130.9312 125.4844,130.9312 C125.25,130.9312 125.0313,131.0093 124.8281,131.2125 C124.3906,131.65 124.3906,131.65 124.2188,131.7437 C123.7656,131.9781 123.125,132.1187 122.3594,132.1187 C120.3594,132.1187 119.0781,131.1031 119.0781,129.525 L119.0781,128.4781 C119.0781,126.775 120.2969,125.5718 122,125.5718 C122.5781,125.5718 123.1563,125.7125 123.625,125.9625 C124.0938,126.2281 124.2656,126.4156 124.3281,126.775 C124.4531,127.4468 124.7031,127.6968 125.2344,127.6968 C125.5156,127.6968 125.7969,127.5562 125.9844,127.3375 C126.1094,127.1656 126.1563,126.9937 126.1563,126.5562 L126.1563,125.1968 C126.1563,124.775 126.1406,124.6343 126.0156,124.4625 C125.8438,124.2125 125.5625,124.0562 125.2344,124.0562 C124.9219,124.0562 124.7188,124.1656 124.5,124.4312 C123.3281,123.9312 122.8906,123.8218 121.9375,123.8218 C119.2656,123.8218 117.25,125.8375 117.25,128.4625 L117.25,129.5562 Z " fill="#000000"/><text fill="#000000" font-family="sans-serif" font-size="14" lengthAdjust="spacing" textLength="43" x="142.75" y="127.0059">Mouse</text><text fill="#000000" font-family="sans-serif" font-size="10" lengthAdjust="spacing" textLength="41" x="143.75" y="140.0899">VV.Input</text><line style="stroke:#181818;stroke-width:0.5;" x1="8" x2="288" y1="147.7999" y2="147.7999"/><ellipse cx="18" cy="161.6999" fill="none" rx="3" ry="3" style="stroke:#038048;stroke-width:1.0;"/><text fill="#000000" font-family="sans-serif" font-size="14" lengthAdjust="spacing" text-decoration="underline" textLength="101" x="27" y="164.8059">canvas: Canvas</text><rect fill="none" height="6" style="stroke:#C82930;stroke-width:1.0;" width="6" x="15" y="175.4998"/><text fill="#000000" font-family="sans-serif" font-size="14" lengthAdjust="spacing" text-decoration="underline" textLength="256" x="27" y="181.6058">pressedButtons: Map&lt;Integer, Boolean&gt;</text><line style="stroke:#181818;stroke-width:0.5;" x1="8" x2="288" y1="189.3998" y2="189.3998"/><ellipse cx="18" cy="203.2997" fill="#84BE84" rx="3" ry="3" style="stroke:#038048;stroke-width:1.0;"/><text fill="#000000" font-family="sans-serif" font-size="14" lengthAdjust="spacing" text-decoration="underline" textLength="162" x="27" y="206.4057">addMouseListener(): void</text><ellipse cx="18" cy="220.0997" fill="#84BE84" rx="3" ry="3" style="stroke:#038048;stroke-width:1.0;"/><text fill="#000000" font-family="sans-serif" font-size="14" lengthAdjust="spacing" textLength="218" x="27" y="223.2056">mousePressed(MouseEvent): void</text><ellipse cx="18" cy="236.8996" fill="#84BE84" rx="3" ry="3" style="stroke:#038048;stroke-width:1.0;"/><text fill="#000000" font-family="sans-serif" font-size="14" lengthAdjust="spacing" textLength="226" x="27" y="240.0056">mouseReleased(MouseEvent): void</text><ellipse cx="18" cy="253.6995" fill="#84BE84" rx="3" ry="3" style="stroke:#038048;stroke-width:1.0;"/><text fill="#000000" font-family="sans-serif" font-size="14" lengthAdjust="spacing" text-decoration="underline" textLength="187" x="27" y="256.8055">isButtonPressed(int): boolean</text><ellipse cx="18" cy="270.4994" fill="#84BE84" rx="3" ry="3" style="stroke:#038048;stroke-width:1.0;"/><text fill="#000000" font-family="sans-serif" font-size="14" lengthAdjust="spacing" text-decoration="underline" textLength="181" x="27" y="273.6054">isButtonClicked(int): boolean</text><ellipse cx="18" cy="287.2994" fill="#84BE84" rx="3" ry="3" style="stroke:#038048;stroke-width:1.0;"/><text fill="#000000" font-family="sans-serif" font-size="14" lengthAdjust="spacing" text-decoration="underline" textLength="120" x="27" y="290.4053">getPosition(): Point</text></g></a><!--class java.awt.event.MouseAdapter--><g id="elem_java.awt.event.MouseAdapter"><rect codeLine="16" fill="#F1F1F1" height="42.3999" id="java.awt.event.MouseAdapter" rx="2.5" ry="2.5" style="stroke:#181818;stroke-width:0.5;" width="125" x="85.5" y="7"/><ellipse cx="100.5" cy="28.2" fill="#A9DCDF" rx="11" ry="11" style="stroke:#181818;stroke-width:1.0;"/><path d="M102.0313,30.1375 L102.3594,30.9343 L102.0781,30.9343 C101.625,30.9343 101.5,30.9656 101.3281,31.075 C101.0469,31.2156 100.875,31.5125 100.875,31.8093 C100.875,32.1062 101.0156,32.3562 101.25,32.5281 C101.4219,32.6531 101.6563,32.7 102.0781,32.7 L104.4375,32.7 C104.7969,32.7 105.0469,32.6687 105.1875,32.575 C105.4531,32.4343 105.625,32.1218 105.625,31.8093 C105.625,31.5437 105.4844,31.2781 105.25,31.1062 C105.0625,30.9812 104.9063,30.95 104.4531,30.9343 L101.0625,23.1062 L97.3438,23.1062 C96.8906,23.1062 96.75,23.1218 96.5781,23.2312 C96.3125,23.4031 96.1406,23.6843 96.1406,23.9812 C96.1406,24.2625 96.2813,24.5281 96.5313,24.7 C96.7031,24.825 96.8906,24.8562 97.3438,24.8562 L98.3125,24.8562 L95.7344,30.9343 C94.9844,30.9343 94.5781,31.2312 94.5781,31.8093 C94.5781,32.4187 94.9688,32.7 95.7656,32.7 L98.0313,32.7 C98.3906,32.7 98.6406,32.6687 98.7813,32.575 C99.0469,32.4187 99.2188,32.1218 99.2188,31.8093 C99.2188,31.5437 99.0781,31.2781 98.8438,31.1062 C98.6563,30.9656 98.5,30.9343 98.0313,30.9343 L97.7344,30.9343 L98.0781,30.1375 L102.0313,30.1375 Z M101.2656,28.3875 L98.8125,28.3875 L100.0469,25.5125 L101.2656,28.3875 Z " fill="#000000"/><text fill="#000000" font-family="sans-serif" font-size="14" font-style="italic" lengthAdjust="spacing" textLength="93" x="114.5" y="27.3999">MouseAdapter</text><text fill="#000000" font-family="sans-serif" font-size="10" font-style="italic" lengthAdjust="spacing" textLength="67" x="127.5" y="41.8999">java.awt.event</text></g><!--reverse link java.awt.event.MouseAdapter to VV.Input.Mouse--><g id="link_java.awt.event.MouseAdapter_VV.Input.Mouse"><path codeLine="18" d="M148,70.12 C148,81.85 148,95.13 148,108.65 " fill="none" id="java.awt.event.MouseAdapter-backto-VV.Input.Mouse" style="stroke:#181818;stroke-width:1.0;"/><polygon fill="none" points="141,70.24,148,50.24,155,70.24,141,70.24" style="stroke:#181818;stroke-width:1.0;"/></g><text fill="#888888" font-family="sans-serif" font-size="10" lengthAdjust="spacing" textLength="179" x="51.5" y="313.4893">UMLDoclet 2.1.0, PlantUML 1.2022.14</text><!--SRC=[ZPBVIm914CVV-oi68J3KHQCd4I6j1q51Ydmn7yQxKRVkTe-TyQBC_xszFIqpaVPbsEzyvXSp001C0WPJuWmZUgGC7OfrOAoX2- -6bOu9ACta7HQQafYFrPHaPRqSz2X1PgXqM7zGktNJ7TarqxFP_PlToKGDJBQM2Y33_gC21TDfi6ebQJARmIOaBDw61KL7MwX5Q7BaDlI3_GiqCaVC5FVM8jPuS8HPPs24bkJgqBCs8JJT4uanZaFneMOXGwvwrORSwlWRhQM5UrochmRsFYSZfxa7yeNEWp-rDPVjxfFh0C_BPi_m_KH7h__WboHZorgqDSLOO-i30hOjTuPp5eUHd5xUROoPa3lOuGlcgF1D51LpXKt-bjHXO5dZ302TpqRZw1Psn-HHxrzOMvYdqV3EHea_rslLKiqwZ1CqubMupCbncEuB]--></g></svg>