<?xml version="1.0" encoding="UTF-8" standalone="no"?><svg xmlns="http://www.w3.org/2000/svg" xmlns:xlink="http://www.w3.org/1999/xlink" contentStyleType="text/css" height="307px" preserveAspectRatio="none" style="width:266px;height:307px;background:#FFFFFF;" version="1.1" viewBox="0 0 266 307" width="266px" zoomAndPan="magnify"><defs/><g><!--class vv.Input.Mouse--><a href="Mouse.html" target="_top" title="Mouse.html" xlink:actuate="onRequest" xlink:href="Mouse.html" xlink:show="new" xlink:title="Mouse.html" xlink:type="simple"><g id="elem_vv.Input.Mouse"><rect codeLine="5" fill="#F1F1F1" height="172.3994" id="vv.Input.Mouse" rx="2.5" ry="2.5" style="stroke:#181818;stroke-width:0.5;" width="252" x="7" y="109.4"/><ellipse cx="107.25" cy="128.8" fill="#ADD1B2" rx="11" ry="11" style="stroke:#181818;stroke-width:1.0;"/><path d="M102.25,129.9562 C102.25,132.4562 104.3906,134.2687 107.3125,134.2687 C108.5469,134.2687 109.7188,133.9718 110.4688,133.4562 C111.0781,133.0343 111.4063,132.6125 111.4063,132.2062 C111.4063,131.7375 110.9844,131.3312 110.4844,131.3312 C110.25,131.3312 110.0313,131.4093 109.8281,131.6125 C109.3906,132.05 109.3906,132.05 109.2188,132.1437 C108.7656,132.3781 108.125,132.5187 107.3594,132.5187 C105.3594,132.5187 104.0781,131.5031 104.0781,129.925 L104.0781,128.8781 C104.0781,127.175 105.2969,125.9718 107,125.9718 C107.5781,125.9718 108.1563,126.1125 108.625,126.3625 C109.0938,126.6281 109.2656,126.8156 109.3281,127.175 C109.4531,127.8468 109.7031,128.0968 110.2344,128.0968 C110.5156,128.0968 110.7969,127.9562 110.9844,127.7375 C111.1094,127.5656 111.1563,127.3937 111.1563,126.9562 L111.1563,125.5968 C111.1563,125.175 111.1406,125.0343 111.0156,124.8625 C110.8438,124.6125 110.5625,124.4562 110.2344,124.4562 C109.9219,124.4562 109.7188,124.5656 109.5,124.8312 C108.3281,124.3312 107.8906,124.2218 106.9375,124.2218 C104.2656,124.2218 102.25,126.2375 102.25,128.8625 L102.25,129.9562 Z " fill="#000000"/><text fill="#000000" font-family="sans-serif" font-size="14" lengthAdjust="spacing" textLength="43" x="127.75" y="127.4059">Mouse</text><text fill="#000000" font-family="sans-serif" font-size="10" lengthAdjust="spacing" textLength="37" x="130.75" y="140.4899">vv.Input</text><line style="stroke:#181818;stroke-width:0.5;" x1="8" x2="258" y1="148.1999" y2="148.1999"/><ellipse cx="18" cy="162.0999" fill="none" rx="3" ry="3" style="stroke:#038048;stroke-width:1.0;"/><text fill="#000000" font-family="sans-serif" font-size="14" lengthAdjust="spacing" text-decoration="underline" textLength="101" x="27" y="165.2059">canvas: Canvas</text><line style="stroke:#181818;stroke-width:0.5;" x1="8" x2="258" y1="172.9998" y2="172.9998"/><ellipse cx="18" cy="186.8998" fill="#84BE84" rx="3" ry="3" style="stroke:#038048;stroke-width:1.0;"/><text fill="#000000" font-family="sans-serif" font-size="14" lengthAdjust="spacing" text-decoration="underline" textLength="162" x="27" y="190.0058">addMouseListener(): void</text><ellipse cx="18" cy="203.6997" fill="#84BE84" rx="3" ry="3" style="stroke:#038048;stroke-width:1.0;"/><text fill="#000000" font-family="sans-serif" font-size="14" lengthAdjust="spacing" textLength="218" x="27" y="206.8057">mousePressed(MouseEvent): void</text><ellipse cx="18" cy="220.4997" fill="#84BE84" rx="3" ry="3" style="stroke:#038048;stroke-width:1.0;"/><text fill="#000000" font-family="sans-serif" font-size="14" lengthAdjust="spacing" textLength="226" x="27" y="223.6056">mouseReleased(MouseEvent): void</text><ellipse cx="18" cy="237.2996" fill="#84BE84" rx="3" ry="3" style="stroke:#038048;stroke-width:1.0;"/><text fill="#000000" font-family="sans-serif" font-size="14" lengthAdjust="spacing" text-decoration="underline" textLength="187" x="27" y="240.4056">isButtonPressed(int): boolean</text><ellipse cx="18" cy="254.0995" fill="#84BE84" rx="3" ry="3" style="stroke:#038048;stroke-width:1.0;"/><text fill="#000000" font-family="sans-serif" font-size="14" lengthAdjust="spacing" text-decoration="underline" textLength="181" x="27" y="257.2055">isButtonClicked(int): boolean</text><ellipse cx="18" cy="270.8994" fill="#84BE84" rx="3" ry="3" style="stroke:#038048;stroke-width:1.0;"/><text fill="#000000" font-family="sans-serif" font-size="14" lengthAdjust="spacing" text-decoration="underline" textLength="120" x="27" y="274.0054">getPosition(): Point</text></g></a><!--class java.awt.event.MouseAdapter--><g id="elem_java.awt.event.MouseAdapter"><rect codeLine="15" fill="#F1F1F1" height="42.3999" id="java.awt.event.MouseAdapter" rx="2.5" ry="2.5" style="stroke:#181818;stroke-width:0.5;" width="125" x="70.5" y="7"/><ellipse cx="85.5" cy="28.2" fill="#A9DCDF" rx="11" ry="11" style="stroke:#181818;stroke-width:1.0;"/><path d="M87.0313,30.1375 L87.3594,30.9343 L87.0781,30.9343 C86.625,30.9343 86.5,30.9656 86.3281,31.075 C86.0469,31.2156 85.875,31.5125 85.875,31.8093 C85.875,32.1062 86.0156,32.3562 86.25,32.5281 C86.4219,32.6531 86.6563,32.7 87.0781,32.7 L89.4375,32.7 C89.7969,32.7 90.0469,32.6687 90.1875,32.575 C90.4531,32.4343 90.625,32.1218 90.625,31.8093 C90.625,31.5437 90.4844,31.2781 90.25,31.1062 C90.0625,30.9812 89.9063,30.95 89.4531,30.9343 L86.0625,23.1062 L82.3438,23.1062 C81.8906,23.1062 81.75,23.1218 81.5781,23.2312 C81.3125,23.4031 81.1406,23.6843 81.1406,23.9812 C81.1406,24.2625 81.2813,24.5281 81.5313,24.7 C81.7031,24.825 81.8906,24.8562 82.3438,24.8562 L83.3125,24.8562 L80.7344,30.9343 C79.9844,30.9343 79.5781,31.2312 79.5781,31.8093 C79.5781,32.4187 79.9688,32.7 80.7656,32.7 L83.0313,32.7 C83.3906,32.7 83.6406,32.6687 83.7813,32.575 C84.0469,32.4187 84.2188,32.1218 84.2188,31.8093 C84.2188,31.5437 84.0781,31.2781 83.8438,31.1062 C83.6563,30.9656 83.5,30.9343 83.0313,30.9343 L82.7344,30.9343 L83.0781,30.1375 L87.0313,30.1375 Z M86.2656,28.3875 L83.8125,28.3875 L85.0469,25.5125 L86.2656,28.3875 Z " fill="#000000"/><text fill="#000000" font-family="sans-serif" font-size="14" font-style="italic" lengthAdjust="spacing" textLength="93" x="99.5" y="27.3999">MouseAdapter</text><text fill="#000000" font-family="sans-serif" font-size="10" font-style="italic" lengthAdjust="spacing" textLength="67" x="112.5" y="41.8999">java.awt.event</text></g><!--reverse link java.awt.event.MouseAdapter to vv.Input.Mouse--><g id="link_java.awt.event.MouseAdapter_vv.Input.Mouse"><path codeLine="17" d="M133,70.79 C133,82.53 133,95.75 133,109.07 " fill="none" id="java.awt.event.MouseAdapter-backto-vv.Input.Mouse" style="stroke:#181818;stroke-width:1.0;"/><polygon fill="none" points="126,70.81,133,50.81,140,70.81,126,70.81" style="stroke:#181818;stroke-width:1.0;"/></g><text fill="#888888" font-family="sans-serif" font-size="10" lengthAdjust="spacing" textLength="179" x="36.5" y="297.0894">UMLDoclet 2.1.0, PlantUML 1.2022.14</text><!--SRC=[ZP91Jq8n3CVlVeh6n0I3B60y4KAYwC44aXUD9-HGzefCzxQNjJoZo7TtRu0Y8SHTclxxQvkk1G1W4d1O49UewP5A32W-WFEEJc8OvYOdeAAK3vWPiZdlgmN9t4SvwTeYCvpss7nIjtFL7_a5qxFR-Er-LQbxLoxa591XwwX4mNYSh9fBOISJMAQ2zLkoe1YzWgP6Lo5tOP3i0G3pF1KP6XPo51hdNQYyoN_GPb67iq3Cb3SIUrUHayFS0rd2u-1lRyCt2n7ljiLDWgVUnnhk23-mHh_zWtyXoJmRCTxLOsK-9YHijVvxdB84r79u2TSvba9XPnUlMA72Tr5KpvKsybTIkudh7aS0w7srMdixtHn5H6DyvdrjdaR3MwzjFBjBrL7j2yWiEeagd5KKE4tt3G00]--></g></svg>