<?xml version="1.0" encoding="UTF-8" standalone="no"?><svg xmlns="http://www.w3.org/2000/svg" xmlns:xlink="http://www.w3.org/1999/xlink" contentStyleType="text/css" height="290px" preserveAspectRatio="none" style="width:266px;height:290px;background:#FFFFFF;" version="1.1" viewBox="0 0 266 290" width="266px" zoomAndPan="magnify"><defs/><g><!--class VV.Input.Mouse--><a href="Mouse.html" target="_top" title="Mouse.html" xlink:actuate="onRequest" xlink:href="Mouse.html" xlink:show="new" xlink:title="Mouse.html" xlink:type="simple"><g id="elem_VV.Input.Mouse"><rect codeLine="5" fill="#F1F1F1" height="155.5995" id="VV.Input.Mouse" rx="2.5" ry="2.5" style="stroke:#181818;stroke-width:0.5;" width="252" x="7" y="109"/><ellipse cx="107.25" cy="128.4" fill="#ADD1B2" rx="11" ry="11" style="stroke:#181818;stroke-width:1.0;"/><path d="M102.25,129.5562 C102.25,132.0562 104.3906,133.8687 107.3125,133.8687 C108.5469,133.8687 109.7188,133.5718 110.4688,133.0562 C111.0781,132.6343 111.4063,132.2125 111.4063,131.8062 C111.4063,131.3375 110.9844,130.9312 110.4844,130.9312 C110.25,130.9312 110.0313,131.0093 109.8281,131.2125 C109.3906,131.65 109.3906,131.65 109.2188,131.7437 C108.7656,131.9781 108.125,132.1187 107.3594,132.1187 C105.3594,132.1187 104.0781,131.1031 104.0781,129.525 L104.0781,128.4781 C104.0781,126.775 105.2969,125.5718 107,125.5718 C107.5781,125.5718 108.1563,125.7125 108.625,125.9625 C109.0938,126.2281 109.2656,126.4156 109.3281,126.775 C109.4531,127.4468 109.7031,127.6968 110.2344,127.6968 C110.5156,127.6968 110.7969,127.5562 110.9844,127.3375 C111.1094,127.1656 111.1563,126.9937 111.1563,126.5562 L111.1563,125.1968 C111.1563,124.775 111.1406,124.6343 111.0156,124.4625 C110.8438,124.2125 110.5625,124.0562 110.2344,124.0562 C109.9219,124.0562 109.7188,124.1656 109.5,124.4312 C108.3281,123.9312 107.8906,123.8218 106.9375,123.8218 C104.2656,123.8218 102.25,125.8375 102.25,128.4625 L102.25,129.5562 Z " fill="#000000"/><text fill="#000000" font-family="sans-serif" font-size="14" lengthAdjust="spacing" textLength="43" x="127.75" y="127.0059">Mouse</text><text fill="#000000" font-family="sans-serif" font-size="10" lengthAdjust="spacing" textLength="41" x="128.75" y="140.0899">VV.Input</text><line style="stroke:#181818;stroke-width:0.5;" x1="8" x2="258" y1="147.7999" y2="147.7999"/><ellipse cx="18" cy="161.6999" fill="none" rx="3" ry="3" style="stroke:#038048;stroke-width:1.0;"/><text fill="#000000" font-family="sans-serif" font-size="14" lengthAdjust="spacing" text-decoration="underline" textLength="101" x="27" y="164.8059">canvas: Canvas</text><line style="stroke:#181818;stroke-width:0.5;" x1="8" x2="258" y1="172.5998" y2="172.5998"/><ellipse cx="18" cy="186.4998" fill="#84BE84" rx="3" ry="3" style="stroke:#038048;stroke-width:1.0;"/><text fill="#000000" font-family="sans-serif" font-size="14" lengthAdjust="spacing" text-decoration="underline" textLength="162" x="27" y="189.6058">addMouseListener(): void</text><ellipse cx="18" cy="203.2997" fill="#84BE84" rx="3" ry="3" style="stroke:#038048;stroke-width:1.0;"/><text fill="#000000" font-family="sans-serif" font-size="14" lengthAdjust="spacing" textLength="218" x="27" y="206.4057">mousePressed(MouseEvent): void</text><ellipse cx="18" cy="220.0997" fill="#84BE84" rx="3" ry="3" style="stroke:#038048;stroke-width:1.0;"/><text fill="#000000" font-family="sans-serif" font-size="14" lengthAdjust="spacing" textLength="226" x="27" y="223.2056">mouseReleased(MouseEvent): void</text><ellipse cx="18" cy="236.8996" fill="#84BE84" rx="3" ry="3" style="stroke:#038048;stroke-width:1.0;"/><text fill="#000000" font-family="sans-serif" font-size="14" lengthAdjust="spacing" text-decoration="underline" textLength="187" x="27" y="240.0056">isButtonPressed(int): boolean</text><ellipse cx="18" cy="253.6995" fill="#84BE84" rx="3" ry="3" style="stroke:#038048;stroke-width:1.0;"/><text fill="#000000" font-family="sans-serif" font-size="14" lengthAdjust="spacing" text-decoration="underline" textLength="120" x="27" y="256.8055">getPosition(): Point</text></g></a><!--class java.awt.event.MouseAdapter--><g id="elem_java.awt.event.MouseAdapter"><rect codeLine="14" fill="#F1F1F1" height="42.3999" id="java.awt.event.MouseAdapter" rx="2.5" ry="2.5" style="stroke:#181818;stroke-width:0.5;" width="125" x="70.5" y="7"/><ellipse cx="85.5" cy="28.2" fill="#A9DCDF" rx="11" ry="11" style="stroke:#181818;stroke-width:1.0;"/><path d="M87.0313,30.1375 L87.3594,30.9343 L87.0781,30.9343 C86.625,30.9343 86.5,30.9656 86.3281,31.075 C86.0469,31.2156 85.875,31.5125 85.875,31.8093 C85.875,32.1062 86.0156,32.3562 86.25,32.5281 C86.4219,32.6531 86.6563,32.7 87.0781,32.7 L89.4375,32.7 C89.7969,32.7 90.0469,32.6687 90.1875,32.575 C90.4531,32.4343 90.625,32.1218 90.625,31.8093 C90.625,31.5437 90.4844,31.2781 90.25,31.1062 C90.0625,30.9812 89.9063,30.95 89.4531,30.9343 L86.0625,23.1062 L82.3438,23.1062 C81.8906,23.1062 81.75,23.1218 81.5781,23.2312 C81.3125,23.4031 81.1406,23.6843 81.1406,23.9812 C81.1406,24.2625 81.2813,24.5281 81.5313,24.7 C81.7031,24.825 81.8906,24.8562 82.3438,24.8562 L83.3125,24.8562 L80.7344,30.9343 C79.9844,30.9343 79.5781,31.2312 79.5781,31.8093 C79.5781,32.4187 79.9688,32.7 80.7656,32.7 L83.0313,32.7 C83.3906,32.7 83.6406,32.6687 83.7813,32.575 C84.0469,32.4187 84.2188,32.1218 84.2188,31.8093 C84.2188,31.5437 84.0781,31.2781 83.8438,31.1062 C83.6563,30.9656 83.5,30.9343 83.0313,30.9343 L82.7344,30.9343 L83.0781,30.1375 L87.0313,30.1375 Z M86.2656,28.3875 L83.8125,28.3875 L85.0469,25.5125 L86.2656,28.3875 Z " fill="#000000"/><text fill="#000000" font-family="sans-serif" font-size="14" font-style="italic" lengthAdjust="spacing" textLength="93" x="99.5" y="27.3999">MouseAdapter</text><text fill="#000000" font-family="sans-serif" font-size="10" font-style="italic" lengthAdjust="spacing" textLength="67" x="112.5" y="41.8999">java.awt.event</text></g><!--reverse link java.awt.event.MouseAdapter to VV.Input.Mouse--><g id="link_java.awt.event.MouseAdapter_VV.Input.Mouse"><path codeLine="16" d="M133,69.85 C133,81.78 133,95.22 133,108.63 " fill="none" id="java.awt.event.MouseAdapter-backto-VV.Input.Mouse" style="stroke:#181818;stroke-width:1.0;"/><polygon fill="none" points="126,70.2,133,50.2,140,70.2,126,70.2" style="stroke:#181818;stroke-width:1.0;"/></g><text fill="#888888" font-family="sans-serif" font-size="10" lengthAdjust="spacing" textLength="179" x="36.5" y="279.8895">UMLDoclet 2.1.0, PlantUML 1.2022.14</text><!--SRC=[VPBVQm8n3CVVzrS4OU1m5Xrx4X7sws6WS6pC5-T3lCPTnrrxDF76vlpVrwkwEJdiIyWtdoPfKW009W6B1N69AJrJYHx5UR3Eqba8GsOq0HMbVCBIKAxvM2r8CXVagASvCaDhoEQB1lthqSIjc5xjpk-DfbFrQCkLj00PzewA5CncqQfCYdm-XtLCM9yr2uf9Dz19qLR80xYBjW50hMEIiM4XIxvzCO3A6VsBTeewd7XY9jsEx4D5Lfgv9ye9JuD_jGtVhaIStISt4Luu5tBO1lwD975in3XRjvcuS25Yc-qiSS7YCPNceTveB8NymMpViKA57wAexZDE-B-a3YzkQvm0OFZTxHxjQBVaW8RuqhdQl4p6zoxDmpUwKdtLkuGaHoj1XVEAFCVN_G00]--></g></svg>