<?xml version="1.0" encoding="UTF-8" standalone="no"?><svg xmlns="http://www.w3.org/2000/svg" xmlns:xlink="http://www.w3.org/1999/xlink" contentStyleType="text/css" height="479px" preserveAspectRatio="none" style="width:544px;height:479px;background:#FFFFFF;" version="1.1" viewBox="0 0 544 479" width="544px" zoomAndPan="magnify"><defs/><g><!--cluster VV.Input--><g id="cluster_VV.Input"><path d="M8.5,186.294 L67.5,186.294 A3.75,3.75 0 0 1 70,188.794 L77,209.0939 L534.5,209.0939 A2.5,2.5 0 0 1 537,211.5939 L537,450.794 A2.5,2.5 0 0 1 534.5,453.294 L8.5,453.294 A2.5,2.5 0 0 1 6,450.794 L6,188.794 A2.5,2.5 0 0 1 8.5,186.294 " fill="none" style="stroke:#000000;stroke-width:1.5;"/><line style="stroke:#000000;stroke-width:1.5;" x1="6" x2="77" y1="209.0939" y2="209.0939"/><text fill="#000000" font-family="sans-serif" font-size="14" font-weight="bold" lengthAdjust="spacing" textLength="58" x="10" y="201.2999">VV.Input</text></g><!--cluster java.awt.event--><g id="cluster_java.awt.event"><path d="M102.5,6.294 L201.5,6.294 A3.75,3.75 0 0 1 204,8.794 L211,29.0939 L502.5,29.0939 A2.5,2.5 0 0 1 505,31.5939 L505,159.794 A2.5,2.5 0 0 1 502.5,162.294 L102.5,162.294 A2.5,2.5 0 0 1 100,159.794 L100,8.794 A2.5,2.5 0 0 1 102.5,6.294 " fill="none" style="stroke:#000000;stroke-width:1.5;"/><line style="stroke:#000000;stroke-width:1.5;" x1="100" x2="211" y1="29.0939" y2="29.0939"/><text fill="#000000" font-family="sans-serif" font-size="14" font-weight="bold" lengthAdjust="spacing" textLength="98" x="104" y="21.2999">java.awt.event</text></g><!--class VV.Input.KeyManager--><a href="KeyManager.html" target="_top" title="KeyManager.html" xlink:actuate="onRequest" xlink:href="KeyManager.html" xlink:show="new" xlink:title="KeyManager.html" xlink:type="simple"><g id="elem_VV.Input.KeyManager"><rect codeLine="3" fill="#F1F1F1" height="215.9993" id="VV.Input.KeyManager" rx="2.5" ry="2.5" style="stroke:#181818;stroke-width:0.5;" width="212" x="309" y="221.294"/><ellipse cx="370.25" cy="237.294" fill="#ADD1B2" rx="11" ry="11" style="stroke:#181818;stroke-width:1.0;"/><path d="M365.25,238.4502 C365.25,240.9502 367.3906,242.7627 370.3125,242.7627 C371.5469,242.7627 372.7188,242.4659 373.4688,241.9502 C374.0781,241.5284 374.4063,241.1065 374.4063,240.7002 C374.4063,240.2315 373.9844,239.8252 373.4844,239.8252 C373.25,239.8252 373.0313,239.9034 372.8281,240.1065 C372.3906,240.544 372.3906,240.544 372.2188,240.6377 C371.7656,240.8721 371.125,241.0127 370.3594,241.0127 C368.3594,241.0127 367.0781,239.9971 367.0781,238.419 L367.0781,237.3721 C367.0781,235.669 368.2969,234.4659 370,234.4659 C370.5781,234.4659 371.1563,234.6065 371.625,234.8565 C372.0938,235.1221 372.2656,235.3096 372.3281,235.669 C372.4531,236.3409 372.7031,236.5909 373.2344,236.5909 C373.5156,236.5909 373.7969,236.4502 373.9844,236.2315 C374.1094,236.0596 374.1563,235.8877 374.1563,235.4502 L374.1563,234.0909 C374.1563,233.669 374.1406,233.5284 374.0156,233.3565 C373.8438,233.1065 373.5625,232.9502 373.2344,232.9502 C372.9219,232.9502 372.7188,233.0596 372.5,233.3252 C371.3281,232.8252 370.8906,232.7159 369.9375,232.7159 C367.2656,232.7159 365.25,234.7315 365.25,237.3565 L365.25,238.4502 Z " fill="#000000"/><text fill="#000000" font-family="sans-serif" font-size="14" lengthAdjust="spacing" textLength="81" x="390.75" y="241.9">KeyManager</text><line style="stroke:#181818;stroke-width:0.5;" x1="310" x2="520" y1="253.294" y2="253.294"/><ellipse cx="320" cy="267.1939" fill="none" rx="3" ry="3" style="stroke:#038048;stroke-width:1.0;"/><text fill="#000000" font-family="sans-serif" font-size="14" lengthAdjust="spacing" textLength="75" x="329" y="270.2999">up: boolean</text><ellipse cx="320" cy="283.9939" fill="none" rx="3" ry="3" style="stroke:#038048;stroke-width:1.0;"/><text fill="#000000" font-family="sans-serif" font-size="14" lengthAdjust="spacing" textLength="93" x="329" y="287.0999">down: boolean</text><ellipse cx="320" cy="300.7938" fill="none" rx="3" ry="3" style="stroke:#038048;stroke-width:1.0;"/><text fill="#000000" font-family="sans-serif" font-size="14" lengthAdjust="spacing" textLength="78" x="329" y="303.8998">left: boolean</text><ellipse cx="320" cy="317.5937" fill="none" rx="3" ry="3" style="stroke:#038048;stroke-width:1.0;"/><text fill="#000000" font-family="sans-serif" font-size="14" lengthAdjust="spacing" textLength="87" x="329" y="320.6997">right: boolean</text><ellipse cx="320" cy="334.3937" fill="none" rx="3" ry="3" style="stroke:#038048;stroke-width:1.0;"/><text fill="#000000" font-family="sans-serif" font-size="14" lengthAdjust="spacing" textLength="97" x="329" y="337.4996">action: boolean</text><line style="stroke:#181818;stroke-width:0.5;" x1="310" x2="520" y1="345.2936" y2="345.2936"/><ellipse cx="320" cy="359.1936" fill="#84BE84" rx="3" ry="3" style="stroke:#038048;stroke-width:1.0;"/><text fill="#000000" font-family="sans-serif" font-size="14" lengthAdjust="spacing" text-decoration="underline" textLength="173" x="329" y="362.2996">getInstance(): KeyManager</text><ellipse cx="320" cy="375.9935" fill="#84BE84" rx="3" ry="3" style="stroke:#038048;stroke-width:1.0;"/><text fill="#000000" font-family="sans-serif" font-size="14" lengthAdjust="spacing" textLength="90" x="329" y="379.0995">Update(): void</text><ellipse cx="320" cy="392.7934" fill="#84BE84" rx="3" ry="3" style="stroke:#038048;stroke-width:1.0;"/><text fill="#000000" font-family="sans-serif" font-size="14" lengthAdjust="spacing" textLength="178" x="329" y="395.8994">keyPressed(KeyEvent): void</text><ellipse cx="320" cy="409.5934" fill="#84BE84" rx="3" ry="3" style="stroke:#038048;stroke-width:1.0;"/><text fill="#000000" font-family="sans-serif" font-size="14" lengthAdjust="spacing" textLength="186" x="329" y="412.6993">keyReleased(KeyEvent): void</text><ellipse cx="320" cy="426.3933" fill="#84BE84" rx="3" ry="3" style="stroke:#038048;stroke-width:1.0;"/><text fill="#000000" font-family="sans-serif" font-size="14" lengthAdjust="spacing" textLength="166" x="329" y="429.4993">keyTyped(KeyEvent): void</text></g></a><!--class VV.Input.Mouse--><a href="Mouse.html" target="_top" title="Mouse.html" xlink:actuate="onRequest" xlink:href="Mouse.html" xlink:show="new" xlink:title="Mouse.html" xlink:type="simple"><g id="elem_VV.Input.Mouse"><rect codeLine="16" fill="#F1F1F1" height="148.7996" id="VV.Input.Mouse" rx="2.5" ry="2.5" style="stroke:#181818;stroke-width:0.5;" width="252" x="22" y="254.794"/><ellipse cx="122.25" cy="270.794" fill="#ADD1B2" rx="11" ry="11" style="stroke:#181818;stroke-width:1.0;"/><path d="M117.25,271.9502 C117.25,274.4502 119.3906,276.2627 122.3125,276.2627 C123.5469,276.2627 124.7188,275.9659 125.4688,275.4502 C126.0781,275.0284 126.4063,274.6065 126.4063,274.2002 C126.4063,273.7315 125.9844,273.3252 125.4844,273.3252 C125.25,273.3252 125.0313,273.4034 124.8281,273.6065 C124.3906,274.044 124.3906,274.044 124.2188,274.1377 C123.7656,274.3721 123.125,274.5127 122.3594,274.5127 C120.3594,274.5127 119.0781,273.4971 119.0781,271.919 L119.0781,270.8721 C119.0781,269.169 120.2969,267.9659 122,267.9659 C122.5781,267.9659 123.1563,268.1065 123.625,268.3565 C124.0938,268.6221 124.2656,268.8096 124.3281,269.169 C124.4531,269.8409 124.7031,270.0909 125.2344,270.0909 C125.5156,270.0909 125.7969,269.9502 125.9844,269.7315 C126.1094,269.5596 126.1563,269.3877 126.1563,268.9502 L126.1563,267.5909 C126.1563,267.169 126.1406,267.0284 126.0156,266.8565 C125.8438,266.6065 125.5625,266.4502 125.2344,266.4502 C124.9219,266.4502 124.7188,266.5596 124.5,266.8252 C123.3281,266.3252 122.8906,266.2159 121.9375,266.2159 C119.2656,266.2159 117.25,268.2315 117.25,270.8565 L117.25,271.9502 Z " fill="#000000"/><text fill="#000000" font-family="sans-serif" font-size="14" lengthAdjust="spacing" textLength="43" x="142.75" y="275.4">Mouse</text><line style="stroke:#181818;stroke-width:0.5;" x1="23" x2="273" y1="286.794" y2="286.794"/><ellipse cx="33" cy="300.6939" fill="none" rx="3" ry="3" style="stroke:#038048;stroke-width:1.0;"/><text fill="#000000" font-family="sans-serif" font-size="14" lengthAdjust="spacing" text-decoration="underline" textLength="101" x="42" y="303.7999">canvas: Canvas</text><line style="stroke:#181818;stroke-width:0.5;" x1="23" x2="273" y1="311.5939" y2="311.5939"/><ellipse cx="33" cy="325.4939" fill="#84BE84" rx="3" ry="3" style="stroke:#038048;stroke-width:1.0;"/><text fill="#000000" font-family="sans-serif" font-size="14" lengthAdjust="spacing" text-decoration="underline" textLength="162" x="42" y="328.5999">addMouseListener(): void</text><ellipse cx="33" cy="342.2938" fill="#84BE84" rx="3" ry="3" style="stroke:#038048;stroke-width:1.0;"/><text fill="#000000" font-family="sans-serif" font-size="14" lengthAdjust="spacing" textLength="218" x="42" y="345.3998">mousePressed(MouseEvent): void</text><ellipse cx="33" cy="359.0937" fill="#84BE84" rx="3" ry="3" style="stroke:#038048;stroke-width:1.0;"/><text fill="#000000" font-family="sans-serif" font-size="14" lengthAdjust="spacing" textLength="226" x="42" y="362.1997">mouseReleased(MouseEvent): void</text><ellipse cx="33" cy="375.8937" fill="#84BE84" rx="3" ry="3" style="stroke:#038048;stroke-width:1.0;"/><text fill="#000000" font-family="sans-serif" font-size="14" lengthAdjust="spacing" text-decoration="underline" textLength="187" x="42" y="378.9996">isButtonPressed(int): boolean</text><ellipse cx="33" cy="392.6936" fill="#84BE84" rx="3" ry="3" style="stroke:#038048;stroke-width:1.0;"/><text fill="#000000" font-family="sans-serif" font-size="14" lengthAdjust="spacing" text-decoration="underline" textLength="120" x="42" y="395.7996">getPosition(): Point</text></g></a><!--class java.awt.event.KeyListener--><g id="elem_java.awt.event.KeyListener"><rect codeLine="30" fill="#F1F1F1" height="104.6998" id="java.awt.event.KeyListener" rx="2.5" ry="2.5" style="stroke:#181818;stroke-width:0.5;" width="212" x="277" y="41.294"/><ellipse cx="341.25" cy="57.294" fill="#B4A7E5" rx="11" ry="11" style="stroke:#181818;stroke-width:1.0;"/><path d="M342.2656,54.4502 L343.9219,54.4502 C344.3125,54.4502 344.5156,54.419 344.6719,54.3409 C344.9375,54.169 345.1094,53.8721 345.1094,53.5752 C345.1094,53.294 344.9688,53.044 344.7344,52.8721 C344.5469,52.7471 344.3906,52.7002 343.9219,52.7002 L338.7813,52.7002 C338.3438,52.7002 338.2031,52.7159 338.0313,52.8252 C337.7656,52.9971 337.5938,53.2784 337.5938,53.5752 C337.5938,53.8565 337.7344,54.1377 337.9688,54.294 C338.1563,54.419 338.3438,54.4502 338.7813,54.4502 L340.4375,54.4502 L340.4375,60.544 L338.7813,60.544 C338.3438,60.544 338.2031,60.5596 338.0313,60.669 C337.7656,60.8252 337.5938,61.1221 337.5938,61.4034 C337.5938,62.0127 338,62.294 338.7813,62.294 L343.9219,62.294 C344.7031,62.294 345.1094,62.0127 345.1094,61.4034 C345.1094,61.1377 344.9688,60.8877 344.7344,60.7159 C344.5469,60.5752 344.375,60.544 343.9219,60.544 L342.2656,60.544 L342.2656,54.4502 Z " fill="#000000"/><text fill="#000000" font-family="sans-serif" font-size="14" font-style="italic" lengthAdjust="spacing" textLength="75" x="361.75" y="63.244">KeyListener</text><line style="stroke:#181818;stroke-width:0.5;" x1="278" x2="488" y1="73.294" y2="73.294"/><line style="stroke:#181818;stroke-width:0.5;" x1="278" x2="488" y1="81.294" y2="81.294"/><ellipse cx="288" cy="96.2439" fill="#84BE84" rx="3" ry="3" style="stroke:#038048;stroke-width:1.0;"/><text fill="#000000" font-family="sans-serif" font-size="14" font-style="italic" lengthAdjust="spacing" textLength="166" x="297" y="100.6939">keyTyped(KeyEvent): void</text><ellipse cx="288" cy="115.1439" fill="#84BE84" rx="3" ry="3" style="stroke:#038048;stroke-width:1.0;"/><text fill="#000000" font-family="sans-serif" font-size="14" font-style="italic" lengthAdjust="spacing" textLength="178" x="297" y="119.5938">keyPressed(KeyEvent): void</text><ellipse cx="288" cy="134.0438" fill="#84BE84" rx="3" ry="3" style="stroke:#038048;stroke-width:1.0;"/><text fill="#000000" font-family="sans-serif" font-size="14" font-style="italic" lengthAdjust="spacing" textLength="186" x="297" y="138.4938">keyReleased(KeyEvent): void</text></g><!--class java.awt.event.MouseAdapter--><g id="elem_java.awt.event.MouseAdapter"><rect codeLine="35" fill="#F1F1F1" height="48" id="java.awt.event.MouseAdapter" rx="2.5" ry="2.5" style="stroke:#181818;stroke-width:0.5;" width="125" x="116.5" y="69.794"/><ellipse cx="131.5" cy="85.794" fill="#A9DCDF" rx="11" ry="11" style="stroke:#181818;stroke-width:1.0;"/><path d="M133.0313,87.7315 L133.3594,88.5284 L133.0781,88.5284 C132.625,88.5284 132.5,88.5596 132.3281,88.669 C132.0469,88.8096 131.875,89.1065 131.875,89.4034 C131.875,89.7002 132.0156,89.9502 132.25,90.1221 C132.4219,90.2471 132.6563,90.294 133.0781,90.294 L135.4375,90.294 C135.7969,90.294 136.0469,90.2627 136.1875,90.169 C136.4531,90.0284 136.625,89.7159 136.625,89.4034 C136.625,89.1377 136.4844,88.8721 136.25,88.7002 C136.0625,88.5752 135.9063,88.544 135.4531,88.5284 L132.0625,80.7002 L128.3438,80.7002 C127.8906,80.7002 127.75,80.7159 127.5781,80.8252 C127.3125,80.9971 127.1406,81.2784 127.1406,81.5752 C127.1406,81.8565 127.2813,82.1221 127.5313,82.294 C127.7031,82.419 127.8906,82.4502 128.3438,82.4502 L129.3125,82.4502 L126.7344,88.5284 C125.9844,88.5284 125.5781,88.8252 125.5781,89.4034 C125.5781,90.0127 125.9688,90.294 126.7656,90.294 L129.0313,90.294 C129.3906,90.294 129.6406,90.2627 129.7813,90.169 C130.0469,90.0127 130.2188,89.7159 130.2188,89.4034 C130.2188,89.1377 130.0781,88.8721 129.8438,88.7002 C129.6563,88.5596 129.5,88.5284 129.0313,88.5284 L128.7344,88.5284 L129.0781,87.7315 L133.0313,87.7315 Z M132.2656,85.9815 L129.8125,85.9815 L131.0469,83.1065 L132.2656,85.9815 Z " fill="#000000"/><text fill="#000000" font-family="sans-serif" font-size="14" font-style="italic" lengthAdjust="spacing" textLength="93" x="145.5" y="91.744">MouseAdapter</text><line style="stroke:#181818;stroke-width:0.5;" x1="117.5" x2="240.5" y1="101.794" y2="101.794"/><line style="stroke:#181818;stroke-width:0.5;" x1="117.5" x2="240.5" y1="109.794" y2="109.794"/></g><!--reverse link java.awt.event.KeyListener to VV.Input.KeyManager--><g id="link_java.awt.event.KeyListener_VV.Input.KeyManager"><path codeLine="25" d="M392.94,167.304 C395.28,184.364 397.82,202.904 400.31,221.134 " fill="none" id="java.awt.event.KeyListener-backto-VV.Input.KeyManager" style="stroke:#181818;stroke-width:1.0;stroke-dasharray:7.0,7.0;"/><polygon fill="none" points="385.88,168.384,390.1,147.614,399.75,166.484,385.88,168.384" style="stroke:#181818;stroke-width:1.0;"/></g><!--reverse link java.awt.event.MouseAdapter to VV.Input.Mouse--><g id="link_java.awt.event.MouseAdapter_VV.Input.Mouse"><path codeLine="26" d="M173.16,138.784 C168.84,171.334 162.85,216.434 157.8,254.464 " fill="none" id="java.awt.event.MouseAdapter-backto-VV.Input.Mouse" style="stroke:#181818;stroke-width:1.0;"/><polygon fill="none" points="166.34,137.944,175.91,119.034,180.22,139.784,166.34,137.944" style="stroke:#181818;stroke-width:1.0;"/></g><text fill="#888888" font-family="sans-serif" font-size="10" lengthAdjust="spacing" textLength="179" x="175.5" y="468.584">UMLDoclet 2.1.0, PlantUML 1.2022.14</text><!--SRC=[ZLFBRi8m4Bpp5NkfH4MnsXvHBtqTK46Agi85SLYI1Tm6EuetGOZct-kuG1vAW5mSPsVidPaD08323Pa8VOBfL0nLb33iEnquF7w8ni07xSQeS4Knp6R5Hgnv4yxd5W-bfvT40rXe7HAgQY7GMzLI2cd9BQLOhjPjDVHPwfOpzuQHfPz1RqKyL7QdVEhU3afggeTDeW3P8L8jWshjXtPUJCPGqBNqzvGKj-4-oRPo3V1h5vr1PVKGnZenPFrtQxFrXMGVLOfc0AzkRG5X4BZ3Hj8mAOgRfMzoo56ymxUhSjYJ0UV1HH_Il2JCMXqlaOvmCLDF6vd7dxVjQKjgykuRKnIuPK5v7yAwVLGBJxz2D0r3ZU9KF0SOiUFq-_z9T4eN5VzGbLkAnxP7yJA7b5kenOSBmx6TwUoA-MWWN3EXDSh5OSrERqTYUHmFjfIzy2bN2akjysKo7hrfFoI6H_4Wxk_02r6n_GetASN6fVS7]--></g></svg>