<?xml version="1.0" encoding="UTF-8" standalone="no"?><svg xmlns="http://www.w3.org/2000/svg" xmlns:xlink="http://www.w3.org/1999/xlink" contentStyleType="text/css" height="405px" preserveAspectRatio="none" style="width:544px;height:405px;background:#FFFFFF;" version="1.1" viewBox="0 0 544 405" width="544px" zoomAndPan="magnify"><defs/><g><!--cluster vv.Input--><g id="cluster_vv.Input"><path d="M8.5,129.294 L65.5,129.294 A3.75,3.75 0 0 1 68,131.794 L75,152.0939 L534.5,152.0939 A2.5,2.5 0 0 1 537,154.5939 L537,376.994 A2.5,2.5 0 0 1 534.5,379.494 L8.5,379.494 A2.5,2.5 0 0 1 6,376.994 L6,131.794 A2.5,2.5 0 0 1 8.5,129.294 " fill="none" style="stroke:#000000;stroke-width:1.5;"/><line style="stroke:#000000;stroke-width:1.5;" x1="6" x2="75" y1="152.0939" y2="152.0939"/><text fill="#000000" font-family="sans-serif" font-size="14" font-weight="bold" lengthAdjust="spacing" textLength="56" x="10" y="144.2999">vv.Input</text></g><!--cluster java.awt.event--><g id="cluster_java.awt.event"><path d="M130.5,6.294 L229.5,6.294 A3.75,3.75 0 0 1 232,8.794 L239,29.0939 L422.5,29.0939 A2.5,2.5 0 0 1 425,31.5939 L425,102.794 A2.5,2.5 0 0 1 422.5,105.294 L130.5,105.294 A2.5,2.5 0 0 1 128,102.794 L128,8.794 A2.5,2.5 0 0 1 130.5,6.294 " fill="none" style="stroke:#000000;stroke-width:1.5;"/><line style="stroke:#000000;stroke-width:1.5;" x1="128" x2="239" y1="29.0939" y2="29.0939"/><text fill="#000000" font-family="sans-serif" font-size="14" font-weight="bold" lengthAdjust="spacing" textLength="98" x="132" y="21.2999">java.awt.event</text></g><!--class vv.Input.KeyManager--><a href="KeyManager.html" target="_top" title="KeyManager.html" xlink:actuate="onRequest" xlink:href="KeyManager.html" xlink:show="new" xlink:title="KeyManager.html" xlink:type="simple"><g id="elem_vv.Input.KeyManager"><rect codeLine="3" fill="#F1F1F1" height="199.1993" id="vv.Input.KeyManager" rx="2.5" ry="2.5" style="stroke:#181818;stroke-width:0.5;" width="212" x="309" y="164.294"/><ellipse cx="370.25" cy="180.294" fill="#ADD1B2" rx="11" ry="11" style="stroke:#181818;stroke-width:1.0;"/><path d="M365.25,181.4502 C365.25,183.9502 367.3906,185.7627 370.3125,185.7627 C371.5469,185.7627 372.7188,185.4659 373.4688,184.9502 C374.0781,184.5284 374.4063,184.1065 374.4063,183.7002 C374.4063,183.2315 373.9844,182.8252 373.4844,182.8252 C373.25,182.8252 373.0313,182.9034 372.8281,183.1065 C372.3906,183.544 372.3906,183.544 372.2188,183.6377 C371.7656,183.8721 371.125,184.0127 370.3594,184.0127 C368.3594,184.0127 367.0781,182.9971 367.0781,181.419 L367.0781,180.3721 C367.0781,178.669 368.2969,177.4659 370,177.4659 C370.5781,177.4659 371.1563,177.6065 371.625,177.8565 C372.0938,178.1221 372.2656,178.3096 372.3281,178.669 C372.4531,179.3409 372.7031,179.5909 373.2344,179.5909 C373.5156,179.5909 373.7969,179.4502 373.9844,179.2315 C374.1094,179.0596 374.1563,178.8877 374.1563,178.4502 L374.1563,177.0909 C374.1563,176.669 374.1406,176.5284 374.0156,176.3565 C373.8438,176.1065 373.5625,175.9502 373.2344,175.9502 C372.9219,175.9502 372.7188,176.0596 372.5,176.3252 C371.3281,175.8252 370.8906,175.7159 369.9375,175.7159 C367.2656,175.7159 365.25,177.7315 365.25,180.3565 L365.25,181.4502 Z " fill="#000000"/><text fill="#000000" font-family="sans-serif" font-size="14" lengthAdjust="spacing" textLength="81" x="390.75" y="184.9">KeyManager</text><line style="stroke:#181818;stroke-width:0.5;" x1="310" x2="520" y1="196.294" y2="196.294"/><ellipse cx="320" cy="210.1939" fill="none" rx="3" ry="3" style="stroke:#038048;stroke-width:1.0;"/><text fill="#000000" font-family="sans-serif" font-size="14" lengthAdjust="spacing" textLength="75" x="329" y="213.2999">up: boolean</text><ellipse cx="320" cy="226.9939" fill="none" rx="3" ry="3" style="stroke:#038048;stroke-width:1.0;"/><text fill="#000000" font-family="sans-serif" font-size="14" lengthAdjust="spacing" textLength="93" x="329" y="230.0999">down: boolean</text><ellipse cx="320" cy="243.7938" fill="none" rx="3" ry="3" style="stroke:#038048;stroke-width:1.0;"/><text fill="#000000" font-family="sans-serif" font-size="14" lengthAdjust="spacing" textLength="78" x="329" y="246.8998">left: boolean</text><ellipse cx="320" cy="260.5937" fill="none" rx="3" ry="3" style="stroke:#038048;stroke-width:1.0;"/><text fill="#000000" font-family="sans-serif" font-size="14" lengthAdjust="spacing" textLength="87" x="329" y="263.6997">right: boolean</text><ellipse cx="320" cy="277.3937" fill="none" rx="3" ry="3" style="stroke:#038048;stroke-width:1.0;"/><text fill="#000000" font-family="sans-serif" font-size="14" lengthAdjust="spacing" textLength="97" x="329" y="280.4996">action: boolean</text><line style="stroke:#181818;stroke-width:0.5;" x1="310" x2="520" y1="288.2936" y2="288.2936"/><ellipse cx="320" cy="302.1936" fill="#84BE84" rx="3" ry="3" style="stroke:#038048;stroke-width:1.0;"/><text fill="#000000" font-family="sans-serif" font-size="14" lengthAdjust="spacing" text-decoration="underline" textLength="173" x="329" y="305.2996">getInstance(): KeyManager</text><ellipse cx="320" cy="318.9935" fill="#84BE84" rx="3" ry="3" style="stroke:#038048;stroke-width:1.0;"/><text fill="#000000" font-family="sans-serif" font-size="14" lengthAdjust="spacing" textLength="90" x="329" y="322.0995">Update(): void</text><ellipse cx="320" cy="335.7934" fill="#84BE84" rx="3" ry="3" style="stroke:#038048;stroke-width:1.0;"/><text fill="#000000" font-family="sans-serif" font-size="14" lengthAdjust="spacing" textLength="178" x="329" y="338.8994">keyPressed(KeyEvent): void</text><ellipse cx="320" cy="352.5934" fill="#84BE84" rx="3" ry="3" style="stroke:#038048;stroke-width:1.0;"/><text fill="#000000" font-family="sans-serif" font-size="14" lengthAdjust="spacing" textLength="186" x="329" y="355.6993">keyReleased(KeyEvent): void</text></g></a><!--class vv.Input.Mouse--><a href="Mouse.html" target="_top" title="Mouse.html" xlink:actuate="onRequest" xlink:href="Mouse.html" xlink:show="new" xlink:title="Mouse.html" xlink:type="simple"><g id="elem_vv.Input.Mouse"><rect codeLine="15" fill="#F1F1F1" height="165.5995" id="vv.Input.Mouse" rx="2.5" ry="2.5" style="stroke:#181818;stroke-width:0.5;" width="252" x="22" y="181.094"/><ellipse cx="122.25" cy="197.094" fill="#ADD1B2" rx="11" ry="11" style="stroke:#181818;stroke-width:1.0;"/><path d="M117.25,198.2502 C117.25,200.7502 119.3906,202.5627 122.3125,202.5627 C123.5469,202.5627 124.7188,202.2659 125.4688,201.7502 C126.0781,201.3284 126.4063,200.9065 126.4063,200.5002 C126.4063,200.0315 125.9844,199.6252 125.4844,199.6252 C125.25,199.6252 125.0313,199.7034 124.8281,199.9065 C124.3906,200.344 124.3906,200.344 124.2188,200.4377 C123.7656,200.6721 123.125,200.8127 122.3594,200.8127 C120.3594,200.8127 119.0781,199.7971 119.0781,198.219 L119.0781,197.1721 C119.0781,195.469 120.2969,194.2659 122,194.2659 C122.5781,194.2659 123.1563,194.4065 123.625,194.6565 C124.0938,194.9221 124.2656,195.1096 124.3281,195.469 C124.4531,196.1409 124.7031,196.3909 125.2344,196.3909 C125.5156,196.3909 125.7969,196.2502 125.9844,196.0315 C126.1094,195.8596 126.1563,195.6877 126.1563,195.2502 L126.1563,193.8909 C126.1563,193.469 126.1406,193.3284 126.0156,193.1565 C125.8438,192.9065 125.5625,192.7502 125.2344,192.7502 C124.9219,192.7502 124.7188,192.8596 124.5,193.1252 C123.3281,192.6252 122.8906,192.5159 121.9375,192.5159 C119.2656,192.5159 117.25,194.5315 117.25,197.1565 L117.25,198.2502 Z " fill="#000000"/><text fill="#000000" font-family="sans-serif" font-size="14" lengthAdjust="spacing" textLength="43" x="142.75" y="201.7">Mouse</text><line style="stroke:#181818;stroke-width:0.5;" x1="23" x2="273" y1="213.094" y2="213.094"/><ellipse cx="33" cy="226.9939" fill="none" rx="3" ry="3" style="stroke:#038048;stroke-width:1.0;"/><text fill="#000000" font-family="sans-serif" font-size="14" lengthAdjust="spacing" text-decoration="underline" textLength="101" x="42" y="230.0999">canvas: Canvas</text><line style="stroke:#181818;stroke-width:0.5;" x1="23" x2="273" y1="237.8939" y2="237.8939"/><ellipse cx="33" cy="251.7939" fill="#84BE84" rx="3" ry="3" style="stroke:#038048;stroke-width:1.0;"/><text fill="#000000" font-family="sans-serif" font-size="14" lengthAdjust="spacing" text-decoration="underline" textLength="162" x="42" y="254.8999">addMouseListener(): void</text><ellipse cx="33" cy="268.5938" fill="#84BE84" rx="3" ry="3" style="stroke:#038048;stroke-width:1.0;"/><text fill="#000000" font-family="sans-serif" font-size="14" lengthAdjust="spacing" textLength="218" x="42" y="271.6998">mousePressed(MouseEvent): void</text><ellipse cx="33" cy="285.3937" fill="#84BE84" rx="3" ry="3" style="stroke:#038048;stroke-width:1.0;"/><text fill="#000000" font-family="sans-serif" font-size="14" lengthAdjust="spacing" textLength="226" x="42" y="288.4997">mouseReleased(MouseEvent): void</text><ellipse cx="33" cy="302.1937" fill="#84BE84" rx="3" ry="3" style="stroke:#038048;stroke-width:1.0;"/><text fill="#000000" font-family="sans-serif" font-size="14" lengthAdjust="spacing" text-decoration="underline" textLength="187" x="42" y="305.2996">isButtonPressed(int): boolean</text><ellipse cx="33" cy="318.9936" fill="#84BE84" rx="3" ry="3" style="stroke:#038048;stroke-width:1.0;"/><text fill="#000000" font-family="sans-serif" font-size="14" lengthAdjust="spacing" text-decoration="underline" textLength="181" x="42" y="322.0996">isButtonClicked(int): boolean</text><ellipse cx="33" cy="335.7935" fill="#84BE84" rx="3" ry="3" style="stroke:#038048;stroke-width:1.0;"/><text fill="#000000" font-family="sans-serif" font-size="14" lengthAdjust="spacing" text-decoration="underline" textLength="120" x="42" y="338.8995">getPosition(): Point</text></g></a><!--class java.awt.event.KeyAdapter--><g id="elem_java.awt.event.KeyAdapter"><rect codeLine="30" fill="#F1F1F1" height="48" id="java.awt.event.KeyAdapter" rx="2.5" ry="2.5" style="stroke:#181818;stroke-width:0.5;" width="106" x="303" y="41.294"/><ellipse cx="318" cy="57.294" fill="#A9DCDF" rx="11" ry="11" style="stroke:#181818;stroke-width:1.0;"/><path d="M319.5313,59.2315 L319.8594,60.0284 L319.5781,60.0284 C319.125,60.0284 319,60.0596 318.8281,60.169 C318.5469,60.3096 318.375,60.6065 318.375,60.9034 C318.375,61.2002 318.5156,61.4502 318.75,61.6221 C318.9219,61.7471 319.1563,61.794 319.5781,61.794 L321.9375,61.794 C322.2969,61.794 322.5469,61.7627 322.6875,61.669 C322.9531,61.5284 323.125,61.2159 323.125,60.9034 C323.125,60.6377 322.9844,60.3721 322.75,60.2002 C322.5625,60.0752 322.4063,60.044 321.9531,60.0284 L318.5625,52.2002 L314.8438,52.2002 C314.3906,52.2002 314.25,52.2159 314.0781,52.3252 C313.8125,52.4971 313.6406,52.7784 313.6406,53.0752 C313.6406,53.3565 313.7813,53.6221 314.0313,53.794 C314.2031,53.919 314.3906,53.9502 314.8438,53.9502 L315.8125,53.9502 L313.2344,60.0284 C312.4844,60.0284 312.0781,60.3252 312.0781,60.9034 C312.0781,61.5127 312.4688,61.794 313.2656,61.794 L315.5313,61.794 C315.8906,61.794 316.1406,61.7627 316.2813,61.669 C316.5469,61.5127 316.7188,61.2159 316.7188,60.9034 C316.7188,60.6377 316.5781,60.3721 316.3438,60.2002 C316.1563,60.0596 316,60.0284 315.5313,60.0284 L315.2344,60.0284 L315.5781,59.2315 L319.5313,59.2315 Z M318.7656,57.4815 L316.3125,57.4815 L317.5469,54.6065 L318.7656,57.4815 Z " fill="#000000"/><text fill="#000000" font-family="sans-serif" font-size="14" font-style="italic" lengthAdjust="spacing" textLength="74" x="332" y="63.244">KeyAdapter</text><line style="stroke:#181818;stroke-width:0.5;" x1="304" x2="408" y1="73.294" y2="73.294"/><line style="stroke:#181818;stroke-width:0.5;" x1="304" x2="408" y1="81.294" y2="81.294"/></g><!--class java.awt.event.MouseAdapter--><g id="elem_java.awt.event.MouseAdapter"><rect codeLine="31" fill="#F1F1F1" height="48" id="java.awt.event.MouseAdapter" rx="2.5" ry="2.5" style="stroke:#181818;stroke-width:0.5;" width="125" x="143.5" y="41.294"/><ellipse cx="158.5" cy="57.294" fill="#A9DCDF" rx="11" ry="11" style="stroke:#181818;stroke-width:1.0;"/><path d="M160.0313,59.2315 L160.3594,60.0284 L160.0781,60.0284 C159.625,60.0284 159.5,60.0596 159.3281,60.169 C159.0469,60.3096 158.875,60.6065 158.875,60.9034 C158.875,61.2002 159.0156,61.4502 159.25,61.6221 C159.4219,61.7471 159.6563,61.794 160.0781,61.794 L162.4375,61.794 C162.7969,61.794 163.0469,61.7627 163.1875,61.669 C163.4531,61.5284 163.625,61.2159 163.625,60.9034 C163.625,60.6377 163.4844,60.3721 163.25,60.2002 C163.0625,60.0752 162.9063,60.044 162.4531,60.0284 L159.0625,52.2002 L155.3438,52.2002 C154.8906,52.2002 154.75,52.2159 154.5781,52.3252 C154.3125,52.4971 154.1406,52.7784 154.1406,53.0752 C154.1406,53.3565 154.2813,53.6221 154.5313,53.794 C154.7031,53.919 154.8906,53.9502 155.3438,53.9502 L156.3125,53.9502 L153.7344,60.0284 C152.9844,60.0284 152.5781,60.3252 152.5781,60.9034 C152.5781,61.5127 152.9688,61.794 153.7656,61.794 L156.0313,61.794 C156.3906,61.794 156.6406,61.7627 156.7813,61.669 C157.0469,61.5127 157.2188,61.2159 157.2188,60.9034 C157.2188,60.6377 157.0781,60.3721 156.8438,60.2002 C156.6563,60.0596 156.5,60.0284 156.0313,60.0284 L155.7344,60.0284 L156.0781,59.2315 L160.0313,59.2315 Z M159.2656,57.4815 L156.8125,57.4815 L158.0469,54.6065 L159.2656,57.4815 Z " fill="#000000"/><text fill="#000000" font-family="sans-serif" font-size="14" font-style="italic" lengthAdjust="spacing" textLength="93" x="172.5" y="63.244">MouseAdapter</text><line style="stroke:#181818;stroke-width:0.5;" x1="144.5" x2="267.5" y1="73.294" y2="73.294"/><line style="stroke:#181818;stroke-width:0.5;" x1="144.5" x2="267.5" y1="81.294" y2="81.294"/></g><!--reverse link java.awt.event.KeyAdapter to vv.Input.KeyManager--><g id="link_java.awt.event.KeyAdapter_vv.Input.KeyManager"><path codeLine="25" d="M369.01,109.634 C373.87,125.844 379.62,144.994 385.37,164.164 " fill="none" id="java.awt.event.KeyAdapter-backto-vv.Input.KeyManager" style="stroke:#181818;stroke-width:1.0;"/><polygon fill="none" points="362.04,111.784,363,90.624,375.45,107.764,362.04,111.784" style="stroke:#181818;stroke-width:1.0;"/></g><!--reverse link java.awt.event.MouseAdapter to vv.Input.Mouse--><g id="link_java.awt.event.MouseAdapter_vv.Input.Mouse"><path codeLine="26" d="M193.18,109.744 C187.01,130.644 179.41,156.424 172.21,180.834 " fill="none" id="java.awt.event.MouseAdapter-backto-vv.Input.Mouse" style="stroke:#181818;stroke-width:1.0;"/><polygon fill="none" points="186.75,107.824,199.12,90.624,200.17,111.784,186.75,107.824" style="stroke:#181818;stroke-width:1.0;"/></g><text fill="#888888" font-family="sans-serif" font-size="10" lengthAdjust="spacing" textLength="179" x="175.5" y="394.784">UMLDoclet 2.1.0, PlantUML 1.2022.14</text><!--SRC=[ZLF1Ri8m3Btp5RvCOc94suvebutjW0PIDOaJuc1IKp9AKZLk4MBy-z88rXOrQBbOYT-p_Mm7043ZZco6ag0inKHd1SEnruFpaIbQ2vzqcA76X79OBEgBsF0kNIuT7XfdK6GZM1cJ4kgs8pPx7N2bjEQ0ArV99kH3oSe4OXuj8ojvWa52FD7kfYNrxqSDDUrWyon6zeZIgBZjsz8XoibQYlkE_b6IvX3kYrmfju2dw_REJ679TTRRxgRMOYJg4kq8nju6G1Z7FjXKMIPDURUeNGMvoFBui32F_PDs6rpNeUnRmMpq9OdoXDlJkd36gPBRVtBSX2DZLRKCbTJ8E59Nlx-nH85x5bJLBjo4NcFCsEtroyzmsBKPLmmllCNnBxr6dlf3jRcDYUBASkvsj_vUvv0XH3DjCvTqSLqXQsCgCvzDturCYU5PF8d71uXIrEnUuQwatFhc_080]--></g></svg>