<?xml version="1.0" encoding="UTF-8" standalone="no"?><svg xmlns="http://www.w3.org/2000/svg" xmlns:xlink="http://www.w3.org/1999/xlink" contentStyleType="text/css" height="405px" preserveAspectRatio="none" style="width:544px;height:405px;background:#FFFFFF;" version="1.1" viewBox="0 0 544 405" width="544px" zoomAndPan="magnify"><defs/><g><!--cluster vv.Input--><g id="cluster_vv.Input"><path d="M8.5,129.294 L65.5,129.294 A3.75,3.75 0 0 1 68,131.794 L75,152.0939 L534.5,152.0939 A2.5,2.5 0 0 1 537,154.5939 L537,376.994 A2.5,2.5 0 0 1 534.5,379.494 L8.5,379.494 A2.5,2.5 0 0 1 6,376.994 L6,131.794 A2.5,2.5 0 0 1 8.5,129.294 " fill="none" style="stroke:#000000;stroke-width:1.5;"/><line style="stroke:#000000;stroke-width:1.5;" x1="6" x2="75" y1="152.0939" y2="152.0939"/><text fill="#000000" font-family="sans-serif" font-size="14" font-weight="bold" lengthAdjust="spacing" textLength="56" x="10" y="144.2999">vv.Input</text></g><!--cluster java.awt.event--><g id="cluster_java.awt.event"><path d="M119.5,6.294 L218.5,6.294 A3.75,3.75 0 0 1 221,8.794 L228,29.0939 L411.5,29.0939 A2.5,2.5 0 0 1 414,31.5939 L414,102.794 A2.5,2.5 0 0 1 411.5,105.294 L119.5,105.294 A2.5,2.5 0 0 1 117,102.794 L117,8.794 A2.5,2.5 0 0 1 119.5,6.294 " fill="none" style="stroke:#000000;stroke-width:1.5;"/><line style="stroke:#000000;stroke-width:1.5;" x1="117" x2="228" y1="29.0939" y2="29.0939"/><text fill="#000000" font-family="sans-serif" font-size="14" font-weight="bold" lengthAdjust="spacing" textLength="98" x="121" y="21.2999">java.awt.event</text></g><!--class vv.Input.Mouse--><a href="Mouse.html" target="_top" title="Mouse.html" xlink:actuate="onRequest" xlink:href="Mouse.html" xlink:show="new" xlink:title="Mouse.html" xlink:type="simple"><g id="elem_vv.Input.Mouse"><rect codeLine="3" fill="#F1F1F1" height="165.5995" id="vv.Input.Mouse" rx="2.5" ry="2.5" style="stroke:#181818;stroke-width:0.5;" width="252" x="269" y="181.094"/><ellipse cx="369.25" cy="197.094" fill="#ADD1B2" rx="11" ry="11" style="stroke:#181818;stroke-width:1.0;"/><path d="M364.25,198.2502 C364.25,200.7502 366.3906,202.5627 369.3125,202.5627 C370.5469,202.5627 371.7188,202.2659 372.4688,201.7502 C373.0781,201.3284 373.4063,200.9065 373.4063,200.5002 C373.4063,200.0315 372.9844,199.6252 372.4844,199.6252 C372.25,199.6252 372.0313,199.7034 371.8281,199.9065 C371.3906,200.344 371.3906,200.344 371.2188,200.4377 C370.7656,200.6721 370.125,200.8127 369.3594,200.8127 C367.3594,200.8127 366.0781,199.7971 366.0781,198.219 L366.0781,197.1721 C366.0781,195.469 367.2969,194.2659 369,194.2659 C369.5781,194.2659 370.1563,194.4065 370.625,194.6565 C371.0938,194.9221 371.2656,195.1096 371.3281,195.469 C371.4531,196.1409 371.7031,196.3909 372.2344,196.3909 C372.5156,196.3909 372.7969,196.2502 372.9844,196.0315 C373.1094,195.8596 373.1563,195.6877 373.1563,195.2502 L373.1563,193.8909 C373.1563,193.469 373.1406,193.3284 373.0156,193.1565 C372.8438,192.9065 372.5625,192.7502 372.2344,192.7502 C371.9219,192.7502 371.7188,192.8596 371.5,193.1252 C370.3281,192.6252 369.8906,192.5159 368.9375,192.5159 C366.2656,192.5159 364.25,194.5315 364.25,197.1565 L364.25,198.2502 Z " fill="#000000"/><text fill="#000000" font-family="sans-serif" font-size="14" lengthAdjust="spacing" textLength="43" x="389.75" y="201.7">Mouse</text><line style="stroke:#181818;stroke-width:0.5;" x1="270" x2="520" y1="213.094" y2="213.094"/><ellipse cx="280" cy="226.9939" fill="none" rx="3" ry="3" style="stroke:#038048;stroke-width:1.0;"/><text fill="#000000" font-family="sans-serif" font-size="14" lengthAdjust="spacing" text-decoration="underline" textLength="101" x="289" y="230.0999">canvas: Canvas</text><line style="stroke:#181818;stroke-width:0.5;" x1="270" x2="520" y1="237.8939" y2="237.8939"/><ellipse cx="280" cy="251.7939" fill="#84BE84" rx="3" ry="3" style="stroke:#038048;stroke-width:1.0;"/><text fill="#000000" font-family="sans-serif" font-size="14" lengthAdjust="spacing" text-decoration="underline" textLength="162" x="289" y="254.8999">addMouseListener(): void</text><ellipse cx="280" cy="268.5938" fill="#84BE84" rx="3" ry="3" style="stroke:#038048;stroke-width:1.0;"/><text fill="#000000" font-family="sans-serif" font-size="14" lengthAdjust="spacing" textLength="218" x="289" y="271.6998">mousePressed(MouseEvent): void</text><ellipse cx="280" cy="285.3937" fill="#84BE84" rx="3" ry="3" style="stroke:#038048;stroke-width:1.0;"/><text fill="#000000" font-family="sans-serif" font-size="14" lengthAdjust="spacing" textLength="226" x="289" y="288.4997">mouseReleased(MouseEvent): void</text><ellipse cx="280" cy="302.1937" fill="#84BE84" rx="3" ry="3" style="stroke:#038048;stroke-width:1.0;"/><text fill="#000000" font-family="sans-serif" font-size="14" lengthAdjust="spacing" text-decoration="underline" textLength="187" x="289" y="305.2996">isButtonPressed(int): boolean</text><ellipse cx="280" cy="318.9936" fill="#84BE84" rx="3" ry="3" style="stroke:#038048;stroke-width:1.0;"/><text fill="#000000" font-family="sans-serif" font-size="14" lengthAdjust="spacing" text-decoration="underline" textLength="181" x="289" y="322.0996">isButtonClicked(int): boolean</text><ellipse cx="280" cy="335.7935" fill="#84BE84" rx="3" ry="3" style="stroke:#038048;stroke-width:1.0;"/><text fill="#000000" font-family="sans-serif" font-size="14" lengthAdjust="spacing" text-decoration="underline" textLength="120" x="289" y="338.8995">getPosition(): Point</text></g></a><!--class vv.Input.KeyManager--><a href="KeyManager.html" target="_top" title="KeyManager.html" xlink:actuate="onRequest" xlink:href="KeyManager.html" xlink:show="new" xlink:title="KeyManager.html" xlink:type="simple"><g id="elem_vv.Input.KeyManager"><rect codeLine="13" fill="#F1F1F1" height="199.1993" id="vv.Input.KeyManager" rx="2.5" ry="2.5" style="stroke:#181818;stroke-width:0.5;" width="212" x="22" y="164.294"/><ellipse cx="83.25" cy="180.294" fill="#ADD1B2" rx="11" ry="11" style="stroke:#181818;stroke-width:1.0;"/><path d="M78.25,181.4502 C78.25,183.9502 80.3906,185.7627 83.3125,185.7627 C84.5469,185.7627 85.7188,185.4659 86.4688,184.9502 C87.0781,184.5284 87.4063,184.1065 87.4063,183.7002 C87.4063,183.2315 86.9844,182.8252 86.4844,182.8252 C86.25,182.8252 86.0313,182.9034 85.8281,183.1065 C85.3906,183.544 85.3906,183.544 85.2188,183.6377 C84.7656,183.8721 84.125,184.0127 83.3594,184.0127 C81.3594,184.0127 80.0781,182.9971 80.0781,181.419 L80.0781,180.3721 C80.0781,178.669 81.2969,177.4659 83,177.4659 C83.5781,177.4659 84.1563,177.6065 84.625,177.8565 C85.0938,178.1221 85.2656,178.3096 85.3281,178.669 C85.4531,179.3409 85.7031,179.5909 86.2344,179.5909 C86.5156,179.5909 86.7969,179.4502 86.9844,179.2315 C87.1094,179.0596 87.1563,178.8877 87.1563,178.4502 L87.1563,177.0909 C87.1563,176.669 87.1406,176.5284 87.0156,176.3565 C86.8438,176.1065 86.5625,175.9502 86.2344,175.9502 C85.9219,175.9502 85.7188,176.0596 85.5,176.3252 C84.3281,175.8252 83.8906,175.7159 82.9375,175.7159 C80.2656,175.7159 78.25,177.7315 78.25,180.3565 L78.25,181.4502 Z " fill="#000000"/><text fill="#000000" font-family="sans-serif" font-size="14" lengthAdjust="spacing" textLength="81" x="103.75" y="184.9">KeyManager</text><line style="stroke:#181818;stroke-width:0.5;" x1="23" x2="233" y1="196.294" y2="196.294"/><ellipse cx="33" cy="210.1939" fill="none" rx="3" ry="3" style="stroke:#038048;stroke-width:1.0;"/><text fill="#000000" font-family="sans-serif" font-size="14" lengthAdjust="spacing" textLength="75" x="42" y="213.2999">up: boolean</text><ellipse cx="33" cy="226.9939" fill="none" rx="3" ry="3" style="stroke:#038048;stroke-width:1.0;"/><text fill="#000000" font-family="sans-serif" font-size="14" lengthAdjust="spacing" textLength="93" x="42" y="230.0999">down: boolean</text><ellipse cx="33" cy="243.7938" fill="none" rx="3" ry="3" style="stroke:#038048;stroke-width:1.0;"/><text fill="#000000" font-family="sans-serif" font-size="14" lengthAdjust="spacing" textLength="78" x="42" y="246.8998">left: boolean</text><ellipse cx="33" cy="260.5937" fill="none" rx="3" ry="3" style="stroke:#038048;stroke-width:1.0;"/><text fill="#000000" font-family="sans-serif" font-size="14" lengthAdjust="spacing" textLength="87" x="42" y="263.6997">right: boolean</text><ellipse cx="33" cy="277.3937" fill="none" rx="3" ry="3" style="stroke:#038048;stroke-width:1.0;"/><text fill="#000000" font-family="sans-serif" font-size="14" lengthAdjust="spacing" textLength="97" x="42" y="280.4996">action: boolean</text><line style="stroke:#181818;stroke-width:0.5;" x1="23" x2="233" y1="288.2936" y2="288.2936"/><ellipse cx="33" cy="302.1936" fill="#84BE84" rx="3" ry="3" style="stroke:#038048;stroke-width:1.0;"/><text fill="#000000" font-family="sans-serif" font-size="14" lengthAdjust="spacing" text-decoration="underline" textLength="173" x="42" y="305.2996">getInstance(): KeyManager</text><ellipse cx="33" cy="318.9935" fill="#84BE84" rx="3" ry="3" style="stroke:#038048;stroke-width:1.0;"/><text fill="#000000" font-family="sans-serif" font-size="14" lengthAdjust="spacing" textLength="90" x="42" y="322.0995">Update(): void</text><ellipse cx="33" cy="335.7934" fill="#84BE84" rx="3" ry="3" style="stroke:#038048;stroke-width:1.0;"/><text fill="#000000" font-family="sans-serif" font-size="14" lengthAdjust="spacing" textLength="178" x="42" y="338.8994">keyPressed(KeyEvent): void</text><ellipse cx="33" cy="352.5934" fill="#84BE84" rx="3" ry="3" style="stroke:#038048;stroke-width:1.0;"/><text fill="#000000" font-family="sans-serif" font-size="14" lengthAdjust="spacing" textLength="186" x="42" y="355.6993">keyReleased(KeyEvent): void</text></g></a><!--class java.awt.event.MouseAdapter--><g id="elem_java.awt.event.MouseAdapter"><rect codeLine="30" fill="#F1F1F1" height="48" id="java.awt.event.MouseAdapter" rx="2.5" ry="2.5" style="stroke:#181818;stroke-width:0.5;" width="125" x="273.5" y="41.294"/><ellipse cx="288.5" cy="57.294" fill="#A9DCDF" rx="11" ry="11" style="stroke:#181818;stroke-width:1.0;"/><path d="M290.0313,59.2315 L290.3594,60.0284 L290.0781,60.0284 C289.625,60.0284 289.5,60.0596 289.3281,60.169 C289.0469,60.3096 288.875,60.6065 288.875,60.9034 C288.875,61.2002 289.0156,61.4502 289.25,61.6221 C289.4219,61.7471 289.6563,61.794 290.0781,61.794 L292.4375,61.794 C292.7969,61.794 293.0469,61.7627 293.1875,61.669 C293.4531,61.5284 293.625,61.2159 293.625,60.9034 C293.625,60.6377 293.4844,60.3721 293.25,60.2002 C293.0625,60.0752 292.9063,60.044 292.4531,60.0284 L289.0625,52.2002 L285.3438,52.2002 C284.8906,52.2002 284.75,52.2159 284.5781,52.3252 C284.3125,52.4971 284.1406,52.7784 284.1406,53.0752 C284.1406,53.3565 284.2813,53.6221 284.5313,53.794 C284.7031,53.919 284.8906,53.9502 285.3438,53.9502 L286.3125,53.9502 L283.7344,60.0284 C282.9844,60.0284 282.5781,60.3252 282.5781,60.9034 C282.5781,61.5127 282.9688,61.794 283.7656,61.794 L286.0313,61.794 C286.3906,61.794 286.6406,61.7627 286.7813,61.669 C287.0469,61.5127 287.2188,61.2159 287.2188,60.9034 C287.2188,60.6377 287.0781,60.3721 286.8438,60.2002 C286.6563,60.0596 286.5,60.0284 286.0313,60.0284 L285.7344,60.0284 L286.0781,59.2315 L290.0313,59.2315 Z M289.2656,57.4815 L286.8125,57.4815 L288.0469,54.6065 L289.2656,57.4815 Z " fill="#000000"/><text fill="#000000" font-family="sans-serif" font-size="14" font-style="italic" lengthAdjust="spacing" textLength="93" x="302.5" y="63.244">MouseAdapter</text><line style="stroke:#181818;stroke-width:0.5;" x1="274.5" x2="397.5" y1="73.294" y2="73.294"/><line style="stroke:#181818;stroke-width:0.5;" x1="274.5" x2="397.5" y1="81.294" y2="81.294"/></g><!--class java.awt.event.KeyAdapter--><g id="elem_java.awt.event.KeyAdapter"><rect codeLine="31" fill="#F1F1F1" height="48" id="java.awt.event.KeyAdapter" rx="2.5" ry="2.5" style="stroke:#181818;stroke-width:0.5;" width="106" x="133" y="41.294"/><ellipse cx="148" cy="57.294" fill="#A9DCDF" rx="11" ry="11" style="stroke:#181818;stroke-width:1.0;"/><path d="M149.5313,59.2315 L149.8594,60.0284 L149.5781,60.0284 C149.125,60.0284 149,60.0596 148.8281,60.169 C148.5469,60.3096 148.375,60.6065 148.375,60.9034 C148.375,61.2002 148.5156,61.4502 148.75,61.6221 C148.9219,61.7471 149.1563,61.794 149.5781,61.794 L151.9375,61.794 C152.2969,61.794 152.5469,61.7627 152.6875,61.669 C152.9531,61.5284 153.125,61.2159 153.125,60.9034 C153.125,60.6377 152.9844,60.3721 152.75,60.2002 C152.5625,60.0752 152.4063,60.044 151.9531,60.0284 L148.5625,52.2002 L144.8438,52.2002 C144.3906,52.2002 144.25,52.2159 144.0781,52.3252 C143.8125,52.4971 143.6406,52.7784 143.6406,53.0752 C143.6406,53.3565 143.7813,53.6221 144.0313,53.794 C144.2031,53.919 144.3906,53.9502 144.8438,53.9502 L145.8125,53.9502 L143.2344,60.0284 C142.4844,60.0284 142.0781,60.3252 142.0781,60.9034 C142.0781,61.5127 142.4688,61.794 143.2656,61.794 L145.5313,61.794 C145.8906,61.794 146.1406,61.7627 146.2813,61.669 C146.5469,61.5127 146.7188,61.2159 146.7188,60.9034 C146.7188,60.6377 146.5781,60.3721 146.3438,60.2002 C146.1563,60.0596 146,60.0284 145.5313,60.0284 L145.2344,60.0284 L145.5781,59.2315 L149.5313,59.2315 Z M148.7656,57.4815 L146.3125,57.4815 L147.5469,54.6065 L148.7656,57.4815 Z " fill="#000000"/><text fill="#000000" font-family="sans-serif" font-size="14" font-style="italic" lengthAdjust="spacing" textLength="74" x="162" y="63.244">KeyAdapter</text><line style="stroke:#181818;stroke-width:0.5;" x1="134" x2="238" y1="73.294" y2="73.294"/><line style="stroke:#181818;stroke-width:0.5;" x1="134" x2="238" y1="81.294" y2="81.294"/></g><!--reverse link java.awt.event.MouseAdapter to vv.Input.Mouse--><g id="link_java.awt.event.MouseAdapter_vv.Input.Mouse"><path codeLine="25" d="M348.94,109.414 C355.23,130.374 363.01,156.294 370.37,180.834 " fill="none" id="java.awt.event.MouseAdapter-backto-vv.Input.Mouse" style="stroke:#181818;stroke-width:1.0;"/><polygon fill="none" points="342.04,111.784,343,90.624,355.45,107.764,342.04,111.784" style="stroke:#181818;stroke-width:1.0;"/></g><!--reverse link java.awt.event.KeyAdapter to vv.Input.KeyManager--><g id="link_java.awt.event.KeyAdapter_vv.Input.KeyManager"><path codeLine="26" d="M173.22,109.634 C168.43,125.844 162.78,144.994 157.13,164.164 " fill="none" id="java.awt.event.KeyAdapter-backto-vv.Input.KeyManager" style="stroke:#181818;stroke-width:1.0;"/><polygon fill="none" points="166.75,107.824,179.12,90.624,180.17,111.784,166.75,107.824" style="stroke:#181818;stroke-width:1.0;"/></g><text fill="#888888" font-family="sans-serif" font-size="10" lengthAdjust="spacing" textLength="179" x="175.5" y="394.784">UMLDoclet 2.1.0, PlantUML 1.2022.14</text><!--SRC=[ZPF1Ri8m38RlF8KlavWwgcr7jCl6Ta03gPh42N4mYO6Ca5IDMuGOxxwq0zeYef6BbVYpdTzE000CRiYbA0YA8XwQD6VOTpfmN4AZSp2skIEOJYiRhtYZPpDFGMFj7IChSO18e2dGzM5GsG24KbR9Hien6Sgwztqeh98jFDgKI9AHSoIx5VzHaE4m-qMQy7-uleToRpcpDQSYgWgOM-lpc7zY1bg9zOqnI-B4EiNAcb9gOdtG6JrSzlkJTcCqkAJCDxtUNEzybAVNgqVIRat0fMd10LUcbgkG3qMfu0QnG-DtHb0fjXRGJZP99J9Td_oQTgUH-F3mr3rtdda8RBJt6mkCSSinbM1SlP9NYIdxJh_yz7f_Bps4-m8j-4BOiKxzeThXZR7Xt77cUzdyNiVC8QQktQmbV5v_cuMrfPcCH-zMQ69uZf_YnmT8D1hsft1NKEQgj_SB]--></g></svg>