<?xml version="1.0" encoding="UTF-8" standalone="no"?><svg xmlns="http://www.w3.org/2000/svg" xmlns:xlink="http://www.w3.org/1999/xlink" contentStyleType="text/css" height="405px" preserveAspectRatio="none" style="width:544px;height:405px;background:#FFFFFF;" version="1.1" viewBox="0 0 544 405" width="544px" zoomAndPan="magnify"><defs/><g><!--cluster VV.Input--><g id="cluster_VV.Input"><path d="M8.5,129.294 L67.5,129.294 A3.75,3.75 0 0 1 70,131.794 L77,152.0939 L534.5,152.0939 A2.5,2.5 0 0 1 537,154.5939 L537,376.794 A2.5,2.5 0 0 1 534.5,379.294 L8.5,379.294 A2.5,2.5 0 0 1 6,376.794 L6,131.794 A2.5,2.5 0 0 1 8.5,129.294 " fill="none" style="stroke:#000000;stroke-width:1.5;"/><line style="stroke:#000000;stroke-width:1.5;" x1="6" x2="77" y1="152.0939" y2="152.0939"/><text fill="#000000" font-family="sans-serif" font-size="14" font-weight="bold" lengthAdjust="spacing" textLength="58" x="10" y="144.2999">VV.Input</text></g><!--cluster java.awt.event--><g id="cluster_java.awt.event"><path d="M129.5,6.294 L228.5,6.294 A3.75,3.75 0 0 1 231,8.794 L238,29.0939 L423.5,29.0939 A2.5,2.5 0 0 1 426,31.5939 L426,102.794 A2.5,2.5 0 0 1 423.5,105.294 L129.5,105.294 A2.5,2.5 0 0 1 127,102.794 L127,8.794 A2.5,2.5 0 0 1 129.5,6.294 " fill="none" style="stroke:#000000;stroke-width:1.5;"/><line style="stroke:#000000;stroke-width:1.5;" x1="127" x2="238" y1="29.0939" y2="29.0939"/><text fill="#000000" font-family="sans-serif" font-size="14" font-weight="bold" lengthAdjust="spacing" textLength="98" x="131" y="21.2999">java.awt.event</text></g><!--class VV.Input.KeyManager--><a href="KeyManager.html" target="_top" title="KeyManager.html" xlink:actuate="onRequest" xlink:href="KeyManager.html" xlink:show="new" xlink:title="KeyManager.html" xlink:type="simple"><g id="elem_VV.Input.KeyManager"><rect codeLine="3" fill="#F1F1F1" height="199.1993" id="VV.Input.KeyManager" rx="2.5" ry="2.5" style="stroke:#181818;stroke-width:0.5;" width="212" x="309" y="164.294"/><ellipse cx="370.25" cy="180.294" fill="#ADD1B2" rx="11" ry="11" style="stroke:#181818;stroke-width:1.0;"/><path d="M365.25,181.4502 C365.25,183.9502 367.3906,185.7627 370.3125,185.7627 C371.5469,185.7627 372.7188,185.4659 373.4688,184.9502 C374.0781,184.5284 374.4063,184.1065 374.4063,183.7002 C374.4063,183.2315 373.9844,182.8252 373.4844,182.8252 C373.25,182.8252 373.0313,182.9034 372.8281,183.1065 C372.3906,183.544 372.3906,183.544 372.2188,183.6377 C371.7656,183.8721 371.125,184.0127 370.3594,184.0127 C368.3594,184.0127 367.0781,182.9971 367.0781,181.419 L367.0781,180.3721 C367.0781,178.669 368.2969,177.4659 370,177.4659 C370.5781,177.4659 371.1563,177.6065 371.625,177.8565 C372.0938,178.1221 372.2656,178.3096 372.3281,178.669 C372.4531,179.3409 372.7031,179.5909 373.2344,179.5909 C373.5156,179.5909 373.7969,179.4502 373.9844,179.2315 C374.1094,179.0596 374.1563,178.8877 374.1563,178.4502 L374.1563,177.0909 C374.1563,176.669 374.1406,176.5284 374.0156,176.3565 C373.8438,176.1065 373.5625,175.9502 373.2344,175.9502 C372.9219,175.9502 372.7188,176.0596 372.5,176.3252 C371.3281,175.8252 370.8906,175.7159 369.9375,175.7159 C367.2656,175.7159 365.25,177.7315 365.25,180.3565 L365.25,181.4502 Z " fill="#000000"/><text fill="#000000" font-family="sans-serif" font-size="14" lengthAdjust="spacing" textLength="81" x="390.75" y="184.9">KeyManager</text><line style="stroke:#181818;stroke-width:0.5;" x1="310" x2="520" y1="196.294" y2="196.294"/><ellipse cx="320" cy="210.1939" fill="none" rx="3" ry="3" style="stroke:#038048;stroke-width:1.0;"/><text fill="#000000" font-family="sans-serif" font-size="14" lengthAdjust="spacing" textLength="75" x="329" y="213.2999">up: boolean</text><ellipse cx="320" cy="226.9939" fill="none" rx="3" ry="3" style="stroke:#038048;stroke-width:1.0;"/><text fill="#000000" font-family="sans-serif" font-size="14" lengthAdjust="spacing" textLength="93" x="329" y="230.0999">down: boolean</text><ellipse cx="320" cy="243.7938" fill="none" rx="3" ry="3" style="stroke:#038048;stroke-width:1.0;"/><text fill="#000000" font-family="sans-serif" font-size="14" lengthAdjust="spacing" textLength="78" x="329" y="246.8998">left: boolean</text><ellipse cx="320" cy="260.5937" fill="none" rx="3" ry="3" style="stroke:#038048;stroke-width:1.0;"/><text fill="#000000" font-family="sans-serif" font-size="14" lengthAdjust="spacing" textLength="87" x="329" y="263.6997">right: boolean</text><ellipse cx="320" cy="277.3937" fill="none" rx="3" ry="3" style="stroke:#038048;stroke-width:1.0;"/><text fill="#000000" font-family="sans-serif" font-size="14" lengthAdjust="spacing" textLength="97" x="329" y="280.4996">action: boolean</text><line style="stroke:#181818;stroke-width:0.5;" x1="310" x2="520" y1="288.2936" y2="288.2936"/><ellipse cx="320" cy="302.1936" fill="#84BE84" rx="3" ry="3" style="stroke:#038048;stroke-width:1.0;"/><text fill="#000000" font-family="sans-serif" font-size="14" lengthAdjust="spacing" text-decoration="underline" textLength="173" x="329" y="305.2996">getInstance(): KeyManager</text><ellipse cx="320" cy="318.9935" fill="#84BE84" rx="3" ry="3" style="stroke:#038048;stroke-width:1.0;"/><text fill="#000000" font-family="sans-serif" font-size="14" lengthAdjust="spacing" textLength="90" x="329" y="322.0995">Update(): void</text><ellipse cx="320" cy="335.7934" fill="#84BE84" rx="3" ry="3" style="stroke:#038048;stroke-width:1.0;"/><text fill="#000000" font-family="sans-serif" font-size="14" lengthAdjust="spacing" textLength="178" x="329" y="338.8994">keyPressed(KeyEvent): void</text><ellipse cx="320" cy="352.5934" fill="#84BE84" rx="3" ry="3" style="stroke:#038048;stroke-width:1.0;"/><text fill="#000000" font-family="sans-serif" font-size="14" lengthAdjust="spacing" textLength="186" x="329" y="355.6993">keyReleased(KeyEvent): void</text></g></a><!--class VV.Input.Mouse--><a href="Mouse.html" target="_top" title="Mouse.html" xlink:actuate="onRequest" xlink:href="Mouse.html" xlink:show="new" xlink:title="Mouse.html" xlink:type="simple"><g id="elem_VV.Input.Mouse"><rect codeLine="15" fill="#F1F1F1" height="165.5995" id="VV.Input.Mouse" rx="2.5" ry="2.5" style="stroke:#181818;stroke-width:0.5;" width="252" x="22" y="180.794"/><ellipse cx="122.25" cy="196.794" fill="#ADD1B2" rx="11" ry="11" style="stroke:#181818;stroke-width:1.0;"/><path d="M117.25,197.9502 C117.25,200.4502 119.3906,202.2627 122.3125,202.2627 C123.5469,202.2627 124.7188,201.9659 125.4688,201.4502 C126.0781,201.0284 126.4063,200.6065 126.4063,200.2002 C126.4063,199.7315 125.9844,199.3252 125.4844,199.3252 C125.25,199.3252 125.0313,199.4034 124.8281,199.6065 C124.3906,200.044 124.3906,200.044 124.2188,200.1377 C123.7656,200.3721 123.125,200.5127 122.3594,200.5127 C120.3594,200.5127 119.0781,199.4971 119.0781,197.919 L119.0781,196.8721 C119.0781,195.169 120.2969,193.9659 122,193.9659 C122.5781,193.9659 123.1563,194.1065 123.625,194.3565 C124.0938,194.6221 124.2656,194.8096 124.3281,195.169 C124.4531,195.8409 124.7031,196.0909 125.2344,196.0909 C125.5156,196.0909 125.7969,195.9502 125.9844,195.7315 C126.1094,195.5596 126.1563,195.3877 126.1563,194.9502 L126.1563,193.5909 C126.1563,193.169 126.1406,193.0284 126.0156,192.8565 C125.8438,192.6065 125.5625,192.4502 125.2344,192.4502 C124.9219,192.4502 124.7188,192.5596 124.5,192.8252 C123.3281,192.3252 122.8906,192.2159 121.9375,192.2159 C119.2656,192.2159 117.25,194.2315 117.25,196.8565 L117.25,197.9502 Z " fill="#000000"/><text fill="#000000" font-family="sans-serif" font-size="14" lengthAdjust="spacing" textLength="43" x="142.75" y="201.4">Mouse</text><line style="stroke:#181818;stroke-width:0.5;" x1="23" x2="273" y1="212.794" y2="212.794"/><ellipse cx="33" cy="226.6939" fill="none" rx="3" ry="3" style="stroke:#038048;stroke-width:1.0;"/><text fill="#000000" font-family="sans-serif" font-size="14" lengthAdjust="spacing" text-decoration="underline" textLength="101" x="42" y="229.7999">canvas: Canvas</text><line style="stroke:#181818;stroke-width:0.5;" x1="23" x2="273" y1="237.5939" y2="237.5939"/><ellipse cx="33" cy="251.4939" fill="#84BE84" rx="3" ry="3" style="stroke:#038048;stroke-width:1.0;"/><text fill="#000000" font-family="sans-serif" font-size="14" lengthAdjust="spacing" text-decoration="underline" textLength="162" x="42" y="254.5999">addMouseListener(): void</text><ellipse cx="33" cy="268.2938" fill="#84BE84" rx="3" ry="3" style="stroke:#038048;stroke-width:1.0;"/><text fill="#000000" font-family="sans-serif" font-size="14" lengthAdjust="spacing" textLength="218" x="42" y="271.3998">mousePressed(MouseEvent): void</text><ellipse cx="33" cy="285.0937" fill="#84BE84" rx="3" ry="3" style="stroke:#038048;stroke-width:1.0;"/><text fill="#000000" font-family="sans-serif" font-size="14" lengthAdjust="spacing" textLength="226" x="42" y="288.1997">mouseReleased(MouseEvent): void</text><ellipse cx="33" cy="301.8937" fill="#84BE84" rx="3" ry="3" style="stroke:#038048;stroke-width:1.0;"/><text fill="#000000" font-family="sans-serif" font-size="14" lengthAdjust="spacing" text-decoration="underline" textLength="187" x="42" y="304.9996">isButtonPressed(int): boolean</text><ellipse cx="33" cy="318.6936" fill="#84BE84" rx="3" ry="3" style="stroke:#038048;stroke-width:1.0;"/><text fill="#000000" font-family="sans-serif" font-size="14" lengthAdjust="spacing" text-decoration="underline" textLength="181" x="42" y="321.7996">isButtonClicked(int): boolean</text><ellipse cx="33" cy="335.4935" fill="#84BE84" rx="3" ry="3" style="stroke:#038048;stroke-width:1.0;"/><text fill="#000000" font-family="sans-serif" font-size="14" lengthAdjust="spacing" text-decoration="underline" textLength="120" x="42" y="338.5995">getPosition(): Point</text></g></a><!--class java.awt.event.KeyAdapter--><g id="elem_java.awt.event.KeyAdapter"><rect codeLine="30" fill="#F1F1F1" height="48" id="java.awt.event.KeyAdapter" rx="2.5" ry="2.5" style="stroke:#181818;stroke-width:0.5;" width="106" x="304" y="41.294"/><ellipse cx="319" cy="57.294" fill="#A9DCDF" rx="11" ry="11" style="stroke:#181818;stroke-width:1.0;"/><path d="M320.5313,59.2315 L320.8594,60.0284 L320.5781,60.0284 C320.125,60.0284 320,60.0596 319.8281,60.169 C319.5469,60.3096 319.375,60.6065 319.375,60.9034 C319.375,61.2002 319.5156,61.4502 319.75,61.6221 C319.9219,61.7471 320.1563,61.794 320.5781,61.794 L322.9375,61.794 C323.2969,61.794 323.5469,61.7627 323.6875,61.669 C323.9531,61.5284 324.125,61.2159 324.125,60.9034 C324.125,60.6377 323.9844,60.3721 323.75,60.2002 C323.5625,60.0752 323.4063,60.044 322.9531,60.0284 L319.5625,52.2002 L315.8438,52.2002 C315.3906,52.2002 315.25,52.2159 315.0781,52.3252 C314.8125,52.4971 314.6406,52.7784 314.6406,53.0752 C314.6406,53.3565 314.7813,53.6221 315.0313,53.794 C315.2031,53.919 315.3906,53.9502 315.8438,53.9502 L316.8125,53.9502 L314.2344,60.0284 C313.4844,60.0284 313.0781,60.3252 313.0781,60.9034 C313.0781,61.5127 313.4688,61.794 314.2656,61.794 L316.5313,61.794 C316.8906,61.794 317.1406,61.7627 317.2813,61.669 C317.5469,61.5127 317.7188,61.2159 317.7188,60.9034 C317.7188,60.6377 317.5781,60.3721 317.3438,60.2002 C317.1563,60.0596 317,60.0284 316.5313,60.0284 L316.2344,60.0284 L316.5781,59.2315 L320.5313,59.2315 Z M319.7656,57.4815 L317.3125,57.4815 L318.5469,54.6065 L319.7656,57.4815 Z " fill="#000000"/><text fill="#000000" font-family="sans-serif" font-size="14" font-style="italic" lengthAdjust="spacing" textLength="74" x="333" y="63.244">KeyAdapter</text><line style="stroke:#181818;stroke-width:0.5;" x1="305" x2="409" y1="73.294" y2="73.294"/><line style="stroke:#181818;stroke-width:0.5;" x1="305" x2="409" y1="81.294" y2="81.294"/></g><!--class java.awt.event.MouseAdapter--><g id="elem_java.awt.event.MouseAdapter"><rect codeLine="31" fill="#F1F1F1" height="48" id="java.awt.event.MouseAdapter" rx="2.5" ry="2.5" style="stroke:#181818;stroke-width:0.5;" width="125" x="143.5" y="41.294"/><ellipse cx="158.5" cy="57.294" fill="#A9DCDF" rx="11" ry="11" style="stroke:#181818;stroke-width:1.0;"/><path d="M160.0313,59.2315 L160.3594,60.0284 L160.0781,60.0284 C159.625,60.0284 159.5,60.0596 159.3281,60.169 C159.0469,60.3096 158.875,60.6065 158.875,60.9034 C158.875,61.2002 159.0156,61.4502 159.25,61.6221 C159.4219,61.7471 159.6563,61.794 160.0781,61.794 L162.4375,61.794 C162.7969,61.794 163.0469,61.7627 163.1875,61.669 C163.4531,61.5284 163.625,61.2159 163.625,60.9034 C163.625,60.6377 163.4844,60.3721 163.25,60.2002 C163.0625,60.0752 162.9063,60.044 162.4531,60.0284 L159.0625,52.2002 L155.3438,52.2002 C154.8906,52.2002 154.75,52.2159 154.5781,52.3252 C154.3125,52.4971 154.1406,52.7784 154.1406,53.0752 C154.1406,53.3565 154.2813,53.6221 154.5313,53.794 C154.7031,53.919 154.8906,53.9502 155.3438,53.9502 L156.3125,53.9502 L153.7344,60.0284 C152.9844,60.0284 152.5781,60.3252 152.5781,60.9034 C152.5781,61.5127 152.9688,61.794 153.7656,61.794 L156.0313,61.794 C156.3906,61.794 156.6406,61.7627 156.7813,61.669 C157.0469,61.5127 157.2188,61.2159 157.2188,60.9034 C157.2188,60.6377 157.0781,60.3721 156.8438,60.2002 C156.6563,60.0596 156.5,60.0284 156.0313,60.0284 L155.7344,60.0284 L156.0781,59.2315 L160.0313,59.2315 Z M159.2656,57.4815 L156.8125,57.4815 L158.0469,54.6065 L159.2656,57.4815 Z " fill="#000000"/><text fill="#000000" font-family="sans-serif" font-size="14" font-style="italic" lengthAdjust="spacing" textLength="93" x="172.5" y="63.244">MouseAdapter</text><line style="stroke:#181818;stroke-width:0.5;" x1="144.5" x2="267.5" y1="73.294" y2="73.294"/><line style="stroke:#181818;stroke-width:0.5;" x1="144.5" x2="267.5" y1="81.294" y2="81.294"/></g><!--reverse link java.awt.event.KeyAdapter to VV.Input.KeyManager--><g id="link_java.awt.event.KeyAdapter_VV.Input.KeyManager"><path codeLine="25" d="M369.78,109.604 C374.57,125.814 380.22,144.954 385.87,164.114 " fill="none" id="java.awt.event.KeyAdapter-backto-VV.Input.KeyManager" style="stroke:#181818;stroke-width:1.0;"/><polygon fill="none" points="362.83,111.774,363.88,90.604,376.26,107.804,362.83,111.774" style="stroke:#181818;stroke-width:1.0;"/></g><!--reverse link java.awt.event.MouseAdapter to VV.Input.Mouse--><g id="link_java.awt.event.MouseAdapter_VV.Input.Mouse"><path codeLine="26" d="M193.21,109.614 C187.08,130.404 179.51,156.024 172.34,180.324 " fill="none" id="java.awt.event.MouseAdapter-backto-VV.Input.Mouse" style="stroke:#181818;stroke-width:1.0;"/><polygon fill="none" points="186.74,107.804,199.12,90.604,200.17,111.774,186.74,107.804" style="stroke:#181818;stroke-width:1.0;"/></g><text fill="#888888" font-family="sans-serif" font-size="10" lengthAdjust="spacing" textLength="179" x="175.5" y="394.584">UMLDoclet 2.1.0, PlantUML 1.2022.14</text><!--SRC=[ZLF1Ri8m3Btp5RvCOc94suvebutjW0PIDGakY8D93MIKf6hS8iJuzwKHh2rgq7An4hzd-zaE08367TaK9S5i9aOwpHcEdGwSZqpGMlYammGrhYc3-RowY0tlaiN2uQ5sUdawWAKn2Q5kEcAprm5NGYiEk3ArteHyA5cPGCoZPMGbJz1R4u-qksb9tVj1JKqps3IDaJsYC2fk-hPqY3AobkAketyKf3c4-o9NoYtWwRgz4vDRSftrjhsfbHY9ka0xWA6t0H36iGysLfP9KzOkQbT2Bh8yFYpCO_-atGPNTIZxbZCRVKcYFE7sj2wSOQBazfySD-78M5KkGoarCexKrkzlB53WdWMLjGiteTSOKtPx_VBJxxTjnXN32szm_4kdbgVwK4rkRQAuj9ovtQs-rpba255FMyybNLnNoCgOqamdutSZ4s9u5a_YyG6Y13MxLxWhABE-ERy0]--></g></svg>