<?xml version="1.0" encoding="UTF-8" standalone="no"?><svg xmlns="http://www.w3.org/2000/svg" xmlns:xlink="http://www.w3.org/1999/xlink" contentStyleType="text/css" height="431px" preserveAspectRatio="none" style="width:699px;height:431px;background:#FFFFFF;" version="1.1" viewBox="0 0 699 431" width="699px" zoomAndPan="magnify"><defs/><g><!--cluster VV.Input--><g id="cluster_VV.Input"><path d="M8.5,138.294 L67.5,138.294 A3.75,3.75 0 0 1 70,140.794 L77,161.0939 L689.5,161.0939 A2.5,2.5 0 0 1 692,163.5939 L692,402.794 A2.5,2.5 0 0 1 689.5,405.294 L8.5,405.294 A2.5,2.5 0 0 1 6,402.794 L6,140.794 A2.5,2.5 0 0 1 8.5,138.294 " fill="none" style="stroke:#000000;stroke-width:1.5;"/><line style="stroke:#000000;stroke-width:1.5;" x1="6" x2="77" y1="161.0939" y2="161.0939"/><text fill="#000000" font-family="sans-serif" font-size="14" font-weight="bold" lengthAdjust="spacing" textLength="58" x="10" y="153.2999">VV.Input</text></g><!--cluster java.awt.event--><g id="cluster_java.awt.event"><path d="M201.5,6.294 L300.5,6.294 A3.75,3.75 0 0 1 303,8.794 L310,29.0939 L495.5,29.0939 A2.5,2.5 0 0 1 498,31.5939 L498,102.794 A2.5,2.5 0 0 1 495.5,105.294 L201.5,105.294 A2.5,2.5 0 0 1 199,102.794 L199,8.794 A2.5,2.5 0 0 1 201.5,6.294 " fill="none" style="stroke:#000000;stroke-width:1.5;"/><line style="stroke:#000000;stroke-width:1.5;" x1="199" x2="310" y1="29.0939" y2="29.0939"/><text fill="#000000" font-family="sans-serif" font-size="14" font-weight="bold" lengthAdjust="spacing" textLength="98" x="203" y="21.2999">java.awt.event</text></g><!--class VV.Input.Mouse--><a href="Mouse.html" target="_top" title="Mouse.html" xlink:actuate="onRequest" xlink:href="Mouse.html" xlink:show="new" xlink:title="Mouse.html" xlink:type="simple"><g id="elem_VV.Input.Mouse"><rect codeLine="3" fill="#F1F1F1" height="182.3994" id="VV.Input.Mouse" rx="2.5" ry="2.5" style="stroke:#181818;stroke-width:0.5;" width="282" x="22" y="190.294"/><ellipse cx="137.25" cy="206.294" fill="#ADD1B2" rx="11" ry="11" style="stroke:#181818;stroke-width:1.0;"/><path d="M132.25,207.4502 C132.25,209.9502 134.3906,211.7627 137.3125,211.7627 C138.5469,211.7627 139.7188,211.4659 140.4688,210.9502 C141.0781,210.5284 141.4063,210.1065 141.4063,209.7002 C141.4063,209.2315 140.9844,208.8252 140.4844,208.8252 C140.25,208.8252 140.0313,208.9034 139.8281,209.1065 C139.3906,209.544 139.3906,209.544 139.2188,209.6377 C138.7656,209.8721 138.125,210.0127 137.3594,210.0127 C135.3594,210.0127 134.0781,208.9971 134.0781,207.419 L134.0781,206.3721 C134.0781,204.669 135.2969,203.4659 137,203.4659 C137.5781,203.4659 138.1563,203.6065 138.625,203.8565 C139.0938,204.1221 139.2656,204.3096 139.3281,204.669 C139.4531,205.3409 139.7031,205.5909 140.2344,205.5909 C140.5156,205.5909 140.7969,205.4502 140.9844,205.2315 C141.1094,205.0596 141.1563,204.8877 141.1563,204.4502 L141.1563,203.0909 C141.1563,202.669 141.1406,202.5284 141.0156,202.3565 C140.8438,202.1065 140.5625,201.9502 140.2344,201.9502 C139.9219,201.9502 139.7188,202.0596 139.5,202.3252 C138.3281,201.8252 137.8906,201.7159 136.9375,201.7159 C134.2656,201.7159 132.25,203.7315 132.25,206.3565 L132.25,207.4502 Z " fill="#000000"/><text fill="#000000" font-family="sans-serif" font-size="14" lengthAdjust="spacing" textLength="43" x="157.75" y="210.9">Mouse</text><line style="stroke:#181818;stroke-width:0.5;" x1="23" x2="303" y1="222.294" y2="222.294"/><ellipse cx="33" cy="236.1939" fill="none" rx="3" ry="3" style="stroke:#038048;stroke-width:1.0;"/><text fill="#000000" font-family="sans-serif" font-size="14" lengthAdjust="spacing" text-decoration="underline" textLength="101" x="42" y="239.2999">canvas: Canvas</text><rect fill="none" height="6" style="stroke:#C82930;stroke-width:1.0;" width="6" x="30" y="249.9939"/><text fill="#000000" font-family="sans-serif" font-size="14" lengthAdjust="spacing" text-decoration="underline" textLength="256" x="42" y="256.0999">pressedButtons: Map&lt;Integer, Boolean&gt;</text><line style="stroke:#181818;stroke-width:0.5;" x1="23" x2="303" y1="263.8938" y2="263.8938"/><ellipse cx="33" cy="277.7938" fill="#84BE84" rx="3" ry="3" style="stroke:#038048;stroke-width:1.0;"/><text fill="#000000" font-family="sans-serif" font-size="14" lengthAdjust="spacing" text-decoration="underline" textLength="162" x="42" y="280.8998">addMouseListener(): void</text><ellipse cx="33" cy="294.5937" fill="#84BE84" rx="3" ry="3" style="stroke:#038048;stroke-width:1.0;"/><text fill="#000000" font-family="sans-serif" font-size="14" lengthAdjust="spacing" textLength="218" x="42" y="297.6997">mousePressed(MouseEvent): void</text><ellipse cx="33" cy="311.3937" fill="#84BE84" rx="3" ry="3" style="stroke:#038048;stroke-width:1.0;"/><text fill="#000000" font-family="sans-serif" font-size="14" lengthAdjust="spacing" textLength="226" x="42" y="314.4996">mouseReleased(MouseEvent): void</text><ellipse cx="33" cy="328.1936" fill="#84BE84" rx="3" ry="3" style="stroke:#038048;stroke-width:1.0;"/><text fill="#000000" font-family="sans-serif" font-size="14" lengthAdjust="spacing" text-decoration="underline" textLength="187" x="42" y="331.2996">isButtonPressed(int): boolean</text><ellipse cx="33" cy="344.9935" fill="#84BE84" rx="3" ry="3" style="stroke:#038048;stroke-width:1.0;"/><text fill="#000000" font-family="sans-serif" font-size="14" lengthAdjust="spacing" text-decoration="underline" textLength="181" x="42" y="348.0995">isButtonClicked(int): boolean</text><ellipse cx="33" cy="361.7934" fill="#84BE84" rx="3" ry="3" style="stroke:#038048;stroke-width:1.0;"/><text fill="#000000" font-family="sans-serif" font-size="14" lengthAdjust="spacing" text-decoration="underline" textLength="120" x="42" y="364.8994">getPosition(): Point</text></g></a><!--class VV.Input.KeyManager--><a href="KeyManager.html" target="_top" title="KeyManager.html" xlink:actuate="onRequest" xlink:href="KeyManager.html" xlink:show="new" xlink:title="KeyManager.html" xlink:type="simple"><g id="elem_VV.Input.KeyManager"><rect codeLine="14" fill="#F1F1F1" height="215.9993" id="VV.Input.KeyManager" rx="2.5" ry="2.5" style="stroke:#181818;stroke-width:0.5;" width="257" x="339.5" y="173.294"/><ellipse cx="423.25" cy="189.294" fill="#ADD1B2" rx="11" ry="11" style="stroke:#181818;stroke-width:1.0;"/><path d="M418.25,190.4502 C418.25,192.9502 420.3906,194.7627 423.3125,194.7627 C424.5469,194.7627 425.7188,194.4659 426.4688,193.9502 C427.0781,193.5284 427.4063,193.1065 427.4063,192.7002 C427.4063,192.2315 426.9844,191.8252 426.4844,191.8252 C426.25,191.8252 426.0313,191.9034 425.8281,192.1065 C425.3906,192.544 425.3906,192.544 425.2188,192.6377 C424.7656,192.8721 424.125,193.0127 423.3594,193.0127 C421.3594,193.0127 420.0781,191.9971 420.0781,190.419 L420.0781,189.3721 C420.0781,187.669 421.2969,186.4659 423,186.4659 C423.5781,186.4659 424.1563,186.6065 424.625,186.8565 C425.0938,187.1221 425.2656,187.3096 425.3281,187.669 C425.4531,188.3409 425.7031,188.5909 426.2344,188.5909 C426.5156,188.5909 426.7969,188.4502 426.9844,188.2315 C427.1094,188.0596 427.1563,187.8877 427.1563,187.4502 L427.1563,186.0909 C427.1563,185.669 427.1406,185.5284 427.0156,185.3565 C426.8438,185.1065 426.5625,184.9502 426.2344,184.9502 C425.9219,184.9502 425.7188,185.0596 425.5,185.3252 C424.3281,184.8252 423.8906,184.7159 422.9375,184.7159 C420.2656,184.7159 418.25,186.7315 418.25,189.3565 L418.25,190.4502 Z " fill="#000000"/><text fill="#000000" font-family="sans-serif" font-size="14" lengthAdjust="spacing" textLength="81" x="443.75" y="193.9">KeyManager</text><line style="stroke:#181818;stroke-width:0.5;" x1="340.5" x2="595.5" y1="205.294" y2="205.294"/><ellipse cx="350.5" cy="219.1939" fill="none" rx="3" ry="3" style="stroke:#038048;stroke-width:1.0;"/><text fill="#000000" font-family="sans-serif" font-size="14" lengthAdjust="spacing" textLength="75" x="359.5" y="222.2999">up: boolean</text><ellipse cx="350.5" cy="235.9939" fill="none" rx="3" ry="3" style="stroke:#038048;stroke-width:1.0;"/><text fill="#000000" font-family="sans-serif" font-size="14" lengthAdjust="spacing" textLength="93" x="359.5" y="239.0999">down: boolean</text><ellipse cx="350.5" cy="252.7938" fill="none" rx="3" ry="3" style="stroke:#038048;stroke-width:1.0;"/><text fill="#000000" font-family="sans-serif" font-size="14" lengthAdjust="spacing" textLength="78" x="359.5" y="255.8998">left: boolean</text><ellipse cx="350.5" cy="269.5937" fill="none" rx="3" ry="3" style="stroke:#038048;stroke-width:1.0;"/><text fill="#000000" font-family="sans-serif" font-size="14" lengthAdjust="spacing" textLength="87" x="359.5" y="272.6997">right: boolean</text><ellipse cx="350.5" cy="286.3937" fill="none" rx="3" ry="3" style="stroke:#038048;stroke-width:1.0;"/><text fill="#000000" font-family="sans-serif" font-size="14" lengthAdjust="spacing" textLength="97" x="359.5" y="289.4996">action: boolean</text><line style="stroke:#181818;stroke-width:0.5;" x1="340.5" x2="595.5" y1="297.2936" y2="297.2936"/><ellipse cx="350.5" cy="311.1936" fill="#84BE84" rx="3" ry="3" style="stroke:#038048;stroke-width:1.0;"/><text fill="#000000" font-family="sans-serif" font-size="14" lengthAdjust="spacing" text-decoration="underline" textLength="173" x="359.5" y="314.2996">getInstance(): KeyManager</text><ellipse cx="350.5" cy="327.9935" fill="#84BE84" rx="3" ry="3" style="stroke:#038048;stroke-width:1.0;"/><text fill="#000000" font-family="sans-serif" font-size="14" lengthAdjust="spacing" textLength="90" x="359.5" y="331.0995">Update(): void</text><rect fill="#F24D5C" height="6" style="stroke:#C82930;stroke-width:1.0;" width="6" x="347.5" y="341.7934"/><text fill="#000000" font-family="sans-serif" font-size="14" lengthAdjust="spacing" textLength="231" x="359.5" y="347.8994">updateKey(KeyEvent, boolean): void</text><ellipse cx="350.5" cy="361.5934" fill="#84BE84" rx="3" ry="3" style="stroke:#038048;stroke-width:1.0;"/><text fill="#000000" font-family="sans-serif" font-size="14" lengthAdjust="spacing" textLength="178" x="359.5" y="364.6993">keyPressed(KeyEvent): void</text><ellipse cx="350.5" cy="378.3933" fill="#84BE84" rx="3" ry="3" style="stroke:#038048;stroke-width:1.0;"/><text fill="#000000" font-family="sans-serif" font-size="14" lengthAdjust="spacing" textLength="186" x="359.5" y="381.4993">keyReleased(KeyEvent): void</text></g></a><!--class java.awt.event.MouseAdapter--><g id="elem_java.awt.event.MouseAdapter"><rect codeLine="33" fill="#F1F1F1" height="48" id="java.awt.event.MouseAdapter" rx="2.5" ry="2.5" style="stroke:#181818;stroke-width:0.5;" width="125" x="215.5" y="41.294"/><ellipse cx="230.5" cy="57.294" fill="#A9DCDF" rx="11" ry="11" style="stroke:#181818;stroke-width:1.0;"/><path d="M232.0313,59.2315 L232.3594,60.0284 L232.0781,60.0284 C231.625,60.0284 231.5,60.0596 231.3281,60.169 C231.0469,60.3096 230.875,60.6065 230.875,60.9034 C230.875,61.2002 231.0156,61.4502 231.25,61.6221 C231.4219,61.7471 231.6563,61.794 232.0781,61.794 L234.4375,61.794 C234.7969,61.794 235.0469,61.7627 235.1875,61.669 C235.4531,61.5284 235.625,61.2159 235.625,60.9034 C235.625,60.6377 235.4844,60.3721 235.25,60.2002 C235.0625,60.0752 234.9063,60.044 234.4531,60.0284 L231.0625,52.2002 L227.3438,52.2002 C226.8906,52.2002 226.75,52.2159 226.5781,52.3252 C226.3125,52.4971 226.1406,52.7784 226.1406,53.0752 C226.1406,53.3565 226.2813,53.6221 226.5313,53.794 C226.7031,53.919 226.8906,53.9502 227.3438,53.9502 L228.3125,53.9502 L225.7344,60.0284 C224.9844,60.0284 224.5781,60.3252 224.5781,60.9034 C224.5781,61.5127 224.9688,61.794 225.7656,61.794 L228.0313,61.794 C228.3906,61.794 228.6406,61.7627 228.7813,61.669 C229.0469,61.5127 229.2188,61.2159 229.2188,60.9034 C229.2188,60.6377 229.0781,60.3721 228.8438,60.2002 C228.6563,60.0596 228.5,60.0284 228.0313,60.0284 L227.7344,60.0284 L228.0781,59.2315 L232.0313,59.2315 Z M231.2656,57.4815 L228.8125,57.4815 L230.0469,54.6065 L231.2656,57.4815 Z " fill="#000000"/><text fill="#000000" font-family="sans-serif" font-size="14" font-style="italic" lengthAdjust="spacing" textLength="93" x="244.5" y="63.244">MouseAdapter</text><line style="stroke:#181818;stroke-width:0.5;" x1="216.5" x2="339.5" y1="73.294" y2="73.294"/><line style="stroke:#181818;stroke-width:0.5;" x1="216.5" x2="339.5" y1="81.294" y2="81.294"/></g><!--class java.awt.event.KeyAdapter--><g id="elem_java.awt.event.KeyAdapter"><rect codeLine="34" fill="#F1F1F1" height="48" id="java.awt.event.KeyAdapter" rx="2.5" ry="2.5" style="stroke:#181818;stroke-width:0.5;" width="106" x="376" y="41.294"/><ellipse cx="391" cy="57.294" fill="#A9DCDF" rx="11" ry="11" style="stroke:#181818;stroke-width:1.0;"/><path d="M392.5313,59.2315 L392.8594,60.0284 L392.5781,60.0284 C392.125,60.0284 392,60.0596 391.8281,60.169 C391.5469,60.3096 391.375,60.6065 391.375,60.9034 C391.375,61.2002 391.5156,61.4502 391.75,61.6221 C391.9219,61.7471 392.1563,61.794 392.5781,61.794 L394.9375,61.794 C395.2969,61.794 395.5469,61.7627 395.6875,61.669 C395.9531,61.5284 396.125,61.2159 396.125,60.9034 C396.125,60.6377 395.9844,60.3721 395.75,60.2002 C395.5625,60.0752 395.4063,60.044 394.9531,60.0284 L391.5625,52.2002 L387.8438,52.2002 C387.3906,52.2002 387.25,52.2159 387.0781,52.3252 C386.8125,52.4971 386.6406,52.7784 386.6406,53.0752 C386.6406,53.3565 386.7813,53.6221 387.0313,53.794 C387.2031,53.919 387.3906,53.9502 387.8438,53.9502 L388.8125,53.9502 L386.2344,60.0284 C385.4844,60.0284 385.0781,60.3252 385.0781,60.9034 C385.0781,61.5127 385.4688,61.794 386.2656,61.794 L388.5313,61.794 C388.8906,61.794 389.1406,61.7627 389.2813,61.669 C389.5469,61.5127 389.7188,61.2159 389.7188,60.9034 C389.7188,60.6377 389.5781,60.3721 389.3438,60.2002 C389.1563,60.0596 389,60.0284 388.5313,60.0284 L388.2344,60.0284 L388.5781,59.2315 L392.5313,59.2315 Z M391.7656,57.4815 L389.3125,57.4815 L390.5469,54.6065 L391.7656,57.4815 Z " fill="#000000"/><text fill="#000000" font-family="sans-serif" font-size="14" font-style="italic" lengthAdjust="spacing" textLength="74" x="405" y="63.244">KeyAdapter</text><line style="stroke:#181818;stroke-width:0.5;" x1="377" x2="481" y1="73.294" y2="73.294"/><line style="stroke:#181818;stroke-width:0.5;" x1="377" x2="481" y1="81.294" y2="81.294"/></g><!--reverse link java.awt.event.MouseAdapter to VV.Input.Mouse--><g id="link_java.awt.event.MouseAdapter_VV.Input.Mouse"><path codeLine="27" d="M255.65,107.884 C243.05,131.334 226.79,161.594 211.42,190.194 " fill="none" id="java.awt.event.MouseAdapter-backto-VV.Input.Mouse" style="stroke:#181818;stroke-width:1.0;"/><polygon fill="none" points="249.84,104.904,265.47,90.604,262.17,111.534,249.84,104.904" style="stroke:#181818;stroke-width:1.0;"/></g><!--reverse link java.awt.event.KeyAdapter to VV.Input.KeyManager--><g id="link_java.awt.event.KeyAdapter_VV.Input.KeyManager"><path codeLine="28" d="M436.99,110.124 C440.33,128.444 444.37,150.614 448.41,172.814 " fill="none" id="java.awt.event.KeyAdapter-backto-VV.Input.KeyManager" style="stroke:#181818;stroke-width:1.0;"/><polygon fill="none" points="429.95,111.534,433.25,90.604,443.72,109.024,429.95,111.534" style="stroke:#181818;stroke-width:1.0;"/></g><!--link VV.Input.KeyManager to VV.Input.KeyManager--><g id="link_VV.Input.KeyManager_VV.Input.KeyManager"><path codeLine="29" d="M596.86,253.754 C617.42,257.784 631.5,266.964 631.5,281.294 C631.5,294.284 619.94,303.034 602.46,307.564 " fill="none" id="VV.Input.KeyManager-to-VV.Input.KeyManager" style="stroke:#181818;stroke-width:1.0;"/><polygon fill="#181818" points="597.86,308.834,607.52,310.7534,602.7372,307.7327,605.7579,302.9499,597.86,308.834" style="stroke:#181818;stroke-width:1.0;"/><text fill="#000000" font-family="sans-serif" font-size="13" lengthAdjust="spacing" textLength="49" x="637.5" y="285.871">instance</text></g><text fill="#888888" font-family="sans-serif" font-size="10" lengthAdjust="spacing" textLength="179" x="253.25" y="420.584">UMLDoclet 2.1.0, PlantUML 1.2022.14</text><!--SRC=[ZLDHQy8m47xtLzpBm55RjZsA29lRWso23BONyU5CJysiIMck7UBstvUcQjlHi0LAIE-xVD_bkmC0KBWdaw8WU7-FfYhD6Owz7foMID0OcEdS42mMRe-sl4-MIuk2nZeQHfRY6mA1ga0pX8dRkq5Xcf4n53_ap5fPy0pJqLGnRIWRm8FM2Q4QUmWmZfsG5scO56Nzwo4KMiOjUB0l8VEAfk_mJmKfzcDVoPB-3QvrI5F9FvD8bx2gnF-HCqcasFqpPqCyrqQorAeiTQvjqWNw_TkhPphCKA5zI6jOVUXsBSZJRlOWrf_A4qfepPvG9ZTRNmn5MS4_YfqgUrA2ocBh0jgNlQKnCdKw7-OkPZFxzdC-3iwadUxlw72sy9pWmrrwn0TisF611KRuoH6LmCXrrNsCALjdHbzXM4sL3su9Mk2EXsWu7ORZnd48ylI4lOQcUj3RL8sMm9NXpFhK7FkJ2X-crjda4lPUAskjTRczpLuUjKY8uIwwZMu6C4zGiVqBLmLbnlNr3m00]--></g></svg>