<?xml version="1.0" encoding="UTF-8" standalone="no"?><svg xmlns="http://www.w3.org/2000/svg" xmlns:xlink="http://www.w3.org/1999/xlink" contentStyleType="text/css" height="164px" preserveAspectRatio="none" style="width:217px;height:164px;background:#FFFFFF;" version="1.1" viewBox="0 0 217 164" width="217px" zoomAndPan="magnify"><defs/><g><!--cluster vv.Database--><g id="cluster_vv.Database"><path d="M8.5,6.294 L93.5,6.294 A3.75,3.75 0 0 1 96,8.794 L103,29.0939 L207.5,29.0939 A2.5,2.5 0 0 1 210,31.5939 L210,136.394 A2.5,2.5 0 0 1 207.5,138.894 L8.5,138.894 A2.5,2.5 0 0 1 6,136.394 L6,8.794 A2.5,2.5 0 0 1 8.5,6.294 " fill="none" style="stroke:#000000;stroke-width:1.5;"/><line style="stroke:#000000;stroke-width:1.5;" x1="6" x2="103" y1="29.0939" y2="29.0939"/><text fill="#000000" font-family="sans-serif" font-size="14" font-weight="bold" lengthAdjust="spacing" textLength="84" x="10" y="21.2999">vv.Database</text></g><!--class vv.Database.Database--><a href="Database.html" target="_top" title="Database.html" xlink:actuate="onRequest" xlink:href="Database.html" xlink:show="new" xlink:title="Database.html" xlink:type="simple"><g id="elem_vv.Database.Database"><rect codeLine="3" fill="#F1F1F1" height="81.5999" id="vv.Database.Database" rx="2.5" ry="2.5" style="stroke:#181818;stroke-width:0.5;" width="172" x="22" y="41.294"/><ellipse cx="73.25" cy="57.294" fill="#ADD1B2" rx="11" ry="11" style="stroke:#181818;stroke-width:1.0;"/><path d="M68.25,58.4502 C68.25,60.9502 70.3906,62.7627 73.3125,62.7627 C74.5469,62.7627 75.7188,62.4659 76.4688,61.9502 C77.0781,61.5284 77.4063,61.1065 77.4063,60.7002 C77.4063,60.2315 76.9844,59.8252 76.4844,59.8252 C76.25,59.8252 76.0313,59.9034 75.8281,60.1065 C75.3906,60.544 75.3906,60.544 75.2188,60.6377 C74.7656,60.8721 74.125,61.0127 73.3594,61.0127 C71.3594,61.0127 70.0781,59.9971 70.0781,58.419 L70.0781,57.3721 C70.0781,55.669 71.2969,54.4659 73,54.4659 C73.5781,54.4659 74.1563,54.6065 74.625,54.8565 C75.0938,55.1221 75.2656,55.3096 75.3281,55.669 C75.4531,56.3409 75.7031,56.5909 76.2344,56.5909 C76.5156,56.5909 76.7969,56.4502 76.9844,56.2315 C77.1094,56.0596 77.1563,55.8877 77.1563,55.4502 L77.1563,54.0909 C77.1563,53.669 77.1406,53.5284 77.0156,53.3565 C76.8438,53.1065 76.5625,52.9502 76.2344,52.9502 C75.9219,52.9502 75.7188,53.0596 75.5,53.3252 C74.3281,52.8252 73.8906,52.7159 72.9375,52.7159 C70.2656,52.7159 68.25,54.7315 68.25,57.3565 L68.25,58.4502 Z " fill="#000000"/><text fill="#000000" font-family="sans-serif" font-size="14" lengthAdjust="spacing" textLength="61" x="93.75" y="61.9">Database</text><line style="stroke:#181818;stroke-width:0.5;" x1="23" x2="193" y1="73.294" y2="73.294"/><line style="stroke:#181818;stroke-width:0.5;" x1="23" x2="193" y1="81.294" y2="81.294"/><ellipse cx="33" cy="95.1939" fill="#84BE84" rx="3" ry="3" style="stroke:#038048;stroke-width:1.0;"/><text fill="#000000" font-family="sans-serif" font-size="14" lengthAdjust="spacing" text-decoration="underline" textLength="146" x="42" y="98.2999">put(String, String): void</text><ellipse cx="33" cy="111.9939" fill="#84BE84" rx="3" ry="3" style="stroke:#038048;stroke-width:1.0;"/><text fill="#000000" font-family="sans-serif" font-size="14" lengthAdjust="spacing" text-decoration="underline" textLength="112" x="42" y="115.0999">get(String): String</text></g></a><text fill="#888888" font-family="sans-serif" font-size="10" lengthAdjust="spacing" textLength="179" x="12" y="154.184">UMLDoclet 2.1.0, PlantUML 1.2022.14</text><!--SRC=[TOuz2y9044Jx_8ffX0J3ePRMAHK4iGefrdED1vUxa5kl2VdlHlA1ZTEyOVOL2m2E6WujQKQCgY2XEmL6doIOeos5WFLIbajLBsbiLOqkVj878J5wmBPzItgLphWwnyJiYEZDuuzVy-AFtbHMSvZ-cQ7P2NTuUl_5xNmglBOiEAYzskMuM78ohjX4xeBnBiq-]--></g></svg>