<?xml version="1.0" encoding="UTF-8" standalone="no"?><svg xmlns="http://www.w3.org/2000/svg" xmlns:xlink="http://www.w3.org/1999/xlink" contentStyleType="text/css" height="181px" preserveAspectRatio="none" style="width:478px;height:181px;background:#FFFFFF;" version="1.1" viewBox="0 0 478 181" width="478px" zoomAndPan="magnify"><defs/><g><!--cluster VV.Menus--><g id="cluster_VV.Menus"><path d="M8.5,6.294 L77.5,6.294 A3.75,3.75 0 0 1 80,8.794 L87,29.0939 L468.5,29.0939 A2.5,2.5 0 0 1 471,31.5939 L471,152.794 A2.5,2.5 0 0 1 468.5,155.294 L8.5,155.294 A2.5,2.5 0 0 1 6,152.794 L6,8.794 A2.5,2.5 0 0 1 8.5,6.294 " fill="none" style="stroke:#000000;stroke-width:1.5;"/><line style="stroke:#000000;stroke-width:1.5;" x1="6" x2="87" y1="29.0939" y2="29.0939"/><text fill="#000000" font-family="sans-serif" font-size="14" font-weight="bold" lengthAdjust="spacing" textLength="68" x="10" y="21.2999">VV.Menus</text></g><!--class VV.Menus.MainMenu--><a href="MainMenu.html" target="_top" title="MainMenu.html" xlink:actuate="onRequest" xlink:href="MainMenu.html" xlink:show="new" xlink:title="MainMenu.html" xlink:type="simple"><g id="elem_VV.Menus.MainMenu"><rect codeLine="3" fill="#F1F1F1" height="98.3998" id="VV.Menus.MainMenu" rx="2.5" ry="2.5" style="stroke:#181818;stroke-width:0.5;" width="168" x="287" y="41.294"/><ellipse cx="333.25" cy="57.294" fill="#ADD1B2" rx="11" ry="11" style="stroke:#181818;stroke-width:1.0;"/><path d="M328.25,58.4502 C328.25,60.9502 330.3906,62.7627 333.3125,62.7627 C334.5469,62.7627 335.7188,62.4659 336.4688,61.9502 C337.0781,61.5284 337.4063,61.1065 337.4063,60.7002 C337.4063,60.2315 336.9844,59.8252 336.4844,59.8252 C336.25,59.8252 336.0313,59.9034 335.8281,60.1065 C335.3906,60.544 335.3906,60.544 335.2188,60.6377 C334.7656,60.8721 334.125,61.0127 333.3594,61.0127 C331.3594,61.0127 330.0781,59.9971 330.0781,58.419 L330.0781,57.3721 C330.0781,55.669 331.2969,54.4659 333,54.4659 C333.5781,54.4659 334.1563,54.6065 334.625,54.8565 C335.0938,55.1221 335.2656,55.3096 335.3281,55.669 C335.4531,56.3409 335.7031,56.5909 336.2344,56.5909 C336.5156,56.5909 336.7969,56.4502 336.9844,56.2315 C337.1094,56.0596 337.1563,55.8877 337.1563,55.4502 L337.1563,54.0909 C337.1563,53.669 337.1406,53.5284 337.0156,53.3565 C336.8438,53.1065 336.5625,52.9502 336.2344,52.9502 C335.9219,52.9502 335.7188,53.0596 335.5,53.3252 C334.3281,52.8252 333.8906,52.7159 332.9375,52.7159 C330.2656,52.7159 328.25,54.7315 328.25,57.3565 L328.25,58.4502 Z " fill="#000000"/><text fill="#000000" font-family="sans-serif" font-size="14" lengthAdjust="spacing" textLength="67" x="353.75" y="61.9">MainMenu</text><line style="stroke:#181818;stroke-width:0.5;" x1="288" x2="454" y1="73.294" y2="73.294"/><ellipse cx="298" cy="87.1939" fill="none" rx="3" ry="3" style="stroke:#038048;stroke-width:1.0;"/><text fill="#000000" font-family="sans-serif" font-size="14" lengthAdjust="spacing" textLength="142" x="307" y="90.2999">startedGame: boolean</text><line style="stroke:#181818;stroke-width:0.5;" x1="288" x2="454" y1="98.0939" y2="98.0939"/><ellipse cx="298" cy="111.9939" fill="#84BE84" rx="3" ry="3" style="stroke:#038048;stroke-width:1.0;"/><text fill="#000000" font-family="sans-serif" font-size="14" lengthAdjust="spacing" textLength="90" x="307" y="115.0999">Update(): void</text><ellipse cx="298" cy="128.7938" fill="#84BE84" rx="3" ry="3" style="stroke:#038048;stroke-width:1.0;"/><text fill="#000000" font-family="sans-serif" font-size="14" lengthAdjust="spacing" textLength="134" x="307" y="131.8998">Draw(Graphics): void</text></g></a><!--class VV.Menus.Button--><a href="Button.html" target="_top" title="Button.html" xlink:actuate="onRequest" xlink:href="Button.html" xlink:show="new" xlink:title="Button.html" xlink:type="simple"><g id="elem_VV.Menus.Button"><rect codeLine="9" fill="#F1F1F1" height="98.3998" id="VV.Menus.Button" rx="2.5" ry="2.5" style="stroke:#181818;stroke-width:0.5;" width="229" x="22.5" y="41.294"/><ellipse cx="112.25" cy="57.294" fill="#ADD1B2" rx="11" ry="11" style="stroke:#181818;stroke-width:1.0;"/><path d="M107.25,58.4502 C107.25,60.9502 109.3906,62.7627 112.3125,62.7627 C113.5469,62.7627 114.7188,62.4659 115.4688,61.9502 C116.0781,61.5284 116.4063,61.1065 116.4063,60.7002 C116.4063,60.2315 115.9844,59.8252 115.4844,59.8252 C115.25,59.8252 115.0313,59.9034 114.8281,60.1065 C114.3906,60.544 114.3906,60.544 114.2188,60.6377 C113.7656,60.8721 113.125,61.0127 112.3594,61.0127 C110.3594,61.0127 109.0781,59.9971 109.0781,58.419 L109.0781,57.3721 C109.0781,55.669 110.2969,54.4659 112,54.4659 C112.5781,54.4659 113.1563,54.6065 113.625,54.8565 C114.0938,55.1221 114.2656,55.3096 114.3281,55.669 C114.4531,56.3409 114.7031,56.5909 115.2344,56.5909 C115.5156,56.5909 115.7969,56.4502 115.9844,56.2315 C116.1094,56.0596 116.1563,55.8877 116.1563,55.4502 L116.1563,54.0909 C116.1563,53.669 116.1406,53.5284 116.0156,53.3565 C115.8438,53.1065 115.5625,52.9502 115.2344,52.9502 C114.9219,52.9502 114.7188,53.0596 114.5,53.3252 C113.3281,52.8252 112.8906,52.7159 111.9375,52.7159 C109.2656,52.7159 107.25,54.7315 107.25,57.3565 L107.25,58.4502 Z " fill="#000000"/><text fill="#000000" font-family="sans-serif" font-size="14" lengthAdjust="spacing" textLength="41" x="132.75" y="61.9">Button</text><line style="stroke:#181818;stroke-width:0.5;" x1="23.5" x2="250.5" y1="73.294" y2="73.294"/><line style="stroke:#181818;stroke-width:0.5;" x1="23.5" x2="250.5" y1="81.294" y2="81.294"/><ellipse cx="33.5" cy="95.1939" fill="#84BE84" rx="3" ry="3" style="stroke:#038048;stroke-width:1.0;"/><text fill="#000000" font-family="sans-serif" font-size="14" lengthAdjust="spacing" textLength="203" x="42.5" y="98.2999">Button(String, int, int, Runnable)</text><ellipse cx="33.5" cy="111.9939" fill="#84BE84" rx="3" ry="3" style="stroke:#038048;stroke-width:1.0;"/><text fill="#000000" font-family="sans-serif" font-size="14" lengthAdjust="spacing" textLength="90" x="42.5" y="115.0999">Update(): void</text><ellipse cx="33.5" cy="128.7938" fill="#84BE84" rx="3" ry="3" style="stroke:#038048;stroke-width:1.0;"/><text fill="#000000" font-family="sans-serif" font-size="14" lengthAdjust="spacing" textLength="134" x="42.5" y="131.8998">Draw(Graphics): void</text></g></a><text fill="#888888" font-family="sans-serif" font-size="10" lengthAdjust="spacing" textLength="179" x="142.5" y="170.584">UMLDoclet 2.1.0, PlantUML 1.2022.14</text><!--SRC=[hOwnQiD044HxVyKq0OaOuQHq6GnkB30EScDSh4-RwE2q9-vMIX7oxpbX1I91kaonE-mComC0ePPZHuPnFXSbIn_nkLfXad4K8qgoCaQuN7viqMZhhjVKnIyzHgMWNE_JqorktZiccJUghYRbBDzYyBQUPxj07za-KDTO4vUDhoNLIw_g9J7TpHz4zp1xrM3bVGqhEerJBq8tn_d_yatBi2W7l7a_hgeyxBnnh7WkdehD6aT7ekcAXu53j0am_mO0]--></g></svg>