<?xml version="1.0" encoding="UTF-8" standalone="no"?><svg xmlns="http://www.w3.org/2000/svg" xmlns:xlink="http://www.w3.org/1999/xlink" contentStyleType="text/css" height="165px" preserveAspectRatio="none" style="width:205px;height:165px;background:#FFFFFF;" version="1.1" viewBox="0 0 205 165" width="205px" zoomAndPan="magnify"><defs/><g><!--cluster VV.Menus--><g id="cluster_VV.Menus"><path d="M8.5,6.294 L77.5,6.294 A3.75,3.75 0 0 1 80,8.794 L87,29.0939 L195.5,29.0939 A2.5,2.5 0 0 1 198,31.5939 L198,136.794 A2.5,2.5 0 0 1 195.5,139.294 L8.5,139.294 A2.5,2.5 0 0 1 6,136.794 L6,8.794 A2.5,2.5 0 0 1 8.5,6.294 " fill="none" style="stroke:#000000;stroke-width:1.5;"/><line style="stroke:#000000;stroke-width:1.5;" x1="6" x2="87" y1="29.0939" y2="29.0939"/><text fill="#000000" font-family="sans-serif" font-size="14" font-weight="bold" lengthAdjust="spacing" textLength="68" x="10" y="21.2999">VV.Menus</text></g><!--class VV.Menus.MainMenu--><a href="MainMenu.html" target="_top" title="MainMenu.html" xlink:actuate="onRequest" xlink:href="MainMenu.html" xlink:show="new" xlink:title="MainMenu.html" xlink:type="simple"><g id="elem_VV.Menus.MainMenu"><rect codeLine="3" fill="#F1F1F1" height="81.5999" id="VV.Menus.MainMenu" rx="2.5" ry="2.5" style="stroke:#181818;stroke-width:0.5;" width="160" x="22" y="41.294"/><ellipse cx="64.45" cy="57.294" fill="#ADD1B2" rx="11" ry="11" style="stroke:#181818;stroke-width:1.0;"/><path d="M59.45,58.4502 C59.45,60.9502 61.5906,62.7627 64.5125,62.7627 C65.7469,62.7627 66.9188,62.4659 67.6688,61.9502 C68.2781,61.5284 68.6063,61.1065 68.6063,60.7002 C68.6063,60.2315 68.1844,59.8252 67.6844,59.8252 C67.45,59.8252 67.2313,59.9034 67.0281,60.1065 C66.5906,60.544 66.5906,60.544 66.4188,60.6377 C65.9656,60.8721 65.325,61.0127 64.5594,61.0127 C62.5594,61.0127 61.2781,59.9971 61.2781,58.419 L61.2781,57.3721 C61.2781,55.669 62.4969,54.4659 64.2,54.4659 C64.7781,54.4659 65.3563,54.6065 65.825,54.8565 C66.2938,55.1221 66.4656,55.3096 66.5281,55.669 C66.6531,56.3409 66.9031,56.5909 67.4344,56.5909 C67.7156,56.5909 67.9969,56.4502 68.1844,56.2315 C68.3094,56.0596 68.3563,55.8877 68.3563,55.4502 L68.3563,54.0909 C68.3563,53.669 68.3406,53.5284 68.2156,53.3565 C68.0438,53.1065 67.7625,52.9502 67.4344,52.9502 C67.1219,52.9502 66.9188,53.0596 66.7,53.3252 C65.5281,52.8252 65.0906,52.7159 64.1375,52.7159 C61.4656,52.7159 59.45,54.7315 59.45,57.3565 L59.45,58.4502 Z " fill="#000000"/><text fill="#000000" font-family="sans-serif" font-size="14" lengthAdjust="spacing" textLength="67" x="84.55" y="61.9">MainMenu</text><line style="stroke:#181818;stroke-width:0.5;" x1="23" x2="181" y1="73.294" y2="73.294"/><line style="stroke:#181818;stroke-width:0.5;" x1="23" x2="181" y1="81.294" y2="81.294"/><ellipse cx="33" cy="95.1939" fill="#84BE84" rx="3" ry="3" style="stroke:#038048;stroke-width:1.0;"/><text fill="#000000" font-family="sans-serif" font-size="14" lengthAdjust="spacing" textLength="90" x="42" y="98.2999">Update(): void</text><ellipse cx="33" cy="111.9939" fill="#84BE84" rx="3" ry="3" style="stroke:#038048;stroke-width:1.0;"/><text fill="#000000" font-family="sans-serif" font-size="14" lengthAdjust="spacing" textLength="134" x="42" y="115.0999">Draw(Graphics): void</text></g></a><text fill="#888888" font-family="sans-serif" font-size="10" lengthAdjust="spacing" textLength="179" x="6" y="154.584">UMLDoclet 2.1.0, PlantUML 1.2022.14</text><!--SRC=[NOsn2i8m68JtFiKjGeeIrD6vu6AWIxkK3Z_fBmsaIKbY7SHtjyKAwYtVSNTm0E1eu3YIPjIrLEnk4OyimofjAKOeCcwfq3GVA_iqsBQTj_ZIjXexIYpo4oPlkj-k27GNvq1ZRtJyNppVdoiqkyG1L-yNLEfIU6qvuIWFShz3QScbESLcuX2DTo9_0G00]--></g></svg>