<?xml version="1.0" encoding="UTF-8" standalone="no"?><svg xmlns="http://www.w3.org/2000/svg" xmlns:xlink="http://www.w3.org/1999/xlink" contentStyleType="text/css" height="605px" preserveAspectRatio="none" style="width:275px;height:605px;background:#FFFFFF;" version="1.1" viewBox="0 0 275 605" width="275px" zoomAndPan="magnify"><defs/><g><!--cluster VV.Menus--><g id="cluster_VV.Menus"><path d="M8.5,6.294 L77.5,6.294 A3.75,3.75 0 0 1 80,8.794 L87,29.0939 L265.5,29.0939 A2.5,2.5 0 0 1 268,31.5939 L268,576.794 A2.5,2.5 0 0 1 265.5,579.294 L8.5,579.294 A2.5,2.5 0 0 1 6,576.794 L6,8.794 A2.5,2.5 0 0 1 8.5,6.294 " fill="none" style="stroke:#000000;stroke-width:1.5;"/><line style="stroke:#000000;stroke-width:1.5;" x1="6" x2="87" y1="29.0939" y2="29.0939"/><text fill="#000000" font-family="sans-serif" font-size="14" font-weight="bold" lengthAdjust="spacing" textLength="68" x="10" y="21.2999">VV.Menus</text></g><!--class VV.Menus.MainMenu--><a href="MainMenu.html" target="_top" title="MainMenu.html" xlink:actuate="onRequest" xlink:href="MainMenu.html" xlink:show="new" xlink:title="MainMenu.html" xlink:type="simple"><g id="elem_VV.Menus.MainMenu"><rect codeLine="3" fill="#F1F1F1" height="148.7996" id="VV.Menus.MainMenu" rx="2.5" ry="2.5" style="stroke:#181818;stroke-width:0.5;" width="193" x="40.5" y="41.294"/><ellipse cx="99.25" cy="57.294" fill="#ADD1B2" rx="11" ry="11" style="stroke:#181818;stroke-width:1.0;"/><path d="M94.25,58.4502 C94.25,60.9502 96.3906,62.7627 99.3125,62.7627 C100.5469,62.7627 101.7188,62.4659 102.4688,61.9502 C103.0781,61.5284 103.4063,61.1065 103.4063,60.7002 C103.4063,60.2315 102.9844,59.8252 102.4844,59.8252 C102.25,59.8252 102.0313,59.9034 101.8281,60.1065 C101.3906,60.544 101.3906,60.544 101.2188,60.6377 C100.7656,60.8721 100.125,61.0127 99.3594,61.0127 C97.3594,61.0127 96.0781,59.9971 96.0781,58.419 L96.0781,57.3721 C96.0781,55.669 97.2969,54.4659 99,54.4659 C99.5781,54.4659 100.1563,54.6065 100.625,54.8565 C101.0938,55.1221 101.2656,55.3096 101.3281,55.669 C101.4531,56.3409 101.7031,56.5909 102.2344,56.5909 C102.5156,56.5909 102.7969,56.4502 102.9844,56.2315 C103.1094,56.0596 103.1563,55.8877 103.1563,55.4502 L103.1563,54.0909 C103.1563,53.669 103.1406,53.5284 103.0156,53.3565 C102.8438,53.1065 102.5625,52.9502 102.2344,52.9502 C101.9219,52.9502 101.7188,53.0596 101.5,53.3252 C100.3281,52.8252 99.8906,52.7159 98.9375,52.7159 C96.2656,52.7159 94.25,54.7315 94.25,57.3565 L94.25,58.4502 Z " fill="#000000"/><text fill="#000000" font-family="sans-serif" font-size="14" lengthAdjust="spacing" textLength="67" x="119.75" y="61.9">MainMenu</text><line style="stroke:#181818;stroke-width:0.5;" x1="41.5" x2="232.5" y1="73.294" y2="73.294"/><ellipse cx="51.5" cy="87.1939" fill="none" rx="3" ry="3" style="stroke:#038048;stroke-width:1.0;"/><text fill="#000000" font-family="sans-serif" font-size="14" lengthAdjust="spacing" textLength="142" x="60.5" y="90.2999">startedGame: boolean</text><line style="stroke:#181818;stroke-width:0.5;" x1="41.5" x2="232.5" y1="98.0939" y2="98.0939"/><rect fill="#F24D5C" height="6" style="stroke:#C82930;stroke-width:1.0;" width="6" x="48.5" y="108.9939"/><text fill="#000000" font-family="sans-serif" font-size="14" lengthAdjust="spacing" textLength="167" x="60.5" y="115.0999">memoriesBtnAction(): void</text><rect fill="#F24D5C" height="6" style="stroke:#C82930;stroke-width:1.0;" width="6" x="48.5" y="125.7938"/><text fill="#000000" font-family="sans-serif" font-size="14" lengthAdjust="spacing" textLength="150" x="60.5" y="131.8998">optionsBtnAction(): void</text><rect fill="#F24D5C" height="6" style="stroke:#C82930;stroke-width:1.0;" width="6" x="48.5" y="142.5937"/><text fill="#000000" font-family="sans-serif" font-size="14" lengthAdjust="spacing" textLength="127" x="60.5" y="148.6997">quitBtnAction(): void</text><ellipse cx="51.5" cy="162.3937" fill="#84BE84" rx="3" ry="3" style="stroke:#038048;stroke-width:1.0;"/><text fill="#000000" font-family="sans-serif" font-size="14" lengthAdjust="spacing" textLength="90" x="60.5" y="165.4996">Update(): void</text><ellipse cx="51.5" cy="179.1936" fill="#84BE84" rx="3" ry="3" style="stroke:#038048;stroke-width:1.0;"/><text fill="#000000" font-family="sans-serif" font-size="14" lengthAdjust="spacing" textLength="134" x="60.5" y="182.2996">Draw(Graphics): void</text></g></a><!--class VV.Menus.Button--><a href="Button.html" target="_top" title="Button.html" xlink:actuate="onRequest" xlink:href="Button.html" xlink:show="new" xlink:title="Button.html" xlink:type="simple"><g id="elem_VV.Menus.Button"><rect codeLine="12" fill="#F1F1F1" height="232.7992" id="VV.Menus.Button" rx="2.5" ry="2.5" style="stroke:#181818;stroke-width:0.5;" width="229" x="22.5" y="330.294"/><ellipse cx="112.25" cy="346.294" fill="#ADD1B2" rx="11" ry="11" style="stroke:#181818;stroke-width:1.0;"/><path d="M107.25,347.4502 C107.25,349.9502 109.3906,351.7627 112.3125,351.7627 C113.5469,351.7627 114.7188,351.4659 115.4688,350.9502 C116.0781,350.5284 116.4063,350.1065 116.4063,349.7002 C116.4063,349.2315 115.9844,348.8252 115.4844,348.8252 C115.25,348.8252 115.0313,348.9034 114.8281,349.1065 C114.3906,349.544 114.3906,349.544 114.2188,349.6377 C113.7656,349.8721 113.125,350.0127 112.3594,350.0127 C110.3594,350.0127 109.0781,348.9971 109.0781,347.419 L109.0781,346.3721 C109.0781,344.669 110.2969,343.4659 112,343.4659 C112.5781,343.4659 113.1563,343.6065 113.625,343.8565 C114.0938,344.1221 114.2656,344.3096 114.3281,344.669 C114.4531,345.3409 114.7031,345.5909 115.2344,345.5909 C115.5156,345.5909 115.7969,345.4502 115.9844,345.2315 C116.1094,345.0596 116.1563,344.8877 116.1563,344.4502 L116.1563,343.0909 C116.1563,342.669 116.1406,342.5284 116.0156,342.3565 C115.8438,342.1065 115.5625,341.9502 115.2344,341.9502 C114.9219,341.9502 114.7188,342.0596 114.5,342.3252 C113.3281,341.8252 112.8906,341.7159 111.9375,341.7159 C109.2656,341.7159 107.25,343.7315 107.25,346.3565 L107.25,347.4502 Z " fill="#000000"/><text fill="#000000" font-family="sans-serif" font-size="14" lengthAdjust="spacing" textLength="41" x="132.75" y="350.9">Button</text><line style="stroke:#181818;stroke-width:0.5;" x1="23.5" x2="250.5" y1="362.294" y2="362.294"/><polygon fill="none" points="33.5,372.1939,29.5,378.1939,37.5,378.1939" style="stroke:#1963A0;stroke-width:1.0;"/><text fill="#000000" font-family="sans-serif" font-size="14" lengthAdjust="spacing" textLength="30" x="42.5" y="379.2999">x: int</text><polygon fill="none" points="33.5,388.9939,29.5,394.9939,37.5,394.9939" style="stroke:#1963A0;stroke-width:1.0;"/><text fill="#000000" font-family="sans-serif" font-size="14" lengthAdjust="spacing" textLength="30" x="42.5" y="396.0999">y: int</text><polygon fill="none" points="33.5,405.7938,29.5,411.7938,37.5,411.7938" style="stroke:#1963A0;stroke-width:1.0;"/><text fill="#000000" font-family="sans-serif" font-size="14" lengthAdjust="spacing" textLength="56" x="42.5" y="412.8998">width: int</text><polygon fill="none" points="33.5,422.5937,29.5,428.5937,37.5,428.5937" style="stroke:#1963A0;stroke-width:1.0;"/><text fill="#000000" font-family="sans-serif" font-size="14" lengthAdjust="spacing" textLength="62" x="42.5" y="429.6997">height: int</text><polygon fill="none" points="33.5,439.3937,29.5,445.3937,37.5,445.3937" style="stroke:#1963A0;stroke-width:1.0;"/><text fill="#000000" font-family="sans-serif" font-size="14" lengthAdjust="spacing" textLength="68" x="42.5" y="446.4996">text: String</text><polygon fill="none" points="33.5,456.1936,29.5,462.1936,37.5,462.1936" style="stroke:#1963A0;stroke-width:1.0;"/><text fill="#000000" font-family="sans-serif" font-size="14" lengthAdjust="spacing" textLength="113" x="42.5" y="463.2996">onHover: boolean</text><polygon fill="none" points="33.5,472.9935,29.5,478.9935,37.5,478.9935" style="stroke:#1963A0;stroke-width:1.0;"/><text fill="#000000" font-family="sans-serif" font-size="14" lengthAdjust="spacing" textLength="88" x="42.5" y="480.0995">clickCount: int</text><polygon fill="none" points="33.5,489.7934,29.5,495.7934,37.5,495.7934" style="stroke:#1963A0;stroke-width:1.0;"/><text fill="#000000" font-family="sans-serif" font-size="14" lengthAdjust="spacing" textLength="107" x="42.5" y="496.8994">action: Runnable</text><line style="stroke:#181818;stroke-width:0.5;" x1="23.5" x2="250.5" y1="504.6934" y2="504.6934"/><ellipse cx="33.5" cy="518.5934" fill="#84BE84" rx="3" ry="3" style="stroke:#038048;stroke-width:1.0;"/><text fill="#000000" font-family="sans-serif" font-size="14" lengthAdjust="spacing" textLength="203" x="42.5" y="521.6993">Button(String, int, int, Runnable)</text><ellipse cx="33.5" cy="535.3933" fill="#84BE84" rx="3" ry="3" style="stroke:#038048;stroke-width:1.0;"/><text fill="#000000" font-family="sans-serif" font-size="14" lengthAdjust="spacing" textLength="90" x="42.5" y="538.4993">Update(): void</text><ellipse cx="33.5" cy="552.1932" fill="#84BE84" rx="3" ry="3" style="stroke:#038048;stroke-width:1.0;"/><text fill="#000000" font-family="sans-serif" font-size="14" lengthAdjust="spacing" textLength="134" x="42.5" y="555.2992">Draw(Graphics): void</text></g></a><!--link VV.Menus.MainMenu to VV.Menus.Button--><g id="link_VV.Menus.MainMenu_VV.Menus.Button"><path codeLine="26" d="M137,190.624 C137,229.884 137,279.154 137,323.904 " fill="none" id="VV.Menus.MainMenu-to-VV.Menus.Button" style="stroke:#181818;stroke-width:1.0;"/><polygon fill="#181818" points="137,328.904,141,319.904,137,323.904,133,319.904,137,328.904" style="stroke:#181818;stroke-width:1.0;"/><text fill="#000000" font-family="sans-serif" font-size="13" lengthAdjust="spacing" textLength="44" x="154.5" y="233.371">playBtn</text><text fill="#000000" font-family="sans-serif" font-size="13" lengthAdjust="spacing" textLength="77" x="138" y="248.971">memoriesBtn</text><text fill="#000000" font-family="sans-serif" font-size="13" lengthAdjust="spacing" textLength="62" x="145.5" y="264.571">optionsBtn</text><text fill="#000000" font-family="sans-serif" font-size="13" lengthAdjust="spacing" textLength="41" x="156" y="280.171">quitBtn</text><text fill="#000000" font-family="sans-serif" font-size="13" lengthAdjust="spacing" textLength="52" x="150.5" y="295.771">menuBtn</text></g><text fill="#888888" font-family="sans-serif" font-size="10" lengthAdjust="spacing" textLength="179" x="41" y="594.584">UMLDoclet 2.1.0, PlantUML 1.2022.14</text><!--SRC=[hP9FJy904CNlV8gvc42WZNhimKGamOCaHWCNuB1iHxfnErjtf_o9aS_k5WfIij6BUsWdxxrEqryV002975qX9C9a4e-GIWUVhHRKHshX78o4eig2wVGunXddUZxtMJWxNSV2CgP3lpI1XJ4Q1JKIKOwviGfTd-bUiZBKxYImCYfjnanHUN-bFah5lqUwuo8LZ65lOCMwFRIYo9HqbuclImhzajcGPt0OmWHscmGKSLFR1hIrIZaBw1cgPSO1Wt7ZvLUsYfPDnz2ZMQ4D0zz9hUJxWoafj5JioINmKXA9XSOcdyE7jW_lx5LFrvTZlFF_h4zTYwAx6da2XHPR_vzdTDQU6VrqP4Pr4we4bNvedQsLI8mMteofRkFHqy18ZGotyKrytODdBOYz2bSUejiNwHi0]--></g></svg>