<?xml version="1.0" encoding="UTF-8" standalone="no"?><svg xmlns="http://www.w3.org/2000/svg" xmlns:xlink="http://www.w3.org/1999/xlink" contentStyleType="text/css" height="659px" preserveAspectRatio="none" style="width:242px;height:659px;background:#FFFFFF;" version="1.1" viewBox="0 0 242 659" width="242px" zoomAndPan="magnify"><defs/><g><!--class vv.Graphics.Assets--><a href="Assets.html" target="_top" title="Assets.html" xlink:actuate="onRequest" xlink:href="Assets.html" xlink:show="new" xlink:title="Assets.html" xlink:type="simple"><g id="elem_vv.Graphics.Assets"><rect codeLine="5" fill="#F1F1F1" height="625.9974" id="vv.Graphics.Assets" rx="2.5" ry="2.5" style="stroke:#181818;stroke-width:0.5;" width="221" x="7" y="7"/><ellipse cx="86.25" cy="26.4" fill="#ADD1B2" rx="11" ry="11" style="stroke:#181818;stroke-width:1.0;"/><path d="M81.25,27.5562 C81.25,30.0562 83.3906,31.8687 86.3125,31.8687 C87.5469,31.8687 88.7188,31.5718 89.4688,31.0562 C90.0781,30.6343 90.4063,30.2125 90.4063,29.8062 C90.4063,29.3375 89.9844,28.9312 89.4844,28.9312 C89.25,28.9312 89.0313,29.0093 88.8281,29.2125 C88.3906,29.65 88.3906,29.65 88.2188,29.7437 C87.7656,29.9781 87.125,30.1187 86.3594,30.1187 C84.3594,30.1187 83.0781,29.1031 83.0781,27.525 L83.0781,26.4781 C83.0781,24.775 84.2969,23.5718 86,23.5718 C86.5781,23.5718 87.1563,23.7125 87.625,23.9625 C88.0938,24.2281 88.2656,24.4156 88.3281,24.775 C88.4531,25.4468 88.7031,25.6968 89.2344,25.6968 C89.5156,25.6968 89.7969,25.5562 89.9844,25.3375 C90.1094,25.1656 90.1563,24.9937 90.1563,24.5562 L90.1563,23.1968 C90.1563,22.775 90.1406,22.6343 90.0156,22.4625 C89.8438,22.2125 89.5625,22.0562 89.2344,22.0562 C88.9219,22.0562 88.7188,22.1656 88.5,22.4312 C87.3281,21.9312 86.8906,21.8218 85.9375,21.8218 C83.2656,21.8218 81.25,23.8375 81.25,26.4625 L81.25,27.5562 Z " fill="#000000"/><text fill="#000000" font-family="sans-serif" font-size="14" lengthAdjust="spacing" textLength="42" x="112.75" y="25.0059">Assets</text><text fill="#000000" font-family="sans-serif" font-size="10" lengthAdjust="spacing" textLength="54" x="106.75" y="38.0899">vv.Graphics</text><line style="stroke:#181818;stroke-width:0.5;" x1="8" x2="227" y1="45.7999" y2="45.7999"/><ellipse cx="18" cy="59.6999" fill="none" rx="3" ry="3" style="stroke:#038048;stroke-width:1.0;"/><text fill="#000000" font-family="sans-serif" font-size="14" lengthAdjust="spacing" text-decoration="underline" textLength="151" x="27" y="62.8059">bomber: BufferedImage</text><ellipse cx="18" cy="76.4998" fill="none" rx="3" ry="3" style="stroke:#038048;stroke-width:1.0;"/><text fill="#000000" font-family="sans-serif" font-size="14" lengthAdjust="spacing" text-decoration="underline" textLength="137" x="27" y="79.6058">flame: BufferedImage</text><ellipse cx="18" cy="93.2997" fill="none" rx="3" ry="3" style="stroke:#038048;stroke-width:1.0;"/><text fill="#000000" font-family="sans-serif" font-size="14" lengthAdjust="spacing" text-decoration="underline" textLength="195" x="27" y="96.4057">flameProjectile: BufferedImage</text><ellipse cx="18" cy="110.0997" fill="none" rx="3" ry="3" style="stroke:#038048;stroke-width:1.0;"/><text fill="#000000" font-family="sans-serif" font-size="14" lengthAdjust="spacing" text-decoration="underline" textLength="151" x="27" y="113.2056">shadow: BufferedImage</text><ellipse cx="18" cy="126.8996" fill="none" rx="3" ry="3" style="stroke:#038048;stroke-width:1.0;"/><text fill="#000000" font-family="sans-serif" font-size="14" lengthAdjust="spacing" text-decoration="underline" textLength="140" x="27" y="130.0056">wraith: BufferedImage</text><ellipse cx="18" cy="143.6995" fill="none" rx="3" ry="3" style="stroke:#038048;stroke-width:1.0;"/><text fill="#000000" font-family="sans-serif" font-size="14" lengthAdjust="spacing" text-decoration="underline" textLength="170" x="27" y="146.8055">humanLeft: BufferedImage</text><ellipse cx="18" cy="160.4994" fill="none" rx="3" ry="3" style="stroke:#038048;stroke-width:1.0;"/><text fill="#000000" font-family="sans-serif" font-size="14" lengthAdjust="spacing" text-decoration="underline" textLength="179" x="27" y="163.6054">humanRight: BufferedImage</text><ellipse cx="18" cy="177.2994" fill="none" rx="3" ry="3" style="stroke:#038048;stroke-width:1.0;"/><text fill="#000000" font-family="sans-serif" font-size="14" lengthAdjust="spacing" text-decoration="underline" textLength="152" x="27" y="180.4053">invisible: BufferedImage</text><ellipse cx="18" cy="194.0993" fill="none" rx="3" ry="3" style="stroke:#038048;stroke-width:1.0;"/><text fill="#000000" font-family="sans-serif" font-size="14" lengthAdjust="spacing" text-decoration="underline" textLength="160" x="27" y="197.2053">crosshair: BufferedImage</text><ellipse cx="18" cy="210.8992" fill="none" rx="3" ry="3" style="stroke:#038048;stroke-width:1.0;"/><text fill="#000000" font-family="sans-serif" font-size="14" lengthAdjust="spacing" text-decoration="underline" textLength="170" x="27" y="214.0052">demonLeft: BufferedImage</text><ellipse cx="18" cy="227.6991" fill="none" rx="3" ry="3" style="stroke:#038048;stroke-width:1.0;"/><text fill="#000000" font-family="sans-serif" font-size="14" lengthAdjust="spacing" text-decoration="underline" textLength="179" x="27" y="230.8051">demonRight: BufferedImage</text><ellipse cx="18" cy="244.4991" fill="none" rx="3" ry="3" style="stroke:#038048;stroke-width:1.0;"/><text fill="#000000" font-family="sans-serif" font-size="14" lengthAdjust="spacing" text-decoration="underline" textLength="126" x="27" y="247.6051">wall: BufferedImage</text><ellipse cx="18" cy="261.299" fill="none" rx="3" ry="3" style="stroke:#038048;stroke-width:1.0;"/><text fill="#000000" font-family="sans-serif" font-size="14" lengthAdjust="spacing" text-decoration="underline" textLength="137" x="27" y="264.405">water: BufferedImage</text><ellipse cx="18" cy="278.0989" fill="none" rx="3" ry="3" style="stroke:#038048;stroke-width:1.0;"/><text fill="#000000" font-family="sans-serif" font-size="14" lengthAdjust="spacing" text-decoration="underline" textLength="130" x="27" y="281.2049">floor: BufferedImage</text><ellipse cx="18" cy="294.8989" fill="none" rx="3" ry="3" style="stroke:#038048;stroke-width:1.0;"/><text fill="#000000" font-family="sans-serif" font-size="14" lengthAdjust="spacing" text-decoration="underline" textLength="129" x="27" y="298.0048">rock: BufferedImage</text><ellipse cx="18" cy="311.6988" fill="none" rx="3" ry="3" style="stroke:#038048;stroke-width:1.0;"/><text fill="#000000" font-family="sans-serif" font-size="14" lengthAdjust="spacing" text-decoration="underline" textLength="142" x="27" y="314.8048">spikes: BufferedImage</text><ellipse cx="18" cy="328.4987" fill="none" rx="3" ry="3" style="stroke:#038048;stroke-width:1.0;"/><text fill="#000000" font-family="sans-serif" font-size="14" lengthAdjust="spacing" text-decoration="underline" textLength="167" x="27" y="331.6047">wallWinter: BufferedImage</text><ellipse cx="18" cy="345.2986" fill="none" rx="3" ry="3" style="stroke:#038048;stroke-width:1.0;"/><text fill="#000000" font-family="sans-serif" font-size="14" lengthAdjust="spacing" text-decoration="underline" textLength="178" x="27" y="348.4046">waterWinter: BufferedImage</text><ellipse cx="18" cy="362.0986" fill="none" rx="3" ry="3" style="stroke:#038048;stroke-width:1.0;"/><text fill="#000000" font-family="sans-serif" font-size="14" lengthAdjust="spacing" text-decoration="underline" textLength="171" x="27" y="365.2045">floorWinter: BufferedImage</text><ellipse cx="18" cy="378.8985" fill="none" rx="3" ry="3" style="stroke:#038048;stroke-width:1.0;"/><text fill="#000000" font-family="sans-serif" font-size="14" lengthAdjust="spacing" text-decoration="underline" textLength="170" x="27" y="382.0045">rockWinter: BufferedImage</text><ellipse cx="18" cy="395.6984" fill="none" rx="3" ry="3" style="stroke:#038048;stroke-width:1.0;"/><text fill="#000000" font-family="sans-serif" font-size="14" lengthAdjust="spacing" text-decoration="underline" textLength="183" x="27" y="398.8044">spikesWinter: BufferedImage</text><ellipse cx="18" cy="412.4983" fill="none" rx="3" ry="3" style="stroke:#038048;stroke-width:1.0;"/><text fill="#000000" font-family="sans-serif" font-size="14" lengthAdjust="spacing" text-decoration="underline" textLength="175" x="27" y="415.6043">wallBurning: BufferedImage</text><ellipse cx="18" cy="429.2983" fill="none" rx="3" ry="3" style="stroke:#038048;stroke-width:1.0;"/><text fill="#000000" font-family="sans-serif" font-size="14" lengthAdjust="spacing" text-decoration="underline" textLength="186" x="27" y="432.4042">waterBurning: BufferedImage</text><ellipse cx="18" cy="446.0982" fill="none" rx="3" ry="3" style="stroke:#038048;stroke-width:1.0;"/><text fill="#000000" font-family="sans-serif" font-size="14" lengthAdjust="spacing" text-decoration="underline" textLength="179" x="27" y="449.2042">floorBurning: BufferedImage</text><ellipse cx="18" cy="462.8981" fill="none" rx="3" ry="3" style="stroke:#038048;stroke-width:1.0;"/><text fill="#000000" font-family="sans-serif" font-size="14" lengthAdjust="spacing" text-decoration="underline" textLength="178" x="27" y="466.0041">rockBurning: BufferedImage</text><ellipse cx="18" cy="479.698" fill="none" rx="3" ry="3" style="stroke:#038048;stroke-width:1.0;"/><text fill="#000000" font-family="sans-serif" font-size="14" lengthAdjust="spacing" text-decoration="underline" textLength="191" x="27" y="482.804">spikesBurning: BufferedImage</text><ellipse cx="18" cy="496.498" fill="none" rx="3" ry="3" style="stroke:#038048;stroke-width:1.0;"/><text fill="#000000" font-family="sans-serif" font-size="14" lengthAdjust="spacing" text-decoration="underline" textLength="126" x="27" y="499.604">bed: BufferedImage</text><ellipse cx="18" cy="513.2979" fill="none" rx="3" ry="3" style="stroke:#038048;stroke-width:1.0;"/><text fill="#000000" font-family="sans-serif" font-size="14" lengthAdjust="spacing" text-decoration="underline" textLength="167" x="27" y="516.4039">bedWinter: BufferedImage</text><ellipse cx="18" cy="530.0978" fill="none" rx="3" ry="3" style="stroke:#038048;stroke-width:1.0;"/><text fill="#000000" font-family="sans-serif" font-size="14" lengthAdjust="spacing" text-decoration="underline" textLength="175" x="27" y="533.2038">bedBurning: BufferedImage</text><ellipse cx="18" cy="546.8978" fill="none" rx="3" ry="3" style="stroke:#038048;stroke-width:1.0;"/><text fill="#000000" font-family="sans-serif" font-size="14" lengthAdjust="spacing" text-decoration="underline" textLength="131" x="27" y="550.0037">door: BufferedImage</text><ellipse cx="18" cy="563.6977" fill="none" rx="3" ry="3" style="stroke:#038048;stroke-width:1.0;"/><text fill="#000000" font-family="sans-serif" font-size="14" lengthAdjust="spacing" text-decoration="underline" textLength="172" x="27" y="566.8037">doorWinter: BufferedImage</text><ellipse cx="18" cy="580.4976" fill="none" rx="3" ry="3" style="stroke:#038048;stroke-width:1.0;"/><text fill="#000000" font-family="sans-serif" font-size="14" lengthAdjust="spacing" text-decoration="underline" textLength="180" x="27" y="583.6036">doorBurning: BufferedImage</text><ellipse cx="18" cy="597.2975" fill="none" rx="3" ry="3" style="stroke:#038048;stroke-width:1.0;"/><text fill="#000000" font-family="sans-serif" font-size="14" lengthAdjust="spacing" text-decoration="underline" textLength="135" x="27" y="600.4035">black: BufferedImage</text><line style="stroke:#181818;stroke-width:0.5;" x1="8" x2="227" y1="608.1975" y2="608.1975"/><ellipse cx="18" cy="622.0975" fill="#84BE84" rx="3" ry="3" style="stroke:#038048;stroke-width:1.0;"/><text fill="#000000" font-family="sans-serif" font-size="14" lengthAdjust="spacing" text-decoration="underline" textLength="63" x="27" y="625.2034">Init(): void</text></g></a><text fill="#888888" font-family="sans-serif" font-size="10" lengthAdjust="spacing" textLength="179" x="27.5" y="649.2874">UMLDoclet 2.1.0, PlantUML 1.2022.14</text><!--SRC=[bPNVIyCm483V_IkEWR2Xb4ry6Z9m23AOC1JnOVgG9jVbN7wK9ElGiV_TjDk3YB1RNzfUlYJtNP8M021Y0YSinbf8VC5Q195y0ESTNkHcqAGGqDRf2of2e-BVgCMaVGvtSMb4ZD2xY_IDuz7jv3xcyUExEmQ6awOf7eEeDSdO0n7XrtjnW66vF3mKEbdpyG6xRkJssiKa4iazN9NUbXZ6CDrK5GPKCojM-0zNcQp6n1R1Vw9CP1WTeXRARqzpso0ewTEStbZXvbWb9lfCAyrWoJKKgUGOoU1ZjY96KHLQpqosGvd9ReKn72hn5jvx1XQyN3DMkwOrHfx16pbMWfq75-vik73hn6KFPloSZPbkWYEtOWgowSwGJRUARFZWoCPBL2o8MxICikTMh4shpjWCwfoobaPmZiFCKUeFnj1uKbtp_lZnnpOdgBnlRwzFymSlJVwzt1IZOdWD2oDSob6uR314ygu_-040]--></g></svg>