<?xml version="1.0" encoding="UTF-8" standalone="no"?><svg xmlns="http://www.w3.org/2000/svg" xmlns:xlink="http://www.w3.org/1999/xlink" contentStyleType="text/css" height="626px" preserveAspectRatio="none" style="width:238px;height:626px;background:#FFFFFF;" version="1.1" viewBox="0 0 238 626" width="238px" zoomAndPan="magnify"><defs/><g><!--class vv.Graphics.Assets--><a href="Assets.html" target="_top" title="Assets.html" xlink:actuate="onRequest" xlink:href="Assets.html" xlink:show="new" xlink:title="Assets.html" xlink:type="simple"><g id="elem_vv.Graphics.Assets"><rect codeLine="5" fill="#F1F1F1" height="592.3976" id="vv.Graphics.Assets" rx="2.5" ry="2.5" style="stroke:#181818;stroke-width:0.5;" width="217" x="7" y="7"/><ellipse cx="84.25" cy="26.4" fill="#ADD1B2" rx="11" ry="11" style="stroke:#181818;stroke-width:1.0;"/><path d="M79.25,27.5562 C79.25,30.0562 81.3906,31.8687 84.3125,31.8687 C85.5469,31.8687 86.7188,31.5718 87.4688,31.0562 C88.0781,30.6343 88.4063,30.2125 88.4063,29.8062 C88.4063,29.3375 87.9844,28.9312 87.4844,28.9312 C87.25,28.9312 87.0313,29.0093 86.8281,29.2125 C86.3906,29.65 86.3906,29.65 86.2188,29.7437 C85.7656,29.9781 85.125,30.1187 84.3594,30.1187 C82.3594,30.1187 81.0781,29.1031 81.0781,27.525 L81.0781,26.4781 C81.0781,24.775 82.2969,23.5718 84,23.5718 C84.5781,23.5718 85.1563,23.7125 85.625,23.9625 C86.0938,24.2281 86.2656,24.4156 86.3281,24.775 C86.4531,25.4468 86.7031,25.6968 87.2344,25.6968 C87.5156,25.6968 87.7969,25.5562 87.9844,25.3375 C88.1094,25.1656 88.1563,24.9937 88.1563,24.5562 L88.1563,23.1968 C88.1563,22.775 88.1406,22.6343 88.0156,22.4625 C87.8438,22.2125 87.5625,22.0562 87.2344,22.0562 C86.9219,22.0562 86.7188,22.1656 86.5,22.4312 C85.3281,21.9312 84.8906,21.8218 83.9375,21.8218 C81.2656,21.8218 79.25,23.8375 79.25,26.4625 L79.25,27.5562 Z " fill="#000000"/><text fill="#000000" font-family="sans-serif" font-size="14" lengthAdjust="spacing" textLength="42" x="110.75" y="25.0059">Assets</text><text fill="#000000" font-family="sans-serif" font-size="10" lengthAdjust="spacing" textLength="54" x="104.75" y="38.0899">vv.Graphics</text><line style="stroke:#181818;stroke-width:0.5;" x1="8" x2="223" y1="45.7999" y2="45.7999"/><ellipse cx="18" cy="59.6999" fill="none" rx="3" ry="3" style="stroke:#038048;stroke-width:1.0;"/><text fill="#000000" font-family="sans-serif" font-size="14" lengthAdjust="spacing" text-decoration="underline" textLength="151" x="27" y="62.8059">bomber: BufferedImage</text><ellipse cx="18" cy="76.4998" fill="none" rx="3" ry="3" style="stroke:#038048;stroke-width:1.0;"/><text fill="#000000" font-family="sans-serif" font-size="14" lengthAdjust="spacing" text-decoration="underline" textLength="137" x="27" y="79.6058">flame: BufferedImage</text><ellipse cx="18" cy="93.2997" fill="none" rx="3" ry="3" style="stroke:#038048;stroke-width:1.0;"/><text fill="#000000" font-family="sans-serif" font-size="14" lengthAdjust="spacing" text-decoration="underline" textLength="151" x="27" y="96.4057">shadow: BufferedImage</text><ellipse cx="18" cy="110.0997" fill="none" rx="3" ry="3" style="stroke:#038048;stroke-width:1.0;"/><text fill="#000000" font-family="sans-serif" font-size="14" lengthAdjust="spacing" text-decoration="underline" textLength="140" x="27" y="113.2056">wraith: BufferedImage</text><ellipse cx="18" cy="126.8996" fill="none" rx="3" ry="3" style="stroke:#038048;stroke-width:1.0;"/><text fill="#000000" font-family="sans-serif" font-size="14" lengthAdjust="spacing" text-decoration="underline" textLength="170" x="27" y="130.0056">humanLeft: BufferedImage</text><ellipse cx="18" cy="143.6995" fill="none" rx="3" ry="3" style="stroke:#038048;stroke-width:1.0;"/><text fill="#000000" font-family="sans-serif" font-size="14" lengthAdjust="spacing" text-decoration="underline" textLength="179" x="27" y="146.8055">humanRight: BufferedImage</text><ellipse cx="18" cy="160.4994" fill="none" rx="3" ry="3" style="stroke:#038048;stroke-width:1.0;"/><text fill="#000000" font-family="sans-serif" font-size="14" lengthAdjust="spacing" text-decoration="underline" textLength="152" x="27" y="163.6054">invisible: BufferedImage</text><ellipse cx="18" cy="177.2994" fill="none" rx="3" ry="3" style="stroke:#038048;stroke-width:1.0;"/><text fill="#000000" font-family="sans-serif" font-size="14" lengthAdjust="spacing" text-decoration="underline" textLength="170" x="27" y="180.4053">demonLeft: BufferedImage</text><ellipse cx="18" cy="194.0993" fill="none" rx="3" ry="3" style="stroke:#038048;stroke-width:1.0;"/><text fill="#000000" font-family="sans-serif" font-size="14" lengthAdjust="spacing" text-decoration="underline" textLength="179" x="27" y="197.2053">demonRight: BufferedImage</text><ellipse cx="18" cy="210.8992" fill="none" rx="3" ry="3" style="stroke:#038048;stroke-width:1.0;"/><text fill="#000000" font-family="sans-serif" font-size="14" lengthAdjust="spacing" text-decoration="underline" textLength="126" x="27" y="214.0052">wall: BufferedImage</text><ellipse cx="18" cy="227.6991" fill="none" rx="3" ry="3" style="stroke:#038048;stroke-width:1.0;"/><text fill="#000000" font-family="sans-serif" font-size="14" lengthAdjust="spacing" text-decoration="underline" textLength="137" x="27" y="230.8051">water: BufferedImage</text><ellipse cx="18" cy="244.4991" fill="none" rx="3" ry="3" style="stroke:#038048;stroke-width:1.0;"/><text fill="#000000" font-family="sans-serif" font-size="14" lengthAdjust="spacing" text-decoration="underline" textLength="130" x="27" y="247.6051">floor: BufferedImage</text><ellipse cx="18" cy="261.299" fill="none" rx="3" ry="3" style="stroke:#038048;stroke-width:1.0;"/><text fill="#000000" font-family="sans-serif" font-size="14" lengthAdjust="spacing" text-decoration="underline" textLength="129" x="27" y="264.405">rock: BufferedImage</text><ellipse cx="18" cy="278.0989" fill="none" rx="3" ry="3" style="stroke:#038048;stroke-width:1.0;"/><text fill="#000000" font-family="sans-serif" font-size="14" lengthAdjust="spacing" text-decoration="underline" textLength="142" x="27" y="281.2049">spikes: BufferedImage</text><ellipse cx="18" cy="294.8989" fill="none" rx="3" ry="3" style="stroke:#038048;stroke-width:1.0;"/><text fill="#000000" font-family="sans-serif" font-size="14" lengthAdjust="spacing" text-decoration="underline" textLength="167" x="27" y="298.0048">wallWinter: BufferedImage</text><ellipse cx="18" cy="311.6988" fill="none" rx="3" ry="3" style="stroke:#038048;stroke-width:1.0;"/><text fill="#000000" font-family="sans-serif" font-size="14" lengthAdjust="spacing" text-decoration="underline" textLength="178" x="27" y="314.8048">waterWinter: BufferedImage</text><ellipse cx="18" cy="328.4987" fill="none" rx="3" ry="3" style="stroke:#038048;stroke-width:1.0;"/><text fill="#000000" font-family="sans-serif" font-size="14" lengthAdjust="spacing" text-decoration="underline" textLength="171" x="27" y="331.6047">floorWinter: BufferedImage</text><ellipse cx="18" cy="345.2986" fill="none" rx="3" ry="3" style="stroke:#038048;stroke-width:1.0;"/><text fill="#000000" font-family="sans-serif" font-size="14" lengthAdjust="spacing" text-decoration="underline" textLength="170" x="27" y="348.4046">rockWinter: BufferedImage</text><ellipse cx="18" cy="362.0986" fill="none" rx="3" ry="3" style="stroke:#038048;stroke-width:1.0;"/><text fill="#000000" font-family="sans-serif" font-size="14" lengthAdjust="spacing" text-decoration="underline" textLength="183" x="27" y="365.2045">spikesWinter: BufferedImage</text><ellipse cx="18" cy="378.8985" fill="none" rx="3" ry="3" style="stroke:#038048;stroke-width:1.0;"/><text fill="#000000" font-family="sans-serif" font-size="14" lengthAdjust="spacing" text-decoration="underline" textLength="175" x="27" y="382.0045">wallBurning: BufferedImage</text><ellipse cx="18" cy="395.6984" fill="none" rx="3" ry="3" style="stroke:#038048;stroke-width:1.0;"/><text fill="#000000" font-family="sans-serif" font-size="14" lengthAdjust="spacing" text-decoration="underline" textLength="186" x="27" y="398.8044">waterBurning: BufferedImage</text><ellipse cx="18" cy="412.4983" fill="none" rx="3" ry="3" style="stroke:#038048;stroke-width:1.0;"/><text fill="#000000" font-family="sans-serif" font-size="14" lengthAdjust="spacing" text-decoration="underline" textLength="179" x="27" y="415.6043">floorBurning: BufferedImage</text><ellipse cx="18" cy="429.2983" fill="none" rx="3" ry="3" style="stroke:#038048;stroke-width:1.0;"/><text fill="#000000" font-family="sans-serif" font-size="14" lengthAdjust="spacing" text-decoration="underline" textLength="178" x="27" y="432.4042">rockBurning: BufferedImage</text><ellipse cx="18" cy="446.0982" fill="none" rx="3" ry="3" style="stroke:#038048;stroke-width:1.0;"/><text fill="#000000" font-family="sans-serif" font-size="14" lengthAdjust="spacing" text-decoration="underline" textLength="191" x="27" y="449.2042">spikesBurning: BufferedImage</text><ellipse cx="18" cy="462.8981" fill="none" rx="3" ry="3" style="stroke:#038048;stroke-width:1.0;"/><text fill="#000000" font-family="sans-serif" font-size="14" lengthAdjust="spacing" text-decoration="underline" textLength="126" x="27" y="466.0041">bed: BufferedImage</text><ellipse cx="18" cy="479.698" fill="none" rx="3" ry="3" style="stroke:#038048;stroke-width:1.0;"/><text fill="#000000" font-family="sans-serif" font-size="14" lengthAdjust="spacing" text-decoration="underline" textLength="167" x="27" y="482.804">bedWinter: BufferedImage</text><ellipse cx="18" cy="496.498" fill="none" rx="3" ry="3" style="stroke:#038048;stroke-width:1.0;"/><text fill="#000000" font-family="sans-serif" font-size="14" lengthAdjust="spacing" text-decoration="underline" textLength="175" x="27" y="499.604">bedBurning: BufferedImage</text><ellipse cx="18" cy="513.2979" fill="none" rx="3" ry="3" style="stroke:#038048;stroke-width:1.0;"/><text fill="#000000" font-family="sans-serif" font-size="14" lengthAdjust="spacing" text-decoration="underline" textLength="131" x="27" y="516.4039">door: BufferedImage</text><ellipse cx="18" cy="530.0978" fill="none" rx="3" ry="3" style="stroke:#038048;stroke-width:1.0;"/><text fill="#000000" font-family="sans-serif" font-size="14" lengthAdjust="spacing" text-decoration="underline" textLength="172" x="27" y="533.2038">doorWinter: BufferedImage</text><ellipse cx="18" cy="546.8978" fill="none" rx="3" ry="3" style="stroke:#038048;stroke-width:1.0;"/><text fill="#000000" font-family="sans-serif" font-size="14" lengthAdjust="spacing" text-decoration="underline" textLength="180" x="27" y="550.0037">doorBurning: BufferedImage</text><ellipse cx="18" cy="563.6977" fill="none" rx="3" ry="3" style="stroke:#038048;stroke-width:1.0;"/><text fill="#000000" font-family="sans-serif" font-size="14" lengthAdjust="spacing" text-decoration="underline" textLength="135" x="27" y="566.8037">black: BufferedImage</text><line style="stroke:#181818;stroke-width:0.5;" x1="8" x2="223" y1="574.5976" y2="574.5976"/><ellipse cx="18" cy="588.4976" fill="#84BE84" rx="3" ry="3" style="stroke:#038048;stroke-width:1.0;"/><text fill="#000000" font-family="sans-serif" font-size="14" lengthAdjust="spacing" text-decoration="underline" textLength="63" x="27" y="591.6036">Init(): void</text></g></a><text fill="#888888" font-family="sans-serif" font-size="10" lengthAdjust="spacing" textLength="179" x="25.5" y="615.6876">UMLDoclet 2.1.0, PlantUML 1.2022.14</text><!--SRC=[bPLDIyD048Rl_ef145gKq8gd8WMB88KAeeY7siCcE-aEtO-miqtHqlzkFdeG4JhD9Scx3vjvzYi008m9l7B8bIhm3IiLLGeHVF1uqJI38Os0hafVK19QpNzJXyc49kxomYfckBnd-iR9-6xwm4t__EcFmMXQrzbJL9MXWYz1CVnwpteObil-8JF9sTKAzbtFxRNdf18L1xZEWyinJc2sBKkCgETEhV4VhhIDsccCZT9XTvhRHKN9dERCrYc_m389qLTQ6m5BlYQct0gCDBeWhA13XHNibBKIAiac9mG15aEn4KnXHHjacS47UL61dOSKxcoaSEiaPNipUStMphRHaryB1SLqPoYcMqKnt3kAyHor298EMeEAlwr5YrQViHZqESEQMoNP3dDFQJ2SG1r8Tys7um6DRKrGXj3UtfyNZw6mpI_WDXjdenjuiSgd9eMh6YDJy8FX3m00]--></g></svg>