<?xml version="1.0" encoding="UTF-8" standalone="no"?><svg xmlns="http://www.w3.org/2000/svg" xmlns:xlink="http://www.w3.org/1999/xlink" contentStyleType="text/css" height="458px" preserveAspectRatio="none" style="width:533px;height:458px;background:#FFFFFF;" version="1.1" viewBox="0 0 533 458" width="533px" zoomAndPan="magnify"><defs/><g><!--cluster VV.Graphics--><g id="cluster_VV.Graphics"><path d="M8.5,6.294 L93.5,6.294 A3.75,3.75 0 0 1 96,8.794 L103,29.0939 L523.5,29.0939 A2.5,2.5 0 0 1 526,31.5939 L526,429.794 A2.5,2.5 0 0 1 523.5,432.294 L8.5,432.294 A2.5,2.5 0 0 1 6,429.794 L6,8.794 A2.5,2.5 0 0 1 8.5,6.294 " fill="none" style="stroke:#000000;stroke-width:1.5;"/><line style="stroke:#000000;stroke-width:1.5;" x1="6" x2="103" y1="29.0939" y2="29.0939"/><text fill="#000000" font-family="sans-serif" font-size="14" font-weight="bold" lengthAdjust="spacing" textLength="84" x="10" y="21.2999">VV.Graphics</text></g><!--class VV.Graphics.Assets--><a href="Assets.html" target="_top" title="Assets.html" xlink:actuate="onRequest" xlink:href="Assets.html" xlink:show="new" xlink:title="Assets.html" xlink:type="simple"><g id="elem_VV.Graphics.Assets"><rect codeLine="3" fill="#F1F1F1" height="232.7992" id="VV.Graphics.Assets" rx="2.5" ry="2.5" style="stroke:#181818;stroke-width:0.5;" width="205" x="22.5" y="41.294"/><ellipse cx="99.75" cy="57.294" fill="#ADD1B2" rx="11" ry="11" style="stroke:#181818;stroke-width:1.0;"/><path d="M94.75,58.4502 C94.75,60.9502 96.8906,62.7627 99.8125,62.7627 C101.0469,62.7627 102.2188,62.4659 102.9688,61.9502 C103.5781,61.5284 103.9063,61.1065 103.9063,60.7002 C103.9063,60.2315 103.4844,59.8252 102.9844,59.8252 C102.75,59.8252 102.5313,59.9034 102.3281,60.1065 C101.8906,60.544 101.8906,60.544 101.7188,60.6377 C101.2656,60.8721 100.625,61.0127 99.8594,61.0127 C97.8594,61.0127 96.5781,59.9971 96.5781,58.419 L96.5781,57.3721 C96.5781,55.669 97.7969,54.4659 99.5,54.4659 C100.0781,54.4659 100.6563,54.6065 101.125,54.8565 C101.5938,55.1221 101.7656,55.3096 101.8281,55.669 C101.9531,56.3409 102.2031,56.5909 102.7344,56.5909 C103.0156,56.5909 103.2969,56.4502 103.4844,56.2315 C103.6094,56.0596 103.6563,55.8877 103.6563,55.4502 L103.6563,54.0909 C103.6563,53.669 103.6406,53.5284 103.5156,53.3565 C103.3438,53.1065 103.0625,52.9502 102.7344,52.9502 C102.4219,52.9502 102.2188,53.0596 102,53.3252 C100.8281,52.8252 100.3906,52.7159 99.4375,52.7159 C96.7656,52.7159 94.75,54.7315 94.75,57.3565 L94.75,58.4502 Z " fill="#000000"/><text fill="#000000" font-family="sans-serif" font-size="14" lengthAdjust="spacing" textLength="42" x="120.25" y="61.9">Assets</text><line style="stroke:#181818;stroke-width:0.5;" x1="23.5" x2="226.5" y1="73.294" y2="73.294"/><ellipse cx="33.5" cy="87.1939" fill="none" rx="3" ry="3" style="stroke:#038048;stroke-width:1.0;"/><text fill="#000000" font-family="sans-serif" font-size="14" lengthAdjust="spacing" text-decoration="underline" textLength="170" x="42.5" y="90.2999">humanLeft: BufferedImage</text><ellipse cx="33.5" cy="103.9939" fill="none" rx="3" ry="3" style="stroke:#038048;stroke-width:1.0;"/><text fill="#000000" font-family="sans-serif" font-size="14" lengthAdjust="spacing" text-decoration="underline" textLength="179" x="42.5" y="107.0999">humanRight: BufferedImage</text><ellipse cx="33.5" cy="120.7938" fill="none" rx="3" ry="3" style="stroke:#038048;stroke-width:1.0;"/><text fill="#000000" font-family="sans-serif" font-size="14" lengthAdjust="spacing" text-decoration="underline" textLength="170" x="42.5" y="123.8998">demonLeft: BufferedImage</text><ellipse cx="33.5" cy="137.5937" fill="none" rx="3" ry="3" style="stroke:#038048;stroke-width:1.0;"/><text fill="#000000" font-family="sans-serif" font-size="14" lengthAdjust="spacing" text-decoration="underline" textLength="179" x="42.5" y="140.6997">demonRight: BufferedImage</text><ellipse cx="33.5" cy="154.3937" fill="none" rx="3" ry="3" style="stroke:#038048;stroke-width:1.0;"/><text fill="#000000" font-family="sans-serif" font-size="14" lengthAdjust="spacing" text-decoration="underline" textLength="126" x="42.5" y="157.4996">wall: BufferedImage</text><ellipse cx="33.5" cy="171.1936" fill="none" rx="3" ry="3" style="stroke:#038048;stroke-width:1.0;"/><text fill="#000000" font-family="sans-serif" font-size="14" lengthAdjust="spacing" text-decoration="underline" textLength="137" x="42.5" y="174.2996">water: BufferedImage</text><ellipse cx="33.5" cy="187.9935" fill="none" rx="3" ry="3" style="stroke:#038048;stroke-width:1.0;"/><text fill="#000000" font-family="sans-serif" font-size="14" lengthAdjust="spacing" text-decoration="underline" textLength="130" x="42.5" y="191.0995">floor: BufferedImage</text><ellipse cx="33.5" cy="204.7934" fill="none" rx="3" ry="3" style="stroke:#038048;stroke-width:1.0;"/><text fill="#000000" font-family="sans-serif" font-size="14" lengthAdjust="spacing" text-decoration="underline" textLength="131" x="42.5" y="207.8994">door: BufferedImage</text><ellipse cx="33.5" cy="221.5934" fill="none" rx="3" ry="3" style="stroke:#038048;stroke-width:1.0;"/><text fill="#000000" font-family="sans-serif" font-size="14" lengthAdjust="spacing" text-decoration="underline" textLength="126" x="42.5" y="224.6993">bed: BufferedImage</text><ellipse cx="33.5" cy="238.3933" fill="none" rx="3" ry="3" style="stroke:#038048;stroke-width:1.0;"/><text fill="#000000" font-family="sans-serif" font-size="14" lengthAdjust="spacing" text-decoration="underline" textLength="129" x="42.5" y="241.4993">rock: BufferedImage</text><line style="stroke:#181818;stroke-width:0.5;" x1="23.5" x2="226.5" y1="249.2933" y2="249.2933"/><ellipse cx="33.5" cy="263.1932" fill="#84BE84" rx="3" ry="3" style="stroke:#038048;stroke-width:1.0;"/><text fill="#000000" font-family="sans-serif" font-size="14" lengthAdjust="spacing" text-decoration="underline" textLength="63" x="42.5" y="266.2992">Init(): void</text></g></a><!--class VV.Graphics.ImageLoader--><a href="ImageLoader.html" target="_top" title="ImageLoader.html" xlink:actuate="onRequest" xlink:href="ImageLoader.html" xlink:show="new" xlink:title="ImageLoader.html" xlink:type="simple"><g id="elem_VV.Graphics.ImageLoader"><rect codeLine="17" fill="#F1F1F1" height="64.7999" id="VV.Graphics.ImageLoader" rx="2.5" ry="2.5" style="stroke:#181818;stroke-width:0.5;" width="247" x="262.5" y="125.294"/><ellipse cx="339.25" cy="141.294" fill="#ADD1B2" rx="11" ry="11" style="stroke:#181818;stroke-width:1.0;"/><path d="M334.25,142.4502 C334.25,144.9502 336.3906,146.7627 339.3125,146.7627 C340.5469,146.7627 341.7188,146.4659 342.4688,145.9502 C343.0781,145.5284 343.4063,145.1065 343.4063,144.7002 C343.4063,144.2315 342.9844,143.8252 342.4844,143.8252 C342.25,143.8252 342.0313,143.9034 341.8281,144.1065 C341.3906,144.544 341.3906,144.544 341.2188,144.6377 C340.7656,144.8721 340.125,145.0127 339.3594,145.0127 C337.3594,145.0127 336.0781,143.9971 336.0781,142.419 L336.0781,141.3721 C336.0781,139.669 337.2969,138.4659 339,138.4659 C339.5781,138.4659 340.1563,138.6065 340.625,138.8565 C341.0938,139.1221 341.2656,139.3096 341.3281,139.669 C341.4531,140.3409 341.7031,140.5909 342.2344,140.5909 C342.5156,140.5909 342.7969,140.4502 342.9844,140.2315 C343.1094,140.0596 343.1563,139.8877 343.1563,139.4502 L343.1563,138.0909 C343.1563,137.669 343.1406,137.5284 343.0156,137.3565 C342.8438,137.1065 342.5625,136.9502 342.2344,136.9502 C341.9219,136.9502 341.7188,137.0596 341.5,137.3252 C340.3281,136.8252 339.8906,136.7159 338.9375,136.7159 C336.2656,136.7159 334.25,138.7315 334.25,141.3565 L334.25,142.4502 Z " fill="#000000"/><text fill="#000000" font-family="sans-serif" font-size="14" lengthAdjust="spacing" textLength="85" x="359.75" y="145.9">ImageLoader</text><line style="stroke:#181818;stroke-width:0.5;" x1="263.5" x2="508.5" y1="157.294" y2="157.294"/><line style="stroke:#181818;stroke-width:0.5;" x1="263.5" x2="508.5" y1="165.294" y2="165.294"/><ellipse cx="273.5" cy="179.1939" fill="#84BE84" rx="3" ry="3" style="stroke:#038048;stroke-width:1.0;"/><text fill="#000000" font-family="sans-serif" font-size="14" lengthAdjust="spacing" text-decoration="underline" textLength="221" x="282.5" y="182.2999">LoadImage(String): BufferedImage</text></g></a><!--class VV.Graphics.SpriteSheet--><a href="SpriteSheet.html" target="_top" title="SpriteSheet.html" xlink:actuate="onRequest" xlink:href="SpriteSheet.html" xlink:show="new" xlink:title="SpriteSheet.html" xlink:type="simple"><g id="elem_VV.Graphics.SpriteSheet"><rect codeLine="21" fill="#F1F1F1" height="81.5999" id="VV.Graphics.SpriteSheet" rx="2.5" ry="2.5" style="stroke:#181818;stroke-width:0.5;" width="204" x="23" y="334.294"/><ellipse cx="83.75" cy="350.294" fill="#ADD1B2" rx="11" ry="11" style="stroke:#181818;stroke-width:1.0;"/><path d="M78.75,351.4502 C78.75,353.9502 80.8906,355.7627 83.8125,355.7627 C85.0469,355.7627 86.2188,355.4659 86.9688,354.9502 C87.5781,354.5284 87.9063,354.1065 87.9063,353.7002 C87.9063,353.2315 87.4844,352.8252 86.9844,352.8252 C86.75,352.8252 86.5313,352.9034 86.3281,353.1065 C85.8906,353.544 85.8906,353.544 85.7188,353.6377 C85.2656,353.8721 84.625,354.0127 83.8594,354.0127 C81.8594,354.0127 80.5781,352.9971 80.5781,351.419 L80.5781,350.3721 C80.5781,348.669 81.7969,347.4659 83.5,347.4659 C84.0781,347.4659 84.6563,347.6065 85.125,347.8565 C85.5938,348.1221 85.7656,348.3096 85.8281,348.669 C85.9531,349.3409 86.2031,349.5909 86.7344,349.5909 C87.0156,349.5909 87.2969,349.4502 87.4844,349.2315 C87.6094,349.0596 87.6563,348.8877 87.6563,348.4502 L87.6563,347.0909 C87.6563,346.669 87.6406,346.5284 87.5156,346.3565 C87.3438,346.1065 87.0625,345.9502 86.7344,345.9502 C86.4219,345.9502 86.2188,346.0596 86,346.3252 C84.8281,345.8252 84.3906,345.7159 83.4375,345.7159 C80.7656,345.7159 78.75,347.7315 78.75,350.3565 L78.75,351.4502 Z " fill="#000000"/><text fill="#000000" font-family="sans-serif" font-size="14" lengthAdjust="spacing" textLength="74" x="104.25" y="354.9">SpriteSheet</text><line style="stroke:#181818;stroke-width:0.5;" x1="24" x2="226" y1="366.294" y2="366.294"/><line style="stroke:#181818;stroke-width:0.5;" x1="24" x2="226" y1="374.294" y2="374.294"/><ellipse cx="34" cy="388.1939" fill="#84BE84" rx="3" ry="3" style="stroke:#038048;stroke-width:1.0;"/><text fill="#000000" font-family="sans-serif" font-size="14" lengthAdjust="spacing" textLength="178" x="43" y="391.2999">SpriteSheet(BufferedImage)</text><ellipse cx="34" cy="404.9939" fill="#84BE84" rx="3" ry="3" style="stroke:#038048;stroke-width:1.0;"/><text fill="#000000" font-family="sans-serif" font-size="14" lengthAdjust="spacing" textLength="178" x="43" y="408.0999">crop(int, int): BufferedImage</text></g></a><text fill="#888888" font-family="sans-serif" font-size="10" lengthAdjust="spacing" textLength="179" x="170" y="447.584">UMLDoclet 2.1.0, PlantUML 1.2022.14</text><!--SRC=[bTBDQiCm303WUvz2bq52I-Xsx6rZK0ePb8NrKdhmR3anSwnWgzsXzDtdPcMa-wlhWssP3qbW0G0uqMBeX4HOhOgv5rrZP83zQ0Id9Qq80Uv3G0wmNdzUYePRkzb41uEr3opOo0ECcsqhN8cQP_2mrHezgaKhQloFFvkwIVGAMxeYVS-lIFykh4sLZ3wDQakKI5MoV4ML1Zt9jpIvS8QpV0OxCkgB7BxFGv-X9A7Gnw4OH9ScuwXwdbNiZQlplxhwKRBgl66i6aIE9GVHxoN70v6TbSZFdVJKPSRn1E9sgPtJ8T75ZmTDT3nUdif7aZRsTLVS5jC9BArm75_XPeS-679P_W40]--></g></svg>