<?xml version="1.0" encoding="UTF-8" standalone="no"?><svg xmlns="http://www.w3.org/2000/svg" xmlns:xlink="http://www.w3.org/1999/xlink" contentStyleType="text/css" height="441px" preserveAspectRatio="none" style="width:490px;height:441px;background:#FFFFFF;" version="1.1" viewBox="0 0 490 441" width="490px" zoomAndPan="magnify"><defs/><g><!--cluster VV.Graphics--><g id="cluster_VV.Graphics"><path d="M8.5,6.294 L93.5,6.294 A3.75,3.75 0 0 1 96,8.794 L103,29.0939 L480.5,29.0939 A2.5,2.5 0 0 1 483,31.5939 L483,412.794 A2.5,2.5 0 0 1 480.5,415.294 L8.5,415.294 A2.5,2.5 0 0 1 6,412.794 L6,8.794 A2.5,2.5 0 0 1 8.5,6.294 " fill="none" style="stroke:#000000;stroke-width:1.5;"/><line style="stroke:#000000;stroke-width:1.5;" x1="6" x2="103" y1="29.0939" y2="29.0939"/><text fill="#000000" font-family="sans-serif" font-size="14" font-weight="bold" lengthAdjust="spacing" textLength="84" x="10" y="21.2999">VV.Graphics</text></g><!--class VV.Graphics.Assets--><a href="Assets.html" target="_top" title="Assets.html" xlink:actuate="onRequest" xlink:href="Assets.html" xlink:show="new" xlink:title="Assets.html" xlink:type="simple"><g id="elem_VV.Graphics.Assets"><rect codeLine="3" fill="#F1F1F1" height="232.7992" id="VV.Graphics.Assets" rx="2.5" ry="2.5" style="stroke:#181818;stroke-width:0.5;" width="205" x="22.5" y="41.294"/><ellipse cx="99.75" cy="57.294" fill="#ADD1B2" rx="11" ry="11" style="stroke:#181818;stroke-width:1.0;"/><path d="M94.75,58.4502 C94.75,60.9502 96.8906,62.7627 99.8125,62.7627 C101.0469,62.7627 102.2188,62.4659 102.9688,61.9502 C103.5781,61.5284 103.9063,61.1065 103.9063,60.7002 C103.9063,60.2315 103.4844,59.8252 102.9844,59.8252 C102.75,59.8252 102.5313,59.9034 102.3281,60.1065 C101.8906,60.544 101.8906,60.544 101.7188,60.6377 C101.2656,60.8721 100.625,61.0127 99.8594,61.0127 C97.8594,61.0127 96.5781,59.9971 96.5781,58.419 L96.5781,57.3721 C96.5781,55.669 97.7969,54.4659 99.5,54.4659 C100.0781,54.4659 100.6563,54.6065 101.125,54.8565 C101.5938,55.1221 101.7656,55.3096 101.8281,55.669 C101.9531,56.3409 102.2031,56.5909 102.7344,56.5909 C103.0156,56.5909 103.2969,56.4502 103.4844,56.2315 C103.6094,56.0596 103.6563,55.8877 103.6563,55.4502 L103.6563,54.0909 C103.6563,53.669 103.6406,53.5284 103.5156,53.3565 C103.3438,53.1065 103.0625,52.9502 102.7344,52.9502 C102.4219,52.9502 102.2188,53.0596 102,53.3252 C100.8281,52.8252 100.3906,52.7159 99.4375,52.7159 C96.7656,52.7159 94.75,54.7315 94.75,57.3565 L94.75,58.4502 Z " fill="#000000"/><text fill="#000000" font-family="sans-serif" font-size="14" lengthAdjust="spacing" textLength="42" x="120.25" y="61.9">Assets</text><line style="stroke:#181818;stroke-width:0.5;" x1="23.5" x2="226.5" y1="73.294" y2="73.294"/><ellipse cx="33.5" cy="87.1939" fill="none" rx="3" ry="3" style="stroke:#038048;stroke-width:1.0;"/><text fill="#000000" font-family="sans-serif" font-size="14" lengthAdjust="spacing" text-decoration="underline" textLength="170" x="42.5" y="90.2999">humanLeft: BufferedImage</text><ellipse cx="33.5" cy="103.9939" fill="none" rx="3" ry="3" style="stroke:#038048;stroke-width:1.0;"/><text fill="#000000" font-family="sans-serif" font-size="14" lengthAdjust="spacing" text-decoration="underline" textLength="179" x="42.5" y="107.0999">humanRight: BufferedImage</text><ellipse cx="33.5" cy="120.7938" fill="none" rx="3" ry="3" style="stroke:#038048;stroke-width:1.0;"/><text fill="#000000" font-family="sans-serif" font-size="14" lengthAdjust="spacing" text-decoration="underline" textLength="170" x="42.5" y="123.8998">demonLeft: BufferedImage</text><ellipse cx="33.5" cy="137.5937" fill="none" rx="3" ry="3" style="stroke:#038048;stroke-width:1.0;"/><text fill="#000000" font-family="sans-serif" font-size="14" lengthAdjust="spacing" text-decoration="underline" textLength="179" x="42.5" y="140.6997">demonRight: BufferedImage</text><ellipse cx="33.5" cy="154.3937" fill="none" rx="3" ry="3" style="stroke:#038048;stroke-width:1.0;"/><text fill="#000000" font-family="sans-serif" font-size="14" lengthAdjust="spacing" text-decoration="underline" textLength="126" x="42.5" y="157.4996">wall: BufferedImage</text><ellipse cx="33.5" cy="171.1936" fill="none" rx="3" ry="3" style="stroke:#038048;stroke-width:1.0;"/><text fill="#000000" font-family="sans-serif" font-size="14" lengthAdjust="spacing" text-decoration="underline" textLength="137" x="42.5" y="174.2996">water: BufferedImage</text><ellipse cx="33.5" cy="187.9935" fill="none" rx="3" ry="3" style="stroke:#038048;stroke-width:1.0;"/><text fill="#000000" font-family="sans-serif" font-size="14" lengthAdjust="spacing" text-decoration="underline" textLength="130" x="42.5" y="191.0995">floor: BufferedImage</text><ellipse cx="33.5" cy="204.7934" fill="none" rx="3" ry="3" style="stroke:#038048;stroke-width:1.0;"/><text fill="#000000" font-family="sans-serif" font-size="14" lengthAdjust="spacing" text-decoration="underline" textLength="131" x="42.5" y="207.8994">door: BufferedImage</text><ellipse cx="33.5" cy="221.5934" fill="none" rx="3" ry="3" style="stroke:#038048;stroke-width:1.0;"/><text fill="#000000" font-family="sans-serif" font-size="14" lengthAdjust="spacing" text-decoration="underline" textLength="126" x="42.5" y="224.6993">bed: BufferedImage</text><ellipse cx="33.5" cy="238.3933" fill="none" rx="3" ry="3" style="stroke:#038048;stroke-width:1.0;"/><text fill="#000000" font-family="sans-serif" font-size="14" lengthAdjust="spacing" text-decoration="underline" textLength="129" x="42.5" y="241.4993">rock: BufferedImage</text><line style="stroke:#181818;stroke-width:0.5;" x1="23.5" x2="226.5" y1="249.2933" y2="249.2933"/><ellipse cx="33.5" cy="263.1932" fill="#84BE84" rx="3" ry="3" style="stroke:#038048;stroke-width:1.0;"/><text fill="#000000" font-family="sans-serif" font-size="14" lengthAdjust="spacing" text-decoration="underline" textLength="63" x="42.5" y="266.2992">Init(): void</text></g></a><!--class VV.Graphics.SpriteSheet--><a href="SpriteSheet.html" target="_top" title="SpriteSheet.html" xlink:actuate="onRequest" xlink:href="SpriteSheet.html" xlink:show="new" xlink:title="SpriteSheet.html" xlink:type="simple"><g id="elem_VV.Graphics.SpriteSheet"><rect codeLine="17" fill="#F1F1F1" height="81.5999" id="VV.Graphics.SpriteSheet" rx="2.5" ry="2.5" style="stroke:#181818;stroke-width:0.5;" width="204" x="263" y="116.794"/><ellipse cx="323.75" cy="132.794" fill="#ADD1B2" rx="11" ry="11" style="stroke:#181818;stroke-width:1.0;"/><path d="M318.75,133.9502 C318.75,136.4502 320.8906,138.2627 323.8125,138.2627 C325.0469,138.2627 326.2188,137.9659 326.9688,137.4502 C327.5781,137.0284 327.9063,136.6065 327.9063,136.2002 C327.9063,135.7315 327.4844,135.3252 326.9844,135.3252 C326.75,135.3252 326.5313,135.4034 326.3281,135.6065 C325.8906,136.044 325.8906,136.044 325.7188,136.1377 C325.2656,136.3721 324.625,136.5127 323.8594,136.5127 C321.8594,136.5127 320.5781,135.4971 320.5781,133.919 L320.5781,132.8721 C320.5781,131.169 321.7969,129.9659 323.5,129.9659 C324.0781,129.9659 324.6563,130.1065 325.125,130.3565 C325.5938,130.6221 325.7656,130.8096 325.8281,131.169 C325.9531,131.8409 326.2031,132.0909 326.7344,132.0909 C327.0156,132.0909 327.2969,131.9502 327.4844,131.7315 C327.6094,131.5596 327.6563,131.3877 327.6563,130.9502 L327.6563,129.5909 C327.6563,129.169 327.6406,129.0284 327.5156,128.8565 C327.3438,128.6065 327.0625,128.4502 326.7344,128.4502 C326.4219,128.4502 326.2188,128.5596 326,128.8252 C324.8281,128.3252 324.3906,128.2159 323.4375,128.2159 C320.7656,128.2159 318.75,130.2315 318.75,132.8565 L318.75,133.9502 Z " fill="#000000"/><text fill="#000000" font-family="sans-serif" font-size="14" lengthAdjust="spacing" textLength="74" x="344.25" y="137.4">SpriteSheet</text><line style="stroke:#181818;stroke-width:0.5;" x1="264" x2="466" y1="148.794" y2="148.794"/><line style="stroke:#181818;stroke-width:0.5;" x1="264" x2="466" y1="156.794" y2="156.794"/><ellipse cx="274" cy="170.6939" fill="#84BE84" rx="3" ry="3" style="stroke:#038048;stroke-width:1.0;"/><text fill="#000000" font-family="sans-serif" font-size="14" lengthAdjust="spacing" textLength="178" x="283" y="173.7999">SpriteSheet(BufferedImage)</text><ellipse cx="274" cy="187.4939" fill="#84BE84" rx="3" ry="3" style="stroke:#038048;stroke-width:1.0;"/><text fill="#000000" font-family="sans-serif" font-size="14" lengthAdjust="spacing" textLength="178" x="283" y="190.5999">crop(int, int): BufferedImage</text></g></a><!--class VV.Graphics.ImageLoader--><a href="ImageLoader.html" target="_top" title="ImageLoader.html" xlink:actuate="onRequest" xlink:href="ImageLoader.html" xlink:show="new" xlink:title="ImageLoader.html" xlink:type="simple"><g id="elem_VV.Graphics.ImageLoader"><rect codeLine="22" fill="#F1F1F1" height="64.7999" id="VV.Graphics.ImageLoader" rx="2.5" ry="2.5" style="stroke:#181818;stroke-width:0.5;" width="247" x="22.5" y="334.294"/><ellipse cx="99.25" cy="350.294" fill="#ADD1B2" rx="11" ry="11" style="stroke:#181818;stroke-width:1.0;"/><path d="M94.25,351.4502 C94.25,353.9502 96.3906,355.7627 99.3125,355.7627 C100.5469,355.7627 101.7188,355.4659 102.4688,354.9502 C103.0781,354.5284 103.4063,354.1065 103.4063,353.7002 C103.4063,353.2315 102.9844,352.8252 102.4844,352.8252 C102.25,352.8252 102.0313,352.9034 101.8281,353.1065 C101.3906,353.544 101.3906,353.544 101.2188,353.6377 C100.7656,353.8721 100.125,354.0127 99.3594,354.0127 C97.3594,354.0127 96.0781,352.9971 96.0781,351.419 L96.0781,350.3721 C96.0781,348.669 97.2969,347.4659 99,347.4659 C99.5781,347.4659 100.1563,347.6065 100.625,347.8565 C101.0938,348.1221 101.2656,348.3096 101.3281,348.669 C101.4531,349.3409 101.7031,349.5909 102.2344,349.5909 C102.5156,349.5909 102.7969,349.4502 102.9844,349.2315 C103.1094,349.0596 103.1563,348.8877 103.1563,348.4502 L103.1563,347.0909 C103.1563,346.669 103.1406,346.5284 103.0156,346.3565 C102.8438,346.1065 102.5625,345.9502 102.2344,345.9502 C101.9219,345.9502 101.7188,346.0596 101.5,346.3252 C100.3281,345.8252 99.8906,345.7159 98.9375,345.7159 C96.2656,345.7159 94.25,347.7315 94.25,350.3565 L94.25,351.4502 Z " fill="#000000"/><text fill="#000000" font-family="sans-serif" font-size="14" lengthAdjust="spacing" textLength="85" x="119.75" y="354.9">ImageLoader</text><line style="stroke:#181818;stroke-width:0.5;" x1="23.5" x2="268.5" y1="366.294" y2="366.294"/><line style="stroke:#181818;stroke-width:0.5;" x1="23.5" x2="268.5" y1="374.294" y2="374.294"/><ellipse cx="33.5" cy="388.1939" fill="#84BE84" rx="3" ry="3" style="stroke:#038048;stroke-width:1.0;"/><text fill="#000000" font-family="sans-serif" font-size="14" lengthAdjust="spacing" text-decoration="underline" textLength="221" x="42.5" y="391.2999">LoadImage(String): BufferedImage</text></g></a><text fill="#888888" font-family="sans-serif" font-size="10" lengthAdjust="spacing" textLength="179" x="148.5" y="430.584">UMLDoclet 2.1.0, PlantUML 1.2022.14</text><!--SRC=[bP9DQyCm38Rl_HMw319QGhTZRnk3KiYWBAoNqeDdoucPOmLRxGwb_trkLaQwhxewM9Bz8B_OBm204os6JaY4rQgOUz4rHWROZqPm2cb5270V0dA0zVgpA1fkxMOJEHZ4Fh1W8mymRhQjS2Lgdi73Lclqg1QjgF4__DdKJIAliAKhnlVu5UFVXRMf9ADFGxKbIaHLClcAAWtq9D_Io8KpdEKps95HNyZXkn-gpXl6ga7aQ8f1zxipnWCYErEHdtFIKvSPnnE8I_wNuXzo-kEIX48VvGowIqOzKZsULUoDgozTUKeINVnuq4J7zF9KFfAqyIdkYjjYEe6b5OxZBjpiq0T3Bii_0000]--></g></svg>