<?xml version="1.0" encoding="UTF-8" standalone="no"?><svg xmlns="http://www.w3.org/2000/svg" xmlns:xlink="http://www.w3.org/1999/xlink" contentStyleType="text/css" height="860px" preserveAspectRatio="none" style="width:557px;height:860px;background:#FFFFFF;" version="1.1" viewBox="0 0 557 860" width="557px" zoomAndPan="magnify"><defs/><g><!--cluster vv.Graphics--><g id="cluster_vv.Graphics"><path d="M8.5,6.294 L91.5,6.294 A3.75,3.75 0 0 1 94,8.794 L101,29.0939 L547.5,29.0939 A2.5,2.5 0 0 1 550,31.5939 L550,832.394 A2.5,2.5 0 0 1 547.5,834.894 L8.5,834.894 A2.5,2.5 0 0 1 6,832.394 L6,8.794 A2.5,2.5 0 0 1 8.5,6.294 " fill="none" style="stroke:#000000;stroke-width:1.5;"/><line style="stroke:#000000;stroke-width:1.5;" x1="6" x2="101" y1="29.0939" y2="29.0939"/><text fill="#000000" font-family="sans-serif" font-size="14" font-weight="bold" lengthAdjust="spacing" textLength="82" x="10" y="21.2999">vv.Graphics</text></g><!--class vv.Graphics.ImageLoader--><a href="ImageLoader.html" target="_top" title="ImageLoader.html" xlink:actuate="onRequest" xlink:href="ImageLoader.html" xlink:show="new" xlink:title="ImageLoader.html" xlink:type="simple"><g id="elem_vv.Graphics.ImageLoader"><rect codeLine="3" fill="#F1F1F1" height="64.7999" id="vv.Graphics.ImageLoader" rx="2.5" ry="2.5" style="stroke:#181818;stroke-width:0.5;" width="247" x="22.5" y="58.094"/><ellipse cx="99.25" cy="74.094" fill="#ADD1B2" rx="11" ry="11" style="stroke:#181818;stroke-width:1.0;"/><path d="M94.25,75.2502 C94.25,77.7502 96.3906,79.5627 99.3125,79.5627 C100.5469,79.5627 101.7188,79.2659 102.4688,78.7502 C103.0781,78.3284 103.4063,77.9065 103.4063,77.5002 C103.4063,77.0315 102.9844,76.6252 102.4844,76.6252 C102.25,76.6252 102.0313,76.7034 101.8281,76.9065 C101.3906,77.344 101.3906,77.344 101.2188,77.4377 C100.7656,77.6721 100.125,77.8127 99.3594,77.8127 C97.3594,77.8127 96.0781,76.7971 96.0781,75.219 L96.0781,74.1721 C96.0781,72.469 97.2969,71.2659 99,71.2659 C99.5781,71.2659 100.1563,71.4065 100.625,71.6565 C101.0938,71.9221 101.2656,72.1096 101.3281,72.469 C101.4531,73.1409 101.7031,73.3909 102.2344,73.3909 C102.5156,73.3909 102.7969,73.2502 102.9844,73.0315 C103.1094,72.8596 103.1563,72.6877 103.1563,72.2502 L103.1563,70.8909 C103.1563,70.469 103.1406,70.3284 103.0156,70.1565 C102.8438,69.9065 102.5625,69.7502 102.2344,69.7502 C101.9219,69.7502 101.7188,69.8596 101.5,70.1252 C100.3281,69.6252 99.8906,69.5159 98.9375,69.5159 C96.2656,69.5159 94.25,71.5315 94.25,74.1565 L94.25,75.2502 Z " fill="#000000"/><text fill="#000000" font-family="sans-serif" font-size="14" lengthAdjust="spacing" textLength="85" x="119.75" y="78.7">ImageLoader</text><line style="stroke:#181818;stroke-width:0.5;" x1="23.5" x2="268.5" y1="90.094" y2="90.094"/><line style="stroke:#181818;stroke-width:0.5;" x1="23.5" x2="268.5" y1="98.094" y2="98.094"/><ellipse cx="33.5" cy="111.9939" fill="#84BE84" rx="3" ry="3" style="stroke:#038048;stroke-width:1.0;"/><text fill="#000000" font-family="sans-serif" font-size="14" lengthAdjust="spacing" text-decoration="underline" textLength="221" x="42.5" y="115.0999">LoadImage(String): BufferedImage</text></g></a><!--class vv.Graphics.Button--><a href="Button.html" target="_top" title="Button.html" xlink:actuate="onRequest" xlink:href="Button.html" xlink:show="new" xlink:title="Button.html" xlink:type="simple"><g id="elem_vv.Graphics.Button"><rect codeLine="7" fill="#F1F1F1" height="98.3998" id="vv.Graphics.Button" rx="2.5" ry="2.5" style="stroke:#181818;stroke-width:0.5;" width="229" x="304.5" y="41.294"/><ellipse cx="394.25" cy="57.294" fill="#ADD1B2" rx="11" ry="11" style="stroke:#181818;stroke-width:1.0;"/><path d="M389.25,58.4502 C389.25,60.9502 391.3906,62.7627 394.3125,62.7627 C395.5469,62.7627 396.7188,62.4659 397.4688,61.9502 C398.0781,61.5284 398.4063,61.1065 398.4063,60.7002 C398.4063,60.2315 397.9844,59.8252 397.4844,59.8252 C397.25,59.8252 397.0313,59.9034 396.8281,60.1065 C396.3906,60.544 396.3906,60.544 396.2188,60.6377 C395.7656,60.8721 395.125,61.0127 394.3594,61.0127 C392.3594,61.0127 391.0781,59.9971 391.0781,58.419 L391.0781,57.3721 C391.0781,55.669 392.2969,54.4659 394,54.4659 C394.5781,54.4659 395.1563,54.6065 395.625,54.8565 C396.0938,55.1221 396.2656,55.3096 396.3281,55.669 C396.4531,56.3409 396.7031,56.5909 397.2344,56.5909 C397.5156,56.5909 397.7969,56.4502 397.9844,56.2315 C398.1094,56.0596 398.1563,55.8877 398.1563,55.4502 L398.1563,54.0909 C398.1563,53.669 398.1406,53.5284 398.0156,53.3565 C397.8438,53.1065 397.5625,52.9502 397.2344,52.9502 C396.9219,52.9502 396.7188,53.0596 396.5,53.3252 C395.3281,52.8252 394.8906,52.7159 393.9375,52.7159 C391.2656,52.7159 389.25,54.7315 389.25,57.3565 L389.25,58.4502 Z " fill="#000000"/><text fill="#000000" font-family="sans-serif" font-size="14" lengthAdjust="spacing" textLength="41" x="414.75" y="61.9">Button</text><line style="stroke:#181818;stroke-width:0.5;" x1="305.5" x2="532.5" y1="73.294" y2="73.294"/><line style="stroke:#181818;stroke-width:0.5;" x1="305.5" x2="532.5" y1="81.294" y2="81.294"/><ellipse cx="315.5" cy="95.1939" fill="#84BE84" rx="3" ry="3" style="stroke:#038048;stroke-width:1.0;"/><text fill="#000000" font-family="sans-serif" font-size="14" lengthAdjust="spacing" textLength="203" x="324.5" y="98.2999">Button(String, int, int, Runnable)</text><ellipse cx="315.5" cy="111.9939" fill="#84BE84" rx="3" ry="3" style="stroke:#038048;stroke-width:1.0;"/><text fill="#000000" font-family="sans-serif" font-size="14" lengthAdjust="spacing" textLength="90" x="324.5" y="115.0999">Update(): void</text><ellipse cx="315.5" cy="128.7938" fill="#84BE84" rx="3" ry="3" style="stroke:#038048;stroke-width:1.0;"/><text fill="#000000" font-family="sans-serif" font-size="14" lengthAdjust="spacing" textLength="134" x="324.5" y="131.8998">Draw(Graphics): void</text></g></a><!--class vv.Graphics.SpriteSheet--><a href="SpriteSheet.html" target="_top" title="SpriteSheet.html" xlink:actuate="onRequest" xlink:href="SpriteSheet.html" xlink:show="new" xlink:title="SpriteSheet.html" xlink:type="simple"><g id="elem_vv.Graphics.SpriteSheet"><rect codeLine="13" fill="#F1F1F1" height="81.5999" id="vv.Graphics.SpriteSheet" rx="2.5" ry="2.5" style="stroke:#181818;stroke-width:0.5;" width="204" x="44" y="468.494"/><ellipse cx="104.75" cy="484.494" fill="#ADD1B2" rx="11" ry="11" style="stroke:#181818;stroke-width:1.0;"/><path d="M99.75,485.6502 C99.75,488.1502 101.8906,489.9627 104.8125,489.9627 C106.0469,489.9627 107.2188,489.6659 107.9688,489.1502 C108.5781,488.7284 108.9063,488.3065 108.9063,487.9002 C108.9063,487.4315 108.4844,487.0252 107.9844,487.0252 C107.75,487.0252 107.5313,487.1034 107.3281,487.3065 C106.8906,487.744 106.8906,487.744 106.7188,487.8377 C106.2656,488.0721 105.625,488.2127 104.8594,488.2127 C102.8594,488.2127 101.5781,487.1971 101.5781,485.619 L101.5781,484.5721 C101.5781,482.869 102.7969,481.6659 104.5,481.6659 C105.0781,481.6659 105.6563,481.8065 106.125,482.0565 C106.5938,482.3221 106.7656,482.5096 106.8281,482.869 C106.9531,483.5409 107.2031,483.7909 107.7344,483.7909 C108.0156,483.7909 108.2969,483.6502 108.4844,483.4315 C108.6094,483.2596 108.6563,483.0877 108.6563,482.6502 L108.6563,481.2909 C108.6563,480.869 108.6406,480.7284 108.5156,480.5565 C108.3438,480.3065 108.0625,480.1502 107.7344,480.1502 C107.4219,480.1502 107.2188,480.2596 107,480.5252 C105.8281,480.0252 105.3906,479.9159 104.4375,479.9159 C101.7656,479.9159 99.75,481.9315 99.75,484.5565 L99.75,485.6502 Z " fill="#000000"/><text fill="#000000" font-family="sans-serif" font-size="14" lengthAdjust="spacing" textLength="74" x="125.25" y="489.1">SpriteSheet</text><line style="stroke:#181818;stroke-width:0.5;" x1="45" x2="247" y1="500.494" y2="500.494"/><line style="stroke:#181818;stroke-width:0.5;" x1="45" x2="247" y1="508.494" y2="508.494"/><ellipse cx="55" cy="522.3939" fill="#84BE84" rx="3" ry="3" style="stroke:#038048;stroke-width:1.0;"/><text fill="#000000" font-family="sans-serif" font-size="14" lengthAdjust="spacing" textLength="178" x="64" y="525.4999">SpriteSheet(BufferedImage)</text><ellipse cx="55" cy="539.1939" fill="#84BE84" rx="3" ry="3" style="stroke:#038048;stroke-width:1.0;"/><text fill="#000000" font-family="sans-serif" font-size="14" lengthAdjust="spacing" textLength="178" x="64" y="542.2999">crop(int, int): BufferedImage</text></g></a><!--class vv.Graphics.Assets--><a href="Assets.html" target="_top" title="Assets.html" xlink:actuate="onRequest" xlink:href="Assets.html" xlink:show="new" xlink:title="Assets.html" xlink:type="simple"><g id="elem_vv.Graphics.Assets"><rect codeLine="18" fill="#F1F1F1" height="619.1975" id="vv.Graphics.Assets" rx="2.5" ry="2.5" style="stroke:#181818;stroke-width:0.5;" width="221" x="282.5" y="199.694"/><ellipse cx="367.75" cy="215.694" fill="#ADD1B2" rx="11" ry="11" style="stroke:#181818;stroke-width:1.0;"/><path d="M362.75,216.8502 C362.75,219.3502 364.8906,221.1627 367.8125,221.1627 C369.0469,221.1627 370.2188,220.8659 370.9688,220.3502 C371.5781,219.9284 371.9063,219.5065 371.9063,219.1002 C371.9063,218.6315 371.4844,218.2252 370.9844,218.2252 C370.75,218.2252 370.5313,218.3034 370.3281,218.5065 C369.8906,218.944 369.8906,218.944 369.7188,219.0377 C369.2656,219.2721 368.625,219.4127 367.8594,219.4127 C365.8594,219.4127 364.5781,218.3971 364.5781,216.819 L364.5781,215.7721 C364.5781,214.069 365.7969,212.8659 367.5,212.8659 C368.0781,212.8659 368.6563,213.0065 369.125,213.2565 C369.5938,213.5221 369.7656,213.7096 369.8281,214.069 C369.9531,214.7409 370.2031,214.9909 370.7344,214.9909 C371.0156,214.9909 371.2969,214.8502 371.4844,214.6315 C371.6094,214.4596 371.6563,214.2877 371.6563,213.8502 L371.6563,212.4909 C371.6563,212.069 371.6406,211.9284 371.5156,211.7565 C371.3438,211.5065 371.0625,211.3502 370.7344,211.3502 C370.4219,211.3502 370.2188,211.4596 370,211.7252 C368.8281,211.2252 368.3906,211.1159 367.4375,211.1159 C364.7656,211.1159 362.75,213.1315 362.75,215.7565 L362.75,216.8502 Z " fill="#000000"/><text fill="#000000" font-family="sans-serif" font-size="14" lengthAdjust="spacing" textLength="42" x="388.25" y="220.3">Assets</text><line style="stroke:#181818;stroke-width:0.5;" x1="283.5" x2="502.5" y1="231.694" y2="231.694"/><ellipse cx="293.5" cy="245.5939" fill="none" rx="3" ry="3" style="stroke:#038048;stroke-width:1.0;"/><text fill="#000000" font-family="sans-serif" font-size="14" lengthAdjust="spacing" text-decoration="underline" textLength="151" x="302.5" y="248.6999">bomber: BufferedImage</text><ellipse cx="293.5" cy="262.3939" fill="none" rx="3" ry="3" style="stroke:#038048;stroke-width:1.0;"/><text fill="#000000" font-family="sans-serif" font-size="14" lengthAdjust="spacing" text-decoration="underline" textLength="137" x="302.5" y="265.4999">flame: BufferedImage</text><ellipse cx="293.5" cy="279.1938" fill="none" rx="3" ry="3" style="stroke:#038048;stroke-width:1.0;"/><text fill="#000000" font-family="sans-serif" font-size="14" lengthAdjust="spacing" text-decoration="underline" textLength="195" x="302.5" y="282.2998">flameProjectile: BufferedImage</text><ellipse cx="293.5" cy="295.9937" fill="none" rx="3" ry="3" style="stroke:#038048;stroke-width:1.0;"/><text fill="#000000" font-family="sans-serif" font-size="14" lengthAdjust="spacing" text-decoration="underline" textLength="151" x="302.5" y="299.0997">shadow: BufferedImage</text><ellipse cx="293.5" cy="312.7937" fill="none" rx="3" ry="3" style="stroke:#038048;stroke-width:1.0;"/><text fill="#000000" font-family="sans-serif" font-size="14" lengthAdjust="spacing" text-decoration="underline" textLength="140" x="302.5" y="315.8996">wraith: BufferedImage</text><ellipse cx="293.5" cy="329.5936" fill="none" rx="3" ry="3" style="stroke:#038048;stroke-width:1.0;"/><text fill="#000000" font-family="sans-serif" font-size="14" lengthAdjust="spacing" text-decoration="underline" textLength="170" x="302.5" y="332.6996">humanLeft: BufferedImage</text><ellipse cx="293.5" cy="346.3935" fill="none" rx="3" ry="3" style="stroke:#038048;stroke-width:1.0;"/><text fill="#000000" font-family="sans-serif" font-size="14" lengthAdjust="spacing" text-decoration="underline" textLength="179" x="302.5" y="349.4995">humanRight: BufferedImage</text><ellipse cx="293.5" cy="363.1934" fill="none" rx="3" ry="3" style="stroke:#038048;stroke-width:1.0;"/><text fill="#000000" font-family="sans-serif" font-size="14" lengthAdjust="spacing" text-decoration="underline" textLength="152" x="302.5" y="366.2994">invisible: BufferedImage</text><ellipse cx="293.5" cy="379.9934" fill="none" rx="3" ry="3" style="stroke:#038048;stroke-width:1.0;"/><text fill="#000000" font-family="sans-serif" font-size="14" lengthAdjust="spacing" text-decoration="underline" textLength="160" x="302.5" y="383.0993">crosshair: BufferedImage</text><ellipse cx="293.5" cy="396.7933" fill="none" rx="3" ry="3" style="stroke:#038048;stroke-width:1.0;"/><text fill="#000000" font-family="sans-serif" font-size="14" lengthAdjust="spacing" text-decoration="underline" textLength="170" x="302.5" y="399.8993">demonLeft: BufferedImage</text><ellipse cx="293.5" cy="413.5932" fill="none" rx="3" ry="3" style="stroke:#038048;stroke-width:1.0;"/><text fill="#000000" font-family="sans-serif" font-size="14" lengthAdjust="spacing" text-decoration="underline" textLength="179" x="302.5" y="416.6992">demonRight: BufferedImage</text><ellipse cx="293.5" cy="430.3931" fill="none" rx="3" ry="3" style="stroke:#038048;stroke-width:1.0;"/><text fill="#000000" font-family="sans-serif" font-size="14" lengthAdjust="spacing" text-decoration="underline" textLength="126" x="302.5" y="433.4991">wall: BufferedImage</text><ellipse cx="293.5" cy="447.1931" fill="none" rx="3" ry="3" style="stroke:#038048;stroke-width:1.0;"/><text fill="#000000" font-family="sans-serif" font-size="14" lengthAdjust="spacing" text-decoration="underline" textLength="137" x="302.5" y="450.299">water: BufferedImage</text><ellipse cx="293.5" cy="463.993" fill="none" rx="3" ry="3" style="stroke:#038048;stroke-width:1.0;"/><text fill="#000000" font-family="sans-serif" font-size="14" lengthAdjust="spacing" text-decoration="underline" textLength="130" x="302.5" y="467.099">floor: BufferedImage</text><ellipse cx="293.5" cy="480.7929" fill="none" rx="3" ry="3" style="stroke:#038048;stroke-width:1.0;"/><text fill="#000000" font-family="sans-serif" font-size="14" lengthAdjust="spacing" text-decoration="underline" textLength="129" x="302.5" y="483.8989">rock: BufferedImage</text><ellipse cx="293.5" cy="497.5928" fill="none" rx="3" ry="3" style="stroke:#038048;stroke-width:1.0;"/><text fill="#000000" font-family="sans-serif" font-size="14" lengthAdjust="spacing" text-decoration="underline" textLength="142" x="302.5" y="500.6988">spikes: BufferedImage</text><ellipse cx="293.5" cy="514.3928" fill="none" rx="3" ry="3" style="stroke:#038048;stroke-width:1.0;"/><text fill="#000000" font-family="sans-serif" font-size="14" lengthAdjust="spacing" text-decoration="underline" textLength="167" x="302.5" y="517.4988">wallWinter: BufferedImage</text><ellipse cx="293.5" cy="531.1927" fill="none" rx="3" ry="3" style="stroke:#038048;stroke-width:1.0;"/><text fill="#000000" font-family="sans-serif" font-size="14" lengthAdjust="spacing" text-decoration="underline" textLength="178" x="302.5" y="534.2987">waterWinter: BufferedImage</text><ellipse cx="293.5" cy="547.9926" fill="none" rx="3" ry="3" style="stroke:#038048;stroke-width:1.0;"/><text fill="#000000" font-family="sans-serif" font-size="14" lengthAdjust="spacing" text-decoration="underline" textLength="171" x="302.5" y="551.0986">floorWinter: BufferedImage</text><ellipse cx="293.5" cy="564.7926" fill="none" rx="3" ry="3" style="stroke:#038048;stroke-width:1.0;"/><text fill="#000000" font-family="sans-serif" font-size="14" lengthAdjust="spacing" text-decoration="underline" textLength="170" x="302.5" y="567.8985">rockWinter: BufferedImage</text><ellipse cx="293.5" cy="581.5925" fill="none" rx="3" ry="3" style="stroke:#038048;stroke-width:1.0;"/><text fill="#000000" font-family="sans-serif" font-size="14" lengthAdjust="spacing" text-decoration="underline" textLength="183" x="302.5" y="584.6985">spikesWinter: BufferedImage</text><ellipse cx="293.5" cy="598.3924" fill="none" rx="3" ry="3" style="stroke:#038048;stroke-width:1.0;"/><text fill="#000000" font-family="sans-serif" font-size="14" lengthAdjust="spacing" text-decoration="underline" textLength="175" x="302.5" y="601.4984">wallBurning: BufferedImage</text><ellipse cx="293.5" cy="615.1923" fill="none" rx="3" ry="3" style="stroke:#038048;stroke-width:1.0;"/><text fill="#000000" font-family="sans-serif" font-size="14" lengthAdjust="spacing" text-decoration="underline" textLength="186" x="302.5" y="618.2983">waterBurning: BufferedImage</text><ellipse cx="293.5" cy="631.9923" fill="none" rx="3" ry="3" style="stroke:#038048;stroke-width:1.0;"/><text fill="#000000" font-family="sans-serif" font-size="14" lengthAdjust="spacing" text-decoration="underline" textLength="179" x="302.5" y="635.0982">floorBurning: BufferedImage</text><ellipse cx="293.5" cy="648.7922" fill="none" rx="3" ry="3" style="stroke:#038048;stroke-width:1.0;"/><text fill="#000000" font-family="sans-serif" font-size="14" lengthAdjust="spacing" text-decoration="underline" textLength="178" x="302.5" y="651.8982">rockBurning: BufferedImage</text><ellipse cx="293.5" cy="665.5921" fill="none" rx="3" ry="3" style="stroke:#038048;stroke-width:1.0;"/><text fill="#000000" font-family="sans-serif" font-size="14" lengthAdjust="spacing" text-decoration="underline" textLength="191" x="302.5" y="668.6981">spikesBurning: BufferedImage</text><ellipse cx="293.5" cy="682.392" fill="none" rx="3" ry="3" style="stroke:#038048;stroke-width:1.0;"/><text fill="#000000" font-family="sans-serif" font-size="14" lengthAdjust="spacing" text-decoration="underline" textLength="126" x="302.5" y="685.498">bed: BufferedImage</text><ellipse cx="293.5" cy="699.192" fill="none" rx="3" ry="3" style="stroke:#038048;stroke-width:1.0;"/><text fill="#000000" font-family="sans-serif" font-size="14" lengthAdjust="spacing" text-decoration="underline" textLength="167" x="302.5" y="702.2979">bedWinter: BufferedImage</text><ellipse cx="293.5" cy="715.9919" fill="none" rx="3" ry="3" style="stroke:#038048;stroke-width:1.0;"/><text fill="#000000" font-family="sans-serif" font-size="14" lengthAdjust="spacing" text-decoration="underline" textLength="175" x="302.5" y="719.0979">bedBurning: BufferedImage</text><ellipse cx="293.5" cy="732.7918" fill="none" rx="3" ry="3" style="stroke:#038048;stroke-width:1.0;"/><text fill="#000000" font-family="sans-serif" font-size="14" lengthAdjust="spacing" text-decoration="underline" textLength="131" x="302.5" y="735.8978">door: BufferedImage</text><ellipse cx="293.5" cy="749.5917" fill="none" rx="3" ry="3" style="stroke:#038048;stroke-width:1.0;"/><text fill="#000000" font-family="sans-serif" font-size="14" lengthAdjust="spacing" text-decoration="underline" textLength="172" x="302.5" y="752.6977">doorWinter: BufferedImage</text><ellipse cx="293.5" cy="766.3917" fill="none" rx="3" ry="3" style="stroke:#038048;stroke-width:1.0;"/><text fill="#000000" font-family="sans-serif" font-size="14" lengthAdjust="spacing" text-decoration="underline" textLength="180" x="302.5" y="769.4977">doorBurning: BufferedImage</text><ellipse cx="293.5" cy="783.1916" fill="none" rx="3" ry="3" style="stroke:#038048;stroke-width:1.0;"/><text fill="#000000" font-family="sans-serif" font-size="14" lengthAdjust="spacing" text-decoration="underline" textLength="135" x="302.5" y="786.2976">black: BufferedImage</text><line style="stroke:#181818;stroke-width:0.5;" x1="283.5" x2="502.5" y1="794.0916" y2="794.0916"/><ellipse cx="293.5" cy="807.9915" fill="#84BE84" rx="3" ry="3" style="stroke:#038048;stroke-width:1.0;"/><text fill="#000000" font-family="sans-serif" font-size="14" lengthAdjust="spacing" text-decoration="underline" textLength="63" x="302.5" y="811.0975">Init(): void</text></g></a><text fill="#888888" font-family="sans-serif" font-size="10" lengthAdjust="spacing" textLength="179" x="182" y="850.184">UMLDoclet 2.1.0, PlantUML 1.2022.14</text><!--SRC=[bPNFQy8m5CVl-ojo6LIKiksusqGOWWDHP0Vna2QlDZDDIl9Q3-B_lhJLeMwol1xwy_Djlj_NbuOnnWmlmLTS06kQzDtngb32iyF30pjjGdFlsRJaMvXPBi6nzVhYAYsmr9jDKB2BxU2Hen97Dcof3a-Mw9JP3bxPkCvpSD3V_f4TRuSSruZMXD7waxy76lOFJoyVCMNmj5lKnl1Cm-2QNrMI8oJ1HcELl7usSNoVd6jmI_pojwoSGbWM01XCNbpTSNf195Sbk74edAsISuxuShrv3-Y3a_xal- -IsJ83T-_jrsokGvCGqBcpNo1GwKYHBxYq-pXsxxZ28eujwfAR6UH8m1TgMqJooZJAgomsPVYkFYHLaKMNK5g2-GudcDzphMD9Z6yKQoDHPyKkiZigjGCVd-epJ9jOmrqsYg1BI16qEIbydvQMGUjnxKpu_n52anHTQfAYZKqIzBb9aWnaD4WfQC19FcHqqqjYyqXgsJFDOwVLr2XCxYnofuE0rYhBhMqFgu_Pn0eTLhkNz3bz6h6vvWR3NVROWFCghCA3Rm00]--></g></svg>