<?xml version="1.0" encoding="UTF-8" standalone="no"?><svg xmlns="http://www.w3.org/2000/svg" xmlns:xlink="http://www.w3.org/1999/xlink" contentStyleType="text/css" height="810px" preserveAspectRatio="none" style="width:532px;height:810px;background:#FFFFFF;" version="1.1" viewBox="0 0 532 810" width="532px" zoomAndPan="magnify"><defs/><g><!--cluster vv.Graphics--><g id="cluster_vv.Graphics"><path d="M8.5,6.294 L91.5,6.294 A3.75,3.75 0 0 1 94,8.794 L101,29.0939 L522.5,29.0939 A2.5,2.5 0 0 1 525,31.5939 L525,781.994 A2.5,2.5 0 0 1 522.5,784.494 L8.5,784.494 A2.5,2.5 0 0 1 6,781.994 L6,8.794 A2.5,2.5 0 0 1 8.5,6.294 " fill="none" style="stroke:#000000;stroke-width:1.5;"/><line style="stroke:#000000;stroke-width:1.5;" x1="6" x2="101" y1="29.0939" y2="29.0939"/><text fill="#000000" font-family="sans-serif" font-size="14" font-weight="bold" lengthAdjust="spacing" textLength="82" x="10" y="21.2999">vv.Graphics</text></g><!--class vv.Graphics.Assets--><a href="Assets.html" target="_top" title="Assets.html" xlink:actuate="onRequest" xlink:href="Assets.html" xlink:show="new" xlink:title="Assets.html" xlink:type="simple"><g id="elem_vv.Graphics.Assets"><rect codeLine="3" fill="#F1F1F1" height="585.5977" id="vv.Graphics.Assets" rx="2.5" ry="2.5" style="stroke:#181818;stroke-width:0.5;" width="217" x="22.5" y="41.294"/><ellipse cx="105.75" cy="57.294" fill="#ADD1B2" rx="11" ry="11" style="stroke:#181818;stroke-width:1.0;"/><path d="M100.75,58.4502 C100.75,60.9502 102.8906,62.7627 105.8125,62.7627 C107.0469,62.7627 108.2188,62.4659 108.9688,61.9502 C109.5781,61.5284 109.9063,61.1065 109.9063,60.7002 C109.9063,60.2315 109.4844,59.8252 108.9844,59.8252 C108.75,59.8252 108.5313,59.9034 108.3281,60.1065 C107.8906,60.544 107.8906,60.544 107.7188,60.6377 C107.2656,60.8721 106.625,61.0127 105.8594,61.0127 C103.8594,61.0127 102.5781,59.9971 102.5781,58.419 L102.5781,57.3721 C102.5781,55.669 103.7969,54.4659 105.5,54.4659 C106.0781,54.4659 106.6563,54.6065 107.125,54.8565 C107.5938,55.1221 107.7656,55.3096 107.8281,55.669 C107.9531,56.3409 108.2031,56.5909 108.7344,56.5909 C109.0156,56.5909 109.2969,56.4502 109.4844,56.2315 C109.6094,56.0596 109.6563,55.8877 109.6563,55.4502 L109.6563,54.0909 C109.6563,53.669 109.6406,53.5284 109.5156,53.3565 C109.3438,53.1065 109.0625,52.9502 108.7344,52.9502 C108.4219,52.9502 108.2188,53.0596 108,53.3252 C106.8281,52.8252 106.3906,52.7159 105.4375,52.7159 C102.7656,52.7159 100.75,54.7315 100.75,57.3565 L100.75,58.4502 Z " fill="#000000"/><text fill="#000000" font-family="sans-serif" font-size="14" lengthAdjust="spacing" textLength="42" x="126.25" y="61.9">Assets</text><line style="stroke:#181818;stroke-width:0.5;" x1="23.5" x2="238.5" y1="73.294" y2="73.294"/><ellipse cx="33.5" cy="87.1939" fill="none" rx="3" ry="3" style="stroke:#038048;stroke-width:1.0;"/><text fill="#000000" font-family="sans-serif" font-size="14" lengthAdjust="spacing" text-decoration="underline" textLength="151" x="42.5" y="90.2999">bomber: BufferedImage</text><ellipse cx="33.5" cy="103.9939" fill="none" rx="3" ry="3" style="stroke:#038048;stroke-width:1.0;"/><text fill="#000000" font-family="sans-serif" font-size="14" lengthAdjust="spacing" text-decoration="underline" textLength="137" x="42.5" y="107.0999">flame: BufferedImage</text><ellipse cx="33.5" cy="120.7938" fill="none" rx="3" ry="3" style="stroke:#038048;stroke-width:1.0;"/><text fill="#000000" font-family="sans-serif" font-size="14" lengthAdjust="spacing" text-decoration="underline" textLength="151" x="42.5" y="123.8998">shadow: BufferedImage</text><ellipse cx="33.5" cy="137.5937" fill="none" rx="3" ry="3" style="stroke:#038048;stroke-width:1.0;"/><text fill="#000000" font-family="sans-serif" font-size="14" lengthAdjust="spacing" text-decoration="underline" textLength="140" x="42.5" y="140.6997">wraith: BufferedImage</text><ellipse cx="33.5" cy="154.3937" fill="none" rx="3" ry="3" style="stroke:#038048;stroke-width:1.0;"/><text fill="#000000" font-family="sans-serif" font-size="14" lengthAdjust="spacing" text-decoration="underline" textLength="170" x="42.5" y="157.4996">humanLeft: BufferedImage</text><ellipse cx="33.5" cy="171.1936" fill="none" rx="3" ry="3" style="stroke:#038048;stroke-width:1.0;"/><text fill="#000000" font-family="sans-serif" font-size="14" lengthAdjust="spacing" text-decoration="underline" textLength="179" x="42.5" y="174.2996">humanRight: BufferedImage</text><ellipse cx="33.5" cy="187.9935" fill="none" rx="3" ry="3" style="stroke:#038048;stroke-width:1.0;"/><text fill="#000000" font-family="sans-serif" font-size="14" lengthAdjust="spacing" text-decoration="underline" textLength="152" x="42.5" y="191.0995">invisible: BufferedImage</text><ellipse cx="33.5" cy="204.7934" fill="none" rx="3" ry="3" style="stroke:#038048;stroke-width:1.0;"/><text fill="#000000" font-family="sans-serif" font-size="14" lengthAdjust="spacing" text-decoration="underline" textLength="170" x="42.5" y="207.8994">demonLeft: BufferedImage</text><ellipse cx="33.5" cy="221.5934" fill="none" rx="3" ry="3" style="stroke:#038048;stroke-width:1.0;"/><text fill="#000000" font-family="sans-serif" font-size="14" lengthAdjust="spacing" text-decoration="underline" textLength="179" x="42.5" y="224.6993">demonRight: BufferedImage</text><ellipse cx="33.5" cy="238.3933" fill="none" rx="3" ry="3" style="stroke:#038048;stroke-width:1.0;"/><text fill="#000000" font-family="sans-serif" font-size="14" lengthAdjust="spacing" text-decoration="underline" textLength="126" x="42.5" y="241.4993">wall: BufferedImage</text><ellipse cx="33.5" cy="255.1932" fill="none" rx="3" ry="3" style="stroke:#038048;stroke-width:1.0;"/><text fill="#000000" font-family="sans-serif" font-size="14" lengthAdjust="spacing" text-decoration="underline" textLength="137" x="42.5" y="258.2992">water: BufferedImage</text><ellipse cx="33.5" cy="271.9931" fill="none" rx="3" ry="3" style="stroke:#038048;stroke-width:1.0;"/><text fill="#000000" font-family="sans-serif" font-size="14" lengthAdjust="spacing" text-decoration="underline" textLength="130" x="42.5" y="275.0991">floor: BufferedImage</text><ellipse cx="33.5" cy="288.7931" fill="none" rx="3" ry="3" style="stroke:#038048;stroke-width:1.0;"/><text fill="#000000" font-family="sans-serif" font-size="14" lengthAdjust="spacing" text-decoration="underline" textLength="129" x="42.5" y="291.899">rock: BufferedImage</text><ellipse cx="33.5" cy="305.593" fill="none" rx="3" ry="3" style="stroke:#038048;stroke-width:1.0;"/><text fill="#000000" font-family="sans-serif" font-size="14" lengthAdjust="spacing" text-decoration="underline" textLength="142" x="42.5" y="308.699">spikes: BufferedImage</text><ellipse cx="33.5" cy="322.3929" fill="none" rx="3" ry="3" style="stroke:#038048;stroke-width:1.0;"/><text fill="#000000" font-family="sans-serif" font-size="14" lengthAdjust="spacing" text-decoration="underline" textLength="167" x="42.5" y="325.4989">wallWinter: BufferedImage</text><ellipse cx="33.5" cy="339.1928" fill="none" rx="3" ry="3" style="stroke:#038048;stroke-width:1.0;"/><text fill="#000000" font-family="sans-serif" font-size="14" lengthAdjust="spacing" text-decoration="underline" textLength="178" x="42.5" y="342.2988">waterWinter: BufferedImage</text><ellipse cx="33.5" cy="355.9928" fill="none" rx="3" ry="3" style="stroke:#038048;stroke-width:1.0;"/><text fill="#000000" font-family="sans-serif" font-size="14" lengthAdjust="spacing" text-decoration="underline" textLength="171" x="42.5" y="359.0988">floorWinter: BufferedImage</text><ellipse cx="33.5" cy="372.7927" fill="none" rx="3" ry="3" style="stroke:#038048;stroke-width:1.0;"/><text fill="#000000" font-family="sans-serif" font-size="14" lengthAdjust="spacing" text-decoration="underline" textLength="170" x="42.5" y="375.8987">rockWinter: BufferedImage</text><ellipse cx="33.5" cy="389.5926" fill="none" rx="3" ry="3" style="stroke:#038048;stroke-width:1.0;"/><text fill="#000000" font-family="sans-serif" font-size="14" lengthAdjust="spacing" text-decoration="underline" textLength="183" x="42.5" y="392.6986">spikesWinter: BufferedImage</text><ellipse cx="33.5" cy="406.3926" fill="none" rx="3" ry="3" style="stroke:#038048;stroke-width:1.0;"/><text fill="#000000" font-family="sans-serif" font-size="14" lengthAdjust="spacing" text-decoration="underline" textLength="175" x="42.5" y="409.4985">wallBurning: BufferedImage</text><ellipse cx="33.5" cy="423.1925" fill="none" rx="3" ry="3" style="stroke:#038048;stroke-width:1.0;"/><text fill="#000000" font-family="sans-serif" font-size="14" lengthAdjust="spacing" text-decoration="underline" textLength="186" x="42.5" y="426.2985">waterBurning: BufferedImage</text><ellipse cx="33.5" cy="439.9924" fill="none" rx="3" ry="3" style="stroke:#038048;stroke-width:1.0;"/><text fill="#000000" font-family="sans-serif" font-size="14" lengthAdjust="spacing" text-decoration="underline" textLength="179" x="42.5" y="443.0984">floorBurning: BufferedImage</text><ellipse cx="33.5" cy="456.7923" fill="none" rx="3" ry="3" style="stroke:#038048;stroke-width:1.0;"/><text fill="#000000" font-family="sans-serif" font-size="14" lengthAdjust="spacing" text-decoration="underline" textLength="178" x="42.5" y="459.8983">rockBurning: BufferedImage</text><ellipse cx="33.5" cy="473.5923" fill="none" rx="3" ry="3" style="stroke:#038048;stroke-width:1.0;"/><text fill="#000000" font-family="sans-serif" font-size="14" lengthAdjust="spacing" text-decoration="underline" textLength="191" x="42.5" y="476.6982">spikesBurning: BufferedImage</text><ellipse cx="33.5" cy="490.3922" fill="none" rx="3" ry="3" style="stroke:#038048;stroke-width:1.0;"/><text fill="#000000" font-family="sans-serif" font-size="14" lengthAdjust="spacing" text-decoration="underline" textLength="126" x="42.5" y="493.4982">bed: BufferedImage</text><ellipse cx="33.5" cy="507.1921" fill="none" rx="3" ry="3" style="stroke:#038048;stroke-width:1.0;"/><text fill="#000000" font-family="sans-serif" font-size="14" lengthAdjust="spacing" text-decoration="underline" textLength="167" x="42.5" y="510.2981">bedWinter: BufferedImage</text><ellipse cx="33.5" cy="523.992" fill="none" rx="3" ry="3" style="stroke:#038048;stroke-width:1.0;"/><text fill="#000000" font-family="sans-serif" font-size="14" lengthAdjust="spacing" text-decoration="underline" textLength="175" x="42.5" y="527.098">bedBurning: BufferedImage</text><ellipse cx="33.5" cy="540.792" fill="none" rx="3" ry="3" style="stroke:#038048;stroke-width:1.0;"/><text fill="#000000" font-family="sans-serif" font-size="14" lengthAdjust="spacing" text-decoration="underline" textLength="131" x="42.5" y="543.8979">door: BufferedImage</text><ellipse cx="33.5" cy="557.5919" fill="none" rx="3" ry="3" style="stroke:#038048;stroke-width:1.0;"/><text fill="#000000" font-family="sans-serif" font-size="14" lengthAdjust="spacing" text-decoration="underline" textLength="172" x="42.5" y="560.6979">doorWinter: BufferedImage</text><ellipse cx="33.5" cy="574.3918" fill="none" rx="3" ry="3" style="stroke:#038048;stroke-width:1.0;"/><text fill="#000000" font-family="sans-serif" font-size="14" lengthAdjust="spacing" text-decoration="underline" textLength="180" x="42.5" y="577.4978">doorBurning: BufferedImage</text><ellipse cx="33.5" cy="591.1917" fill="none" rx="3" ry="3" style="stroke:#038048;stroke-width:1.0;"/><text fill="#000000" font-family="sans-serif" font-size="14" lengthAdjust="spacing" text-decoration="underline" textLength="135" x="42.5" y="594.2977">black: BufferedImage</text><line style="stroke:#181818;stroke-width:0.5;" x1="23.5" x2="238.5" y1="602.0917" y2="602.0917"/><ellipse cx="33.5" cy="615.9917" fill="#84BE84" rx="3" ry="3" style="stroke:#038048;stroke-width:1.0;"/><text fill="#000000" font-family="sans-serif" font-size="14" lengthAdjust="spacing" text-decoration="underline" textLength="63" x="42.5" y="619.0977">Init(): void</text></g></a><!--class vv.Graphics.Button--><a href="Button.html" target="_top" title="Button.html" xlink:actuate="onRequest" xlink:href="Button.html" xlink:show="new" xlink:title="Button.html" xlink:type="simple"><g id="elem_vv.Graphics.Button"><rect codeLine="38" fill="#F1F1F1" height="98.3998" id="vv.Graphics.Button" rx="2.5" ry="2.5" style="stroke:#181818;stroke-width:0.5;" width="229" x="274.5" y="284.894"/><ellipse cx="364.25" cy="300.894" fill="#ADD1B2" rx="11" ry="11" style="stroke:#181818;stroke-width:1.0;"/><path d="M359.25,302.0502 C359.25,304.5502 361.3906,306.3627 364.3125,306.3627 C365.5469,306.3627 366.7188,306.0659 367.4688,305.5502 C368.0781,305.1284 368.4063,304.7065 368.4063,304.3002 C368.4063,303.8315 367.9844,303.4252 367.4844,303.4252 C367.25,303.4252 367.0313,303.5034 366.8281,303.7065 C366.3906,304.144 366.3906,304.144 366.2188,304.2377 C365.7656,304.4721 365.125,304.6127 364.3594,304.6127 C362.3594,304.6127 361.0781,303.5971 361.0781,302.019 L361.0781,300.9721 C361.0781,299.269 362.2969,298.0659 364,298.0659 C364.5781,298.0659 365.1563,298.2065 365.625,298.4565 C366.0938,298.7221 366.2656,298.9096 366.3281,299.269 C366.4531,299.9409 366.7031,300.1909 367.2344,300.1909 C367.5156,300.1909 367.7969,300.0502 367.9844,299.8315 C368.1094,299.6596 368.1563,299.4877 368.1563,299.0502 L368.1563,297.6909 C368.1563,297.269 368.1406,297.1284 368.0156,296.9565 C367.8438,296.7065 367.5625,296.5502 367.2344,296.5502 C366.9219,296.5502 366.7188,296.6596 366.5,296.9252 C365.3281,296.4252 364.8906,296.3159 363.9375,296.3159 C361.2656,296.3159 359.25,298.3315 359.25,300.9565 L359.25,302.0502 Z " fill="#000000"/><text fill="#000000" font-family="sans-serif" font-size="14" lengthAdjust="spacing" textLength="41" x="384.75" y="305.5">Button</text><line style="stroke:#181818;stroke-width:0.5;" x1="275.5" x2="502.5" y1="316.894" y2="316.894"/><line style="stroke:#181818;stroke-width:0.5;" x1="275.5" x2="502.5" y1="324.894" y2="324.894"/><ellipse cx="285.5" cy="338.7939" fill="#84BE84" rx="3" ry="3" style="stroke:#038048;stroke-width:1.0;"/><text fill="#000000" font-family="sans-serif" font-size="14" lengthAdjust="spacing" textLength="203" x="294.5" y="341.8999">Button(String, int, int, Runnable)</text><ellipse cx="285.5" cy="355.5939" fill="#84BE84" rx="3" ry="3" style="stroke:#038048;stroke-width:1.0;"/><text fill="#000000" font-family="sans-serif" font-size="14" lengthAdjust="spacing" textLength="90" x="294.5" y="358.6999">Update(): void</text><ellipse cx="285.5" cy="372.3938" fill="#84BE84" rx="3" ry="3" style="stroke:#038048;stroke-width:1.0;"/><text fill="#000000" font-family="sans-serif" font-size="14" lengthAdjust="spacing" textLength="134" x="294.5" y="375.4998">Draw(Graphics): void</text></g></a><!--class vv.Graphics.SpriteSheet--><a href="SpriteSheet.html" target="_top" title="SpriteSheet.html" xlink:actuate="onRequest" xlink:href="SpriteSheet.html" xlink:show="new" xlink:title="SpriteSheet.html" xlink:type="simple"><g id="elem_vv.Graphics.SpriteSheet"><rect codeLine="44" fill="#F1F1F1" height="81.5999" id="vv.Graphics.SpriteSheet" rx="2.5" ry="2.5" style="stroke:#181818;stroke-width:0.5;" width="204" x="22" y="686.894"/><ellipse cx="82.75" cy="702.894" fill="#ADD1B2" rx="11" ry="11" style="stroke:#181818;stroke-width:1.0;"/><path d="M77.75,704.0502 C77.75,706.5502 79.8906,708.3627 82.8125,708.3627 C84.0469,708.3627 85.2188,708.0659 85.9688,707.5502 C86.5781,707.1284 86.9063,706.7065 86.9063,706.3002 C86.9063,705.8315 86.4844,705.4252 85.9844,705.4252 C85.75,705.4252 85.5313,705.5034 85.3281,705.7065 C84.8906,706.144 84.8906,706.144 84.7188,706.2377 C84.2656,706.4721 83.625,706.6127 82.8594,706.6127 C80.8594,706.6127 79.5781,705.5971 79.5781,704.019 L79.5781,702.9721 C79.5781,701.269 80.7969,700.0659 82.5,700.0659 C83.0781,700.0659 83.6563,700.2065 84.125,700.4565 C84.5938,700.7221 84.7656,700.9096 84.8281,701.269 C84.9531,701.9409 85.2031,702.1909 85.7344,702.1909 C86.0156,702.1909 86.2969,702.0502 86.4844,701.8315 C86.6094,701.6596 86.6563,701.4877 86.6563,701.0502 L86.6563,699.6909 C86.6563,699.269 86.6406,699.1284 86.5156,698.9565 C86.3438,698.7065 86.0625,698.5502 85.7344,698.5502 C85.4219,698.5502 85.2188,698.6596 85,698.9252 C83.8281,698.4252 83.3906,698.3159 82.4375,698.3159 C79.7656,698.3159 77.75,700.3315 77.75,702.9565 L77.75,704.0502 Z " fill="#000000"/><text fill="#000000" font-family="sans-serif" font-size="14" lengthAdjust="spacing" textLength="74" x="103.25" y="707.5">SpriteSheet</text><line style="stroke:#181818;stroke-width:0.5;" x1="23" x2="225" y1="718.894" y2="718.894"/><line style="stroke:#181818;stroke-width:0.5;" x1="23" x2="225" y1="726.894" y2="726.894"/><ellipse cx="33" cy="740.7939" fill="#84BE84" rx="3" ry="3" style="stroke:#038048;stroke-width:1.0;"/><text fill="#000000" font-family="sans-serif" font-size="14" lengthAdjust="spacing" textLength="178" x="42" y="743.8999">SpriteSheet(BufferedImage)</text><ellipse cx="33" cy="757.5939" fill="#84BE84" rx="3" ry="3" style="stroke:#038048;stroke-width:1.0;"/><text fill="#000000" font-family="sans-serif" font-size="14" lengthAdjust="spacing" textLength="178" x="42" y="760.6999">crop(int, int): BufferedImage</text></g></a><!--class vv.Graphics.ImageLoader--><a href="ImageLoader.html" target="_top" title="ImageLoader.html" xlink:actuate="onRequest" xlink:href="ImageLoader.html" xlink:show="new" xlink:title="ImageLoader.html" xlink:type="simple"><g id="elem_vv.Graphics.ImageLoader"><rect codeLine="49" fill="#F1F1F1" height="64.7999" id="vv.Graphics.ImageLoader" rx="2.5" ry="2.5" style="stroke:#181818;stroke-width:0.5;" width="247" x="261.5" y="695.294"/><ellipse cx="338.25" cy="711.294" fill="#ADD1B2" rx="11" ry="11" style="stroke:#181818;stroke-width:1.0;"/><path d="M333.25,712.4502 C333.25,714.9502 335.3906,716.7627 338.3125,716.7627 C339.5469,716.7627 340.7188,716.4659 341.4688,715.9502 C342.0781,715.5284 342.4063,715.1065 342.4063,714.7002 C342.4063,714.2315 341.9844,713.8252 341.4844,713.8252 C341.25,713.8252 341.0313,713.9034 340.8281,714.1065 C340.3906,714.544 340.3906,714.544 340.2188,714.6377 C339.7656,714.8721 339.125,715.0127 338.3594,715.0127 C336.3594,715.0127 335.0781,713.9971 335.0781,712.419 L335.0781,711.3721 C335.0781,709.669 336.2969,708.4659 338,708.4659 C338.5781,708.4659 339.1563,708.6065 339.625,708.8565 C340.0938,709.1221 340.2656,709.3096 340.3281,709.669 C340.4531,710.3409 340.7031,710.5909 341.2344,710.5909 C341.5156,710.5909 341.7969,710.4502 341.9844,710.2315 C342.1094,710.0596 342.1563,709.8877 342.1563,709.4502 L342.1563,708.0909 C342.1563,707.669 342.1406,707.5284 342.0156,707.3565 C341.8438,707.1065 341.5625,706.9502 341.2344,706.9502 C340.9219,706.9502 340.7188,707.0596 340.5,707.3252 C339.3281,706.8252 338.8906,706.7159 337.9375,706.7159 C335.2656,706.7159 333.25,708.7315 333.25,711.3565 L333.25,712.4502 Z " fill="#000000"/><text fill="#000000" font-family="sans-serif" font-size="14" lengthAdjust="spacing" textLength="85" x="358.75" y="715.9">ImageLoader</text><line style="stroke:#181818;stroke-width:0.5;" x1="262.5" x2="507.5" y1="727.294" y2="727.294"/><line style="stroke:#181818;stroke-width:0.5;" x1="262.5" x2="507.5" y1="735.294" y2="735.294"/><ellipse cx="272.5" cy="749.1939" fill="#84BE84" rx="3" ry="3" style="stroke:#038048;stroke-width:1.0;"/><text fill="#000000" font-family="sans-serif" font-size="14" lengthAdjust="spacing" text-decoration="underline" textLength="221" x="281.5" y="752.2999">LoadImage(String): BufferedImage</text></g></a><text fill="#888888" font-family="sans-serif" font-size="10" lengthAdjust="spacing" textLength="179" x="169.5" y="799.784">UMLDoclet 2.1.0, PlantUML 1.2022.14</text><!--SRC=[bPLDYy8m48Rl_egvBBGePNUFtbQ4HN1XKMGFuY5DfZQO9YL9suFutpVzSF5ZnQI79ccU8UyxcIO0098KQ4f24Uew-TIap3arS1oDO7Ye8CR0Xp5e3MotVIV9RI5sEyV1nNCqbbXEJp1ELP6YdiAioZBKo1O5sUC3DXDEWXzgSi9KuySscd2R-x5vLH2vnCm6u2k-pprvBcjkU2eyNJ8iL82Q3WzGqn0XV4dhlubAUQ9QqOFdTfVyWCRVrG-Nte8xRo41dSEGWDPd2D-x3VCWnApIaijzWEcWYCvrK4HhEoYWznqKaYBp1aCIwl0W7Soxw5bWyR3GjAU2-FvM2ybj54-XLfpz8QVR4tzMMQkaE_7xplyd_hYVZDPMEwKJS0w7rwgIahWZBxxcDoLpDNYtUZStrwI9pbVGKtthKdEBwnpHEf4NemTABuZeAait2gbMPNJs4J_Aw9sSRdgf24Fjv5oCdbsLBTNXGnAVBJaq5DjYWaofjjbyBUUA2fUAz-GjUPt0jo3Ikg_mKgCst6rH_0i0]--></g></svg>