<?xml version="1.0" encoding="UTF-8" standalone="no"?><svg xmlns="http://www.w3.org/2000/svg" xmlns:xlink="http://www.w3.org/1999/xlink" contentStyleType="text/css" height="541px" preserveAspectRatio="none" style="width:274px;height:541px;background:#FFFFFF;" version="1.1" viewBox="0 0 274 541" width="274px" zoomAndPan="magnify"><defs/><g><!--class vv.Items.Character--><a href="Character.html" target="_top" title="Character.html" xlink:actuate="onRequest" xlink:href="Character.html" xlink:show="new" xlink:title="Character.html" xlink:type="simple"><g id="elem_vv.Items.Character"><rect codeLine="5" fill="#F1F1F1" height="360.7986" id="vv.Items.Character" rx="2.5" ry="2.5" style="stroke:#181818;stroke-width:0.5;" width="258" x="9" y="155.2"/><ellipse cx="102.25" cy="176.4" fill="#A9DCDF" rx="11" ry="11" style="stroke:#181818;stroke-width:1.0;"/><path d="M103.7813,178.3375 L104.1094,179.1343 L103.8281,179.1343 C103.375,179.1343 103.25,179.1656 103.0781,179.275 C102.7969,179.4156 102.625,179.7125 102.625,180.0093 C102.625,180.3062 102.7656,180.5562 103,180.7281 C103.1719,180.8531 103.4063,180.9 103.8281,180.9 L106.1875,180.9 C106.5469,180.9 106.7969,180.8687 106.9375,180.775 C107.2031,180.6343 107.375,180.3218 107.375,180.0093 C107.375,179.7437 107.2344,179.4781 107,179.3062 C106.8125,179.1812 106.6563,179.15 106.2031,179.1343 L102.8125,171.3062 L99.0938,171.3062 C98.6406,171.3062 98.5,171.3218 98.3281,171.4312 C98.0625,171.6031 97.8906,171.8843 97.8906,172.1812 C97.8906,172.4625 98.0313,172.7281 98.2813,172.9 C98.4531,173.025 98.6406,173.0562 99.0938,173.0562 L100.0625,173.0562 L97.4844,179.1343 C96.7344,179.1343 96.3281,179.4312 96.3281,180.0093 C96.3281,180.6187 96.7188,180.9 97.5156,180.9 L99.7813,180.9 C100.1406,180.9 100.3906,180.8687 100.5313,180.775 C100.7969,180.6187 100.9688,180.3218 100.9688,180.0093 C100.9688,179.7437 100.8281,179.4781 100.5938,179.3062 C100.4063,179.1656 100.25,179.1343 99.7813,179.1343 L99.4844,179.1343 L99.8281,178.3375 L103.7813,178.3375 Z M103.0156,176.5875 L100.5625,176.5875 L101.7969,173.7125 L103.0156,176.5875 Z " fill="#000000"/><text fill="#000000" font-family="sans-serif" font-size="14" font-style="italic" lengthAdjust="spacing" textLength="63" x="122.75" y="175.5999">Character</text><text fill="#000000" font-family="sans-serif" font-size="10" font-style="italic" lengthAdjust="spacing" textLength="38" x="135.25" y="190.0999">vv.Items</text><line style="stroke:#181818;stroke-width:0.5;" x1="10" x2="266" y1="197.5999" y2="197.5999"/><ellipse cx="20" cy="211.4999" fill="none" rx="3" ry="3" style="stroke:#038048;stroke-width:1.0;"/><text fill="#000000" font-family="sans-serif" font-size="14" lengthAdjust="spacing" text-decoration="underline" textLength="125" x="29" y="214.6058">DEFAULT_LIFE: int</text><ellipse cx="20" cy="228.2998" fill="none" rx="3" ry="3" style="stroke:#038048;stroke-width:1.0;"/><text fill="#000000" font-family="sans-serif" font-size="14" lengthAdjust="spacing" text-decoration="underline" textLength="153" x="29" y="231.4058">DEFAULT_SPEED: float</text><ellipse cx="20" cy="245.0997" fill="none" rx="3" ry="3" style="stroke:#038048;stroke-width:1.0;"/><text fill="#000000" font-family="sans-serif" font-size="14" lengthAdjust="spacing" text-decoration="underline" textLength="225" x="29" y="248.2057">DEFAULT_CREATURE_WIDTH: int</text><ellipse cx="20" cy="261.8996" fill="none" rx="3" ry="3" style="stroke:#038048;stroke-width:1.0;"/><text fill="#000000" font-family="sans-serif" font-size="14" lengthAdjust="spacing" text-decoration="underline" textLength="232" x="29" y="265.0056">DEFAULT_CREATURE_HEIGHT: int</text><polygon fill="none" points="20,273.6996,24,277.6996,20,281.6996,16,277.6996" style="stroke:#B38D22;stroke-width:1.0;"/><text fill="#000000" font-family="sans-serif" font-size="14" lengthAdjust="spacing" textLength="41" x="29" y="281.8056">life: int</text><polygon fill="none" points="20,290.4995,24,294.4995,20,298.4995,16,294.4995" style="stroke:#B38D22;stroke-width:1.0;"/><text fill="#000000" font-family="sans-serif" font-size="14" lengthAdjust="spacing" textLength="74" x="29" y="298.6055">speed: float</text><polygon fill="none" points="20,307.2994,24,311.2994,20,315.2994,16,311.2994" style="stroke:#B38D22;stroke-width:1.0;"/><text fill="#000000" font-family="sans-serif" font-size="14" lengthAdjust="spacing" textLength="77" x="29" y="315.4054">xMove: float</text><polygon fill="none" points="20,324.0994,24,328.0994,20,332.0994,16,328.0994" style="stroke:#B38D22;stroke-width:1.0;"/><text fill="#000000" font-family="sans-serif" font-size="14" lengthAdjust="spacing" textLength="77" x="29" y="332.2053">yMove: float</text><line style="stroke:#181818;stroke-width:0.5;" x1="10" x2="266" y1="339.9993" y2="339.9993"/><ellipse cx="20" cy="353.8993" fill="#84BE84" rx="3" ry="3" style="stroke:#038048;stroke-width:1.0;"/><text fill="#000000" font-family="sans-serif" font-size="14" lengthAdjust="spacing" textLength="181" x="29" y="357.0053">Character(float, float, int, int)</text><ellipse cx="20" cy="370.6992" fill="#84BE84" rx="3" ry="3" style="stroke:#038048;stroke-width:1.0;"/><text fill="#000000" font-family="sans-serif" font-size="14" lengthAdjust="spacing" textLength="79" x="29" y="373.8052">Move(): void</text><ellipse cx="20" cy="387.4991" fill="#84BE84" rx="3" ry="3" style="stroke:#038048;stroke-width:1.0;"/><text fill="#000000" font-family="sans-serif" font-size="14" lengthAdjust="spacing" textLength="79" x="29" y="390.6051">GetLife(): int</text><ellipse cx="20" cy="404.2991" fill="#84BE84" rx="3" ry="3" style="stroke:#038048;stroke-width:1.0;"/><text fill="#000000" font-family="sans-serif" font-size="14" lengthAdjust="spacing" textLength="109" x="29" y="407.405">GetSpeed(): float</text><ellipse cx="20" cy="421.099" fill="#84BE84" rx="3" ry="3" style="stroke:#038048;stroke-width:1.0;"/><text fill="#000000" font-family="sans-serif" font-size="14" lengthAdjust="spacing" textLength="103" x="29" y="424.205">SetLife(int): void</text><ellipse cx="20" cy="437.8989" fill="#84BE84" rx="3" ry="3" style="stroke:#038048;stroke-width:1.0;"/><text fill="#000000" font-family="sans-serif" font-size="14" lengthAdjust="spacing" textLength="133" x="29" y="441.0049">SetSpeed(float): void</text><ellipse cx="20" cy="454.6988" fill="#84BE84" rx="3" ry="3" style="stroke:#038048;stroke-width:1.0;"/><text fill="#000000" font-family="sans-serif" font-size="14" lengthAdjust="spacing" textLength="112" x="29" y="457.8048">GetXMove(): float</text><ellipse cx="20" cy="471.4988" fill="#84BE84" rx="3" ry="3" style="stroke:#038048;stroke-width:1.0;"/><text fill="#000000" font-family="sans-serif" font-size="14" lengthAdjust="spacing" textLength="112" x="29" y="474.6047">GetYMove(): float</text><ellipse cx="20" cy="488.2987" fill="#84BE84" rx="3" ry="3" style="stroke:#038048;stroke-width:1.0;"/><text fill="#000000" font-family="sans-serif" font-size="14" lengthAdjust="spacing" textLength="136" x="29" y="491.4047">SetXMove(float): void</text><ellipse cx="20" cy="505.0986" fill="#84BE84" rx="3" ry="3" style="stroke:#038048;stroke-width:1.0;"/><text fill="#000000" font-family="sans-serif" font-size="14" lengthAdjust="spacing" textLength="136" x="29" y="508.2046">SetYMove(float): void</text></g></a><!--class vv.Items.Item--><a href="Item.html" target="_top" title="Item.html" xlink:actuate="onRequest" xlink:href="Item.html" xlink:show="new" xlink:title="Item.html" xlink:type="simple"><g id="elem_vv.Items.Item"><rect codeLine="26" fill="#F1F1F1" height="88.1997" id="vv.Items.Item" rx="2.5" ry="2.5" style="stroke:#181818;stroke-width:0.5;" width="160" x="58" y="7"/><ellipse cx="114.75" cy="28.2" fill="#A9DCDF" rx="11" ry="11" style="stroke:#181818;stroke-width:1.0;"/><path d="M116.2813,30.1375 L116.6094,30.9343 L116.3281,30.9343 C115.875,30.9343 115.75,30.9656 115.5781,31.075 C115.2969,31.2156 115.125,31.5125 115.125,31.8093 C115.125,32.1062 115.2656,32.3562 115.5,32.5281 C115.6719,32.6531 115.9063,32.7 116.3281,32.7 L118.6875,32.7 C119.0469,32.7 119.2969,32.6687 119.4375,32.575 C119.7031,32.4343 119.875,32.1218 119.875,31.8093 C119.875,31.5437 119.7344,31.2781 119.5,31.1062 C119.3125,30.9812 119.1563,30.95 118.7031,30.9343 L115.3125,23.1062 L111.5938,23.1062 C111.1406,23.1062 111,23.1218 110.8281,23.2312 C110.5625,23.4031 110.3906,23.6843 110.3906,23.9812 C110.3906,24.2625 110.5313,24.5281 110.7813,24.7 C110.9531,24.825 111.1406,24.8562 111.5938,24.8562 L112.5625,24.8562 L109.9844,30.9343 C109.2344,30.9343 108.8281,31.2312 108.8281,31.8093 C108.8281,32.4187 109.2188,32.7 110.0156,32.7 L112.2813,32.7 C112.6406,32.7 112.8906,32.6687 113.0313,32.575 C113.2969,32.4187 113.4688,32.1218 113.4688,31.8093 C113.4688,31.5437 113.3281,31.2781 113.0938,31.1062 C112.9063,30.9656 112.75,30.9343 112.2813,30.9343 L111.9844,30.9343 L112.3281,30.1375 L116.2813,30.1375 Z M115.5156,28.3875 L113.0625,28.3875 L114.2969,25.5125 L115.5156,28.3875 Z " fill="#000000"/><text fill="#000000" font-family="sans-serif" font-size="14" font-style="italic" lengthAdjust="spacing" textLength="28" x="140.25" y="27.3999">Item</text><text fill="#000000" font-family="sans-serif" font-size="10" font-style="italic" lengthAdjust="spacing" textLength="38" x="135.25" y="41.8999">vv.Items</text><line style="stroke:#181818;stroke-width:0.5;" x1="59" x2="217" y1="49.3999" y2="49.3999"/><ellipse cx="69" cy="64.3499" fill="#84BE84" rx="3" ry="3" style="stroke:#038048;stroke-width:1.0;"/><text fill="#000000" font-family="sans-serif" font-size="14" font-style="italic" lengthAdjust="spacing" textLength="90" x="78" y="68.7998">Update(): void</text><ellipse cx="69" cy="83.2498" fill="#84BE84" rx="3" ry="3" style="stroke:#038048;stroke-width:1.0;"/><text fill="#000000" font-family="sans-serif" font-size="14" font-style="italic" lengthAdjust="spacing" textLength="134" x="78" y="87.6998">Draw(Graphics): void</text></g></a><!--reverse link vv.Items.Item to vv.Items.Character--><g id="link_vv.Items.Item_vv.Items.Character"><path codeLine="31" d="M138,116.47 C138,128.4 138,141.38 138,154.86 " fill="none" id="vv.Items.Item-backto-vv.Items.Character" style="stroke:#181818;stroke-width:1.0;"/><polygon fill="none" points="131,116.62,138,96.62,145,116.62,131,116.62" style="stroke:#181818;stroke-width:1.0;"/></g><text fill="#888888" font-family="sans-serif" font-size="10" lengthAdjust="spacing" textLength="179" x="40.5" y="531.2886">UMLDoclet 2.1.0, PlantUML 1.2022.14</text><!--SRC=[XLDjQy8m4Fw-Nt4e0qKjElQfY22sle22s9PjE96iFMcWRKeJkZddVr_IMLzgf_sGIv-NkoFS0G1m512H47bCNBGm9WaHB868HVWWQV2fXu1XBBQmeHXul8Y6A7mcuGmd7rman1NW1eHpg7Gv_KQzyzmR-4JXcBn71wpTIrDj8Z3a5I0SyX_jg8JbydZNV146gnNiiYhgst5117Ntq33COT-PsklfP6ZgG2DnGsFDJTFGOHCmSaisM9XzsrcOwvU9OO_l9Jsgn-PaDBOlvTM0Rh00yHZHAtPH_Pgn5A_GRHdQE3vCBIEQS0YoJ7RKJrBbhzLrI1drJkW8nLGsfeZprXHkgUuKKQXf7ImgVJ6TbTioJrcrrxoFGbP9lVr3MRchFAcLEw_e_PrXL8DsTmxLAKTGXPBfotFBCN1YZuZh9pwN60dvh8qI4llKvIMTNXRj_hHQ9Vlm9tKnKhknOKm5PpOrc1l87NxIEbgx2VE0H4AYy9XYmYcBQlLV]--></g></svg>