<?xml version="1.0" encoding="UTF-8" standalone="no"?><svg xmlns="http://www.w3.org/2000/svg" xmlns:xlink="http://www.w3.org/1999/xlink" contentStyleType="text/css" height="541px" preserveAspectRatio="none" style="width:274px;height:541px;background:#FFFFFF;" version="1.1" viewBox="0 0 274 541" width="274px" zoomAndPan="magnify"><defs/><g><!--class VV.Items.Character--><a href="Character.html" target="_top" title="Character.html" xlink:actuate="onRequest" xlink:href="Character.html" xlink:show="new" xlink:title="Character.html" xlink:type="simple"><g id="elem_VV.Items.Character"><rect codeLine="5" fill="#F1F1F1" height="360.7986" id="VV.Items.Character" rx="2.5" ry="2.5" style="stroke:#181818;stroke-width:0.5;" width="258" x="9" y="155"/><ellipse cx="102.25" cy="176.2" fill="#A9DCDF" rx="11" ry="11" style="stroke:#181818;stroke-width:1.0;"/><path d="M103.7813,178.1375 L104.1094,178.9343 L103.8281,178.9343 C103.375,178.9343 103.25,178.9656 103.0781,179.075 C102.7969,179.2156 102.625,179.5125 102.625,179.8093 C102.625,180.1062 102.7656,180.3562 103,180.5281 C103.1719,180.6531 103.4063,180.7 103.8281,180.7 L106.1875,180.7 C106.5469,180.7 106.7969,180.6687 106.9375,180.575 C107.2031,180.4343 107.375,180.1218 107.375,179.8093 C107.375,179.5437 107.2344,179.2781 107,179.1062 C106.8125,178.9812 106.6563,178.95 106.2031,178.9343 L102.8125,171.1062 L99.0938,171.1062 C98.6406,171.1062 98.5,171.1218 98.3281,171.2312 C98.0625,171.4031 97.8906,171.6843 97.8906,171.9812 C97.8906,172.2625 98.0313,172.5281 98.2813,172.7 C98.4531,172.825 98.6406,172.8562 99.0938,172.8562 L100.0625,172.8562 L97.4844,178.9343 C96.7344,178.9343 96.3281,179.2312 96.3281,179.8093 C96.3281,180.4187 96.7188,180.7 97.5156,180.7 L99.7813,180.7 C100.1406,180.7 100.3906,180.6687 100.5313,180.575 C100.7969,180.4187 100.9688,180.1218 100.9688,179.8093 C100.9688,179.5437 100.8281,179.2781 100.5938,179.1062 C100.4063,178.9656 100.25,178.9343 99.7813,178.9343 L99.4844,178.9343 L99.8281,178.1375 L103.7813,178.1375 Z M103.0156,176.3875 L100.5625,176.3875 L101.7969,173.5125 L103.0156,176.3875 Z " fill="#000000"/><text fill="#000000" font-family="sans-serif" font-size="14" font-style="italic" lengthAdjust="spacing" textLength="63" x="122.75" y="175.3999">Character</text><text fill="#000000" font-family="sans-serif" font-size="10" font-style="italic" lengthAdjust="spacing" textLength="42" x="133.25" y="189.8999">VV.Items</text><line style="stroke:#181818;stroke-width:0.5;" x1="10" x2="266" y1="197.3999" y2="197.3999"/><ellipse cx="20" cy="211.2999" fill="none" rx="3" ry="3" style="stroke:#038048;stroke-width:1.0;"/><text fill="#000000" font-family="sans-serif" font-size="14" lengthAdjust="spacing" text-decoration="underline" textLength="125" x="29" y="214.4058">DEFAULT_LIFE: int</text><ellipse cx="20" cy="228.0998" fill="none" rx="3" ry="3" style="stroke:#038048;stroke-width:1.0;"/><text fill="#000000" font-family="sans-serif" font-size="14" lengthAdjust="spacing" text-decoration="underline" textLength="153" x="29" y="231.2058">DEFAULT_SPEED: float</text><ellipse cx="20" cy="244.8997" fill="none" rx="3" ry="3" style="stroke:#038048;stroke-width:1.0;"/><text fill="#000000" font-family="sans-serif" font-size="14" lengthAdjust="spacing" text-decoration="underline" textLength="225" x="29" y="248.0057">DEFAULT_CREATURE_WIDTH: int</text><ellipse cx="20" cy="261.6996" fill="none" rx="3" ry="3" style="stroke:#038048;stroke-width:1.0;"/><text fill="#000000" font-family="sans-serif" font-size="14" lengthAdjust="spacing" text-decoration="underline" textLength="232" x="29" y="264.8056">DEFAULT_CREATURE_HEIGHT: int</text><polygon fill="none" points="20,273.4996,24,277.4996,20,281.4996,16,277.4996" style="stroke:#B38D22;stroke-width:1.0;"/><text fill="#000000" font-family="sans-serif" font-size="14" lengthAdjust="spacing" textLength="41" x="29" y="281.6056">life: int</text><polygon fill="none" points="20,290.2995,24,294.2995,20,298.2995,16,294.2995" style="stroke:#B38D22;stroke-width:1.0;"/><text fill="#000000" font-family="sans-serif" font-size="14" lengthAdjust="spacing" textLength="74" x="29" y="298.4055">speed: float</text><polygon fill="none" points="20,307.0994,24,311.0994,20,315.0994,16,311.0994" style="stroke:#B38D22;stroke-width:1.0;"/><text fill="#000000" font-family="sans-serif" font-size="14" lengthAdjust="spacing" textLength="77" x="29" y="315.2054">xMove: float</text><polygon fill="none" points="20,323.8994,24,327.8994,20,331.8994,16,327.8994" style="stroke:#B38D22;stroke-width:1.0;"/><text fill="#000000" font-family="sans-serif" font-size="14" lengthAdjust="spacing" textLength="77" x="29" y="332.0053">yMove: float</text><line style="stroke:#181818;stroke-width:0.5;" x1="10" x2="266" y1="339.7993" y2="339.7993"/><ellipse cx="20" cy="353.6993" fill="#84BE84" rx="3" ry="3" style="stroke:#038048;stroke-width:1.0;"/><text fill="#000000" font-family="sans-serif" font-size="14" lengthAdjust="spacing" textLength="181" x="29" y="356.8053">Character(float, float, int, int)</text><ellipse cx="20" cy="370.4992" fill="#84BE84" rx="3" ry="3" style="stroke:#038048;stroke-width:1.0;"/><text fill="#000000" font-family="sans-serif" font-size="14" lengthAdjust="spacing" textLength="79" x="29" y="373.6052">Move(): void</text><ellipse cx="20" cy="387.2991" fill="#84BE84" rx="3" ry="3" style="stroke:#038048;stroke-width:1.0;"/><text fill="#000000" font-family="sans-serif" font-size="14" lengthAdjust="spacing" textLength="79" x="29" y="390.4051">GetLife(): int</text><ellipse cx="20" cy="404.0991" fill="#84BE84" rx="3" ry="3" style="stroke:#038048;stroke-width:1.0;"/><text fill="#000000" font-family="sans-serif" font-size="14" lengthAdjust="spacing" textLength="109" x="29" y="407.205">GetSpeed(): float</text><ellipse cx="20" cy="420.899" fill="#84BE84" rx="3" ry="3" style="stroke:#038048;stroke-width:1.0;"/><text fill="#000000" font-family="sans-serif" font-size="14" lengthAdjust="spacing" textLength="103" x="29" y="424.005">SetLife(int): void</text><ellipse cx="20" cy="437.6989" fill="#84BE84" rx="3" ry="3" style="stroke:#038048;stroke-width:1.0;"/><text fill="#000000" font-family="sans-serif" font-size="14" lengthAdjust="spacing" textLength="133" x="29" y="440.8049">SetSpeed(float): void</text><ellipse cx="20" cy="454.4988" fill="#84BE84" rx="3" ry="3" style="stroke:#038048;stroke-width:1.0;"/><text fill="#000000" font-family="sans-serif" font-size="14" lengthAdjust="spacing" textLength="112" x="29" y="457.6048">GetXMove(): float</text><ellipse cx="20" cy="471.2988" fill="#84BE84" rx="3" ry="3" style="stroke:#038048;stroke-width:1.0;"/><text fill="#000000" font-family="sans-serif" font-size="14" lengthAdjust="spacing" textLength="112" x="29" y="474.4047">GetYMove(): float</text><ellipse cx="20" cy="488.0987" fill="#84BE84" rx="3" ry="3" style="stroke:#038048;stroke-width:1.0;"/><text fill="#000000" font-family="sans-serif" font-size="14" lengthAdjust="spacing" textLength="136" x="29" y="491.2047">SetXMove(float): void</text><ellipse cx="20" cy="504.8986" fill="#84BE84" rx="3" ry="3" style="stroke:#038048;stroke-width:1.0;"/><text fill="#000000" font-family="sans-serif" font-size="14" lengthAdjust="spacing" textLength="136" x="29" y="508.0046">SetYMove(float): void</text></g></a><!--class VV.Items.Item--><a href="Item.html" target="_top" title="Item.html" xlink:actuate="onRequest" xlink:href="Item.html" xlink:show="new" xlink:title="Item.html" xlink:type="simple"><g id="elem_VV.Items.Item"><rect codeLine="26" fill="#F1F1F1" height="88.1997" id="VV.Items.Item" rx="2.5" ry="2.5" style="stroke:#181818;stroke-width:0.5;" width="160" x="58" y="7"/><ellipse cx="112.75" cy="28.2" fill="#A9DCDF" rx="11" ry="11" style="stroke:#181818;stroke-width:1.0;"/><path d="M114.2813,30.1375 L114.6094,30.9343 L114.3281,30.9343 C113.875,30.9343 113.75,30.9656 113.5781,31.075 C113.2969,31.2156 113.125,31.5125 113.125,31.8093 C113.125,32.1062 113.2656,32.3562 113.5,32.5281 C113.6719,32.6531 113.9063,32.7 114.3281,32.7 L116.6875,32.7 C117.0469,32.7 117.2969,32.6687 117.4375,32.575 C117.7031,32.4343 117.875,32.1218 117.875,31.8093 C117.875,31.5437 117.7344,31.2781 117.5,31.1062 C117.3125,30.9812 117.1563,30.95 116.7031,30.9343 L113.3125,23.1062 L109.5938,23.1062 C109.1406,23.1062 109,23.1218 108.8281,23.2312 C108.5625,23.4031 108.3906,23.6843 108.3906,23.9812 C108.3906,24.2625 108.5313,24.5281 108.7813,24.7 C108.9531,24.825 109.1406,24.8562 109.5938,24.8562 L110.5625,24.8562 L107.9844,30.9343 C107.2344,30.9343 106.8281,31.2312 106.8281,31.8093 C106.8281,32.4187 107.2188,32.7 108.0156,32.7 L110.2813,32.7 C110.6406,32.7 110.8906,32.6687 111.0313,32.575 C111.2969,32.4187 111.4688,32.1218 111.4688,31.8093 C111.4688,31.5437 111.3281,31.2781 111.0938,31.1062 C110.9063,30.9656 110.75,30.9343 110.2813,30.9343 L109.9844,30.9343 L110.3281,30.1375 L114.2813,30.1375 Z M113.5156,28.3875 L111.0625,28.3875 L112.2969,25.5125 L113.5156,28.3875 Z " fill="#000000"/><text fill="#000000" font-family="sans-serif" font-size="14" font-style="italic" lengthAdjust="spacing" textLength="28" x="140.25" y="27.3999">Item</text><text fill="#000000" font-family="sans-serif" font-size="10" font-style="italic" lengthAdjust="spacing" textLength="42" x="133.25" y="41.8999">VV.Items</text><line style="stroke:#181818;stroke-width:0.5;" x1="59" x2="217" y1="49.3999" y2="49.3999"/><ellipse cx="69" cy="64.3499" fill="#84BE84" rx="3" ry="3" style="stroke:#038048;stroke-width:1.0;"/><text fill="#000000" font-family="sans-serif" font-size="14" font-style="italic" lengthAdjust="spacing" textLength="90" x="78" y="68.7998">Update(): void</text><ellipse cx="69" cy="83.2498" fill="#84BE84" rx="3" ry="3" style="stroke:#038048;stroke-width:1.0;"/><text fill="#000000" font-family="sans-serif" font-size="14" font-style="italic" lengthAdjust="spacing" textLength="134" x="78" y="87.6998">Draw(Graphics): void</text></g></a><!--reverse link VV.Items.Item to VV.Items.Character--><g id="link_VV.Items.Item_VV.Items.Character"><path codeLine="31" d="M138,116.15 C138,128.13 138,141.18 138,154.74 " fill="none" id="VV.Items.Item-backto-VV.Items.Character" style="stroke:#181818;stroke-width:1.0;"/><polygon fill="none" points="131,116.21,138,96.21,145,116.21,131,116.21" style="stroke:#181818;stroke-width:1.0;"/></g><text fill="#888888" font-family="sans-serif" font-size="10" lengthAdjust="spacing" textLength="179" x="40.5" y="531.0886">UMLDoclet 2.1.0, PlantUML 1.2022.14</text><!--SRC=[XLDjQy8m4Fw-Nt4e0qKjElQfY22sQa51hBeD9vArLnfecz84D-Vyxqiwwqljj1zowVDoTuGx002E0Y8I8e-9WpR692629H2n21ya3Jvr4J2CnHOyYe7BysY8mcSIJd7omKL2705EG3Y7KflJRzHRpvsUJnIEoNjqm9gTnKAp18Qy18H3zgCTbR1S7k-QBy9WjO9TMaLzEow8eCuUQeRPxyv7i_N8wfiwq4ZSqDWJqpHqy096RibwKxCxcq_DzOjbp8RtaXxLGzCQ36UNyd90FSn1F4PqyrsKlyPiWrVejWYj7H-caX9rE0HP9Zsg9wdoLwewR1XrJ-W0nKWsfeZprXHkg-uKaQjf7omgVJwTdTbIJr6rrwoFN5P9lVr3sPchEAcTEQ_e_PrXL8DsTmxLAKTGXOBfotBBCPZ7BX7NJtmkCHBoMHaa9FQfmmiwlIpQ_caq2lRXJ-fWf7R3Oqo5-NXaC2UGE_oajRHc7IO1YOH4uN632QSigbH_0G00]--></g></svg>