<?xml version="1.0" encoding="UTF-8" standalone="no"?><svg xmlns="http://www.w3.org/2000/svg" xmlns:xlink="http://www.w3.org/1999/xlink" contentStyleType="text/css" height="307px" preserveAspectRatio="none" style="width:188px;height:307px;background:#FFFFFF;" version="1.1" viewBox="0 0 188 307" width="188px" zoomAndPan="magnify"><defs/><g><!--class vv.Items.Enemy--><a href="Enemy.html" target="_top" title="Enemy.html" xlink:actuate="onRequest" xlink:href="Enemy.html" xlink:show="new" xlink:title="Enemy.html" xlink:type="simple"><g id="elem_vv.Items.Enemy"><rect codeLine="5" fill="#F1F1F1" height="172.3994" id="vv.Items.Enemy" rx="2.5" ry="2.5" style="stroke:#181818;stroke-width:0.5;" width="167" x="14" y="109.4"/><ellipse cx="71.25" cy="128.8" fill="#ADD1B2" rx="11" ry="11" style="stroke:#181818;stroke-width:1.0;"/><path d="M66.25,129.9562 C66.25,132.4562 68.3906,134.2687 71.3125,134.2687 C72.5469,134.2687 73.7188,133.9718 74.4688,133.4562 C75.0781,133.0343 75.4063,132.6125 75.4063,132.2062 C75.4063,131.7375 74.9844,131.3312 74.4844,131.3312 C74.25,131.3312 74.0313,131.4093 73.8281,131.6125 C73.3906,132.05 73.3906,132.05 73.2188,132.1437 C72.7656,132.3781 72.125,132.5187 71.3594,132.5187 C69.3594,132.5187 68.0781,131.5031 68.0781,129.925 L68.0781,128.8781 C68.0781,127.175 69.2969,125.9718 71,125.9718 C71.5781,125.9718 72.1563,126.1125 72.625,126.3625 C73.0938,126.6281 73.2656,126.8156 73.3281,127.175 C73.4531,127.8468 73.7031,128.0968 74.2344,128.0968 C74.5156,128.0968 74.7969,127.9562 74.9844,127.7375 C75.1094,127.5656 75.1563,127.3937 75.1563,126.9562 L75.1563,125.5968 C75.1563,125.175 75.1406,125.0343 75.0156,124.8625 C74.8438,124.6125 74.5625,124.4562 74.2344,124.4562 C73.9219,124.4562 73.7188,124.5656 73.5,124.8312 C72.3281,124.3312 71.8906,124.2218 70.9375,124.2218 C68.2656,124.2218 66.25,126.2375 66.25,128.8625 L66.25,129.9562 Z " fill="#000000"/><text fill="#000000" font-family="sans-serif" font-size="14" lengthAdjust="spacing" textLength="44" x="91.75" y="127.4059">Enemy</text><text fill="#000000" font-family="sans-serif" font-size="10" lengthAdjust="spacing" textLength="38" x="94.75" y="140.4899">vv.Items</text><line style="stroke:#181818;stroke-width:0.5;" x1="15" x2="180" y1="148.1999" y2="148.1999"/><polygon fill="none" points="25,157.0999,29,161.0999,25,165.0999,21,161.0999" style="stroke:#B38D22;stroke-width:1.0;"/><text fill="#000000" font-family="sans-serif" font-size="14" lengthAdjust="spacing" textLength="141" x="34" y="165.2059">image: BufferedImage</text><ellipse cx="25" cy="178.8998" fill="none" rx="3" ry="3" style="stroke:#038048;stroke-width:1.0;"/><text fill="#000000" font-family="sans-serif" font-size="14" lengthAdjust="spacing" textLength="86" x="34" y="182.0058">isHit: boolean</text><ellipse cx="25" cy="195.6997" fill="none" rx="3" ry="3" style="stroke:#038048;stroke-width:1.0;"/><text fill="#000000" font-family="sans-serif" font-size="14" lengthAdjust="spacing" textLength="127" x="34" y="198.8057">isTargeted: boolean</text><line style="stroke:#181818;stroke-width:0.5;" x1="15" x2="180" y1="206.5997" y2="206.5997"/><ellipse cx="25" cy="220.4997" fill="#84BE84" rx="3" ry="3" style="stroke:#038048;stroke-width:1.0;"/><text fill="#000000" font-family="sans-serif" font-size="14" lengthAdjust="spacing" textLength="116" x="34" y="223.6056">Enemy(float, float)</text><ellipse cx="25" cy="237.2996" fill="#84BE84" rx="3" ry="3" style="stroke:#038048;stroke-width:1.0;"/><text fill="#000000" font-family="sans-serif" font-size="14" lengthAdjust="spacing" textLength="125" x="34" y="240.4056">takeDamage(): void</text><ellipse cx="25" cy="254.0995" fill="#84BE84" rx="3" ry="3" style="stroke:#038048;stroke-width:1.0;"/><text fill="#000000" font-family="sans-serif" font-size="14" lengthAdjust="spacing" textLength="90" x="34" y="257.2055">Update(): void</text><ellipse cx="25" cy="270.8994" fill="#84BE84" rx="3" ry="3" style="stroke:#038048;stroke-width:1.0;"/><text fill="#000000" font-family="sans-serif" font-size="14" lengthAdjust="spacing" textLength="134" x="34" y="274.0054">Draw(Graphics): void</text></g></a><!--class vv.Items.Character--><a href="Character.html" target="_top" title="Character.html" xlink:actuate="onRequest" xlink:href="Character.html" xlink:show="new" xlink:title="Character.html" xlink:type="simple"><g id="elem_vv.Items.Character"><rect codeLine="15" fill="#F1F1F1" height="42.3999" id="vv.Items.Character" rx="2.5" ry="2.5" style="stroke:#181818;stroke-width:0.5;" width="95" x="50" y="7"/><ellipse cx="65" cy="28.2" fill="#A9DCDF" rx="11" ry="11" style="stroke:#181818;stroke-width:1.0;"/><path d="M66.5313,30.1375 L66.8594,30.9343 L66.5781,30.9343 C66.125,30.9343 66,30.9656 65.8281,31.075 C65.5469,31.2156 65.375,31.5125 65.375,31.8093 C65.375,32.1062 65.5156,32.3562 65.75,32.5281 C65.9219,32.6531 66.1563,32.7 66.5781,32.7 L68.9375,32.7 C69.2969,32.7 69.5469,32.6687 69.6875,32.575 C69.9531,32.4343 70.125,32.1218 70.125,31.8093 C70.125,31.5437 69.9844,31.2781 69.75,31.1062 C69.5625,30.9812 69.4063,30.95 68.9531,30.9343 L65.5625,23.1062 L61.8438,23.1062 C61.3906,23.1062 61.25,23.1218 61.0781,23.2312 C60.8125,23.4031 60.6406,23.6843 60.6406,23.9812 C60.6406,24.2625 60.7813,24.5281 61.0313,24.7 C61.2031,24.825 61.3906,24.8562 61.8438,24.8562 L62.8125,24.8562 L60.2344,30.9343 C59.4844,30.9343 59.0781,31.2312 59.0781,31.8093 C59.0781,32.4187 59.4688,32.7 60.2656,32.7 L62.5313,32.7 C62.8906,32.7 63.1406,32.6687 63.2813,32.575 C63.5469,32.4187 63.7188,32.1218 63.7188,31.8093 C63.7188,31.5437 63.5781,31.2781 63.3438,31.1062 C63.1563,30.9656 63,30.9343 62.5313,30.9343 L62.2344,30.9343 L62.5781,30.1375 L66.5313,30.1375 Z M65.7656,28.3875 L63.3125,28.3875 L64.5469,25.5125 L65.7656,28.3875 Z " fill="#000000"/><text fill="#000000" font-family="sans-serif" font-size="14" font-style="italic" lengthAdjust="spacing" textLength="63" x="79" y="27.3999">Character</text><text fill="#000000" font-family="sans-serif" font-size="10" font-style="italic" lengthAdjust="spacing" textLength="38" x="91.5" y="41.8999">vv.Items</text></g></a><!--reverse link vv.Items.Character to vv.Items.Enemy--><g id="link_vv.Items.Character_vv.Items.Enemy"><path codeLine="17" d="M97.5,70.79 C97.5,82.53 97.5,95.75 97.5,109.07 " fill="none" id="vv.Items.Character-backto-vv.Items.Enemy" style="stroke:#181818;stroke-width:1.0;"/><polygon fill="none" points="90.5,70.81,97.5,50.81,104.5,70.81,90.5,70.81" style="stroke:#181818;stroke-width:1.0;"/></g><text fill="#888888" font-family="sans-serif" font-size="10" lengthAdjust="spacing" textLength="179" x="0" y="297.0894">UMLDoclet 2.1.0, PlantUML 1.2022.14</text><!--SRC=[XP9DIyD048Rl_egX8YJOXbOyXTA3HhIW86XFjOTfCcaMzoFiZf7wyT_DfZ4jDM0katcUOGVUNG00HmmQ5RaIKtgY4YsoiQ2DffDQGo4o0b8bRo4N93DtJ1LnOMhSy5IYSp2OEl51yUHoTgD9RLzqsuzdLHNDcPGR03huRQ9c2fRBfaO5AxbQmMTpeFzEXS8DnN3rbkTaAPlxjhFdmjq9Zc5jZ2JKX_mPxOQOiXxPh0foQP27q9HmBnbVAK6_9GXZg8p8zcvHPiWzFB7u7jnQB0kHkaFxlKi6ruujflmdeki2FIVxRqpTP1rLzz_6jLlICphz6esEacwlYhJtkJ6-B1xk4vFA-Z5SH9DeF8H7YPfh2cSLMIUC3i8V]--></g></svg>