<?xml version="1.0" encoding="UTF-8" standalone="no"?><svg xmlns="http://www.w3.org/2000/svg" xmlns:xlink="http://www.w3.org/1999/xlink" contentStyleType="text/css" height="324px" preserveAspectRatio="none" style="width:207px;height:324px;background:#FFFFFF;" version="1.1" viewBox="0 0 207 324" width="207px" zoomAndPan="magnify"><defs/><g><!--class vv.Items.Enemy--><a href="Enemy.html" target="_top" title="Enemy.html" xlink:actuate="onRequest" xlink:href="Enemy.html" xlink:show="new" xlink:title="Enemy.html" xlink:type="simple"><g id="elem_vv.Items.Enemy"><rect codeLine="5" fill="#F1F1F1" height="189.1993" id="vv.Items.Enemy" rx="2.5" ry="2.5" style="stroke:#181818;stroke-width:0.5;" width="191" x="9" y="109.4"/><ellipse cx="78.25" cy="128.8" fill="#ADD1B2" rx="11" ry="11" style="stroke:#181818;stroke-width:1.0;"/><path d="M73.25,129.9562 C73.25,132.4562 75.3906,134.2687 78.3125,134.2687 C79.5469,134.2687 80.7188,133.9718 81.4688,133.4562 C82.0781,133.0343 82.4063,132.6125 82.4063,132.2062 C82.4063,131.7375 81.9844,131.3312 81.4844,131.3312 C81.25,131.3312 81.0313,131.4093 80.8281,131.6125 C80.3906,132.05 80.3906,132.05 80.2188,132.1437 C79.7656,132.3781 79.125,132.5187 78.3594,132.5187 C76.3594,132.5187 75.0781,131.5031 75.0781,129.925 L75.0781,128.8781 C75.0781,127.175 76.2969,125.9718 78,125.9718 C78.5781,125.9718 79.1563,126.1125 79.625,126.3625 C80.0938,126.6281 80.2656,126.8156 80.3281,127.175 C80.4531,127.8468 80.7031,128.0968 81.2344,128.0968 C81.5156,128.0968 81.7969,127.9562 81.9844,127.7375 C82.1094,127.5656 82.1563,127.3937 82.1563,126.9562 L82.1563,125.5968 C82.1563,125.175 82.1406,125.0343 82.0156,124.8625 C81.8438,124.6125 81.5625,124.4562 81.2344,124.4562 C80.9219,124.4562 80.7188,124.5656 80.5,124.8312 C79.3281,124.3312 78.8906,124.2218 77.9375,124.2218 C75.2656,124.2218 73.25,126.2375 73.25,128.8625 L73.25,129.9562 Z " fill="#000000"/><text fill="#000000" font-family="sans-serif" font-size="14" lengthAdjust="spacing" textLength="44" x="98.75" y="127.4059">Enemy</text><text fill="#000000" font-family="sans-serif" font-size="10" lengthAdjust="spacing" textLength="38" x="101.75" y="140.4899">vv.Items</text><line style="stroke:#181818;stroke-width:0.5;" x1="10" x2="199" y1="148.1999" y2="148.1999"/><polygon fill="none" points="20,157.0999,24,161.0999,20,165.0999,16,161.0999" style="stroke:#B38D22;stroke-width:1.0;"/><text fill="#000000" font-family="sans-serif" font-size="14" lengthAdjust="spacing" textLength="141" x="29" y="165.2059">image: BufferedImage</text><ellipse cx="20" cy="178.8998" fill="none" rx="3" ry="3" style="stroke:#038048;stroke-width:1.0;"/><text fill="#000000" font-family="sans-serif" font-size="14" lengthAdjust="spacing" textLength="110" x="29" y="182.0058">isVisible: boolean</text><ellipse cx="20" cy="195.6997" fill="none" rx="3" ry="3" style="stroke:#038048;stroke-width:1.0;"/><text fill="#000000" font-family="sans-serif" font-size="14" lengthAdjust="spacing" textLength="128" x="29" y="198.8057">isInvincible: boolean</text><ellipse cx="20" cy="212.4997" fill="none" rx="3" ry="3" style="stroke:#038048;stroke-width:1.0;"/><text fill="#000000" font-family="sans-serif" font-size="14" lengthAdjust="spacing" textLength="165" x="29" y="215.6056">invincibleFrameStart: long</text><line style="stroke:#181818;stroke-width:0.5;" x1="10" x2="199" y1="223.3996" y2="223.3996"/><ellipse cx="20" cy="237.2996" fill="#84BE84" rx="3" ry="3" style="stroke:#038048;stroke-width:1.0;"/><text fill="#000000" font-family="sans-serif" font-size="14" lengthAdjust="spacing" textLength="116" x="29" y="240.4056">Enemy(float, float)</text><ellipse cx="20" cy="254.0995" fill="#84BE84" rx="3" ry="3" style="stroke:#038048;stroke-width:1.0;"/><text fill="#000000" font-family="sans-serif" font-size="14" lengthAdjust="spacing" textLength="125" x="29" y="257.2055">takeDamage(): void</text><ellipse cx="20" cy="270.8994" fill="#84BE84" rx="3" ry="3" style="stroke:#038048;stroke-width:1.0;"/><text fill="#000000" font-family="sans-serif" font-size="14" lengthAdjust="spacing" textLength="90" x="29" y="274.0054">Update(): void</text><ellipse cx="20" cy="287.6994" fill="#84BE84" rx="3" ry="3" style="stroke:#038048;stroke-width:1.0;"/><text fill="#000000" font-family="sans-serif" font-size="14" lengthAdjust="spacing" textLength="134" x="29" y="290.8053">Draw(Graphics): void</text></g></a><!--class vv.Items.Character--><a href="Character.html" target="_top" title="Character.html" xlink:actuate="onRequest" xlink:href="Character.html" xlink:show="new" xlink:title="Character.html" xlink:type="simple"><g id="elem_vv.Items.Character"><rect codeLine="16" fill="#F1F1F1" height="42.3999" id="vv.Items.Character" rx="2.5" ry="2.5" style="stroke:#181818;stroke-width:0.5;" width="95" x="57" y="7"/><ellipse cx="72" cy="28.2" fill="#A9DCDF" rx="11" ry="11" style="stroke:#181818;stroke-width:1.0;"/><path d="M73.5313,30.1375 L73.8594,30.9343 L73.5781,30.9343 C73.125,30.9343 73,30.9656 72.8281,31.075 C72.5469,31.2156 72.375,31.5125 72.375,31.8093 C72.375,32.1062 72.5156,32.3562 72.75,32.5281 C72.9219,32.6531 73.1563,32.7 73.5781,32.7 L75.9375,32.7 C76.2969,32.7 76.5469,32.6687 76.6875,32.575 C76.9531,32.4343 77.125,32.1218 77.125,31.8093 C77.125,31.5437 76.9844,31.2781 76.75,31.1062 C76.5625,30.9812 76.4063,30.95 75.9531,30.9343 L72.5625,23.1062 L68.8438,23.1062 C68.3906,23.1062 68.25,23.1218 68.0781,23.2312 C67.8125,23.4031 67.6406,23.6843 67.6406,23.9812 C67.6406,24.2625 67.7813,24.5281 68.0313,24.7 C68.2031,24.825 68.3906,24.8562 68.8438,24.8562 L69.8125,24.8562 L67.2344,30.9343 C66.4844,30.9343 66.0781,31.2312 66.0781,31.8093 C66.0781,32.4187 66.4688,32.7 67.2656,32.7 L69.5313,32.7 C69.8906,32.7 70.1406,32.6687 70.2813,32.575 C70.5469,32.4187 70.7188,32.1218 70.7188,31.8093 C70.7188,31.5437 70.5781,31.2781 70.3438,31.1062 C70.1563,30.9656 70,30.9343 69.5313,30.9343 L69.2344,30.9343 L69.5781,30.1375 L73.5313,30.1375 Z M72.7656,28.3875 L70.3125,28.3875 L71.5469,25.5125 L72.7656,28.3875 Z " fill="#000000"/><text fill="#000000" font-family="sans-serif" font-size="14" font-style="italic" lengthAdjust="spacing" textLength="63" x="86" y="27.3999">Character</text><text fill="#000000" font-family="sans-serif" font-size="10" font-style="italic" lengthAdjust="spacing" textLength="38" x="98.5" y="41.8999">vv.Items</text></g></a><!--reverse link vv.Items.Character to vv.Items.Enemy--><g id="link_vv.Items.Character_vv.Items.Enemy"><path codeLine="18" d="M104.5,70.63 C104.5,82.31 104.5,95.5 104.5,108.93 " fill="none" id="vv.Items.Character-backto-vv.Items.Enemy" style="stroke:#181818;stroke-width:1.0;"/><polygon fill="none" points="97.5,70.82,104.5,50.82,111.5,70.82,97.5,70.82" style="stroke:#181818;stroke-width:1.0;"/></g><text fill="#888888" font-family="sans-serif" font-size="10" lengthAdjust="spacing" textLength="179" x="7" y="313.8893">UMLDoclet 2.1.0, PlantUML 1.2022.14</text><!--SRC=[XP9DIyD048Rl_egX8gJOXbOyXTA3HYMW89HwgJrCaqcpk1zXTupKZ__k9erfgHNtCZllyx8xlBi008uOD2fo9QOqen8jih6WZQOJZw4G6G6faZUG2vAPErGLSM6ytEYfHEUWDt7YdQBnvVH6azeywxOVJQigJ9YKwm4w-6d2nWMBHLF3WfLSBk6ZER1UfqBXcYAuUirpifGbTTlHS-6UX1ChwHqhOoIXtcU9heHE_y8TlBK-WncZvGYaqUkTfnagoAL17a1J-Zl8-48nrlC4_GWg8x8TcvSPyX4zjlWMt5ai2v6wVVgrpH1NZYsc_2lCwm9hdUo_WNPE7sgtRuFTNdB4ElaS3W_Uf7rKqZNFZQdB_E4-Dgdqt-OY78UZ0JnArEnLEAl8Ec5qqFy6]--></g></svg>