<?xml version="1.0" encoding="UTF-8" standalone="no"?><svg xmlns="http://www.w3.org/2000/svg" xmlns:xlink="http://www.w3.org/1999/xlink" contentStyleType="text/css" height="307px" preserveAspectRatio="none" style="width:205px;height:307px;background:#FFFFFF;" version="1.1" viewBox="0 0 205 307" width="205px" zoomAndPan="magnify"><defs/><g><!--class vv.Items.Hero--><a href="Hero.html" target="_top" title="Hero.html" xlink:actuate="onRequest" xlink:href="Hero.html" xlink:show="new" xlink:title="Hero.html" xlink:type="simple"><g id="elem_vv.Items.Hero"><rect codeLine="5" fill="#F1F1F1" height="172.3994" id="vv.Items.Hero" rx="2.5" ry="2.5" style="stroke:#181818;stroke-width:0.5;" width="191" x="7" y="109.4"/><ellipse cx="79.25" cy="128.8" fill="#ADD1B2" rx="11" ry="11" style="stroke:#181818;stroke-width:1.0;"/><path d="M74.25,129.9562 C74.25,132.4562 76.3906,134.2687 79.3125,134.2687 C80.5469,134.2687 81.7188,133.9718 82.4688,133.4562 C83.0781,133.0343 83.4063,132.6125 83.4063,132.2062 C83.4063,131.7375 82.9844,131.3312 82.4844,131.3312 C82.25,131.3312 82.0313,131.4093 81.8281,131.6125 C81.3906,132.05 81.3906,132.05 81.2188,132.1437 C80.7656,132.3781 80.125,132.5187 79.3594,132.5187 C77.3594,132.5187 76.0781,131.5031 76.0781,129.925 L76.0781,128.8781 C76.0781,127.175 77.2969,125.9718 79,125.9718 C79.5781,125.9718 80.1563,126.1125 80.625,126.3625 C81.0938,126.6281 81.2656,126.8156 81.3281,127.175 C81.4531,127.8468 81.7031,128.0968 82.2344,128.0968 C82.5156,128.0968 82.7969,127.9562 82.9844,127.7375 C83.1094,127.5656 83.1563,127.3937 83.1563,126.9562 L83.1563,125.5968 C83.1563,125.175 83.1406,125.0343 83.0156,124.8625 C82.8438,124.6125 82.5625,124.4562 82.2344,124.4562 C81.9219,124.4562 81.7188,124.5656 81.5,124.8312 C80.3281,124.3312 79.8906,124.2218 78.9375,124.2218 C76.2656,124.2218 74.25,126.2375 74.25,128.8625 L74.25,129.9562 Z " fill="#000000"/><text fill="#000000" font-family="sans-serif" font-size="14" lengthAdjust="spacing" textLength="31" x="103.25" y="127.4059">Hero</text><text fill="#000000" font-family="sans-serif" font-size="10" lengthAdjust="spacing" textLength="38" x="99.75" y="140.4899">vv.Items</text><line style="stroke:#181818;stroke-width:0.5;" x1="8" x2="197" y1="148.1999" y2="148.1999"/><ellipse cx="18" cy="162.0999" fill="none" rx="3" ry="3" style="stroke:#038048;stroke-width:1.0;"/><text fill="#000000" font-family="sans-serif" font-size="14" lengthAdjust="spacing" textLength="110" x="27" y="165.2059">isVisible: boolean</text><ellipse cx="18" cy="178.8998" fill="none" rx="3" ry="3" style="stroke:#038048;stroke-width:1.0;"/><text fill="#000000" font-family="sans-serif" font-size="14" lengthAdjust="spacing" textLength="128" x="27" y="182.0058">isInvincible: boolean</text><ellipse cx="18" cy="195.6997" fill="none" rx="3" ry="3" style="stroke:#038048;stroke-width:1.0;"/><text fill="#000000" font-family="sans-serif" font-size="14" lengthAdjust="spacing" textLength="165" x="27" y="198.8057">invincibleFrameStart: long</text><line style="stroke:#181818;stroke-width:0.5;" x1="8" x2="197" y1="206.5997" y2="206.5997"/><ellipse cx="18" cy="220.4997" fill="#84BE84" rx="3" ry="3" style="stroke:#038048;stroke-width:1.0;"/><text fill="#000000" font-family="sans-serif" font-size="14" lengthAdjust="spacing" textLength="103" x="27" y="223.6056">Hero(float, float)</text><ellipse cx="18" cy="237.2996" fill="#84BE84" rx="3" ry="3" style="stroke:#038048;stroke-width:1.0;"/><text fill="#000000" font-family="sans-serif" font-size="14" lengthAdjust="spacing" textLength="125" x="27" y="240.4056">takeDamage(): void</text><ellipse cx="18" cy="254.0995" fill="#84BE84" rx="3" ry="3" style="stroke:#038048;stroke-width:1.0;"/><text fill="#000000" font-family="sans-serif" font-size="14" lengthAdjust="spacing" textLength="90" x="27" y="257.2055">Update(): void</text><ellipse cx="18" cy="270.8994" fill="#84BE84" rx="3" ry="3" style="stroke:#038048;stroke-width:1.0;"/><text fill="#000000" font-family="sans-serif" font-size="14" lengthAdjust="spacing" textLength="134" x="27" y="274.0054">Draw(Graphics): void</text></g></a><!--class vv.Items.Character--><a href="Character.html" target="_top" title="Character.html" xlink:actuate="onRequest" xlink:href="Character.html" xlink:show="new" xlink:title="Character.html" xlink:type="simple"><g id="elem_vv.Items.Character"><rect codeLine="15" fill="#F1F1F1" height="42.3999" id="vv.Items.Character" rx="2.5" ry="2.5" style="stroke:#181818;stroke-width:0.5;" width="95" x="55" y="7"/><ellipse cx="70" cy="28.2" fill="#A9DCDF" rx="11" ry="11" style="stroke:#181818;stroke-width:1.0;"/><path d="M71.5313,30.1375 L71.8594,30.9343 L71.5781,30.9343 C71.125,30.9343 71,30.9656 70.8281,31.075 C70.5469,31.2156 70.375,31.5125 70.375,31.8093 C70.375,32.1062 70.5156,32.3562 70.75,32.5281 C70.9219,32.6531 71.1563,32.7 71.5781,32.7 L73.9375,32.7 C74.2969,32.7 74.5469,32.6687 74.6875,32.575 C74.9531,32.4343 75.125,32.1218 75.125,31.8093 C75.125,31.5437 74.9844,31.2781 74.75,31.1062 C74.5625,30.9812 74.4063,30.95 73.9531,30.9343 L70.5625,23.1062 L66.8438,23.1062 C66.3906,23.1062 66.25,23.1218 66.0781,23.2312 C65.8125,23.4031 65.6406,23.6843 65.6406,23.9812 C65.6406,24.2625 65.7813,24.5281 66.0313,24.7 C66.2031,24.825 66.3906,24.8562 66.8438,24.8562 L67.8125,24.8562 L65.2344,30.9343 C64.4844,30.9343 64.0781,31.2312 64.0781,31.8093 C64.0781,32.4187 64.4688,32.7 65.2656,32.7 L67.5313,32.7 C67.8906,32.7 68.1406,32.6687 68.2813,32.575 C68.5469,32.4187 68.7188,32.1218 68.7188,31.8093 C68.7188,31.5437 68.5781,31.2781 68.3438,31.1062 C68.1563,30.9656 68,30.9343 67.5313,30.9343 L67.2344,30.9343 L67.5781,30.1375 L71.5313,30.1375 Z M70.7656,28.3875 L68.3125,28.3875 L69.5469,25.5125 L70.7656,28.3875 Z " fill="#000000"/><text fill="#000000" font-family="sans-serif" font-size="14" font-style="italic" lengthAdjust="spacing" textLength="63" x="84" y="27.3999">Character</text><text fill="#000000" font-family="sans-serif" font-size="10" font-style="italic" lengthAdjust="spacing" textLength="38" x="96.5" y="41.8999">vv.Items</text></g></a><!--reverse link vv.Items.Character to vv.Items.Hero--><g id="link_vv.Items.Character_vv.Items.Hero"><path codeLine="17" d="M102.5,70.79 C102.5,82.53 102.5,95.75 102.5,109.07 " fill="none" id="vv.Items.Character-backto-vv.Items.Hero" style="stroke:#181818;stroke-width:1.0;"/><polygon fill="none" points="95.5,70.81,102.5,50.81,109.5,70.81,95.5,70.81" style="stroke:#181818;stroke-width:1.0;"/></g><text fill="#888888" font-family="sans-serif" font-size="10" lengthAdjust="spacing" textLength="179" x="6" y="297.0894">UMLDoclet 2.1.0, PlantUML 1.2022.14</text><!--SRC=[XP9FIyD04CNlVegX8AJOXbOyXTABGIqe2ALUQW_JPDeiRdR2pX3nttStsyQsQiMzpCxxFNROjmi08AJWi2IfCACfLUXHsODZHoSDXiBa15HM-W8hGpQNdsf9Md0ZR_JCeWXqHc9UAHbUZ6_8ywDhsy6uhkE9KYaTG86l9WuccCz3YGijxM81RvlJmZepyc34B2qbi6IsXEwGJLnjNFONti4htrnngkWr0SjklVU4gT7ACceFDgMxPufFb6A9Qugw2THiyZsRLJdg4Jtr-1nTUwmAayaX_TWcX4jHZvd-YkgomA2J_pUldRC9RRTlaziEEM8TlVVxtoDlNunSm2lcK6PtjobdjlaJv_4m7lJWtgBJHeNJchmOTb7t4m00]--></g></svg>