<?xml version="1.0" encoding="UTF-8" standalone="no"?><svg xmlns="http://www.w3.org/2000/svg" xmlns:xlink="http://www.w3.org/1999/xlink" contentStyleType="text/css" height="290px" preserveAspectRatio="none" style="width:187px;height:290px;background:#FFFFFF;" version="1.1" viewBox="0 0 187 290" width="187px" zoomAndPan="magnify"><defs/><g><!--class VV.Items.Hero--><a href="Hero.html" target="_top" title="Hero.html" xlink:actuate="onRequest" xlink:href="Hero.html" xlink:show="new" xlink:title="Hero.html" xlink:type="simple"><g id="elem_VV.Items.Hero"><rect codeLine="5" fill="#F1F1F1" height="155.5995" id="VV.Items.Hero" rx="2.5" ry="2.5" style="stroke:#181818;stroke-width:0.5;" width="167" x="13" y="109"/><ellipse cx="71.25" cy="128.4" fill="#ADD1B2" rx="11" ry="11" style="stroke:#181818;stroke-width:1.0;"/><path d="M66.25,129.5562 C66.25,132.0562 68.3906,133.8687 71.3125,133.8687 C72.5469,133.8687 73.7188,133.5718 74.4688,133.0562 C75.0781,132.6343 75.4063,132.2125 75.4063,131.8062 C75.4063,131.3375 74.9844,130.9312 74.4844,130.9312 C74.25,130.9312 74.0313,131.0093 73.8281,131.2125 C73.3906,131.65 73.3906,131.65 73.2188,131.7437 C72.7656,131.9781 72.125,132.1187 71.3594,132.1187 C69.3594,132.1187 68.0781,131.1031 68.0781,129.525 L68.0781,128.4781 C68.0781,126.775 69.2969,125.5718 71,125.5718 C71.5781,125.5718 72.1563,125.7125 72.625,125.9625 C73.0938,126.2281 73.2656,126.4156 73.3281,126.775 C73.4531,127.4468 73.7031,127.6968 74.2344,127.6968 C74.5156,127.6968 74.7969,127.5562 74.9844,127.3375 C75.1094,127.1656 75.1563,126.9937 75.1563,126.5562 L75.1563,125.1968 C75.1563,124.775 75.1406,124.6343 75.0156,124.4625 C74.8438,124.2125 74.5625,124.0562 74.2344,124.0562 C73.9219,124.0562 73.7188,124.1656 73.5,124.4312 C72.3281,123.9312 71.8906,123.8218 70.9375,123.8218 C68.2656,123.8218 66.25,125.8375 66.25,128.4625 L66.25,129.5562 Z " fill="#000000"/><text fill="#000000" font-family="sans-serif" font-size="14" lengthAdjust="spacing" textLength="31" x="97.25" y="127.0059">Hero</text><text fill="#000000" font-family="sans-serif" font-size="10" lengthAdjust="spacing" textLength="42" x="91.75" y="140.0899">VV.Items</text><line style="stroke:#181818;stroke-width:0.5;" x1="14" x2="179" y1="147.7999" y2="147.7999"/><rect fill="none" height="6" style="stroke:#C82930;stroke-width:1.0;" width="6" x="21" y="158.6999"/><text fill="#000000" font-family="sans-serif" font-size="14" lengthAdjust="spacing" textLength="141" x="33" y="164.8059">image: BufferedImage</text><rect fill="none" height="6" style="stroke:#C82930;stroke-width:1.0;" width="6" x="21" y="175.4998"/><text fill="#000000" font-family="sans-serif" font-size="14" lengthAdjust="spacing" textLength="115" x="33" y="181.6058">isDemon: boolean</text><line style="stroke:#181818;stroke-width:0.5;" x1="14" x2="179" y1="189.3998" y2="189.3998"/><ellipse cx="24" cy="203.2997" fill="#84BE84" rx="3" ry="3" style="stroke:#038048;stroke-width:1.0;"/><text fill="#000000" font-family="sans-serif" font-size="14" lengthAdjust="spacing" textLength="103" x="33" y="206.4057">Hero(float, float)</text><ellipse cx="24" cy="220.0997" fill="#84BE84" rx="3" ry="3" style="stroke:#038048;stroke-width:1.0;"/><text fill="#000000" font-family="sans-serif" font-size="14" lengthAdjust="spacing" textLength="90" x="33" y="223.2056">Update(): void</text><rect fill="#F24D5C" height="6" style="stroke:#C82930;stroke-width:1.0;" width="6" x="21" y="233.8996"/><text fill="#000000" font-family="sans-serif" font-size="14" lengthAdjust="spacing" textLength="99" x="33" y="240.0056">GetInput(): void</text><ellipse cx="24" cy="253.6995" fill="#84BE84" rx="3" ry="3" style="stroke:#038048;stroke-width:1.0;"/><text fill="#000000" font-family="sans-serif" font-size="14" lengthAdjust="spacing" textLength="134" x="33" y="256.8055">Draw(Graphics): void</text></g></a><!--class VV.Items.Character--><a href="Character.html" target="_top" title="Character.html" xlink:actuate="onRequest" xlink:href="Character.html" xlink:show="new" xlink:title="Character.html" xlink:type="simple"><g id="elem_VV.Items.Character"><rect codeLine="14" fill="#F1F1F1" height="42.3999" id="VV.Items.Character" rx="2.5" ry="2.5" style="stroke:#181818;stroke-width:0.5;" width="95" x="49" y="7"/><ellipse cx="64" cy="28.2" fill="#A9DCDF" rx="11" ry="11" style="stroke:#181818;stroke-width:1.0;"/><path d="M65.5313,30.1375 L65.8594,30.9343 L65.5781,30.9343 C65.125,30.9343 65,30.9656 64.8281,31.075 C64.5469,31.2156 64.375,31.5125 64.375,31.8093 C64.375,32.1062 64.5156,32.3562 64.75,32.5281 C64.9219,32.6531 65.1563,32.7 65.5781,32.7 L67.9375,32.7 C68.2969,32.7 68.5469,32.6687 68.6875,32.575 C68.9531,32.4343 69.125,32.1218 69.125,31.8093 C69.125,31.5437 68.9844,31.2781 68.75,31.1062 C68.5625,30.9812 68.4063,30.95 67.9531,30.9343 L64.5625,23.1062 L60.8438,23.1062 C60.3906,23.1062 60.25,23.1218 60.0781,23.2312 C59.8125,23.4031 59.6406,23.6843 59.6406,23.9812 C59.6406,24.2625 59.7813,24.5281 60.0313,24.7 C60.2031,24.825 60.3906,24.8562 60.8438,24.8562 L61.8125,24.8562 L59.2344,30.9343 C58.4844,30.9343 58.0781,31.2312 58.0781,31.8093 C58.0781,32.4187 58.4688,32.7 59.2656,32.7 L61.5313,32.7 C61.8906,32.7 62.1406,32.6687 62.2813,32.575 C62.5469,32.4187 62.7188,32.1218 62.7188,31.8093 C62.7188,31.5437 62.5781,31.2781 62.3438,31.1062 C62.1563,30.9656 62,30.9343 61.5313,30.9343 L61.2344,30.9343 L61.5781,30.1375 L65.5313,30.1375 Z M64.7656,28.3875 L62.3125,28.3875 L63.5469,25.5125 L64.7656,28.3875 Z " fill="#000000"/><text fill="#000000" font-family="sans-serif" font-size="14" font-style="italic" lengthAdjust="spacing" textLength="63" x="78" y="27.3999">Character</text><text fill="#000000" font-family="sans-serif" font-size="10" font-style="italic" lengthAdjust="spacing" textLength="42" x="88.5" y="41.8999">VV.Items</text></g></a><!--reverse link VV.Items.Character to VV.Items.Hero--><g id="link_VV.Items.Character_VV.Items.Hero"><path codeLine="16" d="M96.5,69.85 C96.5,81.78 96.5,95.22 96.5,108.63 " fill="none" id="VV.Items.Character-backto-VV.Items.Hero" style="stroke:#181818;stroke-width:1.0;"/><polygon fill="none" points="89.5,70.2,96.5,50.2,103.5,70.2,89.5,70.2" style="stroke:#181818;stroke-width:1.0;"/></g><text fill="#888888" font-family="sans-serif" font-size="10" lengthAdjust="spacing" textLength="179" x="0" y="279.8895">UMLDoclet 2.1.0, PlantUML 1.2022.14</text><!--SRC=[XP5FQy904CNl_HI3K8YeGKjFGJoq0IkqK2XwiHx6PD8ixEw4tT7IVz-zMOtHraBtCZllDxnbtm00U1AmQCXNcD4JLUXGs85bInSrXbBb16GgUOD2aSxzRzMGb5pBEptJw3rqnbwzKpAwdjoHusVRjCF9OX7FX8pl07euD74OWkKobBWKerSh-DYvXJDG1byeWPjDKP2ZV1RQ4-fJCcmJM3DhGjkINh2B2iqeVTYLxf7Dgno5ecu2MrRvqMrAChFLHiv8BtNu6aqTLgNA_2dzsdySrruSPdAMm6s9GIVtRmpjP9r5Usy2sJ_on-ZuSp3ucMIp2B815yoXp1_kKyvqlUghU1GF-_2eqKgjmkMMd5Tie-ut]--></g></svg>