<?xml version="1.0" encoding="UTF-8" standalone="no"?><svg xmlns="http://www.w3.org/2000/svg" xmlns:xlink="http://www.w3.org/1999/xlink" contentStyleType="text/css" height="432px" preserveAspectRatio="none" style="width:211px;height:432px;background:#FFFFFF;" version="1.1" viewBox="0 0 211 432" width="211px" zoomAndPan="magnify"><defs/><g><!--class VV.Items.Item--><a href="Item.html" target="_top" title="Item.html" xlink:actuate="onRequest" xlink:href="Item.html" xlink:show="new" xlink:title="Item.html" xlink:type="simple"><g id="elem_VV.Items.Item"><rect codeLine="5" fill="#F1F1F1" height="398.5984" id="VV.Items.Item" rx="2.5" ry="2.5" style="stroke:#181818;stroke-width:0.5;" width="190" x="7" y="7"/><ellipse cx="76.75" cy="28.2" fill="#A9DCDF" rx="11" ry="11" style="stroke:#181818;stroke-width:1.0;"/><path d="M78.2813,30.1375 L78.6094,30.9343 L78.3281,30.9343 C77.875,30.9343 77.75,30.9656 77.5781,31.075 C77.2969,31.2156 77.125,31.5125 77.125,31.8093 C77.125,32.1062 77.2656,32.3562 77.5,32.5281 C77.6719,32.6531 77.9063,32.7 78.3281,32.7 L80.6875,32.7 C81.0469,32.7 81.2969,32.6687 81.4375,32.575 C81.7031,32.4343 81.875,32.1218 81.875,31.8093 C81.875,31.5437 81.7344,31.2781 81.5,31.1062 C81.3125,30.9812 81.1563,30.95 80.7031,30.9343 L77.3125,23.1062 L73.5938,23.1062 C73.1406,23.1062 73,23.1218 72.8281,23.2312 C72.5625,23.4031 72.3906,23.6843 72.3906,23.9812 C72.3906,24.2625 72.5313,24.5281 72.7813,24.7 C72.9531,24.825 73.1406,24.8562 73.5938,24.8562 L74.5625,24.8562 L71.9844,30.9343 C71.2344,30.9343 70.8281,31.2312 70.8281,31.8093 C70.8281,32.4187 71.2188,32.7 72.0156,32.7 L74.2813,32.7 C74.6406,32.7 74.8906,32.6687 75.0313,32.575 C75.2969,32.4187 75.4688,32.1218 75.4688,31.8093 C75.4688,31.5437 75.3281,31.2781 75.0938,31.1062 C74.9063,30.9656 74.75,30.9343 74.2813,30.9343 L73.9844,30.9343 L74.3281,30.1375 L78.2813,30.1375 Z M77.5156,28.3875 L75.0625,28.3875 L76.2969,25.5125 L77.5156,28.3875 Z " fill="#000000"/><text fill="#000000" font-family="sans-serif" font-size="14" font-style="italic" lengthAdjust="spacing" textLength="28" x="104.25" y="27.3999">Item</text><text fill="#000000" font-family="sans-serif" font-size="10" font-style="italic" lengthAdjust="spacing" textLength="42" x="97.25" y="41.8999">VV.Items</text><line style="stroke:#181818;stroke-width:0.5;" x1="8" x2="196" y1="49.3999" y2="49.3999"/><polygon fill="none" points="18,58.2999,22,62.2999,18,66.2999,14,62.2999" style="stroke:#B38D22;stroke-width:1.0;"/><text fill="#000000" font-family="sans-serif" font-size="14" lengthAdjust="spacing" textLength="42" x="27" y="66.4058">x: float</text><polygon fill="none" points="18,75.0998,22,79.0998,18,83.0998,14,79.0998" style="stroke:#B38D22;stroke-width:1.0;"/><text fill="#000000" font-family="sans-serif" font-size="14" lengthAdjust="spacing" textLength="42" x="27" y="83.2058">y: float</text><polygon fill="none" points="18,91.8997,22,95.8997,18,99.8997,14,95.8997" style="stroke:#B38D22;stroke-width:1.0;"/><text fill="#000000" font-family="sans-serif" font-size="14" lengthAdjust="spacing" textLength="56" x="27" y="100.0057">width: int</text><polygon fill="none" points="18,108.6996,22,112.6996,18,116.6996,14,112.6996" style="stroke:#B38D22;stroke-width:1.0;"/><text fill="#000000" font-family="sans-serif" font-size="14" lengthAdjust="spacing" textLength="62" x="27" y="116.8056">height: int</text><polygon fill="none" points="18,125.4996,22,129.4996,18,133.4996,14,129.4996" style="stroke:#B38D22;stroke-width:1.0;"/><text fill="#000000" font-family="sans-serif" font-size="14" lengthAdjust="spacing" textLength="119" x="27" y="133.6056">bounds: Rectangle</text><polygon fill="none" points="18,142.2995,22,146.2995,18,150.2995,14,146.2995" style="stroke:#B38D22;stroke-width:1.0;"/><text fill="#000000" font-family="sans-serif" font-size="14" lengthAdjust="spacing" textLength="164" x="27" y="150.4055">normalBounds: Rectangle</text><polygon fill="none" points="18,159.0994,22,163.0994,18,167.0994,14,163.0994" style="stroke:#B38D22;stroke-width:1.0;"/><text fill="#000000" font-family="sans-serif" font-size="14" lengthAdjust="spacing" textLength="158" x="27" y="167.2054">attackBounds: Rectangle</text><line style="stroke:#181818;stroke-width:0.5;" x1="8" x2="196" y1="174.9994" y2="174.9994"/><ellipse cx="18" cy="188.8994" fill="#84BE84" rx="3" ry="3" style="stroke:#038048;stroke-width:1.0;"/><text fill="#000000" font-family="sans-serif" font-size="14" lengthAdjust="spacing" textLength="146" x="27" y="192.0053">Item(float, float, int, int)</text><ellipse cx="18" cy="206.7493" fill="#84BE84" rx="3" ry="3" style="stroke:#038048;stroke-width:1.0;"/><text fill="#000000" font-family="sans-serif" font-size="14" font-style="italic" lengthAdjust="spacing" textLength="90" x="27" y="211.1993">Update(): void</text><ellipse cx="18" cy="225.6492" fill="#84BE84" rx="3" ry="3" style="stroke:#038048;stroke-width:1.0;"/><text fill="#000000" font-family="sans-serif" font-size="14" font-style="italic" lengthAdjust="spacing" textLength="134" x="27" y="230.0992">Draw(Graphics): void</text><ellipse cx="18" cy="243.4991" fill="#84BE84" rx="3" ry="3" style="stroke:#038048;stroke-width:1.0;"/><text fill="#000000" font-family="sans-serif" font-size="14" lengthAdjust="spacing" textLength="77" x="27" y="246.6051">GetX(): float</text><ellipse cx="18" cy="260.299" fill="#84BE84" rx="3" ry="3" style="stroke:#038048;stroke-width:1.0;"/><text fill="#000000" font-family="sans-serif" font-size="14" lengthAdjust="spacing" textLength="77" x="27" y="263.405">GetY(): float</text><ellipse cx="18" cy="277.099" fill="#84BE84" rx="3" ry="3" style="stroke:#038048;stroke-width:1.0;"/><text fill="#000000" font-family="sans-serif" font-size="14" lengthAdjust="spacing" textLength="92" x="27" y="280.205">GetWidth(): int</text><ellipse cx="18" cy="293.8989" fill="#84BE84" rx="3" ry="3" style="stroke:#038048;stroke-width:1.0;"/><text fill="#000000" font-family="sans-serif" font-size="14" lengthAdjust="spacing" textLength="97" x="27" y="297.0049">GetHeight(): int</text><ellipse cx="18" cy="310.6988" fill="#84BE84" rx="3" ry="3" style="stroke:#038048;stroke-width:1.0;"/><text fill="#000000" font-family="sans-serif" font-size="14" lengthAdjust="spacing" textLength="101" x="27" y="313.8048">SetX(float): void</text><ellipse cx="18" cy="327.4988" fill="#84BE84" rx="3" ry="3" style="stroke:#038048;stroke-width:1.0;"/><text fill="#000000" font-family="sans-serif" font-size="14" lengthAdjust="spacing" textLength="101" x="27" y="330.6047">SetY(float): void</text><ellipse cx="18" cy="344.2987" fill="#84BE84" rx="3" ry="3" style="stroke:#038048;stroke-width:1.0;"/><text fill="#000000" font-family="sans-serif" font-size="14" lengthAdjust="spacing" textLength="116" x="27" y="347.4047">SetWidth(int): void</text><ellipse cx="18" cy="361.0986" fill="#84BE84" rx="3" ry="3" style="stroke:#038048;stroke-width:1.0;"/><text fill="#000000" font-family="sans-serif" font-size="14" lengthAdjust="spacing" textLength="121" x="27" y="364.2046">SetHeight(int): void</text><ellipse cx="18" cy="377.8985" fill="#84BE84" rx="3" ry="3" style="stroke:#038048;stroke-width:1.0;"/><text fill="#000000" font-family="sans-serif" font-size="14" lengthAdjust="spacing" textLength="147" x="27" y="381.0045">SetNormalMode(): void</text><ellipse cx="18" cy="394.6985" fill="#84BE84" rx="3" ry="3" style="stroke:#038048;stroke-width:1.0;"/><text fill="#000000" font-family="sans-serif" font-size="14" lengthAdjust="spacing" textLength="140" x="27" y="397.8044">SetAttackMode(): void</text></g></a><text fill="#888888" font-family="sans-serif" font-size="10" lengthAdjust="spacing" textLength="179" x="12" y="421.8884">UMLDoclet 2.1.0, PlantUML 1.2022.14</text><!--SRC=[TP9HJy8m58NV_HKt69CHo0B6fyMGQ4ZGH8oHW1hquT9TMEFMBkqLHC9_ToqWoDWUUjFltFQifmK0iCIWC2ERew01vMYGjG6b5PqLCYGo9g0ivoLC9QMnFQOPSQ8Bx3bEB1iK3295Qw5sRUKFHUshpZrJzgwsqrPdD0eTiJL02xk97s4yTYLCE4i_Fc3bjtNV-NS4qrGZxycoH1OovYG2gGvOGdAMy16Sw2yLsmYUIJ2gMKfxIMcJONfRtO3CA3wh6nhk087_ioPiIs7kX_fVrsgNrHeQmpn6fg0UmLpB-6HBr-0Yw1dC4odiSMEZH_pgbl-Fm-6tq_Z51UMamrISSEVJAYa3P-2tANaFd4cbj35o9pyXRiqgr4T_4NqTbvDnyes_XfAythn4GOh9m5HhLuRzXwuMQV7MByDss6h2KugA2meNSp9MQXNKVm40]--></g></svg>