<?xml version="1.0" encoding="UTF-8" standalone="no"?><svg xmlns="http://www.w3.org/2000/svg" xmlns:xlink="http://www.w3.org/1999/xlink" contentStyleType="text/css" height="432px" preserveAspectRatio="none" style="width:211px;height:432px;background:#FFFFFF;" version="1.1" viewBox="0 0 211 432" width="211px" zoomAndPan="magnify"><defs/><g><!--class vv.Items.Item--><a href="Item.html" target="_top" title="Item.html" xlink:actuate="onRequest" xlink:href="Item.html" xlink:show="new" xlink:title="Item.html" xlink:type="simple"><g id="elem_vv.Items.Item"><rect codeLine="5" fill="#F1F1F1" height="398.5984" id="vv.Items.Item" rx="2.5" ry="2.5" style="stroke:#181818;stroke-width:0.5;" width="190" x="7" y="7"/><ellipse cx="78.75" cy="28.2" fill="#A9DCDF" rx="11" ry="11" style="stroke:#181818;stroke-width:1.0;"/><path d="M80.2813,30.1375 L80.6094,30.9343 L80.3281,30.9343 C79.875,30.9343 79.75,30.9656 79.5781,31.075 C79.2969,31.2156 79.125,31.5125 79.125,31.8093 C79.125,32.1062 79.2656,32.3562 79.5,32.5281 C79.6719,32.6531 79.9063,32.7 80.3281,32.7 L82.6875,32.7 C83.0469,32.7 83.2969,32.6687 83.4375,32.575 C83.7031,32.4343 83.875,32.1218 83.875,31.8093 C83.875,31.5437 83.7344,31.2781 83.5,31.1062 C83.3125,30.9812 83.1563,30.95 82.7031,30.9343 L79.3125,23.1062 L75.5938,23.1062 C75.1406,23.1062 75,23.1218 74.8281,23.2312 C74.5625,23.4031 74.3906,23.6843 74.3906,23.9812 C74.3906,24.2625 74.5313,24.5281 74.7813,24.7 C74.9531,24.825 75.1406,24.8562 75.5938,24.8562 L76.5625,24.8562 L73.9844,30.9343 C73.2344,30.9343 72.8281,31.2312 72.8281,31.8093 C72.8281,32.4187 73.2188,32.7 74.0156,32.7 L76.2813,32.7 C76.6406,32.7 76.8906,32.6687 77.0313,32.575 C77.2969,32.4187 77.4688,32.1218 77.4688,31.8093 C77.4688,31.5437 77.3281,31.2781 77.0938,31.1062 C76.9063,30.9656 76.75,30.9343 76.2813,30.9343 L75.9844,30.9343 L76.3281,30.1375 L80.2813,30.1375 Z M79.5156,28.3875 L77.0625,28.3875 L78.2969,25.5125 L79.5156,28.3875 Z " fill="#000000"/><text fill="#000000" font-family="sans-serif" font-size="14" font-style="italic" lengthAdjust="spacing" textLength="28" x="104.25" y="27.3999">Item</text><text fill="#000000" font-family="sans-serif" font-size="10" font-style="italic" lengthAdjust="spacing" textLength="38" x="99.25" y="41.8999">vv.Items</text><line style="stroke:#181818;stroke-width:0.5;" x1="8" x2="196" y1="49.3999" y2="49.3999"/><polygon fill="none" points="18,58.2999,22,62.2999,18,66.2999,14,62.2999" style="stroke:#B38D22;stroke-width:1.0;"/><text fill="#000000" font-family="sans-serif" font-size="14" lengthAdjust="spacing" textLength="42" x="27" y="66.4058">x: float</text><polygon fill="none" points="18,75.0998,22,79.0998,18,83.0998,14,79.0998" style="stroke:#B38D22;stroke-width:1.0;"/><text fill="#000000" font-family="sans-serif" font-size="14" lengthAdjust="spacing" textLength="42" x="27" y="83.2058">y: float</text><polygon fill="none" points="18,91.8997,22,95.8997,18,99.8997,14,95.8997" style="stroke:#B38D22;stroke-width:1.0;"/><text fill="#000000" font-family="sans-serif" font-size="14" lengthAdjust="spacing" textLength="56" x="27" y="100.0057">width: int</text><polygon fill="none" points="18,108.6996,22,112.6996,18,116.6996,14,112.6996" style="stroke:#B38D22;stroke-width:1.0;"/><text fill="#000000" font-family="sans-serif" font-size="14" lengthAdjust="spacing" textLength="62" x="27" y="116.8056">height: int</text><polygon fill="none" points="18,125.4996,22,129.4996,18,133.4996,14,129.4996" style="stroke:#B38D22;stroke-width:1.0;"/><text fill="#000000" font-family="sans-serif" font-size="14" lengthAdjust="spacing" textLength="119" x="27" y="133.6056">bounds: Rectangle</text><polygon fill="none" points="18,142.2995,22,146.2995,18,150.2995,14,146.2995" style="stroke:#B38D22;stroke-width:1.0;"/><text fill="#000000" font-family="sans-serif" font-size="14" lengthAdjust="spacing" textLength="164" x="27" y="150.4055">normalBounds: Rectangle</text><polygon fill="none" points="18,159.0994,22,163.0994,18,167.0994,14,163.0994" style="stroke:#B38D22;stroke-width:1.0;"/><text fill="#000000" font-family="sans-serif" font-size="14" lengthAdjust="spacing" textLength="158" x="27" y="167.2054">attackBounds: Rectangle</text><line style="stroke:#181818;stroke-width:0.5;" x1="8" x2="196" y1="174.9994" y2="174.9994"/><ellipse cx="18" cy="188.8994" fill="#84BE84" rx="3" ry="3" style="stroke:#038048;stroke-width:1.0;"/><text fill="#000000" font-family="sans-serif" font-size="14" lengthAdjust="spacing" textLength="146" x="27" y="192.0053">Item(float, float, int, int)</text><ellipse cx="18" cy="206.7493" fill="#84BE84" rx="3" ry="3" style="stroke:#038048;stroke-width:1.0;"/><text fill="#000000" font-family="sans-serif" font-size="14" font-style="italic" lengthAdjust="spacing" textLength="90" x="27" y="211.1993">Update(): void</text><ellipse cx="18" cy="225.6492" fill="#84BE84" rx="3" ry="3" style="stroke:#038048;stroke-width:1.0;"/><text fill="#000000" font-family="sans-serif" font-size="14" font-style="italic" lengthAdjust="spacing" textLength="134" x="27" y="230.0992">Draw(Graphics): void</text><ellipse cx="18" cy="243.4991" fill="#84BE84" rx="3" ry="3" style="stroke:#038048;stroke-width:1.0;"/><text fill="#000000" font-family="sans-serif" font-size="14" lengthAdjust="spacing" textLength="77" x="27" y="246.6051">GetX(): float</text><ellipse cx="18" cy="260.299" fill="#84BE84" rx="3" ry="3" style="stroke:#038048;stroke-width:1.0;"/><text fill="#000000" font-family="sans-serif" font-size="14" lengthAdjust="spacing" textLength="77" x="27" y="263.405">GetY(): float</text><ellipse cx="18" cy="277.099" fill="#84BE84" rx="3" ry="3" style="stroke:#038048;stroke-width:1.0;"/><text fill="#000000" font-family="sans-serif" font-size="14" lengthAdjust="spacing" textLength="92" x="27" y="280.205">GetWidth(): int</text><ellipse cx="18" cy="293.8989" fill="#84BE84" rx="3" ry="3" style="stroke:#038048;stroke-width:1.0;"/><text fill="#000000" font-family="sans-serif" font-size="14" lengthAdjust="spacing" textLength="97" x="27" y="297.0049">GetHeight(): int</text><ellipse cx="18" cy="310.6988" fill="#84BE84" rx="3" ry="3" style="stroke:#038048;stroke-width:1.0;"/><text fill="#000000" font-family="sans-serif" font-size="14" lengthAdjust="spacing" textLength="101" x="27" y="313.8048">SetX(float): void</text><ellipse cx="18" cy="327.4988" fill="#84BE84" rx="3" ry="3" style="stroke:#038048;stroke-width:1.0;"/><text fill="#000000" font-family="sans-serif" font-size="14" lengthAdjust="spacing" textLength="101" x="27" y="330.6047">SetY(float): void</text><ellipse cx="18" cy="344.2987" fill="#84BE84" rx="3" ry="3" style="stroke:#038048;stroke-width:1.0;"/><text fill="#000000" font-family="sans-serif" font-size="14" lengthAdjust="spacing" textLength="116" x="27" y="347.4047">SetWidth(int): void</text><ellipse cx="18" cy="361.0986" fill="#84BE84" rx="3" ry="3" style="stroke:#038048;stroke-width:1.0;"/><text fill="#000000" font-family="sans-serif" font-size="14" lengthAdjust="spacing" textLength="121" x="27" y="364.2046">SetHeight(int): void</text><ellipse cx="18" cy="377.8985" fill="#84BE84" rx="3" ry="3" style="stroke:#038048;stroke-width:1.0;"/><text fill="#000000" font-family="sans-serif" font-size="14" lengthAdjust="spacing" textLength="147" x="27" y="381.0045">SetNormalMode(): void</text><ellipse cx="18" cy="394.6985" fill="#84BE84" rx="3" ry="3" style="stroke:#038048;stroke-width:1.0;"/><text fill="#000000" font-family="sans-serif" font-size="14" lengthAdjust="spacing" textLength="140" x="27" y="397.8044">SetAttackMode(): void</text></g></a><text fill="#888888" font-family="sans-serif" font-size="10" lengthAdjust="spacing" textLength="179" x="12" y="421.8884">UMLDoclet 2.1.0, PlantUML 1.2022.14</text><!--SRC=[TP9HJy8m58NV_HKt69CHo0B6fyMGQ4ZGH8oH43N8mwMxiCQkNTRh40d_tRM0A6Dxw4s_SzkpdXO0m1A3nfHiXe96b66ER7BGHjDPAKCYOm9ACrx1N9AAxJ5DYHDJOiznPZb7mI0KMWkDQok_AUfUzUwPqdUzctPwHH4wOXk05lOJFy9auagOSAgcKrZxRTrt_XN1N1da0rbLo5B6d4GWzH-Ma5maV0HdvbF7De9d4enweUWWQPEdg6xh6v0PnKTzGyiT8F1_rePTAStzqFpjMk-psa1hdCN853GZA8oCJxRqSrm6WnopH0fxtDWQ4B-wvV_ZSFZjD7vnGJdfRofEkFDfLPIHC_3RLBn7pgHMsXgvavyGTsOrwgE_YA69gyau-SPVGqNUR5-Y8CsKmzmOLyR3XxuHgdphbs4txBJXIQ7cai95GRcLHWVD7m00]--></g></svg>