<?xml version="1.0" encoding="UTF-8" standalone="no"?><svg xmlns="http://www.w3.org/2000/svg" xmlns:xlink="http://www.w3.org/1999/xlink" contentStyleType="text/css" height="1299px" preserveAspectRatio="none" style="width:1177px;height:1299px;background:#FFFFFF;" version="1.1" viewBox="0 0 1177 1299" width="1177px" zoomAndPan="magnify"><defs/><g><!--cluster vv.Items--><g id="cluster_vv.Items"><path d="M8.5,6.294 L66.5,6.294 A3.75,3.75 0 0 1 69,8.794 L76,29.0939 L1167.5,29.0939 A2.5,2.5 0 0 1 1170,31.5939 L1170,1270.994 A2.5,2.5 0 0 1 1167.5,1273.494 L8.5,1273.494 A2.5,2.5 0 0 1 6,1270.994 L6,8.794 A2.5,2.5 0 0 1 8.5,6.294 " fill="none" style="stroke:#000000;stroke-width:1.5;"/><line style="stroke:#000000;stroke-width:1.5;" x1="6" x2="76" y1="29.0939" y2="29.0939"/><text fill="#000000" font-family="sans-serif" font-size="14" font-weight="bold" lengthAdjust="spacing" textLength="57" x="10" y="21.2999">vv.Items</text></g><!--class vv.Items.EnemyFlameProjectile--><a href="EnemyFlameProjectile.html" target="_top" title="EnemyFlameProjectile.html" xlink:actuate="onRequest" xlink:href="EnemyFlameProjectile.html" xlink:show="new" xlink:title="EnemyFlameProjectile.html" xlink:type="simple"><g id="elem_vv.Items.EnemyFlameProjectile"><rect codeLine="3" fill="#F1F1F1" height="81.5999" id="vv.Items.EnemyFlameProjectile" rx="2.5" ry="2.5" style="stroke:#181818;stroke-width:0.5;" width="240" x="22" y="1167.494"/><ellipse cx="66.75" cy="1183.494" fill="#ADD1B2" rx="11" ry="11" style="stroke:#181818;stroke-width:1.0;"/><path d="M61.75,1184.6502 C61.75,1187.1502 63.8906,1188.9627 66.8125,1188.9627 C68.0469,1188.9627 69.2188,1188.6659 69.9688,1188.1502 C70.5781,1187.7284 70.9063,1187.3065 70.9063,1186.9002 C70.9063,1186.4315 70.4844,1186.0252 69.9844,1186.0252 C69.75,1186.0252 69.5313,1186.1034 69.3281,1186.3065 C68.8906,1186.744 68.8906,1186.744 68.7188,1186.8377 C68.2656,1187.0721 67.625,1187.2127 66.8594,1187.2127 C64.8594,1187.2127 63.5781,1186.1971 63.5781,1184.619 L63.5781,1183.5721 C63.5781,1181.869 64.7969,1180.6659 66.5,1180.6659 C67.0781,1180.6659 67.6563,1180.8065 68.125,1181.0565 C68.5938,1181.3221 68.7656,1181.5096 68.8281,1181.869 C68.9531,1182.5409 69.2031,1182.7909 69.7344,1182.7909 C70.0156,1182.7909 70.2969,1182.6502 70.4844,1182.4315 C70.6094,1182.2596 70.6563,1182.0877 70.6563,1181.6502 L70.6563,1180.2909 C70.6563,1179.869 70.6406,1179.7284 70.5156,1179.5565 C70.3438,1179.3065 70.0625,1179.1502 69.7344,1179.1502 C69.4219,1179.1502 69.2188,1179.2596 69,1179.5252 C67.8281,1179.0252 67.3906,1178.9159 66.4375,1178.9159 C63.7656,1178.9159 61.75,1180.9315 61.75,1183.5565 L61.75,1184.6502 Z " fill="#000000"/><text fill="#000000" font-family="sans-serif" font-size="14" lengthAdjust="spacing" textLength="142" x="87.25" y="1188.1">EnemyFlameProjectile</text><line style="stroke:#181818;stroke-width:0.5;" x1="23" x2="261" y1="1199.494" y2="1199.494"/><line style="stroke:#181818;stroke-width:0.5;" x1="23" x2="261" y1="1207.494" y2="1207.494"/><ellipse cx="33" cy="1221.3939" fill="#84BE84" rx="3" ry="3" style="stroke:#038048;stroke-width:1.0;"/><text fill="#000000" font-family="sans-serif" font-size="14" lengthAdjust="spacing" textLength="214" x="42" y="1224.4999">EnemyFlameProjectile(float, float)</text><ellipse cx="33" cy="1238.1939" fill="#84BE84" rx="3" ry="3" style="stroke:#038048;stroke-width:1.0;"/><text fill="#000000" font-family="sans-serif" font-size="14" lengthAdjust="spacing" textLength="90" x="42" y="1241.2999">Update(): void</text></g></a><!--class vv.Items.EnemyBomber--><a href="EnemyBomber.html" target="_top" title="EnemyBomber.html" xlink:actuate="onRequest" xlink:href="EnemyBomber.html" xlink:show="new" xlink:title="EnemyBomber.html" xlink:type="simple"><g id="elem_vv.Items.EnemyBomber"><rect codeLine="8" fill="#F1F1F1" height="81.5999" id="vv.Items.EnemyBomber" rx="2.5" ry="2.5" style="stroke:#181818;stroke-width:0.5;" width="192" x="297" y="1167.494"/><ellipse cx="341.75" cy="1183.494" fill="#ADD1B2" rx="11" ry="11" style="stroke:#181818;stroke-width:1.0;"/><path d="M336.75,1184.6502 C336.75,1187.1502 338.8906,1188.9627 341.8125,1188.9627 C343.0469,1188.9627 344.2188,1188.6659 344.9688,1188.1502 C345.5781,1187.7284 345.9063,1187.3065 345.9063,1186.9002 C345.9063,1186.4315 345.4844,1186.0252 344.9844,1186.0252 C344.75,1186.0252 344.5313,1186.1034 344.3281,1186.3065 C343.8906,1186.744 343.8906,1186.744 343.7188,1186.8377 C343.2656,1187.0721 342.625,1187.2127 341.8594,1187.2127 C339.8594,1187.2127 338.5781,1186.1971 338.5781,1184.619 L338.5781,1183.5721 C338.5781,1181.869 339.7969,1180.6659 341.5,1180.6659 C342.0781,1180.6659 342.6563,1180.8065 343.125,1181.0565 C343.5938,1181.3221 343.7656,1181.5096 343.8281,1181.869 C343.9531,1182.5409 344.2031,1182.7909 344.7344,1182.7909 C345.0156,1182.7909 345.2969,1182.6502 345.4844,1182.4315 C345.6094,1182.2596 345.6563,1182.0877 345.6563,1181.6502 L345.6563,1180.2909 C345.6563,1179.869 345.6406,1179.7284 345.5156,1179.5565 C345.3438,1179.3065 345.0625,1179.1502 344.7344,1179.1502 C344.4219,1179.1502 344.2188,1179.2596 344,1179.5252 C342.8281,1179.0252 342.3906,1178.9159 341.4375,1178.9159 C338.7656,1178.9159 336.75,1180.9315 336.75,1183.5565 L336.75,1184.6502 Z " fill="#000000"/><text fill="#000000" font-family="sans-serif" font-size="14" lengthAdjust="spacing" textLength="94" x="362.25" y="1188.1">EnemyBomber</text><line style="stroke:#181818;stroke-width:0.5;" x1="298" x2="488" y1="1199.494" y2="1199.494"/><line style="stroke:#181818;stroke-width:0.5;" x1="298" x2="488" y1="1207.494" y2="1207.494"/><ellipse cx="308" cy="1221.3939" fill="#84BE84" rx="3" ry="3" style="stroke:#038048;stroke-width:1.0;"/><text fill="#000000" font-family="sans-serif" font-size="14" lengthAdjust="spacing" textLength="166" x="317" y="1224.4999">EnemyBomber(float, float)</text><ellipse cx="308" cy="1238.1939" fill="#84BE84" rx="3" ry="3" style="stroke:#038048;stroke-width:1.0;"/><text fill="#000000" font-family="sans-serif" font-size="14" lengthAdjust="spacing" textLength="90" x="317" y="1241.2999">Update(): void</text></g></a><!--class vv.Items.Character--><a href="Character.html" target="_top" title="Character.html" xlink:actuate="onRequest" xlink:href="Character.html" xlink:show="new" xlink:title="Character.html" xlink:type="simple"><g id="elem_vv.Items.Character"><rect codeLine="13" fill="#F1F1F1" height="350.3987" id="vv.Items.Character" rx="2.5" ry="2.5" style="stroke:#181818;stroke-width:0.5;" width="258" x="599" y="489.494"/><ellipse cx="692.25" cy="505.494" fill="#A9DCDF" rx="11" ry="11" style="stroke:#181818;stroke-width:1.0;"/><path d="M693.7813,507.4315 L694.1094,508.2284 L693.8281,508.2284 C693.375,508.2284 693.25,508.2596 693.0781,508.369 C692.7969,508.5096 692.625,508.8065 692.625,509.1034 C692.625,509.4002 692.7656,509.6502 693,509.8221 C693.1719,509.9471 693.4063,509.994 693.8281,509.994 L696.1875,509.994 C696.5469,509.994 696.7969,509.9627 696.9375,509.869 C697.2031,509.7284 697.375,509.4159 697.375,509.1034 C697.375,508.8377 697.2344,508.5721 697,508.4002 C696.8125,508.2752 696.6563,508.244 696.2031,508.2284 L692.8125,500.4002 L689.0938,500.4002 C688.6406,500.4002 688.5,500.4159 688.3281,500.5252 C688.0625,500.6971 687.8906,500.9784 687.8906,501.2752 C687.8906,501.5565 688.0313,501.8221 688.2813,501.994 C688.4531,502.119 688.6406,502.1502 689.0938,502.1502 L690.0625,502.1502 L687.4844,508.2284 C686.7344,508.2284 686.3281,508.5252 686.3281,509.1034 C686.3281,509.7127 686.7188,509.994 687.5156,509.994 L689.7813,509.994 C690.1406,509.994 690.3906,509.9627 690.5313,509.869 C690.7969,509.7127 690.9688,509.4159 690.9688,509.1034 C690.9688,508.8377 690.8281,508.5721 690.5938,508.4002 C690.4063,508.2596 690.25,508.2284 689.7813,508.2284 L689.4844,508.2284 L689.8281,507.4315 L693.7813,507.4315 Z M693.0156,505.6815 L690.5625,505.6815 L691.7969,502.8065 L693.0156,505.6815 Z " fill="#000000"/><text fill="#000000" font-family="sans-serif" font-size="14" font-style="italic" lengthAdjust="spacing" textLength="63" x="712.75" y="511.444">Character</text><line style="stroke:#181818;stroke-width:0.5;" x1="600" x2="856" y1="521.494" y2="521.494"/><ellipse cx="610" cy="535.3939" fill="none" rx="3" ry="3" style="stroke:#038048;stroke-width:1.0;"/><text fill="#000000" font-family="sans-serif" font-size="14" lengthAdjust="spacing" text-decoration="underline" textLength="125" x="619" y="538.4999">DEFAULT_LIFE: int</text><ellipse cx="610" cy="552.1939" fill="none" rx="3" ry="3" style="stroke:#038048;stroke-width:1.0;"/><text fill="#000000" font-family="sans-serif" font-size="14" lengthAdjust="spacing" text-decoration="underline" textLength="153" x="619" y="555.2999">DEFAULT_SPEED: float</text><ellipse cx="610" cy="568.9938" fill="none" rx="3" ry="3" style="stroke:#038048;stroke-width:1.0;"/><text fill="#000000" font-family="sans-serif" font-size="14" lengthAdjust="spacing" text-decoration="underline" textLength="225" x="619" y="572.0998">DEFAULT_CREATURE_WIDTH: int</text><ellipse cx="610" cy="585.7937" fill="none" rx="3" ry="3" style="stroke:#038048;stroke-width:1.0;"/><text fill="#000000" font-family="sans-serif" font-size="14" lengthAdjust="spacing" text-decoration="underline" textLength="232" x="619" y="588.8997">DEFAULT_CREATURE_HEIGHT: int</text><polygon fill="none" points="610,597.5937,614,601.5937,610,605.5937,606,601.5937" style="stroke:#B38D22;stroke-width:1.0;"/><text fill="#000000" font-family="sans-serif" font-size="14" lengthAdjust="spacing" textLength="41" x="619" y="605.6996">life: int</text><polygon fill="none" points="610,614.3936,614,618.3936,610,622.3936,606,618.3936" style="stroke:#B38D22;stroke-width:1.0;"/><text fill="#000000" font-family="sans-serif" font-size="14" lengthAdjust="spacing" textLength="74" x="619" y="622.4996">speed: float</text><polygon fill="none" points="610,631.1935,614,635.1935,610,639.1935,606,635.1935" style="stroke:#B38D22;stroke-width:1.0;"/><text fill="#000000" font-family="sans-serif" font-size="14" lengthAdjust="spacing" textLength="77" x="619" y="639.2995">xMove: float</text><polygon fill="none" points="610,647.9934,614,651.9934,610,655.9934,606,651.9934" style="stroke:#B38D22;stroke-width:1.0;"/><text fill="#000000" font-family="sans-serif" font-size="14" lengthAdjust="spacing" textLength="77" x="619" y="656.0994">yMove: float</text><line style="stroke:#181818;stroke-width:0.5;" x1="600" x2="856" y1="663.8934" y2="663.8934"/><ellipse cx="610" cy="677.7934" fill="#84BE84" rx="3" ry="3" style="stroke:#038048;stroke-width:1.0;"/><text fill="#000000" font-family="sans-serif" font-size="14" lengthAdjust="spacing" textLength="181" x="619" y="680.8993">Character(float, float, int, int)</text><ellipse cx="610" cy="694.5933" fill="#84BE84" rx="3" ry="3" style="stroke:#038048;stroke-width:1.0;"/><text fill="#000000" font-family="sans-serif" font-size="14" lengthAdjust="spacing" textLength="79" x="619" y="697.6993">Move(): void</text><ellipse cx="610" cy="711.3932" fill="#84BE84" rx="3" ry="3" style="stroke:#038048;stroke-width:1.0;"/><text fill="#000000" font-family="sans-serif" font-size="14" lengthAdjust="spacing" textLength="79" x="619" y="714.4992">GetLife(): int</text><ellipse cx="610" cy="728.1931" fill="#84BE84" rx="3" ry="3" style="stroke:#038048;stroke-width:1.0;"/><text fill="#000000" font-family="sans-serif" font-size="14" lengthAdjust="spacing" textLength="109" x="619" y="731.2991">GetSpeed(): float</text><ellipse cx="610" cy="744.9931" fill="#84BE84" rx="3" ry="3" style="stroke:#038048;stroke-width:1.0;"/><text fill="#000000" font-family="sans-serif" font-size="14" lengthAdjust="spacing" textLength="103" x="619" y="748.099">SetLife(int): void</text><ellipse cx="610" cy="761.793" fill="#84BE84" rx="3" ry="3" style="stroke:#038048;stroke-width:1.0;"/><text fill="#000000" font-family="sans-serif" font-size="14" lengthAdjust="spacing" textLength="133" x="619" y="764.899">SetSpeed(float): void</text><ellipse cx="610" cy="778.5929" fill="#84BE84" rx="3" ry="3" style="stroke:#038048;stroke-width:1.0;"/><text fill="#000000" font-family="sans-serif" font-size="14" lengthAdjust="spacing" textLength="112" x="619" y="781.6989">GetXMove(): float</text><ellipse cx="610" cy="795.3928" fill="#84BE84" rx="3" ry="3" style="stroke:#038048;stroke-width:1.0;"/><text fill="#000000" font-family="sans-serif" font-size="14" lengthAdjust="spacing" textLength="112" x="619" y="798.4988">GetYMove(): float</text><ellipse cx="610" cy="812.1928" fill="#84BE84" rx="3" ry="3" style="stroke:#038048;stroke-width:1.0;"/><text fill="#000000" font-family="sans-serif" font-size="14" lengthAdjust="spacing" textLength="136" x="619" y="815.2988">SetXMove(float): void</text><ellipse cx="610" cy="828.9927" fill="#84BE84" rx="3" ry="3" style="stroke:#038048;stroke-width:1.0;"/><text fill="#000000" font-family="sans-serif" font-size="14" lengthAdjust="spacing" textLength="136" x="619" y="832.0987">SetYMove(float): void</text></g></a><!--class vv.Items.Enemy--><a href="Enemy.html" target="_top" title="Enemy.html" xlink:actuate="onRequest" xlink:href="Enemy.html" xlink:show="new" xlink:title="Enemy.html" xlink:type="simple"><g id="elem_vv.Items.Enemy"><rect codeLine="34" fill="#F1F1F1" height="165.5995" id="vv.Items.Enemy" rx="2.5" ry="2.5" style="stroke:#181818;stroke-width:0.5;" width="167" x="537.5" y="916.694"/><ellipse cx="594.75" cy="932.694" fill="#ADD1B2" rx="11" ry="11" style="stroke:#181818;stroke-width:1.0;"/><path d="M589.75,933.8502 C589.75,936.3502 591.8906,938.1627 594.8125,938.1627 C596.0469,938.1627 597.2188,937.8659 597.9688,937.3502 C598.5781,936.9284 598.9063,936.5065 598.9063,936.1002 C598.9063,935.6315 598.4844,935.2252 597.9844,935.2252 C597.75,935.2252 597.5313,935.3034 597.3281,935.5065 C596.8906,935.944 596.8906,935.944 596.7188,936.0377 C596.2656,936.2721 595.625,936.4127 594.8594,936.4127 C592.8594,936.4127 591.5781,935.3971 591.5781,933.819 L591.5781,932.7721 C591.5781,931.069 592.7969,929.8659 594.5,929.8659 C595.0781,929.8659 595.6563,930.0065 596.125,930.2565 C596.5938,930.5221 596.7656,930.7096 596.8281,931.069 C596.9531,931.7409 597.2031,931.9909 597.7344,931.9909 C598.0156,931.9909 598.2969,931.8502 598.4844,931.6315 C598.6094,931.4596 598.6563,931.2877 598.6563,930.8502 L598.6563,929.4909 C598.6563,929.069 598.6406,928.9284 598.5156,928.7565 C598.3438,928.5065 598.0625,928.3502 597.7344,928.3502 C597.4219,928.3502 597.2188,928.4596 597,928.7252 C595.8281,928.2252 595.3906,928.1159 594.4375,928.1159 C591.7656,928.1159 589.75,930.1315 589.75,932.7565 L589.75,933.8502 Z " fill="#000000"/><text fill="#000000" font-family="sans-serif" font-size="14" lengthAdjust="spacing" textLength="44" x="615.25" y="937.3">Enemy</text><line style="stroke:#181818;stroke-width:0.5;" x1="538.5" x2="703.5" y1="948.694" y2="948.694"/><polygon fill="none" points="548.5,957.5939,552.5,961.5939,548.5,965.5939,544.5,961.5939" style="stroke:#B38D22;stroke-width:1.0;"/><text fill="#000000" font-family="sans-serif" font-size="14" lengthAdjust="spacing" textLength="141" x="557.5" y="965.6999">image: BufferedImage</text><ellipse cx="548.5" cy="979.3939" fill="none" rx="3" ry="3" style="stroke:#038048;stroke-width:1.0;"/><text fill="#000000" font-family="sans-serif" font-size="14" lengthAdjust="spacing" textLength="86" x="557.5" y="982.4999">isHit: boolean</text><ellipse cx="548.5" cy="996.1938" fill="none" rx="3" ry="3" style="stroke:#038048;stroke-width:1.0;"/><text fill="#000000" font-family="sans-serif" font-size="14" lengthAdjust="spacing" textLength="127" x="557.5" y="999.2998">isTargeted: boolean</text><line style="stroke:#181818;stroke-width:0.5;" x1="538.5" x2="703.5" y1="1007.0938" y2="1007.0938"/><ellipse cx="548.5" cy="1020.9937" fill="#84BE84" rx="3" ry="3" style="stroke:#038048;stroke-width:1.0;"/><text fill="#000000" font-family="sans-serif" font-size="14" lengthAdjust="spacing" textLength="116" x="557.5" y="1024.0997">Enemy(float, float)</text><ellipse cx="548.5" cy="1037.7937" fill="#84BE84" rx="3" ry="3" style="stroke:#038048;stroke-width:1.0;"/><text fill="#000000" font-family="sans-serif" font-size="14" lengthAdjust="spacing" textLength="125" x="557.5" y="1040.8996">takeDamage(): void</text><ellipse cx="548.5" cy="1054.5936" fill="#84BE84" rx="3" ry="3" style="stroke:#038048;stroke-width:1.0;"/><text fill="#000000" font-family="sans-serif" font-size="14" lengthAdjust="spacing" textLength="90" x="557.5" y="1057.6996">Update(): void</text><ellipse cx="548.5" cy="1071.3935" fill="#84BE84" rx="3" ry="3" style="stroke:#038048;stroke-width:1.0;"/><text fill="#000000" font-family="sans-serif" font-size="14" lengthAdjust="spacing" textLength="134" x="557.5" y="1074.4995">Draw(Graphics): void</text></g></a><!--class vv.Items.EnemyShadow--><a href="EnemyShadow.html" target="_top" title="EnemyShadow.html" xlink:actuate="onRequest" xlink:href="EnemyShadow.html" xlink:show="new" xlink:title="EnemyShadow.html" xlink:type="simple"><g id="elem_vv.Items.EnemyShadow"><rect codeLine="44" fill="#F1F1F1" height="98.3998" id="vv.Items.EnemyShadow" rx="2.5" ry="2.5" style="stroke:#181818;stroke-width:0.5;" width="193" x="524.5" y="1159.094"/><ellipse cx="569.25" cy="1175.094" fill="#ADD1B2" rx="11" ry="11" style="stroke:#181818;stroke-width:1.0;"/><path d="M564.25,1176.2502 C564.25,1178.7502 566.3906,1180.5627 569.3125,1180.5627 C570.5469,1180.5627 571.7188,1180.2659 572.4688,1179.7502 C573.0781,1179.3284 573.4063,1178.9065 573.4063,1178.5002 C573.4063,1178.0315 572.9844,1177.6252 572.4844,1177.6252 C572.25,1177.6252 572.0313,1177.7034 571.8281,1177.9065 C571.3906,1178.344 571.3906,1178.344 571.2188,1178.4377 C570.7656,1178.6721 570.125,1178.8127 569.3594,1178.8127 C567.3594,1178.8127 566.0781,1177.7971 566.0781,1176.219 L566.0781,1175.1721 C566.0781,1173.469 567.2969,1172.2659 569,1172.2659 C569.5781,1172.2659 570.1563,1172.4065 570.625,1172.6565 C571.0938,1172.9221 571.2656,1173.1096 571.3281,1173.469 C571.4531,1174.1409 571.7031,1174.3909 572.2344,1174.3909 C572.5156,1174.3909 572.7969,1174.2502 572.9844,1174.0315 C573.1094,1173.8596 573.1563,1173.6877 573.1563,1173.2502 L573.1563,1171.8909 C573.1563,1171.469 573.1406,1171.3284 573.0156,1171.1565 C572.8438,1170.9065 572.5625,1170.7502 572.2344,1170.7502 C571.9219,1170.7502 571.7188,1170.8596 571.5,1171.1252 C570.3281,1170.6252 569.8906,1170.5159 568.9375,1170.5159 C566.2656,1170.5159 564.25,1172.5315 564.25,1175.1565 L564.25,1176.2502 Z " fill="#000000"/><text fill="#000000" font-family="sans-serif" font-size="14" lengthAdjust="spacing" textLength="95" x="589.75" y="1179.7">EnemyShadow</text><line style="stroke:#181818;stroke-width:0.5;" x1="525.5" x2="716.5" y1="1191.094" y2="1191.094"/><line style="stroke:#181818;stroke-width:0.5;" x1="525.5" x2="716.5" y1="1199.094" y2="1199.094"/><ellipse cx="535.5" cy="1212.9939" fill="#84BE84" rx="3" ry="3" style="stroke:#038048;stroke-width:1.0;"/><text fill="#000000" font-family="sans-serif" font-size="14" lengthAdjust="spacing" textLength="167" x="544.5" y="1216.0999">EnemyShadow(float, float)</text><ellipse cx="535.5" cy="1229.7939" fill="#84BE84" rx="3" ry="3" style="stroke:#038048;stroke-width:1.0;"/><text fill="#000000" font-family="sans-serif" font-size="14" lengthAdjust="spacing" textLength="90" x="544.5" y="1232.8999">Update(): void</text><ellipse cx="535.5" cy="1246.5938" fill="#84BE84" rx="3" ry="3" style="stroke:#038048;stroke-width:1.0;"/><text fill="#000000" font-family="sans-serif" font-size="14" lengthAdjust="spacing" textLength="125" x="544.5" y="1249.6998">takeDamage(): void</text></g></a><!--class vv.Items.EnemyFlame--><a href="EnemyFlame.html" target="_top" title="EnemyFlame.html" xlink:actuate="onRequest" xlink:href="EnemyFlame.html" xlink:show="new" xlink:title="EnemyFlame.html" xlink:type="simple"><g id="elem_vv.Items.EnemyFlame"><rect codeLine="50" fill="#F1F1F1" height="81.5999" id="vv.Items.EnemyFlame" rx="2.5" ry="2.5" style="stroke:#181818;stroke-width:0.5;" width="182" x="753" y="1167.494"/><ellipse cx="797.75" cy="1183.494" fill="#ADD1B2" rx="11" ry="11" style="stroke:#181818;stroke-width:1.0;"/><path d="M792.75,1184.6502 C792.75,1187.1502 794.8906,1188.9627 797.8125,1188.9627 C799.0469,1188.9627 800.2188,1188.6659 800.9688,1188.1502 C801.5781,1187.7284 801.9063,1187.3065 801.9063,1186.9002 C801.9063,1186.4315 801.4844,1186.0252 800.9844,1186.0252 C800.75,1186.0252 800.5313,1186.1034 800.3281,1186.3065 C799.8906,1186.744 799.8906,1186.744 799.7188,1186.8377 C799.2656,1187.0721 798.625,1187.2127 797.8594,1187.2127 C795.8594,1187.2127 794.5781,1186.1971 794.5781,1184.619 L794.5781,1183.5721 C794.5781,1181.869 795.7969,1180.6659 797.5,1180.6659 C798.0781,1180.6659 798.6563,1180.8065 799.125,1181.0565 C799.5938,1181.3221 799.7656,1181.5096 799.8281,1181.869 C799.9531,1182.5409 800.2031,1182.7909 800.7344,1182.7909 C801.0156,1182.7909 801.2969,1182.6502 801.4844,1182.4315 C801.6094,1182.2596 801.6563,1182.0877 801.6563,1181.6502 L801.6563,1180.2909 C801.6563,1179.869 801.6406,1179.7284 801.5156,1179.5565 C801.3438,1179.3065 801.0625,1179.1502 800.7344,1179.1502 C800.4219,1179.1502 800.2188,1179.2596 800,1179.5252 C798.8281,1179.0252 798.3906,1178.9159 797.4375,1178.9159 C794.7656,1178.9159 792.75,1180.9315 792.75,1183.5565 L792.75,1184.6502 Z " fill="#000000"/><text fill="#000000" font-family="sans-serif" font-size="14" lengthAdjust="spacing" textLength="84" x="818.25" y="1188.1">EnemyFlame</text><line style="stroke:#181818;stroke-width:0.5;" x1="754" x2="934" y1="1199.494" y2="1199.494"/><line style="stroke:#181818;stroke-width:0.5;" x1="754" x2="934" y1="1207.494" y2="1207.494"/><ellipse cx="764" cy="1221.3939" fill="#84BE84" rx="3" ry="3" style="stroke:#038048;stroke-width:1.0;"/><text fill="#000000" font-family="sans-serif" font-size="14" lengthAdjust="spacing" textLength="156" x="773" y="1224.4999">EnemyFlame(float, float)</text><ellipse cx="764" cy="1238.1939" fill="#84BE84" rx="3" ry="3" style="stroke:#038048;stroke-width:1.0;"/><text fill="#000000" font-family="sans-serif" font-size="14" lengthAdjust="spacing" textLength="90" x="773" y="1241.2999">Update(): void</text></g></a><!--class vv.Items.EnemyWraith--><a href="EnemyWraith.html" target="_top" title="EnemyWraith.html" xlink:actuate="onRequest" xlink:href="EnemyWraith.html" xlink:show="new" xlink:title="EnemyWraith.html" xlink:type="simple"><g id="elem_vv.Items.EnemyWraith"><rect codeLine="55" fill="#F1F1F1" height="81.5999" id="vv.Items.EnemyWraith" rx="2.5" ry="2.5" style="stroke:#181818;stroke-width:0.5;" width="183" x="970.5" y="1167.494"/><ellipse cx="1015.25" cy="1183.494" fill="#ADD1B2" rx="11" ry="11" style="stroke:#181818;stroke-width:1.0;"/><path d="M1010.25,1184.6502 C1010.25,1187.1502 1012.3906,1188.9627 1015.3125,1188.9627 C1016.5469,1188.9627 1017.7188,1188.6659 1018.4688,1188.1502 C1019.0781,1187.7284 1019.4063,1187.3065 1019.4063,1186.9002 C1019.4063,1186.4315 1018.9844,1186.0252 1018.4844,1186.0252 C1018.25,1186.0252 1018.0313,1186.1034 1017.8281,1186.3065 C1017.3906,1186.744 1017.3906,1186.744 1017.2188,1186.8377 C1016.7656,1187.0721 1016.125,1187.2127 1015.3594,1187.2127 C1013.3594,1187.2127 1012.0781,1186.1971 1012.0781,1184.619 L1012.0781,1183.5721 C1012.0781,1181.869 1013.2969,1180.6659 1015,1180.6659 C1015.5781,1180.6659 1016.1563,1180.8065 1016.625,1181.0565 C1017.0938,1181.3221 1017.2656,1181.5096 1017.3281,1181.869 C1017.4531,1182.5409 1017.7031,1182.7909 1018.2344,1182.7909 C1018.5156,1182.7909 1018.7969,1182.6502 1018.9844,1182.4315 C1019.1094,1182.2596 1019.1563,1182.0877 1019.1563,1181.6502 L1019.1563,1180.2909 C1019.1563,1179.869 1019.1406,1179.7284 1019.0156,1179.5565 C1018.8438,1179.3065 1018.5625,1179.1502 1018.2344,1179.1502 C1017.9219,1179.1502 1017.7188,1179.2596 1017.5,1179.5252 C1016.3281,1179.0252 1015.8906,1178.9159 1014.9375,1178.9159 C1012.2656,1178.9159 1010.25,1180.9315 1010.25,1183.5565 L1010.25,1184.6502 Z " fill="#000000"/><text fill="#000000" font-family="sans-serif" font-size="14" lengthAdjust="spacing" textLength="85" x="1035.75" y="1188.1">EnemyWraith</text><line style="stroke:#181818;stroke-width:0.5;" x1="971.5" x2="1152.5" y1="1199.494" y2="1199.494"/><line style="stroke:#181818;stroke-width:0.5;" x1="971.5" x2="1152.5" y1="1207.494" y2="1207.494"/><ellipse cx="981.5" cy="1221.3939" fill="#84BE84" rx="3" ry="3" style="stroke:#038048;stroke-width:1.0;"/><text fill="#000000" font-family="sans-serif" font-size="14" lengthAdjust="spacing" textLength="157" x="990.5" y="1224.4999">EnemyWraith(float, float)</text><ellipse cx="981.5" cy="1238.1939" fill="#84BE84" rx="3" ry="3" style="stroke:#038048;stroke-width:1.0;"/><text fill="#000000" font-family="sans-serif" font-size="14" lengthAdjust="spacing" textLength="90" x="990.5" y="1241.2999">Update(): void</text></g></a><!--class vv.Items.Item--><a href="Item.html" target="_top" title="Item.html" xlink:actuate="onRequest" xlink:href="Item.html" xlink:show="new" xlink:title="Item.html" xlink:type="simple"><g id="elem_vv.Items.Item"><rect codeLine="60" fill="#F1F1F1" height="388.1985" id="vv.Items.Item" rx="2.5" ry="2.5" style="stroke:#181818;stroke-width:0.5;" width="190" x="633" y="41.294"/><ellipse cx="709.75" cy="57.294" fill="#A9DCDF" rx="11" ry="11" style="stroke:#181818;stroke-width:1.0;"/><path d="M711.2813,59.2315 L711.6094,60.0284 L711.3281,60.0284 C710.875,60.0284 710.75,60.0596 710.5781,60.169 C710.2969,60.3096 710.125,60.6065 710.125,60.9034 C710.125,61.2002 710.2656,61.4502 710.5,61.6221 C710.6719,61.7471 710.9063,61.794 711.3281,61.794 L713.6875,61.794 C714.0469,61.794 714.2969,61.7627 714.4375,61.669 C714.7031,61.5284 714.875,61.2159 714.875,60.9034 C714.875,60.6377 714.7344,60.3721 714.5,60.2002 C714.3125,60.0752 714.1563,60.044 713.7031,60.0284 L710.3125,52.2002 L706.5938,52.2002 C706.1406,52.2002 706,52.2159 705.8281,52.3252 C705.5625,52.4971 705.3906,52.7784 705.3906,53.0752 C705.3906,53.3565 705.5313,53.6221 705.7813,53.794 C705.9531,53.919 706.1406,53.9502 706.5938,53.9502 L707.5625,53.9502 L704.9844,60.0284 C704.2344,60.0284 703.8281,60.3252 703.8281,60.9034 C703.8281,61.5127 704.2188,61.794 705.0156,61.794 L707.2813,61.794 C707.6406,61.794 707.8906,61.7627 708.0313,61.669 C708.2969,61.5127 708.4688,61.2159 708.4688,60.9034 C708.4688,60.6377 708.3281,60.3721 708.0938,60.2002 C707.9063,60.0596 707.75,60.0284 707.2813,60.0284 L706.9844,60.0284 L707.3281,59.2315 L711.2813,59.2315 Z M710.5156,57.4815 L708.0625,57.4815 L709.2969,54.6065 L710.5156,57.4815 Z " fill="#000000"/><text fill="#000000" font-family="sans-serif" font-size="14" font-style="italic" lengthAdjust="spacing" textLength="28" x="730.25" y="63.244">Item</text><line style="stroke:#181818;stroke-width:0.5;" x1="634" x2="822" y1="73.294" y2="73.294"/><polygon fill="none" points="644,82.1939,648,86.1939,644,90.1939,640,86.1939" style="stroke:#B38D22;stroke-width:1.0;"/><text fill="#000000" font-family="sans-serif" font-size="14" lengthAdjust="spacing" textLength="42" x="653" y="90.2999">x: float</text><polygon fill="none" points="644,98.9939,648,102.9939,644,106.9939,640,102.9939" style="stroke:#B38D22;stroke-width:1.0;"/><text fill="#000000" font-family="sans-serif" font-size="14" lengthAdjust="spacing" textLength="42" x="653" y="107.0999">y: float</text><polygon fill="none" points="644,115.7938,648,119.7938,644,123.7938,640,119.7938" style="stroke:#B38D22;stroke-width:1.0;"/><text fill="#000000" font-family="sans-serif" font-size="14" lengthAdjust="spacing" textLength="56" x="653" y="123.8998">width: int</text><polygon fill="none" points="644,132.5937,648,136.5937,644,140.5937,640,136.5937" style="stroke:#B38D22;stroke-width:1.0;"/><text fill="#000000" font-family="sans-serif" font-size="14" lengthAdjust="spacing" textLength="62" x="653" y="140.6997">height: int</text><polygon fill="none" points="644,149.3937,648,153.3937,644,157.3937,640,153.3937" style="stroke:#B38D22;stroke-width:1.0;"/><text fill="#000000" font-family="sans-serif" font-size="14" lengthAdjust="spacing" textLength="119" x="653" y="157.4996">bounds: Rectangle</text><polygon fill="none" points="644,166.1936,648,170.1936,644,174.1936,640,170.1936" style="stroke:#B38D22;stroke-width:1.0;"/><text fill="#000000" font-family="sans-serif" font-size="14" lengthAdjust="spacing" textLength="164" x="653" y="174.2996">normalBounds: Rectangle</text><polygon fill="none" points="644,182.9935,648,186.9935,644,190.9935,640,186.9935" style="stroke:#B38D22;stroke-width:1.0;"/><text fill="#000000" font-family="sans-serif" font-size="14" lengthAdjust="spacing" textLength="158" x="653" y="191.0995">attackBounds: Rectangle</text><line style="stroke:#181818;stroke-width:0.5;" x1="634" x2="822" y1="198.8935" y2="198.8935"/><ellipse cx="644" cy="212.7934" fill="#84BE84" rx="3" ry="3" style="stroke:#038048;stroke-width:1.0;"/><text fill="#000000" font-family="sans-serif" font-size="14" lengthAdjust="spacing" textLength="146" x="653" y="215.8994">Item(float, float, int, int)</text><ellipse cx="644" cy="230.6434" fill="#84BE84" rx="3" ry="3" style="stroke:#038048;stroke-width:1.0;"/><text fill="#000000" font-family="sans-serif" font-size="14" font-style="italic" lengthAdjust="spacing" textLength="90" x="653" y="235.0933">Update(): void</text><ellipse cx="644" cy="249.5433" fill="#84BE84" rx="3" ry="3" style="stroke:#038048;stroke-width:1.0;"/><text fill="#000000" font-family="sans-serif" font-size="14" font-style="italic" lengthAdjust="spacing" textLength="134" x="653" y="253.9932">Draw(Graphics): void</text><ellipse cx="644" cy="267.3932" fill="#84BE84" rx="3" ry="3" style="stroke:#038048;stroke-width:1.0;"/><text fill="#000000" font-family="sans-serif" font-size="14" lengthAdjust="spacing" textLength="77" x="653" y="270.4992">GetX(): float</text><ellipse cx="644" cy="284.1931" fill="#84BE84" rx="3" ry="3" style="stroke:#038048;stroke-width:1.0;"/><text fill="#000000" font-family="sans-serif" font-size="14" lengthAdjust="spacing" textLength="77" x="653" y="287.2991">GetY(): float</text><ellipse cx="644" cy="300.993" fill="#84BE84" rx="3" ry="3" style="stroke:#038048;stroke-width:1.0;"/><text fill="#000000" font-family="sans-serif" font-size="14" lengthAdjust="spacing" textLength="92" x="653" y="304.099">GetWidth(): int</text><ellipse cx="644" cy="317.793" fill="#84BE84" rx="3" ry="3" style="stroke:#038048;stroke-width:1.0;"/><text fill="#000000" font-family="sans-serif" font-size="14" lengthAdjust="spacing" textLength="97" x="653" y="320.899">GetHeight(): int</text><ellipse cx="644" cy="334.5929" fill="#84BE84" rx="3" ry="3" style="stroke:#038048;stroke-width:1.0;"/><text fill="#000000" font-family="sans-serif" font-size="14" lengthAdjust="spacing" textLength="101" x="653" y="337.6989">SetX(float): void</text><ellipse cx="644" cy="351.3928" fill="#84BE84" rx="3" ry="3" style="stroke:#038048;stroke-width:1.0;"/><text fill="#000000" font-family="sans-serif" font-size="14" lengthAdjust="spacing" textLength="101" x="653" y="354.4988">SetY(float): void</text><ellipse cx="644" cy="368.1928" fill="#84BE84" rx="3" ry="3" style="stroke:#038048;stroke-width:1.0;"/><text fill="#000000" font-family="sans-serif" font-size="14" lengthAdjust="spacing" textLength="116" x="653" y="371.2987">SetWidth(int): void</text><ellipse cx="644" cy="384.9927" fill="#84BE84" rx="3" ry="3" style="stroke:#038048;stroke-width:1.0;"/><text fill="#000000" font-family="sans-serif" font-size="14" lengthAdjust="spacing" textLength="121" x="653" y="388.0987">SetHeight(int): void</text><ellipse cx="644" cy="401.7926" fill="#84BE84" rx="3" ry="3" style="stroke:#038048;stroke-width:1.0;"/><text fill="#000000" font-family="sans-serif" font-size="14" lengthAdjust="spacing" textLength="147" x="653" y="404.8986">SetNormalMode(): void</text><ellipse cx="644" cy="418.5925" fill="#84BE84" rx="3" ry="3" style="stroke:#038048;stroke-width:1.0;"/><text fill="#000000" font-family="sans-serif" font-size="14" lengthAdjust="spacing" textLength="140" x="653" y="421.6985">SetAttackMode(): void</text></g></a><!--class vv.Items.EnemyCreator--><a href="EnemyCreator.html" target="_top" title="EnemyCreator.html" xlink:actuate="onRequest" xlink:href="EnemyCreator.html" xlink:show="new" xlink:title="EnemyCreator.html" xlink:type="simple"><g id="elem_vv.Items.EnemyCreator"><rect codeLine="83" fill="#F1F1F1" height="64.7999" id="vv.Items.EnemyCreator" rx="2.5" ry="2.5" style="stroke:#181818;stroke-width:0.5;" width="290" x="219" y="202.994"/><ellipse cx="313.75" cy="218.994" fill="#ADD1B2" rx="11" ry="11" style="stroke:#181818;stroke-width:1.0;"/><path d="M308.75,220.1502 C308.75,222.6502 310.8906,224.4627 313.8125,224.4627 C315.0469,224.4627 316.2188,224.1659 316.9688,223.6502 C317.5781,223.2284 317.9063,222.8065 317.9063,222.4002 C317.9063,221.9315 317.4844,221.5252 316.9844,221.5252 C316.75,221.5252 316.5313,221.6034 316.3281,221.8065 C315.8906,222.244 315.8906,222.244 315.7188,222.3377 C315.2656,222.5721 314.625,222.7127 313.8594,222.7127 C311.8594,222.7127 310.5781,221.6971 310.5781,220.119 L310.5781,219.0721 C310.5781,217.369 311.7969,216.1659 313.5,216.1659 C314.0781,216.1659 314.6563,216.3065 315.125,216.5565 C315.5938,216.8221 315.7656,217.0096 315.8281,217.369 C315.9531,218.0409 316.2031,218.2909 316.7344,218.2909 C317.0156,218.2909 317.2969,218.1502 317.4844,217.9315 C317.6094,217.7596 317.6563,217.5877 317.6563,217.1502 L317.6563,215.7909 C317.6563,215.369 317.6406,215.2284 317.5156,215.0565 C317.3438,214.8065 317.0625,214.6502 316.7344,214.6502 C316.4219,214.6502 316.2188,214.7596 316,215.0252 C314.8281,214.5252 314.3906,214.4159 313.4375,214.4159 C310.7656,214.4159 308.75,216.4315 308.75,219.0565 L308.75,220.1502 Z " fill="#000000"/><text fill="#000000" font-family="sans-serif" font-size="14" lengthAdjust="spacing" textLength="92" x="334.25" y="223.6">EnemyCreator</text><line style="stroke:#181818;stroke-width:0.5;" x1="220" x2="508" y1="234.994" y2="234.994"/><line style="stroke:#181818;stroke-width:0.5;" x1="220" x2="508" y1="242.994" y2="242.994"/><ellipse cx="230" cy="256.8939" fill="#84BE84" rx="3" ry="3" style="stroke:#038048;stroke-width:1.0;"/><text fill="#000000" font-family="sans-serif" font-size="14" lengthAdjust="spacing" text-decoration="underline" textLength="264" x="239" y="259.9999">CreateRandomEnemy(int, int, int): Enemy</text></g></a><!--class vv.Items.Hero--><a href="Hero.html" target="_top" title="Hero.html" xlink:actuate="onRequest" xlink:href="Hero.html" xlink:show="new" xlink:title="Hero.html" xlink:type="simple"><g id="elem_vv.Items.Hero"><rect codeLine="87" fill="#F1F1F1" height="199.1993" id="vv.Items.Hero" rx="2.5" ry="2.5" style="stroke:#181818;stroke-width:0.5;" width="191" x="739.5" y="899.894"/><ellipse cx="815.25" cy="915.894" fill="#ADD1B2" rx="11" ry="11" style="stroke:#181818;stroke-width:1.0;"/><path d="M810.25,917.0502 C810.25,919.5502 812.3906,921.3627 815.3125,921.3627 C816.5469,921.3627 817.7188,921.0659 818.4688,920.5502 C819.0781,920.1284 819.4063,919.7065 819.4063,919.3002 C819.4063,918.8315 818.9844,918.4252 818.4844,918.4252 C818.25,918.4252 818.0313,918.5034 817.8281,918.7065 C817.3906,919.144 817.3906,919.144 817.2188,919.2377 C816.7656,919.4721 816.125,919.6127 815.3594,919.6127 C813.3594,919.6127 812.0781,918.5971 812.0781,917.019 L812.0781,915.9721 C812.0781,914.269 813.2969,913.0659 815,913.0659 C815.5781,913.0659 816.1563,913.2065 816.625,913.4565 C817.0938,913.7221 817.2656,913.9096 817.3281,914.269 C817.4531,914.9409 817.7031,915.1909 818.2344,915.1909 C818.5156,915.1909 818.7969,915.0502 818.9844,914.8315 C819.1094,914.6596 819.1563,914.4877 819.1563,914.0502 L819.1563,912.6909 C819.1563,912.269 819.1406,912.1284 819.0156,911.9565 C818.8438,911.7065 818.5625,911.5502 818.2344,911.5502 C817.9219,911.5502 817.7188,911.6596 817.5,911.9252 C816.3281,911.4252 815.8906,911.3159 814.9375,911.3159 C812.2656,911.3159 810.25,913.3315 810.25,915.9565 L810.25,917.0502 Z " fill="#000000"/><text fill="#000000" font-family="sans-serif" font-size="14" lengthAdjust="spacing" textLength="31" x="835.75" y="920.5">Hero</text><line style="stroke:#181818;stroke-width:0.5;" x1="740.5" x2="929.5" y1="931.894" y2="931.894"/><ellipse cx="750.5" cy="945.7939" fill="none" rx="3" ry="3" style="stroke:#038048;stroke-width:1.0;"/><text fill="#000000" font-family="sans-serif" font-size="14" lengthAdjust="spacing" textLength="115" x="759.5" y="948.8999">isDemon: boolean</text><ellipse cx="750.5" cy="962.5939" fill="none" rx="3" ry="3" style="stroke:#038048;stroke-width:1.0;"/><text fill="#000000" font-family="sans-serif" font-size="14" lengthAdjust="spacing" textLength="110" x="759.5" y="965.6999">isVisible: boolean</text><ellipse cx="750.5" cy="979.3938" fill="none" rx="3" ry="3" style="stroke:#038048;stroke-width:1.0;"/><text fill="#000000" font-family="sans-serif" font-size="14" lengthAdjust="spacing" textLength="128" x="759.5" y="982.4998">isInvincible: boolean</text><ellipse cx="750.5" cy="996.1937" fill="none" rx="3" ry="3" style="stroke:#038048;stroke-width:1.0;"/><text fill="#000000" font-family="sans-serif" font-size="14" lengthAdjust="spacing" textLength="165" x="759.5" y="999.2997">invincibleFrameStart: long</text><ellipse cx="750.5" cy="1012.9937" fill="none" rx="3" ry="3" style="stroke:#038048;stroke-width:1.0;"/><text fill="#000000" font-family="sans-serif" font-size="14" lengthAdjust="spacing" textLength="150" x="759.5" y="1016.0996">shadowDebuff: boolean</text><line style="stroke:#181818;stroke-width:0.5;" x1="740.5" x2="929.5" y1="1023.8936" y2="1023.8936"/><ellipse cx="750.5" cy="1037.7936" fill="#84BE84" rx="3" ry="3" style="stroke:#038048;stroke-width:1.0;"/><text fill="#000000" font-family="sans-serif" font-size="14" lengthAdjust="spacing" textLength="103" x="759.5" y="1040.8996">Hero(float, float)</text><ellipse cx="750.5" cy="1054.5935" fill="#84BE84" rx="3" ry="3" style="stroke:#038048;stroke-width:1.0;"/><text fill="#000000" font-family="sans-serif" font-size="14" lengthAdjust="spacing" textLength="125" x="759.5" y="1057.6995">takeDamage(): void</text><ellipse cx="750.5" cy="1071.3934" fill="#84BE84" rx="3" ry="3" style="stroke:#038048;stroke-width:1.0;"/><text fill="#000000" font-family="sans-serif" font-size="14" lengthAdjust="spacing" textLength="90" x="759.5" y="1074.4994">Update(): void</text><ellipse cx="750.5" cy="1088.1934" fill="#84BE84" rx="3" ry="3" style="stroke:#038048;stroke-width:1.0;"/><text fill="#000000" font-family="sans-serif" font-size="14" lengthAdjust="spacing" textLength="134" x="759.5" y="1091.2993">Draw(Graphics): void</text></g></a><!--reverse link vv.Items.Enemy to vv.Items.EnemyFlameProjectile--><g id="link_vv.Items.Enemy_vv.Items.EnemyFlameProjectile"><path codeLine="99" d="M517.78,1045.054 C433.85,1081.294 316.46,1131.974 235.32,1167.004 " fill="none" id="vv.Items.Enemy-backto-vv.Items.EnemyFlameProjectile" style="stroke:#181818;stroke-width:1.0;"/><polygon fill="none" points="514.88,1038.254,536.02,1036.754,520.43,1051.104,514.88,1038.254" style="stroke:#181818;stroke-width:1.0;"/></g><!--reverse link vv.Items.Enemy to vv.Items.EnemyBomber--><g id="link_vv.Items.Enemy_vv.Items.EnemyBomber"><path codeLine="100" d="M521.82,1090.444 C492.35,1117.184 461.53,1145.134 437.43,1166.994 " fill="none" id="vv.Items.Enemy-backto-vv.Items.EnemyBomber" style="stroke:#181818;stroke-width:1.0;"/><polygon fill="none" points="516.56,1085.874,536.07,1077.614,525.96,1096.244,516.56,1085.874" style="stroke:#181818;stroke-width:1.0;"/></g><!--reverse link vv.Items.Item to vv.Items.Character--><g id="link_vv.Items.Item_vv.Items.Character"><path codeLine="101" d="M728,450.644 C728,463.524 728,476.404 728,489.084 " fill="none" id="vv.Items.Item-backto-vv.Items.Character" style="stroke:#181818;stroke-width:1.0;"/><polygon fill="none" points="721,450.734,728,430.734,735,450.734,721,450.734" style="stroke:#181818;stroke-width:1.0;"/></g><!--reverse link vv.Items.Character to vv.Items.Enemy--><g id="link_vv.Items.Character_vv.Items.Enemy"><path codeLine="102" d="M665.47,860.174 C659.15,879.834 653,898.954 647.4,916.394 " fill="none" id="vv.Items.Character-backto-vv.Items.Enemy" style="stroke:#181818;stroke-width:1.0;"/><polygon fill="none" points="659.05,858.274,671.84,841.384,672.38,862.564,659.05,858.274" style="stroke:#181818;stroke-width:1.0;"/></g><!--reverse link vv.Items.Enemy to vv.Items.EnemyShadow--><g id="link_vv.Items.Enemy_vv.Items.EnemyShadow"><path codeLine="103" d="M621,1103.364 C621,1122.704 621,1142.064 621,1158.744 " fill="none" id="vv.Items.Enemy-backto-vv.Items.EnemyShadow" style="stroke:#181818;stroke-width:1.0;"/><polygon fill="none" points="614,1103.524,621,1083.524,628,1103.524,614,1103.524" style="stroke:#181818;stroke-width:1.0;"/></g><!--reverse link vv.Items.Enemy to vv.Items.EnemyFlame--><g id="link_vv.Items.Enemy_vv.Items.EnemyFlame"><path codeLine="104" d="M719.57,1096.824 C720.38,1097.584 721.19,1098.344 722,1099.094 C746.66,1122.044 774.76,1147.034 797.77,1167.214 " fill="none" id="vv.Items.Enemy-backto-vv.Items.EnemyFlame" style="stroke:#181818;stroke-width:1.0;"/><polygon fill="none" points="715.22,1102.404,705.47,1083.584,724.83,1092.224,715.22,1102.404" style="stroke:#181818;stroke-width:1.0;"/></g><!--reverse link vv.Items.Enemy to vv.Items.EnemyWraith--><g id="link_vv.Items.Enemy_vv.Items.EnemyWraith"><path codeLine="105" d="M714.55,1094.634 C717.01,1096.194 719.5,1097.684 722,1099.094 C814.38,1151.224 852.83,1124.194 953,1159.094 C959.94,1161.514 967.05,1164.184 974.15,1166.994 " fill="none" id="vv.Items.Enemy-backto-vv.Items.EnemyWraith" style="stroke:#181818;stroke-width:1.0;"/><polygon fill="none" points="710.75,1099.814,698.44,1082.574,718.82,1088.374,710.75,1099.814" style="stroke:#181818;stroke-width:1.0;"/></g><!--reverse link vv.Items.Character to vv.Items.Hero--><g id="link_vv.Items.Character_vv.Items.Hero"><path codeLine="106" d="M790.54,860.214 C794.86,873.654 799.1,886.844 803.15,899.414 " fill="none" id="vv.Items.Character-backto-vv.Items.Hero" style="stroke:#181818;stroke-width:1.0;"/><polygon fill="none" points="783.62,862.564,784.16,841.384,796.95,858.274,783.62,862.564" style="stroke:#181818;stroke-width:1.0;"/></g><text fill="#888888" font-family="sans-serif" font-size="10" lengthAdjust="spacing" textLength="179" x="492" y="1288.784">UMLDoclet 2.1.0, PlantUML 1.2022.14</text><!--SRC=[nLPDJnin4BtpAon5bO82KTjZr0km6n8fL2YRb5O88MTtadNnsf5j0WZot-kFx4B0Tb2Br3t4iT_ppDZZUJP2235SWLpY7D1grHqgg2HwtDj3co-dM4gKCgWU-bGppmN_3RaY5D3bfM-uMwgANbrf6-Z5r_5HstFAiJf0jjdVva-N1LRGtk-X5IT5WwszaHtpQWQY3iZrOd4unh-vnpEf1CxL9ewJ4fkUZQBvxu_XKIgiIBv6dIJj7qr7a-lHi9_s465g1oyxJzEavmBUGJqPfqUJwJYzlXWcay5xZ3Sp1kdmT31vEwL5oHmymt89KFYYQjsVyHLuaOSGqcasRoiz1yQj_NcLA6FdJPeiSWfgf0CsuEkG3PQPg0teYI7RJ3NkVAQpUhexEW7lF-lOF1uq_2i2P_Nii8Eijk2b-EkahX3_kMoH2YzqKevlvtCGK0nDTzifaGEYUcZ6EGNCNcCJB1QWp5dm4gphMD4fV0C9Dbxz6GqKfSKIWU_Qfm8lIvBBz-r6LkA2tzLxudenrN2Clr2DNOjRX-LsIsHtIkk72Ug5m4ILjNFNYtbtZ0yLL7CJwG1C4pYkztvbyOxUaKAL7kqgWInAvG5c_9OLieV6-gh2R46t2w75kAWmFOwJi58ulucJEcQ1xvAwntg3rj63zf8MBOf6fY8I5OOkp8Q6j7LWTzMB6cNReMfns3cEAFF6UOJntIRlZ1U1KjMK8viwByLVCIS2iEBD6sJJtVK0i3GOOrRmoibZdNjt07hEUDZt00JNFaqJg4yY4wWu2uhs3oB9Z48G7x8LONcCqX3wGcjGfh3G1KKvMsppf9NF16RwUWcOCilutnU4koY_FHqUUb-zGPvxKpQmbI-BDW-Q1dj-ApvF3zfrjquyl23gT3das6pttelbvy0CDkVSDDEpKS9p2WfzxNxfVZv0vnGpfKVHfnK8IJXhx_y1]--></g></svg>