<?xml version="1.0" encoding="UTF-8" standalone="no"?><svg xmlns="http://www.w3.org/2000/svg" xmlns:xlink="http://www.w3.org/1999/xlink" contentStyleType="text/css" height="1039px" preserveAspectRatio="none" style="width:303px;height:1039px;background:#FFFFFF;" version="1.1" viewBox="0 0 303 1039" width="303px" zoomAndPan="magnify"><defs/><g><!--cluster VV.Items--><g id="cluster_VV.Items"><path d="M8.5,6.294 L68.5,6.294 A3.75,3.75 0 0 1 71,8.794 L78,29.0939 L293.5,29.0939 A2.5,2.5 0 0 1 296,31.5939 L296,1010.794 A2.5,2.5 0 0 1 293.5,1013.294 L8.5,1013.294 A2.5,2.5 0 0 1 6,1010.794 L6,8.794 A2.5,2.5 0 0 1 8.5,6.294 " fill="none" style="stroke:#000000;stroke-width:1.5;"/><line style="stroke:#000000;stroke-width:1.5;" x1="6" x2="78" y1="29.0939" y2="29.0939"/><text fill="#000000" font-family="sans-serif" font-size="14" font-weight="bold" lengthAdjust="spacing" textLength="59" x="10" y="21.2999">VV.Items</text></g><!--class VV.Items.Item--><a href="Item.html" target="_top" title="Item.html" xlink:actuate="onRequest" xlink:href="Item.html" xlink:show="new" xlink:title="Item.html" xlink:type="simple"><g id="elem_VV.Items.Item"><rect codeLine="3" fill="#F1F1F1" height="388.1985" id="VV.Items.Item" rx="2.5" ry="2.5" style="stroke:#181818;stroke-width:0.5;" width="190" x="56" y="41.294"/><ellipse cx="132.75" cy="57.294" fill="#A9DCDF" rx="11" ry="11" style="stroke:#181818;stroke-width:1.0;"/><path d="M134.2813,59.2315 L134.6094,60.0284 L134.3281,60.0284 C133.875,60.0284 133.75,60.0596 133.5781,60.169 C133.2969,60.3096 133.125,60.6065 133.125,60.9034 C133.125,61.2002 133.2656,61.4502 133.5,61.6221 C133.6719,61.7471 133.9063,61.794 134.3281,61.794 L136.6875,61.794 C137.0469,61.794 137.2969,61.7627 137.4375,61.669 C137.7031,61.5284 137.875,61.2159 137.875,60.9034 C137.875,60.6377 137.7344,60.3721 137.5,60.2002 C137.3125,60.0752 137.1563,60.044 136.7031,60.0284 L133.3125,52.2002 L129.5938,52.2002 C129.1406,52.2002 129,52.2159 128.8281,52.3252 C128.5625,52.4971 128.3906,52.7784 128.3906,53.0752 C128.3906,53.3565 128.5313,53.6221 128.7813,53.794 C128.9531,53.919 129.1406,53.9502 129.5938,53.9502 L130.5625,53.9502 L127.9844,60.0284 C127.2344,60.0284 126.8281,60.3252 126.8281,60.9034 C126.8281,61.5127 127.2188,61.794 128.0156,61.794 L130.2813,61.794 C130.6406,61.794 130.8906,61.7627 131.0313,61.669 C131.2969,61.5127 131.4688,61.2159 131.4688,60.9034 C131.4688,60.6377 131.3281,60.3721 131.0938,60.2002 C130.9063,60.0596 130.75,60.0284 130.2813,60.0284 L129.9844,60.0284 L130.3281,59.2315 L134.2813,59.2315 Z M133.5156,57.4815 L131.0625,57.4815 L132.2969,54.6065 L133.5156,57.4815 Z " fill="#000000"/><text fill="#000000" font-family="sans-serif" font-size="14" font-style="italic" lengthAdjust="spacing" textLength="28" x="153.25" y="63.244">Item</text><line style="stroke:#181818;stroke-width:0.5;" x1="57" x2="245" y1="73.294" y2="73.294"/><polygon fill="none" points="67,82.1939,71,86.1939,67,90.1939,63,86.1939" style="stroke:#B38D22;stroke-width:1.0;"/><text fill="#000000" font-family="sans-serif" font-size="14" lengthAdjust="spacing" textLength="42" x="76" y="90.2999">x: float</text><polygon fill="none" points="67,98.9939,71,102.9939,67,106.9939,63,102.9939" style="stroke:#B38D22;stroke-width:1.0;"/><text fill="#000000" font-family="sans-serif" font-size="14" lengthAdjust="spacing" textLength="42" x="76" y="107.0999">y: float</text><polygon fill="none" points="67,115.7938,71,119.7938,67,123.7938,63,119.7938" style="stroke:#B38D22;stroke-width:1.0;"/><text fill="#000000" font-family="sans-serif" font-size="14" lengthAdjust="spacing" textLength="56" x="76" y="123.8998">width: int</text><polygon fill="none" points="67,132.5937,71,136.5937,67,140.5937,63,136.5937" style="stroke:#B38D22;stroke-width:1.0;"/><text fill="#000000" font-family="sans-serif" font-size="14" lengthAdjust="spacing" textLength="62" x="76" y="140.6997">height: int</text><polygon fill="none" points="67,149.3937,71,153.3937,67,157.3937,63,153.3937" style="stroke:#B38D22;stroke-width:1.0;"/><text fill="#000000" font-family="sans-serif" font-size="14" lengthAdjust="spacing" textLength="119" x="76" y="157.4996">bounds: Rectangle</text><polygon fill="none" points="67,166.1936,71,170.1936,67,174.1936,63,170.1936" style="stroke:#B38D22;stroke-width:1.0;"/><text fill="#000000" font-family="sans-serif" font-size="14" lengthAdjust="spacing" textLength="164" x="76" y="174.2996">normalBounds: Rectangle</text><polygon fill="none" points="67,182.9935,71,186.9935,67,190.9935,63,186.9935" style="stroke:#B38D22;stroke-width:1.0;"/><text fill="#000000" font-family="sans-serif" font-size="14" lengthAdjust="spacing" textLength="158" x="76" y="191.0995">attackBounds: Rectangle</text><line style="stroke:#181818;stroke-width:0.5;" x1="57" x2="245" y1="198.8935" y2="198.8935"/><ellipse cx="67" cy="212.7934" fill="#84BE84" rx="3" ry="3" style="stroke:#038048;stroke-width:1.0;"/><text fill="#000000" font-family="sans-serif" font-size="14" lengthAdjust="spacing" textLength="146" x="76" y="215.8994">Item(float, float, int, int)</text><ellipse cx="67" cy="230.6434" fill="#84BE84" rx="3" ry="3" style="stroke:#038048;stroke-width:1.0;"/><text fill="#000000" font-family="sans-serif" font-size="14" font-style="italic" lengthAdjust="spacing" textLength="90" x="76" y="235.0933">Update(): void</text><ellipse cx="67" cy="249.5433" fill="#84BE84" rx="3" ry="3" style="stroke:#038048;stroke-width:1.0;"/><text fill="#000000" font-family="sans-serif" font-size="14" font-style="italic" lengthAdjust="spacing" textLength="134" x="76" y="253.9932">Draw(Graphics): void</text><ellipse cx="67" cy="267.3932" fill="#84BE84" rx="3" ry="3" style="stroke:#038048;stroke-width:1.0;"/><text fill="#000000" font-family="sans-serif" font-size="14" lengthAdjust="spacing" textLength="77" x="76" y="270.4992">GetX(): float</text><ellipse cx="67" cy="284.1931" fill="#84BE84" rx="3" ry="3" style="stroke:#038048;stroke-width:1.0;"/><text fill="#000000" font-family="sans-serif" font-size="14" lengthAdjust="spacing" textLength="77" x="76" y="287.2991">GetY(): float</text><ellipse cx="67" cy="300.993" fill="#84BE84" rx="3" ry="3" style="stroke:#038048;stroke-width:1.0;"/><text fill="#000000" font-family="sans-serif" font-size="14" lengthAdjust="spacing" textLength="92" x="76" y="304.099">GetWidth(): int</text><ellipse cx="67" cy="317.793" fill="#84BE84" rx="3" ry="3" style="stroke:#038048;stroke-width:1.0;"/><text fill="#000000" font-family="sans-serif" font-size="14" lengthAdjust="spacing" textLength="97" x="76" y="320.899">GetHeight(): int</text><ellipse cx="67" cy="334.5929" fill="#84BE84" rx="3" ry="3" style="stroke:#038048;stroke-width:1.0;"/><text fill="#000000" font-family="sans-serif" font-size="14" lengthAdjust="spacing" textLength="101" x="76" y="337.6989">SetX(float): void</text><ellipse cx="67" cy="351.3928" fill="#84BE84" rx="3" ry="3" style="stroke:#038048;stroke-width:1.0;"/><text fill="#000000" font-family="sans-serif" font-size="14" lengthAdjust="spacing" textLength="101" x="76" y="354.4988">SetY(float): void</text><ellipse cx="67" cy="368.1928" fill="#84BE84" rx="3" ry="3" style="stroke:#038048;stroke-width:1.0;"/><text fill="#000000" font-family="sans-serif" font-size="14" lengthAdjust="spacing" textLength="116" x="76" y="371.2987">SetWidth(int): void</text><ellipse cx="67" cy="384.9927" fill="#84BE84" rx="3" ry="3" style="stroke:#038048;stroke-width:1.0;"/><text fill="#000000" font-family="sans-serif" font-size="14" lengthAdjust="spacing" textLength="121" x="76" y="388.0987">SetHeight(int): void</text><ellipse cx="67" cy="401.7926" fill="#84BE84" rx="3" ry="3" style="stroke:#038048;stroke-width:1.0;"/><text fill="#000000" font-family="sans-serif" font-size="14" lengthAdjust="spacing" textLength="147" x="76" y="404.8986">SetNormalMode(): void</text><ellipse cx="67" cy="418.5925" fill="#84BE84" rx="3" ry="3" style="stroke:#038048;stroke-width:1.0;"/><text fill="#000000" font-family="sans-serif" font-size="14" lengthAdjust="spacing" textLength="140" x="76" y="421.6985">SetAttackMode(): void</text></g></a><!--class VV.Items.Hero--><a href="Hero.html" target="_top" title="Hero.html" xlink:actuate="onRequest" xlink:href="Hero.html" xlink:show="new" xlink:title="Hero.html" xlink:type="simple"><g id="elem_VV.Items.Hero"><rect codeLine="26" fill="#F1F1F1" height="98.3998" id="VV.Items.Hero" rx="2.5" ry="2.5" style="stroke:#181818;stroke-width:0.5;" width="160" x="71" y="899.294"/><ellipse cx="131.25" cy="915.294" fill="#ADD1B2" rx="11" ry="11" style="stroke:#181818;stroke-width:1.0;"/><path d="M126.25,916.4502 C126.25,918.9502 128.3906,920.7627 131.3125,920.7627 C132.5469,920.7627 133.7188,920.4659 134.4688,919.9502 C135.0781,919.5284 135.4063,919.1065 135.4063,918.7002 C135.4063,918.2315 134.9844,917.8252 134.4844,917.8252 C134.25,917.8252 134.0313,917.9034 133.8281,918.1065 C133.3906,918.544 133.3906,918.544 133.2188,918.6377 C132.7656,918.8721 132.125,919.0127 131.3594,919.0127 C129.3594,919.0127 128.0781,917.9971 128.0781,916.419 L128.0781,915.3721 C128.0781,913.669 129.2969,912.4659 131,912.4659 C131.5781,912.4659 132.1563,912.6065 132.625,912.8565 C133.0938,913.1221 133.2656,913.3096 133.3281,913.669 C133.4531,914.3409 133.7031,914.5909 134.2344,914.5909 C134.5156,914.5909 134.7969,914.4502 134.9844,914.2315 C135.1094,914.0596 135.1563,913.8877 135.1563,913.4502 L135.1563,912.0909 C135.1563,911.669 135.1406,911.5284 135.0156,911.3565 C134.8438,911.1065 134.5625,910.9502 134.2344,910.9502 C133.9219,910.9502 133.7188,911.0596 133.5,911.3252 C132.3281,910.8252 131.8906,910.7159 130.9375,910.7159 C128.2656,910.7159 126.25,912.7315 126.25,915.3565 L126.25,916.4502 Z " fill="#000000"/><text fill="#000000" font-family="sans-serif" font-size="14" lengthAdjust="spacing" textLength="31" x="151.75" y="919.9">Hero</text><line style="stroke:#181818;stroke-width:0.5;" x1="72" x2="230" y1="931.294" y2="931.294"/><line style="stroke:#181818;stroke-width:0.5;" x1="72" x2="230" y1="939.294" y2="939.294"/><ellipse cx="82" cy="953.1939" fill="#84BE84" rx="3" ry="3" style="stroke:#038048;stroke-width:1.0;"/><text fill="#000000" font-family="sans-serif" font-size="14" lengthAdjust="spacing" textLength="103" x="91" y="956.2999">Hero(float, float)</text><ellipse cx="82" cy="969.9939" fill="#84BE84" rx="3" ry="3" style="stroke:#038048;stroke-width:1.0;"/><text fill="#000000" font-family="sans-serif" font-size="14" lengthAdjust="spacing" textLength="90" x="91" y="973.0999">Update(): void</text><ellipse cx="82" cy="986.7938" fill="#84BE84" rx="3" ry="3" style="stroke:#038048;stroke-width:1.0;"/><text fill="#000000" font-family="sans-serif" font-size="14" lengthAdjust="spacing" textLength="134" x="91" y="989.8998">Draw(Graphics): void</text></g></a><!--class VV.Items.Character--><a href="Character.html" target="_top" title="Character.html" xlink:actuate="onRequest" xlink:href="Character.html" xlink:show="new" xlink:title="Character.html" xlink:type="simple"><g id="elem_VV.Items.Character"><rect codeLine="32" fill="#F1F1F1" height="350.3987" id="VV.Items.Character" rx="2.5" ry="2.5" style="stroke:#181818;stroke-width:0.5;" width="258" x="22" y="489.294"/><ellipse cx="115.25" cy="505.294" fill="#A9DCDF" rx="11" ry="11" style="stroke:#181818;stroke-width:1.0;"/><path d="M116.7813,507.2315 L117.1094,508.0284 L116.8281,508.0284 C116.375,508.0284 116.25,508.0596 116.0781,508.169 C115.7969,508.3096 115.625,508.6065 115.625,508.9034 C115.625,509.2002 115.7656,509.4502 116,509.6221 C116.1719,509.7471 116.4063,509.794 116.8281,509.794 L119.1875,509.794 C119.5469,509.794 119.7969,509.7627 119.9375,509.669 C120.2031,509.5284 120.375,509.2159 120.375,508.9034 C120.375,508.6377 120.2344,508.3721 120,508.2002 C119.8125,508.0752 119.6563,508.044 119.2031,508.0284 L115.8125,500.2002 L112.0938,500.2002 C111.6406,500.2002 111.5,500.2159 111.3281,500.3252 C111.0625,500.4971 110.8906,500.7784 110.8906,501.0752 C110.8906,501.3565 111.0313,501.6221 111.2813,501.794 C111.4531,501.919 111.6406,501.9502 112.0938,501.9502 L113.0625,501.9502 L110.4844,508.0284 C109.7344,508.0284 109.3281,508.3252 109.3281,508.9034 C109.3281,509.5127 109.7188,509.794 110.5156,509.794 L112.7813,509.794 C113.1406,509.794 113.3906,509.7627 113.5313,509.669 C113.7969,509.5127 113.9688,509.2159 113.9688,508.9034 C113.9688,508.6377 113.8281,508.3721 113.5938,508.2002 C113.4063,508.0596 113.25,508.0284 112.7813,508.0284 L112.4844,508.0284 L112.8281,507.2315 L116.7813,507.2315 Z M116.0156,505.4815 L113.5625,505.4815 L114.7969,502.6065 L116.0156,505.4815 Z " fill="#000000"/><text fill="#000000" font-family="sans-serif" font-size="14" font-style="italic" lengthAdjust="spacing" textLength="63" x="135.75" y="511.244">Character</text><line style="stroke:#181818;stroke-width:0.5;" x1="23" x2="279" y1="521.294" y2="521.294"/><ellipse cx="33" cy="535.1939" fill="none" rx="3" ry="3" style="stroke:#038048;stroke-width:1.0;"/><text fill="#000000" font-family="sans-serif" font-size="14" lengthAdjust="spacing" text-decoration="underline" textLength="125" x="42" y="538.2999">DEFAULT_LIFE: int</text><ellipse cx="33" cy="551.9939" fill="none" rx="3" ry="3" style="stroke:#038048;stroke-width:1.0;"/><text fill="#000000" font-family="sans-serif" font-size="14" lengthAdjust="spacing" text-decoration="underline" textLength="153" x="42" y="555.0999">DEFAULT_SPEED: float</text><ellipse cx="33" cy="568.7938" fill="none" rx="3" ry="3" style="stroke:#038048;stroke-width:1.0;"/><text fill="#000000" font-family="sans-serif" font-size="14" lengthAdjust="spacing" text-decoration="underline" textLength="225" x="42" y="571.8998">DEFAULT_CREATURE_WIDTH: int</text><ellipse cx="33" cy="585.5937" fill="none" rx="3" ry="3" style="stroke:#038048;stroke-width:1.0;"/><text fill="#000000" font-family="sans-serif" font-size="14" lengthAdjust="spacing" text-decoration="underline" textLength="232" x="42" y="588.6997">DEFAULT_CREATURE_HEIGHT: int</text><polygon fill="none" points="33,597.3937,37,601.3937,33,605.3937,29,601.3937" style="stroke:#B38D22;stroke-width:1.0;"/><text fill="#000000" font-family="sans-serif" font-size="14" lengthAdjust="spacing" textLength="41" x="42" y="605.4996">life: int</text><polygon fill="none" points="33,614.1936,37,618.1936,33,622.1936,29,618.1936" style="stroke:#B38D22;stroke-width:1.0;"/><text fill="#000000" font-family="sans-serif" font-size="14" lengthAdjust="spacing" textLength="74" x="42" y="622.2996">speed: float</text><polygon fill="none" points="33,630.9935,37,634.9935,33,638.9935,29,634.9935" style="stroke:#B38D22;stroke-width:1.0;"/><text fill="#000000" font-family="sans-serif" font-size="14" lengthAdjust="spacing" textLength="77" x="42" y="639.0995">xMove: float</text><polygon fill="none" points="33,647.7934,37,651.7934,33,655.7934,29,651.7934" style="stroke:#B38D22;stroke-width:1.0;"/><text fill="#000000" font-family="sans-serif" font-size="14" lengthAdjust="spacing" textLength="77" x="42" y="655.8994">yMove: float</text><line style="stroke:#181818;stroke-width:0.5;" x1="23" x2="279" y1="663.6934" y2="663.6934"/><ellipse cx="33" cy="677.5934" fill="#84BE84" rx="3" ry="3" style="stroke:#038048;stroke-width:1.0;"/><text fill="#000000" font-family="sans-serif" font-size="14" lengthAdjust="spacing" textLength="181" x="42" y="680.6993">Character(float, float, int, int)</text><ellipse cx="33" cy="694.3933" fill="#84BE84" rx="3" ry="3" style="stroke:#038048;stroke-width:1.0;"/><text fill="#000000" font-family="sans-serif" font-size="14" lengthAdjust="spacing" textLength="79" x="42" y="697.4993">Move(): void</text><ellipse cx="33" cy="711.1932" fill="#84BE84" rx="3" ry="3" style="stroke:#038048;stroke-width:1.0;"/><text fill="#000000" font-family="sans-serif" font-size="14" lengthAdjust="spacing" textLength="79" x="42" y="714.2992">GetLife(): int</text><ellipse cx="33" cy="727.9931" fill="#84BE84" rx="3" ry="3" style="stroke:#038048;stroke-width:1.0;"/><text fill="#000000" font-family="sans-serif" font-size="14" lengthAdjust="spacing" textLength="109" x="42" y="731.0991">GetSpeed(): float</text><ellipse cx="33" cy="744.7931" fill="#84BE84" rx="3" ry="3" style="stroke:#038048;stroke-width:1.0;"/><text fill="#000000" font-family="sans-serif" font-size="14" lengthAdjust="spacing" textLength="103" x="42" y="747.899">SetLife(int): void</text><ellipse cx="33" cy="761.593" fill="#84BE84" rx="3" ry="3" style="stroke:#038048;stroke-width:1.0;"/><text fill="#000000" font-family="sans-serif" font-size="14" lengthAdjust="spacing" textLength="133" x="42" y="764.699">SetSpeed(float): void</text><ellipse cx="33" cy="778.3929" fill="#84BE84" rx="3" ry="3" style="stroke:#038048;stroke-width:1.0;"/><text fill="#000000" font-family="sans-serif" font-size="14" lengthAdjust="spacing" textLength="112" x="42" y="781.4989">GetXMove(): float</text><ellipse cx="33" cy="795.1928" fill="#84BE84" rx="3" ry="3" style="stroke:#038048;stroke-width:1.0;"/><text fill="#000000" font-family="sans-serif" font-size="14" lengthAdjust="spacing" textLength="112" x="42" y="798.2988">GetYMove(): float</text><ellipse cx="33" cy="811.9928" fill="#84BE84" rx="3" ry="3" style="stroke:#038048;stroke-width:1.0;"/><text fill="#000000" font-family="sans-serif" font-size="14" lengthAdjust="spacing" textLength="136" x="42" y="815.0988">SetXMove(float): void</text><ellipse cx="33" cy="828.7927" fill="#84BE84" rx="3" ry="3" style="stroke:#038048;stroke-width:1.0;"/><text fill="#000000" font-family="sans-serif" font-size="14" lengthAdjust="spacing" textLength="136" x="42" y="831.8987">SetYMove(float): void</text></g></a><!--reverse link VV.Items.Character to VV.Items.Hero--><g id="link_VV.Items.Character_VV.Items.Hero"><path codeLine="53" d="M151,860.394 C151,874.324 151,887.424 151,899.014 " fill="none" id="VV.Items.Character-backto-VV.Items.Hero" style="stroke:#181818;stroke-width:1.0;"/><polygon fill="none" points="144,860.474,151,840.474,158,860.474,144,860.474" style="stroke:#181818;stroke-width:1.0;"/></g><!--reverse link VV.Items.Item to VV.Items.Character--><g id="link_VV.Items.Item_VV.Items.Character"><path codeLine="54" d="M151,450.394 C151,463.264 151,476.134 151,488.804 " fill="none" id="VV.Items.Item-backto-VV.Items.Character" style="stroke:#181818;stroke-width:1.0;"/><polygon fill="none" points="144,450.494,151,430.494,158,450.494,144,450.494" style="stroke:#181818;stroke-width:1.0;"/></g><text fill="#888888" font-family="sans-serif" font-size="10" lengthAdjust="spacing" textLength="179" x="55" y="1028.584">UMLDoclet 2.1.0, PlantUML 1.2022.14</text><!--SRC=[ZLJVJy8m47xdhxZ4c8nCYVf8V46PZ0ICOU2F66DgTxZ5iPAreWRvtzqLc4pQnZsiSDztxUtk-me0aBCPoZdZ2BUthRx2cOHbem6RXxr8LJ2kW6TCIY0S7XzfQILgbZqzbMJOUGu-sp3D15Frw9Sn-f76Acb3cl-99vY-9ie0l8ZtF9Pj625NB7_Di0xdefYnxC9DOaen_kOc-VI1dgxu23PBMOn-DMlCvRP1A_0dyvWfz9fjM8WqjjAw1VlmUWMR9ocN9hBVGtLFs-otZA07EtH73INuR-S837LNZMX41-ejZVL4TAWJNXzCtR4GDeSx6DTwU4CHcpj8b8uUdP6o-fNiMgaX5g9KAYrcfVe4rMPSdwnhdEuPhgpskKmO_SEYhApwRIvlAHLJAIUz15UToM3yFEXV1Vkps-T5Dq7GDIbadtev2ZhZoIXulkjtn-5_Dgyomg3V2yS6ZsRf50rXEKUCZRV0vr0iq7nhs12_Qjw_JEhJFfxDQeEoO9jd8ghQuhTea-hGz3hTxXmo-hOsYzaTSBJDTZlNJjaHwgyopx-FZxLxAanV-ZfSiHexwHnpofiAGSjaEEWAdg62izPfw-G8RZAMgp8AXmiiP2foh_a3]--></g></svg>