<?xml version="1.0" encoding="UTF-8" standalone="no"?><svg xmlns="http://www.w3.org/2000/svg" xmlns:xlink="http://www.w3.org/1999/xlink" contentStyleType="text/css" height="1265px" preserveAspectRatio="none" style="width:901px;height:1265px;background:#FFFFFF;" version="1.1" viewBox="0 0 901 1265" width="901px" zoomAndPan="magnify"><defs/><g><!--cluster vv.Items--><g id="cluster_vv.Items"><path d="M8.5,6.294 L66.5,6.294 A3.75,3.75 0 0 1 69,8.794 L76,29.0939 L891.5,29.0939 A2.5,2.5 0 0 1 894,31.5939 L894,1237.394 A2.5,2.5 0 0 1 891.5,1239.894 L8.5,1239.894 A2.5,2.5 0 0 1 6,1237.394 L6,8.794 A2.5,2.5 0 0 1 8.5,6.294 " fill="none" style="stroke:#000000;stroke-width:1.5;"/><line style="stroke:#000000;stroke-width:1.5;" x1="6" x2="76" y1="29.0939" y2="29.0939"/><text fill="#000000" font-family="sans-serif" font-size="14" font-weight="bold" lengthAdjust="spacing" textLength="57" x="10" y="21.2999">vv.Items</text></g><!--class vv.Items.EnemyBomber--><a href="EnemyBomber.html" target="_top" title="EnemyBomber.html" xlink:actuate="onRequest" xlink:href="EnemyBomber.html" xlink:show="new" xlink:title="EnemyBomber.html" xlink:type="simple"><g id="elem_vv.Items.EnemyBomber"><rect codeLine="3" fill="#F1F1F1" height="64.7999" id="vv.Items.EnemyBomber" rx="2.5" ry="2.5" style="stroke:#181818;stroke-width:0.5;" width="192" x="22" y="1150.694"/><ellipse cx="66.75" cy="1166.694" fill="#ADD1B2" rx="11" ry="11" style="stroke:#181818;stroke-width:1.0;"/><path d="M61.75,1167.8502 C61.75,1170.3502 63.8906,1172.1627 66.8125,1172.1627 C68.0469,1172.1627 69.2188,1171.8659 69.9688,1171.3502 C70.5781,1170.9284 70.9063,1170.5065 70.9063,1170.1002 C70.9063,1169.6315 70.4844,1169.2252 69.9844,1169.2252 C69.75,1169.2252 69.5313,1169.3034 69.3281,1169.5065 C68.8906,1169.944 68.8906,1169.944 68.7188,1170.0377 C68.2656,1170.2721 67.625,1170.4127 66.8594,1170.4127 C64.8594,1170.4127 63.5781,1169.3971 63.5781,1167.819 L63.5781,1166.7721 C63.5781,1165.069 64.7969,1163.8659 66.5,1163.8659 C67.0781,1163.8659 67.6563,1164.0065 68.125,1164.2565 C68.5938,1164.5221 68.7656,1164.7096 68.8281,1165.069 C68.9531,1165.7409 69.2031,1165.9909 69.7344,1165.9909 C70.0156,1165.9909 70.2969,1165.8502 70.4844,1165.6315 C70.6094,1165.4596 70.6563,1165.2877 70.6563,1164.8502 L70.6563,1163.4909 C70.6563,1163.069 70.6406,1162.9284 70.5156,1162.7565 C70.3438,1162.5065 70.0625,1162.3502 69.7344,1162.3502 C69.4219,1162.3502 69.2188,1162.4596 69,1162.7252 C67.8281,1162.2252 67.3906,1162.1159 66.4375,1162.1159 C63.7656,1162.1159 61.75,1164.1315 61.75,1166.7565 L61.75,1167.8502 Z " fill="#000000"/><text fill="#000000" font-family="sans-serif" font-size="14" lengthAdjust="spacing" textLength="94" x="87.25" y="1171.3">EnemyBomber</text><line style="stroke:#181818;stroke-width:0.5;" x1="23" x2="213" y1="1182.694" y2="1182.694"/><line style="stroke:#181818;stroke-width:0.5;" x1="23" x2="213" y1="1190.694" y2="1190.694"/><ellipse cx="33" cy="1204.5939" fill="#84BE84" rx="3" ry="3" style="stroke:#038048;stroke-width:1.0;"/><text fill="#000000" font-family="sans-serif" font-size="14" lengthAdjust="spacing" textLength="166" x="42" y="1207.6999">EnemyBomber(float, float)</text></g></a><!--class vv.Items.EnemyWraith--><a href="EnemyWraith.html" target="_top" title="EnemyWraith.html" xlink:actuate="onRequest" xlink:href="EnemyWraith.html" xlink:show="new" xlink:title="EnemyWraith.html" xlink:type="simple"><g id="elem_vv.Items.EnemyWraith"><rect codeLine="7" fill="#F1F1F1" height="81.5999" id="vv.Items.EnemyWraith" rx="2.5" ry="2.5" style="stroke:#181818;stroke-width:0.5;" width="183" x="249.5" y="1142.294"/><ellipse cx="294.25" cy="1158.294" fill="#ADD1B2" rx="11" ry="11" style="stroke:#181818;stroke-width:1.0;"/><path d="M289.25,1159.4502 C289.25,1161.9502 291.3906,1163.7627 294.3125,1163.7627 C295.5469,1163.7627 296.7188,1163.4659 297.4688,1162.9502 C298.0781,1162.5284 298.4063,1162.1065 298.4063,1161.7002 C298.4063,1161.2315 297.9844,1160.8252 297.4844,1160.8252 C297.25,1160.8252 297.0313,1160.9034 296.8281,1161.1065 C296.3906,1161.544 296.3906,1161.544 296.2188,1161.6377 C295.7656,1161.8721 295.125,1162.0127 294.3594,1162.0127 C292.3594,1162.0127 291.0781,1160.9971 291.0781,1159.419 L291.0781,1158.3721 C291.0781,1156.669 292.2969,1155.4659 294,1155.4659 C294.5781,1155.4659 295.1563,1155.6065 295.625,1155.8565 C296.0938,1156.1221 296.2656,1156.3096 296.3281,1156.669 C296.4531,1157.3409 296.7031,1157.5909 297.2344,1157.5909 C297.5156,1157.5909 297.7969,1157.4502 297.9844,1157.2315 C298.1094,1157.0596 298.1563,1156.8877 298.1563,1156.4502 L298.1563,1155.0909 C298.1563,1154.669 298.1406,1154.5284 298.0156,1154.3565 C297.8438,1154.1065 297.5625,1153.9502 297.2344,1153.9502 C296.9219,1153.9502 296.7188,1154.0596 296.5,1154.3252 C295.3281,1153.8252 294.8906,1153.7159 293.9375,1153.7159 C291.2656,1153.7159 289.25,1155.7315 289.25,1158.3565 L289.25,1159.4502 Z " fill="#000000"/><text fill="#000000" font-family="sans-serif" font-size="14" lengthAdjust="spacing" textLength="85" x="314.75" y="1162.9">EnemyWraith</text><line style="stroke:#181818;stroke-width:0.5;" x1="250.5" x2="431.5" y1="1174.294" y2="1174.294"/><line style="stroke:#181818;stroke-width:0.5;" x1="250.5" x2="431.5" y1="1182.294" y2="1182.294"/><ellipse cx="260.5" cy="1196.1939" fill="#84BE84" rx="3" ry="3" style="stroke:#038048;stroke-width:1.0;"/><text fill="#000000" font-family="sans-serif" font-size="14" lengthAdjust="spacing" textLength="157" x="269.5" y="1199.2999">EnemyWraith(float, float)</text><ellipse cx="260.5" cy="1212.9939" fill="#84BE84" rx="3" ry="3" style="stroke:#038048;stroke-width:1.0;"/><text fill="#000000" font-family="sans-serif" font-size="14" lengthAdjust="spacing" textLength="90" x="269.5" y="1216.0999">Update(): void</text></g></a><!--class vv.Items.Enemy--><a href="Enemy.html" target="_top" title="Enemy.html" xlink:actuate="onRequest" xlink:href="Enemy.html" xlink:show="new" xlink:title="Enemy.html" xlink:type="simple"><g id="elem_vv.Items.Enemy"><rect codeLine="12" fill="#F1F1F1" height="182.3994" id="vv.Items.Enemy" rx="2.5" ry="2.5" style="stroke:#181818;stroke-width:0.5;" width="191" x="352.5" y="899.894"/><ellipse cx="421.75" cy="915.894" fill="#ADD1B2" rx="11" ry="11" style="stroke:#181818;stroke-width:1.0;"/><path d="M416.75,917.0502 C416.75,919.5502 418.8906,921.3627 421.8125,921.3627 C423.0469,921.3627 424.2188,921.0659 424.9688,920.5502 C425.5781,920.1284 425.9063,919.7065 425.9063,919.3002 C425.9063,918.8315 425.4844,918.4252 424.9844,918.4252 C424.75,918.4252 424.5313,918.5034 424.3281,918.7065 C423.8906,919.144 423.8906,919.144 423.7188,919.2377 C423.2656,919.4721 422.625,919.6127 421.8594,919.6127 C419.8594,919.6127 418.5781,918.5971 418.5781,917.019 L418.5781,915.9721 C418.5781,914.269 419.7969,913.0659 421.5,913.0659 C422.0781,913.0659 422.6563,913.2065 423.125,913.4565 C423.5938,913.7221 423.7656,913.9096 423.8281,914.269 C423.9531,914.9409 424.2031,915.1909 424.7344,915.1909 C425.0156,915.1909 425.2969,915.0502 425.4844,914.8315 C425.6094,914.6596 425.6563,914.4877 425.6563,914.0502 L425.6563,912.6909 C425.6563,912.269 425.6406,912.1284 425.5156,911.9565 C425.3438,911.7065 425.0625,911.5502 424.7344,911.5502 C424.4219,911.5502 424.2188,911.6596 424,911.9252 C422.8281,911.4252 422.3906,911.3159 421.4375,911.3159 C418.7656,911.3159 416.75,913.3315 416.75,915.9565 L416.75,917.0502 Z " fill="#000000"/><text fill="#000000" font-family="sans-serif" font-size="14" lengthAdjust="spacing" textLength="44" x="442.25" y="920.5">Enemy</text><line style="stroke:#181818;stroke-width:0.5;" x1="353.5" x2="542.5" y1="931.894" y2="931.894"/><polygon fill="none" points="363.5,940.7939,367.5,944.7939,363.5,948.7939,359.5,944.7939" style="stroke:#B38D22;stroke-width:1.0;"/><text fill="#000000" font-family="sans-serif" font-size="14" lengthAdjust="spacing" textLength="141" x="372.5" y="948.8999">image: BufferedImage</text><ellipse cx="363.5" cy="962.5939" fill="none" rx="3" ry="3" style="stroke:#038048;stroke-width:1.0;"/><text fill="#000000" font-family="sans-serif" font-size="14" lengthAdjust="spacing" textLength="110" x="372.5" y="965.6999">isVisible: boolean</text><ellipse cx="363.5" cy="979.3938" fill="none" rx="3" ry="3" style="stroke:#038048;stroke-width:1.0;"/><text fill="#000000" font-family="sans-serif" font-size="14" lengthAdjust="spacing" textLength="128" x="372.5" y="982.4998">isInvincible: boolean</text><ellipse cx="363.5" cy="996.1937" fill="none" rx="3" ry="3" style="stroke:#038048;stroke-width:1.0;"/><text fill="#000000" font-family="sans-serif" font-size="14" lengthAdjust="spacing" textLength="165" x="372.5" y="999.2997">invincibleFrameStart: long</text><line style="stroke:#181818;stroke-width:0.5;" x1="353.5" x2="542.5" y1="1007.0937" y2="1007.0937"/><ellipse cx="363.5" cy="1020.9937" fill="#84BE84" rx="3" ry="3" style="stroke:#038048;stroke-width:1.0;"/><text fill="#000000" font-family="sans-serif" font-size="14" lengthAdjust="spacing" textLength="116" x="372.5" y="1024.0996">Enemy(float, float)</text><ellipse cx="363.5" cy="1037.7936" fill="#84BE84" rx="3" ry="3" style="stroke:#038048;stroke-width:1.0;"/><text fill="#000000" font-family="sans-serif" font-size="14" lengthAdjust="spacing" textLength="125" x="372.5" y="1040.8996">takeDamage(): void</text><ellipse cx="363.5" cy="1054.5935" fill="#84BE84" rx="3" ry="3" style="stroke:#038048;stroke-width:1.0;"/><text fill="#000000" font-family="sans-serif" font-size="14" lengthAdjust="spacing" textLength="90" x="372.5" y="1057.6995">Update(): void</text><ellipse cx="363.5" cy="1071.3934" fill="#84BE84" rx="3" ry="3" style="stroke:#038048;stroke-width:1.0;"/><text fill="#000000" font-family="sans-serif" font-size="14" lengthAdjust="spacing" textLength="134" x="372.5" y="1074.4994">Draw(Graphics): void</text></g></a><!--class vv.Items.Hero--><a href="Hero.html" target="_top" title="Hero.html" xlink:actuate="onRequest" xlink:href="Hero.html" xlink:show="new" xlink:title="Hero.html" xlink:type="simple"><g id="elem_vv.Items.Hero"><rect codeLine="23" fill="#F1F1F1" height="165.5995" id="vv.Items.Hero" rx="2.5" ry="2.5" style="stroke:#181818;stroke-width:0.5;" width="191" x="578.5" y="908.294"/><ellipse cx="654.25" cy="924.294" fill="#ADD1B2" rx="11" ry="11" style="stroke:#181818;stroke-width:1.0;"/><path d="M649.25,925.4502 C649.25,927.9502 651.3906,929.7627 654.3125,929.7627 C655.5469,929.7627 656.7188,929.4659 657.4688,928.9502 C658.0781,928.5284 658.4063,928.1065 658.4063,927.7002 C658.4063,927.2315 657.9844,926.8252 657.4844,926.8252 C657.25,926.8252 657.0313,926.9034 656.8281,927.1065 C656.3906,927.544 656.3906,927.544 656.2188,927.6377 C655.7656,927.8721 655.125,928.0127 654.3594,928.0127 C652.3594,928.0127 651.0781,926.9971 651.0781,925.419 L651.0781,924.3721 C651.0781,922.669 652.2969,921.4659 654,921.4659 C654.5781,921.4659 655.1563,921.6065 655.625,921.8565 C656.0938,922.1221 656.2656,922.3096 656.3281,922.669 C656.4531,923.3409 656.7031,923.5909 657.2344,923.5909 C657.5156,923.5909 657.7969,923.4502 657.9844,923.2315 C658.1094,923.0596 658.1563,922.8877 658.1563,922.4502 L658.1563,921.0909 C658.1563,920.669 658.1406,920.5284 658.0156,920.3565 C657.8438,920.1065 657.5625,919.9502 657.2344,919.9502 C656.9219,919.9502 656.7188,920.0596 656.5,920.3252 C655.3281,919.8252 654.8906,919.7159 653.9375,919.7159 C651.2656,919.7159 649.25,921.7315 649.25,924.3565 L649.25,925.4502 Z " fill="#000000"/><text fill="#000000" font-family="sans-serif" font-size="14" lengthAdjust="spacing" textLength="31" x="674.75" y="928.9">Hero</text><line style="stroke:#181818;stroke-width:0.5;" x1="579.5" x2="768.5" y1="940.294" y2="940.294"/><ellipse cx="589.5" cy="954.1939" fill="none" rx="3" ry="3" style="stroke:#038048;stroke-width:1.0;"/><text fill="#000000" font-family="sans-serif" font-size="14" lengthAdjust="spacing" textLength="110" x="598.5" y="957.2999">isVisible: boolean</text><ellipse cx="589.5" cy="970.9939" fill="none" rx="3" ry="3" style="stroke:#038048;stroke-width:1.0;"/><text fill="#000000" font-family="sans-serif" font-size="14" lengthAdjust="spacing" textLength="128" x="598.5" y="974.0999">isInvincible: boolean</text><ellipse cx="589.5" cy="987.7938" fill="none" rx="3" ry="3" style="stroke:#038048;stroke-width:1.0;"/><text fill="#000000" font-family="sans-serif" font-size="14" lengthAdjust="spacing" textLength="165" x="598.5" y="990.8998">invincibleFrameStart: long</text><line style="stroke:#181818;stroke-width:0.5;" x1="579.5" x2="768.5" y1="998.6938" y2="998.6938"/><ellipse cx="589.5" cy="1012.5937" fill="#84BE84" rx="3" ry="3" style="stroke:#038048;stroke-width:1.0;"/><text fill="#000000" font-family="sans-serif" font-size="14" lengthAdjust="spacing" textLength="103" x="598.5" y="1015.6997">Hero(float, float)</text><ellipse cx="589.5" cy="1029.3937" fill="#84BE84" rx="3" ry="3" style="stroke:#038048;stroke-width:1.0;"/><text fill="#000000" font-family="sans-serif" font-size="14" lengthAdjust="spacing" textLength="125" x="598.5" y="1032.4996">takeDamage(): void</text><ellipse cx="589.5" cy="1046.1936" fill="#84BE84" rx="3" ry="3" style="stroke:#038048;stroke-width:1.0;"/><text fill="#000000" font-family="sans-serif" font-size="14" lengthAdjust="spacing" textLength="90" x="598.5" y="1049.2996">Update(): void</text><ellipse cx="589.5" cy="1062.9935" fill="#84BE84" rx="3" ry="3" style="stroke:#038048;stroke-width:1.0;"/><text fill="#000000" font-family="sans-serif" font-size="14" lengthAdjust="spacing" textLength="134" x="598.5" y="1066.0995">Draw(Graphics): void</text></g></a><!--class vv.Items.EnemyShadow--><a href="EnemyShadow.html" target="_top" title="EnemyShadow.html" xlink:actuate="onRequest" xlink:href="EnemyShadow.html" xlink:show="new" xlink:title="EnemyShadow.html" xlink:type="simple"><g id="elem_vv.Items.EnemyShadow"><rect codeLine="33" fill="#F1F1F1" height="81.5999" id="vv.Items.EnemyShadow" rx="2.5" ry="2.5" style="stroke:#181818;stroke-width:0.5;" width="193" x="467.5" y="1142.294"/><ellipse cx="512.25" cy="1158.294" fill="#ADD1B2" rx="11" ry="11" style="stroke:#181818;stroke-width:1.0;"/><path d="M507.25,1159.4502 C507.25,1161.9502 509.3906,1163.7627 512.3125,1163.7627 C513.5469,1163.7627 514.7188,1163.4659 515.4688,1162.9502 C516.0781,1162.5284 516.4063,1162.1065 516.4063,1161.7002 C516.4063,1161.2315 515.9844,1160.8252 515.4844,1160.8252 C515.25,1160.8252 515.0313,1160.9034 514.8281,1161.1065 C514.3906,1161.544 514.3906,1161.544 514.2188,1161.6377 C513.7656,1161.8721 513.125,1162.0127 512.3594,1162.0127 C510.3594,1162.0127 509.0781,1160.9971 509.0781,1159.419 L509.0781,1158.3721 C509.0781,1156.669 510.2969,1155.4659 512,1155.4659 C512.5781,1155.4659 513.1563,1155.6065 513.625,1155.8565 C514.0938,1156.1221 514.2656,1156.3096 514.3281,1156.669 C514.4531,1157.3409 514.7031,1157.5909 515.2344,1157.5909 C515.5156,1157.5909 515.7969,1157.4502 515.9844,1157.2315 C516.1094,1157.0596 516.1563,1156.8877 516.1563,1156.4502 L516.1563,1155.0909 C516.1563,1154.669 516.1406,1154.5284 516.0156,1154.3565 C515.8438,1154.1065 515.5625,1153.9502 515.2344,1153.9502 C514.9219,1153.9502 514.7188,1154.0596 514.5,1154.3252 C513.3281,1153.8252 512.8906,1153.7159 511.9375,1153.7159 C509.2656,1153.7159 507.25,1155.7315 507.25,1158.3565 L507.25,1159.4502 Z " fill="#000000"/><text fill="#000000" font-family="sans-serif" font-size="14" lengthAdjust="spacing" textLength="95" x="532.75" y="1162.9">EnemyShadow</text><line style="stroke:#181818;stroke-width:0.5;" x1="468.5" x2="659.5" y1="1174.294" y2="1174.294"/><line style="stroke:#181818;stroke-width:0.5;" x1="468.5" x2="659.5" y1="1182.294" y2="1182.294"/><ellipse cx="478.5" cy="1196.1939" fill="#84BE84" rx="3" ry="3" style="stroke:#038048;stroke-width:1.0;"/><text fill="#000000" font-family="sans-serif" font-size="14" lengthAdjust="spacing" textLength="167" x="487.5" y="1199.2999">EnemyShadow(float, float)</text><ellipse cx="478.5" cy="1212.9939" fill="#84BE84" rx="3" ry="3" style="stroke:#038048;stroke-width:1.0;"/><text fill="#000000" font-family="sans-serif" font-size="14" lengthAdjust="spacing" textLength="90" x="487.5" y="1216.0999">Update(): void</text></g></a><!--class vv.Items.EnemyFlame--><a href="EnemyFlame.html" target="_top" title="EnemyFlame.html" xlink:actuate="onRequest" xlink:href="EnemyFlame.html" xlink:show="new" xlink:title="EnemyFlame.html" xlink:type="simple"><g id="elem_vv.Items.EnemyFlame"><rect codeLine="38" fill="#F1F1F1" height="64.7999" id="vv.Items.EnemyFlame" rx="2.5" ry="2.5" style="stroke:#181818;stroke-width:0.5;" width="182" x="696" y="1150.694"/><ellipse cx="740.75" cy="1166.694" fill="#ADD1B2" rx="11" ry="11" style="stroke:#181818;stroke-width:1.0;"/><path d="M735.75,1167.8502 C735.75,1170.3502 737.8906,1172.1627 740.8125,1172.1627 C742.0469,1172.1627 743.2188,1171.8659 743.9688,1171.3502 C744.5781,1170.9284 744.9063,1170.5065 744.9063,1170.1002 C744.9063,1169.6315 744.4844,1169.2252 743.9844,1169.2252 C743.75,1169.2252 743.5313,1169.3034 743.3281,1169.5065 C742.8906,1169.944 742.8906,1169.944 742.7188,1170.0377 C742.2656,1170.2721 741.625,1170.4127 740.8594,1170.4127 C738.8594,1170.4127 737.5781,1169.3971 737.5781,1167.819 L737.5781,1166.7721 C737.5781,1165.069 738.7969,1163.8659 740.5,1163.8659 C741.0781,1163.8659 741.6563,1164.0065 742.125,1164.2565 C742.5938,1164.5221 742.7656,1164.7096 742.8281,1165.069 C742.9531,1165.7409 743.2031,1165.9909 743.7344,1165.9909 C744.0156,1165.9909 744.2969,1165.8502 744.4844,1165.6315 C744.6094,1165.4596 744.6563,1165.2877 744.6563,1164.8502 L744.6563,1163.4909 C744.6563,1163.069 744.6406,1162.9284 744.5156,1162.7565 C744.3438,1162.5065 744.0625,1162.3502 743.7344,1162.3502 C743.4219,1162.3502 743.2188,1162.4596 743,1162.7252 C741.8281,1162.2252 741.3906,1162.1159 740.4375,1162.1159 C737.7656,1162.1159 735.75,1164.1315 735.75,1166.7565 L735.75,1167.8502 Z " fill="#000000"/><text fill="#000000" font-family="sans-serif" font-size="14" lengthAdjust="spacing" textLength="84" x="761.25" y="1171.3">EnemyFlame</text><line style="stroke:#181818;stroke-width:0.5;" x1="697" x2="877" y1="1182.694" y2="1182.694"/><line style="stroke:#181818;stroke-width:0.5;" x1="697" x2="877" y1="1190.694" y2="1190.694"/><ellipse cx="707" cy="1204.5939" fill="#84BE84" rx="3" ry="3" style="stroke:#038048;stroke-width:1.0;"/><text fill="#000000" font-family="sans-serif" font-size="14" lengthAdjust="spacing" textLength="156" x="716" y="1207.6999">EnemyFlame(float, float)</text></g></a><!--class vv.Items.Item--><a href="Item.html" target="_top" title="Item.html" xlink:actuate="onRequest" xlink:href="Item.html" xlink:show="new" xlink:title="Item.html" xlink:type="simple"><g id="elem_vv.Items.Item"><rect codeLine="42" fill="#F1F1F1" height="388.1985" id="vv.Items.Item" rx="2.5" ry="2.5" style="stroke:#181818;stroke-width:0.5;" width="190" x="466" y="41.294"/><ellipse cx="542.75" cy="57.294" fill="#A9DCDF" rx="11" ry="11" style="stroke:#181818;stroke-width:1.0;"/><path d="M544.2813,59.2315 L544.6094,60.0284 L544.3281,60.0284 C543.875,60.0284 543.75,60.0596 543.5781,60.169 C543.2969,60.3096 543.125,60.6065 543.125,60.9034 C543.125,61.2002 543.2656,61.4502 543.5,61.6221 C543.6719,61.7471 543.9063,61.794 544.3281,61.794 L546.6875,61.794 C547.0469,61.794 547.2969,61.7627 547.4375,61.669 C547.7031,61.5284 547.875,61.2159 547.875,60.9034 C547.875,60.6377 547.7344,60.3721 547.5,60.2002 C547.3125,60.0752 547.1563,60.044 546.7031,60.0284 L543.3125,52.2002 L539.5938,52.2002 C539.1406,52.2002 539,52.2159 538.8281,52.3252 C538.5625,52.4971 538.3906,52.7784 538.3906,53.0752 C538.3906,53.3565 538.5313,53.6221 538.7813,53.794 C538.9531,53.919 539.1406,53.9502 539.5938,53.9502 L540.5625,53.9502 L537.9844,60.0284 C537.2344,60.0284 536.8281,60.3252 536.8281,60.9034 C536.8281,61.5127 537.2188,61.794 538.0156,61.794 L540.2813,61.794 C540.6406,61.794 540.8906,61.7627 541.0313,61.669 C541.2969,61.5127 541.4688,61.2159 541.4688,60.9034 C541.4688,60.6377 541.3281,60.3721 541.0938,60.2002 C540.9063,60.0596 540.75,60.0284 540.2813,60.0284 L539.9844,60.0284 L540.3281,59.2315 L544.2813,59.2315 Z M543.5156,57.4815 L541.0625,57.4815 L542.2969,54.6065 L543.5156,57.4815 Z " fill="#000000"/><text fill="#000000" font-family="sans-serif" font-size="14" font-style="italic" lengthAdjust="spacing" textLength="28" x="563.25" y="63.244">Item</text><line style="stroke:#181818;stroke-width:0.5;" x1="467" x2="655" y1="73.294" y2="73.294"/><polygon fill="none" points="477,82.1939,481,86.1939,477,90.1939,473,86.1939" style="stroke:#B38D22;stroke-width:1.0;"/><text fill="#000000" font-family="sans-serif" font-size="14" lengthAdjust="spacing" textLength="42" x="486" y="90.2999">x: float</text><polygon fill="none" points="477,98.9939,481,102.9939,477,106.9939,473,102.9939" style="stroke:#B38D22;stroke-width:1.0;"/><text fill="#000000" font-family="sans-serif" font-size="14" lengthAdjust="spacing" textLength="42" x="486" y="107.0999">y: float</text><polygon fill="none" points="477,115.7938,481,119.7938,477,123.7938,473,119.7938" style="stroke:#B38D22;stroke-width:1.0;"/><text fill="#000000" font-family="sans-serif" font-size="14" lengthAdjust="spacing" textLength="56" x="486" y="123.8998">width: int</text><polygon fill="none" points="477,132.5937,481,136.5937,477,140.5937,473,136.5937" style="stroke:#B38D22;stroke-width:1.0;"/><text fill="#000000" font-family="sans-serif" font-size="14" lengthAdjust="spacing" textLength="62" x="486" y="140.6997">height: int</text><polygon fill="none" points="477,149.3937,481,153.3937,477,157.3937,473,153.3937" style="stroke:#B38D22;stroke-width:1.0;"/><text fill="#000000" font-family="sans-serif" font-size="14" lengthAdjust="spacing" textLength="119" x="486" y="157.4996">bounds: Rectangle</text><polygon fill="none" points="477,166.1936,481,170.1936,477,174.1936,473,170.1936" style="stroke:#B38D22;stroke-width:1.0;"/><text fill="#000000" font-family="sans-serif" font-size="14" lengthAdjust="spacing" textLength="164" x="486" y="174.2996">normalBounds: Rectangle</text><polygon fill="none" points="477,182.9935,481,186.9935,477,190.9935,473,186.9935" style="stroke:#B38D22;stroke-width:1.0;"/><text fill="#000000" font-family="sans-serif" font-size="14" lengthAdjust="spacing" textLength="158" x="486" y="191.0995">attackBounds: Rectangle</text><line style="stroke:#181818;stroke-width:0.5;" x1="467" x2="655" y1="198.8935" y2="198.8935"/><ellipse cx="477" cy="212.7934" fill="#84BE84" rx="3" ry="3" style="stroke:#038048;stroke-width:1.0;"/><text fill="#000000" font-family="sans-serif" font-size="14" lengthAdjust="spacing" textLength="146" x="486" y="215.8994">Item(float, float, int, int)</text><ellipse cx="477" cy="230.6434" fill="#84BE84" rx="3" ry="3" style="stroke:#038048;stroke-width:1.0;"/><text fill="#000000" font-family="sans-serif" font-size="14" font-style="italic" lengthAdjust="spacing" textLength="90" x="486" y="235.0933">Update(): void</text><ellipse cx="477" cy="249.5433" fill="#84BE84" rx="3" ry="3" style="stroke:#038048;stroke-width:1.0;"/><text fill="#000000" font-family="sans-serif" font-size="14" font-style="italic" lengthAdjust="spacing" textLength="134" x="486" y="253.9932">Draw(Graphics): void</text><ellipse cx="477" cy="267.3932" fill="#84BE84" rx="3" ry="3" style="stroke:#038048;stroke-width:1.0;"/><text fill="#000000" font-family="sans-serif" font-size="14" lengthAdjust="spacing" textLength="77" x="486" y="270.4992">GetX(): float</text><ellipse cx="477" cy="284.1931" fill="#84BE84" rx="3" ry="3" style="stroke:#038048;stroke-width:1.0;"/><text fill="#000000" font-family="sans-serif" font-size="14" lengthAdjust="spacing" textLength="77" x="486" y="287.2991">GetY(): float</text><ellipse cx="477" cy="300.993" fill="#84BE84" rx="3" ry="3" style="stroke:#038048;stroke-width:1.0;"/><text fill="#000000" font-family="sans-serif" font-size="14" lengthAdjust="spacing" textLength="92" x="486" y="304.099">GetWidth(): int</text><ellipse cx="477" cy="317.793" fill="#84BE84" rx="3" ry="3" style="stroke:#038048;stroke-width:1.0;"/><text fill="#000000" font-family="sans-serif" font-size="14" lengthAdjust="spacing" textLength="97" x="486" y="320.899">GetHeight(): int</text><ellipse cx="477" cy="334.5929" fill="#84BE84" rx="3" ry="3" style="stroke:#038048;stroke-width:1.0;"/><text fill="#000000" font-family="sans-serif" font-size="14" lengthAdjust="spacing" textLength="101" x="486" y="337.6989">SetX(float): void</text><ellipse cx="477" cy="351.3928" fill="#84BE84" rx="3" ry="3" style="stroke:#038048;stroke-width:1.0;"/><text fill="#000000" font-family="sans-serif" font-size="14" lengthAdjust="spacing" textLength="101" x="486" y="354.4988">SetY(float): void</text><ellipse cx="477" cy="368.1928" fill="#84BE84" rx="3" ry="3" style="stroke:#038048;stroke-width:1.0;"/><text fill="#000000" font-family="sans-serif" font-size="14" lengthAdjust="spacing" textLength="116" x="486" y="371.2987">SetWidth(int): void</text><ellipse cx="477" cy="384.9927" fill="#84BE84" rx="3" ry="3" style="stroke:#038048;stroke-width:1.0;"/><text fill="#000000" font-family="sans-serif" font-size="14" lengthAdjust="spacing" textLength="121" x="486" y="388.0987">SetHeight(int): void</text><ellipse cx="477" cy="401.7926" fill="#84BE84" rx="3" ry="3" style="stroke:#038048;stroke-width:1.0;"/><text fill="#000000" font-family="sans-serif" font-size="14" lengthAdjust="spacing" textLength="147" x="486" y="404.8986">SetNormalMode(): void</text><ellipse cx="477" cy="418.5925" fill="#84BE84" rx="3" ry="3" style="stroke:#038048;stroke-width:1.0;"/><text fill="#000000" font-family="sans-serif" font-size="14" lengthAdjust="spacing" textLength="140" x="486" y="421.6985">SetAttackMode(): void</text></g></a><!--class vv.Items.Character--><a href="Character.html" target="_top" title="Character.html" xlink:actuate="onRequest" xlink:href="Character.html" xlink:show="new" xlink:title="Character.html" xlink:type="simple"><g id="elem_vv.Items.Character"><rect codeLine="65" fill="#F1F1F1" height="350.3987" id="vv.Items.Character" rx="2.5" ry="2.5" style="stroke:#181818;stroke-width:0.5;" width="258" x="432" y="489.494"/><ellipse cx="525.25" cy="505.494" fill="#A9DCDF" rx="11" ry="11" style="stroke:#181818;stroke-width:1.0;"/><path d="M526.7813,507.4315 L527.1094,508.2284 L526.8281,508.2284 C526.375,508.2284 526.25,508.2596 526.0781,508.369 C525.7969,508.5096 525.625,508.8065 525.625,509.1034 C525.625,509.4002 525.7656,509.6502 526,509.8221 C526.1719,509.9471 526.4063,509.994 526.8281,509.994 L529.1875,509.994 C529.5469,509.994 529.7969,509.9627 529.9375,509.869 C530.2031,509.7284 530.375,509.4159 530.375,509.1034 C530.375,508.8377 530.2344,508.5721 530,508.4002 C529.8125,508.2752 529.6563,508.244 529.2031,508.2284 L525.8125,500.4002 L522.0938,500.4002 C521.6406,500.4002 521.5,500.4159 521.3281,500.5252 C521.0625,500.6971 520.8906,500.9784 520.8906,501.2752 C520.8906,501.5565 521.0313,501.8221 521.2813,501.994 C521.4531,502.119 521.6406,502.1502 522.0938,502.1502 L523.0625,502.1502 L520.4844,508.2284 C519.7344,508.2284 519.3281,508.5252 519.3281,509.1034 C519.3281,509.7127 519.7188,509.994 520.5156,509.994 L522.7813,509.994 C523.1406,509.994 523.3906,509.9627 523.5313,509.869 C523.7969,509.7127 523.9688,509.4159 523.9688,509.1034 C523.9688,508.8377 523.8281,508.5721 523.5938,508.4002 C523.4063,508.2596 523.25,508.2284 522.7813,508.2284 L522.4844,508.2284 L522.8281,507.4315 L526.7813,507.4315 Z M526.0156,505.6815 L523.5625,505.6815 L524.7969,502.8065 L526.0156,505.6815 Z " fill="#000000"/><text fill="#000000" font-family="sans-serif" font-size="14" font-style="italic" lengthAdjust="spacing" textLength="63" x="545.75" y="511.444">Character</text><line style="stroke:#181818;stroke-width:0.5;" x1="433" x2="689" y1="521.494" y2="521.494"/><ellipse cx="443" cy="535.3939" fill="none" rx="3" ry="3" style="stroke:#038048;stroke-width:1.0;"/><text fill="#000000" font-family="sans-serif" font-size="14" lengthAdjust="spacing" text-decoration="underline" textLength="125" x="452" y="538.4999">DEFAULT_LIFE: int</text><ellipse cx="443" cy="552.1939" fill="none" rx="3" ry="3" style="stroke:#038048;stroke-width:1.0;"/><text fill="#000000" font-family="sans-serif" font-size="14" lengthAdjust="spacing" text-decoration="underline" textLength="153" x="452" y="555.2999">DEFAULT_SPEED: float</text><ellipse cx="443" cy="568.9938" fill="none" rx="3" ry="3" style="stroke:#038048;stroke-width:1.0;"/><text fill="#000000" font-family="sans-serif" font-size="14" lengthAdjust="spacing" text-decoration="underline" textLength="225" x="452" y="572.0998">DEFAULT_CREATURE_WIDTH: int</text><ellipse cx="443" cy="585.7937" fill="none" rx="3" ry="3" style="stroke:#038048;stroke-width:1.0;"/><text fill="#000000" font-family="sans-serif" font-size="14" lengthAdjust="spacing" text-decoration="underline" textLength="232" x="452" y="588.8997">DEFAULT_CREATURE_HEIGHT: int</text><polygon fill="none" points="443,597.5937,447,601.5937,443,605.5937,439,601.5937" style="stroke:#B38D22;stroke-width:1.0;"/><text fill="#000000" font-family="sans-serif" font-size="14" lengthAdjust="spacing" textLength="41" x="452" y="605.6996">life: int</text><polygon fill="none" points="443,614.3936,447,618.3936,443,622.3936,439,618.3936" style="stroke:#B38D22;stroke-width:1.0;"/><text fill="#000000" font-family="sans-serif" font-size="14" lengthAdjust="spacing" textLength="74" x="452" y="622.4996">speed: float</text><polygon fill="none" points="443,631.1935,447,635.1935,443,639.1935,439,635.1935" style="stroke:#B38D22;stroke-width:1.0;"/><text fill="#000000" font-family="sans-serif" font-size="14" lengthAdjust="spacing" textLength="77" x="452" y="639.2995">xMove: float</text><polygon fill="none" points="443,647.9934,447,651.9934,443,655.9934,439,651.9934" style="stroke:#B38D22;stroke-width:1.0;"/><text fill="#000000" font-family="sans-serif" font-size="14" lengthAdjust="spacing" textLength="77" x="452" y="656.0994">yMove: float</text><line style="stroke:#181818;stroke-width:0.5;" x1="433" x2="689" y1="663.8934" y2="663.8934"/><ellipse cx="443" cy="677.7934" fill="#84BE84" rx="3" ry="3" style="stroke:#038048;stroke-width:1.0;"/><text fill="#000000" font-family="sans-serif" font-size="14" lengthAdjust="spacing" textLength="181" x="452" y="680.8993">Character(float, float, int, int)</text><ellipse cx="443" cy="694.5933" fill="#84BE84" rx="3" ry="3" style="stroke:#038048;stroke-width:1.0;"/><text fill="#000000" font-family="sans-serif" font-size="14" lengthAdjust="spacing" textLength="79" x="452" y="697.6993">Move(): void</text><ellipse cx="443" cy="711.3932" fill="#84BE84" rx="3" ry="3" style="stroke:#038048;stroke-width:1.0;"/><text fill="#000000" font-family="sans-serif" font-size="14" lengthAdjust="spacing" textLength="79" x="452" y="714.4992">GetLife(): int</text><ellipse cx="443" cy="728.1931" fill="#84BE84" rx="3" ry="3" style="stroke:#038048;stroke-width:1.0;"/><text fill="#000000" font-family="sans-serif" font-size="14" lengthAdjust="spacing" textLength="109" x="452" y="731.2991">GetSpeed(): float</text><ellipse cx="443" cy="744.9931" fill="#84BE84" rx="3" ry="3" style="stroke:#038048;stroke-width:1.0;"/><text fill="#000000" font-family="sans-serif" font-size="14" lengthAdjust="spacing" textLength="103" x="452" y="748.099">SetLife(int): void</text><ellipse cx="443" cy="761.793" fill="#84BE84" rx="3" ry="3" style="stroke:#038048;stroke-width:1.0;"/><text fill="#000000" font-family="sans-serif" font-size="14" lengthAdjust="spacing" textLength="133" x="452" y="764.899">SetSpeed(float): void</text><ellipse cx="443" cy="778.5929" fill="#84BE84" rx="3" ry="3" style="stroke:#038048;stroke-width:1.0;"/><text fill="#000000" font-family="sans-serif" font-size="14" lengthAdjust="spacing" textLength="112" x="452" y="781.6989">GetXMove(): float</text><ellipse cx="443" cy="795.3928" fill="#84BE84" rx="3" ry="3" style="stroke:#038048;stroke-width:1.0;"/><text fill="#000000" font-family="sans-serif" font-size="14" lengthAdjust="spacing" textLength="112" x="452" y="798.4988">GetYMove(): float</text><ellipse cx="443" cy="812.1928" fill="#84BE84" rx="3" ry="3" style="stroke:#038048;stroke-width:1.0;"/><text fill="#000000" font-family="sans-serif" font-size="14" lengthAdjust="spacing" textLength="136" x="452" y="815.2988">SetXMove(float): void</text><ellipse cx="443" cy="828.9927" fill="#84BE84" rx="3" ry="3" style="stroke:#038048;stroke-width:1.0;"/><text fill="#000000" font-family="sans-serif" font-size="14" lengthAdjust="spacing" textLength="136" x="452" y="832.0987">SetYMove(float): void</text></g></a><!--reverse link vv.Items.Enemy to vv.Items.EnemyBomber--><g id="link_vv.Items.Enemy_vv.Items.EnemyBomber"><path codeLine="86" d="M334.03,1057.714 C279.69,1089.004 217.15,1125.004 173.4,1150.204 " fill="none" id="vv.Items.Enemy-backto-vv.Items.EnemyBomber" style="stroke:#181818;stroke-width:1.0;"/><polygon fill="none" points="330.28,1051.214,351.11,1047.304,337.27,1063.354,330.28,1051.214" style="stroke:#181818;stroke-width:1.0;"/></g><!--reverse link vv.Items.Enemy to vv.Items.EnemyWraith--><g id="link_vv.Items.Enemy_vv.Items.EnemyWraith"><path codeLine="87" d="M386.85,1100.684 C378.57,1115.374 370.55,1129.624 363.59,1141.984 " fill="none" id="vv.Items.Enemy-backto-vv.Items.EnemyWraith" style="stroke:#181818;stroke-width:1.0;"/><polygon fill="none" points="381.09,1097.634,397.01,1083.644,393.29,1104.504,381.09,1097.634" style="stroke:#181818;stroke-width:1.0;"/></g><!--reverse link vv.Items.Character to vv.Items.Enemy--><g id="link_vv.Items.Character_vv.Items.Enemy"><path codeLine="88" d="M493.37,859.854 C488.57,873.614 483.89,887.054 479.47,899.754 " fill="none" id="vv.Items.Character-backto-vv.Items.Enemy" style="stroke:#181818;stroke-width:1.0;"/><polygon fill="none" points="487.01,857.824,500.2,841.244,500.23,862.424,487.01,857.824" style="stroke:#181818;stroke-width:1.0;"/></g><!--reverse link vv.Items.Character to vv.Items.Hero--><g id="link_vv.Items.Character_vv.Items.Hero"><path codeLine="89" d="M628.68,859.974 C634.48,876.644 640.12,892.844 645.34,907.824 " fill="none" id="vv.Items.Character-backto-vv.Items.Hero" style="stroke:#181818;stroke-width:1.0;"/><polygon fill="none" points="621.77,862.424,621.8,841.244,634.99,857.824,621.77,862.424" style="stroke:#181818;stroke-width:1.0;"/></g><!--reverse link vv.Items.Enemy to vv.Items.EnemyShadow--><g id="link_vv.Items.Enemy_vv.Items.EnemyShadow"><path codeLine="90" d="M514,1100.204 C523.08,1115.064 531.88,1129.494 539.51,1141.984 " fill="none" id="vv.Items.Enemy-backto-vv.Items.EnemyShadow" style="stroke:#181818;stroke-width:1.0;"/><polygon fill="none" points="507.73,1104.364,503.28,1083.644,519.68,1097.064,507.73,1104.364" style="stroke:#181818;stroke-width:1.0;"/></g><!--reverse link vv.Items.Enemy to vv.Items.EnemyFlame--><g id="link_vv.Items.Enemy_vv.Items.EnemyFlame"><path codeLine="91" d="M561.59,1081.944 C615.28,1113.584 661.88,1134.374 700.96,1150.214 " fill="none" id="vv.Items.Enemy-backto-vv.Items.EnemyFlame" style="stroke:#181818;stroke-width:1.0;"/><polygon fill="none" points="558.42,1087.604,544.9,1071.284,565.64,1075.614,558.42,1087.604" style="stroke:#181818;stroke-width:1.0;"/></g><!--reverse link vv.Items.Item to vv.Items.Character--><g id="link_vv.Items.Item_vv.Items.Character"><path codeLine="92" d="M561,450.644 C561,463.524 561,476.404 561,489.084 " fill="none" id="vv.Items.Item-backto-vv.Items.Character" style="stroke:#181818;stroke-width:1.0;"/><polygon fill="none" points="554,450.734,561,430.734,568,450.734,554,450.734" style="stroke:#181818;stroke-width:1.0;"/></g><text fill="#888888" font-family="sans-serif" font-size="10" lengthAdjust="spacing" textLength="179" x="354" y="1255.184">UMLDoclet 2.1.0, PlantUML 1.2022.14</text><!--SRC=[pLRHRjem57tdAonLaq1GjEqnsWkK095WgWYCJLLLcSGGguwDOXTQTVttvJea3M2RFapJye2npx6FVUwzSH12YEEKo2sE2Dhjke4YgKIlZGOwF173KYAVa_IbBz8LoT3TNQtNJLJAxk_p6QZsj6kCvfe9h3f8DwsAzcQKM6QOggIKA7ekYO9XaT2qnJR6YZHR7je96b-GBuNDabSqnHlYeVxJUaqo4WVGFLQZyWULTCLorae8HZ0_nGE-epnoKIh2CCiZ4ogSAGynmJU6yxjEhl0Z6M3OuzdfNSveR93XVNEKuMr28tdHkp79H6uTD9PW_KDVO1V_XoqwGc62Ox4l4wlekJAwOForZ1wotAjINNTSuffmkM3nIgeCH-eW1E-CN08QI-4yUyLgnwClnj4zZLNY8SfFnXD2Duao02lnn6FfeHc95EORTboILrnaAMPzDmahXQD7DwaD1pmofmERqJ_78Nej3NfpfbETvimihJuYwYSiSsuPGB_iq18C1VZKEG37sbKZ6e9WaGIc_OGWweGBON37GZY8EnZVTV2c8hOKP4xfwT0PAVQKlKamzFHjLlqt9- -hL5ZH26Ba3tkBoVnX4WpzSx_EUU6jxmzCKJcdtipytdmnyn-MmM0-_iZYrOon7up6SqDTCBecXc6v9IGsLjxpLEo8kL9jIBioxqE5qOPrchRqdkGRjkLf2Bksv7XucEh8esAwFLkXkCgzMGhC0OVbR7Urs2crH2s-GxxzlhwkVtHPuU83g8BVy_gTOWFXehIkMrn3LbXV51MgBm0DLXADsh4Yma5qBGGqY-ba82965FhQ_TBzt46t37ELZw9FEv99AdYpzGS0]--></g></svg>