<?xml version="1.0" encoding="UTF-8" standalone="no"?><svg xmlns="http://www.w3.org/2000/svg" xmlns:xlink="http://www.w3.org/1999/xlink" contentStyleType="text/css" height="295px" preserveAspectRatio="none" style="width:228px;height:295px;background:#FFFFFF;" version="1.1" viewBox="0 0 228 295" width="228px" zoomAndPan="magnify"><defs/><g><!--class vv.States.MemoriesState--><a href="MemoriesState.html" target="_top" title="MemoriesState.html" xlink:actuate="onRequest" xlink:href="MemoriesState.html" xlink:show="new" xlink:title="MemoriesState.html" xlink:type="simple"><g id="elem_vv.States.MemoriesState"><rect codeLine="5" fill="#F1F1F1" height="113.9996" id="vv.States.MemoriesState" rx="2.5" ry="2.5" style="stroke:#181818;stroke-width:0.5;" width="214" x="7" y="155.2"/><ellipse cx="61.75" cy="174.6" fill="#ADD1B2" rx="11" ry="11" style="stroke:#181818;stroke-width:1.0;"/><path d="M56.75,175.7562 C56.75,178.2562 58.8906,180.0687 61.8125,180.0687 C63.0469,180.0687 64.2188,179.7718 64.9688,179.2562 C65.5781,178.8343 65.9063,178.4125 65.9063,178.0062 C65.9063,177.5375 65.4844,177.1312 64.9844,177.1312 C64.75,177.1312 64.5313,177.2093 64.3281,177.4125 C63.8906,177.85 63.8906,177.85 63.7188,177.9437 C63.2656,178.1781 62.625,178.3187 61.8594,178.3187 C59.8594,178.3187 58.5781,177.3031 58.5781,175.725 L58.5781,174.6781 C58.5781,172.975 59.7969,171.7718 61.5,171.7718 C62.0781,171.7718 62.6563,171.9125 63.125,172.1625 C63.5938,172.4281 63.7656,172.6156 63.8281,172.975 C63.9531,173.6468 64.2031,173.8968 64.7344,173.8968 C65.0156,173.8968 65.2969,173.7562 65.4844,173.5375 C65.6094,173.3656 65.6563,173.1937 65.6563,172.7562 L65.6563,171.3968 C65.6563,170.975 65.6406,170.8343 65.5156,170.6625 C65.3438,170.4125 65.0625,170.2562 64.7344,170.2562 C64.4219,170.2562 64.2188,170.3656 64,170.6312 C62.8281,170.1312 62.3906,170.0218 61.4375,170.0218 C58.7656,170.0218 56.75,172.0375 56.75,174.6625 L56.75,175.7562 Z " fill="#000000"/><text fill="#000000" font-family="sans-serif" font-size="14" lengthAdjust="spacing" textLength="96" x="82.25" y="173.2059">MemoriesState</text><text fill="#000000" font-family="sans-serif" font-size="10" lengthAdjust="spacing" textLength="43" x="108.75" y="186.2899">vv.States</text><line style="stroke:#181818;stroke-width:0.5;" x1="8" x2="220" y1="193.9999" y2="193.9999"/><ellipse cx="18" cy="207.8999" fill="#84BE84" rx="3" ry="3" style="stroke:#038048;stroke-width:1.0;"/><text fill="#000000" font-family="sans-serif" font-size="14" lengthAdjust="spacing" textLength="108" x="27" y="211.0059">gotoMenu(): void</text><ellipse cx="18" cy="224.6998" fill="#84BE84" rx="3" ry="3" style="stroke:#038048;stroke-width:1.0;"/><text fill="#000000" font-family="sans-serif" font-size="14" lengthAdjust="spacing" text-decoration="underline" textLength="188" x="27" y="227.8058">getInstance(): MemoriesState</text><ellipse cx="18" cy="241.4997" fill="#84BE84" rx="3" ry="3" style="stroke:#038048;stroke-width:1.0;"/><text fill="#000000" font-family="sans-serif" font-size="14" lengthAdjust="spacing" textLength="90" x="27" y="244.6057">Update(): void</text><ellipse cx="18" cy="258.2997" fill="#84BE84" rx="3" ry="3" style="stroke:#038048;stroke-width:1.0;"/><text fill="#000000" font-family="sans-serif" font-size="14" lengthAdjust="spacing" textLength="134" x="27" y="261.4056">Draw(Graphics): void</text></g></a><!--class vv.States.State--><a href="State.html" target="_top" title="State.html" xlink:actuate="onRequest" xlink:href="State.html" xlink:show="new" xlink:title="State.html" xlink:type="simple"><g id="elem_vv.States.State"><rect codeLine="12" fill="#F1F1F1" height="88.1997" id="vv.States.State" rx="2.5" ry="2.5" style="stroke:#181818;stroke-width:0.5;" width="160" x="34" y="7"/><ellipse cx="88.25" cy="28.2" fill="#B4A7E5" rx="11" ry="11" style="stroke:#181818;stroke-width:1.0;"/><path d="M89.2656,25.3562 L90.9219,25.3562 C91.3125,25.3562 91.5156,25.325 91.6719,25.2468 C91.9375,25.075 92.1094,24.7781 92.1094,24.4812 C92.1094,24.2 91.9688,23.95 91.7344,23.7781 C91.5469,23.6531 91.3906,23.6062 90.9219,23.6062 L85.7813,23.6062 C85.3438,23.6062 85.2031,23.6218 85.0313,23.7312 C84.7656,23.9031 84.5938,24.1843 84.5938,24.4812 C84.5938,24.7625 84.7344,25.0437 84.9688,25.2 C85.1563,25.325 85.3438,25.3562 85.7813,25.3562 L87.4375,25.3562 L87.4375,31.45 L85.7813,31.45 C85.3438,31.45 85.2031,31.4656 85.0313,31.575 C84.7656,31.7312 84.5938,32.0281 84.5938,32.3093 C84.5938,32.9187 85,33.2 85.7813,33.2 L90.9219,33.2 C91.7031,33.2 92.1094,32.9187 92.1094,32.3093 C92.1094,32.0437 91.9688,31.7937 91.7344,31.6218 C91.5469,31.4812 91.375,31.45 90.9219,31.45 L89.2656,31.45 L89.2656,25.3562 Z " fill="#000000"/><text fill="#000000" font-family="sans-serif" font-size="14" font-style="italic" lengthAdjust="spacing" textLength="33" x="113.75" y="27.3999">State</text><text fill="#000000" font-family="sans-serif" font-size="10" font-style="italic" lengthAdjust="spacing" textLength="43" x="108.75" y="41.8999">vv.States</text><line style="stroke:#181818;stroke-width:0.5;" x1="35" x2="193" y1="49.3999" y2="49.3999"/><ellipse cx="45" cy="64.3499" fill="#84BE84" rx="3" ry="3" style="stroke:#038048;stroke-width:1.0;"/><text fill="#000000" font-family="sans-serif" font-size="14" font-style="italic" lengthAdjust="spacing" textLength="90" x="54" y="68.7998">Update(): void</text><ellipse cx="45" cy="83.2498" fill="#84BE84" rx="3" ry="3" style="stroke:#038048;stroke-width:1.0;"/><text fill="#000000" font-family="sans-serif" font-size="14" font-style="italic" lengthAdjust="spacing" textLength="134" x="54" y="87.6998">Draw(Graphics): void</text></g></a><!--reverse link vv.States.State to vv.States.MemoriesState--><g id="link_vv.States.State_vv.States.MemoriesState"><path codeLine="17" d="M114,116.32 C114,129.1 114,142.43 114,154.93 " fill="none" id="vv.States.State-backto-vv.States.MemoriesState" style="stroke:#181818;stroke-width:1.0;stroke-dasharray:7.0,7.0;"/><polygon fill="none" points="107,116.58,114,96.58,121,116.58,107,116.58" style="stroke:#181818;stroke-width:1.0;"/></g><text fill="#888888" font-family="sans-serif" font-size="10" lengthAdjust="spacing" textLength="179" x="17.5" y="284.4896">UMLDoclet 2.1.0, PlantUML 1.2022.14</text><!--SRC=[ZLB1IiD04Btx5KD1IAaihNWgfQU220Q4qbFjOTnCp4Ao6tR6YCRykvjOQr89kfVXlNaxCszs0G2O12mMn2LgsbA97iLviCxIHKX3PX82AafvWzHGdl0vMv1aBj0ThtDaXicApJij5pVhc0hd3V5MKEZH7ldvkgfKH_44aE64r40F-_q0gqoA_720kclLdjcp4nUJVOccIwYSIKwPciCDeviW8Rcp0LbDhMfGyQVGham2_bLcjl7u6jrwB3EZkPzjlWmRA-JJiBgUwV-Q_JOvOgx69nQFMfhHyVgIloOzxxlwK6fiyyV7fDOSfCwrOHVVRvpEmtUvLWirluA77Aq45YuhycoSZQQV]--></g></svg>