<?xml version="1.0" encoding="UTF-8" standalone="no"?><svg xmlns="http://www.w3.org/2000/svg" xmlns:xlink="http://www.w3.org/1999/xlink" contentStyleType="text/css" height="278px" preserveAspectRatio="none" style="width:201px;height:278px;background:#FFFFFF;" version="1.1" viewBox="0 0 201 278" width="201px" zoomAndPan="magnify"><defs/><g><!--class vv.States.MenuState--><a href="MenuState.html" target="_top" title="MenuState.html" xlink:actuate="onRequest" xlink:href="MenuState.html" xlink:show="new" xlink:title="MenuState.html" xlink:type="simple"><g id="elem_vv.States.MenuState"><rect codeLine="5" fill="#F1F1F1" height="97.1997" id="vv.States.MenuState" rx="2.5" ry="2.5" style="stroke:#181818;stroke-width:0.5;" width="187" x="7" y="155.2"/><ellipse cx="61.75" cy="174.6" fill="#ADD1B2" rx="11" ry="11" style="stroke:#181818;stroke-width:1.0;"/><path d="M56.75,175.7562 C56.75,178.2562 58.8906,180.0687 61.8125,180.0687 C63.0469,180.0687 64.2188,179.7718 64.9688,179.2562 C65.5781,178.8343 65.9063,178.4125 65.9063,178.0062 C65.9063,177.5375 65.4844,177.1312 64.9844,177.1312 C64.75,177.1312 64.5313,177.2093 64.3281,177.4125 C63.8906,177.85 63.8906,177.85 63.7188,177.9437 C63.2656,178.1781 62.625,178.3187 61.8594,178.3187 C59.8594,178.3187 58.5781,177.3031 58.5781,175.725 L58.5781,174.6781 C58.5781,172.975 59.7969,171.7718 61.5,171.7718 C62.0781,171.7718 62.6563,171.9125 63.125,172.1625 C63.5938,172.4281 63.7656,172.6156 63.8281,172.975 C63.9531,173.6468 64.2031,173.8968 64.7344,173.8968 C65.0156,173.8968 65.2969,173.7562 65.4844,173.5375 C65.6094,173.3656 65.6563,173.1937 65.6563,172.7562 L65.6563,171.3968 C65.6563,170.975 65.6406,170.8343 65.5156,170.6625 C65.3438,170.4125 65.0625,170.2562 64.7344,170.2562 C64.4219,170.2562 64.2188,170.3656 64,170.6312 C62.8281,170.1312 62.3906,170.0218 61.4375,170.0218 C58.7656,170.0218 56.75,172.0375 56.75,174.6625 L56.75,175.7562 Z " fill="#000000"/><text fill="#000000" font-family="sans-serif" font-size="14" lengthAdjust="spacing" textLength="69" x="82.25" y="173.2059">MenuState</text><text fill="#000000" font-family="sans-serif" font-size="10" lengthAdjust="spacing" textLength="43" x="95.25" y="186.2899">vv.States</text><line style="stroke:#181818;stroke-width:0.5;" x1="8" x2="193" y1="193.9999" y2="193.9999"/><ellipse cx="18" cy="207.8999" fill="#84BE84" rx="3" ry="3" style="stroke:#038048;stroke-width:1.0;"/><text fill="#000000" font-family="sans-serif" font-size="14" lengthAdjust="spacing" text-decoration="underline" textLength="161" x="27" y="211.0059">getInstance(): MenuState</text><ellipse cx="18" cy="224.6998" fill="#84BE84" rx="3" ry="3" style="stroke:#038048;stroke-width:1.0;"/><text fill="#000000" font-family="sans-serif" font-size="14" lengthAdjust="spacing" textLength="90" x="27" y="227.8058">Update(): void</text><ellipse cx="18" cy="241.4997" fill="#84BE84" rx="3" ry="3" style="stroke:#038048;stroke-width:1.0;"/><text fill="#000000" font-family="sans-serif" font-size="14" lengthAdjust="spacing" textLength="134" x="27" y="244.6057">Draw(Graphics): void</text></g></a><!--class vv.States.State--><a href="State.html" target="_top" title="State.html" xlink:actuate="onRequest" xlink:href="State.html" xlink:show="new" xlink:title="State.html" xlink:type="simple"><g id="elem_vv.States.State"><rect codeLine="11" fill="#F1F1F1" height="88.1997" id="vv.States.State" rx="2.5" ry="2.5" style="stroke:#181818;stroke-width:0.5;" width="160" x="20.5" y="7"/><ellipse cx="74.75" cy="28.2" fill="#B4A7E5" rx="11" ry="11" style="stroke:#181818;stroke-width:1.0;"/><path d="M75.7656,25.3562 L77.4219,25.3562 C77.8125,25.3562 78.0156,25.325 78.1719,25.2468 C78.4375,25.075 78.6094,24.7781 78.6094,24.4812 C78.6094,24.2 78.4688,23.95 78.2344,23.7781 C78.0469,23.6531 77.8906,23.6062 77.4219,23.6062 L72.2813,23.6062 C71.8438,23.6062 71.7031,23.6218 71.5313,23.7312 C71.2656,23.9031 71.0938,24.1843 71.0938,24.4812 C71.0938,24.7625 71.2344,25.0437 71.4688,25.2 C71.6563,25.325 71.8438,25.3562 72.2813,25.3562 L73.9375,25.3562 L73.9375,31.45 L72.2813,31.45 C71.8438,31.45 71.7031,31.4656 71.5313,31.575 C71.2656,31.7312 71.0938,32.0281 71.0938,32.3093 C71.0938,32.9187 71.5,33.2 72.2813,33.2 L77.4219,33.2 C78.2031,33.2 78.6094,32.9187 78.6094,32.3093 C78.6094,32.0437 78.4688,31.7937 78.2344,31.6218 C78.0469,31.4812 77.875,31.45 77.4219,31.45 L75.7656,31.45 L75.7656,25.3562 Z " fill="#000000"/><text fill="#000000" font-family="sans-serif" font-size="14" font-style="italic" lengthAdjust="spacing" textLength="33" x="100.25" y="27.3999">State</text><text fill="#000000" font-family="sans-serif" font-size="10" font-style="italic" lengthAdjust="spacing" textLength="43" x="95.25" y="41.8999">vv.States</text><line style="stroke:#181818;stroke-width:0.5;" x1="21.5" x2="179.5" y1="49.3999" y2="49.3999"/><ellipse cx="31.5" cy="64.3499" fill="#84BE84" rx="3" ry="3" style="stroke:#038048;stroke-width:1.0;"/><text fill="#000000" font-family="sans-serif" font-size="14" font-style="italic" lengthAdjust="spacing" textLength="90" x="40.5" y="68.7998">Update(): void</text><ellipse cx="31.5" cy="83.2498" fill="#84BE84" rx="3" ry="3" style="stroke:#038048;stroke-width:1.0;"/><text fill="#000000" font-family="sans-serif" font-size="14" font-style="italic" lengthAdjust="spacing" textLength="134" x="40.5" y="87.6998">Draw(Graphics): void</text></g></a><!--reverse link vv.States.State to vv.States.MenuState--><g id="link_vv.States.State_vv.States.MenuState"><path codeLine="16" d="M100.5,116.6 C100.5,129.42 100.5,142.67 100.5,154.82 " fill="none" id="vv.States.State-backto-vv.States.MenuState" style="stroke:#181818;stroke-width:1.0;stroke-dasharray:7.0,7.0;"/><polygon fill="none" points="93.5,116.69,100.5,96.69,107.5,116.69,93.5,116.69" style="stroke:#181818;stroke-width:1.0;"/></g><text fill="#888888" font-family="sans-serif" font-size="10" lengthAdjust="spacing" textLength="179" x="4" y="267.6897">UMLDoclet 2.1.0, PlantUML 1.2022.14</text><!--SRC=[ZPB1IWCn48RlFiLG4BPKGYkUIkcf8885eVHKUnYpisvWDmcPSKNhlhlPjSQbM3INPBv_aim_2G00au35cjYZfWrv32WkW7MMBg8CfSa9gFRo1eMXAkTJMfEKBkAUwmgPORHWyqxpsSroJVPb8oZqQ8zikcmQrICU0JAaIALSsEtIMfLIL_iz7FhZkt7Wo8rkOV9CScTZP3LbupcaFIbrilLvZ3knSIR_uQk0hzbjG5yQpKEr_R9Xh50eOaC6Llvhuzl2kVBnYIMWblPiUSEKloezlNVneTHlFJq-3tN6e72kcxRh-vNJLVm0rsgcfbVmKA6LIE6oeS36sMpy2G00]--></g></svg>