<?xml version="1.0" encoding="UTF-8" standalone="no"?><svg xmlns="http://www.w3.org/2000/svg" xmlns:xlink="http://www.w3.org/1999/xlink" contentStyleType="text/css" height="361px" preserveAspectRatio="none" style="width:693px;height:361px;background:#FFFFFF;" version="1.1" viewBox="0 0 693 361" width="693px" zoomAndPan="magnify"><defs/><g><!--cluster vv.States--><g id="cluster_vv.States"><path d="M8.5,6.294 L72.5,6.294 A3.75,3.75 0 0 1 75,8.794 L82,29.0939 L683.5,29.0939 A2.5,2.5 0 0 1 686,31.5939 L686,332.594 A2.5,2.5 0 0 1 683.5,335.094 L8.5,335.094 A2.5,2.5 0 0 1 6,332.594 L6,8.794 A2.5,2.5 0 0 1 8.5,6.294 " fill="none" style="stroke:#000000;stroke-width:1.5;"/><line style="stroke:#000000;stroke-width:1.5;" x1="6" x2="82" y1="29.0939" y2="29.0939"/><text fill="#000000" font-family="sans-serif" font-size="14" font-weight="bold" lengthAdjust="spacing" textLength="63" x="10" y="21.2999">vv.States</text></g><!--class vv.States.PlayState--><a href="PlayState.html" target="_top" title="PlayState.html" xlink:actuate="onRequest" xlink:href="PlayState.html" xlink:show="new" xlink:title="PlayState.html" xlink:type="simple"><g id="elem_vv.States.PlayState"><rect codeLine="3" fill="#F1F1F1" height="131.9996" id="vv.States.PlayState" rx="2.5" ry="2.5" style="stroke:#181818;stroke-width:0.5;" width="178" x="22" y="187.094"/><ellipse cx="76.75" cy="203.094" fill="#ADD1B2" rx="11" ry="11" style="stroke:#181818;stroke-width:1.0;"/><path d="M71.75,204.2502 C71.75,206.7502 73.8906,208.5627 76.8125,208.5627 C78.0469,208.5627 79.2188,208.2659 79.9688,207.7502 C80.5781,207.3284 80.9063,206.9065 80.9063,206.5002 C80.9063,206.0315 80.4844,205.6252 79.9844,205.6252 C79.75,205.6252 79.5313,205.7034 79.3281,205.9065 C78.8906,206.344 78.8906,206.344 78.7188,206.4377 C78.2656,206.6721 77.625,206.8127 76.8594,206.8127 C74.8594,206.8127 73.5781,205.7971 73.5781,204.219 L73.5781,203.1721 C73.5781,201.469 74.7969,200.2659 76.5,200.2659 C77.0781,200.2659 77.6563,200.4065 78.125,200.6565 C78.5938,200.9221 78.7656,201.1096 78.8281,201.469 C78.9531,202.1409 79.2031,202.3909 79.7344,202.3909 C80.0156,202.3909 80.2969,202.2502 80.4844,202.0315 C80.6094,201.8596 80.6563,201.6877 80.6563,201.2502 L80.6563,199.8909 C80.6563,199.469 80.6406,199.3284 80.5156,199.1565 C80.3438,198.9065 80.0625,198.7502 79.7344,198.7502 C79.4219,198.7502 79.2188,198.8596 79,199.1252 C77.8281,198.6252 77.3906,198.5159 76.4375,198.5159 C73.7656,198.5159 71.75,200.5315 71.75,203.1565 L71.75,204.2502 Z " fill="#000000"/><text fill="#000000" font-family="sans-serif" font-size="14" lengthAdjust="spacing" textLength="60" x="97.25" y="207.7">PlayState</text><line style="stroke:#181818;stroke-width:0.5;" x1="23" x2="199" y1="219.094" y2="219.094"/><ellipse cx="33" cy="232.9939" fill="none" rx="3" ry="3" style="stroke:#038048;stroke-width:1.0;"/><text fill="#000000" font-family="sans-serif" font-size="14" lengthAdjust="spacing" textLength="68" x="42" y="236.0999">hero: Hero</text><line style="stroke:#181818;stroke-width:0.5;" x1="23" x2="199" y1="243.8939" y2="243.8939"/><ellipse cx="33" cy="257.7939" fill="#84BE84" rx="3" ry="3" style="stroke:#038048;stroke-width:1.0;"/><text fill="#000000" font-family="sans-serif" font-size="14" lengthAdjust="spacing" textLength="108" x="42" y="260.8999">gotoMenu(): void</text><ellipse cx="33" cy="274.5938" fill="#84BE84" rx="3" ry="3" style="stroke:#038048;stroke-width:1.0;"/><text fill="#000000" font-family="sans-serif" font-size="14" lengthAdjust="spacing" text-decoration="underline" textLength="152" x="42" y="277.6998">getInstance(): PlayState</text><ellipse cx="33" cy="291.3937" fill="#84BE84" rx="3" ry="3" style="stroke:#038048;stroke-width:1.0;"/><text fill="#000000" font-family="sans-serif" font-size="14" lengthAdjust="spacing" textLength="90" x="42" y="294.4997">Update(): void</text><ellipse cx="33" cy="308.1937" fill="#84BE84" rx="3" ry="3" style="stroke:#038048;stroke-width:1.0;"/><text fill="#000000" font-family="sans-serif" font-size="14" lengthAdjust="spacing" textLength="134" x="42" y="311.2996">Draw(Graphics): void</text></g></a><!--class vv.States.State--><a href="State.html" target="_top" title="State.html" xlink:actuate="onRequest" xlink:href="State.html" xlink:show="new" xlink:title="State.html" xlink:type="simple"><g id="elem_vv.States.State"><rect codeLine="11" fill="#F1F1F1" height="85.7998" id="vv.States.State" rx="2.5" ry="2.5" style="stroke:#181818;stroke-width:0.5;" width="160" x="262" y="41.294"/><ellipse cx="321.25" cy="57.294" fill="#B4A7E5" rx="11" ry="11" style="stroke:#181818;stroke-width:1.0;"/><path d="M322.2656,54.4502 L323.9219,54.4502 C324.3125,54.4502 324.5156,54.419 324.6719,54.3409 C324.9375,54.169 325.1094,53.8721 325.1094,53.5752 C325.1094,53.294 324.9688,53.044 324.7344,52.8721 C324.5469,52.7471 324.3906,52.7002 323.9219,52.7002 L318.7813,52.7002 C318.3438,52.7002 318.2031,52.7159 318.0313,52.8252 C317.7656,52.9971 317.5938,53.2784 317.5938,53.5752 C317.5938,53.8565 317.7344,54.1377 317.9688,54.294 C318.1563,54.419 318.3438,54.4502 318.7813,54.4502 L320.4375,54.4502 L320.4375,60.544 L318.7813,60.544 C318.3438,60.544 318.2031,60.5596 318.0313,60.669 C317.7656,60.8252 317.5938,61.1221 317.5938,61.4034 C317.5938,62.0127 318,62.294 318.7813,62.294 L323.9219,62.294 C324.7031,62.294 325.1094,62.0127 325.1094,61.4034 C325.1094,61.1377 324.9688,60.8877 324.7344,60.7159 C324.5469,60.5752 324.375,60.544 323.9219,60.544 L322.2656,60.544 L322.2656,54.4502 Z " fill="#000000"/><text fill="#000000" font-family="sans-serif" font-size="14" font-style="italic" lengthAdjust="spacing" textLength="33" x="341.75" y="63.244">State</text><line style="stroke:#181818;stroke-width:0.5;" x1="263" x2="421" y1="73.294" y2="73.294"/><line style="stroke:#181818;stroke-width:0.5;" x1="263" x2="421" y1="81.294" y2="81.294"/><ellipse cx="273" cy="96.2439" fill="#84BE84" rx="3" ry="3" style="stroke:#038048;stroke-width:1.0;"/><text fill="#000000" font-family="sans-serif" font-size="14" font-style="italic" lengthAdjust="spacing" textLength="90" x="282" y="100.6939">Update(): void</text><ellipse cx="273" cy="115.1439" fill="#84BE84" rx="3" ry="3" style="stroke:#038048;stroke-width:1.0;"/><text fill="#000000" font-family="sans-serif" font-size="14" font-style="italic" lengthAdjust="spacing" textLength="134" x="282" y="119.5938">Draw(Graphics): void</text></g></a><!--class vv.States.MemoriesState--><a href="MemoriesState.html" target="_top" title="MemoriesState.html" xlink:actuate="onRequest" xlink:href="MemoriesState.html" xlink:show="new" xlink:title="MemoriesState.html" xlink:type="simple"><g id="elem_vv.States.MemoriesState"><rect codeLine="16" fill="#F1F1F1" height="115.1997" id="vv.States.MemoriesState" rx="2.5" ry="2.5" style="stroke:#181818;stroke-width:0.5;" width="214" x="235" y="195.494"/><ellipse cx="289.75" cy="211.494" fill="#ADD1B2" rx="11" ry="11" style="stroke:#181818;stroke-width:1.0;"/><path d="M284.75,212.6502 C284.75,215.1502 286.8906,216.9627 289.8125,216.9627 C291.0469,216.9627 292.2188,216.6659 292.9688,216.1502 C293.5781,215.7284 293.9063,215.3065 293.9063,214.9002 C293.9063,214.4315 293.4844,214.0252 292.9844,214.0252 C292.75,214.0252 292.5313,214.1034 292.3281,214.3065 C291.8906,214.744 291.8906,214.744 291.7188,214.8377 C291.2656,215.0721 290.625,215.2127 289.8594,215.2127 C287.8594,215.2127 286.5781,214.1971 286.5781,212.619 L286.5781,211.5721 C286.5781,209.869 287.7969,208.6659 289.5,208.6659 C290.0781,208.6659 290.6563,208.8065 291.125,209.0565 C291.5938,209.3221 291.7656,209.5096 291.8281,209.869 C291.9531,210.5409 292.2031,210.7909 292.7344,210.7909 C293.0156,210.7909 293.2969,210.6502 293.4844,210.4315 C293.6094,210.2596 293.6563,210.0877 293.6563,209.6502 L293.6563,208.2909 C293.6563,207.869 293.6406,207.7284 293.5156,207.5565 C293.3438,207.3065 293.0625,207.1502 292.7344,207.1502 C292.4219,207.1502 292.2188,207.2596 292,207.5252 C290.8281,207.0252 290.3906,206.9159 289.4375,206.9159 C286.7656,206.9159 284.75,208.9315 284.75,211.5565 L284.75,212.6502 Z " fill="#000000"/><text fill="#000000" font-family="sans-serif" font-size="14" lengthAdjust="spacing" textLength="96" x="310.25" y="216.1">MemoriesState</text><line style="stroke:#181818;stroke-width:0.5;" x1="236" x2="448" y1="227.494" y2="227.494"/><line style="stroke:#181818;stroke-width:0.5;" x1="236" x2="448" y1="235.494" y2="235.494"/><ellipse cx="246" cy="249.3939" fill="#84BE84" rx="3" ry="3" style="stroke:#038048;stroke-width:1.0;"/><text fill="#000000" font-family="sans-serif" font-size="14" lengthAdjust="spacing" textLength="108" x="255" y="252.4999">gotoMenu(): void</text><ellipse cx="246" cy="266.1939" fill="#84BE84" rx="3" ry="3" style="stroke:#038048;stroke-width:1.0;"/><text fill="#000000" font-family="sans-serif" font-size="14" lengthAdjust="spacing" text-decoration="underline" textLength="188" x="255" y="269.2999">getInstance(): MemoriesState</text><ellipse cx="246" cy="282.9938" fill="#84BE84" rx="3" ry="3" style="stroke:#038048;stroke-width:1.0;"/><text fill="#000000" font-family="sans-serif" font-size="14" lengthAdjust="spacing" textLength="90" x="255" y="286.0998">Update(): void</text><ellipse cx="246" cy="299.7937" fill="#84BE84" rx="3" ry="3" style="stroke:#038048;stroke-width:1.0;"/><text fill="#000000" font-family="sans-serif" font-size="14" lengthAdjust="spacing" textLength="134" x="255" y="302.8997">Draw(Graphics): void</text></g></a><!--class vv.States.MenuState--><a href="MenuState.html" target="_top" title="MenuState.html" xlink:actuate="onRequest" xlink:href="MenuState.html" xlink:show="new" xlink:title="MenuState.html" xlink:type="simple"><g id="elem_vv.States.MenuState"><rect codeLine="23" fill="#F1F1F1" height="98.3998" id="vv.States.MenuState" rx="2.5" ry="2.5" style="stroke:#181818;stroke-width:0.5;" width="187" x="483.5" y="203.894"/><ellipse cx="538.25" cy="219.894" fill="#ADD1B2" rx="11" ry="11" style="stroke:#181818;stroke-width:1.0;"/><path d="M533.25,221.0502 C533.25,223.5502 535.3906,225.3627 538.3125,225.3627 C539.5469,225.3627 540.7188,225.0659 541.4688,224.5502 C542.0781,224.1284 542.4063,223.7065 542.4063,223.3002 C542.4063,222.8315 541.9844,222.4252 541.4844,222.4252 C541.25,222.4252 541.0313,222.5034 540.8281,222.7065 C540.3906,223.144 540.3906,223.144 540.2188,223.2377 C539.7656,223.4721 539.125,223.6127 538.3594,223.6127 C536.3594,223.6127 535.0781,222.5971 535.0781,221.019 L535.0781,219.9721 C535.0781,218.269 536.2969,217.0659 538,217.0659 C538.5781,217.0659 539.1563,217.2065 539.625,217.4565 C540.0938,217.7221 540.2656,217.9096 540.3281,218.269 C540.4531,218.9409 540.7031,219.1909 541.2344,219.1909 C541.5156,219.1909 541.7969,219.0502 541.9844,218.8315 C542.1094,218.6596 542.1563,218.4877 542.1563,218.0502 L542.1563,216.6909 C542.1563,216.269 542.1406,216.1284 542.0156,215.9565 C541.8438,215.7065 541.5625,215.5502 541.2344,215.5502 C540.9219,215.5502 540.7188,215.6596 540.5,215.9252 C539.3281,215.4252 538.8906,215.3159 537.9375,215.3159 C535.2656,215.3159 533.25,217.3315 533.25,219.9565 L533.25,221.0502 Z " fill="#000000"/><text fill="#000000" font-family="sans-serif" font-size="14" lengthAdjust="spacing" textLength="69" x="558.75" y="224.5">MenuState</text><line style="stroke:#181818;stroke-width:0.5;" x1="484.5" x2="669.5" y1="235.894" y2="235.894"/><line style="stroke:#181818;stroke-width:0.5;" x1="484.5" x2="669.5" y1="243.894" y2="243.894"/><ellipse cx="494.5" cy="257.7939" fill="#84BE84" rx="3" ry="3" style="stroke:#038048;stroke-width:1.0;"/><text fill="#000000" font-family="sans-serif" font-size="14" lengthAdjust="spacing" text-decoration="underline" textLength="161" x="503.5" y="260.8999">getInstance(): MenuState</text><ellipse cx="494.5" cy="274.5939" fill="#84BE84" rx="3" ry="3" style="stroke:#038048;stroke-width:1.0;"/><text fill="#000000" font-family="sans-serif" font-size="14" lengthAdjust="spacing" textLength="90" x="503.5" y="277.6999">Update(): void</text><ellipse cx="494.5" cy="291.3938" fill="#84BE84" rx="3" ry="3" style="stroke:#038048;stroke-width:1.0;"/><text fill="#000000" font-family="sans-serif" font-size="14" lengthAdjust="spacing" textLength="134" x="503.5" y="294.4998">Draw(Graphics): void</text></g></a><!--reverse link vv.States.State to vv.States.PlayState--><g id="link_vv.States.State_vv.States.PlayState"><path codeLine="29" d="M266.53,139.724 C245.31,155.054 222.04,171.864 200.11,187.714 " fill="none" id="vv.States.State-backto-vv.States.PlayState" style="stroke:#181818;stroke-width:1.0;stroke-dasharray:7.0,7.0;"/><polygon fill="none" points="262.1,133.564,282.41,127.524,270.3,144.914,262.1,133.564" style="stroke:#181818;stroke-width:1.0;"/></g><!--reverse link vv.States.State to vv.States.MemoriesState--><g id="link_vv.States.State_vv.States.MemoriesState"><path codeLine="30" d="M342,148.214 C342,163.644 342,180.054 342,195.174 " fill="none" id="vv.States.State-backto-vv.States.MemoriesState" style="stroke:#181818;stroke-width:1.0;stroke-dasharray:7.0,7.0;"/><polygon fill="none" points="335,148.314,342,128.314,349,148.314,335,148.314" style="stroke:#181818;stroke-width:1.0;"/></g><!--reverse link vv.States.State to vv.States.MenuState--><g id="link_vv.States.State_vv.States.MenuState"><path codeLine="31" d="M418.65,139.634 C447.68,160.254 480.51,183.564 508.72,203.604 " fill="none" id="vv.States.State-backto-vv.States.MenuState" style="stroke:#181818;stroke-width:1.0;stroke-dasharray:7.0,7.0;"/><polygon fill="none" points="414.86,144.814,402.6,127.524,422.96,133.404,414.86,144.814" style="stroke:#181818;stroke-width:1.0;"/></g><text fill="#888888" font-family="sans-serif" font-size="10" lengthAdjust="spacing" textLength="179" x="250" y="350.384">UMLDoclet 2.1.0, PlantUML 1.2022.14</text><!--SRC=[hLB1QiCm3BttAtGPf7IORiUoOs4RB50OFPKUD5TT38aTR3LZPFdtsMlInYCfOzG7MvQUfVSU1W3GM90hKH9KbNXbP79GJoRGBfcZSx3AyVEd1flDAHOP5_bswz7GMxECh5d0az_Z_BjXav8-9DC5L4RjechjV4Sb6myZVjR-fYK5v6bQt6nTxdnkiDLiQV4ZURHOPagwtuZcB4rf9hiFoZjf5sJL-EROekJcul0-xAyyZXQdL1Yho7LSelk8rV-pDEfyVLixEVfmbjB68zQE4stVNP_aaTh3bn03FwnN7FOg0lGvjXCaXQy5UsF2iKvVbaRcn70lxiJyDapKxBDmKv5rokXa-Wq0]--></g></svg>