<?xml version="1.0" encoding="UTF-8" standalone="no"?><svg xmlns="http://www.w3.org/2000/svg" xmlns:xlink="http://www.w3.org/1999/xlink" contentStyleType="text/css" height="344px" preserveAspectRatio="none" style="width:205px;height:344px;background:#FFFFFF;" version="1.1" viewBox="0 0 205 344" width="205px" zoomAndPan="magnify"><defs/><g><!--cluster VV.States--><g id="cluster_VV.States"><path d="M8.5,6.294 L74.5,6.294 A3.75,3.75 0 0 1 77,8.794 L84,29.0939 L195.5,29.0939 A2.5,2.5 0 0 1 198,31.5939 L198,315.794 A2.5,2.5 0 0 1 195.5,318.294 L8.5,318.294 A2.5,2.5 0 0 1 6,315.794 L6,8.794 A2.5,2.5 0 0 1 8.5,6.294 " fill="none" style="stroke:#000000;stroke-width:1.5;"/><line style="stroke:#000000;stroke-width:1.5;" x1="6" x2="84" y1="29.0939" y2="29.0939"/><text fill="#000000" font-family="sans-serif" font-size="14" font-weight="bold" lengthAdjust="spacing" textLength="65" x="10" y="21.2999">VV.States</text></g><!--class VV.States.PlayState--><a href="PlayState.html" target="_top" title="PlayState.html" xlink:actuate="onRequest" xlink:href="PlayState.html" xlink:show="new" xlink:title="PlayState.html" xlink:type="simple"><g id="elem_VV.States.PlayState"><rect codeLine="3" fill="#F1F1F1" height="81.5999" id="VV.States.PlayState" rx="2.5" ry="2.5" style="stroke:#181818;stroke-width:0.5;" width="160" x="22" y="220.294"/><ellipse cx="67.75" cy="236.294" fill="#ADD1B2" rx="11" ry="11" style="stroke:#181818;stroke-width:1.0;"/><path d="M62.75,237.4502 C62.75,239.9502 64.8906,241.7627 67.8125,241.7627 C69.0469,241.7627 70.2188,241.4659 70.9688,240.9502 C71.5781,240.5284 71.9063,240.1065 71.9063,239.7002 C71.9063,239.2315 71.4844,238.8252 70.9844,238.8252 C70.75,238.8252 70.5313,238.9034 70.3281,239.1065 C69.8906,239.544 69.8906,239.544 69.7188,239.6377 C69.2656,239.8721 68.625,240.0127 67.8594,240.0127 C65.8594,240.0127 64.5781,238.9971 64.5781,237.419 L64.5781,236.3721 C64.5781,234.669 65.7969,233.4659 67.5,233.4659 C68.0781,233.4659 68.6563,233.6065 69.125,233.8565 C69.5938,234.1221 69.7656,234.3096 69.8281,234.669 C69.9531,235.3409 70.2031,235.5909 70.7344,235.5909 C71.0156,235.5909 71.2969,235.4502 71.4844,235.2315 C71.6094,235.0596 71.6563,234.8877 71.6563,234.4502 L71.6563,233.0909 C71.6563,232.669 71.6406,232.5284 71.5156,232.3565 C71.3438,232.1065 71.0625,231.9502 70.7344,231.9502 C70.4219,231.9502 70.2188,232.0596 70,232.3252 C68.8281,231.8252 68.3906,231.7159 67.4375,231.7159 C64.7656,231.7159 62.75,233.7315 62.75,236.3565 L62.75,237.4502 Z " fill="#000000"/><text fill="#000000" font-family="sans-serif" font-size="14" lengthAdjust="spacing" textLength="60" x="88.25" y="240.9">PlayState</text><line style="stroke:#181818;stroke-width:0.5;" x1="23" x2="181" y1="252.294" y2="252.294"/><line style="stroke:#181818;stroke-width:0.5;" x1="23" x2="181" y1="260.294" y2="260.294"/><ellipse cx="33" cy="274.1939" fill="#84BE84" rx="3" ry="3" style="stroke:#038048;stroke-width:1.0;"/><text fill="#000000" font-family="sans-serif" font-size="14" lengthAdjust="spacing" textLength="90" x="42" y="277.2999">Update(): void</text><ellipse cx="33" cy="290.9939" fill="#84BE84" rx="3" ry="3" style="stroke:#038048;stroke-width:1.0;"/><text fill="#000000" font-family="sans-serif" font-size="14" lengthAdjust="spacing" textLength="134" x="42" y="294.0999">Draw(Graphics): void</text></g></a><!--class VV.States.State--><a href="State.html" target="_top" title="State.html" xlink:actuate="onRequest" xlink:href="State.html" xlink:show="new" xlink:title="State.html" xlink:type="simple"><g id="elem_VV.States.State"><rect codeLine="8" fill="#F1F1F1" height="119.3997" id="VV.States.State" rx="2.5" ry="2.5" style="stroke:#181818;stroke-width:0.5;" width="160" x="22" y="41.294"/><ellipse cx="81.25" cy="57.294" fill="#A9DCDF" rx="11" ry="11" style="stroke:#181818;stroke-width:1.0;"/><path d="M82.7813,59.2315 L83.1094,60.0284 L82.8281,60.0284 C82.375,60.0284 82.25,60.0596 82.0781,60.169 C81.7969,60.3096 81.625,60.6065 81.625,60.9034 C81.625,61.2002 81.7656,61.4502 82,61.6221 C82.1719,61.7471 82.4063,61.794 82.8281,61.794 L85.1875,61.794 C85.5469,61.794 85.7969,61.7627 85.9375,61.669 C86.2031,61.5284 86.375,61.2159 86.375,60.9034 C86.375,60.6377 86.2344,60.3721 86,60.2002 C85.8125,60.0752 85.6563,60.044 85.2031,60.0284 L81.8125,52.2002 L78.0938,52.2002 C77.6406,52.2002 77.5,52.2159 77.3281,52.3252 C77.0625,52.4971 76.8906,52.7784 76.8906,53.0752 C76.8906,53.3565 77.0313,53.6221 77.2813,53.794 C77.4531,53.919 77.6406,53.9502 78.0938,53.9502 L79.0625,53.9502 L76.4844,60.0284 C75.7344,60.0284 75.3281,60.3252 75.3281,60.9034 C75.3281,61.5127 75.7188,61.794 76.5156,61.794 L78.7813,61.794 C79.1406,61.794 79.3906,61.7627 79.5313,61.669 C79.7969,61.5127 79.9688,61.2159 79.9688,60.9034 C79.9688,60.6377 79.8281,60.3721 79.5938,60.2002 C79.4063,60.0596 79.25,60.0284 78.7813,60.0284 L78.4844,60.0284 L78.8281,59.2315 L82.7813,59.2315 Z M82.0156,57.4815 L79.5625,57.4815 L80.7969,54.6065 L82.0156,57.4815 Z " fill="#000000"/><text fill="#000000" font-family="sans-serif" font-size="14" font-style="italic" lengthAdjust="spacing" textLength="33" x="101.75" y="63.244">State</text><line style="stroke:#181818;stroke-width:0.5;" x1="23" x2="181" y1="73.294" y2="73.294"/><line style="stroke:#181818;stroke-width:0.5;" x1="23" x2="181" y1="81.294" y2="81.294"/><ellipse cx="33" cy="95.1939" fill="#84BE84" rx="3" ry="3" style="stroke:#038048;stroke-width:1.0;"/><text fill="#000000" font-family="sans-serif" font-size="14" lengthAdjust="spacing" text-decoration="underline" textLength="131" x="42" y="98.2999">SetState(State): void</text><ellipse cx="33" cy="111.9939" fill="#84BE84" rx="3" ry="3" style="stroke:#038048;stroke-width:1.0;"/><text fill="#000000" font-family="sans-serif" font-size="14" lengthAdjust="spacing" text-decoration="underline" textLength="107" x="42" y="115.0999">GetState(): State</text><ellipse cx="33" cy="129.8438" fill="#84BE84" rx="3" ry="3" style="stroke:#038048;stroke-width:1.0;"/><text fill="#000000" font-family="sans-serif" font-size="14" font-style="italic" lengthAdjust="spacing" textLength="90" x="42" y="134.2938">Update(): void</text><ellipse cx="33" cy="148.7437" fill="#84BE84" rx="3" ry="3" style="stroke:#038048;stroke-width:1.0;"/><text fill="#000000" font-family="sans-serif" font-size="14" font-style="italic" lengthAdjust="spacing" textLength="134" x="42" y="153.1937">Draw(Graphics): void</text></g></a><!--reverse link VV.States.State to VV.States.PlayState--><g id="link_VV.States.State_VV.States.PlayState"><path codeLine="15" d="M102,181.354 C102,194.854 102,208.334 102,220.244 " fill="none" id="VV.States.State-backto-VV.States.PlayState" style="stroke:#181818;stroke-width:1.0;"/><polygon fill="none" points="95,181.364,102,161.364,109,181.364,95,181.364" style="stroke:#181818;stroke-width:1.0;"/></g><text fill="#888888" font-family="sans-serif" font-size="10" lengthAdjust="spacing" textLength="179" x="6" y="333.584">UMLDoclet 2.1.0, PlantUML 1.2022.14</text><!--SRC=[ZP0n2y8m48Nt_efRX1HjK4Tn55mK1D6bE9mnOY4c9NTKHFlVZTNQAYBUa1nvt_7k1G30ub5JZah3UYsNZAm9Bb44pr86YM1Xy5nfaAQlNXxuQ3QRG4Ehkgjy5qGHZw1msUvTctWyYQd7_90f-YJAnXMtn1uLF-rhwn-s5mfQfaheBZLNdAZERsiqxBHc0rOrxrozHlapLHlxD-0ZqVYQ9CtVHYr6QSlQmzwv-xMQpoPE6Sqmb0FPxzrdB8TNw1JQK-QiY6y0]--></g></svg>