<?xml version="1.0" encoding="UTF-8" standalone="no"?><svg xmlns="http://www.w3.org/2000/svg" xmlns:xlink="http://www.w3.org/1999/xlink" contentStyleType="text/css" height="361px" preserveAspectRatio="none" style="width:693px;height:361px;background:#FFFFFF;" version="1.1" viewBox="0 0 693 361" width="693px" zoomAndPan="magnify"><defs/><g><!--cluster vv.States--><g id="cluster_vv.States"><path d="M8.5,6.294 L72.5,6.294 A3.75,3.75 0 0 1 75,8.794 L82,29.0939 L683.5,29.0939 A2.5,2.5 0 0 1 686,31.5939 L686,332.594 A2.5,2.5 0 0 1 683.5,335.094 L8.5,335.094 A2.5,2.5 0 0 1 6,332.594 L6,8.794 A2.5,2.5 0 0 1 8.5,6.294 " fill="none" style="stroke:#000000;stroke-width:1.5;"/><line style="stroke:#000000;stroke-width:1.5;" x1="6" x2="82" y1="29.0939" y2="29.0939"/><text fill="#000000" font-family="sans-serif" font-size="14" font-weight="bold" lengthAdjust="spacing" textLength="63" x="10" y="21.2999">vv.States</text></g><!--class vv.States.MenuState--><a href="MenuState.html" target="_top" title="MenuState.html" xlink:actuate="onRequest" xlink:href="MenuState.html" xlink:show="new" xlink:title="MenuState.html" xlink:type="simple"><g id="elem_vv.States.MenuState"><rect codeLine="3" fill="#F1F1F1" height="98.3998" id="vv.States.MenuState" rx="2.5" ry="2.5" style="stroke:#181818;stroke-width:0.5;" width="187" x="21.5" y="203.894"/><ellipse cx="76.25" cy="219.894" fill="#ADD1B2" rx="11" ry="11" style="stroke:#181818;stroke-width:1.0;"/><path d="M71.25,221.0502 C71.25,223.5502 73.3906,225.3627 76.3125,225.3627 C77.5469,225.3627 78.7188,225.0659 79.4688,224.5502 C80.0781,224.1284 80.4063,223.7065 80.4063,223.3002 C80.4063,222.8315 79.9844,222.4252 79.4844,222.4252 C79.25,222.4252 79.0313,222.5034 78.8281,222.7065 C78.3906,223.144 78.3906,223.144 78.2188,223.2377 C77.7656,223.4721 77.125,223.6127 76.3594,223.6127 C74.3594,223.6127 73.0781,222.5971 73.0781,221.019 L73.0781,219.9721 C73.0781,218.269 74.2969,217.0659 76,217.0659 C76.5781,217.0659 77.1563,217.2065 77.625,217.4565 C78.0938,217.7221 78.2656,217.9096 78.3281,218.269 C78.4531,218.9409 78.7031,219.1909 79.2344,219.1909 C79.5156,219.1909 79.7969,219.0502 79.9844,218.8315 C80.1094,218.6596 80.1563,218.4877 80.1563,218.0502 L80.1563,216.6909 C80.1563,216.269 80.1406,216.1284 80.0156,215.9565 C79.8438,215.7065 79.5625,215.5502 79.2344,215.5502 C78.9219,215.5502 78.7188,215.6596 78.5,215.9252 C77.3281,215.4252 76.8906,215.3159 75.9375,215.3159 C73.2656,215.3159 71.25,217.3315 71.25,219.9565 L71.25,221.0502 Z " fill="#000000"/><text fill="#000000" font-family="sans-serif" font-size="14" lengthAdjust="spacing" textLength="69" x="96.75" y="224.5">MenuState</text><line style="stroke:#181818;stroke-width:0.5;" x1="22.5" x2="207.5" y1="235.894" y2="235.894"/><line style="stroke:#181818;stroke-width:0.5;" x1="22.5" x2="207.5" y1="243.894" y2="243.894"/><ellipse cx="32.5" cy="257.7939" fill="#84BE84" rx="3" ry="3" style="stroke:#038048;stroke-width:1.0;"/><text fill="#000000" font-family="sans-serif" font-size="14" lengthAdjust="spacing" text-decoration="underline" textLength="161" x="41.5" y="260.8999">getInstance(): MenuState</text><ellipse cx="32.5" cy="274.5939" fill="#84BE84" rx="3" ry="3" style="stroke:#038048;stroke-width:1.0;"/><text fill="#000000" font-family="sans-serif" font-size="14" lengthAdjust="spacing" textLength="90" x="41.5" y="277.6999">Update(): void</text><ellipse cx="32.5" cy="291.3938" fill="#84BE84" rx="3" ry="3" style="stroke:#038048;stroke-width:1.0;"/><text fill="#000000" font-family="sans-serif" font-size="14" lengthAdjust="spacing" textLength="134" x="41.5" y="294.4998">Draw(Graphics): void</text></g></a><!--class vv.States.PlayState--><a href="PlayState.html" target="_top" title="PlayState.html" xlink:actuate="onRequest" xlink:href="PlayState.html" xlink:show="new" xlink:title="PlayState.html" xlink:type="simple"><g id="elem_vv.States.PlayState"><rect codeLine="9" fill="#F1F1F1" height="131.9996" id="vv.States.PlayState" rx="2.5" ry="2.5" style="stroke:#181818;stroke-width:0.5;" width="178" x="243" y="187.094"/><ellipse cx="297.75" cy="203.094" fill="#ADD1B2" rx="11" ry="11" style="stroke:#181818;stroke-width:1.0;"/><path d="M292.75,204.2502 C292.75,206.7502 294.8906,208.5627 297.8125,208.5627 C299.0469,208.5627 300.2188,208.2659 300.9688,207.7502 C301.5781,207.3284 301.9063,206.9065 301.9063,206.5002 C301.9063,206.0315 301.4844,205.6252 300.9844,205.6252 C300.75,205.6252 300.5313,205.7034 300.3281,205.9065 C299.8906,206.344 299.8906,206.344 299.7188,206.4377 C299.2656,206.6721 298.625,206.8127 297.8594,206.8127 C295.8594,206.8127 294.5781,205.7971 294.5781,204.219 L294.5781,203.1721 C294.5781,201.469 295.7969,200.2659 297.5,200.2659 C298.0781,200.2659 298.6563,200.4065 299.125,200.6565 C299.5938,200.9221 299.7656,201.1096 299.8281,201.469 C299.9531,202.1409 300.2031,202.3909 300.7344,202.3909 C301.0156,202.3909 301.2969,202.2502 301.4844,202.0315 C301.6094,201.8596 301.6563,201.6877 301.6563,201.2502 L301.6563,199.8909 C301.6563,199.469 301.6406,199.3284 301.5156,199.1565 C301.3438,198.9065 301.0625,198.7502 300.7344,198.7502 C300.4219,198.7502 300.2188,198.8596 300,199.1252 C298.8281,198.6252 298.3906,198.5159 297.4375,198.5159 C294.7656,198.5159 292.75,200.5315 292.75,203.1565 L292.75,204.2502 Z " fill="#000000"/><text fill="#000000" font-family="sans-serif" font-size="14" lengthAdjust="spacing" textLength="60" x="318.25" y="207.7">PlayState</text><line style="stroke:#181818;stroke-width:0.5;" x1="244" x2="420" y1="219.094" y2="219.094"/><ellipse cx="254" cy="232.9939" fill="none" rx="3" ry="3" style="stroke:#038048;stroke-width:1.0;"/><text fill="#000000" font-family="sans-serif" font-size="14" lengthAdjust="spacing" textLength="68" x="263" y="236.0999">hero: Hero</text><line style="stroke:#181818;stroke-width:0.5;" x1="244" x2="420" y1="243.8939" y2="243.8939"/><ellipse cx="254" cy="257.7939" fill="#84BE84" rx="3" ry="3" style="stroke:#038048;stroke-width:1.0;"/><text fill="#000000" font-family="sans-serif" font-size="14" lengthAdjust="spacing" textLength="108" x="263" y="260.8999">gotoMenu(): void</text><ellipse cx="254" cy="274.5938" fill="#84BE84" rx="3" ry="3" style="stroke:#038048;stroke-width:1.0;"/><text fill="#000000" font-family="sans-serif" font-size="14" lengthAdjust="spacing" text-decoration="underline" textLength="152" x="263" y="277.6998">getInstance(): PlayState</text><ellipse cx="254" cy="291.3937" fill="#84BE84" rx="3" ry="3" style="stroke:#038048;stroke-width:1.0;"/><text fill="#000000" font-family="sans-serif" font-size="14" lengthAdjust="spacing" textLength="90" x="263" y="294.4997">Update(): void</text><ellipse cx="254" cy="308.1937" fill="#84BE84" rx="3" ry="3" style="stroke:#038048;stroke-width:1.0;"/><text fill="#000000" font-family="sans-serif" font-size="14" lengthAdjust="spacing" textLength="134" x="263" y="311.2996">Draw(Graphics): void</text></g></a><!--class vv.States.State--><a href="State.html" target="_top" title="State.html" xlink:actuate="onRequest" xlink:href="State.html" xlink:show="new" xlink:title="State.html" xlink:type="simple"><g id="elem_vv.States.State"><rect codeLine="17" fill="#F1F1F1" height="85.7998" id="vv.States.State" rx="2.5" ry="2.5" style="stroke:#181818;stroke-width:0.5;" width="160" x="252" y="41.294"/><ellipse cx="311.25" cy="57.294" fill="#B4A7E5" rx="11" ry="11" style="stroke:#181818;stroke-width:1.0;"/><path d="M312.2656,54.4502 L313.9219,54.4502 C314.3125,54.4502 314.5156,54.419 314.6719,54.3409 C314.9375,54.169 315.1094,53.8721 315.1094,53.5752 C315.1094,53.294 314.9688,53.044 314.7344,52.8721 C314.5469,52.7471 314.3906,52.7002 313.9219,52.7002 L308.7813,52.7002 C308.3438,52.7002 308.2031,52.7159 308.0313,52.8252 C307.7656,52.9971 307.5938,53.2784 307.5938,53.5752 C307.5938,53.8565 307.7344,54.1377 307.9688,54.294 C308.1563,54.419 308.3438,54.4502 308.7813,54.4502 L310.4375,54.4502 L310.4375,60.544 L308.7813,60.544 C308.3438,60.544 308.2031,60.5596 308.0313,60.669 C307.7656,60.8252 307.5938,61.1221 307.5938,61.4034 C307.5938,62.0127 308,62.294 308.7813,62.294 L313.9219,62.294 C314.7031,62.294 315.1094,62.0127 315.1094,61.4034 C315.1094,61.1377 314.9688,60.8877 314.7344,60.7159 C314.5469,60.5752 314.375,60.544 313.9219,60.544 L312.2656,60.544 L312.2656,54.4502 Z " fill="#000000"/><text fill="#000000" font-family="sans-serif" font-size="14" font-style="italic" lengthAdjust="spacing" textLength="33" x="331.75" y="63.244">State</text><line style="stroke:#181818;stroke-width:0.5;" x1="253" x2="411" y1="73.294" y2="73.294"/><line style="stroke:#181818;stroke-width:0.5;" x1="253" x2="411" y1="81.294" y2="81.294"/><ellipse cx="263" cy="96.2439" fill="#84BE84" rx="3" ry="3" style="stroke:#038048;stroke-width:1.0;"/><text fill="#000000" font-family="sans-serif" font-size="14" font-style="italic" lengthAdjust="spacing" textLength="90" x="272" y="100.6939">Update(): void</text><ellipse cx="263" cy="115.1439" fill="#84BE84" rx="3" ry="3" style="stroke:#038048;stroke-width:1.0;"/><text fill="#000000" font-family="sans-serif" font-size="14" font-style="italic" lengthAdjust="spacing" textLength="134" x="272" y="119.5938">Draw(Graphics): void</text></g></a><!--class vv.States.MemoriesState--><a href="MemoriesState.html" target="_top" title="MemoriesState.html" xlink:actuate="onRequest" xlink:href="MemoriesState.html" xlink:show="new" xlink:title="MemoriesState.html" xlink:type="simple"><g id="elem_vv.States.MemoriesState"><rect codeLine="22" fill="#F1F1F1" height="115.1997" id="vv.States.MemoriesState" rx="2.5" ry="2.5" style="stroke:#181818;stroke-width:0.5;" width="214" x="456" y="195.494"/><ellipse cx="510.75" cy="211.494" fill="#ADD1B2" rx="11" ry="11" style="stroke:#181818;stroke-width:1.0;"/><path d="M505.75,212.6502 C505.75,215.1502 507.8906,216.9627 510.8125,216.9627 C512.0469,216.9627 513.2188,216.6659 513.9688,216.1502 C514.5781,215.7284 514.9063,215.3065 514.9063,214.9002 C514.9063,214.4315 514.4844,214.0252 513.9844,214.0252 C513.75,214.0252 513.5313,214.1034 513.3281,214.3065 C512.8906,214.744 512.8906,214.744 512.7188,214.8377 C512.2656,215.0721 511.625,215.2127 510.8594,215.2127 C508.8594,215.2127 507.5781,214.1971 507.5781,212.619 L507.5781,211.5721 C507.5781,209.869 508.7969,208.6659 510.5,208.6659 C511.0781,208.6659 511.6563,208.8065 512.125,209.0565 C512.5938,209.3221 512.7656,209.5096 512.8281,209.869 C512.9531,210.5409 513.2031,210.7909 513.7344,210.7909 C514.0156,210.7909 514.2969,210.6502 514.4844,210.4315 C514.6094,210.2596 514.6563,210.0877 514.6563,209.6502 L514.6563,208.2909 C514.6563,207.869 514.6406,207.7284 514.5156,207.5565 C514.3438,207.3065 514.0625,207.1502 513.7344,207.1502 C513.4219,207.1502 513.2188,207.2596 513,207.5252 C511.8281,207.0252 511.3906,206.9159 510.4375,206.9159 C507.7656,206.9159 505.75,208.9315 505.75,211.5565 L505.75,212.6502 Z " fill="#000000"/><text fill="#000000" font-family="sans-serif" font-size="14" lengthAdjust="spacing" textLength="96" x="531.25" y="216.1">MemoriesState</text><line style="stroke:#181818;stroke-width:0.5;" x1="457" x2="669" y1="227.494" y2="227.494"/><line style="stroke:#181818;stroke-width:0.5;" x1="457" x2="669" y1="235.494" y2="235.494"/><ellipse cx="467" cy="249.3939" fill="#84BE84" rx="3" ry="3" style="stroke:#038048;stroke-width:1.0;"/><text fill="#000000" font-family="sans-serif" font-size="14" lengthAdjust="spacing" textLength="108" x="476" y="252.4999">gotoMenu(): void</text><ellipse cx="467" cy="266.1939" fill="#84BE84" rx="3" ry="3" style="stroke:#038048;stroke-width:1.0;"/><text fill="#000000" font-family="sans-serif" font-size="14" lengthAdjust="spacing" text-decoration="underline" textLength="188" x="476" y="269.2999">getInstance(): MemoriesState</text><ellipse cx="467" cy="282.9938" fill="#84BE84" rx="3" ry="3" style="stroke:#038048;stroke-width:1.0;"/><text fill="#000000" font-family="sans-serif" font-size="14" lengthAdjust="spacing" textLength="90" x="476" y="286.0998">Update(): void</text><ellipse cx="467" cy="299.7937" fill="#84BE84" rx="3" ry="3" style="stroke:#038048;stroke-width:1.0;"/><text fill="#000000" font-family="sans-serif" font-size="14" lengthAdjust="spacing" textLength="134" x="476" y="302.8997">Draw(Graphics): void</text></g></a><!--reverse link vv.States.State to vv.States.MenuState--><g id="link_vv.States.State_vv.States.MenuState"><path codeLine="29" d="M260.46,140.214 C233.84,160.694 203.85,183.754 178.05,203.604 " fill="none" id="vv.States.State-backto-vv.States.MenuState" style="stroke:#181818;stroke-width:1.0;stroke-dasharray:7.0,7.0;"/><polygon fill="none" points="255.84,134.174,275.96,127.524,264.38,145.264,255.84,134.174" style="stroke:#181818;stroke-width:1.0;"/></g><!--reverse link vv.States.State to vv.States.PlayState--><g id="link_vv.States.State_vv.States.PlayState"><path codeLine="30" d="M332,148.234 C332,160.774 332,173.974 332,186.594 " fill="none" id="vv.States.State-backto-vv.States.PlayState" style="stroke:#181818;stroke-width:1.0;stroke-dasharray:7.0,7.0;"/><polygon fill="none" points="325,148.314,332,128.314,339,148.314,325,148.314" style="stroke:#181818;stroke-width:1.0;"/></g><!--reverse link vv.States.State to vv.States.MemoriesState--><g id="link_vv.States.State_vv.States.MemoriesState"><path codeLine="31" d="M407.46,139.714 C431.97,157.424 459.22,177.114 483.97,194.994 " fill="none" id="vv.States.State-backto-vv.States.MemoriesState" style="stroke:#181818;stroke-width:1.0;stroke-dasharray:7.0,7.0;"/><polygon fill="none" points="403.7,144.914,391.59,127.524,411.9,133.564,403.7,144.914" style="stroke:#181818;stroke-width:1.0;"/></g><text fill="#888888" font-family="sans-serif" font-size="10" lengthAdjust="spacing" textLength="179" x="250" y="350.384">UMLDoclet 2.1.0, PlantUML 1.2022.14</text><!--SRC=[hL9DQyCm3BttL-WoICamtOvbny8sMA0mUYezUAxQ618hs5h6wFBVPszj6cTfeQC- -4DwbfwU101WP8ckaWgXhiKhIqO7kz48zaiLqZd8qBp_-62vREyYvx9OhJmQEcldl4-h1j8jyhFnBwCm6K-FCI9ukgZMtXO0DUbrx9jP-P4yMbdbMha-ekcJd1Voyq2olG-JJ7EqD8KdlyVsBJ45eeDyJfRMPhj-QTemsarepw6qSzhBDyTMAcxE9k_2BfCumvAiHdUSXSxxXDJ_apIAV7rPVmju-19YO2uxph-TZNxsEUupA0nTWmrHE1RPounKWGptuavCRaDGmzuADpLQfyaausy0]--></g></svg>