<?xml version="1.0" encoding="UTF-8" standalone="no"?><svg xmlns="http://www.w3.org/2000/svg" xmlns:xlink="http://www.w3.org/1999/xlink" contentStyleType="text/css" height="319px" preserveAspectRatio="none" style="width:192px;height:319px;background:#FFFFFF;" version="1.1" viewBox="0 0 192 319" width="192px" zoomAndPan="magnify"><defs/><g><!--class vv.States.PlayState--><a href="PlayState.html" target="_top" title="PlayState.html" xlink:actuate="onRequest" xlink:href="PlayState.html" xlink:show="new" xlink:title="PlayState.html" xlink:type="simple"><g id="elem_vv.States.PlayState"><rect codeLine="5" fill="#F1F1F1" height="138.7995" id="vv.States.PlayState" rx="2.5" ry="2.5" style="stroke:#181818;stroke-width:0.5;" width="178" x="7.5" y="155.2"/><ellipse cx="62.25" cy="174.6" fill="#ADD1B2" rx="11" ry="11" style="stroke:#181818;stroke-width:1.0;"/><path d="M57.25,175.7562 C57.25,178.2562 59.3906,180.0687 62.3125,180.0687 C63.5469,180.0687 64.7188,179.7718 65.4688,179.2562 C66.0781,178.8343 66.4063,178.4125 66.4063,178.0062 C66.4063,177.5375 65.9844,177.1312 65.4844,177.1312 C65.25,177.1312 65.0313,177.2093 64.8281,177.4125 C64.3906,177.85 64.3906,177.85 64.2188,177.9437 C63.7656,178.1781 63.125,178.3187 62.3594,178.3187 C60.3594,178.3187 59.0781,177.3031 59.0781,175.725 L59.0781,174.6781 C59.0781,172.975 60.2969,171.7718 62,171.7718 C62.5781,171.7718 63.1563,171.9125 63.625,172.1625 C64.0938,172.4281 64.2656,172.6156 64.3281,172.975 C64.4531,173.6468 64.7031,173.8968 65.2344,173.8968 C65.5156,173.8968 65.7969,173.7562 65.9844,173.5375 C66.1094,173.3656 66.1563,173.1937 66.1563,172.7562 L66.1563,171.3968 C66.1563,170.975 66.1406,170.8343 66.0156,170.6625 C65.8438,170.4125 65.5625,170.2562 65.2344,170.2562 C64.9219,170.2562 64.7188,170.3656 64.5,170.6312 C63.3281,170.1312 62.8906,170.0218 61.9375,170.0218 C59.2656,170.0218 57.25,172.0375 57.25,174.6625 L57.25,175.7562 Z " fill="#000000"/><text fill="#000000" font-family="sans-serif" font-size="14" lengthAdjust="spacing" textLength="60" x="82.75" y="173.2059">PlayState</text><text fill="#000000" font-family="sans-serif" font-size="10" lengthAdjust="spacing" textLength="43" x="91.25" y="186.2899">vv.States</text><line style="stroke:#181818;stroke-width:0.5;" x1="8.5" x2="184.5" y1="193.9999" y2="193.9999"/><ellipse cx="18.5" cy="207.8999" fill="none" rx="3" ry="3" style="stroke:#038048;stroke-width:1.0;"/><text fill="#000000" font-family="sans-serif" font-size="14" lengthAdjust="spacing" textLength="68" x="27.5" y="211.0059">hero: Hero</text><line style="stroke:#181818;stroke-width:0.5;" x1="8.5" x2="184.5" y1="218.7998" y2="218.7998"/><ellipse cx="18.5" cy="232.6998" fill="#84BE84" rx="3" ry="3" style="stroke:#038048;stroke-width:1.0;"/><text fill="#000000" font-family="sans-serif" font-size="14" lengthAdjust="spacing" textLength="108" x="27.5" y="235.8058">gotoMenu(): void</text><ellipse cx="18.5" cy="249.4997" fill="#84BE84" rx="3" ry="3" style="stroke:#038048;stroke-width:1.0;"/><text fill="#000000" font-family="sans-serif" font-size="14" lengthAdjust="spacing" text-decoration="underline" textLength="152" x="27.5" y="252.6057">getInstance(): PlayState</text><ellipse cx="18.5" cy="266.2997" fill="#84BE84" rx="3" ry="3" style="stroke:#038048;stroke-width:1.0;"/><text fill="#000000" font-family="sans-serif" font-size="14" lengthAdjust="spacing" textLength="90" x="27.5" y="269.4056">Update(): void</text><ellipse cx="18.5" cy="283.0996" fill="#84BE84" rx="3" ry="3" style="stroke:#038048;stroke-width:1.0;"/><text fill="#000000" font-family="sans-serif" font-size="14" lengthAdjust="spacing" textLength="134" x="27.5" y="286.2056">Draw(Graphics): void</text></g></a><!--class vv.States.State--><a href="State.html" target="_top" title="State.html" xlink:actuate="onRequest" xlink:href="State.html" xlink:show="new" xlink:title="State.html" xlink:type="simple"><g id="elem_vv.States.State"><rect codeLine="13" fill="#F1F1F1" height="88.1997" id="vv.States.State" rx="2.5" ry="2.5" style="stroke:#181818;stroke-width:0.5;" width="160" x="16.5" y="7"/><ellipse cx="70.75" cy="28.2" fill="#B4A7E5" rx="11" ry="11" style="stroke:#181818;stroke-width:1.0;"/><path d="M71.7656,25.3562 L73.4219,25.3562 C73.8125,25.3562 74.0156,25.325 74.1719,25.2468 C74.4375,25.075 74.6094,24.7781 74.6094,24.4812 C74.6094,24.2 74.4688,23.95 74.2344,23.7781 C74.0469,23.6531 73.8906,23.6062 73.4219,23.6062 L68.2813,23.6062 C67.8438,23.6062 67.7031,23.6218 67.5313,23.7312 C67.2656,23.9031 67.0938,24.1843 67.0938,24.4812 C67.0938,24.7625 67.2344,25.0437 67.4688,25.2 C67.6563,25.325 67.8438,25.3562 68.2813,25.3562 L69.9375,25.3562 L69.9375,31.45 L68.2813,31.45 C67.8438,31.45 67.7031,31.4656 67.5313,31.575 C67.2656,31.7312 67.0938,32.0281 67.0938,32.3093 C67.0938,32.9187 67.5,33.2 68.2813,33.2 L73.4219,33.2 C74.2031,33.2 74.6094,32.9187 74.6094,32.3093 C74.6094,32.0437 74.4688,31.7937 74.2344,31.6218 C74.0469,31.4812 73.875,31.45 73.4219,31.45 L71.7656,31.45 L71.7656,25.3562 Z " fill="#000000"/><text fill="#000000" font-family="sans-serif" font-size="14" font-style="italic" lengthAdjust="spacing" textLength="33" x="96.25" y="27.3999">State</text><text fill="#000000" font-family="sans-serif" font-size="10" font-style="italic" lengthAdjust="spacing" textLength="43" x="91.25" y="41.8999">vv.States</text><line style="stroke:#181818;stroke-width:0.5;" x1="17.5" x2="175.5" y1="49.3999" y2="49.3999"/><ellipse cx="27.5" cy="64.3499" fill="#84BE84" rx="3" ry="3" style="stroke:#038048;stroke-width:1.0;"/><text fill="#000000" font-family="sans-serif" font-size="14" font-style="italic" lengthAdjust="spacing" textLength="90" x="36.5" y="68.7998">Update(): void</text><ellipse cx="27.5" cy="83.2498" fill="#84BE84" rx="3" ry="3" style="stroke:#038048;stroke-width:1.0;"/><text fill="#000000" font-family="sans-serif" font-size="14" font-style="italic" lengthAdjust="spacing" textLength="134" x="36.5" y="87.6998">Draw(Graphics): void</text></g></a><!--reverse link vv.States.State to vv.States.PlayState--><g id="link_vv.States.State_vv.States.PlayState"><path codeLine="18" d="M96.5,115.93 C96.5,128.67 96.5,142.09 96.5,154.97 " fill="none" id="vv.States.State-backto-vv.States.PlayState" style="stroke:#181818;stroke-width:1.0;stroke-dasharray:7.0,7.0;"/><polygon fill="none" points="89.5,116.38,96.5,96.38,103.5,116.38,89.5,116.38" style="stroke:#181818;stroke-width:1.0;"/></g><text fill="#888888" font-family="sans-serif" font-size="10" lengthAdjust="spacing" textLength="179" x="0" y="309.2895">UMLDoclet 2.1.0, PlantUML 1.2022.14</text><!--SRC=[ZL9HIyCm47xtLnm3eMCIDl6fZ3qDL70WZ3tDFPpfrGRQfEJEogpzxwPrTcKwD0z9xhkFx-wx1020IS1YGLoYfZMLw56S1-iiNOGqP2OXeAAKFQI6yeHFqO8aSm7kS9qZCupcRDufdjqi7dFShmM5dkm1cowgIdKGZm0P-aZrNDXk-xlAfCXtEwWx-NPDCl8kXhkm7x4N9sv5zZKQnr0va_IPceEAqKsWaDpR45bDBQklS1JPb4c8VqXCbXxVebkFPMOq3xFDbsbZXNmQnZSm_b_JtuRFcAtncSMZbkPiUqFANvsUrfr_AFNR2nmUarfZa3hN7flLmzBfF7oNQpLJqwjsWbO22fSLUJREHkDF]--></g></svg>