<?xml version="1.0" encoding="UTF-8" standalone="no"?><svg xmlns="http://www.w3.org/2000/svg" xmlns:xlink="http://www.w3.org/1999/xlink" contentStyleType="text/css" height="261px" preserveAspectRatio="none" style="width:187px;height:261px;background:#FFFFFF;" version="1.1" viewBox="0 0 187 261" width="187px" zoomAndPan="magnify"><defs/><g><!--class VV.States.PlayState--><a href="PlayState.html" target="_top" title="PlayState.html" xlink:actuate="onRequest" xlink:href="PlayState.html" xlink:show="new" xlink:title="PlayState.html" xlink:type="simple"><g id="elem_VV.States.PlayState"><rect codeLine="5" fill="#F1F1F1" height="80.3998" id="VV.States.PlayState" rx="2.5" ry="2.5" style="stroke:#181818;stroke-width:0.5;" width="160" x="16.5" y="155"/><ellipse cx="62.25" cy="174.4" fill="#ADD1B2" rx="11" ry="11" style="stroke:#181818;stroke-width:1.0;"/><path d="M57.25,175.5562 C57.25,178.0562 59.3906,179.8687 62.3125,179.8687 C63.5469,179.8687 64.7188,179.5718 65.4688,179.0562 C66.0781,178.6343 66.4063,178.2125 66.4063,177.8062 C66.4063,177.3375 65.9844,176.9312 65.4844,176.9312 C65.25,176.9312 65.0313,177.0093 64.8281,177.2125 C64.3906,177.65 64.3906,177.65 64.2188,177.7437 C63.7656,177.9781 63.125,178.1187 62.3594,178.1187 C60.3594,178.1187 59.0781,177.1031 59.0781,175.525 L59.0781,174.4781 C59.0781,172.775 60.2969,171.5718 62,171.5718 C62.5781,171.5718 63.1563,171.7125 63.625,171.9625 C64.0938,172.2281 64.2656,172.4156 64.3281,172.775 C64.4531,173.4468 64.7031,173.6968 65.2344,173.6968 C65.5156,173.6968 65.7969,173.5562 65.9844,173.3375 C66.1094,173.1656 66.1563,172.9937 66.1563,172.5562 L66.1563,171.1968 C66.1563,170.775 66.1406,170.6343 66.0156,170.4625 C65.8438,170.2125 65.5625,170.0562 65.2344,170.0562 C64.9219,170.0562 64.7188,170.1656 64.5,170.4312 C63.3281,169.9312 62.8906,169.8218 61.9375,169.8218 C59.2656,169.8218 57.25,171.8375 57.25,174.4625 L57.25,175.5562 Z " fill="#000000"/><text fill="#000000" font-family="sans-serif" font-size="14" lengthAdjust="spacing" textLength="60" x="82.75" y="173.0059">PlayState</text><text fill="#000000" font-family="sans-serif" font-size="10" lengthAdjust="spacing" textLength="47" x="89.25" y="186.0899">VV.States</text><line style="stroke:#181818;stroke-width:0.5;" x1="17.5" x2="175.5" y1="193.7999" y2="193.7999"/><ellipse cx="27.5" cy="207.6999" fill="#84BE84" rx="3" ry="3" style="stroke:#038048;stroke-width:1.0;"/><text fill="#000000" font-family="sans-serif" font-size="14" lengthAdjust="spacing" textLength="90" x="36.5" y="210.8059">Update(): void</text><ellipse cx="27.5" cy="224.4998" fill="#84BE84" rx="3" ry="3" style="stroke:#038048;stroke-width:1.0;"/><text fill="#000000" font-family="sans-serif" font-size="14" lengthAdjust="spacing" textLength="134" x="36.5" y="227.6058">Draw(Graphics): void</text></g></a><!--class VV.States.State--><a href="State.html" target="_top" title="State.html" xlink:actuate="onRequest" xlink:href="State.html" xlink:show="new" xlink:title="State.html" xlink:type="simple"><g id="elem_VV.States.State"><rect codeLine="10" fill="#F1F1F1" height="88.1997" id="VV.States.State" rx="2.5" ry="2.5" style="stroke:#181818;stroke-width:0.5;" width="160" x="16.5" y="7"/><ellipse cx="68.75" cy="28.2" fill="#A9DCDF" rx="11" ry="11" style="stroke:#181818;stroke-width:1.0;"/><path d="M70.2813,30.1375 L70.6094,30.9343 L70.3281,30.9343 C69.875,30.9343 69.75,30.9656 69.5781,31.075 C69.2969,31.2156 69.125,31.5125 69.125,31.8093 C69.125,32.1062 69.2656,32.3562 69.5,32.5281 C69.6719,32.6531 69.9063,32.7 70.3281,32.7 L72.6875,32.7 C73.0469,32.7 73.2969,32.6687 73.4375,32.575 C73.7031,32.4343 73.875,32.1218 73.875,31.8093 C73.875,31.5437 73.7344,31.2781 73.5,31.1062 C73.3125,30.9812 73.1563,30.95 72.7031,30.9343 L69.3125,23.1062 L65.5938,23.1062 C65.1406,23.1062 65,23.1218 64.8281,23.2312 C64.5625,23.4031 64.3906,23.6843 64.3906,23.9812 C64.3906,24.2625 64.5313,24.5281 64.7813,24.7 C64.9531,24.825 65.1406,24.8562 65.5938,24.8562 L66.5625,24.8562 L63.9844,30.9343 C63.2344,30.9343 62.8281,31.2312 62.8281,31.8093 C62.8281,32.4187 63.2188,32.7 64.0156,32.7 L66.2813,32.7 C66.6406,32.7 66.8906,32.6687 67.0313,32.575 C67.2969,32.4187 67.4688,32.1218 67.4688,31.8093 C67.4688,31.5437 67.3281,31.2781 67.0938,31.1062 C66.9063,30.9656 66.75,30.9343 66.2813,30.9343 L65.9844,30.9343 L66.3281,30.1375 L70.2813,30.1375 Z M69.5156,28.3875 L67.0625,28.3875 L68.2969,25.5125 L69.5156,28.3875 Z " fill="#000000"/><text fill="#000000" font-family="sans-serif" font-size="14" font-style="italic" lengthAdjust="spacing" textLength="33" x="96.25" y="27.3999">State</text><text fill="#000000" font-family="sans-serif" font-size="10" font-style="italic" lengthAdjust="spacing" textLength="47" x="89.25" y="41.8999">VV.States</text><line style="stroke:#181818;stroke-width:0.5;" x1="17.5" x2="175.5" y1="49.3999" y2="49.3999"/><ellipse cx="27.5" cy="64.3499" fill="#84BE84" rx="3" ry="3" style="stroke:#038048;stroke-width:1.0;"/><text fill="#000000" font-family="sans-serif" font-size="14" font-style="italic" lengthAdjust="spacing" textLength="90" x="36.5" y="68.7998">Update(): void</text><ellipse cx="27.5" cy="83.2498" fill="#84BE84" rx="3" ry="3" style="stroke:#038048;stroke-width:1.0;"/><text fill="#000000" font-family="sans-serif" font-size="14" font-style="italic" lengthAdjust="spacing" textLength="134" x="36.5" y="87.6998">Draw(Graphics): void</text></g></a><!--reverse link VV.States.State to VV.States.PlayState--><g id="link_VV.States.State_VV.States.PlayState"><path codeLine="15" d="M96.5,116.19 C96.5,129.34 96.5,142.8 96.5,154.75 " fill="none" id="VV.States.State-backto-VV.States.PlayState" style="stroke:#181818;stroke-width:1.0;"/><polygon fill="none" points="89.5,116.38,96.5,96.38,103.5,116.38,89.5,116.38" style="stroke:#181818;stroke-width:1.0;"/></g><text fill="#888888" font-family="sans-serif" font-size="10" lengthAdjust="spacing" textLength="179" x="0" y="250.6898">UMLDoclet 2.1.0, PlantUML 1.2022.14</text><!--SRC=[ZP5DQm8n48Rl_ef1AAnOWvQUH3m9lRHG4BrO3sDsbWraav0PBDRwtnktkXK_iBaaUTuXyp01060IS5WH1zGqfO0HnKTmtb4hnL2Qd82g81ie3DcSpsb5Klg4QwujCaDxnEQBXeFdyRl5pLHGwCCTM7yydwiQSHkGeRcffXOMY-QiIgdiSWdR-ldzwiv2deAiCuIrD_aVdqJyp5uYXj9eFartlswuOecevKBolu97kHjYssE3tKt7qv9xkkTzHz-zthLf7GPFJYX2uVr-cxszJhoswMkVr43r7o5LEqaK7jOKsNYNTNu0]--></g></svg>