<?xml version="1.0" encoding="UTF-8" standalone="no"?><svg xmlns="http://www.w3.org/2000/svg" xmlns:xlink="http://www.w3.org/1999/xlink" contentStyleType="text/css" height="777px" preserveAspectRatio="none" style="width:735px;height:777px;background:#FFFFFF;" version="1.1" viewBox="0 0 735 777" width="735px" zoomAndPan="magnify"><defs/><g><!--cluster vv.Maps--><g id="cluster_vv.Maps"><path d="M8.5,6.294 L66.5,6.294 A3.75,3.75 0 0 1 69,8.794 L76,29.0939 L725.5,29.0939 A2.5,2.5 0 0 1 728,31.5939 L728,748.594 A2.5,2.5 0 0 1 725.5,751.094 L8.5,751.094 A2.5,2.5 0 0 1 6,748.594 L6,8.794 A2.5,2.5 0 0 1 8.5,6.294 " fill="none" style="stroke:#000000;stroke-width:1.5;"/><line style="stroke:#000000;stroke-width:1.5;" x1="6" x2="76" y1="29.0939" y2="29.0939"/><text fill="#000000" font-family="sans-serif" font-size="14" font-weight="bold" lengthAdjust="spacing" textLength="57" x="10" y="21.2999">vv.Maps</text></g><!--class vv.Maps.Room--><a href="Room.html" target="_top" title="Room.html" xlink:actuate="onRequest" xlink:href="Room.html" xlink:show="new" xlink:title="Room.html" xlink:type="simple"><g id="elem_vv.Maps.Room"><rect codeLine="3" fill="#F1F1F1" height="451.1982" id="vv.Maps.Room" rx="2.5" ry="2.5" style="stroke:#181818;stroke-width:0.5;" width="304" x="178" y="41.294"/><ellipse cx="306.75" cy="57.294" fill="#ADD1B2" rx="11" ry="11" style="stroke:#181818;stroke-width:1.0;"/><path d="M301.75,58.4502 C301.75,60.9502 303.8906,62.7627 306.8125,62.7627 C308.0469,62.7627 309.2188,62.4659 309.9688,61.9502 C310.5781,61.5284 310.9063,61.1065 310.9063,60.7002 C310.9063,60.2315 310.4844,59.8252 309.9844,59.8252 C309.75,59.8252 309.5313,59.9034 309.3281,60.1065 C308.8906,60.544 308.8906,60.544 308.7188,60.6377 C308.2656,60.8721 307.625,61.0127 306.8594,61.0127 C304.8594,61.0127 303.5781,59.9971 303.5781,58.419 L303.5781,57.3721 C303.5781,55.669 304.7969,54.4659 306.5,54.4659 C307.0781,54.4659 307.6563,54.6065 308.125,54.8565 C308.5938,55.1221 308.7656,55.3096 308.8281,55.669 C308.9531,56.3409 309.2031,56.5909 309.7344,56.5909 C310.0156,56.5909 310.2969,56.4502 310.4844,56.2315 C310.6094,56.0596 310.6563,55.8877 310.6563,55.4502 L310.6563,54.0909 C310.6563,53.669 310.6406,53.5284 310.5156,53.3565 C310.3438,53.1065 310.0625,52.9502 309.7344,52.9502 C309.4219,52.9502 309.2188,53.0596 309,53.3252 C307.8281,52.8252 307.3906,52.7159 306.4375,52.7159 C303.7656,52.7159 301.75,54.7315 301.75,57.3565 L301.75,58.4502 Z " fill="#000000"/><text fill="#000000" font-family="sans-serif" font-size="14" lengthAdjust="spacing" textLength="38" x="327.25" y="61.9">Room</text><line style="stroke:#181818;stroke-width:0.5;" x1="179" x2="481" y1="73.294" y2="73.294"/><polygon fill="none" points="189,82.1939,193,86.1939,189,90.1939,185,86.1939" style="stroke:#B38D22;stroke-width:1.0;"/><text fill="#000000" font-family="sans-serif" font-size="14" lengthAdjust="spacing" textLength="56" x="198" y="90.2999">width: int</text><polygon fill="none" points="189,98.9939,193,102.9939,189,106.9939,185,102.9939" style="stroke:#B38D22;stroke-width:1.0;"/><text fill="#000000" font-family="sans-serif" font-size="14" lengthAdjust="spacing" textLength="62" x="198" y="107.0999">height: int</text><ellipse cx="189" cy="120.7938" fill="none" rx="3" ry="3" style="stroke:#038048;stroke-width:1.0;"/><text fill="#000000" font-family="sans-serif" font-size="14" lengthAdjust="spacing" textLength="56" x="198" y="123.8998">tiles: int[]</text><polygon fill="none" points="189,132.5937,193,136.5937,189,140.5937,185,136.5937" style="stroke:#B38D22;stroke-width:1.0;"/><text fill="#000000" font-family="sans-serif" font-size="14" lengthAdjust="spacing" textLength="91" x="198" y="140.6997">rand: Random</text><ellipse cx="189" cy="154.3937" fill="none" rx="3" ry="3" style="stroke:#038048;stroke-width:1.0;"/><text fill="#000000" font-family="sans-serif" font-size="14" lengthAdjust="spacing" textLength="63" x="198" y="157.4996">pos: Point</text><ellipse cx="189" cy="171.1936" fill="none" rx="3" ry="3" style="stroke:#038048;stroke-width:1.0;"/><text fill="#000000" font-family="sans-serif" font-size="14" lengthAdjust="spacing" textLength="63" x="198" y="174.2996">theme: int</text><ellipse cx="189" cy="187.9935" fill="none" rx="3" ry="3" style="stroke:#038048;stroke-width:1.0;"/><text fill="#000000" font-family="sans-serif" font-size="14" lengthAdjust="spacing" textLength="278" x="198" y="191.0995">enemies: ConcurrentLinkedQueue&lt;Enemy&gt;</text><ellipse cx="189" cy="204.7934" fill="none" rx="3" ry="3" style="stroke:#038048;stroke-width:1.0;"/><text fill="#000000" font-family="sans-serif" font-size="14" lengthAdjust="spacing" textLength="119" x="198" y="207.8994">isCleared: boolean</text><line style="stroke:#181818;stroke-width:0.5;" x1="179" x2="481" y1="215.6934" y2="215.6934"/><ellipse cx="189" cy="229.5934" fill="#84BE84" rx="3" ry="3" style="stroke:#038048;stroke-width:1.0;"/><text fill="#000000" font-family="sans-serif" font-size="14" lengthAdjust="spacing" textLength="121" x="198" y="232.6993">Room(Floor, Point)</text><ellipse cx="189" cy="246.3933" fill="#84BE84" rx="3" ry="3" style="stroke:#038048;stroke-width:1.0;"/><text fill="#000000" font-family="sans-serif" font-size="14" lengthAdjust="spacing" textLength="82" x="198" y="249.4993">type(): String</text><polygon fill="#FFFF44" points="189,258.1932,193,262.1932,189,266.1932,185,262.1932" style="stroke:#B38D22;stroke-width:1.0;"/><text fill="#000000" font-family="sans-serif" font-size="14" lengthAdjust="spacing" textLength="104" x="198" y="266.2992">doorTop(): Point</text><polygon fill="#FFFF44" points="189,274.9931,193,278.9931,189,282.9931,185,278.9931" style="stroke:#B38D22;stroke-width:1.0;"/><text fill="#000000" font-family="sans-serif" font-size="14" lengthAdjust="spacing" textLength="124" x="198" y="283.0991">doorBottom(): Point</text><polygon fill="#FFFF44" points="189,291.7931,193,295.7931,189,299.7931,185,295.7931" style="stroke:#B38D22;stroke-width:1.0;"/><text fill="#000000" font-family="sans-serif" font-size="14" lengthAdjust="spacing" textLength="103" x="198" y="299.899">doorLeft(): Point</text><polygon fill="#FFFF44" points="189,308.593,193,312.593,189,316.593,185,312.593" style="stroke:#B38D22;stroke-width:1.0;"/><text fill="#000000" font-family="sans-serif" font-size="14" lengthAdjust="spacing" textLength="112" x="198" y="316.699">doorRight(): Point</text><polygon fill="#FFFF44" points="189,325.3929,193,329.3929,189,333.3929,185,329.3929" style="stroke:#B38D22;stroke-width:1.0;"/><text fill="#000000" font-family="sans-serif" font-size="14" lengthAdjust="spacing" textLength="156" x="198" y="333.4989">generateEnemies(): void</text><ellipse cx="189" cy="347.1928" fill="#84BE84" rx="3" ry="3" style="stroke:#038048;stroke-width:1.0;"/><text fill="#000000" font-family="sans-serif" font-size="14" lengthAdjust="spacing" textLength="113" x="198" y="350.2988">clearRoom(): void</text><polygon fill="#FFFF44" points="189,358.9928,193,362.9928,189,366.9928,185,362.9928" style="stroke:#B38D22;stroke-width:1.0;"/><text fill="#000000" font-family="sans-serif" font-size="14" lengthAdjust="spacing" textLength="126" x="198" y="367.0988">generateBed(): void</text><polygon fill="#FFFF44" points="189,375.7927,193,379.7927,189,383.7927,185,379.7927" style="stroke:#B38D22;stroke-width:1.0;"/><text fill="#000000" font-family="sans-serif" font-size="14" lengthAdjust="spacing" textLength="131" x="198" y="383.8987">generateTiles(): void</text><polygon fill="#FFFF44" points="189,392.5926,193,396.5926,189,400.5926,185,396.5926" style="stroke:#B38D22;stroke-width:1.0;"/><text fill="#000000" font-family="sans-serif" font-size="14" lengthAdjust="spacing" textLength="139" x="198" y="400.6986">generateDoors(): void</text><ellipse cx="189" cy="414.3926" fill="#84BE84" rx="3" ry="3" style="stroke:#038048;stroke-width:1.0;"/><text fill="#000000" font-family="sans-serif" font-size="14" lengthAdjust="spacing" textLength="125" x="198" y="417.4985">GetTile(int, int): Tile</text><ellipse cx="189" cy="431.1925" fill="#84BE84" rx="3" ry="3" style="stroke:#038048;stroke-width:1.0;"/><text fill="#000000" font-family="sans-serif" font-size="14" lengthAdjust="spacing" textLength="147" x="198" y="434.2985">setTile(int, int, int): void</text><ellipse cx="189" cy="447.9924" fill="#84BE84" rx="3" ry="3" style="stroke:#038048;stroke-width:1.0;"/><text fill="#000000" font-family="sans-serif" font-size="14" lengthAdjust="spacing" textLength="167" x="198" y="451.0984">getTileUnsafe(int, int): Tile</text><ellipse cx="189" cy="464.7923" fill="#84BE84" rx="3" ry="3" style="stroke:#038048;stroke-width:1.0;"/><text fill="#000000" font-family="sans-serif" font-size="14" lengthAdjust="spacing" textLength="122" x="198" y="467.8983">getTile(int, int): Tile</text><ellipse cx="189" cy="481.5923" fill="#84BE84" rx="3" ry="3" style="stroke:#038048;stroke-width:1.0;"/><text fill="#000000" font-family="sans-serif" font-size="14" lengthAdjust="spacing" textLength="136" x="198" y="484.6982">useDoor(int, int): void</text></g></a><!--class vv.Maps.Floor--><a href="Floor.html" target="_top" title="Floor.html" xlink:actuate="onRequest" xlink:href="Floor.html" xlink:show="new" xlink:title="Floor.html" xlink:type="simple"><g id="elem_vv.Maps.Floor"><rect codeLine="30" fill="#F1F1F1" height="115.1997" id="vv.Maps.Floor" rx="2.5" ry="2.5" style="stroke:#181818;stroke-width:0.5;" width="256" x="456" y="594.694"/><ellipse cx="563.25" cy="610.694" fill="#ADD1B2" rx="11" ry="11" style="stroke:#181818;stroke-width:1.0;"/><path d="M558.25,611.8502 C558.25,614.3502 560.3906,616.1627 563.3125,616.1627 C564.5469,616.1627 565.7188,615.8659 566.4688,615.3502 C567.0781,614.9284 567.4063,614.5065 567.4063,614.1002 C567.4063,613.6315 566.9844,613.2252 566.4844,613.2252 C566.25,613.2252 566.0313,613.3034 565.8281,613.5065 C565.3906,613.944 565.3906,613.944 565.2188,614.0377 C564.7656,614.2721 564.125,614.4127 563.3594,614.4127 C561.3594,614.4127 560.0781,613.3971 560.0781,611.819 L560.0781,610.7721 C560.0781,609.069 561.2969,607.8659 563,607.8659 C563.5781,607.8659 564.1563,608.0065 564.625,608.2565 C565.0938,608.5221 565.2656,608.7096 565.3281,609.069 C565.4531,609.7409 565.7031,609.9909 566.2344,609.9909 C566.5156,609.9909 566.7969,609.8502 566.9844,609.6315 C567.1094,609.4596 567.1563,609.2877 567.1563,608.8502 L567.1563,607.4909 C567.1563,607.069 567.1406,606.9284 567.0156,606.7565 C566.8438,606.5065 566.5625,606.3502 566.2344,606.3502 C565.9219,606.3502 565.7188,606.4596 565.5,606.7252 C564.3281,606.2252 563.8906,606.1159 562.9375,606.1159 C560.2656,606.1159 558.25,608.1315 558.25,610.7565 L558.25,611.8502 Z " fill="#000000"/><text fill="#000000" font-family="sans-serif" font-size="14" lengthAdjust="spacing" textLength="33" x="583.75" y="615.3">Floor</text><line style="stroke:#181818;stroke-width:0.5;" x1="457" x2="711" y1="626.694" y2="626.694"/><line style="stroke:#181818;stroke-width:0.5;" x1="457" x2="711" y1="634.694" y2="634.694"/><ellipse cx="467" cy="648.5939" fill="#84BE84" rx="3" ry="3" style="stroke:#038048;stroke-width:1.0;"/><text fill="#000000" font-family="sans-serif" font-size="14" lengthAdjust="spacing" textLength="105" x="476" y="651.6999">printFloor(): void</text><ellipse cx="467" cy="665.3939" fill="#84BE84" rx="3" ry="3" style="stroke:#038048;stroke-width:1.0;"/><text fill="#000000" font-family="sans-serif" font-size="14" lengthAdjust="spacing" textLength="230" x="476" y="668.4999">roomHasNeighbors(int, int): boolean</text><ellipse cx="467" cy="682.1938" fill="#84BE84" rx="3" ry="3" style="stroke:#038048;stroke-width:1.0;"/><text fill="#000000" font-family="sans-serif" font-size="14" lengthAdjust="spacing" textLength="139" x="476" y="685.2998">setRoom(int, int): void</text><ellipse cx="467" cy="698.9937" fill="#84BE84" rx="3" ry="3" style="stroke:#038048;stroke-width:1.0;"/><text fill="#000000" font-family="sans-serif" font-size="14" lengthAdjust="spacing" textLength="177" x="476" y="702.0997">roomExists(int, int): boolean</text></g></a><!--class vv.Maps.WideRoom--><a href="WideRoom.html" target="_top" title="WideRoom.html" xlink:actuate="onRequest" xlink:href="WideRoom.html" xlink:show="new" xlink:title="WideRoom.html" xlink:type="simple"><g id="elem_vv.Maps.WideRoom"><rect codeLine="37" fill="#F1F1F1" height="165.5995" id="vv.Maps.WideRoom" rx="2.5" ry="2.5" style="stroke:#181818;stroke-width:0.5;" width="182" x="22" y="569.494"/><ellipse cx="73.75" cy="585.494" fill="#ADD1B2" rx="11" ry="11" style="stroke:#181818;stroke-width:1.0;"/><path d="M68.75,586.6502 C68.75,589.1502 70.8906,590.9627 73.8125,590.9627 C75.0469,590.9627 76.2188,590.6659 76.9688,590.1502 C77.5781,589.7284 77.9063,589.3065 77.9063,588.9002 C77.9063,588.4315 77.4844,588.0252 76.9844,588.0252 C76.75,588.0252 76.5313,588.1034 76.3281,588.3065 C75.8906,588.744 75.8906,588.744 75.7188,588.8377 C75.2656,589.0721 74.625,589.2127 73.8594,589.2127 C71.8594,589.2127 70.5781,588.1971 70.5781,586.619 L70.5781,585.5721 C70.5781,583.869 71.7969,582.6659 73.5,582.6659 C74.0781,582.6659 74.6563,582.8065 75.125,583.0565 C75.5938,583.3221 75.7656,583.5096 75.8281,583.869 C75.9531,584.5409 76.2031,584.7909 76.7344,584.7909 C77.0156,584.7909 77.2969,584.6502 77.4844,584.4315 C77.6094,584.2596 77.6563,584.0877 77.6563,583.6502 L77.6563,582.2909 C77.6563,581.869 77.6406,581.7284 77.5156,581.5565 C77.3438,581.3065 77.0625,581.1502 76.7344,581.1502 C76.4219,581.1502 76.2188,581.2596 76,581.5252 C74.8281,581.0252 74.3906,580.9159 73.4375,580.9159 C70.7656,580.9159 68.75,582.9315 68.75,585.5565 L68.75,586.6502 Z " fill="#000000"/><text fill="#000000" font-family="sans-serif" font-size="14" lengthAdjust="spacing" textLength="70" x="94.25" y="590.1">WideRoom</text><line style="stroke:#181818;stroke-width:0.5;" x1="23" x2="203" y1="601.494" y2="601.494"/><line style="stroke:#181818;stroke-width:0.5;" x1="23" x2="203" y1="609.494" y2="609.494"/><ellipse cx="33" cy="623.3939" fill="#84BE84" rx="3" ry="3" style="stroke:#038048;stroke-width:1.0;"/><text fill="#000000" font-family="sans-serif" font-size="14" lengthAdjust="spacing" textLength="153" x="42" y="626.4999">WideRoom(Floor, Point)</text><ellipse cx="33" cy="640.1939" fill="#84BE84" rx="3" ry="3" style="stroke:#038048;stroke-width:1.0;"/><text fill="#000000" font-family="sans-serif" font-size="14" lengthAdjust="spacing" textLength="82" x="42" y="643.2999">type(): String</text><polygon fill="#FFFF44" points="33,651.9938,37,655.9938,33,659.9938,29,655.9938" style="stroke:#B38D22;stroke-width:1.0;"/><text fill="#000000" font-family="sans-serif" font-size="14" lengthAdjust="spacing" textLength="104" x="42" y="660.0998">doorTop(): Point</text><polygon fill="#FFFF44" points="33,668.7937,37,672.7937,33,676.7937,29,672.7937" style="stroke:#B38D22;stroke-width:1.0;"/><text fill="#000000" font-family="sans-serif" font-size="14" lengthAdjust="spacing" textLength="124" x="42" y="676.8997">doorBottom(): Point</text><polygon fill="#FFFF44" points="33,685.5937,37,689.5937,33,693.5937,29,689.5937" style="stroke:#B38D22;stroke-width:1.0;"/><text fill="#000000" font-family="sans-serif" font-size="14" lengthAdjust="spacing" textLength="156" x="42" y="693.6996">generateEnemies(): void</text><polygon fill="#FFFF44" points="33,702.3936,37,706.3936,33,710.3936,29,706.3936" style="stroke:#B38D22;stroke-width:1.0;"/><text fill="#000000" font-family="sans-serif" font-size="14" lengthAdjust="spacing" textLength="126" x="42" y="710.4996">generateBed(): void</text><polygon fill="#FFFF44" points="33,719.1935,37,723.1935,33,727.1935,29,723.1935" style="stroke:#B38D22;stroke-width:1.0;"/><text fill="#000000" font-family="sans-serif" font-size="14" lengthAdjust="spacing" textLength="131" x="42" y="727.2995">generateTiles(): void</text></g></a><!--class vv.Maps.Map--><a href="Map.html" target="_top" title="Map.html" xlink:actuate="onRequest" xlink:href="Map.html" xlink:show="new" xlink:title="Map.html" xlink:type="simple"><g id="elem_vv.Maps.Map"><rect codeLine="47" fill="#F1F1F1" height="98.3998" id="vv.Maps.Map" rx="2.5" ry="2.5" style="stroke:#181818;stroke-width:0.5;" width="160" x="517" y="217.694"/><ellipse cx="578.75" cy="233.694" fill="#ADD1B2" rx="11" ry="11" style="stroke:#181818;stroke-width:1.0;"/><path d="M573.75,234.8502 C573.75,237.3502 575.8906,239.1627 578.8125,239.1627 C580.0469,239.1627 581.2188,238.8659 581.9688,238.3502 C582.5781,237.9284 582.9063,237.5065 582.9063,237.1002 C582.9063,236.6315 582.4844,236.2252 581.9844,236.2252 C581.75,236.2252 581.5313,236.3034 581.3281,236.5065 C580.8906,236.944 580.8906,236.944 580.7188,237.0377 C580.2656,237.2721 579.625,237.4127 578.8594,237.4127 C576.8594,237.4127 575.5781,236.3971 575.5781,234.819 L575.5781,233.7721 C575.5781,232.069 576.7969,230.8659 578.5,230.8659 C579.0781,230.8659 579.6563,231.0065 580.125,231.2565 C580.5938,231.5221 580.7656,231.7096 580.8281,232.069 C580.9531,232.7409 581.2031,232.9909 581.7344,232.9909 C582.0156,232.9909 582.2969,232.8502 582.4844,232.6315 C582.6094,232.4596 582.6563,232.2877 582.6563,231.8502 L582.6563,230.4909 C582.6563,230.069 582.6406,229.9284 582.5156,229.7565 C582.3438,229.5065 582.0625,229.3502 581.7344,229.3502 C581.4219,229.3502 581.2188,229.4596 581,229.7252 C579.8281,229.2252 579.3906,229.1159 578.4375,229.1159 C575.7656,229.1159 573.75,231.1315 573.75,233.7565 L573.75,234.8502 Z " fill="#000000"/><text fill="#000000" font-family="sans-serif" font-size="14" lengthAdjust="spacing" textLength="28" x="599.25" y="238.3">Map</text><line style="stroke:#181818;stroke-width:0.5;" x1="518" x2="676" y1="249.694" y2="249.694"/><line style="stroke:#181818;stroke-width:0.5;" x1="518" x2="676" y1="257.694" y2="257.694"/><ellipse cx="528" cy="271.5939" fill="#84BE84" rx="3" ry="3" style="stroke:#038048;stroke-width:1.0;"/><text fill="#000000" font-family="sans-serif" font-size="14" lengthAdjust="spacing" text-decoration="underline" textLength="120" x="537" y="274.6999">getInstance(): Map</text><ellipse cx="528" cy="288.3939" fill="#84BE84" rx="3" ry="3" style="stroke:#038048;stroke-width:1.0;"/><text fill="#000000" font-family="sans-serif" font-size="14" lengthAdjust="spacing" textLength="90" x="537" y="291.4999">Update(): void</text><ellipse cx="528" cy="305.1938" fill="#84BE84" rx="3" ry="3" style="stroke:#038048;stroke-width:1.0;"/><text fill="#000000" font-family="sans-serif" font-size="14" lengthAdjust="spacing" textLength="134" x="537" y="308.2998">Draw(Graphics): void</text></g></a><!--class vv.Maps.TallRoom--><a href="TallRoom.html" target="_top" title="TallRoom.html" xlink:actuate="onRequest" xlink:href="TallRoom.html" xlink:show="new" xlink:title="TallRoom.html" xlink:type="simple"><g id="elem_vv.Maps.TallRoom"><rect codeLine="53" fill="#F1F1F1" height="165.5995" id="vv.Maps.TallRoom" rx="2.5" ry="2.5" style="stroke:#181818;stroke-width:0.5;" width="182" x="239" y="569.494"/><ellipse cx="295.25" cy="585.494" fill="#ADD1B2" rx="11" ry="11" style="stroke:#181818;stroke-width:1.0;"/><path d="M290.25,586.6502 C290.25,589.1502 292.3906,590.9627 295.3125,590.9627 C296.5469,590.9627 297.7188,590.6659 298.4688,590.1502 C299.0781,589.7284 299.4063,589.3065 299.4063,588.9002 C299.4063,588.4315 298.9844,588.0252 298.4844,588.0252 C298.25,588.0252 298.0313,588.1034 297.8281,588.3065 C297.3906,588.744 297.3906,588.744 297.2188,588.8377 C296.7656,589.0721 296.125,589.2127 295.3594,589.2127 C293.3594,589.2127 292.0781,588.1971 292.0781,586.619 L292.0781,585.5721 C292.0781,583.869 293.2969,582.6659 295,582.6659 C295.5781,582.6659 296.1563,582.8065 296.625,583.0565 C297.0938,583.3221 297.2656,583.5096 297.3281,583.869 C297.4531,584.5409 297.7031,584.7909 298.2344,584.7909 C298.5156,584.7909 298.7969,584.6502 298.9844,584.4315 C299.1094,584.2596 299.1563,584.0877 299.1563,583.6502 L299.1563,582.2909 C299.1563,581.869 299.1406,581.7284 299.0156,581.5565 C298.8438,581.3065 298.5625,581.1502 298.2344,581.1502 C297.9219,581.1502 297.7188,581.2596 297.5,581.5252 C296.3281,581.0252 295.8906,580.9159 294.9375,580.9159 C292.2656,580.9159 290.25,582.9315 290.25,585.5565 L290.25,586.6502 Z " fill="#000000"/><text fill="#000000" font-family="sans-serif" font-size="14" lengthAdjust="spacing" textLength="61" x="315.75" y="590.1">TallRoom</text><line style="stroke:#181818;stroke-width:0.5;" x1="240" x2="420" y1="601.494" y2="601.494"/><line style="stroke:#181818;stroke-width:0.5;" x1="240" x2="420" y1="609.494" y2="609.494"/><ellipse cx="250" cy="623.3939" fill="#84BE84" rx="3" ry="3" style="stroke:#038048;stroke-width:1.0;"/><text fill="#000000" font-family="sans-serif" font-size="14" lengthAdjust="spacing" textLength="144" x="259" y="626.4999">TallRoom(Floor, Point)</text><ellipse cx="250" cy="640.1939" fill="#84BE84" rx="3" ry="3" style="stroke:#038048;stroke-width:1.0;"/><text fill="#000000" font-family="sans-serif" font-size="14" lengthAdjust="spacing" textLength="82" x="259" y="643.2999">type(): String</text><polygon fill="#FFFF44" points="250,651.9938,254,655.9938,250,659.9938,246,655.9938" style="stroke:#B38D22;stroke-width:1.0;"/><text fill="#000000" font-family="sans-serif" font-size="14" lengthAdjust="spacing" textLength="103" x="259" y="660.0998">doorLeft(): Point</text><polygon fill="#FFFF44" points="250,668.7937,254,672.7937,250,676.7937,246,672.7937" style="stroke:#B38D22;stroke-width:1.0;"/><text fill="#000000" font-family="sans-serif" font-size="14" lengthAdjust="spacing" textLength="112" x="259" y="676.8997">doorRight(): Point</text><polygon fill="#FFFF44" points="250,685.5937,254,689.5937,250,693.5937,246,689.5937" style="stroke:#B38D22;stroke-width:1.0;"/><text fill="#000000" font-family="sans-serif" font-size="14" lengthAdjust="spacing" textLength="156" x="259" y="693.6996">generateEnemies(): void</text><polygon fill="#FFFF44" points="250,702.3936,254,706.3936,250,710.3936,246,706.3936" style="stroke:#B38D22;stroke-width:1.0;"/><text fill="#000000" font-family="sans-serif" font-size="14" lengthAdjust="spacing" textLength="126" x="259" y="710.4996">generateBed(): void</text><polygon fill="#FFFF44" points="250,719.1935,254,723.1935,250,727.1935,246,723.1935" style="stroke:#B38D22;stroke-width:1.0;"/><text fill="#000000" font-family="sans-serif" font-size="14" lengthAdjust="spacing" textLength="131" x="259" y="727.2995">generateTiles(): void</text></g></a><!--link vv.Maps.Room to vv.Maps.Floor--><g id="link_vv.Maps.Room_vv.Maps.Floor"><path codeLine="63" d="M386.4,492.714 C394.68,509.254 404.16,525.084 415,539.494 C429.68,559.014 448.83,576.174 468.95,590.814 " fill="none" id="vv.Maps.Room-to-vv.Maps.Floor" style="stroke:#181818;stroke-width:1.0;"/><polygon fill="#181818" points="472.8,594.284,467.8239,585.7846,468.7391,591.367,463.1567,592.2821,472.8,594.284" style="stroke:#181818;stroke-width:1.0;"/><text fill="#000000" font-family="sans-serif" font-size="13" lengthAdjust="spacing" textLength="45" x="416" y="535.571">floorRef</text></g><!--link vv.Maps.Floor to vv.Maps.Room--><g id="link_vv.Maps.Floor_vv.Maps.Room"><path codeLine="64" d="M546.19,594.214 C528.41,567.394 505.94,533.464 482.24,497.694 " fill="none" id="vv.Maps.Floor-to-vv.Maps.Room" style="stroke:#181818;stroke-width:1.0;"/><polygon fill="#181818" points="479.04,493.864,480.6656,503.5778,481.797,498.0352,487.3396,499.1666,479.04,493.864" style="stroke:#181818;stroke-width:1.0;"/><text fill="#000000" font-family="sans-serif" font-size="13" lengthAdjust="spacing" textLength="29" x="509" y="535.571">room</text></g><!--reverse link vv.Maps.Room to vv.Maps.WideRoom--><g id="link_vv.Maps.Room_vv.Maps.WideRoom"><path codeLine="65" d="M192.34,511.114 C180.71,531.654 169.57,551.344 159.5,569.144 " fill="none" id="vv.Maps.Room-backto-vv.Maps.WideRoom" style="stroke:#181818;stroke-width:1.0;"/><polygon fill="none" points="186.73,507.814,202.67,493.864,198.91,514.714,186.73,507.814" style="stroke:#181818;stroke-width:1.0;"/></g><!--link vv.Maps.Map to vv.Maps.Floor--><g id="link_vv.Maps.Map_vv.Maps.Floor"><path codeLine="66" d="M595.35,316.454 C593.01,385.584 588.71,512.404 586.13,588.564 " fill="none" id="vv.Maps.Map-to-vv.Maps.Floor" style="stroke:#181818;stroke-width:1.0;"/><polygon fill="#181818" points="585.93,593.414,590.236,584.5563,586.1013,588.4169,582.2407,584.2822,585.93,593.414" style="stroke:#181818;stroke-width:1.0;"/><text fill="#000000" font-family="sans-serif" font-size="13" lengthAdjust="spacing" textLength="25" x="589" y="535.571">floor</text></g><!--reverse link vv.Maps.Room to vv.Maps.TallRoom--><g id="link_vv.Maps.Room_vv.Maps.TallRoom"><path codeLine="67" d="M330,513.594 C330,533.244 330,552.064 330,569.144 " fill="none" id="vv.Maps.Room-backto-vv.Maps.TallRoom" style="stroke:#181818;stroke-width:1.0;"/><polygon fill="none" points="323,513.864,330,493.864,337,513.864,323,513.864" style="stroke:#181818;stroke-width:1.0;"/></g><text fill="#888888" font-family="sans-serif" font-size="10" lengthAdjust="spacing" textLength="179" x="271" y="766.384">UMLDoclet 2.1.0, PlantUML 1.2022.14</text><!--SRC=[nLNTQzim47_FNo4O0uSsOTkZANreaxQ3T6nPmXv27bJxR8lQaf6KTANh_xuxEGvH_D52D-e7IzRzxkjtTp9ZZ4bUW2bv16ox7T_oqh2dmO3jdYZdnh2vKWLRhMWPPxR8rsl4i8FdmuE8RHOo8Qr_de58CziKd5YHWt7dgxMlehcCGpR7jofydLAXndVLj9L10Iq-G48XoCkbaj56Qv1s9kGzn3ysi86pAOeVptqLOIvpu1emWZkbS2jzEL4GNELAwTCgak5HA8yb1CEG_RHQoDHFB4QjXIf9t4p2II-KjMY_6p23nFQ8vqHsXpn5DZItCAr88THMYTWFFwBaNOvjuhsD2uZx0GkgRZzaWl5sH74DbWm4cCCfLHL1zEs3p16eHZRDfHLoAGrFNZ2QliRpnhZWWowdpyVZu_e5vyUjxGDqKcA_M0TevqHZKMwu-KRpT4VC7NXlxLJannMobngoElqjZEsrrqZebuXXToVKsuwqQl4xpSnhclwjNTrW1-zG90RVxPmy6SkjY9vTjtsL-2KZbpzg-CGionYzjlV3HFE7u5hpCXEHUJ6a1S_pNS7gRKV1Ql5R2lQVRwb_M337oMXqNereo19Qvf3i0TNe4eAW8QE1yRNF_en6-u7OYwW7ZksswDLi3mxYYl0t1PebIj6ol9rD55xBbdqPVnv_meBaN5eyPH-te8rGCXZ-1G00]--></g></svg>