<?xml version="1.0" encoding="UTF-8" standalone="no"?><svg xmlns="http://www.w3.org/2000/svg" xmlns:xlink="http://www.w3.org/1999/xlink" contentStyleType="text/css" height="760px" preserveAspectRatio="none" style="width:735px;height:760px;background:#FFFFFF;" version="1.1" viewBox="0 0 735 760" width="735px" zoomAndPan="magnify"><defs/><g><!--cluster vv.Maps--><g id="cluster_vv.Maps"><path d="M8.5,6.294 L66.5,6.294 A3.75,3.75 0 0 1 69,8.794 L76,29.0939 L725.5,29.0939 A2.5,2.5 0 0 1 728,31.5939 L728,731.794 A2.5,2.5 0 0 1 725.5,734.294 L8.5,734.294 A2.5,2.5 0 0 1 6,731.794 L6,8.794 A2.5,2.5 0 0 1 8.5,6.294 " fill="none" style="stroke:#000000;stroke-width:1.5;"/><line style="stroke:#000000;stroke-width:1.5;" x1="6" x2="76" y1="29.0939" y2="29.0939"/><text fill="#000000" font-family="sans-serif" font-size="14" font-weight="bold" lengthAdjust="spacing" textLength="57" x="10" y="21.2999">vv.Maps</text></g><!--class vv.Maps.TallRoom--><a href="TallRoom.html" target="_top" title="TallRoom.html" xlink:actuate="onRequest" xlink:href="TallRoom.html" xlink:show="new" xlink:title="TallRoom.html" xlink:type="simple"><g id="elem_vv.Maps.TallRoom"><rect codeLine="3" fill="#F1F1F1" height="165.5995" id="vv.Maps.TallRoom" rx="2.5" ry="2.5" style="stroke:#181818;stroke-width:0.5;" width="182" x="22" y="552.694"/><ellipse cx="78.25" cy="568.694" fill="#ADD1B2" rx="11" ry="11" style="stroke:#181818;stroke-width:1.0;"/><path d="M73.25,569.8502 C73.25,572.3502 75.3906,574.1627 78.3125,574.1627 C79.5469,574.1627 80.7188,573.8659 81.4688,573.3502 C82.0781,572.9284 82.4063,572.5065 82.4063,572.1002 C82.4063,571.6315 81.9844,571.2252 81.4844,571.2252 C81.25,571.2252 81.0313,571.3034 80.8281,571.5065 C80.3906,571.944 80.3906,571.944 80.2188,572.0377 C79.7656,572.2721 79.125,572.4127 78.3594,572.4127 C76.3594,572.4127 75.0781,571.3971 75.0781,569.819 L75.0781,568.7721 C75.0781,567.069 76.2969,565.8659 78,565.8659 C78.5781,565.8659 79.1563,566.0065 79.625,566.2565 C80.0938,566.5221 80.2656,566.7096 80.3281,567.069 C80.4531,567.7409 80.7031,567.9909 81.2344,567.9909 C81.5156,567.9909 81.7969,567.8502 81.9844,567.6315 C82.1094,567.4596 82.1563,567.2877 82.1563,566.8502 L82.1563,565.4909 C82.1563,565.069 82.1406,564.9284 82.0156,564.7565 C81.8438,564.5065 81.5625,564.3502 81.2344,564.3502 C80.9219,564.3502 80.7188,564.4596 80.5,564.7252 C79.3281,564.2252 78.8906,564.1159 77.9375,564.1159 C75.2656,564.1159 73.25,566.1315 73.25,568.7565 L73.25,569.8502 Z " fill="#000000"/><text fill="#000000" font-family="sans-serif" font-size="14" lengthAdjust="spacing" textLength="61" x="98.75" y="573.3">TallRoom</text><line style="stroke:#181818;stroke-width:0.5;" x1="23" x2="203" y1="584.694" y2="584.694"/><line style="stroke:#181818;stroke-width:0.5;" x1="23" x2="203" y1="592.694" y2="592.694"/><ellipse cx="33" cy="606.5939" fill="#84BE84" rx="3" ry="3" style="stroke:#038048;stroke-width:1.0;"/><text fill="#000000" font-family="sans-serif" font-size="14" lengthAdjust="spacing" textLength="144" x="42" y="609.6999">TallRoom(Floor, Point)</text><ellipse cx="33" cy="623.3939" fill="#84BE84" rx="3" ry="3" style="stroke:#038048;stroke-width:1.0;"/><text fill="#000000" font-family="sans-serif" font-size="14" lengthAdjust="spacing" textLength="82" x="42" y="626.4999">type(): String</text><polygon fill="#FFFF44" points="33,635.1938,37,639.1938,33,643.1938,29,639.1938" style="stroke:#B38D22;stroke-width:1.0;"/><text fill="#000000" font-family="sans-serif" font-size="14" lengthAdjust="spacing" textLength="103" x="42" y="643.2998">doorLeft(): Point</text><polygon fill="#FFFF44" points="33,651.9937,37,655.9937,33,659.9937,29,655.9937" style="stroke:#B38D22;stroke-width:1.0;"/><text fill="#000000" font-family="sans-serif" font-size="14" lengthAdjust="spacing" textLength="112" x="42" y="660.0997">doorRight(): Point</text><polygon fill="#FFFF44" points="33,668.7937,37,672.7937,33,676.7937,29,672.7937" style="stroke:#B38D22;stroke-width:1.0;"/><text fill="#000000" font-family="sans-serif" font-size="14" lengthAdjust="spacing" textLength="156" x="42" y="676.8996">generateEnemies(): void</text><polygon fill="#FFFF44" points="33,685.5936,37,689.5936,33,693.5936,29,689.5936" style="stroke:#B38D22;stroke-width:1.0;"/><text fill="#000000" font-family="sans-serif" font-size="14" lengthAdjust="spacing" textLength="126" x="42" y="693.6996">generateBed(): void</text><polygon fill="#FFFF44" points="33,702.3935,37,706.3935,33,710.3935,29,706.3935" style="stroke:#B38D22;stroke-width:1.0;"/><text fill="#000000" font-family="sans-serif" font-size="14" lengthAdjust="spacing" textLength="131" x="42" y="710.4995">generateTiles(): void</text></g></a><!--class vv.Maps.Map--><a href="Map.html" target="_top" title="Map.html" xlink:actuate="onRequest" xlink:href="Map.html" xlink:show="new" xlink:title="Map.html" xlink:type="simple"><g id="elem_vv.Maps.Map"><rect codeLine="13" fill="#F1F1F1" height="98.3998" id="vv.Maps.Map" rx="2.5" ry="2.5" style="stroke:#181818;stroke-width:0.5;" width="160" x="504" y="209.294"/><ellipse cx="565.75" cy="225.294" fill="#ADD1B2" rx="11" ry="11" style="stroke:#181818;stroke-width:1.0;"/><path d="M560.75,226.4502 C560.75,228.9502 562.8906,230.7627 565.8125,230.7627 C567.0469,230.7627 568.2188,230.4659 568.9688,229.9502 C569.5781,229.5284 569.9063,229.1065 569.9063,228.7002 C569.9063,228.2315 569.4844,227.8252 568.9844,227.8252 C568.75,227.8252 568.5313,227.9034 568.3281,228.1065 C567.8906,228.544 567.8906,228.544 567.7188,228.6377 C567.2656,228.8721 566.625,229.0127 565.8594,229.0127 C563.8594,229.0127 562.5781,227.9971 562.5781,226.419 L562.5781,225.3721 C562.5781,223.669 563.7969,222.4659 565.5,222.4659 C566.0781,222.4659 566.6563,222.6065 567.125,222.8565 C567.5938,223.1221 567.7656,223.3096 567.8281,223.669 C567.9531,224.3409 568.2031,224.5909 568.7344,224.5909 C569.0156,224.5909 569.2969,224.4502 569.4844,224.2315 C569.6094,224.0596 569.6563,223.8877 569.6563,223.4502 L569.6563,222.0909 C569.6563,221.669 569.6406,221.5284 569.5156,221.3565 C569.3438,221.1065 569.0625,220.9502 568.7344,220.9502 C568.4219,220.9502 568.2188,221.0596 568,221.3252 C566.8281,220.8252 566.3906,220.7159 565.4375,220.7159 C562.7656,220.7159 560.75,222.7315 560.75,225.3565 L560.75,226.4502 Z " fill="#000000"/><text fill="#000000" font-family="sans-serif" font-size="14" lengthAdjust="spacing" textLength="28" x="586.25" y="229.9">Map</text><line style="stroke:#181818;stroke-width:0.5;" x1="505" x2="663" y1="241.294" y2="241.294"/><line style="stroke:#181818;stroke-width:0.5;" x1="505" x2="663" y1="249.294" y2="249.294"/><ellipse cx="515" cy="263.1939" fill="#84BE84" rx="3" ry="3" style="stroke:#038048;stroke-width:1.0;"/><text fill="#000000" font-family="sans-serif" font-size="14" lengthAdjust="spacing" text-decoration="underline" textLength="120" x="524" y="266.2999">getInstance(): Map</text><ellipse cx="515" cy="279.9939" fill="#84BE84" rx="3" ry="3" style="stroke:#038048;stroke-width:1.0;"/><text fill="#000000" font-family="sans-serif" font-size="14" lengthAdjust="spacing" textLength="90" x="524" y="283.0999">Update(): void</text><ellipse cx="515" cy="296.7938" fill="#84BE84" rx="3" ry="3" style="stroke:#038048;stroke-width:1.0;"/><text fill="#000000" font-family="sans-serif" font-size="14" lengthAdjust="spacing" textLength="134" x="524" y="299.8998">Draw(Graphics): void</text></g></a><!--class vv.Maps.Room--><a href="Room.html" target="_top" title="Room.html" xlink:actuate="onRequest" xlink:href="Room.html" xlink:show="new" xlink:title="Room.html" xlink:type="simple"><g id="elem_vv.Maps.Room"><rect codeLine="19" fill="#F1F1F1" height="434.3983" id="vv.Maps.Room" rx="2.5" ry="2.5" style="stroke:#181818;stroke-width:0.5;" width="219" x="241.5" y="41.294"/><ellipse cx="327.75" cy="57.294" fill="#ADD1B2" rx="11" ry="11" style="stroke:#181818;stroke-width:1.0;"/><path d="M322.75,58.4502 C322.75,60.9502 324.8906,62.7627 327.8125,62.7627 C329.0469,62.7627 330.2188,62.4659 330.9688,61.9502 C331.5781,61.5284 331.9063,61.1065 331.9063,60.7002 C331.9063,60.2315 331.4844,59.8252 330.9844,59.8252 C330.75,59.8252 330.5313,59.9034 330.3281,60.1065 C329.8906,60.544 329.8906,60.544 329.7188,60.6377 C329.2656,60.8721 328.625,61.0127 327.8594,61.0127 C325.8594,61.0127 324.5781,59.9971 324.5781,58.419 L324.5781,57.3721 C324.5781,55.669 325.7969,54.4659 327.5,54.4659 C328.0781,54.4659 328.6563,54.6065 329.125,54.8565 C329.5938,55.1221 329.7656,55.3096 329.8281,55.669 C329.9531,56.3409 330.2031,56.5909 330.7344,56.5909 C331.0156,56.5909 331.2969,56.4502 331.4844,56.2315 C331.6094,56.0596 331.6563,55.8877 331.6563,55.4502 L331.6563,54.0909 C331.6563,53.669 331.6406,53.5284 331.5156,53.3565 C331.3438,53.1065 331.0625,52.9502 330.7344,52.9502 C330.4219,52.9502 330.2188,53.0596 330,53.3252 C328.8281,52.8252 328.3906,52.7159 327.4375,52.7159 C324.7656,52.7159 322.75,54.7315 322.75,57.3565 L322.75,58.4502 Z " fill="#000000"/><text fill="#000000" font-family="sans-serif" font-size="14" lengthAdjust="spacing" textLength="38" x="348.25" y="61.9">Room</text><line style="stroke:#181818;stroke-width:0.5;" x1="242.5" x2="459.5" y1="73.294" y2="73.294"/><polygon fill="none" points="252.5,82.1939,256.5,86.1939,252.5,90.1939,248.5,86.1939" style="stroke:#B38D22;stroke-width:1.0;"/><text fill="#000000" font-family="sans-serif" font-size="14" lengthAdjust="spacing" textLength="56" x="261.5" y="90.2999">width: int</text><polygon fill="none" points="252.5,98.9939,256.5,102.9939,252.5,106.9939,248.5,102.9939" style="stroke:#B38D22;stroke-width:1.0;"/><text fill="#000000" font-family="sans-serif" font-size="14" lengthAdjust="spacing" textLength="62" x="261.5" y="107.0999">height: int</text><ellipse cx="252.5" cy="120.7938" fill="none" rx="3" ry="3" style="stroke:#038048;stroke-width:1.0;"/><text fill="#000000" font-family="sans-serif" font-size="14" lengthAdjust="spacing" textLength="56" x="261.5" y="123.8998">tiles: int[]</text><polygon fill="none" points="252.5,132.5937,256.5,136.5937,252.5,140.5937,248.5,136.5937" style="stroke:#B38D22;stroke-width:1.0;"/><text fill="#000000" font-family="sans-serif" font-size="14" lengthAdjust="spacing" textLength="91" x="261.5" y="140.6997">rand: Random</text><ellipse cx="252.5" cy="154.3937" fill="none" rx="3" ry="3" style="stroke:#038048;stroke-width:1.0;"/><text fill="#000000" font-family="sans-serif" font-size="14" lengthAdjust="spacing" textLength="63" x="261.5" y="157.4996">pos: Point</text><ellipse cx="252.5" cy="171.1936" fill="none" rx="3" ry="3" style="stroke:#038048;stroke-width:1.0;"/><text fill="#000000" font-family="sans-serif" font-size="14" lengthAdjust="spacing" textLength="63" x="261.5" y="174.2996">theme: int</text><ellipse cx="252.5" cy="187.9935" fill="none" rx="3" ry="3" style="stroke:#038048;stroke-width:1.0;"/><text fill="#000000" font-family="sans-serif" font-size="14" lengthAdjust="spacing" textLength="114" x="261.5" y="191.0995">enemies: Enemy[]</text><line style="stroke:#181818;stroke-width:0.5;" x1="242.5" x2="459.5" y1="198.8935" y2="198.8935"/><ellipse cx="252.5" cy="212.7934" fill="#84BE84" rx="3" ry="3" style="stroke:#038048;stroke-width:1.0;"/><text fill="#000000" font-family="sans-serif" font-size="14" lengthAdjust="spacing" textLength="121" x="261.5" y="215.8994">Room(Floor, Point)</text><ellipse cx="252.5" cy="229.5934" fill="#84BE84" rx="3" ry="3" style="stroke:#038048;stroke-width:1.0;"/><text fill="#000000" font-family="sans-serif" font-size="14" lengthAdjust="spacing" textLength="82" x="261.5" y="232.6993">type(): String</text><polygon fill="#FFFF44" points="252.5,241.3933,256.5,245.3933,252.5,249.3933,248.5,245.3933" style="stroke:#B38D22;stroke-width:1.0;"/><text fill="#000000" font-family="sans-serif" font-size="14" lengthAdjust="spacing" textLength="104" x="261.5" y="249.4993">doorTop(): Point</text><polygon fill="#FFFF44" points="252.5,258.1932,256.5,262.1932,252.5,266.1932,248.5,262.1932" style="stroke:#B38D22;stroke-width:1.0;"/><text fill="#000000" font-family="sans-serif" font-size="14" lengthAdjust="spacing" textLength="124" x="261.5" y="266.2992">doorBottom(): Point</text><polygon fill="#FFFF44" points="252.5,274.9931,256.5,278.9931,252.5,282.9931,248.5,278.9931" style="stroke:#B38D22;stroke-width:1.0;"/><text fill="#000000" font-family="sans-serif" font-size="14" lengthAdjust="spacing" textLength="103" x="261.5" y="283.0991">doorLeft(): Point</text><polygon fill="#FFFF44" points="252.5,291.7931,256.5,295.7931,252.5,299.7931,248.5,295.7931" style="stroke:#B38D22;stroke-width:1.0;"/><text fill="#000000" font-family="sans-serif" font-size="14" lengthAdjust="spacing" textLength="112" x="261.5" y="299.899">doorRight(): Point</text><polygon fill="#FFFF44" points="252.5,308.593,256.5,312.593,252.5,316.593,248.5,312.593" style="stroke:#B38D22;stroke-width:1.0;"/><text fill="#000000" font-family="sans-serif" font-size="14" lengthAdjust="spacing" textLength="193" x="261.5" y="316.699">randomEnemy(int, int): Enemy</text><polygon fill="#FFFF44" points="252.5,325.3929,256.5,329.3929,252.5,333.3929,248.5,329.3929" style="stroke:#B38D22;stroke-width:1.0;"/><text fill="#000000" font-family="sans-serif" font-size="14" lengthAdjust="spacing" textLength="156" x="261.5" y="333.4989">generateEnemies(): void</text><polygon fill="#FFFF44" points="252.5,342.1928,256.5,346.1928,252.5,350.1928,248.5,346.1928" style="stroke:#B38D22;stroke-width:1.0;"/><text fill="#000000" font-family="sans-serif" font-size="14" lengthAdjust="spacing" textLength="126" x="261.5" y="350.2988">generateBed(): void</text><polygon fill="#FFFF44" points="252.5,358.9928,256.5,362.9928,252.5,366.9928,248.5,362.9928" style="stroke:#B38D22;stroke-width:1.0;"/><text fill="#000000" font-family="sans-serif" font-size="14" lengthAdjust="spacing" textLength="131" x="261.5" y="367.0988">generateTiles(): void</text><polygon fill="#FFFF44" points="252.5,375.7927,256.5,379.7927,252.5,383.7927,248.5,379.7927" style="stroke:#B38D22;stroke-width:1.0;"/><text fill="#000000" font-family="sans-serif" font-size="14" lengthAdjust="spacing" textLength="139" x="261.5" y="383.8987">generateDoors(): void</text><ellipse cx="252.5" cy="397.5926" fill="#84BE84" rx="3" ry="3" style="stroke:#038048;stroke-width:1.0;"/><text fill="#000000" font-family="sans-serif" font-size="14" lengthAdjust="spacing" textLength="125" x="261.5" y="400.6986">GetTile(int, int): Tile</text><ellipse cx="252.5" cy="414.3926" fill="#84BE84" rx="3" ry="3" style="stroke:#038048;stroke-width:1.0;"/><text fill="#000000" font-family="sans-serif" font-size="14" lengthAdjust="spacing" textLength="147" x="261.5" y="417.4985">setTile(int, int, int): void</text><ellipse cx="252.5" cy="431.1925" fill="#84BE84" rx="3" ry="3" style="stroke:#038048;stroke-width:1.0;"/><text fill="#000000" font-family="sans-serif" font-size="14" lengthAdjust="spacing" textLength="167" x="261.5" y="434.2985">getTileUnsafe(int, int): Tile</text><ellipse cx="252.5" cy="447.9924" fill="#84BE84" rx="3" ry="3" style="stroke:#038048;stroke-width:1.0;"/><text fill="#000000" font-family="sans-serif" font-size="14" lengthAdjust="spacing" textLength="122" x="261.5" y="451.0984">getTile(int, int): Tile</text><ellipse cx="252.5" cy="464.7923" fill="#84BE84" rx="3" ry="3" style="stroke:#038048;stroke-width:1.0;"/><text fill="#000000" font-family="sans-serif" font-size="14" lengthAdjust="spacing" textLength="136" x="261.5" y="467.8983">useDoor(int, int): void</text></g></a><!--class vv.Maps.WideRoom--><a href="WideRoom.html" target="_top" title="WideRoom.html" xlink:actuate="onRequest" xlink:href="WideRoom.html" xlink:show="new" xlink:title="WideRoom.html" xlink:type="simple"><g id="elem_vv.Maps.WideRoom"><rect codeLine="45" fill="#F1F1F1" height="165.5995" id="vv.Maps.WideRoom" rx="2.5" ry="2.5" style="stroke:#181818;stroke-width:0.5;" width="182" x="239" y="552.694"/><ellipse cx="290.75" cy="568.694" fill="#ADD1B2" rx="11" ry="11" style="stroke:#181818;stroke-width:1.0;"/><path d="M285.75,569.8502 C285.75,572.3502 287.8906,574.1627 290.8125,574.1627 C292.0469,574.1627 293.2188,573.8659 293.9688,573.3502 C294.5781,572.9284 294.9063,572.5065 294.9063,572.1002 C294.9063,571.6315 294.4844,571.2252 293.9844,571.2252 C293.75,571.2252 293.5313,571.3034 293.3281,571.5065 C292.8906,571.944 292.8906,571.944 292.7188,572.0377 C292.2656,572.2721 291.625,572.4127 290.8594,572.4127 C288.8594,572.4127 287.5781,571.3971 287.5781,569.819 L287.5781,568.7721 C287.5781,567.069 288.7969,565.8659 290.5,565.8659 C291.0781,565.8659 291.6563,566.0065 292.125,566.2565 C292.5938,566.5221 292.7656,566.7096 292.8281,567.069 C292.9531,567.7409 293.2031,567.9909 293.7344,567.9909 C294.0156,567.9909 294.2969,567.8502 294.4844,567.6315 C294.6094,567.4596 294.6563,567.2877 294.6563,566.8502 L294.6563,565.4909 C294.6563,565.069 294.6406,564.9284 294.5156,564.7565 C294.3438,564.5065 294.0625,564.3502 293.7344,564.3502 C293.4219,564.3502 293.2188,564.4596 293,564.7252 C291.8281,564.2252 291.3906,564.1159 290.4375,564.1159 C287.7656,564.1159 285.75,566.1315 285.75,568.7565 L285.75,569.8502 Z " fill="#000000"/><text fill="#000000" font-family="sans-serif" font-size="14" lengthAdjust="spacing" textLength="70" x="311.25" y="573.3">WideRoom</text><line style="stroke:#181818;stroke-width:0.5;" x1="240" x2="420" y1="584.694" y2="584.694"/><line style="stroke:#181818;stroke-width:0.5;" x1="240" x2="420" y1="592.694" y2="592.694"/><ellipse cx="250" cy="606.5939" fill="#84BE84" rx="3" ry="3" style="stroke:#038048;stroke-width:1.0;"/><text fill="#000000" font-family="sans-serif" font-size="14" lengthAdjust="spacing" textLength="153" x="259" y="609.6999">WideRoom(Floor, Point)</text><ellipse cx="250" cy="623.3939" fill="#84BE84" rx="3" ry="3" style="stroke:#038048;stroke-width:1.0;"/><text fill="#000000" font-family="sans-serif" font-size="14" lengthAdjust="spacing" textLength="82" x="259" y="626.4999">type(): String</text><polygon fill="#FFFF44" points="250,635.1938,254,639.1938,250,643.1938,246,639.1938" style="stroke:#B38D22;stroke-width:1.0;"/><text fill="#000000" font-family="sans-serif" font-size="14" lengthAdjust="spacing" textLength="104" x="259" y="643.2998">doorTop(): Point</text><polygon fill="#FFFF44" points="250,651.9937,254,655.9937,250,659.9937,246,655.9937" style="stroke:#B38D22;stroke-width:1.0;"/><text fill="#000000" font-family="sans-serif" font-size="14" lengthAdjust="spacing" textLength="124" x="259" y="660.0997">doorBottom(): Point</text><polygon fill="#FFFF44" points="250,668.7937,254,672.7937,250,676.7937,246,672.7937" style="stroke:#B38D22;stroke-width:1.0;"/><text fill="#000000" font-family="sans-serif" font-size="14" lengthAdjust="spacing" textLength="156" x="259" y="676.8996">generateEnemies(): void</text><polygon fill="#FFFF44" points="250,685.5936,254,689.5936,250,693.5936,246,689.5936" style="stroke:#B38D22;stroke-width:1.0;"/><text fill="#000000" font-family="sans-serif" font-size="14" lengthAdjust="spacing" textLength="126" x="259" y="693.6996">generateBed(): void</text><polygon fill="#FFFF44" points="250,702.3935,254,706.3935,250,710.3935,246,706.3935" style="stroke:#B38D22;stroke-width:1.0;"/><text fill="#000000" font-family="sans-serif" font-size="14" lengthAdjust="spacing" textLength="131" x="259" y="710.4995">generateTiles(): void</text></g></a><!--class vv.Maps.Floor--><a href="Floor.html" target="_top" title="Floor.html" xlink:actuate="onRequest" xlink:href="Floor.html" xlink:show="new" xlink:title="Floor.html" xlink:type="simple"><g id="elem_vv.Maps.Floor"><rect codeLine="55" fill="#F1F1F1" height="115.1997" id="vv.Maps.Floor" rx="2.5" ry="2.5" style="stroke:#181818;stroke-width:0.5;" width="256" x="456" y="577.894"/><ellipse cx="563.25" cy="593.894" fill="#ADD1B2" rx="11" ry="11" style="stroke:#181818;stroke-width:1.0;"/><path d="M558.25,595.0502 C558.25,597.5502 560.3906,599.3627 563.3125,599.3627 C564.5469,599.3627 565.7188,599.0659 566.4688,598.5502 C567.0781,598.1284 567.4063,597.7065 567.4063,597.3002 C567.4063,596.8315 566.9844,596.4252 566.4844,596.4252 C566.25,596.4252 566.0313,596.5034 565.8281,596.7065 C565.3906,597.144 565.3906,597.144 565.2188,597.2377 C564.7656,597.4721 564.125,597.6127 563.3594,597.6127 C561.3594,597.6127 560.0781,596.5971 560.0781,595.019 L560.0781,593.9721 C560.0781,592.269 561.2969,591.0659 563,591.0659 C563.5781,591.0659 564.1563,591.2065 564.625,591.4565 C565.0938,591.7221 565.2656,591.9096 565.3281,592.269 C565.4531,592.9409 565.7031,593.1909 566.2344,593.1909 C566.5156,593.1909 566.7969,593.0502 566.9844,592.8315 C567.1094,592.6596 567.1563,592.4877 567.1563,592.0502 L567.1563,590.6909 C567.1563,590.269 567.1406,590.1284 567.0156,589.9565 C566.8438,589.7065 566.5625,589.5502 566.2344,589.5502 C565.9219,589.5502 565.7188,589.6596 565.5,589.9252 C564.3281,589.4252 563.8906,589.3159 562.9375,589.3159 C560.2656,589.3159 558.25,591.3315 558.25,593.9565 L558.25,595.0502 Z " fill="#000000"/><text fill="#000000" font-family="sans-serif" font-size="14" lengthAdjust="spacing" textLength="33" x="583.75" y="598.5">Floor</text><line style="stroke:#181818;stroke-width:0.5;" x1="457" x2="711" y1="609.894" y2="609.894"/><line style="stroke:#181818;stroke-width:0.5;" x1="457" x2="711" y1="617.894" y2="617.894"/><ellipse cx="467" cy="631.7939" fill="#84BE84" rx="3" ry="3" style="stroke:#038048;stroke-width:1.0;"/><text fill="#000000" font-family="sans-serif" font-size="14" lengthAdjust="spacing" textLength="105" x="476" y="634.8999">printFloor(): void</text><ellipse cx="467" cy="648.5939" fill="#84BE84" rx="3" ry="3" style="stroke:#038048;stroke-width:1.0;"/><text fill="#000000" font-family="sans-serif" font-size="14" lengthAdjust="spacing" textLength="230" x="476" y="651.6999">roomHasNeighbors(int, int): boolean</text><ellipse cx="467" cy="665.3938" fill="#84BE84" rx="3" ry="3" style="stroke:#038048;stroke-width:1.0;"/><text fill="#000000" font-family="sans-serif" font-size="14" lengthAdjust="spacing" textLength="139" x="476" y="668.4998">setRoom(int, int): void</text><ellipse cx="467" cy="682.1937" fill="#84BE84" rx="3" ry="3" style="stroke:#038048;stroke-width:1.0;"/><text fill="#000000" font-family="sans-serif" font-size="14" lengthAdjust="spacing" textLength="177" x="476" y="685.2997">roomExists(int, int): boolean</text></g></a><!--reverse link vv.Maps.Room to vv.Maps.TallRoom--><g id="link_vv.Maps.Room_vv.Maps.TallRoom"><path codeLine="62" d="M229.89,450.324 C207.12,486.204 184.45,521.914 165.22,552.204 " fill="none" id="vv.Maps.Room-backto-vv.Maps.TallRoom" style="stroke:#181818;stroke-width:1.0;"/><polygon fill="none" points="224.43,446.864,241.06,433.724,236.25,454.364,224.43,446.864" style="stroke:#181818;stroke-width:1.0;"/></g><!--link vv.Maps.Map to vv.Maps.Floor--><g id="link_vv.Maps.Map_vv.Maps.Floor"><path codeLine="63" d="M584,308.134 C584,375.634 584,497.774 584,571.964 " fill="none" id="vv.Maps.Map-to-vv.Maps.Floor" style="stroke:#181818;stroke-width:1.0;"/><polygon fill="#181818" points="584,576.664,588,567.664,584,571.664,580,567.664,584,576.664" style="stroke:#181818;stroke-width:1.0;"/><text fill="#000000" font-family="sans-serif" font-size="13" lengthAdjust="spacing" textLength="25" x="585" y="518.771">floor</text></g><!--link vv.Maps.Room to vv.Maps.Floor--><g id="link_vv.Maps.Room_vv.Maps.Floor"><path codeLine="64" d="M383.68,475.964 C390.61,492.494 398.95,508.304 409,522.694 C418.89,536.864 445.92,556.104 475.86,574.624 " fill="none" id="vv.Maps.Room-to-vv.Maps.Floor" style="stroke:#181818;stroke-width:1.0;"/><polygon fill="#181818" points="479.69,577.584,474.1017,569.474,475.4254,574.9738,469.9255,576.2975,479.69,577.584" style="stroke:#181818;stroke-width:1.0;"/><text fill="#000000" font-family="sans-serif" font-size="13" lengthAdjust="spacing" textLength="45" x="410" y="518.771">floorRef</text></g><!--link vv.Maps.Floor to vv.Maps.Room--><g id="link_vv.Maps.Floor_vv.Maps.Room"><path codeLine="66" d="M548.55,577.434 C525.74,540.724 494.71,490.794 464.01,441.374 " fill="none" id="vv.Maps.Floor-to-vv.Maps.Room" style="stroke:#181818;stroke-width:1.0;"/><polygon fill="#181818" points="460.85,437.284,462.1895,447.0413,463.4833,441.5344,468.9902,442.8281,460.85,437.284" style="stroke:#181818;stroke-width:1.0;"/><text fill="#000000" font-family="sans-serif" font-size="13" lengthAdjust="spacing" textLength="29" x="509" y="518.771">room</text></g><!--reverse link vv.Maps.Room to vv.Maps.WideRoom--><g id="link_vv.Maps.Room_vv.Maps.WideRoom"><path codeLine="65" d="M337.71,496.774 C336.61,516.464 335.55,535.374 334.59,552.534 " fill="none" id="vv.Maps.Room-backto-vv.Maps.WideRoom" style="stroke:#181818;stroke-width:1.0;"/><polygon fill="none" points="330.77,496.584,338.88,477.004,344.75,497.364,330.77,496.584" style="stroke:#181818;stroke-width:1.0;"/></g><text fill="#888888" font-family="sans-serif" font-size="10" lengthAdjust="spacing" textLength="179" x="271" y="749.584">UMLDoclet 2.1.0, PlantUML 1.2022.14</text><!--SRC=[nLLDJ-Cm4BtpAqP2AwKAhM2FqOe3AiiYmMfLMd6eUZ399B7as94zb4N0Vr_RJQgcSGeIqf93dFYz-NepSG009AlGr2n5MAydjwmsy79q1CsL2cOCp9aGCwKgM2xRnqb9bLYjB1TshhY5evz2ANq2VnINDEfowBd6Q9J07MakYmvsd5ch6yp9uTws3yzuKGxX1KhKZF1IOiNHEDPQyInCki3iC67EHS37sxuwLZChZBs7DNann8YdRn0NIDVIlidKrsyjki8iwin63UOKJpLxYguqgqkUcdTJQfertAZZ9vvHcK1FmHATl7qW9YU6tr-kkYQQoIo1cRshgcjJAnDgKqmbLXY8WPks9U3wzxmN9_xiNCrLVM2iBXIHzJzC-CHOQg-DBogou8chVDHK-Vy7k4EPsjJ3bFWAoJdOpTYzTqbcZzGo- -wA3NCX3SlVSLfy9FAZySb7Gq5x7yKzpx3vCDh7WLEiXRzeshxa5FEbMcdyEg1BRKibJmXFZBQQ_MBcjpj37jnSxVJcGIc1JFQcn-jyS72Sryk_tD11Vpi5-IR_U1sFjp-kBUJEwl7uV5Dj0hbRkdRxw0ppWEDsGhRGHZvdxBOJq2tOv9MY9DIGA-MMnUtDLAK22RvFpYQdTi84asHtuTiQjU5AHgD_]--></g></svg>