<?xml version="1.0" encoding="UTF-8" standalone="no"?><svg xmlns="http://www.w3.org/2000/svg" xmlns:xlink="http://www.w3.org/1999/xlink" contentStyleType="text/css" height="575px" preserveAspectRatio="none" style="width:493px;height:575px;background:#FFFFFF;" version="1.1" viewBox="0 0 493 575" width="493px" zoomAndPan="magnify"><defs/><g><!--cluster VV.Maps--><g id="cluster_VV.Maps"><path d="M8.5,6.294 L68.5,6.294 A3.75,3.75 0 0 1 71,8.794 L78,29.0939 L483.5,29.0939 A2.5,2.5 0 0 1 486,31.5939 L486,546.794 A2.5,2.5 0 0 1 483.5,549.294 L8.5,549.294 A2.5,2.5 0 0 1 6,546.794 L6,8.794 A2.5,2.5 0 0 1 8.5,6.294 " fill="none" style="stroke:#000000;stroke-width:1.5;"/><line style="stroke:#000000;stroke-width:1.5;" x1="6" x2="78" y1="29.0939" y2="29.0939"/><text fill="#000000" font-family="sans-serif" font-size="14" font-weight="bold" lengthAdjust="spacing" textLength="59" x="10" y="21.2999">VV.Maps</text></g><!--class VV.Maps.Room--><a href="Room.html" target="_top" title="Room.html" xlink:actuate="onRequest" xlink:href="Room.html" xlink:show="new" xlink:title="Room.html" xlink:type="simple"><g id="elem_VV.Maps.Room"><rect codeLine="3" fill="#F1F1F1" height="232.7992" id="VV.Maps.Room" rx="2.5" ry="2.5" style="stroke:#181818;stroke-width:0.5;" width="173" x="296.5" y="41.294"/><ellipse cx="359.75" cy="57.294" fill="#ADD1B2" rx="11" ry="11" style="stroke:#181818;stroke-width:1.0;"/><path d="M354.75,58.4502 C354.75,60.9502 356.8906,62.7627 359.8125,62.7627 C361.0469,62.7627 362.2188,62.4659 362.9688,61.9502 C363.5781,61.5284 363.9063,61.1065 363.9063,60.7002 C363.9063,60.2315 363.4844,59.8252 362.9844,59.8252 C362.75,59.8252 362.5313,59.9034 362.3281,60.1065 C361.8906,60.544 361.8906,60.544 361.7188,60.6377 C361.2656,60.8721 360.625,61.0127 359.8594,61.0127 C357.8594,61.0127 356.5781,59.9971 356.5781,58.419 L356.5781,57.3721 C356.5781,55.669 357.7969,54.4659 359.5,54.4659 C360.0781,54.4659 360.6563,54.6065 361.125,54.8565 C361.5938,55.1221 361.7656,55.3096 361.8281,55.669 C361.9531,56.3409 362.2031,56.5909 362.7344,56.5909 C363.0156,56.5909 363.2969,56.4502 363.4844,56.2315 C363.6094,56.0596 363.6563,55.8877 363.6563,55.4502 L363.6563,54.0909 C363.6563,53.669 363.6406,53.5284 363.5156,53.3565 C363.3438,53.1065 363.0625,52.9502 362.7344,52.9502 C362.4219,52.9502 362.2188,53.0596 362,53.3252 C360.8281,52.8252 360.3906,52.7159 359.4375,52.7159 C356.7656,52.7159 354.75,54.7315 354.75,57.3565 L354.75,58.4502 Z " fill="#000000"/><text fill="#000000" font-family="sans-serif" font-size="14" lengthAdjust="spacing" textLength="38" x="380.25" y="61.9">Room</text><line style="stroke:#181818;stroke-width:0.5;" x1="297.5" x2="468.5" y1="73.294" y2="73.294"/><rect fill="none" height="6" style="stroke:#C82930;stroke-width:1.0;" width="6" x="304.5" y="84.1939"/><text fill="#000000" font-family="sans-serif" font-size="14" lengthAdjust="spacing" textLength="56" x="316.5" y="90.2999">width: int</text><rect fill="none" height="6" style="stroke:#C82930;stroke-width:1.0;" width="6" x="304.5" y="100.9939"/><text fill="#000000" font-family="sans-serif" font-size="14" lengthAdjust="spacing" textLength="62" x="316.5" y="107.0999">height: int</text><ellipse cx="307.5" cy="120.7938" fill="none" rx="3" ry="3" style="stroke:#038048;stroke-width:1.0;"/><text fill="#000000" font-family="sans-serif" font-size="14" lengthAdjust="spacing" textLength="56" x="316.5" y="123.8998">tiles: int[]</text><rect fill="none" height="6" style="stroke:#C82930;stroke-width:1.0;" width="6" x="304.5" y="134.5937"/><text fill="#000000" font-family="sans-serif" font-size="14" lengthAdjust="spacing" textLength="91" x="316.5" y="140.6997">rand: Random</text><ellipse cx="307.5" cy="154.3937" fill="none" rx="3" ry="3" style="stroke:#038048;stroke-width:1.0;"/><text fill="#000000" font-family="sans-serif" font-size="14" lengthAdjust="spacing" textLength="63" x="316.5" y="157.4996">pos: Point</text><line style="stroke:#181818;stroke-width:0.5;" x1="297.5" x2="468.5" y1="165.2936" y2="165.2936"/><ellipse cx="307.5" cy="179.1936" fill="#84BE84" rx="3" ry="3" style="stroke:#038048;stroke-width:1.0;"/><text fill="#000000" font-family="sans-serif" font-size="14" lengthAdjust="spacing" textLength="121" x="316.5" y="182.2996">Room(Floor, Point)</text><rect fill="#F24D5C" height="6" style="stroke:#C82930;stroke-width:1.0;" width="6" x="304.5" y="192.9935"/><text fill="#000000" font-family="sans-serif" font-size="14" lengthAdjust="spacing" textLength="139" x="316.5" y="199.0995">generateDoors(): void</text><ellipse cx="307.5" cy="212.7934" fill="#84BE84" rx="3" ry="3" style="stroke:#038048;stroke-width:1.0;"/><text fill="#000000" font-family="sans-serif" font-size="14" lengthAdjust="spacing" textLength="125" x="316.5" y="215.8994">GetTile(int, int): Tile</text><ellipse cx="307.5" cy="229.5934" fill="#84BE84" rx="3" ry="3" style="stroke:#038048;stroke-width:1.0;"/><text fill="#000000" font-family="sans-serif" font-size="14" lengthAdjust="spacing" textLength="147" x="316.5" y="232.6993">setTile(int, int, int): void</text><ellipse cx="307.5" cy="246.3933" fill="#84BE84" rx="3" ry="3" style="stroke:#038048;stroke-width:1.0;"/><text fill="#000000" font-family="sans-serif" font-size="14" lengthAdjust="spacing" textLength="122" x="316.5" y="249.4993">getTile(int, int): Tile</text><ellipse cx="307.5" cy="263.1932" fill="#84BE84" rx="3" ry="3" style="stroke:#038048;stroke-width:1.0;"/><text fill="#000000" font-family="sans-serif" font-size="14" lengthAdjust="spacing" textLength="136" x="316.5" y="266.2992">useDoor(int, int): void</text></g></a><!--class VV.Maps.Floor--><a href="Floor.html" target="_top" title="Floor.html" xlink:actuate="onRequest" xlink:href="Floor.html" xlink:show="new" xlink:title="Floor.html" xlink:type="simple"><g id="elem_VV.Maps.Floor"><rect codeLine="17" fill="#F1F1F1" height="182.3994" id="VV.Maps.Floor" rx="2.5" ry="2.5" style="stroke:#181818;stroke-width:0.5;" width="256" x="161" y="351.294"/><ellipse cx="268.25" cy="367.294" fill="#ADD1B2" rx="11" ry="11" style="stroke:#181818;stroke-width:1.0;"/><path d="M263.25,368.4502 C263.25,370.9502 265.3906,372.7627 268.3125,372.7627 C269.5469,372.7627 270.7188,372.4659 271.4688,371.9502 C272.0781,371.5284 272.4063,371.1065 272.4063,370.7002 C272.4063,370.2315 271.9844,369.8252 271.4844,369.8252 C271.25,369.8252 271.0313,369.9034 270.8281,370.1065 C270.3906,370.544 270.3906,370.544 270.2188,370.6377 C269.7656,370.8721 269.125,371.0127 268.3594,371.0127 C266.3594,371.0127 265.0781,369.9971 265.0781,368.419 L265.0781,367.3721 C265.0781,365.669 266.2969,364.4659 268,364.4659 C268.5781,364.4659 269.1563,364.6065 269.625,364.8565 C270.0938,365.1221 270.2656,365.3096 270.3281,365.669 C270.4531,366.3409 270.7031,366.5909 271.2344,366.5909 C271.5156,366.5909 271.7969,366.4502 271.9844,366.2315 C272.1094,366.0596 272.1563,365.8877 272.1563,365.4502 L272.1563,364.0909 C272.1563,363.669 272.1406,363.5284 272.0156,363.3565 C271.8438,363.1065 271.5625,362.9502 271.2344,362.9502 C270.9219,362.9502 270.7188,363.0596 270.5,363.3252 C269.3281,362.8252 268.8906,362.7159 267.9375,362.7159 C265.2656,362.7159 263.25,364.7315 263.25,367.3565 L263.25,368.4502 Z " fill="#000000"/><text fill="#000000" font-family="sans-serif" font-size="14" lengthAdjust="spacing" textLength="33" x="288.75" y="371.9">Floor</text><line style="stroke:#181818;stroke-width:0.5;" x1="162" x2="416" y1="383.294" y2="383.294"/><rect fill="none" height="6" style="stroke:#C82930;stroke-width:1.0;" width="6" x="169" y="394.1939"/><text fill="#000000" font-family="sans-serif" font-size="14" lengthAdjust="spacing" textLength="78" x="181" y="400.2999">floorSize: int</text><rect fill="none" height="6" style="stroke:#C82930;stroke-width:1.0;" width="6" x="169" y="410.9939"/><text fill="#000000" font-family="sans-serif" font-size="14" lengthAdjust="spacing" textLength="135" x="181" y="417.0999">roomsMap: boolean[]</text><polygon fill="none" points="172,426.7938,168,432.7938,176,432.7938" style="stroke:#1963A0;stroke-width:1.0;"/><text fill="#000000" font-family="sans-serif" font-size="14" lengthAdjust="spacing" textLength="91" x="181" y="433.8998">rand: Random</text><line style="stroke:#181818;stroke-width:0.5;" x1="162" x2="416" y1="441.6938" y2="441.6938"/><ellipse cx="172" cy="455.5937" fill="#84BE84" rx="3" ry="3" style="stroke:#038048;stroke-width:1.0;"/><text fill="#000000" font-family="sans-serif" font-size="14" lengthAdjust="spacing" textLength="105" x="181" y="458.6997">printFloor(): void</text><rect fill="#F24D5C" height="6" style="stroke:#C82930;stroke-width:1.0;" width="6" x="169" y="469.3937"/><text fill="#000000" font-family="sans-serif" font-size="14" lengthAdjust="spacing" textLength="155" x="181" y="475.4996">setRandomRoom(): void</text><ellipse cx="172" cy="489.1936" fill="#84BE84" rx="3" ry="3" style="stroke:#038048;stroke-width:1.0;"/><text fill="#000000" font-family="sans-serif" font-size="14" lengthAdjust="spacing" textLength="230" x="181" y="492.2996">roomHasNeighbors(int, int): boolean</text><ellipse cx="172" cy="505.9935" fill="#84BE84" rx="3" ry="3" style="stroke:#038048;stroke-width:1.0;"/><text fill="#000000" font-family="sans-serif" font-size="14" lengthAdjust="spacing" textLength="139" x="181" y="509.0995">setRoom(int, int): void</text><ellipse cx="172" cy="522.7934" fill="#84BE84" rx="3" ry="3" style="stroke:#038048;stroke-width:1.0;"/><text fill="#000000" font-family="sans-serif" font-size="14" lengthAdjust="spacing" textLength="177" x="181" y="525.8994">roomExists(int, int): boolean</text></g></a><!--class VV.Maps.Map--><a href="Map.html" target="_top" title="Map.html" xlink:actuate="onRequest" xlink:href="Map.html" xlink:show="new" xlink:title="Map.html" xlink:type="simple"><g id="elem_VV.Maps.Map"><rect codeLine="28" fill="#F1F1F1" height="98.3998" id="VV.Maps.Map" rx="2.5" ry="2.5" style="stroke:#181818;stroke-width:0.5;" width="160" x="22" y="108.794"/><ellipse cx="83.75" cy="124.794" fill="#ADD1B2" rx="11" ry="11" style="stroke:#181818;stroke-width:1.0;"/><path d="M78.75,125.9502 C78.75,128.4502 80.8906,130.2627 83.8125,130.2627 C85.0469,130.2627 86.2188,129.9659 86.9688,129.4502 C87.5781,129.0284 87.9063,128.6065 87.9063,128.2002 C87.9063,127.7315 87.4844,127.3252 86.9844,127.3252 C86.75,127.3252 86.5313,127.4034 86.3281,127.6065 C85.8906,128.044 85.8906,128.044 85.7188,128.1377 C85.2656,128.3721 84.625,128.5127 83.8594,128.5127 C81.8594,128.5127 80.5781,127.4971 80.5781,125.919 L80.5781,124.8721 C80.5781,123.169 81.7969,121.9659 83.5,121.9659 C84.0781,121.9659 84.6563,122.1065 85.125,122.3565 C85.5938,122.6221 85.7656,122.8096 85.8281,123.169 C85.9531,123.8409 86.2031,124.0909 86.7344,124.0909 C87.0156,124.0909 87.2969,123.9502 87.4844,123.7315 C87.6094,123.5596 87.6563,123.3877 87.6563,122.9502 L87.6563,121.5909 C87.6563,121.169 87.6406,121.0284 87.5156,120.8565 C87.3438,120.6065 87.0625,120.4502 86.7344,120.4502 C86.4219,120.4502 86.2188,120.5596 86,120.8252 C84.8281,120.3252 84.3906,120.2159 83.4375,120.2159 C80.7656,120.2159 78.75,122.2315 78.75,124.8565 L78.75,125.9502 Z " fill="#000000"/><text fill="#000000" font-family="sans-serif" font-size="14" lengthAdjust="spacing" textLength="28" x="104.25" y="129.4">Map</text><line style="stroke:#181818;stroke-width:0.5;" x1="23" x2="181" y1="140.794" y2="140.794"/><line style="stroke:#181818;stroke-width:0.5;" x1="23" x2="181" y1="148.794" y2="148.794"/><ellipse cx="33" cy="162.6939" fill="#84BE84" rx="3" ry="3" style="stroke:#038048;stroke-width:1.0;"/><text fill="#000000" font-family="sans-serif" font-size="14" lengthAdjust="spacing" text-decoration="underline" textLength="120" x="42" y="165.7999">getInstance(): Map</text><ellipse cx="33" cy="179.4939" fill="#84BE84" rx="3" ry="3" style="stroke:#038048;stroke-width:1.0;"/><text fill="#000000" font-family="sans-serif" font-size="14" lengthAdjust="spacing" textLength="90" x="42" y="182.5999">Update(): void</text><ellipse cx="33" cy="196.2938" fill="#84BE84" rx="3" ry="3" style="stroke:#038048;stroke-width:1.0;"/><text fill="#000000" font-family="sans-serif" font-size="14" lengthAdjust="spacing" textLength="134" x="42" y="199.3998">Draw(Graphics): void</text></g></a><!--link VV.Maps.Room to VV.Maps.Floor--><g id="link_VV.Maps.Room_VV.Maps.Floor"><path codeLine="34" d="M296,257.384 C290.33,263.184 284.64,268.864 279,274.294 C263.99,288.734 251.83,285.434 243,304.294 C236.89,317.334 235.84,331.404 237.87,345.404 " fill="none" id="VV.Maps.Room-to-VV.Maps.Floor" style="stroke:#181818;stroke-width:1.0;"/><polygon fill="#181818" points="238.84,349.964,241.2388,340.4117,237.9833,345.0379,233.3571,341.7824,238.84,349.964" style="stroke:#181818;stroke-width:1.0;"/><text fill="#000000" font-family="sans-serif" font-size="13" lengthAdjust="spacing" textLength="45" x="244" y="317.371">floorRef</text></g><!--link VV.Maps.Floor to VV.Maps.Room--><g id="link_VV.Maps.Floor_VV.Maps.Room"><path codeLine="35" d="M315.16,351.154 C319.94,335.484 325,319.374 330,304.294 C332.61,296.414 335.36,288.324 338.19,280.174 " fill="none" id="VV.Maps.Floor-to-VV.Maps.Room" style="stroke:#181818;stroke-width:1.0;"/><polygon fill="#181818" points="340.15,275.534,333.4179,282.7227,338.5091,280.257,340.9748,285.3482,340.15,275.534" style="stroke:#181818;stroke-width:1.0;"/><text fill="#000000" font-family="sans-serif" font-size="13" lengthAdjust="spacing" textLength="36" x="331" y="317.371">rooms</text><text fill="#000000" font-family="sans-serif" font-size="13" lengthAdjust="spacing" textLength="5" x="332.3865" y="294.2063">*</text></g><!--link VV.Maps.Floor to VV.Maps.Room--><g id="link_VV.Maps.Floor_VV.Maps.Room"><path codeLine="36" d="M358.67,350.974 C363.9,341.314 368.49,331.334 372,321.294 C376.57,308.214 379.8,294.194 382.02,280.064 " fill="none" id="VV.Maps.Floor-to-VV.Maps.Room-1" style="stroke:#181818;stroke-width:1.0;"/><polygon fill="#181818" points="382.86,275.434,377.5938,283.7567,382.1329,280.3808,385.5088,284.92,382.86,275.434" style="stroke:#181818;stroke-width:1.0;"/><text fill="#000000" font-family="sans-serif" font-size="13" lengthAdjust="spacing" textLength="29" x="378" y="317.371">room</text></g><!--link VV.Maps.Map to VV.Maps.Map--><g id="link_VV.Maps.Map_VV.Maps.Map"><path codeLine="37" d="M182.34,129.154 C202.19,131.224 217,140.764 217,157.794 C217,173.094 205.05,182.354 188.22,185.574 " fill="none" id="VV.Maps.Map-to-VV.Maps.Map" style="stroke:#181818;stroke-width:1.0;"/><polygon fill="#181818" points="183.34,186.434,192.8196,189.1057,188.2886,185.7189,191.6754,181.1879,183.34,186.434" style="stroke:#181818;stroke-width:1.0;"/><text fill="#000000" font-family="sans-serif" font-size="13" lengthAdjust="spacing" textLength="49" x="223" y="162.371">instance</text></g><!--link VV.Maps.Map to VV.Maps.Floor--><g id="link_VV.Maps.Map_VV.Maps.Floor"><path codeLine="38" d="M130.8,206.964 C150.57,239.574 177.72,283.454 203,321.294 C208.47,329.474 214.23,337.904 220.07,346.314 " fill="none" id="VV.Maps.Map-to-VV.Maps.Floor" style="stroke:#181818;stroke-width:1.0;"/><polygon fill="#181818" points="223.32,349.984,221.4561,340.3131,220.4613,345.8818,214.8926,344.887,223.32,349.984" style="stroke:#181818;stroke-width:1.0;"/><text fill="#000000" font-family="sans-serif" font-size="13" lengthAdjust="spacing" textLength="25" x="204" y="317.371">floor</text></g><text fill="#888888" font-family="sans-serif" font-size="10" lengthAdjust="spacing" textLength="179" x="150" y="564.584">UMLDoclet 2.1.0, PlantUML 1.2022.14</text><!--SRC=[ZLD1Jy8m5BxpArv8J8QoHJtku6cA9c8C2XV2eMmFrcHhbxQ2aU1lzxL3tDXOxA5D-xxtzRtlQm401CjH5on6cCs2CIiqx7ezE8muOrh3HCeSvdEx1Ad9iyM2C50P_fOd9Ws12rC_Jv6lKzCCN1cUeNRdyqKzHJ6HX32XMURrd49IngjiSDcwl8TCIZKimuCwune5AcOm8eJs1Y5i94_g52CqxrIHHyb3MnI1xBuEqYUWNsIJRlqVkW_jAlBECUrFRN0jaWzkFMF4oiRU-1UscA589qqEXx2KCaCcJgJ_xf1U4PkxjrK_dwGfqvmNhPhOsn-PVh4lOccDgFHzgASXjsFhLDgotdzoRJhv6bAI2YGapUqoxhHXXiTxv-IJe9s8qRP56VNxfqL2BwkzuqYnhJTIh4Xvh3lSTT_Bz-zAWqDm7avmTGIKnbj4_xBlu24uCriGVz5Zq3PhGyvwVkYc4QrUtgjK6ACmg60bfLscu-T8nXaQk0rkWclwS1aJXaxXOeDASocymGy0]--></g></svg>