<?xml version="1.0" encoding="UTF-8" standalone="no"?><svg xmlns="http://www.w3.org/2000/svg" xmlns:xlink="http://www.w3.org/1999/xlink" contentStyleType="text/css" height="616px" preserveAspectRatio="none" style="width:301px;height:616px;background:#FFFFFF;" version="1.1" viewBox="0 0 301 616" width="301px" zoomAndPan="magnify"><defs/><g><!--cluster VV.Maps--><g id="cluster_VV.Maps"><path d="M8.5,6.294 L68.5,6.294 A3.75,3.75 0 0 1 71,8.794 L78,29.0939 L291.5,29.0939 A2.5,2.5 0 0 1 294,31.5939 L294,587.794 A2.5,2.5 0 0 1 291.5,590.294 L8.5,590.294 A2.5,2.5 0 0 1 6,587.794 L6,8.794 A2.5,2.5 0 0 1 8.5,6.294 " fill="none" style="stroke:#000000;stroke-width:1.5;"/><line style="stroke:#000000;stroke-width:1.5;" x1="6" x2="78" y1="29.0939" y2="29.0939"/><text fill="#000000" font-family="sans-serif" font-size="14" font-weight="bold" lengthAdjust="spacing" textLength="59" x="10" y="21.2999">VV.Maps</text></g><!--class VV.Maps.Room--><a href="Room.html" target="_top" title="Room.html" xlink:actuate="onRequest" xlink:href="Room.html" xlink:show="new" xlink:title="Room.html" xlink:type="simple"><g id="elem_VV.Maps.Room"><rect codeLine="3" fill="#F1F1F1" height="165.5995" id="VV.Maps.Room" rx="2.5" ry="2.5" style="stroke:#181818;stroke-width:0.5;" width="173" x="63.5" y="408.294"/><ellipse cx="126.75" cy="424.294" fill="#ADD1B2" rx="11" ry="11" style="stroke:#181818;stroke-width:1.0;"/><path d="M121.75,425.4502 C121.75,427.9502 123.8906,429.7627 126.8125,429.7627 C128.0469,429.7627 129.2188,429.4659 129.9688,428.9502 C130.5781,428.5284 130.9063,428.1065 130.9063,427.7002 C130.9063,427.2315 130.4844,426.8252 129.9844,426.8252 C129.75,426.8252 129.5313,426.9034 129.3281,427.1065 C128.8906,427.544 128.8906,427.544 128.7188,427.6377 C128.2656,427.8721 127.625,428.0127 126.8594,428.0127 C124.8594,428.0127 123.5781,426.9971 123.5781,425.419 L123.5781,424.3721 C123.5781,422.669 124.7969,421.4659 126.5,421.4659 C127.0781,421.4659 127.6563,421.6065 128.125,421.8565 C128.5938,422.1221 128.7656,422.3096 128.8281,422.669 C128.9531,423.3409 129.2031,423.5909 129.7344,423.5909 C130.0156,423.5909 130.2969,423.4502 130.4844,423.2315 C130.6094,423.0596 130.6563,422.8877 130.6563,422.4502 L130.6563,421.0909 C130.6563,420.669 130.6406,420.5284 130.5156,420.3565 C130.3438,420.1065 130.0625,419.9502 129.7344,419.9502 C129.4219,419.9502 129.2188,420.0596 129,420.3252 C127.8281,419.8252 127.3906,419.7159 126.4375,419.7159 C123.7656,419.7159 121.75,421.7315 121.75,424.3565 L121.75,425.4502 Z " fill="#000000"/><text fill="#000000" font-family="sans-serif" font-size="14" lengthAdjust="spacing" textLength="38" x="147.25" y="428.9">Room</text><line style="stroke:#181818;stroke-width:0.5;" x1="64.5" x2="235.5" y1="440.294" y2="440.294"/><ellipse cx="74.5" cy="454.1939" fill="none" rx="3" ry="3" style="stroke:#038048;stroke-width:1.0;"/><text fill="#000000" font-family="sans-serif" font-size="14" lengthAdjust="spacing" textLength="56" x="83.5" y="457.2999">tiles: int[]</text><ellipse cx="74.5" cy="470.9939" fill="none" rx="3" ry="3" style="stroke:#038048;stroke-width:1.0;"/><text fill="#000000" font-family="sans-serif" font-size="14" lengthAdjust="spacing" textLength="63" x="83.5" y="474.0999">pos: Point</text><line style="stroke:#181818;stroke-width:0.5;" x1="64.5" x2="235.5" y1="481.8938" y2="481.8938"/><ellipse cx="74.5" cy="495.7938" fill="#84BE84" rx="3" ry="3" style="stroke:#038048;stroke-width:1.0;"/><text fill="#000000" font-family="sans-serif" font-size="14" lengthAdjust="spacing" textLength="121" x="83.5" y="498.8998">Room(Floor, Point)</text><ellipse cx="74.5" cy="512.5937" fill="#84BE84" rx="3" ry="3" style="stroke:#038048;stroke-width:1.0;"/><text fill="#000000" font-family="sans-serif" font-size="14" lengthAdjust="spacing" textLength="125" x="83.5" y="515.6997">GetTile(int, int): Tile</text><ellipse cx="74.5" cy="529.3937" fill="#84BE84" rx="3" ry="3" style="stroke:#038048;stroke-width:1.0;"/><text fill="#000000" font-family="sans-serif" font-size="14" lengthAdjust="spacing" textLength="147" x="83.5" y="532.4996">setTile(int, int, int): void</text><ellipse cx="74.5" cy="546.1936" fill="#84BE84" rx="3" ry="3" style="stroke:#038048;stroke-width:1.0;"/><text fill="#000000" font-family="sans-serif" font-size="14" lengthAdjust="spacing" textLength="122" x="83.5" y="549.2996">getTile(int, int): Tile</text><ellipse cx="74.5" cy="562.9935" fill="#84BE84" rx="3" ry="3" style="stroke:#038048;stroke-width:1.0;"/><text fill="#000000" font-family="sans-serif" font-size="14" lengthAdjust="spacing" textLength="136" x="83.5" y="566.0995">useDoor(int, int): void</text></g></a><!--class VV.Maps.Floor--><a href="Floor.html" target="_top" title="Floor.html" xlink:actuate="onRequest" xlink:href="Floor.html" xlink:show="new" xlink:title="Floor.html" xlink:type="simple"><g id="elem_VV.Maps.Floor"><rect codeLine="13" fill="#F1F1F1" height="115.1997" id="VV.Maps.Floor" rx="2.5" ry="2.5" style="stroke:#181818;stroke-width:0.5;" width="256" x="22" y="216.294"/><ellipse cx="129.25" cy="232.294" fill="#ADD1B2" rx="11" ry="11" style="stroke:#181818;stroke-width:1.0;"/><path d="M124.25,233.4502 C124.25,235.9502 126.3906,237.7627 129.3125,237.7627 C130.5469,237.7627 131.7188,237.4659 132.4688,236.9502 C133.0781,236.5284 133.4063,236.1065 133.4063,235.7002 C133.4063,235.2315 132.9844,234.8252 132.4844,234.8252 C132.25,234.8252 132.0313,234.9034 131.8281,235.1065 C131.3906,235.544 131.3906,235.544 131.2188,235.6377 C130.7656,235.8721 130.125,236.0127 129.3594,236.0127 C127.3594,236.0127 126.0781,234.9971 126.0781,233.419 L126.0781,232.3721 C126.0781,230.669 127.2969,229.4659 129,229.4659 C129.5781,229.4659 130.1563,229.6065 130.625,229.8565 C131.0938,230.1221 131.2656,230.3096 131.3281,230.669 C131.4531,231.3409 131.7031,231.5909 132.2344,231.5909 C132.5156,231.5909 132.7969,231.4502 132.9844,231.2315 C133.1094,231.0596 133.1563,230.8877 133.1563,230.4502 L133.1563,229.0909 C133.1563,228.669 133.1406,228.5284 133.0156,228.3565 C132.8438,228.1065 132.5625,227.9502 132.2344,227.9502 C131.9219,227.9502 131.7188,228.0596 131.5,228.3252 C130.3281,227.8252 129.8906,227.7159 128.9375,227.7159 C126.2656,227.7159 124.25,229.7315 124.25,232.3565 L124.25,233.4502 Z " fill="#000000"/><text fill="#000000" font-family="sans-serif" font-size="14" lengthAdjust="spacing" textLength="33" x="149.75" y="236.9">Floor</text><line style="stroke:#181818;stroke-width:0.5;" x1="23" x2="277" y1="248.294" y2="248.294"/><line style="stroke:#181818;stroke-width:0.5;" x1="23" x2="277" y1="256.294" y2="256.294"/><ellipse cx="33" cy="270.1939" fill="#84BE84" rx="3" ry="3" style="stroke:#038048;stroke-width:1.0;"/><text fill="#000000" font-family="sans-serif" font-size="14" lengthAdjust="spacing" textLength="105" x="42" y="273.2999">printFloor(): void</text><ellipse cx="33" cy="286.9939" fill="#84BE84" rx="3" ry="3" style="stroke:#038048;stroke-width:1.0;"/><text fill="#000000" font-family="sans-serif" font-size="14" lengthAdjust="spacing" textLength="230" x="42" y="290.0999">roomHasNeighbors(int, int): boolean</text><ellipse cx="33" cy="303.7938" fill="#84BE84" rx="3" ry="3" style="stroke:#038048;stroke-width:1.0;"/><text fill="#000000" font-family="sans-serif" font-size="14" lengthAdjust="spacing" textLength="139" x="42" y="306.8998">setRoom(int, int): void</text><ellipse cx="33" cy="320.5937" fill="#84BE84" rx="3" ry="3" style="stroke:#038048;stroke-width:1.0;"/><text fill="#000000" font-family="sans-serif" font-size="14" lengthAdjust="spacing" textLength="177" x="42" y="323.6997">roomExists(int, int): boolean</text></g></a><!--class VV.Maps.Map--><a href="Map.html" target="_top" title="Map.html" xlink:actuate="onRequest" xlink:href="Map.html" xlink:show="new" xlink:title="Map.html" xlink:type="simple"><g id="elem_VV.Maps.Map"><rect codeLine="20" fill="#F1F1F1" height="98.3998" id="VV.Maps.Map" rx="2.5" ry="2.5" style="stroke:#181818;stroke-width:0.5;" width="160" x="70" y="41.294"/><ellipse cx="131.75" cy="57.294" fill="#ADD1B2" rx="11" ry="11" style="stroke:#181818;stroke-width:1.0;"/><path d="M126.75,58.4502 C126.75,60.9502 128.8906,62.7627 131.8125,62.7627 C133.0469,62.7627 134.2188,62.4659 134.9688,61.9502 C135.5781,61.5284 135.9063,61.1065 135.9063,60.7002 C135.9063,60.2315 135.4844,59.8252 134.9844,59.8252 C134.75,59.8252 134.5313,59.9034 134.3281,60.1065 C133.8906,60.544 133.8906,60.544 133.7188,60.6377 C133.2656,60.8721 132.625,61.0127 131.8594,61.0127 C129.8594,61.0127 128.5781,59.9971 128.5781,58.419 L128.5781,57.3721 C128.5781,55.669 129.7969,54.4659 131.5,54.4659 C132.0781,54.4659 132.6563,54.6065 133.125,54.8565 C133.5938,55.1221 133.7656,55.3096 133.8281,55.669 C133.9531,56.3409 134.2031,56.5909 134.7344,56.5909 C135.0156,56.5909 135.2969,56.4502 135.4844,56.2315 C135.6094,56.0596 135.6563,55.8877 135.6563,55.4502 L135.6563,54.0909 C135.6563,53.669 135.6406,53.5284 135.5156,53.3565 C135.3438,53.1065 135.0625,52.9502 134.7344,52.9502 C134.4219,52.9502 134.2188,53.0596 134,53.3252 C132.8281,52.8252 132.3906,52.7159 131.4375,52.7159 C128.7656,52.7159 126.75,54.7315 126.75,57.3565 L126.75,58.4502 Z " fill="#000000"/><text fill="#000000" font-family="sans-serif" font-size="14" lengthAdjust="spacing" textLength="28" x="152.25" y="61.9">Map</text><line style="stroke:#181818;stroke-width:0.5;" x1="71" x2="229" y1="73.294" y2="73.294"/><line style="stroke:#181818;stroke-width:0.5;" x1="71" x2="229" y1="81.294" y2="81.294"/><ellipse cx="81" cy="95.1939" fill="#84BE84" rx="3" ry="3" style="stroke:#038048;stroke-width:1.0;"/><text fill="#000000" font-family="sans-serif" font-size="14" lengthAdjust="spacing" text-decoration="underline" textLength="120" x="90" y="98.2999">getInstance(): Map</text><ellipse cx="81" cy="111.9939" fill="#84BE84" rx="3" ry="3" style="stroke:#038048;stroke-width:1.0;"/><text fill="#000000" font-family="sans-serif" font-size="14" lengthAdjust="spacing" textLength="90" x="90" y="115.0999">Update(): void</text><ellipse cx="81" cy="128.7938" fill="#84BE84" rx="3" ry="3" style="stroke:#038048;stroke-width:1.0;"/><text fill="#000000" font-family="sans-serif" font-size="14" lengthAdjust="spacing" textLength="134" x="90" y="131.8998">Draw(Graphics): void</text></g></a><!--link VV.Maps.Floor to VV.Maps.Room--><g id="link_VV.Maps.Floor_VV.Maps.Room"><path codeLine="26" d="M150,331.694 C150,353.194 150,378.194 150,401.904 " fill="none" id="VV.Maps.Floor-to-VV.Maps.Room" style="stroke:#181818;stroke-width:1.0;"/><polygon fill="#181818" points="150,406.894,154,397.894,150,401.894,146,397.894,150,406.894" style="stroke:#181818;stroke-width:1.0;"/><text fill="#000000" font-family="sans-serif" font-size="13" lengthAdjust="spacing" textLength="29" x="151" y="374.371">room</text></g><!--link VV.Maps.Map to VV.Maps.Floor--><g id="link_VV.Maps.Map_VV.Maps.Floor"><path codeLine="27" d="M150,139.454 C150,161.144 150,187.024 150,210.194 " fill="none" id="VV.Maps.Map-to-VV.Maps.Floor" style="stroke:#181818;stroke-width:1.0;"/><polygon fill="#181818" points="150,215.024,154,206.024,150,210.024,146,206.024,150,215.024" style="stroke:#181818;stroke-width:1.0;"/><text fill="#000000" font-family="sans-serif" font-size="13" lengthAdjust="spacing" textLength="25" x="151" y="182.371">floor</text></g><text fill="#888888" font-family="sans-serif" font-size="10" lengthAdjust="spacing" textLength="179" x="54" y="605.584">UMLDoclet 2.1.0, PlantUML 1.2022.14</text><!--SRC=[ZLB1JW8n4Btp5NCnMI9irECUF2sYYHXZX0lXKCe0JRgTJQUY2U7VdHOrB2p47dRIUQ-lyzuM0C2f2hbM6c4ooKUgPjXsEl2pj5NCy4PKmNGQIxuEbPtDX0C7wpeOYro0SM4wQo8rIV-L16dserZsO8byRmztc_WGmxk8PeBqecwtWBXlalY8zClSa5aqcQl_o7qmbZ9GTavfTnnCcb-IIVLCDBKNfKJ8MYVp4iIZuXSqg_MSF1_UFYUogDo9wHJUHRzHTV1bE5pKEp4a_r_ioBVTp9Q32aRlKfvFJdPEOxGb9vhtZ-k52jZkkFJgCnjwLQ-DvWiPxzFjz-_J0omWUle3uwGHIgG2bh5q3WGqke0UbaInZ4VF9McB0Uxos_n6dfnLBaWNhZResP3Bkjy0]--></g></svg>