<?xml version="1.0" encoding="UTF-8" standalone="no"?><svg xmlns="http://www.w3.org/2000/svg" xmlns:xlink="http://www.w3.org/1999/xlink" contentStyleType="text/css" height="491px" preserveAspectRatio="none" style="width:240px;height:491px;background:#FFFFFF;" version="1.1" viewBox="0 0 240 491" width="240px" zoomAndPan="magnify"><defs/><g><!--class vv.Maps.Room--><a href="Room.html" target="_top" title="Room.html" xlink:actuate="onRequest" xlink:href="Room.html" xlink:show="new" xlink:title="Room.html" xlink:type="simple"><g id="elem_vv.Maps.Room"><rect codeLine="5" fill="#F1F1F1" height="457.9982" id="vv.Maps.Room" rx="2.5" ry="2.5" style="stroke:#181818;stroke-width:0.5;" width="219" x="7" y="7"/><ellipse cx="93.25" cy="26.4" fill="#ADD1B2" rx="11" ry="11" style="stroke:#181818;stroke-width:1.0;"/><path d="M88.25,27.5562 C88.25,30.0562 90.3906,31.8687 93.3125,31.8687 C94.5469,31.8687 95.7188,31.5718 96.4688,31.0562 C97.0781,30.6343 97.4063,30.2125 97.4063,29.8062 C97.4063,29.3375 96.9844,28.9312 96.4844,28.9312 C96.25,28.9312 96.0313,29.0093 95.8281,29.2125 C95.3906,29.65 95.3906,29.65 95.2188,29.7437 C94.7656,29.9781 94.125,30.1187 93.3594,30.1187 C91.3594,30.1187 90.0781,29.1031 90.0781,27.525 L90.0781,26.4781 C90.0781,24.775 91.2969,23.5718 93,23.5718 C93.5781,23.5718 94.1563,23.7125 94.625,23.9625 C95.0938,24.2281 95.2656,24.4156 95.3281,24.775 C95.4531,25.4468 95.7031,25.6968 96.2344,25.6968 C96.5156,25.6968 96.7969,25.5562 96.9844,25.3375 C97.1094,25.1656 97.1563,24.9937 97.1563,24.5562 L97.1563,23.1968 C97.1563,22.775 97.1406,22.6343 97.0156,22.4625 C96.8438,22.2125 96.5625,22.0562 96.2344,22.0562 C95.9219,22.0562 95.7188,22.1656 95.5,22.4312 C94.3281,21.9312 93.8906,21.8218 92.9375,21.8218 C90.2656,21.8218 88.25,23.8375 88.25,26.4625 L88.25,27.5562 Z " fill="#000000"/><text fill="#000000" font-family="sans-serif" font-size="14" lengthAdjust="spacing" textLength="38" x="113.75" y="25.0059">Room</text><text fill="#000000" font-family="sans-serif" font-size="10" lengthAdjust="spacing" textLength="38" x="113.75" y="38.0899">vv.Maps</text><line style="stroke:#181818;stroke-width:0.5;" x1="8" x2="225" y1="45.7999" y2="45.7999"/><polygon fill="none" points="18,54.6999,22,58.6999,18,62.6999,14,58.6999" style="stroke:#B38D22;stroke-width:1.0;"/><text fill="#000000" font-family="sans-serif" font-size="14" lengthAdjust="spacing" textLength="56" x="27" y="62.8059">width: int</text><polygon fill="none" points="18,71.4998,22,75.4998,18,79.4998,14,75.4998" style="stroke:#B38D22;stroke-width:1.0;"/><text fill="#000000" font-family="sans-serif" font-size="14" lengthAdjust="spacing" textLength="62" x="27" y="79.6058">height: int</text><ellipse cx="18" cy="93.2997" fill="none" rx="3" ry="3" style="stroke:#038048;stroke-width:1.0;"/><text fill="#000000" font-family="sans-serif" font-size="14" lengthAdjust="spacing" textLength="56" x="27" y="96.4057">tiles: int[]</text><polygon fill="none" points="18,105.0997,22,109.0997,18,113.0997,14,109.0997" style="stroke:#B38D22;stroke-width:1.0;"/><text fill="#000000" font-family="sans-serif" font-size="14" lengthAdjust="spacing" textLength="91" x="27" y="113.2056">rand: Random</text><polygon fill="none" points="18,121.8996,22,125.8996,18,129.8996,14,125.8996" style="stroke:#B38D22;stroke-width:1.0;"/><text fill="#000000" font-family="sans-serif" font-size="14" lengthAdjust="spacing" textLength="91" x="27" y="130.0056">floorRef: Floor</text><ellipse cx="18" cy="143.6995" fill="none" rx="3" ry="3" style="stroke:#038048;stroke-width:1.0;"/><text fill="#000000" font-family="sans-serif" font-size="14" lengthAdjust="spacing" textLength="63" x="27" y="146.8055">pos: Point</text><ellipse cx="18" cy="160.4994" fill="none" rx="3" ry="3" style="stroke:#038048;stroke-width:1.0;"/><text fill="#000000" font-family="sans-serif" font-size="14" lengthAdjust="spacing" textLength="63" x="27" y="163.6054">theme: int</text><ellipse cx="18" cy="177.2994" fill="none" rx="3" ry="3" style="stroke:#038048;stroke-width:1.0;"/><text fill="#000000" font-family="sans-serif" font-size="14" lengthAdjust="spacing" textLength="114" x="27" y="180.4053">enemies: Enemy[]</text><line style="stroke:#181818;stroke-width:0.5;" x1="8" x2="225" y1="188.1993" y2="188.1993"/><ellipse cx="18" cy="202.0993" fill="#84BE84" rx="3" ry="3" style="stroke:#038048;stroke-width:1.0;"/><text fill="#000000" font-family="sans-serif" font-size="14" lengthAdjust="spacing" textLength="121" x="27" y="205.2053">Room(Floor, Point)</text><ellipse cx="18" cy="218.8992" fill="#84BE84" rx="3" ry="3" style="stroke:#038048;stroke-width:1.0;"/><text fill="#000000" font-family="sans-serif" font-size="14" lengthAdjust="spacing" textLength="82" x="27" y="222.0052">type(): String</text><polygon fill="#FFFF44" points="18,230.6991,22,234.6991,18,238.6991,14,234.6991" style="stroke:#B38D22;stroke-width:1.0;"/><text fill="#000000" font-family="sans-serif" font-size="14" lengthAdjust="spacing" textLength="104" x="27" y="238.8051">doorTop(): Point</text><polygon fill="#FFFF44" points="18,247.4991,22,251.4991,18,255.4991,14,251.4991" style="stroke:#B38D22;stroke-width:1.0;"/><text fill="#000000" font-family="sans-serif" font-size="14" lengthAdjust="spacing" textLength="124" x="27" y="255.6051">doorBottom(): Point</text><polygon fill="#FFFF44" points="18,264.299,22,268.299,18,272.299,14,268.299" style="stroke:#B38D22;stroke-width:1.0;"/><text fill="#000000" font-family="sans-serif" font-size="14" lengthAdjust="spacing" textLength="103" x="27" y="272.405">doorLeft(): Point</text><polygon fill="#FFFF44" points="18,281.0989,22,285.0989,18,289.0989,14,285.0989" style="stroke:#B38D22;stroke-width:1.0;"/><text fill="#000000" font-family="sans-serif" font-size="14" lengthAdjust="spacing" textLength="112" x="27" y="289.2049">doorRight(): Point</text><polygon fill="#FFFF44" points="18,297.8989,22,301.8989,18,305.8989,14,301.8989" style="stroke:#B38D22;stroke-width:1.0;"/><text fill="#000000" font-family="sans-serif" font-size="14" lengthAdjust="spacing" textLength="193" x="27" y="306.0048">randomEnemy(int, int): Enemy</text><polygon fill="#FFFF44" points="18,314.6988,22,318.6988,18,322.6988,14,318.6988" style="stroke:#B38D22;stroke-width:1.0;"/><text fill="#000000" font-family="sans-serif" font-size="14" lengthAdjust="spacing" textLength="156" x="27" y="322.8048">generateEnemies(): void</text><polygon fill="#FFFF44" points="18,331.4987,22,335.4987,18,339.4987,14,335.4987" style="stroke:#B38D22;stroke-width:1.0;"/><text fill="#000000" font-family="sans-serif" font-size="14" lengthAdjust="spacing" textLength="126" x="27" y="339.6047">generateBed(): void</text><polygon fill="#FFFF44" points="18,348.2986,22,352.2986,18,356.2986,14,352.2986" style="stroke:#B38D22;stroke-width:1.0;"/><text fill="#000000" font-family="sans-serif" font-size="14" lengthAdjust="spacing" textLength="131" x="27" y="356.4046">generateTiles(): void</text><polygon fill="#FFFF44" points="18,365.0986,22,369.0986,18,373.0986,14,369.0986" style="stroke:#B38D22;stroke-width:1.0;"/><text fill="#000000" font-family="sans-serif" font-size="14" lengthAdjust="spacing" textLength="139" x="27" y="373.2045">generateDoors(): void</text><ellipse cx="18" cy="386.8985" fill="#84BE84" rx="3" ry="3" style="stroke:#038048;stroke-width:1.0;"/><text fill="#000000" font-family="sans-serif" font-size="14" lengthAdjust="spacing" textLength="125" x="27" y="390.0045">GetTile(int, int): Tile</text><ellipse cx="18" cy="403.6984" fill="#84BE84" rx="3" ry="3" style="stroke:#038048;stroke-width:1.0;"/><text fill="#000000" font-family="sans-serif" font-size="14" lengthAdjust="spacing" textLength="147" x="27" y="406.8044">setTile(int, int, int): void</text><ellipse cx="18" cy="420.4983" fill="#84BE84" rx="3" ry="3" style="stroke:#038048;stroke-width:1.0;"/><text fill="#000000" font-family="sans-serif" font-size="14" lengthAdjust="spacing" textLength="167" x="27" y="423.6043">getTileUnsafe(int, int): Tile</text><ellipse cx="18" cy="437.2983" fill="#84BE84" rx="3" ry="3" style="stroke:#038048;stroke-width:1.0;"/><text fill="#000000" font-family="sans-serif" font-size="14" lengthAdjust="spacing" textLength="122" x="27" y="440.4042">getTile(int, int): Tile</text><ellipse cx="18" cy="454.0982" fill="#84BE84" rx="3" ry="3" style="stroke:#038048;stroke-width:1.0;"/><text fill="#000000" font-family="sans-serif" font-size="14" lengthAdjust="spacing" textLength="136" x="27" y="457.2042">useDoor(int, int): void</text></g></a><text fill="#888888" font-family="sans-serif" font-size="10" lengthAdjust="spacing" textLength="179" x="26.5" y="481.2881">UMLDoclet 2.1.0, PlantUML 1.2022.14</text><!--SRC=[XLDDQyCm3BtlLuYDGK9BQCTEOVHGsktImkZ7gUl1D4fYYAqGQndTs7-VxMQawSUMGoo_z_8aEJ80W446BHIQKknmYQMe15C5cZJUM1focI2WAdaFgSGYCQUeGix9mXxV5S8Ok7qoyXFZuUDeGQJUTBCTZEewcelIt88mqCIHay1cuvOePrLij_3blTnpzo4JpcEGcbiiHvdbt0LxB0iq7jjiMsabT1B3mhv9jMXQ45KBJ6DuTb5hKfArUAMkSOuAJvAXHYLTkgaDzaS9UwwDmBls3qRXaTE-n22COScLr5bRJcBLAoeTrStjcJ4nMy_Bv0nJla8jt25Tu2f_6Bxmm19zrrdOTDAgCjkYdGIS7ZfrFZN9v5mmnkGwkN8_vJeziMMUqxqNPFVXSNLktmhCYU1NrRN93ggrDYBzmopxBzkxyOK6bn9zDsEFch62bCWjw_biGhl2Ngo7Q1WDx20KGhD5uRx6oaZIGVW3]--></g></svg>