<?xml version="1.0" encoding="UTF-8" standalone="no"?><svg xmlns="http://www.w3.org/2000/svg" xmlns:xlink="http://www.w3.org/1999/xlink" contentStyleType="text/css" height="508px" preserveAspectRatio="none" style="width:325px;height:508px;background:#FFFFFF;" version="1.1" viewBox="0 0 325 508" width="325px" zoomAndPan="magnify"><defs/><g><!--class vv.Maps.Room--><a href="Room.html" target="_top" title="Room.html" xlink:actuate="onRequest" xlink:href="Room.html" xlink:show="new" xlink:title="Room.html" xlink:type="simple"><g id="elem_vv.Maps.Room"><rect codeLine="5" fill="#F1F1F1" height="474.7981" id="vv.Maps.Room" rx="2.5" ry="2.5" style="stroke:#181818;stroke-width:0.5;" width="304" x="7" y="7"/><ellipse cx="135.75" cy="26.4" fill="#ADD1B2" rx="11" ry="11" style="stroke:#181818;stroke-width:1.0;"/><path d="M130.75,27.5562 C130.75,30.0562 132.8906,31.8687 135.8125,31.8687 C137.0469,31.8687 138.2188,31.5718 138.9688,31.0562 C139.5781,30.6343 139.9063,30.2125 139.9063,29.8062 C139.9063,29.3375 139.4844,28.9312 138.9844,28.9312 C138.75,28.9312 138.5313,29.0093 138.3281,29.2125 C137.8906,29.65 137.8906,29.65 137.7188,29.7437 C137.2656,29.9781 136.625,30.1187 135.8594,30.1187 C133.8594,30.1187 132.5781,29.1031 132.5781,27.525 L132.5781,26.4781 C132.5781,24.775 133.7969,23.5718 135.5,23.5718 C136.0781,23.5718 136.6563,23.7125 137.125,23.9625 C137.5938,24.2281 137.7656,24.4156 137.8281,24.775 C137.9531,25.4468 138.2031,25.6968 138.7344,25.6968 C139.0156,25.6968 139.2969,25.5562 139.4844,25.3375 C139.6094,25.1656 139.6563,24.9937 139.6563,24.5562 L139.6563,23.1968 C139.6563,22.775 139.6406,22.6343 139.5156,22.4625 C139.3438,22.2125 139.0625,22.0562 138.7344,22.0562 C138.4219,22.0562 138.2188,22.1656 138,22.4312 C136.8281,21.9312 136.3906,21.8218 135.4375,21.8218 C132.7656,21.8218 130.75,23.8375 130.75,26.4625 L130.75,27.5562 Z " fill="#000000"/><text fill="#000000" font-family="sans-serif" font-size="14" lengthAdjust="spacing" textLength="38" x="156.25" y="25.0059">Room</text><text fill="#000000" font-family="sans-serif" font-size="10" lengthAdjust="spacing" textLength="38" x="156.25" y="38.0899">vv.Maps</text><line style="stroke:#181818;stroke-width:0.5;" x1="8" x2="310" y1="45.7999" y2="45.7999"/><polygon fill="none" points="18,54.6999,22,58.6999,18,62.6999,14,58.6999" style="stroke:#B38D22;stroke-width:1.0;"/><text fill="#000000" font-family="sans-serif" font-size="14" lengthAdjust="spacing" textLength="56" x="27" y="62.8059">width: int</text><polygon fill="none" points="18,71.4998,22,75.4998,18,79.4998,14,75.4998" style="stroke:#B38D22;stroke-width:1.0;"/><text fill="#000000" font-family="sans-serif" font-size="14" lengthAdjust="spacing" textLength="62" x="27" y="79.6058">height: int</text><ellipse cx="18" cy="93.2997" fill="none" rx="3" ry="3" style="stroke:#038048;stroke-width:1.0;"/><text fill="#000000" font-family="sans-serif" font-size="14" lengthAdjust="spacing" textLength="56" x="27" y="96.4057">tiles: int[]</text><polygon fill="none" points="18,105.0997,22,109.0997,18,113.0997,14,109.0997" style="stroke:#B38D22;stroke-width:1.0;"/><text fill="#000000" font-family="sans-serif" font-size="14" lengthAdjust="spacing" textLength="91" x="27" y="113.2056">rand: Random</text><polygon fill="none" points="18,121.8996,22,125.8996,18,129.8996,14,125.8996" style="stroke:#B38D22;stroke-width:1.0;"/><text fill="#000000" font-family="sans-serif" font-size="14" lengthAdjust="spacing" textLength="91" x="27" y="130.0056">floorRef: Floor</text><ellipse cx="18" cy="143.6995" fill="none" rx="3" ry="3" style="stroke:#038048;stroke-width:1.0;"/><text fill="#000000" font-family="sans-serif" font-size="14" lengthAdjust="spacing" textLength="63" x="27" y="146.8055">pos: Point</text><ellipse cx="18" cy="160.4994" fill="none" rx="3" ry="3" style="stroke:#038048;stroke-width:1.0;"/><text fill="#000000" font-family="sans-serif" font-size="14" lengthAdjust="spacing" textLength="63" x="27" y="163.6054">theme: int</text><ellipse cx="18" cy="177.2994" fill="none" rx="3" ry="3" style="stroke:#038048;stroke-width:1.0;"/><text fill="#000000" font-family="sans-serif" font-size="14" lengthAdjust="spacing" textLength="278" x="27" y="180.4053">enemies: ConcurrentLinkedQueue&lt;Enemy&gt;</text><ellipse cx="18" cy="194.0993" fill="none" rx="3" ry="3" style="stroke:#038048;stroke-width:1.0;"/><text fill="#000000" font-family="sans-serif" font-size="14" lengthAdjust="spacing" textLength="119" x="27" y="197.2053">isCleared: boolean</text><line style="stroke:#181818;stroke-width:0.5;" x1="8" x2="310" y1="204.9993" y2="204.9993"/><ellipse cx="18" cy="218.8992" fill="#84BE84" rx="3" ry="3" style="stroke:#038048;stroke-width:1.0;"/><text fill="#000000" font-family="sans-serif" font-size="14" lengthAdjust="spacing" textLength="121" x="27" y="222.0052">Room(Floor, Point)</text><ellipse cx="18" cy="235.6991" fill="#84BE84" rx="3" ry="3" style="stroke:#038048;stroke-width:1.0;"/><text fill="#000000" font-family="sans-serif" font-size="14" lengthAdjust="spacing" textLength="82" x="27" y="238.8051">type(): String</text><polygon fill="#FFFF44" points="18,247.4991,22,251.4991,18,255.4991,14,251.4991" style="stroke:#B38D22;stroke-width:1.0;"/><text fill="#000000" font-family="sans-serif" font-size="14" lengthAdjust="spacing" textLength="104" x="27" y="255.6051">doorTop(): Point</text><polygon fill="#FFFF44" points="18,264.299,22,268.299,18,272.299,14,268.299" style="stroke:#B38D22;stroke-width:1.0;"/><text fill="#000000" font-family="sans-serif" font-size="14" lengthAdjust="spacing" textLength="124" x="27" y="272.405">doorBottom(): Point</text><polygon fill="#FFFF44" points="18,281.0989,22,285.0989,18,289.0989,14,285.0989" style="stroke:#B38D22;stroke-width:1.0;"/><text fill="#000000" font-family="sans-serif" font-size="14" lengthAdjust="spacing" textLength="103" x="27" y="289.2049">doorLeft(): Point</text><polygon fill="#FFFF44" points="18,297.8989,22,301.8989,18,305.8989,14,301.8989" style="stroke:#B38D22;stroke-width:1.0;"/><text fill="#000000" font-family="sans-serif" font-size="14" lengthAdjust="spacing" textLength="112" x="27" y="306.0048">doorRight(): Point</text><polygon fill="#FFFF44" points="18,314.6988,22,318.6988,18,322.6988,14,318.6988" style="stroke:#B38D22;stroke-width:1.0;"/><text fill="#000000" font-family="sans-serif" font-size="14" lengthAdjust="spacing" textLength="156" x="27" y="322.8048">generateEnemies(): void</text><ellipse cx="18" cy="336.4987" fill="#84BE84" rx="3" ry="3" style="stroke:#038048;stroke-width:1.0;"/><text fill="#000000" font-family="sans-serif" font-size="14" lengthAdjust="spacing" textLength="113" x="27" y="339.6047">clearRoom(): void</text><polygon fill="#FFFF44" points="18,348.2986,22,352.2986,18,356.2986,14,352.2986" style="stroke:#B38D22;stroke-width:1.0;"/><text fill="#000000" font-family="sans-serif" font-size="14" lengthAdjust="spacing" textLength="126" x="27" y="356.4046">generateBed(): void</text><polygon fill="#FFFF44" points="18,365.0986,22,369.0986,18,373.0986,14,369.0986" style="stroke:#B38D22;stroke-width:1.0;"/><text fill="#000000" font-family="sans-serif" font-size="14" lengthAdjust="spacing" textLength="131" x="27" y="373.2045">generateTiles(): void</text><polygon fill="#FFFF44" points="18,381.8985,22,385.8985,18,389.8985,14,385.8985" style="stroke:#B38D22;stroke-width:1.0;"/><text fill="#000000" font-family="sans-serif" font-size="14" lengthAdjust="spacing" textLength="139" x="27" y="390.0045">generateDoors(): void</text><ellipse cx="18" cy="403.6984" fill="#84BE84" rx="3" ry="3" style="stroke:#038048;stroke-width:1.0;"/><text fill="#000000" font-family="sans-serif" font-size="14" lengthAdjust="spacing" textLength="125" x="27" y="406.8044">GetTile(int, int): Tile</text><ellipse cx="18" cy="420.4983" fill="#84BE84" rx="3" ry="3" style="stroke:#038048;stroke-width:1.0;"/><text fill="#000000" font-family="sans-serif" font-size="14" lengthAdjust="spacing" textLength="147" x="27" y="423.6043">setTile(int, int, int): void</text><ellipse cx="18" cy="437.2983" fill="#84BE84" rx="3" ry="3" style="stroke:#038048;stroke-width:1.0;"/><text fill="#000000" font-family="sans-serif" font-size="14" lengthAdjust="spacing" textLength="167" x="27" y="440.4042">getTileUnsafe(int, int): Tile</text><ellipse cx="18" cy="454.0982" fill="#84BE84" rx="3" ry="3" style="stroke:#038048;stroke-width:1.0;"/><text fill="#000000" font-family="sans-serif" font-size="14" lengthAdjust="spacing" textLength="122" x="27" y="457.2042">getTile(int, int): Tile</text><ellipse cx="18" cy="470.8981" fill="#84BE84" rx="3" ry="3" style="stroke:#038048;stroke-width:1.0;"/><text fill="#000000" font-family="sans-serif" font-size="14" lengthAdjust="spacing" textLength="136" x="27" y="474.0041">useDoor(int, int): void</text></g></a><text fill="#888888" font-family="sans-serif" font-size="10" lengthAdjust="spacing" textLength="179" x="69" y="498.0881">UMLDoclet 2.1.0, PlantUML 1.2022.14</text><!--SRC=[XLFBJiCm4Bpp5IiGKYgg212dgEgXl2v5Wb1EfGVJR1ABn1lPswA2-7VMQS6qIY67n9uPxypQ3W20GmQZQdIDckCZDieg9Wk631u83QNE4B1kU0MvnYfpksYDN9B0BJwlb7DmE73w7PEpYs5AL3-RpVHqk5p6TwfnXw0SRCQnby1qwZznoNKrcy57Myi_Hsywup81RJXW9UgYv6tmX7M5hiMcio2rocG9fFAcEg1vHMHJp1EuyQDGf24fSK_RXKkiSSSC3TRQsrsIcI-iHSDZRLunUrZW0WVNGg-6GQxTPONAeaHv8PAX2PplEsfZzDVElL_MgmQZNWAFRBKfGlvCr1DgFBKTjcL6n2mrkyanvho7IlskTd25T2kN0g_NJNl5adGMOivzSsqVkzJFsX5c-yc9Fxhzz9Lawt2zHVOB8ydQzwSZ0ZyF0hSZ-5PjbodMgYVZLFv7iU8_juLhWqPTHf-RdqEk2Lh8YVpdwMvyHR9r3EVnMNmgfryfmuB2yHAjqsIYtXS0]--></g></svg>