<?xml version="1.0" encoding="UTF-8" standalone="no"?><svg xmlns="http://www.w3.org/2000/svg" xmlns:xlink="http://www.w3.org/1999/xlink" contentStyleType="text/css" height="296px" preserveAspectRatio="none" style="width:198px;height:296px;background:#FFFFFF;" version="1.1" viewBox="0 0 198 296" width="198px" zoomAndPan="magnify"><defs/><g><!--class vv.Maps.WideRoom--><a href="WideRoom.html" target="_top" title="WideRoom.html" xlink:actuate="onRequest" xlink:href="WideRoom.html" xlink:show="new" xlink:title="WideRoom.html" xlink:type="simple"><g id="elem_vv.Maps.WideRoom"><rect codeLine="5" fill="#F1F1F1" height="164.3994" id="vv.Maps.WideRoom" rx="2.5" ry="2.5" style="stroke:#181818;stroke-width:0.5;" width="182" x="9" y="105.8"/><ellipse cx="60.75" cy="125.2" fill="#ADD1B2" rx="11" ry="11" style="stroke:#181818;stroke-width:1.0;"/><path d="M55.75,126.3562 C55.75,128.8562 57.8906,130.6687 60.8125,130.6687 C62.0469,130.6687 63.2188,130.3718 63.9688,129.8562 C64.5781,129.4343 64.9063,129.0125 64.9063,128.6062 C64.9063,128.1375 64.4844,127.7312 63.9844,127.7312 C63.75,127.7312 63.5313,127.8093 63.3281,128.0125 C62.8906,128.45 62.8906,128.45 62.7188,128.5437 C62.2656,128.7781 61.625,128.9187 60.8594,128.9187 C58.8594,128.9187 57.5781,127.9031 57.5781,126.325 L57.5781,125.2781 C57.5781,123.575 58.7969,122.3718 60.5,122.3718 C61.0781,122.3718 61.6563,122.5125 62.125,122.7625 C62.5938,123.0281 62.7656,123.2156 62.8281,123.575 C62.9531,124.2468 63.2031,124.4968 63.7344,124.4968 C64.0156,124.4968 64.2969,124.3562 64.4844,124.1375 C64.6094,123.9656 64.6563,123.7937 64.6563,123.3562 L64.6563,121.9968 C64.6563,121.575 64.6406,121.4343 64.5156,121.2625 C64.3438,121.0125 64.0625,120.8562 63.7344,120.8562 C63.4219,120.8562 63.2188,120.9656 63,121.2312 C61.8281,120.7312 61.3906,120.6218 60.4375,120.6218 C57.7656,120.6218 55.75,122.6375 55.75,125.2625 L55.75,126.3562 Z " fill="#000000"/><text fill="#000000" font-family="sans-serif" font-size="14" lengthAdjust="spacing" textLength="70" x="81.25" y="123.8059">WideRoom</text><text fill="#000000" font-family="sans-serif" font-size="10" lengthAdjust="spacing" textLength="38" x="97.25" y="136.8899">vv.Maps</text><line style="stroke:#181818;stroke-width:0.5;" x1="10" x2="190" y1="144.5999" y2="144.5999"/><ellipse cx="20" cy="158.4999" fill="#84BE84" rx="3" ry="3" style="stroke:#038048;stroke-width:1.0;"/><text fill="#000000" font-family="sans-serif" font-size="14" lengthAdjust="spacing" textLength="153" x="29" y="161.6059">WideRoom(Floor, Point)</text><ellipse cx="20" cy="175.2998" fill="#84BE84" rx="3" ry="3" style="stroke:#038048;stroke-width:1.0;"/><text fill="#000000" font-family="sans-serif" font-size="14" lengthAdjust="spacing" textLength="82" x="29" y="178.4058">type(): String</text><polygon fill="#FFFF44" points="20,187.0997,24,191.0997,20,195.0997,16,191.0997" style="stroke:#B38D22;stroke-width:1.0;"/><text fill="#000000" font-family="sans-serif" font-size="14" lengthAdjust="spacing" textLength="104" x="29" y="195.2057">doorTop(): Point</text><polygon fill="#FFFF44" points="20,203.8997,24,207.8997,20,211.8997,16,207.8997" style="stroke:#B38D22;stroke-width:1.0;"/><text fill="#000000" font-family="sans-serif" font-size="14" lengthAdjust="spacing" textLength="124" x="29" y="212.0056">doorBottom(): Point</text><polygon fill="#FFFF44" points="20,220.6996,24,224.6996,20,228.6996,16,224.6996" style="stroke:#B38D22;stroke-width:1.0;"/><text fill="#000000" font-family="sans-serif" font-size="14" lengthAdjust="spacing" textLength="156" x="29" y="228.8056">generateEnemies(): void</text><polygon fill="#FFFF44" points="20,237.4995,24,241.4995,20,245.4995,16,241.4995" style="stroke:#B38D22;stroke-width:1.0;"/><text fill="#000000" font-family="sans-serif" font-size="14" lengthAdjust="spacing" textLength="126" x="29" y="245.6055">generateBed(): void</text><polygon fill="#FFFF44" points="20,254.2994,24,258.2994,20,262.2994,16,258.2994" style="stroke:#B38D22;stroke-width:1.0;"/><text fill="#000000" font-family="sans-serif" font-size="14" lengthAdjust="spacing" textLength="131" x="29" y="262.4054">generateTiles(): void</text></g></a><!--class vv.Maps.Room--><a href="Room.html" target="_top" title="Room.html" xlink:actuate="onRequest" xlink:href="Room.html" xlink:show="new" xlink:title="Room.html" xlink:type="simple"><g id="elem_vv.Maps.Room"><rect codeLine="15" fill="#F1F1F1" height="38.7999" id="vv.Maps.Room" rx="2.5" ry="2.5" style="stroke:#181818;stroke-width:0.5;" width="70" x="65" y="7"/><ellipse cx="80" cy="26.4" fill="#ADD1B2" rx="11" ry="11" style="stroke:#181818;stroke-width:1.0;"/><path d="M75,27.5562 C75,30.0562 77.1406,31.8687 80.0625,31.8687 C81.2969,31.8687 82.4688,31.5718 83.2188,31.0562 C83.8281,30.6343 84.1563,30.2125 84.1563,29.8062 C84.1563,29.3375 83.7344,28.9312 83.2344,28.9312 C83,28.9312 82.7813,29.0093 82.5781,29.2125 C82.1406,29.65 82.1406,29.65 81.9688,29.7437 C81.5156,29.9781 80.875,30.1187 80.1094,30.1187 C78.1094,30.1187 76.8281,29.1031 76.8281,27.525 L76.8281,26.4781 C76.8281,24.775 78.0469,23.5718 79.75,23.5718 C80.3281,23.5718 80.9063,23.7125 81.375,23.9625 C81.8438,24.2281 82.0156,24.4156 82.0781,24.775 C82.2031,25.4468 82.4531,25.6968 82.9844,25.6968 C83.2656,25.6968 83.5469,25.5562 83.7344,25.3375 C83.8594,25.1656 83.9063,24.9937 83.9063,24.5562 L83.9063,23.1968 C83.9063,22.775 83.8906,22.6343 83.7656,22.4625 C83.5938,22.2125 83.3125,22.0562 82.9844,22.0562 C82.6719,22.0562 82.4688,22.1656 82.25,22.4312 C81.0781,21.9312 80.6406,21.8218 79.6875,21.8218 C77.0156,21.8218 75,23.8375 75,26.4625 L75,27.5562 Z " fill="#000000"/><text fill="#000000" font-family="sans-serif" font-size="14" lengthAdjust="spacing" textLength="38" x="94" y="25.0059">Room</text><text fill="#000000" font-family="sans-serif" font-size="10" lengthAdjust="spacing" textLength="38" x="94" y="38.0899">vv.Maps</text></g></a><!--reverse link vv.Maps.Room to vv.Maps.WideRoom--><g id="link_vv.Maps.Room_vv.Maps.WideRoom"><path codeLine="17" d="M100,66.88 C100,78.66 100,92.02 100,105.45 " fill="none" id="vv.Maps.Room-backto-vv.Maps.WideRoom" style="stroke:#181818;stroke-width:1.0;"/><polygon fill="none" points="93,67.02,100,47.02,107,67.02,93,67.02" style="stroke:#181818;stroke-width:1.0;"/></g><text fill="#888888" font-family="sans-serif" font-size="10" lengthAdjust="spacing" textLength="179" x="2.5" y="285.4894">UMLDoclet 2.1.0, PlantUML 1.2022.14</text><!--SRC=[ZP5FImCn4CNlVegX8koYNLhnL4eFHJrP45lnK7i8kzDk89a9oR1G_tnti-kksgw2kMHulpSly0804520bCNWL8vBTCehOG_4X2SHGwaB1BHEzh3LQ8fmh5gKagFSwBbH8S1W6lGBJiPNiwVeUs2spzHAerbLPGlbmW1KW7REEXkirzsObMBDPWElJMvzpZkKt1fcVm7th4dIRovxXqawWQLuJRil_RI8xXMx6ZKhXsJE8Z6p3tT86Cl06qAhCTIEYdNHDyon-1kkj3dQVV-zgd_Kr5RqevxFg0C-VHiEUyMsJo89UjWorzVZukwQSnF__p8RPwFOfr4aKOMp2dtGJ4dw0G00]--></g></svg>