<?xml version="1.0" encoding="UTF-8" standalone="no"?><svg xmlns="http://www.w3.org/2000/svg" xmlns:xlink="http://www.w3.org/1999/xlink" contentStyleType="text/css" height="597px" preserveAspectRatio="none" style="width:4070px;height:597px;background:#FFFFFF;" version="1.1" viewBox="0 0 4070 597" width="4070px" zoomAndPan="magnify"><defs/><g><!--cluster vv.Tiles--><g id="cluster_vv.Tiles"><path d="M8.5,6.294 L62.5,6.294 A3.75,3.75 0 0 1 65,8.794 L72,29.0939 L4060.5,29.0939 A2.5,2.5 0 0 1 4063,31.5939 L4063,569.194 A2.5,2.5 0 0 1 4060.5,571.694 L8.5,571.694 A2.5,2.5 0 0 1 6,569.194 L6,8.794 A2.5,2.5 0 0 1 8.5,6.294 " fill="none" style="stroke:#000000;stroke-width:1.5;"/><line style="stroke:#000000;stroke-width:1.5;" x1="6" x2="72" y1="29.0939" y2="29.0939"/><text fill="#000000" font-family="sans-serif" font-size="14" font-weight="bold" lengthAdjust="spacing" textLength="53" x="10" y="21.2999">vv.Tiles</text></g><!--class vv.Tiles.WallWinterTile--><a href="WallWinterTile.html" target="_top" title="WallWinterTile.html" xlink:actuate="onRequest" xlink:href="WallWinterTile.html" xlink:show="new" xlink:title="WallWinterTile.html" xlink:type="simple"><g id="elem_vv.Tiles.WallWinterTile"><rect codeLine="3" fill="#F1F1F1" height="81.5999" id="vv.Tiles.WallWinterTile" rx="2.5" ry="2.5" style="stroke:#181818;stroke-width:0.5;" width="142" x="22" y="465.694"/><ellipse cx="45.55" cy="481.694" fill="#ADD1B2" rx="11" ry="11" style="stroke:#181818;stroke-width:1.0;"/><path d="M40.55,482.8502 C40.55,485.3502 42.6906,487.1627 45.6125,487.1627 C46.8469,487.1627 48.0188,486.8659 48.7688,486.3502 C49.3781,485.9284 49.7063,485.5065 49.7063,485.1002 C49.7063,484.6315 49.2844,484.2252 48.7844,484.2252 C48.55,484.2252 48.3313,484.3034 48.1281,484.5065 C47.6906,484.944 47.6906,484.944 47.5188,485.0377 C47.0656,485.2721 46.425,485.4127 45.6594,485.4127 C43.6594,485.4127 42.3781,484.3971 42.3781,482.819 L42.3781,481.7721 C42.3781,480.069 43.5969,478.8659 45.3,478.8659 C45.8781,478.8659 46.4563,479.0065 46.925,479.2565 C47.3938,479.5221 47.5656,479.7096 47.6281,480.069 C47.7531,480.7409 48.0031,480.9909 48.5344,480.9909 C48.8156,480.9909 49.0969,480.8502 49.2844,480.6315 C49.4094,480.4596 49.4563,480.2877 49.4563,479.8502 L49.4563,478.4909 C49.4563,478.069 49.4406,477.9284 49.3156,477.7565 C49.1438,477.5065 48.8625,477.3502 48.5344,477.3502 C48.2219,477.3502 48.0188,477.4596 47.8,477.7252 C46.6281,477.2252 46.1906,477.1159 45.2375,477.1159 C42.5656,477.1159 40.55,479.1315 40.55,481.7565 L40.55,482.8502 Z " fill="#000000"/><text fill="#000000" font-family="sans-serif" font-size="14" lengthAdjust="spacing" textLength="91" x="61.45" y="486.3">WallWinterTile</text><line style="stroke:#181818;stroke-width:0.5;" x1="23" x2="163" y1="497.694" y2="497.694"/><line style="stroke:#181818;stroke-width:0.5;" x1="23" x2="163" y1="505.694" y2="505.694"/><ellipse cx="33" cy="519.5939" fill="#84BE84" rx="3" ry="3" style="stroke:#038048;stroke-width:1.0;"/><text fill="#000000" font-family="sans-serif" font-size="14" lengthAdjust="spacing" textLength="116" x="42" y="522.6999">WallWinterTile(int)</text><ellipse cx="33" cy="536.3939" fill="#84BE84" rx="3" ry="3" style="stroke:#038048;stroke-width:1.0;"/><text fill="#000000" font-family="sans-serif" font-size="14" lengthAdjust="spacing" textLength="110" x="42" y="539.4999">isSolid(): boolean</text></g></a><!--class vv.Tiles.BedWinterTile--><a href="BedWinterTile.html" target="_top" title="BedWinterTile.html" xlink:actuate="onRequest" xlink:href="BedWinterTile.html" xlink:show="new" xlink:title="BedWinterTile.html" xlink:type="simple"><g id="elem_vv.Tiles.BedWinterTile"><rect codeLine="8" fill="#F1F1F1" height="98.3998" id="vv.Tiles.BedWinterTile" rx="2.5" ry="2.5" style="stroke:#181818;stroke-width:0.5;" width="140" x="199" y="457.294"/><ellipse cx="222.55" cy="473.294" fill="#ADD1B2" rx="11" ry="11" style="stroke:#181818;stroke-width:1.0;"/><path d="M217.55,474.4502 C217.55,476.9502 219.6906,478.7627 222.6125,478.7627 C223.8469,478.7627 225.0188,478.4659 225.7688,477.9502 C226.3781,477.5284 226.7063,477.1065 226.7063,476.7002 C226.7063,476.2315 226.2844,475.8252 225.7844,475.8252 C225.55,475.8252 225.3313,475.9034 225.1281,476.1065 C224.6906,476.544 224.6906,476.544 224.5188,476.6377 C224.0656,476.8721 223.425,477.0127 222.6594,477.0127 C220.6594,477.0127 219.3781,475.9971 219.3781,474.419 L219.3781,473.3721 C219.3781,471.669 220.5969,470.4659 222.3,470.4659 C222.8781,470.4659 223.4563,470.6065 223.925,470.8565 C224.3938,471.1221 224.5656,471.3096 224.6281,471.669 C224.7531,472.3409 225.0031,472.5909 225.5344,472.5909 C225.8156,472.5909 226.0969,472.4502 226.2844,472.2315 C226.4094,472.0596 226.4563,471.8877 226.4563,471.4502 L226.4563,470.0909 C226.4563,469.669 226.4406,469.5284 226.3156,469.3565 C226.1438,469.1065 225.8625,468.9502 225.5344,468.9502 C225.2219,468.9502 225.0188,469.0596 224.8,469.3252 C223.6281,468.8252 223.1906,468.7159 222.2375,468.7159 C219.5656,468.7159 217.55,470.7315 217.55,473.3565 L217.55,474.4502 Z " fill="#000000"/><text fill="#000000" font-family="sans-serif" font-size="14" lengthAdjust="spacing" textLength="89" x="238.45" y="477.9">BedWinterTile</text><line style="stroke:#181818;stroke-width:0.5;" x1="200" x2="338" y1="489.294" y2="489.294"/><line style="stroke:#181818;stroke-width:0.5;" x1="200" x2="338" y1="497.294" y2="497.294"/><ellipse cx="210" cy="511.1939" fill="#84BE84" rx="3" ry="3" style="stroke:#038048;stroke-width:1.0;"/><text fill="#000000" font-family="sans-serif" font-size="14" lengthAdjust="spacing" textLength="114" x="219" y="514.2999">BedWinterTile(int)</text><ellipse cx="210" cy="527.9939" fill="#84BE84" rx="3" ry="3" style="stroke:#038048;stroke-width:1.0;"/><text fill="#000000" font-family="sans-serif" font-size="14" lengthAdjust="spacing" textLength="110" x="219" y="531.0999">isSolid(): boolean</text><ellipse cx="210" cy="544.7938" fill="#84BE84" rx="3" ry="3" style="stroke:#038048;stroke-width:1.0;"/><text fill="#000000" font-family="sans-serif" font-size="14" lengthAdjust="spacing" textLength="104" x="219" y="547.8998">isBed(): boolean</text></g></a><!--class vv.Tiles.SpikesWinterTile--><a href="SpikesWinterTile.html" target="_top" title="SpikesWinterTile.html" xlink:actuate="onRequest" xlink:href="SpikesWinterTile.html" xlink:show="new" xlink:title="SpikesWinterTile.html" xlink:type="simple"><g id="elem_vv.Tiles.SpikesWinterTile"><rect codeLine="14" fill="#F1F1F1" height="81.5999" id="vv.Tiles.SpikesWinterTile" rx="2.5" ry="2.5" style="stroke:#181818;stroke-width:0.5;" width="175" x="374.5" y="465.694"/><ellipse cx="406.15" cy="481.694" fill="#ADD1B2" rx="11" ry="11" style="stroke:#181818;stroke-width:1.0;"/><path d="M401.15,482.8502 C401.15,485.3502 403.2906,487.1627 406.2125,487.1627 C407.4469,487.1627 408.6188,486.8659 409.3688,486.3502 C409.9781,485.9284 410.3063,485.5065 410.3063,485.1002 C410.3063,484.6315 409.8844,484.2252 409.3844,484.2252 C409.15,484.2252 408.9313,484.3034 408.7281,484.5065 C408.2906,484.944 408.2906,484.944 408.1188,485.0377 C407.6656,485.2721 407.025,485.4127 406.2594,485.4127 C404.2594,485.4127 402.9781,484.3971 402.9781,482.819 L402.9781,481.7721 C402.9781,480.069 404.1969,478.8659 405.9,478.8659 C406.4781,478.8659 407.0563,479.0065 407.525,479.2565 C407.9938,479.5221 408.1656,479.7096 408.2281,480.069 C408.3531,480.7409 408.6031,480.9909 409.1344,480.9909 C409.4156,480.9909 409.6969,480.8502 409.8844,480.6315 C410.0094,480.4596 410.0563,480.2877 410.0563,479.8502 L410.0563,478.4909 C410.0563,478.069 410.0406,477.9284 409.9156,477.7565 C409.7438,477.5065 409.4625,477.3502 409.1344,477.3502 C408.8219,477.3502 408.6188,477.4596 408.4,477.7252 C407.2281,477.2252 406.7906,477.1159 405.8375,477.1159 C403.1656,477.1159 401.15,479.1315 401.15,481.7565 L401.15,482.8502 Z " fill="#000000"/><text fill="#000000" font-family="sans-serif" font-size="14" lengthAdjust="spacing" textLength="106" x="423.85" y="486.3">SpikesWinterTile</text><line style="stroke:#181818;stroke-width:0.5;" x1="375.5" x2="548.5" y1="497.694" y2="497.694"/><line style="stroke:#181818;stroke-width:0.5;" x1="375.5" x2="548.5" y1="505.694" y2="505.694"/><ellipse cx="385.5" cy="519.5939" fill="#84BE84" rx="3" ry="3" style="stroke:#038048;stroke-width:1.0;"/><text fill="#000000" font-family="sans-serif" font-size="14" lengthAdjust="spacing" textLength="131" x="394.5" y="522.6999">SpikesWinterTile(int)</text><ellipse cx="385.5" cy="536.3939" fill="#84BE84" rx="3" ry="3" style="stroke:#038048;stroke-width:1.0;"/><text fill="#000000" font-family="sans-serif" font-size="14" lengthAdjust="spacing" textLength="149" x="394.5" y="539.4999">isDangerous(): boolean</text></g></a><!--class vv.Tiles.FloorTile--><a href="FloorTile.html" target="_top" title="FloorTile.html" xlink:actuate="onRequest" xlink:href="FloorTile.html" xlink:show="new" xlink:title="FloorTile.html" xlink:type="simple"><g id="elem_vv.Tiles.FloorTile"><rect codeLine="19" fill="#F1F1F1" height="81.5999" id="vv.Tiles.FloorTile" rx="2.5" ry="2.5" style="stroke:#181818;stroke-width:0.5;" width="136" x="585" y="465.694"/><ellipse cx="621.6" cy="481.694" fill="#ADD1B2" rx="11" ry="11" style="stroke:#181818;stroke-width:1.0;"/><path d="M616.6,482.8502 C616.6,485.3502 618.7406,487.1627 621.6625,487.1627 C622.8969,487.1627 624.0688,486.8659 624.8188,486.3502 C625.4281,485.9284 625.7563,485.5065 625.7563,485.1002 C625.7563,484.6315 625.3344,484.2252 624.8344,484.2252 C624.6,484.2252 624.3813,484.3034 624.1781,484.5065 C623.7406,484.944 623.7406,484.944 623.5688,485.0377 C623.1156,485.2721 622.475,485.4127 621.7094,485.4127 C619.7094,485.4127 618.4281,484.3971 618.4281,482.819 L618.4281,481.7721 C618.4281,480.069 619.6469,478.8659 621.35,478.8659 C621.9281,478.8659 622.5063,479.0065 622.975,479.2565 C623.4438,479.5221 623.6156,479.7096 623.6781,480.069 C623.8031,480.7409 624.0531,480.9909 624.5844,480.9909 C624.8656,480.9909 625.1469,480.8502 625.3344,480.6315 C625.4594,480.4596 625.5063,480.2877 625.5063,479.8502 L625.5063,478.4909 C625.5063,478.069 625.4906,477.9284 625.3656,477.7565 C625.1938,477.5065 624.9125,477.3502 624.5844,477.3502 C624.2719,477.3502 624.0688,477.4596 623.85,477.7252 C622.6781,477.2252 622.2406,477.1159 621.2875,477.1159 C618.6156,477.1159 616.6,479.1315 616.6,481.7565 L616.6,482.8502 Z " fill="#000000"/><text fill="#000000" font-family="sans-serif" font-size="14" lengthAdjust="spacing" textLength="56" x="640.4" y="486.3">FloorTile</text><line style="stroke:#181818;stroke-width:0.5;" x1="586" x2="720" y1="497.694" y2="497.694"/><line style="stroke:#181818;stroke-width:0.5;" x1="586" x2="720" y1="505.694" y2="505.694"/><ellipse cx="596" cy="519.5939" fill="#84BE84" rx="3" ry="3" style="stroke:#038048;stroke-width:1.0;"/><text fill="#000000" font-family="sans-serif" font-size="14" lengthAdjust="spacing" textLength="81" x="605" y="522.6999">FloorTile(int)</text><ellipse cx="596" cy="536.3939" fill="#84BE84" rx="3" ry="3" style="stroke:#038048;stroke-width:1.0;"/><text fill="#000000" font-family="sans-serif" font-size="14" lengthAdjust="spacing" textLength="110" x="605" y="539.4999">isSolid(): boolean</text></g></a><!--class vv.Tiles.BedBurningTile--><a href="BedBurningTile.html" target="_top" title="BedBurningTile.html" xlink:actuate="onRequest" xlink:href="BedBurningTile.html" xlink:show="new" xlink:title="BedBurningTile.html" xlink:type="simple"><g id="elem_vv.Tiles.BedBurningTile"><rect codeLine="24" fill="#F1F1F1" height="98.3998" id="vv.Tiles.BedBurningTile" rx="2.5" ry="2.5" style="stroke:#181818;stroke-width:0.5;" width="148" x="756" y="457.294"/><ellipse cx="779.55" cy="473.294" fill="#ADD1B2" rx="11" ry="11" style="stroke:#181818;stroke-width:1.0;"/><path d="M774.55,474.4502 C774.55,476.9502 776.6906,478.7627 779.6125,478.7627 C780.8469,478.7627 782.0188,478.4659 782.7688,477.9502 C783.3781,477.5284 783.7063,477.1065 783.7063,476.7002 C783.7063,476.2315 783.2844,475.8252 782.7844,475.8252 C782.55,475.8252 782.3313,475.9034 782.1281,476.1065 C781.6906,476.544 781.6906,476.544 781.5188,476.6377 C781.0656,476.8721 780.425,477.0127 779.6594,477.0127 C777.6594,477.0127 776.3781,475.9971 776.3781,474.419 L776.3781,473.3721 C776.3781,471.669 777.5969,470.4659 779.3,470.4659 C779.8781,470.4659 780.4563,470.6065 780.925,470.8565 C781.3938,471.1221 781.5656,471.3096 781.6281,471.669 C781.7531,472.3409 782.0031,472.5909 782.5344,472.5909 C782.8156,472.5909 783.0969,472.4502 783.2844,472.2315 C783.4094,472.0596 783.4563,471.8877 783.4563,471.4502 L783.4563,470.0909 C783.4563,469.669 783.4406,469.5284 783.3156,469.3565 C783.1438,469.1065 782.8625,468.9502 782.5344,468.9502 C782.2219,468.9502 782.0188,469.0596 781.8,469.3252 C780.6281,468.8252 780.1906,468.7159 779.2375,468.7159 C776.5656,468.7159 774.55,470.7315 774.55,473.3565 L774.55,474.4502 Z " fill="#000000"/><text fill="#000000" font-family="sans-serif" font-size="14" lengthAdjust="spacing" textLength="97" x="795.45" y="477.9">BedBurningTile</text><line style="stroke:#181818;stroke-width:0.5;" x1="757" x2="903" y1="489.294" y2="489.294"/><line style="stroke:#181818;stroke-width:0.5;" x1="757" x2="903" y1="497.294" y2="497.294"/><ellipse cx="767" cy="511.1939" fill="#84BE84" rx="3" ry="3" style="stroke:#038048;stroke-width:1.0;"/><text fill="#000000" font-family="sans-serif" font-size="14" lengthAdjust="spacing" textLength="122" x="776" y="514.2999">BedBurningTile(int)</text><ellipse cx="767" cy="527.9939" fill="#84BE84" rx="3" ry="3" style="stroke:#038048;stroke-width:1.0;"/><text fill="#000000" font-family="sans-serif" font-size="14" lengthAdjust="spacing" textLength="110" x="776" y="531.0999">isSolid(): boolean</text><ellipse cx="767" cy="544.7938" fill="#84BE84" rx="3" ry="3" style="stroke:#038048;stroke-width:1.0;"/><text fill="#000000" font-family="sans-serif" font-size="14" lengthAdjust="spacing" textLength="104" x="776" y="547.8998">isBed(): boolean</text></g></a><!--class vv.Tiles.SpikesTile--><a href="SpikesTile.html" target="_top" title="SpikesTile.html" xlink:actuate="onRequest" xlink:href="SpikesTile.html" xlink:show="new" xlink:title="SpikesTile.html" xlink:type="simple"><g id="elem_vv.Tiles.SpikesTile"><rect codeLine="30" fill="#F1F1F1" height="81.5999" id="vv.Tiles.SpikesTile" rx="2.5" ry="2.5" style="stroke:#181818;stroke-width:0.5;" width="175" x="939.5" y="465.694"/><ellipse cx="990.25" cy="481.694" fill="#ADD1B2" rx="11" ry="11" style="stroke:#181818;stroke-width:1.0;"/><path d="M985.25,482.8502 C985.25,485.3502 987.3906,487.1627 990.3125,487.1627 C991.5469,487.1627 992.7188,486.8659 993.4688,486.3502 C994.0781,485.9284 994.4063,485.5065 994.4063,485.1002 C994.4063,484.6315 993.9844,484.2252 993.4844,484.2252 C993.25,484.2252 993.0313,484.3034 992.8281,484.5065 C992.3906,484.944 992.3906,484.944 992.2188,485.0377 C991.7656,485.2721 991.125,485.4127 990.3594,485.4127 C988.3594,485.4127 987.0781,484.3971 987.0781,482.819 L987.0781,481.7721 C987.0781,480.069 988.2969,478.8659 990,478.8659 C990.5781,478.8659 991.1563,479.0065 991.625,479.2565 C992.0938,479.5221 992.2656,479.7096 992.3281,480.069 C992.4531,480.7409 992.7031,480.9909 993.2344,480.9909 C993.5156,480.9909 993.7969,480.8502 993.9844,480.6315 C994.1094,480.4596 994.1563,480.2877 994.1563,479.8502 L994.1563,478.4909 C994.1563,478.069 994.1406,477.9284 994.0156,477.7565 C993.8438,477.5065 993.5625,477.3502 993.2344,477.3502 C992.9219,477.3502 992.7188,477.4596 992.5,477.7252 C991.3281,477.2252 990.8906,477.1159 989.9375,477.1159 C987.2656,477.1159 985.25,479.1315 985.25,481.7565 L985.25,482.8502 Z " fill="#000000"/><text fill="#000000" font-family="sans-serif" font-size="14" lengthAdjust="spacing" textLength="65" x="1010.75" y="486.3">SpikesTile</text><line style="stroke:#181818;stroke-width:0.5;" x1="940.5" x2="1113.5" y1="497.694" y2="497.694"/><line style="stroke:#181818;stroke-width:0.5;" x1="940.5" x2="1113.5" y1="505.694" y2="505.694"/><ellipse cx="950.5" cy="519.5939" fill="#84BE84" rx="3" ry="3" style="stroke:#038048;stroke-width:1.0;"/><text fill="#000000" font-family="sans-serif" font-size="14" lengthAdjust="spacing" textLength="90" x="959.5" y="522.6999">SpikesTile(int)</text><ellipse cx="950.5" cy="536.3939" fill="#84BE84" rx="3" ry="3" style="stroke:#038048;stroke-width:1.0;"/><text fill="#000000" font-family="sans-serif" font-size="14" lengthAdjust="spacing" textLength="149" x="959.5" y="539.4999">isDangerous(): boolean</text></g></a><!--class vv.Tiles.BedTile--><a href="BedTile.html" target="_top" title="BedTile.html" xlink:actuate="onRequest" xlink:href="BedTile.html" xlink:show="new" xlink:title="BedTile.html" xlink:type="simple"><g id="elem_vv.Tiles.BedTile"><rect codeLine="35" fill="#F1F1F1" height="98.3998" id="vv.Tiles.BedTile" rx="2.5" ry="2.5" style="stroke:#181818;stroke-width:0.5;" width="136" x="1150" y="457.294"/><ellipse cx="1190.2" cy="473.294" fill="#ADD1B2" rx="11" ry="11" style="stroke:#181818;stroke-width:1.0;"/><path d="M1185.2,474.4502 C1185.2,476.9502 1187.3406,478.7627 1190.2625,478.7627 C1191.4969,478.7627 1192.6688,478.4659 1193.4188,477.9502 C1194.0281,477.5284 1194.3563,477.1065 1194.3563,476.7002 C1194.3563,476.2315 1193.9344,475.8252 1193.4344,475.8252 C1193.2,475.8252 1192.9813,475.9034 1192.7781,476.1065 C1192.3406,476.544 1192.3406,476.544 1192.1688,476.6377 C1191.7156,476.8721 1191.075,477.0127 1190.3094,477.0127 C1188.3094,477.0127 1187.0281,475.9971 1187.0281,474.419 L1187.0281,473.3721 C1187.0281,471.669 1188.2469,470.4659 1189.95,470.4659 C1190.5281,470.4659 1191.1063,470.6065 1191.575,470.8565 C1192.0438,471.1221 1192.2156,471.3096 1192.2781,471.669 C1192.4031,472.3409 1192.6531,472.5909 1193.1844,472.5909 C1193.4656,472.5909 1193.7469,472.4502 1193.9344,472.2315 C1194.0594,472.0596 1194.1063,471.8877 1194.1063,471.4502 L1194.1063,470.0909 C1194.1063,469.669 1194.0906,469.5284 1193.9656,469.3565 C1193.7938,469.1065 1193.5125,468.9502 1193.1844,468.9502 C1192.8719,468.9502 1192.6688,469.0596 1192.45,469.3252 C1191.2781,468.8252 1190.8406,468.7159 1189.8875,468.7159 C1187.2156,468.7159 1185.2,470.7315 1185.2,473.3565 L1185.2,474.4502 Z " fill="#000000"/><text fill="#000000" font-family="sans-serif" font-size="14" lengthAdjust="spacing" textLength="48" x="1209.8" y="477.9">BedTile</text><line style="stroke:#181818;stroke-width:0.5;" x1="1151" x2="1285" y1="489.294" y2="489.294"/><line style="stroke:#181818;stroke-width:0.5;" x1="1151" x2="1285" y1="497.294" y2="497.294"/><ellipse cx="1161" cy="511.1939" fill="#84BE84" rx="3" ry="3" style="stroke:#038048;stroke-width:1.0;"/><text fill="#000000" font-family="sans-serif" font-size="14" lengthAdjust="spacing" textLength="73" x="1170" y="514.2999">BedTile(int)</text><ellipse cx="1161" cy="527.9939" fill="#84BE84" rx="3" ry="3" style="stroke:#038048;stroke-width:1.0;"/><text fill="#000000" font-family="sans-serif" font-size="14" lengthAdjust="spacing" textLength="110" x="1170" y="531.0999">isSolid(): boolean</text><ellipse cx="1161" cy="544.7938" fill="#84BE84" rx="3" ry="3" style="stroke:#038048;stroke-width:1.0;"/><text fill="#000000" font-family="sans-serif" font-size="14" lengthAdjust="spacing" textLength="104" x="1170" y="547.8998">isBed(): boolean</text></g></a><!--class vv.Tiles.BlackTile--><a href="BlackTile.html" target="_top" title="BlackTile.html" xlink:actuate="onRequest" xlink:href="BlackTile.html" xlink:show="new" xlink:title="BlackTile.html" xlink:type="simple"><g id="elem_vv.Tiles.BlackTile"><rect codeLine="41" fill="#F1F1F1" height="81.5999" id="vv.Tiles.BlackTile" rx="2.5" ry="2.5" style="stroke:#181818;stroke-width:0.5;" width="136" x="1321" y="465.694"/><ellipse cx="1357.15" cy="481.694" fill="#ADD1B2" rx="11" ry="11" style="stroke:#181818;stroke-width:1.0;"/><path d="M1352.15,482.8502 C1352.15,485.3502 1354.2906,487.1627 1357.2125,487.1627 C1358.4469,487.1627 1359.6188,486.8659 1360.3688,486.3502 C1360.9781,485.9284 1361.3063,485.5065 1361.3063,485.1002 C1361.3063,484.6315 1360.8844,484.2252 1360.3844,484.2252 C1360.15,484.2252 1359.9313,484.3034 1359.7281,484.5065 C1359.2906,484.944 1359.2906,484.944 1359.1188,485.0377 C1358.6656,485.2721 1358.025,485.4127 1357.2594,485.4127 C1355.2594,485.4127 1353.9781,484.3971 1353.9781,482.819 L1353.9781,481.7721 C1353.9781,480.069 1355.1969,478.8659 1356.9,478.8659 C1357.4781,478.8659 1358.0563,479.0065 1358.525,479.2565 C1358.9938,479.5221 1359.1656,479.7096 1359.2281,480.069 C1359.3531,480.7409 1359.6031,480.9909 1360.1344,480.9909 C1360.4156,480.9909 1360.6969,480.8502 1360.8844,480.6315 C1361.0094,480.4596 1361.0563,480.2877 1361.0563,479.8502 L1361.0563,478.4909 C1361.0563,478.069 1361.0406,477.9284 1360.9156,477.7565 C1360.7438,477.5065 1360.4625,477.3502 1360.1344,477.3502 C1359.8219,477.3502 1359.6188,477.4596 1359.4,477.7252 C1358.2281,477.2252 1357.7906,477.1159 1356.8375,477.1159 C1354.1656,477.1159 1352.15,479.1315 1352.15,481.7565 L1352.15,482.8502 Z " fill="#000000"/><text fill="#000000" font-family="sans-serif" font-size="14" lengthAdjust="spacing" textLength="57" x="1375.85" y="486.3">BlackTile</text><line style="stroke:#181818;stroke-width:0.5;" x1="1322" x2="1456" y1="497.694" y2="497.694"/><line style="stroke:#181818;stroke-width:0.5;" x1="1322" x2="1456" y1="505.694" y2="505.694"/><ellipse cx="1332" cy="519.5939" fill="#84BE84" rx="3" ry="3" style="stroke:#038048;stroke-width:1.0;"/><text fill="#000000" font-family="sans-serif" font-size="14" lengthAdjust="spacing" textLength="82" x="1341" y="522.6999">BlackTile(int)</text><ellipse cx="1332" cy="536.3939" fill="#84BE84" rx="3" ry="3" style="stroke:#038048;stroke-width:1.0;"/><text fill="#000000" font-family="sans-serif" font-size="14" lengthAdjust="spacing" textLength="110" x="1341" y="539.4999">isSolid(): boolean</text></g></a><!--class vv.Tiles.RockBurningTile--><a href="RockBurningTile.html" target="_top" title="RockBurningTile.html" xlink:actuate="onRequest" xlink:href="RockBurningTile.html" xlink:show="new" xlink:title="RockBurningTile.html" xlink:type="simple"><g id="elem_vv.Tiles.RockBurningTile"><rect codeLine="46" fill="#F1F1F1" height="81.5999" id="vv.Tiles.RockBurningTile" rx="2.5" ry="2.5" style="stroke:#181818;stroke-width:0.5;" width="155" x="1492.5" y="465.694"/><ellipse cx="1516.05" cy="481.694" fill="#ADD1B2" rx="11" ry="11" style="stroke:#181818;stroke-width:1.0;"/><path d="M1511.05,482.8502 C1511.05,485.3502 1513.1906,487.1627 1516.1125,487.1627 C1517.3469,487.1627 1518.5188,486.8659 1519.2688,486.3502 C1519.8781,485.9284 1520.2063,485.5065 1520.2063,485.1002 C1520.2063,484.6315 1519.7844,484.2252 1519.2844,484.2252 C1519.05,484.2252 1518.8313,484.3034 1518.6281,484.5065 C1518.1906,484.944 1518.1906,484.944 1518.0188,485.0377 C1517.5656,485.2721 1516.925,485.4127 1516.1594,485.4127 C1514.1594,485.4127 1512.8781,484.3971 1512.8781,482.819 L1512.8781,481.7721 C1512.8781,480.069 1514.0969,478.8659 1515.8,478.8659 C1516.3781,478.8659 1516.9563,479.0065 1517.425,479.2565 C1517.8938,479.5221 1518.0656,479.7096 1518.1281,480.069 C1518.2531,480.7409 1518.5031,480.9909 1519.0344,480.9909 C1519.3156,480.9909 1519.5969,480.8502 1519.7844,480.6315 C1519.9094,480.4596 1519.9563,480.2877 1519.9563,479.8502 L1519.9563,478.4909 C1519.9563,478.069 1519.9406,477.9284 1519.8156,477.7565 C1519.6438,477.5065 1519.3625,477.3502 1519.0344,477.3502 C1518.7219,477.3502 1518.5188,477.4596 1518.3,477.7252 C1517.1281,477.2252 1516.6906,477.1159 1515.7375,477.1159 C1513.0656,477.1159 1511.05,479.1315 1511.05,481.7565 L1511.05,482.8502 Z " fill="#000000"/><text fill="#000000" font-family="sans-serif" font-size="14" lengthAdjust="spacing" textLength="104" x="1531.95" y="486.3">RockBurningTile</text><line style="stroke:#181818;stroke-width:0.5;" x1="1493.5" x2="1646.5" y1="497.694" y2="497.694"/><line style="stroke:#181818;stroke-width:0.5;" x1="1493.5" x2="1646.5" y1="505.694" y2="505.694"/><ellipse cx="1503.5" cy="519.5939" fill="#84BE84" rx="3" ry="3" style="stroke:#038048;stroke-width:1.0;"/><text fill="#000000" font-family="sans-serif" font-size="14" lengthAdjust="spacing" textLength="129" x="1512.5" y="522.6999">RockBurningTile(int)</text><ellipse cx="1503.5" cy="536.3939" fill="#84BE84" rx="3" ry="3" style="stroke:#038048;stroke-width:1.0;"/><text fill="#000000" font-family="sans-serif" font-size="14" lengthAdjust="spacing" textLength="110" x="1512.5" y="539.4999">isSolid(): boolean</text></g></a><!--class vv.Tiles.WaterWinterTile--><a href="WaterWinterTile.html" target="_top" title="WaterWinterTile.html" xlink:actuate="onRequest" xlink:href="WaterWinterTile.html" xlink:show="new" xlink:title="WaterWinterTile.html" xlink:type="simple"><g id="elem_vv.Tiles.WaterWinterTile"><rect codeLine="51" fill="#F1F1F1" height="81.5999" id="vv.Tiles.WaterWinterTile" rx="2.5" ry="2.5" style="stroke:#181818;stroke-width:0.5;" width="153" x="1682.5" y="465.694"/><ellipse cx="1706.05" cy="481.694" fill="#ADD1B2" rx="11" ry="11" style="stroke:#181818;stroke-width:1.0;"/><path d="M1701.05,482.8502 C1701.05,485.3502 1703.1906,487.1627 1706.1125,487.1627 C1707.3469,487.1627 1708.5188,486.8659 1709.2688,486.3502 C1709.8781,485.9284 1710.2063,485.5065 1710.2063,485.1002 C1710.2063,484.6315 1709.7844,484.2252 1709.2844,484.2252 C1709.05,484.2252 1708.8313,484.3034 1708.6281,484.5065 C1708.1906,484.944 1708.1906,484.944 1708.0188,485.0377 C1707.5656,485.2721 1706.925,485.4127 1706.1594,485.4127 C1704.1594,485.4127 1702.8781,484.3971 1702.8781,482.819 L1702.8781,481.7721 C1702.8781,480.069 1704.0969,478.8659 1705.8,478.8659 C1706.3781,478.8659 1706.9563,479.0065 1707.425,479.2565 C1707.8938,479.5221 1708.0656,479.7096 1708.1281,480.069 C1708.2531,480.7409 1708.5031,480.9909 1709.0344,480.9909 C1709.3156,480.9909 1709.5969,480.8502 1709.7844,480.6315 C1709.9094,480.4596 1709.9563,480.2877 1709.9563,479.8502 L1709.9563,478.4909 C1709.9563,478.069 1709.9406,477.9284 1709.8156,477.7565 C1709.6438,477.5065 1709.3625,477.3502 1709.0344,477.3502 C1708.7219,477.3502 1708.5188,477.4596 1708.3,477.7252 C1707.1281,477.2252 1706.6906,477.1159 1705.7375,477.1159 C1703.0656,477.1159 1701.05,479.1315 1701.05,481.7565 L1701.05,482.8502 Z " fill="#000000"/><text fill="#000000" font-family="sans-serif" font-size="14" lengthAdjust="spacing" textLength="102" x="1721.95" y="486.3">WaterWinterTile</text><line style="stroke:#181818;stroke-width:0.5;" x1="1683.5" x2="1834.5" y1="497.694" y2="497.694"/><line style="stroke:#181818;stroke-width:0.5;" x1="1683.5" x2="1834.5" y1="505.694" y2="505.694"/><ellipse cx="1693.5" cy="519.5939" fill="#84BE84" rx="3" ry="3" style="stroke:#038048;stroke-width:1.0;"/><text fill="#000000" font-family="sans-serif" font-size="14" lengthAdjust="spacing" textLength="127" x="1702.5" y="522.6999">WaterWinterTile(int)</text><ellipse cx="1693.5" cy="536.3939" fill="#84BE84" rx="3" ry="3" style="stroke:#038048;stroke-width:1.0;"/><text fill="#000000" font-family="sans-serif" font-size="14" lengthAdjust="spacing" textLength="117" x="1702.5" y="539.4999">isWater(): boolean</text></g></a><!--class vv.Tiles.RockTile--><a href="RockTile.html" target="_top" title="RockTile.html" xlink:actuate="onRequest" xlink:href="RockTile.html" xlink:show="new" xlink:title="RockTile.html" xlink:type="simple"><g id="elem_vv.Tiles.RockTile"><rect codeLine="56" fill="#F1F1F1" height="81.5999" id="vv.Tiles.RockTile" rx="2.5" ry="2.5" style="stroke:#181818;stroke-width:0.5;" width="136" x="1871" y="465.694"/><ellipse cx="1908.05" cy="481.694" fill="#ADD1B2" rx="11" ry="11" style="stroke:#181818;stroke-width:1.0;"/><path d="M1903.05,482.8502 C1903.05,485.3502 1905.1906,487.1627 1908.1125,487.1627 C1909.3469,487.1627 1910.5188,486.8659 1911.2688,486.3502 C1911.8781,485.9284 1912.2063,485.5065 1912.2063,485.1002 C1912.2063,484.6315 1911.7844,484.2252 1911.2844,484.2252 C1911.05,484.2252 1910.8313,484.3034 1910.6281,484.5065 C1910.1906,484.944 1910.1906,484.944 1910.0188,485.0377 C1909.5656,485.2721 1908.925,485.4127 1908.1594,485.4127 C1906.1594,485.4127 1904.8781,484.3971 1904.8781,482.819 L1904.8781,481.7721 C1904.8781,480.069 1906.0969,478.8659 1907.8,478.8659 C1908.3781,478.8659 1908.9563,479.0065 1909.425,479.2565 C1909.8938,479.5221 1910.0656,479.7096 1910.1281,480.069 C1910.2531,480.7409 1910.5031,480.9909 1911.0344,480.9909 C1911.3156,480.9909 1911.5969,480.8502 1911.7844,480.6315 C1911.9094,480.4596 1911.9563,480.2877 1911.9563,479.8502 L1911.9563,478.4909 C1911.9563,478.069 1911.9406,477.9284 1911.8156,477.7565 C1911.6438,477.5065 1911.3625,477.3502 1911.0344,477.3502 C1910.7219,477.3502 1910.5188,477.4596 1910.3,477.7252 C1909.1281,477.2252 1908.6906,477.1159 1907.7375,477.1159 C1905.0656,477.1159 1903.05,479.1315 1903.05,481.7565 L1903.05,482.8502 Z " fill="#000000"/><text fill="#000000" font-family="sans-serif" font-size="14" lengthAdjust="spacing" textLength="55" x="1926.95" y="486.3">RockTile</text><line style="stroke:#181818;stroke-width:0.5;" x1="1872" x2="2006" y1="497.694" y2="497.694"/><line style="stroke:#181818;stroke-width:0.5;" x1="1872" x2="2006" y1="505.694" y2="505.694"/><ellipse cx="1882" cy="519.5939" fill="#84BE84" rx="3" ry="3" style="stroke:#038048;stroke-width:1.0;"/><text fill="#000000" font-family="sans-serif" font-size="14" lengthAdjust="spacing" textLength="80" x="1891" y="522.6999">RockTile(int)</text><ellipse cx="1882" cy="536.3939" fill="#84BE84" rx="3" ry="3" style="stroke:#038048;stroke-width:1.0;"/><text fill="#000000" font-family="sans-serif" font-size="14" lengthAdjust="spacing" textLength="110" x="1891" y="539.4999">isSolid(): boolean</text></g></a><!--class vv.Tiles.FloorBurningTile--><a href="FloorBurningTile.html" target="_top" title="FloorBurningTile.html" xlink:actuate="onRequest" xlink:href="FloorBurningTile.html" xlink:show="new" xlink:title="FloorBurningTile.html" xlink:type="simple"><g id="elem_vv.Tiles.FloorBurningTile"><rect codeLine="61" fill="#F1F1F1" height="81.5999" id="vv.Tiles.FloorBurningTile" rx="2.5" ry="2.5" style="stroke:#181818;stroke-width:0.5;" width="156" x="2042" y="465.694"/><ellipse cx="2065.55" cy="481.694" fill="#ADD1B2" rx="11" ry="11" style="stroke:#181818;stroke-width:1.0;"/><path d="M2060.55,482.8502 C2060.55,485.3502 2062.6906,487.1627 2065.6125,487.1627 C2066.8469,487.1627 2068.0188,486.8659 2068.7688,486.3502 C2069.3781,485.9284 2069.7063,485.5065 2069.7063,485.1002 C2069.7063,484.6315 2069.2844,484.2252 2068.7844,484.2252 C2068.55,484.2252 2068.3313,484.3034 2068.1281,484.5065 C2067.6906,484.944 2067.6906,484.944 2067.5188,485.0377 C2067.0656,485.2721 2066.425,485.4127 2065.6594,485.4127 C2063.6594,485.4127 2062.3781,484.3971 2062.3781,482.819 L2062.3781,481.7721 C2062.3781,480.069 2063.5969,478.8659 2065.3,478.8659 C2065.8781,478.8659 2066.4563,479.0065 2066.925,479.2565 C2067.3938,479.5221 2067.5656,479.7096 2067.6281,480.069 C2067.7531,480.7409 2068.0031,480.9909 2068.5344,480.9909 C2068.8156,480.9909 2069.0969,480.8502 2069.2844,480.6315 C2069.4094,480.4596 2069.4563,480.2877 2069.4563,479.8502 L2069.4563,478.4909 C2069.4563,478.069 2069.4406,477.9284 2069.3156,477.7565 C2069.1438,477.5065 2068.8625,477.3502 2068.5344,477.3502 C2068.2219,477.3502 2068.0188,477.4596 2067.8,477.7252 C2066.6281,477.2252 2066.1906,477.1159 2065.2375,477.1159 C2062.5656,477.1159 2060.55,479.1315 2060.55,481.7565 L2060.55,482.8502 Z " fill="#000000"/><text fill="#000000" font-family="sans-serif" font-size="14" lengthAdjust="spacing" textLength="105" x="2081.45" y="486.3">FloorBurningTile</text><line style="stroke:#181818;stroke-width:0.5;" x1="2043" x2="2197" y1="497.694" y2="497.694"/><line style="stroke:#181818;stroke-width:0.5;" x1="2043" x2="2197" y1="505.694" y2="505.694"/><ellipse cx="2053" cy="519.5939" fill="#84BE84" rx="3" ry="3" style="stroke:#038048;stroke-width:1.0;"/><text fill="#000000" font-family="sans-serif" font-size="14" lengthAdjust="spacing" textLength="130" x="2062" y="522.6999">FloorBurningTile(int)</text><ellipse cx="2053" cy="536.3939" fill="#84BE84" rx="3" ry="3" style="stroke:#038048;stroke-width:1.0;"/><text fill="#000000" font-family="sans-serif" font-size="14" lengthAdjust="spacing" textLength="110" x="2062" y="539.4999">isSolid(): boolean</text></g></a><!--class vv.Tiles.WaterBurningTile--><a href="WaterBurningTile.html" target="_top" title="WaterBurningTile.html" xlink:actuate="onRequest" xlink:href="WaterBurningTile.html" xlink:show="new" xlink:title="WaterBurningTile.html" xlink:type="simple"><g id="elem_vv.Tiles.WaterBurningTile"><rect codeLine="66" fill="#F1F1F1" height="81.5999" id="vv.Tiles.WaterBurningTile" rx="2.5" ry="2.5" style="stroke:#181818;stroke-width:0.5;" width="161" x="2233.5" y="465.694"/><ellipse cx="2257.05" cy="481.694" fill="#ADD1B2" rx="11" ry="11" style="stroke:#181818;stroke-width:1.0;"/><path d="M2252.05,482.8502 C2252.05,485.3502 2254.1906,487.1627 2257.1125,487.1627 C2258.3469,487.1627 2259.5188,486.8659 2260.2688,486.3502 C2260.8781,485.9284 2261.2063,485.5065 2261.2063,485.1002 C2261.2063,484.6315 2260.7844,484.2252 2260.2844,484.2252 C2260.05,484.2252 2259.8313,484.3034 2259.6281,484.5065 C2259.1906,484.944 2259.1906,484.944 2259.0188,485.0377 C2258.5656,485.2721 2257.925,485.4127 2257.1594,485.4127 C2255.1594,485.4127 2253.8781,484.3971 2253.8781,482.819 L2253.8781,481.7721 C2253.8781,480.069 2255.0969,478.8659 2256.8,478.8659 C2257.3781,478.8659 2257.9563,479.0065 2258.425,479.2565 C2258.8938,479.5221 2259.0656,479.7096 2259.1281,480.069 C2259.2531,480.7409 2259.5031,480.9909 2260.0344,480.9909 C2260.3156,480.9909 2260.5969,480.8502 2260.7844,480.6315 C2260.9094,480.4596 2260.9563,480.2877 2260.9563,479.8502 L2260.9563,478.4909 C2260.9563,478.069 2260.9406,477.9284 2260.8156,477.7565 C2260.6438,477.5065 2260.3625,477.3502 2260.0344,477.3502 C2259.7219,477.3502 2259.5188,477.4596 2259.3,477.7252 C2258.1281,477.2252 2257.6906,477.1159 2256.7375,477.1159 C2254.0656,477.1159 2252.05,479.1315 2252.05,481.7565 L2252.05,482.8502 Z " fill="#000000"/><text fill="#000000" font-family="sans-serif" font-size="14" lengthAdjust="spacing" textLength="110" x="2272.95" y="486.3">WaterBurningTile</text><line style="stroke:#181818;stroke-width:0.5;" x1="2234.5" x2="2393.5" y1="497.694" y2="497.694"/><line style="stroke:#181818;stroke-width:0.5;" x1="2234.5" x2="2393.5" y1="505.694" y2="505.694"/><ellipse cx="2244.5" cy="519.5939" fill="#84BE84" rx="3" ry="3" style="stroke:#038048;stroke-width:1.0;"/><text fill="#000000" font-family="sans-serif" font-size="14" lengthAdjust="spacing" textLength="135" x="2253.5" y="522.6999">WaterBurningTile(int)</text><ellipse cx="2244.5" cy="536.3939" fill="#84BE84" rx="3" ry="3" style="stroke:#038048;stroke-width:1.0;"/><text fill="#000000" font-family="sans-serif" font-size="14" lengthAdjust="spacing" textLength="117" x="2253.5" y="539.4999">isWater(): boolean</text></g></a><!--class vv.Tiles.DoorBurningTile--><a href="DoorBurningTile.html" target="_top" title="DoorBurningTile.html" xlink:actuate="onRequest" xlink:href="DoorBurningTile.html" xlink:show="new" xlink:title="DoorBurningTile.html" xlink:type="simple"><g id="elem_vv.Tiles.DoorBurningTile"><rect codeLine="71" fill="#F1F1F1" height="98.3998" id="vv.Tiles.DoorBurningTile" rx="2.5" ry="2.5" style="stroke:#181818;stroke-width:0.5;" width="154" x="2430" y="457.294"/><ellipse cx="2453.55" cy="473.294" fill="#ADD1B2" rx="11" ry="11" style="stroke:#181818;stroke-width:1.0;"/><path d="M2448.55,474.4502 C2448.55,476.9502 2450.6906,478.7627 2453.6125,478.7627 C2454.8469,478.7627 2456.0188,478.4659 2456.7688,477.9502 C2457.3781,477.5284 2457.7063,477.1065 2457.7063,476.7002 C2457.7063,476.2315 2457.2844,475.8252 2456.7844,475.8252 C2456.55,475.8252 2456.3313,475.9034 2456.1281,476.1065 C2455.6906,476.544 2455.6906,476.544 2455.5188,476.6377 C2455.0656,476.8721 2454.425,477.0127 2453.6594,477.0127 C2451.6594,477.0127 2450.3781,475.9971 2450.3781,474.419 L2450.3781,473.3721 C2450.3781,471.669 2451.5969,470.4659 2453.3,470.4659 C2453.8781,470.4659 2454.4563,470.6065 2454.925,470.8565 C2455.3938,471.1221 2455.5656,471.3096 2455.6281,471.669 C2455.7531,472.3409 2456.0031,472.5909 2456.5344,472.5909 C2456.8156,472.5909 2457.0969,472.4502 2457.2844,472.2315 C2457.4094,472.0596 2457.4563,471.8877 2457.4563,471.4502 L2457.4563,470.0909 C2457.4563,469.669 2457.4406,469.5284 2457.3156,469.3565 C2457.1438,469.1065 2456.8625,468.9502 2456.5344,468.9502 C2456.2219,468.9502 2456.0188,469.0596 2455.8,469.3252 C2454.6281,468.8252 2454.1906,468.7159 2453.2375,468.7159 C2450.5656,468.7159 2448.55,470.7315 2448.55,473.3565 L2448.55,474.4502 Z " fill="#000000"/><text fill="#000000" font-family="sans-serif" font-size="14" lengthAdjust="spacing" textLength="103" x="2469.45" y="477.9">DoorBurningTile</text><line style="stroke:#181818;stroke-width:0.5;" x1="2431" x2="2583" y1="489.294" y2="489.294"/><line style="stroke:#181818;stroke-width:0.5;" x1="2431" x2="2583" y1="497.294" y2="497.294"/><ellipse cx="2441" cy="511.1939" fill="#84BE84" rx="3" ry="3" style="stroke:#038048;stroke-width:1.0;"/><text fill="#000000" font-family="sans-serif" font-size="14" lengthAdjust="spacing" textLength="128" x="2450" y="514.2999">DoorBurningTile(int)</text><ellipse cx="2441" cy="527.9939" fill="#84BE84" rx="3" ry="3" style="stroke:#038048;stroke-width:1.0;"/><text fill="#000000" font-family="sans-serif" font-size="14" lengthAdjust="spacing" textLength="110" x="2450" y="531.0999">isSolid(): boolean</text><ellipse cx="2441" cy="544.7938" fill="#84BE84" rx="3" ry="3" style="stroke:#038048;stroke-width:1.0;"/><text fill="#000000" font-family="sans-serif" font-size="14" lengthAdjust="spacing" textLength="110" x="2450" y="547.8998">isDoor(): boolean</text></g></a><!--class vv.Tiles.WaterTile--><a href="WaterTile.html" target="_top" title="WaterTile.html" xlink:actuate="onRequest" xlink:href="WaterTile.html" xlink:show="new" xlink:title="WaterTile.html" xlink:type="simple"><g id="elem_vv.Tiles.WaterTile"><rect codeLine="77" fill="#F1F1F1" height="81.5999" id="vv.Tiles.WaterTile" rx="2.5" ry="2.5" style="stroke:#181818;stroke-width:0.5;" width="143" x="2619.5" y="465.694"/><ellipse cx="2657" cy="481.694" fill="#ADD1B2" rx="11" ry="11" style="stroke:#181818;stroke-width:1.0;"/><path d="M2652,482.8502 C2652,485.3502 2654.1406,487.1627 2657.0625,487.1627 C2658.2969,487.1627 2659.4688,486.8659 2660.2188,486.3502 C2660.8281,485.9284 2661.1563,485.5065 2661.1563,485.1002 C2661.1563,484.6315 2660.7344,484.2252 2660.2344,484.2252 C2660,484.2252 2659.7813,484.3034 2659.5781,484.5065 C2659.1406,484.944 2659.1406,484.944 2658.9688,485.0377 C2658.5156,485.2721 2657.875,485.4127 2657.1094,485.4127 C2655.1094,485.4127 2653.8281,484.3971 2653.8281,482.819 L2653.8281,481.7721 C2653.8281,480.069 2655.0469,478.8659 2656.75,478.8659 C2657.3281,478.8659 2657.9063,479.0065 2658.375,479.2565 C2658.8438,479.5221 2659.0156,479.7096 2659.0781,480.069 C2659.2031,480.7409 2659.4531,480.9909 2659.9844,480.9909 C2660.2656,480.9909 2660.5469,480.8502 2660.7344,480.6315 C2660.8594,480.4596 2660.9063,480.2877 2660.9063,479.8502 L2660.9063,478.4909 C2660.9063,478.069 2660.8906,477.9284 2660.7656,477.7565 C2660.5938,477.5065 2660.3125,477.3502 2659.9844,477.3502 C2659.6719,477.3502 2659.4688,477.4596 2659.25,477.7252 C2658.0781,477.2252 2657.6406,477.1159 2656.6875,477.1159 C2654.0156,477.1159 2652,479.1315 2652,481.7565 L2652,482.8502 Z " fill="#000000"/><text fill="#000000" font-family="sans-serif" font-size="14" lengthAdjust="spacing" textLength="61" x="2676" y="486.3">WaterTile</text><line style="stroke:#181818;stroke-width:0.5;" x1="2620.5" x2="2761.5" y1="497.694" y2="497.694"/><line style="stroke:#181818;stroke-width:0.5;" x1="2620.5" x2="2761.5" y1="505.694" y2="505.694"/><ellipse cx="2630.5" cy="519.5939" fill="#84BE84" rx="3" ry="3" style="stroke:#038048;stroke-width:1.0;"/><text fill="#000000" font-family="sans-serif" font-size="14" lengthAdjust="spacing" textLength="86" x="2639.5" y="522.6999">WaterTile(int)</text><ellipse cx="2630.5" cy="536.3939" fill="#84BE84" rx="3" ry="3" style="stroke:#038048;stroke-width:1.0;"/><text fill="#000000" font-family="sans-serif" font-size="14" lengthAdjust="spacing" textLength="117" x="2639.5" y="539.4999">isWater(): boolean</text></g></a><!--class vv.Tiles.RockWinterTile--><a href="RockWinterTile.html" target="_top" title="RockWinterTile.html" xlink:actuate="onRequest" xlink:href="RockWinterTile.html" xlink:show="new" xlink:title="RockWinterTile.html" xlink:type="simple"><g id="elem_vv.Tiles.RockWinterTile"><rect codeLine="82" fill="#F1F1F1" height="81.5999" id="vv.Tiles.RockWinterTile" rx="2.5" ry="2.5" style="stroke:#181818;stroke-width:0.5;" width="147" x="2797.5" y="465.694"/><ellipse cx="2821.05" cy="481.694" fill="#ADD1B2" rx="11" ry="11" style="stroke:#181818;stroke-width:1.0;"/><path d="M2816.05,482.8502 C2816.05,485.3502 2818.1906,487.1627 2821.1125,487.1627 C2822.3469,487.1627 2823.5188,486.8659 2824.2688,486.3502 C2824.8781,485.9284 2825.2063,485.5065 2825.2063,485.1002 C2825.2063,484.6315 2824.7844,484.2252 2824.2844,484.2252 C2824.05,484.2252 2823.8313,484.3034 2823.6281,484.5065 C2823.1906,484.944 2823.1906,484.944 2823.0188,485.0377 C2822.5656,485.2721 2821.925,485.4127 2821.1594,485.4127 C2819.1594,485.4127 2817.8781,484.3971 2817.8781,482.819 L2817.8781,481.7721 C2817.8781,480.069 2819.0969,478.8659 2820.8,478.8659 C2821.3781,478.8659 2821.9563,479.0065 2822.425,479.2565 C2822.8938,479.5221 2823.0656,479.7096 2823.1281,480.069 C2823.2531,480.7409 2823.5031,480.9909 2824.0344,480.9909 C2824.3156,480.9909 2824.5969,480.8502 2824.7844,480.6315 C2824.9094,480.4596 2824.9563,480.2877 2824.9563,479.8502 L2824.9563,478.4909 C2824.9563,478.069 2824.9406,477.9284 2824.8156,477.7565 C2824.6438,477.5065 2824.3625,477.3502 2824.0344,477.3502 C2823.7219,477.3502 2823.5188,477.4596 2823.3,477.7252 C2822.1281,477.2252 2821.6906,477.1159 2820.7375,477.1159 C2818.0656,477.1159 2816.05,479.1315 2816.05,481.7565 L2816.05,482.8502 Z " fill="#000000"/><text fill="#000000" font-family="sans-serif" font-size="14" lengthAdjust="spacing" textLength="96" x="2836.95" y="486.3">RockWinterTile</text><line style="stroke:#181818;stroke-width:0.5;" x1="2798.5" x2="2943.5" y1="497.694" y2="497.694"/><line style="stroke:#181818;stroke-width:0.5;" x1="2798.5" x2="2943.5" y1="505.694" y2="505.694"/><ellipse cx="2808.5" cy="519.5939" fill="#84BE84" rx="3" ry="3" style="stroke:#038048;stroke-width:1.0;"/><text fill="#000000" font-family="sans-serif" font-size="14" lengthAdjust="spacing" textLength="121" x="2817.5" y="522.6999">RockWinterTile(int)</text><ellipse cx="2808.5" cy="536.3939" fill="#84BE84" rx="3" ry="3" style="stroke:#038048;stroke-width:1.0;"/><text fill="#000000" font-family="sans-serif" font-size="14" lengthAdjust="spacing" textLength="110" x="2817.5" y="539.4999">isSolid(): boolean</text></g></a><!--class vv.Tiles.WallTile--><a href="WallTile.html" target="_top" title="WallTile.html" xlink:actuate="onRequest" xlink:href="WallTile.html" xlink:show="new" xlink:title="WallTile.html" xlink:type="simple"><g id="elem_vv.Tiles.WallTile"><rect codeLine="87" fill="#F1F1F1" height="81.5999" id="vv.Tiles.WallTile" rx="2.5" ry="2.5" style="stroke:#181818;stroke-width:0.5;" width="136" x="2980" y="465.694"/><ellipse cx="3019.3" cy="481.694" fill="#ADD1B2" rx="11" ry="11" style="stroke:#181818;stroke-width:1.0;"/><path d="M3014.3,482.8502 C3014.3,485.3502 3016.4406,487.1627 3019.3625,487.1627 C3020.5969,487.1627 3021.7688,486.8659 3022.5188,486.3502 C3023.1281,485.9284 3023.4563,485.5065 3023.4563,485.1002 C3023.4563,484.6315 3023.0344,484.2252 3022.5344,484.2252 C3022.3,484.2252 3022.0813,484.3034 3021.8781,484.5065 C3021.4406,484.944 3021.4406,484.944 3021.2688,485.0377 C3020.8156,485.2721 3020.175,485.4127 3019.4094,485.4127 C3017.4094,485.4127 3016.1281,484.3971 3016.1281,482.819 L3016.1281,481.7721 C3016.1281,480.069 3017.3469,478.8659 3019.05,478.8659 C3019.6281,478.8659 3020.2063,479.0065 3020.675,479.2565 C3021.1438,479.5221 3021.3156,479.7096 3021.3781,480.069 C3021.5031,480.7409 3021.7531,480.9909 3022.2844,480.9909 C3022.5656,480.9909 3022.8469,480.8502 3023.0344,480.6315 C3023.1594,480.4596 3023.2063,480.2877 3023.2063,479.8502 L3023.2063,478.4909 C3023.2063,478.069 3023.1906,477.9284 3023.0656,477.7565 C3022.8938,477.5065 3022.6125,477.3502 3022.2844,477.3502 C3021.9719,477.3502 3021.7688,477.4596 3021.55,477.7252 C3020.3781,477.2252 3019.9406,477.1159 3018.9875,477.1159 C3016.3156,477.1159 3014.3,479.1315 3014.3,481.7565 L3014.3,482.8502 Z " fill="#000000"/><text fill="#000000" font-family="sans-serif" font-size="14" lengthAdjust="spacing" textLength="50" x="3038.7" y="486.3">WallTile</text><line style="stroke:#181818;stroke-width:0.5;" x1="2981" x2="3115" y1="497.694" y2="497.694"/><line style="stroke:#181818;stroke-width:0.5;" x1="2981" x2="3115" y1="505.694" y2="505.694"/><ellipse cx="2991" cy="519.5939" fill="#84BE84" rx="3" ry="3" style="stroke:#038048;stroke-width:1.0;"/><text fill="#000000" font-family="sans-serif" font-size="14" lengthAdjust="spacing" textLength="75" x="3000" y="522.6999">WallTile(int)</text><ellipse cx="2991" cy="536.3939" fill="#84BE84" rx="3" ry="3" style="stroke:#038048;stroke-width:1.0;"/><text fill="#000000" font-family="sans-serif" font-size="14" lengthAdjust="spacing" textLength="110" x="3000" y="539.4999">isSolid(): boolean</text></g></a><!--class vv.Tiles.DoorWinterTile--><a href="DoorWinterTile.html" target="_top" title="DoorWinterTile.html" xlink:actuate="onRequest" xlink:href="DoorWinterTile.html" xlink:show="new" xlink:title="DoorWinterTile.html" xlink:type="simple"><g id="elem_vv.Tiles.DoorWinterTile"><rect codeLine="92" fill="#F1F1F1" height="98.3998" id="vv.Tiles.DoorWinterTile" rx="2.5" ry="2.5" style="stroke:#181818;stroke-width:0.5;" width="146" x="3151" y="457.294"/><ellipse cx="3174.55" cy="473.294" fill="#ADD1B2" rx="11" ry="11" style="stroke:#181818;stroke-width:1.0;"/><path d="M3169.55,474.4502 C3169.55,476.9502 3171.6906,478.7627 3174.6125,478.7627 C3175.8469,478.7627 3177.0188,478.4659 3177.7688,477.9502 C3178.3781,477.5284 3178.7063,477.1065 3178.7063,476.7002 C3178.7063,476.2315 3178.2844,475.8252 3177.7844,475.8252 C3177.55,475.8252 3177.3313,475.9034 3177.1281,476.1065 C3176.6906,476.544 3176.6906,476.544 3176.5188,476.6377 C3176.0656,476.8721 3175.425,477.0127 3174.6594,477.0127 C3172.6594,477.0127 3171.3781,475.9971 3171.3781,474.419 L3171.3781,473.3721 C3171.3781,471.669 3172.5969,470.4659 3174.3,470.4659 C3174.8781,470.4659 3175.4563,470.6065 3175.925,470.8565 C3176.3938,471.1221 3176.5656,471.3096 3176.6281,471.669 C3176.7531,472.3409 3177.0031,472.5909 3177.5344,472.5909 C3177.8156,472.5909 3178.0969,472.4502 3178.2844,472.2315 C3178.4094,472.0596 3178.4563,471.8877 3178.4563,471.4502 L3178.4563,470.0909 C3178.4563,469.669 3178.4406,469.5284 3178.3156,469.3565 C3178.1438,469.1065 3177.8625,468.9502 3177.5344,468.9502 C3177.2219,468.9502 3177.0188,469.0596 3176.8,469.3252 C3175.6281,468.8252 3175.1906,468.7159 3174.2375,468.7159 C3171.5656,468.7159 3169.55,470.7315 3169.55,473.3565 L3169.55,474.4502 Z " fill="#000000"/><text fill="#000000" font-family="sans-serif" font-size="14" lengthAdjust="spacing" textLength="95" x="3190.45" y="477.9">DoorWinterTile</text><line style="stroke:#181818;stroke-width:0.5;" x1="3152" x2="3296" y1="489.294" y2="489.294"/><line style="stroke:#181818;stroke-width:0.5;" x1="3152" x2="3296" y1="497.294" y2="497.294"/><ellipse cx="3162" cy="511.1939" fill="#84BE84" rx="3" ry="3" style="stroke:#038048;stroke-width:1.0;"/><text fill="#000000" font-family="sans-serif" font-size="14" lengthAdjust="spacing" textLength="120" x="3171" y="514.2999">DoorWinterTile(int)</text><ellipse cx="3162" cy="527.9939" fill="#84BE84" rx="3" ry="3" style="stroke:#038048;stroke-width:1.0;"/><text fill="#000000" font-family="sans-serif" font-size="14" lengthAdjust="spacing" textLength="110" x="3171" y="531.0999">isSolid(): boolean</text><ellipse cx="3162" cy="544.7938" fill="#84BE84" rx="3" ry="3" style="stroke:#038048;stroke-width:1.0;"/><text fill="#000000" font-family="sans-serif" font-size="14" lengthAdjust="spacing" textLength="110" x="3171" y="547.8998">isDoor(): boolean</text></g></a><!--class vv.Tiles.SpikesBurningTile--><a href="SpikesBurningTile.html" target="_top" title="SpikesBurningTile.html" xlink:actuate="onRequest" xlink:href="SpikesBurningTile.html" xlink:show="new" xlink:title="SpikesBurningTile.html" xlink:type="simple"><g id="elem_vv.Tiles.SpikesBurningTile"><rect codeLine="98" fill="#F1F1F1" height="81.5999" id="vv.Tiles.SpikesBurningTile" rx="2.5" ry="2.5" style="stroke:#181818;stroke-width:0.5;" width="175" x="3332.5" y="465.694"/><ellipse cx="3360.55" cy="481.694" fill="#ADD1B2" rx="11" ry="11" style="stroke:#181818;stroke-width:1.0;"/><path d="M3355.55,482.8502 C3355.55,485.3502 3357.6906,487.1627 3360.6125,487.1627 C3361.8469,487.1627 3363.0188,486.8659 3363.7688,486.3502 C3364.3781,485.9284 3364.7063,485.5065 3364.7063,485.1002 C3364.7063,484.6315 3364.2844,484.2252 3363.7844,484.2252 C3363.55,484.2252 3363.3313,484.3034 3363.1281,484.5065 C3362.6906,484.944 3362.6906,484.944 3362.5188,485.0377 C3362.0656,485.2721 3361.425,485.4127 3360.6594,485.4127 C3358.6594,485.4127 3357.3781,484.3971 3357.3781,482.819 L3357.3781,481.7721 C3357.3781,480.069 3358.5969,478.8659 3360.3,478.8659 C3360.8781,478.8659 3361.4563,479.0065 3361.925,479.2565 C3362.3938,479.5221 3362.5656,479.7096 3362.6281,480.069 C3362.7531,480.7409 3363.0031,480.9909 3363.5344,480.9909 C3363.8156,480.9909 3364.0969,480.8502 3364.2844,480.6315 C3364.4094,480.4596 3364.4563,480.2877 3364.4563,479.8502 L3364.4563,478.4909 C3364.4563,478.069 3364.4406,477.9284 3364.3156,477.7565 C3364.1438,477.5065 3363.8625,477.3502 3363.5344,477.3502 C3363.2219,477.3502 3363.0188,477.4596 3362.8,477.7252 C3361.6281,477.2252 3361.1906,477.1159 3360.2375,477.1159 C3357.5656,477.1159 3355.55,479.1315 3355.55,481.7565 L3355.55,482.8502 Z " fill="#000000"/><text fill="#000000" font-family="sans-serif" font-size="14" lengthAdjust="spacing" textLength="114" x="3377.45" y="486.3">SpikesBurningTile</text><line style="stroke:#181818;stroke-width:0.5;" x1="3333.5" x2="3506.5" y1="497.694" y2="497.694"/><line style="stroke:#181818;stroke-width:0.5;" x1="3333.5" x2="3506.5" y1="505.694" y2="505.694"/><ellipse cx="3343.5" cy="519.5939" fill="#84BE84" rx="3" ry="3" style="stroke:#038048;stroke-width:1.0;"/><text fill="#000000" font-family="sans-serif" font-size="14" lengthAdjust="spacing" textLength="139" x="3352.5" y="522.6999">SpikesBurningTile(int)</text><ellipse cx="3343.5" cy="536.3939" fill="#84BE84" rx="3" ry="3" style="stroke:#038048;stroke-width:1.0;"/><text fill="#000000" font-family="sans-serif" font-size="14" lengthAdjust="spacing" textLength="149" x="3352.5" y="539.4999">isDangerous(): boolean</text></g></a><!--class vv.Tiles.FloorWinterTile--><a href="FloorWinterTile.html" target="_top" title="FloorWinterTile.html" xlink:actuate="onRequest" xlink:href="FloorWinterTile.html" xlink:show="new" xlink:title="FloorWinterTile.html" xlink:type="simple"><g id="elem_vv.Tiles.FloorWinterTile"><rect codeLine="103" fill="#F1F1F1" height="81.5999" id="vv.Tiles.FloorWinterTile" rx="2.5" ry="2.5" style="stroke:#181818;stroke-width:0.5;" width="148" x="3543" y="465.694"/><ellipse cx="3566.55" cy="481.694" fill="#ADD1B2" rx="11" ry="11" style="stroke:#181818;stroke-width:1.0;"/><path d="M3561.55,482.8502 C3561.55,485.3502 3563.6906,487.1627 3566.6125,487.1627 C3567.8469,487.1627 3569.0188,486.8659 3569.7688,486.3502 C3570.3781,485.9284 3570.7063,485.5065 3570.7063,485.1002 C3570.7063,484.6315 3570.2844,484.2252 3569.7844,484.2252 C3569.55,484.2252 3569.3313,484.3034 3569.1281,484.5065 C3568.6906,484.944 3568.6906,484.944 3568.5188,485.0377 C3568.0656,485.2721 3567.425,485.4127 3566.6594,485.4127 C3564.6594,485.4127 3563.3781,484.3971 3563.3781,482.819 L3563.3781,481.7721 C3563.3781,480.069 3564.5969,478.8659 3566.3,478.8659 C3566.8781,478.8659 3567.4563,479.0065 3567.925,479.2565 C3568.3938,479.5221 3568.5656,479.7096 3568.6281,480.069 C3568.7531,480.7409 3569.0031,480.9909 3569.5344,480.9909 C3569.8156,480.9909 3570.0969,480.8502 3570.2844,480.6315 C3570.4094,480.4596 3570.4563,480.2877 3570.4563,479.8502 L3570.4563,478.4909 C3570.4563,478.069 3570.4406,477.9284 3570.3156,477.7565 C3570.1438,477.5065 3569.8625,477.3502 3569.5344,477.3502 C3569.2219,477.3502 3569.0188,477.4596 3568.8,477.7252 C3567.6281,477.2252 3567.1906,477.1159 3566.2375,477.1159 C3563.5656,477.1159 3561.55,479.1315 3561.55,481.7565 L3561.55,482.8502 Z " fill="#000000"/><text fill="#000000" font-family="sans-serif" font-size="14" lengthAdjust="spacing" textLength="97" x="3582.45" y="486.3">FloorWinterTile</text><line style="stroke:#181818;stroke-width:0.5;" x1="3544" x2="3690" y1="497.694" y2="497.694"/><line style="stroke:#181818;stroke-width:0.5;" x1="3544" x2="3690" y1="505.694" y2="505.694"/><ellipse cx="3554" cy="519.5939" fill="#84BE84" rx="3" ry="3" style="stroke:#038048;stroke-width:1.0;"/><text fill="#000000" font-family="sans-serif" font-size="14" lengthAdjust="spacing" textLength="122" x="3563" y="522.6999">FloorWinterTile(int)</text><ellipse cx="3554" cy="536.3939" fill="#84BE84" rx="3" ry="3" style="stroke:#038048;stroke-width:1.0;"/><text fill="#000000" font-family="sans-serif" font-size="14" lengthAdjust="spacing" textLength="110" x="3563" y="539.4999">isSolid(): boolean</text></g></a><!--class vv.Tiles.DoorTile--><a href="DoorTile.html" target="_top" title="DoorTile.html" xlink:actuate="onRequest" xlink:href="DoorTile.html" xlink:show="new" xlink:title="DoorTile.html" xlink:type="simple"><g id="elem_vv.Tiles.DoorTile"><rect codeLine="108" fill="#F1F1F1" height="98.3998" id="vv.Tiles.DoorTile" rx="2.5" ry="2.5" style="stroke:#181818;stroke-width:0.5;" width="136" x="3726" y="457.294"/><ellipse cx="3763.5" cy="473.294" fill="#ADD1B2" rx="11" ry="11" style="stroke:#181818;stroke-width:1.0;"/><path d="M3758.5,474.4502 C3758.5,476.9502 3760.6406,478.7627 3763.5625,478.7627 C3764.7969,478.7627 3765.9688,478.4659 3766.7188,477.9502 C3767.3281,477.5284 3767.6563,477.1065 3767.6563,476.7002 C3767.6563,476.2315 3767.2344,475.8252 3766.7344,475.8252 C3766.5,475.8252 3766.2813,475.9034 3766.0781,476.1065 C3765.6406,476.544 3765.6406,476.544 3765.4688,476.6377 C3765.0156,476.8721 3764.375,477.0127 3763.6094,477.0127 C3761.6094,477.0127 3760.3281,475.9971 3760.3281,474.419 L3760.3281,473.3721 C3760.3281,471.669 3761.5469,470.4659 3763.25,470.4659 C3763.8281,470.4659 3764.4063,470.6065 3764.875,470.8565 C3765.3438,471.1221 3765.5156,471.3096 3765.5781,471.669 C3765.7031,472.3409 3765.9531,472.5909 3766.4844,472.5909 C3766.7656,472.5909 3767.0469,472.4502 3767.2344,472.2315 C3767.3594,472.0596 3767.4063,471.8877 3767.4063,471.4502 L3767.4063,470.0909 C3767.4063,469.669 3767.3906,469.5284 3767.2656,469.3565 C3767.0938,469.1065 3766.8125,468.9502 3766.4844,468.9502 C3766.1719,468.9502 3765.9688,469.0596 3765.75,469.3252 C3764.5781,468.8252 3764.1406,468.7159 3763.1875,468.7159 C3760.5156,468.7159 3758.5,470.7315 3758.5,473.3565 L3758.5,474.4502 Z " fill="#000000"/><text fill="#000000" font-family="sans-serif" font-size="14" lengthAdjust="spacing" textLength="54" x="3782.5" y="477.9">DoorTile</text><line style="stroke:#181818;stroke-width:0.5;" x1="3727" x2="3861" y1="489.294" y2="489.294"/><line style="stroke:#181818;stroke-width:0.5;" x1="3727" x2="3861" y1="497.294" y2="497.294"/><ellipse cx="3737" cy="511.1939" fill="#84BE84" rx="3" ry="3" style="stroke:#038048;stroke-width:1.0;"/><text fill="#000000" font-family="sans-serif" font-size="14" lengthAdjust="spacing" textLength="79" x="3746" y="514.2999">DoorTile(int)</text><ellipse cx="3737" cy="527.9939" fill="#84BE84" rx="3" ry="3" style="stroke:#038048;stroke-width:1.0;"/><text fill="#000000" font-family="sans-serif" font-size="14" lengthAdjust="spacing" textLength="110" x="3746" y="531.0999">isSolid(): boolean</text><ellipse cx="3737" cy="544.7938" fill="#84BE84" rx="3" ry="3" style="stroke:#038048;stroke-width:1.0;"/><text fill="#000000" font-family="sans-serif" font-size="14" lengthAdjust="spacing" textLength="110" x="3746" y="547.8998">isDoor(): boolean</text></g></a><!--class vv.Tiles.WallBurningTile--><a href="WallBurningTile.html" target="_top" title="WallBurningTile.html" xlink:actuate="onRequest" xlink:href="WallBurningTile.html" xlink:show="new" xlink:title="WallBurningTile.html" xlink:type="simple"><g id="elem_vv.Tiles.WallBurningTile"><rect codeLine="114" fill="#F1F1F1" height="81.5999" id="vv.Tiles.WallBurningTile" rx="2.5" ry="2.5" style="stroke:#181818;stroke-width:0.5;" width="150" x="3897" y="465.694"/><ellipse cx="3920.55" cy="481.694" fill="#ADD1B2" rx="11" ry="11" style="stroke:#181818;stroke-width:1.0;"/><path d="M3915.55,482.8502 C3915.55,485.3502 3917.6906,487.1627 3920.6125,487.1627 C3921.8469,487.1627 3923.0188,486.8659 3923.7688,486.3502 C3924.3781,485.9284 3924.7063,485.5065 3924.7063,485.1002 C3924.7063,484.6315 3924.2844,484.2252 3923.7844,484.2252 C3923.55,484.2252 3923.3313,484.3034 3923.1281,484.5065 C3922.6906,484.944 3922.6906,484.944 3922.5188,485.0377 C3922.0656,485.2721 3921.425,485.4127 3920.6594,485.4127 C3918.6594,485.4127 3917.3781,484.3971 3917.3781,482.819 L3917.3781,481.7721 C3917.3781,480.069 3918.5969,478.8659 3920.3,478.8659 C3920.8781,478.8659 3921.4563,479.0065 3921.925,479.2565 C3922.3938,479.5221 3922.5656,479.7096 3922.6281,480.069 C3922.7531,480.7409 3923.0031,480.9909 3923.5344,480.9909 C3923.8156,480.9909 3924.0969,480.8502 3924.2844,480.6315 C3924.4094,480.4596 3924.4563,480.2877 3924.4563,479.8502 L3924.4563,478.4909 C3924.4563,478.069 3924.4406,477.9284 3924.3156,477.7565 C3924.1438,477.5065 3923.8625,477.3502 3923.5344,477.3502 C3923.2219,477.3502 3923.0188,477.4596 3922.8,477.7252 C3921.6281,477.2252 3921.1906,477.1159 3920.2375,477.1159 C3917.5656,477.1159 3915.55,479.1315 3915.55,481.7565 L3915.55,482.8502 Z " fill="#000000"/><text fill="#000000" font-family="sans-serif" font-size="14" lengthAdjust="spacing" textLength="99" x="3936.45" y="486.3">WallBurningTile</text><line style="stroke:#181818;stroke-width:0.5;" x1="3898" x2="4046" y1="497.694" y2="497.694"/><line style="stroke:#181818;stroke-width:0.5;" x1="3898" x2="4046" y1="505.694" y2="505.694"/><ellipse cx="3908" cy="519.5939" fill="#84BE84" rx="3" ry="3" style="stroke:#038048;stroke-width:1.0;"/><text fill="#000000" font-family="sans-serif" font-size="14" lengthAdjust="spacing" textLength="124" x="3917" y="522.6999">WallBurningTile(int)</text><ellipse cx="3908" cy="536.3939" fill="#84BE84" rx="3" ry="3" style="stroke:#038048;stroke-width:1.0;"/><text fill="#000000" font-family="sans-serif" font-size="14" lengthAdjust="spacing" textLength="110" x="3917" y="539.4999">isSolid(): boolean</text></g></a><!--class vv.Tiles.Tile--><a href="Tile.html" target="_top" title="Tile.html" xlink:actuate="onRequest" xlink:href="Tile.html" xlink:show="new" xlink:title="Tile.html" xlink:type="simple"><g id="elem_vv.Tiles.Tile"><rect codeLine="119" fill="#F1F1F1" height="283.199" id="vv.Tiles.Tile" rx="2.5" ry="2.5" style="stroke:#181818;stroke-width:0.5;" width="206" x="1926" y="77.194"/><ellipse cx="2013.25" cy="93.194" fill="#ADD1B2" rx="11" ry="11" style="stroke:#181818;stroke-width:1.0;"/><path d="M2008.25,94.3502 C2008.25,96.8502 2010.3906,98.6627 2013.3125,98.6627 C2014.5469,98.6627 2015.7188,98.3659 2016.4688,97.8502 C2017.0781,97.4284 2017.4063,97.0065 2017.4063,96.6002 C2017.4063,96.1315 2016.9844,95.7252 2016.4844,95.7252 C2016.25,95.7252 2016.0313,95.8034 2015.8281,96.0065 C2015.3906,96.444 2015.3906,96.444 2015.2188,96.5377 C2014.7656,96.7721 2014.125,96.9127 2013.3594,96.9127 C2011.3594,96.9127 2010.0781,95.8971 2010.0781,94.319 L2010.0781,93.2721 C2010.0781,91.569 2011.2969,90.3659 2013,90.3659 C2013.5781,90.3659 2014.1563,90.5065 2014.625,90.7565 C2015.0938,91.0221 2015.2656,91.2096 2015.3281,91.569 C2015.4531,92.2409 2015.7031,92.4909 2016.2344,92.4909 C2016.5156,92.4909 2016.7969,92.3502 2016.9844,92.1315 C2017.1094,91.9596 2017.1563,91.7877 2017.1563,91.3502 L2017.1563,89.9909 C2017.1563,89.569 2017.1406,89.4284 2017.0156,89.2565 C2016.8438,89.0065 2016.5625,88.8502 2016.2344,88.8502 C2015.9219,88.8502 2015.7188,88.9596 2015.5,89.2252 C2014.3281,88.7252 2013.8906,88.6159 2012.9375,88.6159 C2010.2656,88.6159 2008.25,90.6315 2008.25,93.2565 L2008.25,94.3502 Z " fill="#000000"/><text fill="#000000" font-family="sans-serif" font-size="14" lengthAdjust="spacing" textLength="23" x="2033.75" y="97.8">Tile</text><line style="stroke:#181818;stroke-width:0.5;" x1="1927" x2="2131" y1="109.194" y2="109.194"/><ellipse cx="1937" cy="123.0939" fill="none" rx="3" ry="3" style="stroke:#038048;stroke-width:1.0;"/><text fill="#000000" font-family="sans-serif" font-size="14" lengthAdjust="spacing" text-decoration="underline" textLength="107" x="1946" y="126.1999">TILE_WIDTH: int</text><ellipse cx="1937" cy="139.8939" fill="none" rx="3" ry="3" style="stroke:#038048;stroke-width:1.0;"/><text fill="#000000" font-family="sans-serif" font-size="14" lengthAdjust="spacing" text-decoration="underline" textLength="114" x="1946" y="142.9999">TILE_HEIGHT: int</text><polygon fill="none" points="1937,151.6938,1941,155.6938,1937,159.6938,1933,155.6938" style="stroke:#B38D22;stroke-width:1.0;"/><text fill="#000000" font-family="sans-serif" font-size="14" lengthAdjust="spacing" textLength="125" x="1946" y="159.7998">img: BufferedImage</text><polygon fill="none" points="1937,168.4937,1941,172.4937,1937,176.4937,1933,172.4937" style="stroke:#B38D22;stroke-width:1.0;"/><text fill="#000000" font-family="sans-serif" font-size="14" lengthAdjust="spacing" textLength="34" x="1946" y="176.5997">id: int</text><line style="stroke:#181818;stroke-width:0.5;" x1="1927" x2="2131" y1="184.3937" y2="184.3937"/><ellipse cx="1937" cy="198.2937" fill="#84BE84" rx="3" ry="3" style="stroke:#038048;stroke-width:1.0;"/><text fill="#000000" font-family="sans-serif" font-size="14" lengthAdjust="spacing" textLength="150" x="1946" y="201.3996">Tile(BufferedImage, int)</text><ellipse cx="1937" cy="215.0936" fill="#84BE84" rx="3" ry="3" style="stroke:#038048;stroke-width:1.0;"/><text fill="#000000" font-family="sans-serif" font-size="14" lengthAdjust="spacing" textLength="90" x="1946" y="218.1996">Update(): void</text><ellipse cx="1937" cy="231.8935" fill="#84BE84" rx="3" ry="3" style="stroke:#038048;stroke-width:1.0;"/><text fill="#000000" font-family="sans-serif" font-size="14" lengthAdjust="spacing" textLength="180" x="1946" y="234.9995">Draw(Graphics, int, int): void</text><ellipse cx="1937" cy="248.6934" fill="#84BE84" rx="3" ry="3" style="stroke:#038048;stroke-width:1.0;"/><text fill="#000000" font-family="sans-serif" font-size="14" lengthAdjust="spacing" textLength="81" x="1946" y="251.7994">rotate(): void</text><ellipse cx="1937" cy="265.4934" fill="#84BE84" rx="3" ry="3" style="stroke:#038048;stroke-width:1.0;"/><text fill="#000000" font-family="sans-serif" font-size="14" lengthAdjust="spacing" textLength="110" x="1946" y="268.5993">isSolid(): boolean</text><ellipse cx="1937" cy="282.2933" fill="#84BE84" rx="3" ry="3" style="stroke:#038048;stroke-width:1.0;"/><text fill="#000000" font-family="sans-serif" font-size="14" lengthAdjust="spacing" textLength="104" x="1946" y="285.3993">isBed(): boolean</text><ellipse cx="1937" cy="299.0932" fill="#84BE84" rx="3" ry="3" style="stroke:#038048;stroke-width:1.0;"/><text fill="#000000" font-family="sans-serif" font-size="14" lengthAdjust="spacing" textLength="110" x="1946" y="302.1992">isDoor(): boolean</text><ellipse cx="1937" cy="315.8931" fill="#84BE84" rx="3" ry="3" style="stroke:#038048;stroke-width:1.0;"/><text fill="#000000" font-family="sans-serif" font-size="14" lengthAdjust="spacing" textLength="149" x="1946" y="318.9991">isDangerous(): boolean</text><ellipse cx="1937" cy="332.6931" fill="#84BE84" rx="3" ry="3" style="stroke:#038048;stroke-width:1.0;"/><text fill="#000000" font-family="sans-serif" font-size="14" lengthAdjust="spacing" textLength="117" x="1946" y="335.799">isWater(): boolean</text><ellipse cx="1937" cy="349.493" fill="#84BE84" rx="3" ry="3" style="stroke:#038048;stroke-width:1.0;"/><text fill="#000000" font-family="sans-serif" font-size="14" lengthAdjust="spacing" textLength="68" x="1946" y="352.599">GetId(): int</text></g></a><!--reverse link vv.Tiles.Tile to vv.Tiles.WallWinterTile--><g id="link_vv.Tiles.Tile_vv.Tiles.WallWinterTile"><path codeLine="136" d="M1904.61,220.204 C1602.03,224.504 806.6,255.754 182,457.294 C175.14,459.504 168.2,462.244 161.37,465.284 " fill="none" id="vv.Tiles.Tile-backto-vv.Tiles.WallWinterTile" style="stroke:#181818;stroke-width:1.0;"/><polygon fill="none" points="1904.45,213.194,1924.53,219.934,1904.62,227.194,1904.45,213.194" style="stroke:#181818;stroke-width:1.0;"/></g><!--reverse link vv.Tiles.Tile to vv.Tiles.BedWinterTile--><g id="link_vv.Tiles.Tile_vv.Tiles.BedWinterTile"><path codeLine="137" d="M1904.96,222.314 C1622.78,231.264 914.14,271.984 357,457.294 C351.05,459.274 345.03,461.654 339.09,464.274 " fill="none" id="vv.Tiles.Tile-backto-vv.Tiles.BedWinterTile" style="stroke:#181818;stroke-width:1.0;"/><polygon fill="none" points="1904.53,215.294,1924.73,221.684,1904.95,229.284,1904.53,215.294" style="stroke:#181818;stroke-width:1.0;"/></g><!--reverse link vv.Tiles.Tile to vv.Tiles.SpikesWinterTile--><g id="link_vv.Tiles.Tile_vv.Tiles.SpikesWinterTile"><path codeLine="138" d="M1905.13,228.614 C1649.94,249.234 1049.11,310.434 567,457.294 C559.52,459.574 551.88,462.274 544.3,465.224 " fill="none" id="vv.Tiles.Tile-backto-vv.Tiles.SpikesWinterTile" style="stroke:#181818;stroke-width:1.0;"/><polygon fill="none" points="1904.33,221.584,1924.82,226.974,1905.44,235.534,1904.33,221.584" style="stroke:#181818;stroke-width:1.0;"/></g><!--reverse link vv.Tiles.Tile to vv.Tiles.FloorTile--><g id="link_vv.Tiles.Tile_vv.Tiles.FloorTile"><path codeLine="139" d="M1904.76,228.824 C1670.34,248.844 1149.41,307.634 738,457.294 C731.62,459.614 725.16,462.384 718.8,465.414 " fill="none" id="vv.Tiles.Tile-backto-vv.Tiles.FloorTile" style="stroke:#181818;stroke-width:1.0;"/><polygon fill="none" points="1904.01,221.784,1924.52,227.094,1905.18,235.734,1904.01,221.784" style="stroke:#181818;stroke-width:1.0;"/></g><!--reverse link vv.Tiles.Tile to vv.Tiles.BedBurningTile--><g id="link_vv.Tiles.Tile_vv.Tiles.BedBurningTile"><path codeLine="140" d="M1905.06,235.194 C1697.13,263.494 1266.91,332.574 922,457.294 C916.15,459.414 910.21,461.834 904.3,464.434 " fill="none" id="vv.Tiles.Tile-backto-vv.Tiles.BedBurningTile" style="stroke:#181818;stroke-width:1.0;"/><polygon fill="none" points="1903.93,228.154,1924.69,232.424,1905.8,242.024,1903.93,228.154" style="stroke:#181818;stroke-width:1.0;"/></g><!--reverse link vv.Tiles.Tile to vv.Tiles.SpikesTile--><g id="link_vv.Tiles.Tile_vv.Tiles.SpikesTile"><path codeLine="141" d="M1905.4,245.454 C1730.51,283.354 1402.05,360.374 1132,457.294 C1125.2,459.734 1118.24,462.444 1111.3,465.294 " fill="none" id="vv.Tiles.Tile-backto-vv.Tiles.SpikesTile" style="stroke:#181818;stroke-width:1.0;"/><polygon fill="none" points="1903.67,238.454,1924.69,241.084,1906.62,252.144,1903.67,238.454" style="stroke:#181818;stroke-width:1.0;"/></g><!--reverse link vv.Tiles.Tile to vv.Tiles.BedTile--><g id="link_vv.Tiles.Tile_vv.Tiles.BedTile"><path codeLine="142" d="M1905.6,252.024 C1758.88,292.194 1508.06,366.704 1303,457.294 C1297.41,459.764 1291.72,462.494 1286.05,465.354 " fill="none" id="vv.Tiles.Tile-backto-vv.Tiles.BedTile" style="stroke:#181818;stroke-width:1.0;"/><polygon fill="none" points="1903.46,245.084,1924.6,246.584,1907.14,258.594,1903.46,245.084" style="stroke:#181818;stroke-width:1.0;"/></g><!--reverse link vv.Tiles.Tile to vv.Tiles.BlackTile--><g id="link_vv.Tiles.Tile_vv.Tiles.BlackTile"><path codeLine="143" d="M1906.26,268.054 C1792.87,313.654 1620.48,385.594 1475,457.294 C1469.17,460.174 1463.17,463.254 1457.19,466.424 " fill="none" id="vv.Tiles.Tile-backto-vv.Tiles.BlackTile" style="stroke:#181818;stroke-width:1.0;"/><polygon fill="none" points="1903.51,261.214,1924.68,260.264,1908.72,274.204,1903.51,261.214" style="stroke:#181818;stroke-width:1.0;"/></g><!--reverse link vv.Tiles.Tile to vv.Tiles.RockBurningTile--><g id="link_vv.Tiles.Tile_vv.Tiles.RockBurningTile"><path codeLine="144" d="M1908.02,295.104 C1820.43,349.614 1705.45,421.184 1634.7,465.224 " fill="none" id="vv.Tiles.Tile-backto-vv.Tiles.RockBurningTile" style="stroke:#181818;stroke-width:1.0;"/><polygon fill="none" points="1904.03,288.714,1924.71,284.084,1911.42,300.604,1904.03,288.714" style="stroke:#181818;stroke-width:1.0;"/></g><!--reverse link vv.Tiles.Tile to vv.Tiles.WaterWinterTile--><g id="link_vv.Tiles.Tile_vv.Tiles.WaterWinterTile"><path codeLine="145" d="M1911.58,344.044 C1870.28,387.744 1826.75,433.804 1796.8,465.494 " fill="none" id="vv.Tiles.Tile-backto-vv.Tiles.WaterWinterTile" style="stroke:#181818;stroke-width:1.0;"/><polygon fill="none" points="1905.94,339.754,1924.77,330.024,1916.12,349.374,1905.94,339.754" style="stroke:#181818;stroke-width:1.0;"/></g><!--reverse link vv.Tiles.Tile to vv.Tiles.RockTile--><g id="link_vv.Tiles.Tile_vv.Tiles.RockTile"><path codeLine="146" d="M1978.43,380.344 C1968.46,411.964 1958.87,442.424 1951.64,465.364 " fill="none" id="vv.Tiles.Tile-backto-vv.Tiles.RockTile" style="stroke:#181818;stroke-width:1.0;"/><polygon fill="none" points="1971.97,378.524,1984.66,361.554,1985.33,382.734,1971.97,378.524" style="stroke:#181818;stroke-width:1.0;"/></g><!--reverse link vv.Tiles.Tile to vv.Tiles.FloorBurningTile--><g id="link_vv.Tiles.Tile_vv.Tiles.FloorBurningTile"><path codeLine="147" d="M2080.14,380.344 C2090.21,411.964 2099.91,442.424 2107.22,465.364 " fill="none" id="vv.Tiles.Tile-backto-vv.Tiles.FloorBurningTile" style="stroke:#181818;stroke-width:1.0;"/><polygon fill="none" points="2073.23,382.734,2073.83,361.554,2086.57,378.484,2073.23,382.734" style="stroke:#181818;stroke-width:1.0;"/></g><!--reverse link vv.Tiles.Tile to vv.Tiles.WaterBurningTile--><g id="link_vv.Tiles.Tile_vv.Tiles.WaterBurningTile"><path codeLine="148" d="M2146.84,337.924 C2192.07,383.264 2240.73,432.044 2273.82,465.214 " fill="none" id="vv.Tiles.Tile-backto-vv.Tiles.WaterBurningTile" style="stroke:#181818;stroke-width:1.0;"/><polygon fill="none" points="2142.46,343.444,2133.29,324.344,2152.38,333.554,2142.46,343.444" style="stroke:#181818;stroke-width:1.0;"/></g><!--reverse link vv.Tiles.Tile to vv.Tiles.DoorBurningTile--><g id="link_vv.Tiles.Tile_vv.Tiles.DoorBurningTile"><path codeLine="149" d="M2150.43,292.374 C2238.22,344.844 2354.2,414.164 2429.67,459.274 " fill="none" id="vv.Tiles.Tile-backto-vv.Tiles.DoorBurningTile" style="stroke:#181818;stroke-width:1.0;"/><polygon fill="none" points="2147,297.884,2133.42,281.614,2154.18,285.864,2147,297.884" style="stroke:#181818;stroke-width:1.0;"/></g><!--reverse link vv.Tiles.Tile to vv.Tiles.WaterTile--><g id="link_vv.Tiles.Tile_vv.Tiles.WaterTile"><path codeLine="150" d="M2151.67,266.384 C2268.79,311.864 2449.52,384.644 2602,457.294 C2607.71,460.014 2613.58,462.924 2619.44,465.914 " fill="none" id="vv.Tiles.Tile-backto-vv.Tiles.WaterTile" style="stroke:#181818;stroke-width:1.0;"/><polygon fill="none" points="2149.48,272.654,2133.35,258.904,2154.53,259.604,2149.48,272.654" style="stroke:#181818;stroke-width:1.0;"/></g><!--reverse link vv.Tiles.Tile to vv.Tiles.RockWinterTile--><g id="link_vv.Tiles.Tile_vv.Tiles.RockWinterTile"><path codeLine="151" d="M2152.3,251.404 C2303.12,291.744 2564.91,367.194 2780,457.294 C2785.85,459.744 2791.83,462.444 2797.79,465.274 " fill="none" id="vv.Tiles.Tile-backto-vv.Tiles.RockWinterTile" style="stroke:#181818;stroke-width:1.0;"/><polygon fill="none" points="2150.75,257.974,2133.22,246.064,2154.35,244.434,2150.75,257.974" style="stroke:#181818;stroke-width:1.0;"/></g><!--reverse link vv.Tiles.Tile to vv.Tiles.WallTile--><g id="link_vv.Tiles.Tile_vv.Tiles.WallTile"><path codeLine="152" d="M2152.72,240.604 C2334.5,273.534 2682.47,345.624 2962,457.294 C2968.04,459.704 2974.18,462.464 2980.26,465.414 " fill="none" id="vv.Tiles.Tile-backto-vv.Tiles.WallTile" style="stroke:#181818;stroke-width:1.0;"/><polygon fill="none" points="2151.64,247.344,2133.19,236.924,2154.11,233.564,2151.64,247.344" style="stroke:#181818;stroke-width:1.0;"/></g><!--reverse link vv.Tiles.Tile to vv.Tiles.DoorWinterTile--><g id="link_vv.Tiles.Tile_vv.Tiles.DoorWinterTile"><path codeLine="153" d="M2152.84,234.884 C2360.58,262.724 2790.28,331.164 3134,457.294 C3139.49,459.314 3145.06,461.604 3150.6,464.074 " fill="none" id="vv.Tiles.Tile-backto-vv.Tiles.DoorWinterTile" style="stroke:#181818;stroke-width:1.0;"/><polygon fill="none" points="2152.14,241.724,2133.23,232.164,2153.98,227.844,2152.14,241.724" style="stroke:#181818;stroke-width:1.0;"/></g><!--reverse link vv.Tiles.Tile to vv.Tiles.SpikesBurningTile--><g id="link_vv.Tiles.Tile_vv.Tiles.SpikesBurningTile"><path codeLine="154" d="M2152.96,232.344 C2385.23,258.124 2899.96,325.954 3315,457.294 C3322.36,459.624 3329.89,462.344 3337.35,465.284 " fill="none" id="vv.Tiles.Tile-backto-vv.Tiles.SpikesBurningTile" style="stroke:#181818;stroke-width:1.0;"/><polygon fill="none" points="2152.5,239.234,2133.38,230.094,2154.02,225.314,2152.5,239.234" style="stroke:#181818;stroke-width:1.0;"/></g><!--reverse link vv.Tiles.Tile to vv.Tiles.FloorWinterTile--><g id="link_vv.Tiles.Tile_vv.Tiles.FloorWinterTile"><path codeLine="155" d="M2153.12,225.894 C2413.58,241.624 3033.69,294.474 3525,457.294 C3531.85,459.564 3538.8,462.304 3545.66,465.304 " fill="none" id="vv.Tiles.Tile-backto-vv.Tiles.FloorWinterTile" style="stroke:#181818;stroke-width:1.0;"/><polygon fill="none" points="2152.94,232.844,2133.39,224.684,2153.76,218.864,2152.94,232.844" style="stroke:#181818;stroke-width:1.0;"/></g><!--reverse link vv.Tiles.Tile to vv.Tiles.DoorTile--><g id="link_vv.Tiles.Tile_vv.Tiles.DoorTile"><path codeLine="156" d="M2153.31,221.614 C2436.89,229.124 3150.23,267.064 3709,457.294 C3714.62,459.204 3720.29,461.504 3725.9,464.034 " fill="none" id="vv.Tiles.Tile-backto-vv.Tiles.DoorTile" style="stroke:#181818;stroke-width:1.0;"/><polygon fill="none" points="2153.26,228.594,2133.44,221.094,2153.6,214.594,2153.26,228.594" style="stroke:#181818;stroke-width:1.0;"/></g><!--reverse link vv.Tiles.Tile to vv.Tiles.WallBurningTile--><g id="link_vv.Tiles.Tile_vv.Tiles.WallBurningTile"><path codeLine="157" d="M2153.21,220.704 C2455.84,226.124 3252.48,259.664 3880,457.294 C3886.97,459.484 3894.03,462.194 3900.99,465.194 " fill="none" id="vv.Tiles.Tile-backto-vv.Tiles.WallBurningTile" style="stroke:#181818;stroke-width:1.0;"/><polygon fill="none" points="2153.17,227.694,2133.28,220.364,2153.4,213.694,2153.17,227.694" style="stroke:#181818;stroke-width:1.0;"/></g><!--link vv.Tiles.Tile to vv.Tiles.Tile--><g id="link_vv.Tiles.Tile_vv.Tiles.Tile"><path codeLine="158" d="M2132.21,200.134 C2152.54,202.264 2167,208.484 2167,218.794 C2167,228.134 2155.12,234.124 2137.77,236.754 " fill="none" id="vv.Tiles.Tile-to-vv.Tiles.Tile" style="stroke:#181818;stroke-width:1.0;"/><polygon fill="#181818" points="2133.21,237.454,2142.6497,240.2633,2138.1685,236.811,2141.6208,232.3297,2133.21,237.454" style="stroke:#181818;stroke-width:1.0;"/><text fill="#000000" font-family="sans-serif" font-size="13" lengthAdjust="spacing" textLength="24" x="2173" y="223.371">tiles</text><text fill="#000000" font-family="sans-serif" font-size="13" lengthAdjust="spacing" textLength="5" x="2139.9731" y="235.3726">*</text></g><!--link vv.Tiles.Tile to vv.Tiles.Tile--><g id="link_vv.Tiles.Tile_vv.Tiles.Tile"><path codeLine="159" d="M2132.48,179.884 C2171.13,178.604 2203,191.574 2203,218.794 C2203,244.634 2174.28,257.634 2138.31,257.794 " fill="none" id="vv.Tiles.Tile-to-vv.Tiles.Tile-1" style="stroke:#181818;stroke-width:1.0;"/><polygon fill="#181818" points="2133.48,257.704,2142.4219,261.8321,2138.4795,257.7754,2142.5362,253.8329,2133.48,257.704" style="stroke:#181818;stroke-width:1.0;"/><text fill="#000000" font-family="sans-serif" font-size="13" lengthAdjust="spacing" textLength="46" x="2237.5" y="59.371">floorTile</text><text fill="#000000" font-family="sans-serif" font-size="13" lengthAdjust="spacing" textLength="43" x="2239" y="74.971">wallTile</text><text fill="#000000" font-family="sans-serif" font-size="13" lengthAdjust="spacing" textLength="52" x="2234.5" y="90.571">waterTile</text><text fill="#000000" font-family="sans-serif" font-size="13" lengthAdjust="spacing" textLength="46" x="2237.5" y="106.171">rockTile</text><text fill="#000000" font-family="sans-serif" font-size="13" lengthAdjust="spacing" textLength="42" x="2239.5" y="121.771">bedTile</text><text fill="#000000" font-family="sans-serif" font-size="13" lengthAdjust="spacing" textLength="46" x="2237.5" y="137.3711">doorTile</text><text fill="#000000" font-family="sans-serif" font-size="13" lengthAdjust="spacing" textLength="59" x="2231" y="152.9711">spikesTile</text><text fill="#000000" font-family="sans-serif" font-size="13" lengthAdjust="spacing" textLength="83" x="2219" y="168.5711">floorWinterTile</text><text fill="#000000" font-family="sans-serif" font-size="13" lengthAdjust="spacing" textLength="80" x="2220.5" y="184.1711">wallWinterTile</text><text fill="#000000" font-family="sans-serif" font-size="13" lengthAdjust="spacing" textLength="89" x="2216" y="199.7711">waterWinterTile</text><text fill="#000000" font-family="sans-serif" font-size="13" lengthAdjust="spacing" textLength="83" x="2219" y="215.3711">rockWinterTile</text><text fill="#000000" font-family="sans-serif" font-size="13" lengthAdjust="spacing" textLength="79" x="2221" y="230.9711">bedWinterTile</text><text fill="#000000" font-family="sans-serif" font-size="13" lengthAdjust="spacing" textLength="83" x="2219" y="246.5712">doorWinterTile</text><text fill="#000000" font-family="sans-serif" font-size="13" lengthAdjust="spacing" textLength="96" x="2212.5" y="262.1712">spikesWinterTile</text><text fill="#000000" font-family="sans-serif" font-size="13" lengthAdjust="spacing" textLength="90" x="2215.5" y="277.7712">floorBurningTile</text><text fill="#000000" font-family="sans-serif" font-size="13" lengthAdjust="spacing" textLength="87" x="2217" y="293.3712">wallBurningTile</text><text fill="#000000" font-family="sans-serif" font-size="13" lengthAdjust="spacing" textLength="96" x="2212.5" y="308.9712">waterBurningTile</text><text fill="#000000" font-family="sans-serif" font-size="13" lengthAdjust="spacing" textLength="90" x="2215.5" y="324.5712">rockBurningTile</text><text fill="#000000" font-family="sans-serif" font-size="13" lengthAdjust="spacing" textLength="86" x="2217.5" y="340.1712">bedBurningTile</text><text fill="#000000" font-family="sans-serif" font-size="13" lengthAdjust="spacing" textLength="90" x="2215.5" y="355.7713">doorBurningTile</text><text fill="#000000" font-family="sans-serif" font-size="13" lengthAdjust="spacing" textLength="103" x="2209" y="371.3713">spikesBurningTile</text><text fill="#000000" font-family="sans-serif" font-size="13" lengthAdjust="spacing" textLength="52" x="2234.5" y="386.9713">blackTile</text></g><text fill="#888888" font-family="sans-serif" font-size="10" lengthAdjust="spacing" textLength="179" x="1938.5" y="586.984">UMLDoclet 2.1.0, PlantUML 1.2022.14</text><!--SRC=[lLZTRzem47_lNs6rcWIZe6sFgEe3IWT8dJIjL3oKQZA9eHR6Hd6W3rt_z-KRdnCxBcJZfV7T-UvtdxaK8OGutXAvmpv1XyDWHXcHwEtY0kK_ds4fqHmpDgSy8c4YW9wU867m4ctPytDy3oc_7XJgn4zTA43bWs0qw7I7Q2a48vYN_7STmeW4004u6m00cO_Pp_cn1YTq3pkw8H80r4a6ZBfOBKmFypK9nLuwWVdEX2XGbCy6yoN__FICzY6dV7tCZq8m9qWH-WyP0hbfp4fB-OWX7eDYZyO_3yE8ONzJe2cUJNWA_fcryKlu6rWS6iLWNvCw4yKSnnsc3J50CKun85MB8fLnZeKIX0RlMt0xRN0OVPra6mqjnny2qKcs33G1SK-1Lmc8vnGFxvnm58CZrk4UBJLCJV5fgJP1Wq22fKvRUyidAuEoOZGi5oqOJ182V8O4IocSkLauLqBsAe85Mw5PNsDDHNl2TW52fb5iuwIrGl6EAuvdtt2yanQSZ_ShO_fm0nHB6RStOtFJPdjlCi8HzTzHRpQzl_izdtgpoH35HcrIaxlfU3AhYbtHxNg8HllLYeGac6xnccZye7gfbxe9BbsZgjUFko2UMudJ1q43BQCXVksCGxnxeRvCBsSQwcH34HdrdBnLDHI7Irir3UUKFoRHD0MW1b59Ufhkcp_zllQ1LYC0FeLg-FfdI8r8-QbGhrwfOgD-ysqJfrX1QtZQUbWR5R2w6NJOt7NGRnVnt9HOu5dn5sz1WsM7bDl1QKFROCO2pgY-txz5bvylqyCGHSd_7Qe26NDL5Dw2l-R-9ayvfWKFyoGk-38hf0KFoXkoBBm5Nq5lCdNm30ecKwsUbseRPMRKizIwA3Uf126pgH5W5MLM0M49sYkp2mXIpsLy1xHEFZLyaa13Ao6IFuy_xZtXCnAXRuElWo_Nw2V3F8gfwDE1X98Atkd-1G00]--></g></svg>