<?xml version="1.0" encoding="UTF-8" standalone="no"?><svg xmlns="http://www.w3.org/2000/svg" xmlns:xlink="http://www.w3.org/1999/xlink" contentStyleType="text/css" height="597px" preserveAspectRatio="none" style="width:4067px;height:597px;background:#FFFFFF;" version="1.1" viewBox="0 0 4067 597" width="4067px" zoomAndPan="magnify"><defs/><g><!--cluster vv.Tiles--><g id="cluster_vv.Tiles"><path d="M8.5,6.294 L62.5,6.294 A3.75,3.75 0 0 1 65,8.794 L72,29.0939 L4057.5,29.0939 A2.5,2.5 0 0 1 4060,31.5939 L4060,569.194 A2.5,2.5 0 0 1 4057.5,571.694 L8.5,571.694 A2.5,2.5 0 0 1 6,569.194 L6,8.794 A2.5,2.5 0 0 1 8.5,6.294 " fill="none" style="stroke:#000000;stroke-width:1.5;"/><line style="stroke:#000000;stroke-width:1.5;" x1="6" x2="72" y1="29.0939" y2="29.0939"/><text fill="#000000" font-family="sans-serif" font-size="14" font-weight="bold" lengthAdjust="spacing" textLength="53" x="10" y="21.2999">vv.Tiles</text></g><!--class vv.Tiles.Tile--><a href="Tile.html" target="_top" title="Tile.html" xlink:actuate="onRequest" xlink:href="Tile.html" xlink:show="new" xlink:title="Tile.html" xlink:type="simple"><g id="elem_vv.Tiles.Tile"><rect codeLine="3" fill="#F1F1F1" height="283.199" id="vv.Tiles.Tile" rx="2.5" ry="2.5" style="stroke:#181818;stroke-width:0.5;" width="206" x="1930" y="77.194"/><ellipse cx="2017.25" cy="93.194" fill="#ADD1B2" rx="11" ry="11" style="stroke:#181818;stroke-width:1.0;"/><path d="M2012.25,94.3502 C2012.25,96.8502 2014.3906,98.6627 2017.3125,98.6627 C2018.5469,98.6627 2019.7188,98.3659 2020.4688,97.8502 C2021.0781,97.4284 2021.4063,97.0065 2021.4063,96.6002 C2021.4063,96.1315 2020.9844,95.7252 2020.4844,95.7252 C2020.25,95.7252 2020.0313,95.8034 2019.8281,96.0065 C2019.3906,96.444 2019.3906,96.444 2019.2188,96.5377 C2018.7656,96.7721 2018.125,96.9127 2017.3594,96.9127 C2015.3594,96.9127 2014.0781,95.8971 2014.0781,94.319 L2014.0781,93.2721 C2014.0781,91.569 2015.2969,90.3659 2017,90.3659 C2017.5781,90.3659 2018.1563,90.5065 2018.625,90.7565 C2019.0938,91.0221 2019.2656,91.2096 2019.3281,91.569 C2019.4531,92.2409 2019.7031,92.4909 2020.2344,92.4909 C2020.5156,92.4909 2020.7969,92.3502 2020.9844,92.1315 C2021.1094,91.9596 2021.1563,91.7877 2021.1563,91.3502 L2021.1563,89.9909 C2021.1563,89.569 2021.1406,89.4284 2021.0156,89.2565 C2020.8438,89.0065 2020.5625,88.8502 2020.2344,88.8502 C2019.9219,88.8502 2019.7188,88.9596 2019.5,89.2252 C2018.3281,88.7252 2017.8906,88.6159 2016.9375,88.6159 C2014.2656,88.6159 2012.25,90.6315 2012.25,93.2565 L2012.25,94.3502 Z " fill="#000000"/><text fill="#000000" font-family="sans-serif" font-size="14" lengthAdjust="spacing" textLength="23" x="2037.75" y="97.8">Tile</text><line style="stroke:#181818;stroke-width:0.5;" x1="1931" x2="2135" y1="109.194" y2="109.194"/><ellipse cx="1941" cy="123.0939" fill="none" rx="3" ry="3" style="stroke:#038048;stroke-width:1.0;"/><text fill="#000000" font-family="sans-serif" font-size="14" lengthAdjust="spacing" text-decoration="underline" textLength="107" x="1950" y="126.1999">TILE_WIDTH: int</text><ellipse cx="1941" cy="139.8939" fill="none" rx="3" ry="3" style="stroke:#038048;stroke-width:1.0;"/><text fill="#000000" font-family="sans-serif" font-size="14" lengthAdjust="spacing" text-decoration="underline" textLength="114" x="1950" y="142.9999">TILE_HEIGHT: int</text><polygon fill="none" points="1941,151.6938,1945,155.6938,1941,159.6938,1937,155.6938" style="stroke:#B38D22;stroke-width:1.0;"/><text fill="#000000" font-family="sans-serif" font-size="14" lengthAdjust="spacing" textLength="125" x="1950" y="159.7998">img: BufferedImage</text><polygon fill="none" points="1941,168.4937,1945,172.4937,1941,176.4937,1937,172.4937" style="stroke:#B38D22;stroke-width:1.0;"/><text fill="#000000" font-family="sans-serif" font-size="14" lengthAdjust="spacing" textLength="34" x="1950" y="176.5997">id: int</text><line style="stroke:#181818;stroke-width:0.5;" x1="1931" x2="2135" y1="184.3937" y2="184.3937"/><ellipse cx="1941" cy="198.2937" fill="#84BE84" rx="3" ry="3" style="stroke:#038048;stroke-width:1.0;"/><text fill="#000000" font-family="sans-serif" font-size="14" lengthAdjust="spacing" textLength="150" x="1950" y="201.3996">Tile(BufferedImage, int)</text><ellipse cx="1941" cy="215.0936" fill="#84BE84" rx="3" ry="3" style="stroke:#038048;stroke-width:1.0;"/><text fill="#000000" font-family="sans-serif" font-size="14" lengthAdjust="spacing" textLength="90" x="1950" y="218.1996">Update(): void</text><ellipse cx="1941" cy="231.8935" fill="#84BE84" rx="3" ry="3" style="stroke:#038048;stroke-width:1.0;"/><text fill="#000000" font-family="sans-serif" font-size="14" lengthAdjust="spacing" textLength="180" x="1950" y="234.9995">Draw(Graphics, int, int): void</text><ellipse cx="1941" cy="248.6934" fill="#84BE84" rx="3" ry="3" style="stroke:#038048;stroke-width:1.0;"/><text fill="#000000" font-family="sans-serif" font-size="14" lengthAdjust="spacing" textLength="81" x="1950" y="251.7994">rotate(): void</text><ellipse cx="1941" cy="265.4934" fill="#84BE84" rx="3" ry="3" style="stroke:#038048;stroke-width:1.0;"/><text fill="#000000" font-family="sans-serif" font-size="14" lengthAdjust="spacing" textLength="110" x="1950" y="268.5993">isSolid(): boolean</text><ellipse cx="1941" cy="282.2933" fill="#84BE84" rx="3" ry="3" style="stroke:#038048;stroke-width:1.0;"/><text fill="#000000" font-family="sans-serif" font-size="14" lengthAdjust="spacing" textLength="104" x="1950" y="285.3993">isBed(): boolean</text><ellipse cx="1941" cy="299.0932" fill="#84BE84" rx="3" ry="3" style="stroke:#038048;stroke-width:1.0;"/><text fill="#000000" font-family="sans-serif" font-size="14" lengthAdjust="spacing" textLength="110" x="1950" y="302.1992">isDoor(): boolean</text><ellipse cx="1941" cy="315.8931" fill="#84BE84" rx="3" ry="3" style="stroke:#038048;stroke-width:1.0;"/><text fill="#000000" font-family="sans-serif" font-size="14" lengthAdjust="spacing" textLength="149" x="1950" y="318.9991">isDangerous(): boolean</text><ellipse cx="1941" cy="332.6931" fill="#84BE84" rx="3" ry="3" style="stroke:#038048;stroke-width:1.0;"/><text fill="#000000" font-family="sans-serif" font-size="14" lengthAdjust="spacing" textLength="117" x="1950" y="335.799">isWater(): boolean</text><ellipse cx="1941" cy="349.493" fill="#84BE84" rx="3" ry="3" style="stroke:#038048;stroke-width:1.0;"/><text fill="#000000" font-family="sans-serif" font-size="14" lengthAdjust="spacing" textLength="68" x="1950" y="352.599">GetId(): int</text></g></a><!--class vv.Tiles.WaterBurningTile--><a href="WaterBurningTile.html" target="_top" title="WaterBurningTile.html" xlink:actuate="onRequest" xlink:href="WaterBurningTile.html" xlink:show="new" xlink:title="WaterBurningTile.html" xlink:type="simple"><g id="elem_vv.Tiles.WaterBurningTile"><rect codeLine="20" fill="#F1F1F1" height="81.5999" id="vv.Tiles.WaterBurningTile" rx="2.5" ry="2.5" style="stroke:#181818;stroke-width:0.5;" width="161" x="21.5" y="465.694"/><ellipse cx="45.05" cy="481.694" fill="#ADD1B2" rx="11" ry="11" style="stroke:#181818;stroke-width:1.0;"/><path d="M40.05,482.8502 C40.05,485.3502 42.1906,487.1627 45.1125,487.1627 C46.3469,487.1627 47.5188,486.8659 48.2688,486.3502 C48.8781,485.9284 49.2063,485.5065 49.2063,485.1002 C49.2063,484.6315 48.7844,484.2252 48.2844,484.2252 C48.05,484.2252 47.8313,484.3034 47.6281,484.5065 C47.1906,484.944 47.1906,484.944 47.0188,485.0377 C46.5656,485.2721 45.925,485.4127 45.1594,485.4127 C43.1594,485.4127 41.8781,484.3971 41.8781,482.819 L41.8781,481.7721 C41.8781,480.069 43.0969,478.8659 44.8,478.8659 C45.3781,478.8659 45.9563,479.0065 46.425,479.2565 C46.8938,479.5221 47.0656,479.7096 47.1281,480.069 C47.2531,480.7409 47.5031,480.9909 48.0344,480.9909 C48.3156,480.9909 48.5969,480.8502 48.7844,480.6315 C48.9094,480.4596 48.9563,480.2877 48.9563,479.8502 L48.9563,478.4909 C48.9563,478.069 48.9406,477.9284 48.8156,477.7565 C48.6438,477.5065 48.3625,477.3502 48.0344,477.3502 C47.7219,477.3502 47.5188,477.4596 47.3,477.7252 C46.1281,477.2252 45.6906,477.1159 44.7375,477.1159 C42.0656,477.1159 40.05,479.1315 40.05,481.7565 L40.05,482.8502 Z " fill="#000000"/><text fill="#000000" font-family="sans-serif" font-size="14" lengthAdjust="spacing" textLength="110" x="60.95" y="486.3">WaterBurningTile</text><line style="stroke:#181818;stroke-width:0.5;" x1="22.5" x2="181.5" y1="497.694" y2="497.694"/><line style="stroke:#181818;stroke-width:0.5;" x1="22.5" x2="181.5" y1="505.694" y2="505.694"/><ellipse cx="32.5" cy="519.5939" fill="#84BE84" rx="3" ry="3" style="stroke:#038048;stroke-width:1.0;"/><text fill="#000000" font-family="sans-serif" font-size="14" lengthAdjust="spacing" textLength="135" x="41.5" y="522.6999">WaterBurningTile(int)</text><ellipse cx="32.5" cy="536.3939" fill="#84BE84" rx="3" ry="3" style="stroke:#038048;stroke-width:1.0;"/><text fill="#000000" font-family="sans-serif" font-size="14" lengthAdjust="spacing" textLength="117" x="41.5" y="539.4999">isWater(): boolean</text></g></a><!--class vv.Tiles.DoorWinterTile--><a href="DoorWinterTile.html" target="_top" title="DoorWinterTile.html" xlink:actuate="onRequest" xlink:href="DoorWinterTile.html" xlink:show="new" xlink:title="DoorWinterTile.html" xlink:type="simple"><g id="elem_vv.Tiles.DoorWinterTile"><rect codeLine="25" fill="#F1F1F1" height="98.3998" id="vv.Tiles.DoorWinterTile" rx="2.5" ry="2.5" style="stroke:#181818;stroke-width:0.5;" width="146" x="218" y="457.294"/><ellipse cx="241.55" cy="473.294" fill="#ADD1B2" rx="11" ry="11" style="stroke:#181818;stroke-width:1.0;"/><path d="M236.55,474.4502 C236.55,476.9502 238.6906,478.7627 241.6125,478.7627 C242.8469,478.7627 244.0188,478.4659 244.7688,477.9502 C245.3781,477.5284 245.7063,477.1065 245.7063,476.7002 C245.7063,476.2315 245.2844,475.8252 244.7844,475.8252 C244.55,475.8252 244.3313,475.9034 244.1281,476.1065 C243.6906,476.544 243.6906,476.544 243.5188,476.6377 C243.0656,476.8721 242.425,477.0127 241.6594,477.0127 C239.6594,477.0127 238.3781,475.9971 238.3781,474.419 L238.3781,473.3721 C238.3781,471.669 239.5969,470.4659 241.3,470.4659 C241.8781,470.4659 242.4563,470.6065 242.925,470.8565 C243.3938,471.1221 243.5656,471.3096 243.6281,471.669 C243.7531,472.3409 244.0031,472.5909 244.5344,472.5909 C244.8156,472.5909 245.0969,472.4502 245.2844,472.2315 C245.4094,472.0596 245.4563,471.8877 245.4563,471.4502 L245.4563,470.0909 C245.4563,469.669 245.4406,469.5284 245.3156,469.3565 C245.1438,469.1065 244.8625,468.9502 244.5344,468.9502 C244.2219,468.9502 244.0188,469.0596 243.8,469.3252 C242.6281,468.8252 242.1906,468.7159 241.2375,468.7159 C238.5656,468.7159 236.55,470.7315 236.55,473.3565 L236.55,474.4502 Z " fill="#000000"/><text fill="#000000" font-family="sans-serif" font-size="14" lengthAdjust="spacing" textLength="95" x="257.45" y="477.9">DoorWinterTile</text><line style="stroke:#181818;stroke-width:0.5;" x1="219" x2="363" y1="489.294" y2="489.294"/><line style="stroke:#181818;stroke-width:0.5;" x1="219" x2="363" y1="497.294" y2="497.294"/><ellipse cx="229" cy="511.1939" fill="#84BE84" rx="3" ry="3" style="stroke:#038048;stroke-width:1.0;"/><text fill="#000000" font-family="sans-serif" font-size="14" lengthAdjust="spacing" textLength="120" x="238" y="514.2999">DoorWinterTile(int)</text><ellipse cx="229" cy="527.9939" fill="#84BE84" rx="3" ry="3" style="stroke:#038048;stroke-width:1.0;"/><text fill="#000000" font-family="sans-serif" font-size="14" lengthAdjust="spacing" textLength="110" x="238" y="531.0999">isSolid(): boolean</text><ellipse cx="229" cy="544.7938" fill="#84BE84" rx="3" ry="3" style="stroke:#038048;stroke-width:1.0;"/><text fill="#000000" font-family="sans-serif" font-size="14" lengthAdjust="spacing" textLength="110" x="238" y="547.8998">isDoor(): boolean</text></g></a><!--class vv.Tiles.DoorBurningTile--><a href="DoorBurningTile.html" target="_top" title="DoorBurningTile.html" xlink:actuate="onRequest" xlink:href="DoorBurningTile.html" xlink:show="new" xlink:title="DoorBurningTile.html" xlink:type="simple"><g id="elem_vv.Tiles.DoorBurningTile"><rect codeLine="31" fill="#F1F1F1" height="98.3998" id="vv.Tiles.DoorBurningTile" rx="2.5" ry="2.5" style="stroke:#181818;stroke-width:0.5;" width="154" x="399" y="457.294"/><ellipse cx="422.55" cy="473.294" fill="#ADD1B2" rx="11" ry="11" style="stroke:#181818;stroke-width:1.0;"/><path d="M417.55,474.4502 C417.55,476.9502 419.6906,478.7627 422.6125,478.7627 C423.8469,478.7627 425.0188,478.4659 425.7688,477.9502 C426.3781,477.5284 426.7063,477.1065 426.7063,476.7002 C426.7063,476.2315 426.2844,475.8252 425.7844,475.8252 C425.55,475.8252 425.3313,475.9034 425.1281,476.1065 C424.6906,476.544 424.6906,476.544 424.5188,476.6377 C424.0656,476.8721 423.425,477.0127 422.6594,477.0127 C420.6594,477.0127 419.3781,475.9971 419.3781,474.419 L419.3781,473.3721 C419.3781,471.669 420.5969,470.4659 422.3,470.4659 C422.8781,470.4659 423.4563,470.6065 423.925,470.8565 C424.3938,471.1221 424.5656,471.3096 424.6281,471.669 C424.7531,472.3409 425.0031,472.5909 425.5344,472.5909 C425.8156,472.5909 426.0969,472.4502 426.2844,472.2315 C426.4094,472.0596 426.4563,471.8877 426.4563,471.4502 L426.4563,470.0909 C426.4563,469.669 426.4406,469.5284 426.3156,469.3565 C426.1438,469.1065 425.8625,468.9502 425.5344,468.9502 C425.2219,468.9502 425.0188,469.0596 424.8,469.3252 C423.6281,468.8252 423.1906,468.7159 422.2375,468.7159 C419.5656,468.7159 417.55,470.7315 417.55,473.3565 L417.55,474.4502 Z " fill="#000000"/><text fill="#000000" font-family="sans-serif" font-size="14" lengthAdjust="spacing" textLength="103" x="438.45" y="477.9">DoorBurningTile</text><line style="stroke:#181818;stroke-width:0.5;" x1="400" x2="552" y1="489.294" y2="489.294"/><line style="stroke:#181818;stroke-width:0.5;" x1="400" x2="552" y1="497.294" y2="497.294"/><ellipse cx="410" cy="511.1939" fill="#84BE84" rx="3" ry="3" style="stroke:#038048;stroke-width:1.0;"/><text fill="#000000" font-family="sans-serif" font-size="14" lengthAdjust="spacing" textLength="128" x="419" y="514.2999">DoorBurningTile(int)</text><ellipse cx="410" cy="527.9939" fill="#84BE84" rx="3" ry="3" style="stroke:#038048;stroke-width:1.0;"/><text fill="#000000" font-family="sans-serif" font-size="14" lengthAdjust="spacing" textLength="110" x="419" y="531.0999">isSolid(): boolean</text><ellipse cx="410" cy="544.7938" fill="#84BE84" rx="3" ry="3" style="stroke:#038048;stroke-width:1.0;"/><text fill="#000000" font-family="sans-serif" font-size="14" lengthAdjust="spacing" textLength="110" x="419" y="547.8998">isDoor(): boolean</text></g></a><!--class vv.Tiles.WallWinterTile--><a href="WallWinterTile.html" target="_top" title="WallWinterTile.html" xlink:actuate="onRequest" xlink:href="WallWinterTile.html" xlink:show="new" xlink:title="WallWinterTile.html" xlink:type="simple"><g id="elem_vv.Tiles.WallWinterTile"><rect codeLine="37" fill="#F1F1F1" height="81.5999" id="vv.Tiles.WallWinterTile" rx="2.5" ry="2.5" style="stroke:#181818;stroke-width:0.5;" width="142" x="588" y="465.694"/><ellipse cx="611.55" cy="481.694" fill="#ADD1B2" rx="11" ry="11" style="stroke:#181818;stroke-width:1.0;"/><path d="M606.55,482.8502 C606.55,485.3502 608.6906,487.1627 611.6125,487.1627 C612.8469,487.1627 614.0188,486.8659 614.7688,486.3502 C615.3781,485.9284 615.7063,485.5065 615.7063,485.1002 C615.7063,484.6315 615.2844,484.2252 614.7844,484.2252 C614.55,484.2252 614.3313,484.3034 614.1281,484.5065 C613.6906,484.944 613.6906,484.944 613.5188,485.0377 C613.0656,485.2721 612.425,485.4127 611.6594,485.4127 C609.6594,485.4127 608.3781,484.3971 608.3781,482.819 L608.3781,481.7721 C608.3781,480.069 609.5969,478.8659 611.3,478.8659 C611.8781,478.8659 612.4563,479.0065 612.925,479.2565 C613.3938,479.5221 613.5656,479.7096 613.6281,480.069 C613.7531,480.7409 614.0031,480.9909 614.5344,480.9909 C614.8156,480.9909 615.0969,480.8502 615.2844,480.6315 C615.4094,480.4596 615.4563,480.2877 615.4563,479.8502 L615.4563,478.4909 C615.4563,478.069 615.4406,477.9284 615.3156,477.7565 C615.1438,477.5065 614.8625,477.3502 614.5344,477.3502 C614.2219,477.3502 614.0188,477.4596 613.8,477.7252 C612.6281,477.2252 612.1906,477.1159 611.2375,477.1159 C608.5656,477.1159 606.55,479.1315 606.55,481.7565 L606.55,482.8502 Z " fill="#000000"/><text fill="#000000" font-family="sans-serif" font-size="14" lengthAdjust="spacing" textLength="91" x="627.45" y="486.3">WallWinterTile</text><line style="stroke:#181818;stroke-width:0.5;" x1="589" x2="729" y1="497.694" y2="497.694"/><line style="stroke:#181818;stroke-width:0.5;" x1="589" x2="729" y1="505.694" y2="505.694"/><ellipse cx="599" cy="519.5939" fill="#84BE84" rx="3" ry="3" style="stroke:#038048;stroke-width:1.0;"/><text fill="#000000" font-family="sans-serif" font-size="14" lengthAdjust="spacing" textLength="116" x="608" y="522.6999">WallWinterTile(int)</text><ellipse cx="599" cy="536.3939" fill="#84BE84" rx="3" ry="3" style="stroke:#038048;stroke-width:1.0;"/><text fill="#000000" font-family="sans-serif" font-size="14" lengthAdjust="spacing" textLength="110" x="608" y="539.4999">isSolid(): boolean</text></g></a><!--class vv.Tiles.BedWinterTile--><a href="BedWinterTile.html" target="_top" title="BedWinterTile.html" xlink:actuate="onRequest" xlink:href="BedWinterTile.html" xlink:show="new" xlink:title="BedWinterTile.html" xlink:type="simple"><g id="elem_vv.Tiles.BedWinterTile"><rect codeLine="42" fill="#F1F1F1" height="98.3998" id="vv.Tiles.BedWinterTile" rx="2.5" ry="2.5" style="stroke:#181818;stroke-width:0.5;" width="140" x="765" y="457.294"/><ellipse cx="788.55" cy="473.294" fill="#ADD1B2" rx="11" ry="11" style="stroke:#181818;stroke-width:1.0;"/><path d="M783.55,474.4502 C783.55,476.9502 785.6906,478.7627 788.6125,478.7627 C789.8469,478.7627 791.0188,478.4659 791.7688,477.9502 C792.3781,477.5284 792.7063,477.1065 792.7063,476.7002 C792.7063,476.2315 792.2844,475.8252 791.7844,475.8252 C791.55,475.8252 791.3313,475.9034 791.1281,476.1065 C790.6906,476.544 790.6906,476.544 790.5188,476.6377 C790.0656,476.8721 789.425,477.0127 788.6594,477.0127 C786.6594,477.0127 785.3781,475.9971 785.3781,474.419 L785.3781,473.3721 C785.3781,471.669 786.5969,470.4659 788.3,470.4659 C788.8781,470.4659 789.4563,470.6065 789.925,470.8565 C790.3938,471.1221 790.5656,471.3096 790.6281,471.669 C790.7531,472.3409 791.0031,472.5909 791.5344,472.5909 C791.8156,472.5909 792.0969,472.4502 792.2844,472.2315 C792.4094,472.0596 792.4563,471.8877 792.4563,471.4502 L792.4563,470.0909 C792.4563,469.669 792.4406,469.5284 792.3156,469.3565 C792.1438,469.1065 791.8625,468.9502 791.5344,468.9502 C791.2219,468.9502 791.0188,469.0596 790.8,469.3252 C789.6281,468.8252 789.1906,468.7159 788.2375,468.7159 C785.5656,468.7159 783.55,470.7315 783.55,473.3565 L783.55,474.4502 Z " fill="#000000"/><text fill="#000000" font-family="sans-serif" font-size="14" lengthAdjust="spacing" textLength="89" x="804.45" y="477.9">BedWinterTile</text><line style="stroke:#181818;stroke-width:0.5;" x1="766" x2="904" y1="489.294" y2="489.294"/><line style="stroke:#181818;stroke-width:0.5;" x1="766" x2="904" y1="497.294" y2="497.294"/><ellipse cx="776" cy="511.1939" fill="#84BE84" rx="3" ry="3" style="stroke:#038048;stroke-width:1.0;"/><text fill="#000000" font-family="sans-serif" font-size="14" lengthAdjust="spacing" textLength="114" x="785" y="514.2999">BedWinterTile(int)</text><ellipse cx="776" cy="527.9939" fill="#84BE84" rx="3" ry="3" style="stroke:#038048;stroke-width:1.0;"/><text fill="#000000" font-family="sans-serif" font-size="14" lengthAdjust="spacing" textLength="110" x="785" y="531.0999">isSolid(): boolean</text><ellipse cx="776" cy="544.7938" fill="#84BE84" rx="3" ry="3" style="stroke:#038048;stroke-width:1.0;"/><text fill="#000000" font-family="sans-serif" font-size="14" lengthAdjust="spacing" textLength="104" x="785" y="547.8998">isBed(): boolean</text></g></a><!--class vv.Tiles.BedBurningTile--><a href="BedBurningTile.html" target="_top" title="BedBurningTile.html" xlink:actuate="onRequest" xlink:href="BedBurningTile.html" xlink:show="new" xlink:title="BedBurningTile.html" xlink:type="simple"><g id="elem_vv.Tiles.BedBurningTile"><rect codeLine="48" fill="#F1F1F1" height="98.3998" id="vv.Tiles.BedBurningTile" rx="2.5" ry="2.5" style="stroke:#181818;stroke-width:0.5;" width="148" x="940" y="457.294"/><ellipse cx="963.55" cy="473.294" fill="#ADD1B2" rx="11" ry="11" style="stroke:#181818;stroke-width:1.0;"/><path d="M958.55,474.4502 C958.55,476.9502 960.6906,478.7627 963.6125,478.7627 C964.8469,478.7627 966.0188,478.4659 966.7688,477.9502 C967.3781,477.5284 967.7063,477.1065 967.7063,476.7002 C967.7063,476.2315 967.2844,475.8252 966.7844,475.8252 C966.55,475.8252 966.3313,475.9034 966.1281,476.1065 C965.6906,476.544 965.6906,476.544 965.5188,476.6377 C965.0656,476.8721 964.425,477.0127 963.6594,477.0127 C961.6594,477.0127 960.3781,475.9971 960.3781,474.419 L960.3781,473.3721 C960.3781,471.669 961.5969,470.4659 963.3,470.4659 C963.8781,470.4659 964.4563,470.6065 964.925,470.8565 C965.3938,471.1221 965.5656,471.3096 965.6281,471.669 C965.7531,472.3409 966.0031,472.5909 966.5344,472.5909 C966.8156,472.5909 967.0969,472.4502 967.2844,472.2315 C967.4094,472.0596 967.4563,471.8877 967.4563,471.4502 L967.4563,470.0909 C967.4563,469.669 967.4406,469.5284 967.3156,469.3565 C967.1438,469.1065 966.8625,468.9502 966.5344,468.9502 C966.2219,468.9502 966.0188,469.0596 965.8,469.3252 C964.6281,468.8252 964.1906,468.7159 963.2375,468.7159 C960.5656,468.7159 958.55,470.7315 958.55,473.3565 L958.55,474.4502 Z " fill="#000000"/><text fill="#000000" font-family="sans-serif" font-size="14" lengthAdjust="spacing" textLength="97" x="979.45" y="477.9">BedBurningTile</text><line style="stroke:#181818;stroke-width:0.5;" x1="941" x2="1087" y1="489.294" y2="489.294"/><line style="stroke:#181818;stroke-width:0.5;" x1="941" x2="1087" y1="497.294" y2="497.294"/><ellipse cx="951" cy="511.1939" fill="#84BE84" rx="3" ry="3" style="stroke:#038048;stroke-width:1.0;"/><text fill="#000000" font-family="sans-serif" font-size="14" lengthAdjust="spacing" textLength="122" x="960" y="514.2999">BedBurningTile(int)</text><ellipse cx="951" cy="527.9939" fill="#84BE84" rx="3" ry="3" style="stroke:#038048;stroke-width:1.0;"/><text fill="#000000" font-family="sans-serif" font-size="14" lengthAdjust="spacing" textLength="110" x="960" y="531.0999">isSolid(): boolean</text><ellipse cx="951" cy="544.7938" fill="#84BE84" rx="3" ry="3" style="stroke:#038048;stroke-width:1.0;"/><text fill="#000000" font-family="sans-serif" font-size="14" lengthAdjust="spacing" textLength="104" x="960" y="547.8998">isBed(): boolean</text></g></a><!--class vv.Tiles.RockTile--><a href="RockTile.html" target="_top" title="RockTile.html" xlink:actuate="onRequest" xlink:href="RockTile.html" xlink:show="new" xlink:title="RockTile.html" xlink:type="simple"><g id="elem_vv.Tiles.RockTile"><rect codeLine="54" fill="#F1F1F1" height="81.5999" id="vv.Tiles.RockTile" rx="2.5" ry="2.5" style="stroke:#181818;stroke-width:0.5;" width="136" x="1123" y="465.694"/><ellipse cx="1160.05" cy="481.694" fill="#ADD1B2" rx="11" ry="11" style="stroke:#181818;stroke-width:1.0;"/><path d="M1155.05,482.8502 C1155.05,485.3502 1157.1906,487.1627 1160.1125,487.1627 C1161.3469,487.1627 1162.5188,486.8659 1163.2688,486.3502 C1163.8781,485.9284 1164.2063,485.5065 1164.2063,485.1002 C1164.2063,484.6315 1163.7844,484.2252 1163.2844,484.2252 C1163.05,484.2252 1162.8313,484.3034 1162.6281,484.5065 C1162.1906,484.944 1162.1906,484.944 1162.0188,485.0377 C1161.5656,485.2721 1160.925,485.4127 1160.1594,485.4127 C1158.1594,485.4127 1156.8781,484.3971 1156.8781,482.819 L1156.8781,481.7721 C1156.8781,480.069 1158.0969,478.8659 1159.8,478.8659 C1160.3781,478.8659 1160.9563,479.0065 1161.425,479.2565 C1161.8938,479.5221 1162.0656,479.7096 1162.1281,480.069 C1162.2531,480.7409 1162.5031,480.9909 1163.0344,480.9909 C1163.3156,480.9909 1163.5969,480.8502 1163.7844,480.6315 C1163.9094,480.4596 1163.9563,480.2877 1163.9563,479.8502 L1163.9563,478.4909 C1163.9563,478.069 1163.9406,477.9284 1163.8156,477.7565 C1163.6438,477.5065 1163.3625,477.3502 1163.0344,477.3502 C1162.7219,477.3502 1162.5188,477.4596 1162.3,477.7252 C1161.1281,477.2252 1160.6906,477.1159 1159.7375,477.1159 C1157.0656,477.1159 1155.05,479.1315 1155.05,481.7565 L1155.05,482.8502 Z " fill="#000000"/><text fill="#000000" font-family="sans-serif" font-size="14" lengthAdjust="spacing" textLength="55" x="1178.95" y="486.3">RockTile</text><line style="stroke:#181818;stroke-width:0.5;" x1="1124" x2="1258" y1="497.694" y2="497.694"/><line style="stroke:#181818;stroke-width:0.5;" x1="1124" x2="1258" y1="505.694" y2="505.694"/><ellipse cx="1134" cy="519.5939" fill="#84BE84" rx="3" ry="3" style="stroke:#038048;stroke-width:1.0;"/><text fill="#000000" font-family="sans-serif" font-size="14" lengthAdjust="spacing" textLength="80" x="1143" y="522.6999">RockTile(int)</text><ellipse cx="1134" cy="536.3939" fill="#84BE84" rx="3" ry="3" style="stroke:#038048;stroke-width:1.0;"/><text fill="#000000" font-family="sans-serif" font-size="14" lengthAdjust="spacing" textLength="110" x="1143" y="539.4999">isSolid(): boolean</text></g></a><!--class vv.Tiles.FloorTile--><a href="FloorTile.html" target="_top" title="FloorTile.html" xlink:actuate="onRequest" xlink:href="FloorTile.html" xlink:show="new" xlink:title="FloorTile.html" xlink:type="simple"><g id="elem_vv.Tiles.FloorTile"><rect codeLine="59" fill="#F1F1F1" height="81.5999" id="vv.Tiles.FloorTile" rx="2.5" ry="2.5" style="stroke:#181818;stroke-width:0.5;" width="136" x="1294" y="465.694"/><ellipse cx="1330.6" cy="481.694" fill="#ADD1B2" rx="11" ry="11" style="stroke:#181818;stroke-width:1.0;"/><path d="M1325.6,482.8502 C1325.6,485.3502 1327.7406,487.1627 1330.6625,487.1627 C1331.8969,487.1627 1333.0688,486.8659 1333.8188,486.3502 C1334.4281,485.9284 1334.7563,485.5065 1334.7563,485.1002 C1334.7563,484.6315 1334.3344,484.2252 1333.8344,484.2252 C1333.6,484.2252 1333.3813,484.3034 1333.1781,484.5065 C1332.7406,484.944 1332.7406,484.944 1332.5688,485.0377 C1332.1156,485.2721 1331.475,485.4127 1330.7094,485.4127 C1328.7094,485.4127 1327.4281,484.3971 1327.4281,482.819 L1327.4281,481.7721 C1327.4281,480.069 1328.6469,478.8659 1330.35,478.8659 C1330.9281,478.8659 1331.5063,479.0065 1331.975,479.2565 C1332.4438,479.5221 1332.6156,479.7096 1332.6781,480.069 C1332.8031,480.7409 1333.0531,480.9909 1333.5844,480.9909 C1333.8656,480.9909 1334.1469,480.8502 1334.3344,480.6315 C1334.4594,480.4596 1334.5063,480.2877 1334.5063,479.8502 L1334.5063,478.4909 C1334.5063,478.069 1334.4906,477.9284 1334.3656,477.7565 C1334.1938,477.5065 1333.9125,477.3502 1333.5844,477.3502 C1333.2719,477.3502 1333.0688,477.4596 1332.85,477.7252 C1331.6781,477.2252 1331.2406,477.1159 1330.2875,477.1159 C1327.6156,477.1159 1325.6,479.1315 1325.6,481.7565 L1325.6,482.8502 Z " fill="#000000"/><text fill="#000000" font-family="sans-serif" font-size="14" lengthAdjust="spacing" textLength="56" x="1349.4" y="486.3">FloorTile</text><line style="stroke:#181818;stroke-width:0.5;" x1="1295" x2="1429" y1="497.694" y2="497.694"/><line style="stroke:#181818;stroke-width:0.5;" x1="1295" x2="1429" y1="505.694" y2="505.694"/><ellipse cx="1305" cy="519.5939" fill="#84BE84" rx="3" ry="3" style="stroke:#038048;stroke-width:1.0;"/><text fill="#000000" font-family="sans-serif" font-size="14" lengthAdjust="spacing" textLength="81" x="1314" y="522.6999">FloorTile(int)</text><ellipse cx="1305" cy="536.3939" fill="#84BE84" rx="3" ry="3" style="stroke:#038048;stroke-width:1.0;"/><text fill="#000000" font-family="sans-serif" font-size="14" lengthAdjust="spacing" textLength="110" x="1314" y="539.4999">isSolid(): boolean</text></g></a><!--class vv.Tiles.SpikesWinterTile--><a href="SpikesWinterTile.html" target="_top" title="SpikesWinterTile.html" xlink:actuate="onRequest" xlink:href="SpikesWinterTile.html" xlink:show="new" xlink:title="SpikesWinterTile.html" xlink:type="simple"><g id="elem_vv.Tiles.SpikesWinterTile"><rect codeLine="64" fill="#F1F1F1" height="81.5999" id="vv.Tiles.SpikesWinterTile" rx="2.5" ry="2.5" style="stroke:#181818;stroke-width:0.5;" width="175" x="1465.5" y="465.694"/><ellipse cx="1497.15" cy="481.694" fill="#ADD1B2" rx="11" ry="11" style="stroke:#181818;stroke-width:1.0;"/><path d="M1492.15,482.8502 C1492.15,485.3502 1494.2906,487.1627 1497.2125,487.1627 C1498.4469,487.1627 1499.6188,486.8659 1500.3688,486.3502 C1500.9781,485.9284 1501.3063,485.5065 1501.3063,485.1002 C1501.3063,484.6315 1500.8844,484.2252 1500.3844,484.2252 C1500.15,484.2252 1499.9313,484.3034 1499.7281,484.5065 C1499.2906,484.944 1499.2906,484.944 1499.1188,485.0377 C1498.6656,485.2721 1498.025,485.4127 1497.2594,485.4127 C1495.2594,485.4127 1493.9781,484.3971 1493.9781,482.819 L1493.9781,481.7721 C1493.9781,480.069 1495.1969,478.8659 1496.9,478.8659 C1497.4781,478.8659 1498.0563,479.0065 1498.525,479.2565 C1498.9938,479.5221 1499.1656,479.7096 1499.2281,480.069 C1499.3531,480.7409 1499.6031,480.9909 1500.1344,480.9909 C1500.4156,480.9909 1500.6969,480.8502 1500.8844,480.6315 C1501.0094,480.4596 1501.0563,480.2877 1501.0563,479.8502 L1501.0563,478.4909 C1501.0563,478.069 1501.0406,477.9284 1500.9156,477.7565 C1500.7438,477.5065 1500.4625,477.3502 1500.1344,477.3502 C1499.8219,477.3502 1499.6188,477.4596 1499.4,477.7252 C1498.2281,477.2252 1497.7906,477.1159 1496.8375,477.1159 C1494.1656,477.1159 1492.15,479.1315 1492.15,481.7565 L1492.15,482.8502 Z " fill="#000000"/><text fill="#000000" font-family="sans-serif" font-size="14" lengthAdjust="spacing" textLength="106" x="1514.85" y="486.3">SpikesWinterTile</text><line style="stroke:#181818;stroke-width:0.5;" x1="1466.5" x2="1639.5" y1="497.694" y2="497.694"/><line style="stroke:#181818;stroke-width:0.5;" x1="1466.5" x2="1639.5" y1="505.694" y2="505.694"/><ellipse cx="1476.5" cy="519.5939" fill="#84BE84" rx="3" ry="3" style="stroke:#038048;stroke-width:1.0;"/><text fill="#000000" font-family="sans-serif" font-size="14" lengthAdjust="spacing" textLength="131" x="1485.5" y="522.6999">SpikesWinterTile(int)</text><ellipse cx="1476.5" cy="536.3939" fill="#84BE84" rx="3" ry="3" style="stroke:#038048;stroke-width:1.0;"/><text fill="#000000" font-family="sans-serif" font-size="14" lengthAdjust="spacing" textLength="149" x="1485.5" y="539.4999">isDangerous(): boolean</text></g></a><!--class vv.Tiles.BedTile--><a href="BedTile.html" target="_top" title="BedTile.html" xlink:actuate="onRequest" xlink:href="BedTile.html" xlink:show="new" xlink:title="BedTile.html" xlink:type="simple"><g id="elem_vv.Tiles.BedTile"><rect codeLine="69" fill="#F1F1F1" height="98.3998" id="vv.Tiles.BedTile" rx="2.5" ry="2.5" style="stroke:#181818;stroke-width:0.5;" width="136" x="1676" y="457.294"/><ellipse cx="1716.2" cy="473.294" fill="#ADD1B2" rx="11" ry="11" style="stroke:#181818;stroke-width:1.0;"/><path d="M1711.2,474.4502 C1711.2,476.9502 1713.3406,478.7627 1716.2625,478.7627 C1717.4969,478.7627 1718.6688,478.4659 1719.4188,477.9502 C1720.0281,477.5284 1720.3563,477.1065 1720.3563,476.7002 C1720.3563,476.2315 1719.9344,475.8252 1719.4344,475.8252 C1719.2,475.8252 1718.9813,475.9034 1718.7781,476.1065 C1718.3406,476.544 1718.3406,476.544 1718.1688,476.6377 C1717.7156,476.8721 1717.075,477.0127 1716.3094,477.0127 C1714.3094,477.0127 1713.0281,475.9971 1713.0281,474.419 L1713.0281,473.3721 C1713.0281,471.669 1714.2469,470.4659 1715.95,470.4659 C1716.5281,470.4659 1717.1063,470.6065 1717.575,470.8565 C1718.0438,471.1221 1718.2156,471.3096 1718.2781,471.669 C1718.4031,472.3409 1718.6531,472.5909 1719.1844,472.5909 C1719.4656,472.5909 1719.7469,472.4502 1719.9344,472.2315 C1720.0594,472.0596 1720.1063,471.8877 1720.1063,471.4502 L1720.1063,470.0909 C1720.1063,469.669 1720.0906,469.5284 1719.9656,469.3565 C1719.7938,469.1065 1719.5125,468.9502 1719.1844,468.9502 C1718.8719,468.9502 1718.6688,469.0596 1718.45,469.3252 C1717.2781,468.8252 1716.8406,468.7159 1715.8875,468.7159 C1713.2156,468.7159 1711.2,470.7315 1711.2,473.3565 L1711.2,474.4502 Z " fill="#000000"/><text fill="#000000" font-family="sans-serif" font-size="14" lengthAdjust="spacing" textLength="48" x="1735.8" y="477.9">BedTile</text><line style="stroke:#181818;stroke-width:0.5;" x1="1677" x2="1811" y1="489.294" y2="489.294"/><line style="stroke:#181818;stroke-width:0.5;" x1="1677" x2="1811" y1="497.294" y2="497.294"/><ellipse cx="1687" cy="511.1939" fill="#84BE84" rx="3" ry="3" style="stroke:#038048;stroke-width:1.0;"/><text fill="#000000" font-family="sans-serif" font-size="14" lengthAdjust="spacing" textLength="73" x="1696" y="514.2999">BedTile(int)</text><ellipse cx="1687" cy="527.9939" fill="#84BE84" rx="3" ry="3" style="stroke:#038048;stroke-width:1.0;"/><text fill="#000000" font-family="sans-serif" font-size="14" lengthAdjust="spacing" textLength="110" x="1696" y="531.0999">isSolid(): boolean</text><ellipse cx="1687" cy="544.7938" fill="#84BE84" rx="3" ry="3" style="stroke:#038048;stroke-width:1.0;"/><text fill="#000000" font-family="sans-serif" font-size="14" lengthAdjust="spacing" textLength="104" x="1696" y="547.8998">isBed(): boolean</text></g></a><!--class vv.Tiles.SpikesTile--><a href="SpikesTile.html" target="_top" title="SpikesTile.html" xlink:actuate="onRequest" xlink:href="SpikesTile.html" xlink:show="new" xlink:title="SpikesTile.html" xlink:type="simple"><g id="elem_vv.Tiles.SpikesTile"><rect codeLine="75" fill="#F1F1F1" height="81.5999" id="vv.Tiles.SpikesTile" rx="2.5" ry="2.5" style="stroke:#181818;stroke-width:0.5;" width="175" x="1847.5" y="465.694"/><ellipse cx="1898.25" cy="481.694" fill="#ADD1B2" rx="11" ry="11" style="stroke:#181818;stroke-width:1.0;"/><path d="M1893.25,482.8502 C1893.25,485.3502 1895.3906,487.1627 1898.3125,487.1627 C1899.5469,487.1627 1900.7188,486.8659 1901.4688,486.3502 C1902.0781,485.9284 1902.4063,485.5065 1902.4063,485.1002 C1902.4063,484.6315 1901.9844,484.2252 1901.4844,484.2252 C1901.25,484.2252 1901.0313,484.3034 1900.8281,484.5065 C1900.3906,484.944 1900.3906,484.944 1900.2188,485.0377 C1899.7656,485.2721 1899.125,485.4127 1898.3594,485.4127 C1896.3594,485.4127 1895.0781,484.3971 1895.0781,482.819 L1895.0781,481.7721 C1895.0781,480.069 1896.2969,478.8659 1898,478.8659 C1898.5781,478.8659 1899.1563,479.0065 1899.625,479.2565 C1900.0938,479.5221 1900.2656,479.7096 1900.3281,480.069 C1900.4531,480.7409 1900.7031,480.9909 1901.2344,480.9909 C1901.5156,480.9909 1901.7969,480.8502 1901.9844,480.6315 C1902.1094,480.4596 1902.1563,480.2877 1902.1563,479.8502 L1902.1563,478.4909 C1902.1563,478.069 1902.1406,477.9284 1902.0156,477.7565 C1901.8438,477.5065 1901.5625,477.3502 1901.2344,477.3502 C1900.9219,477.3502 1900.7188,477.4596 1900.5,477.7252 C1899.3281,477.2252 1898.8906,477.1159 1897.9375,477.1159 C1895.2656,477.1159 1893.25,479.1315 1893.25,481.7565 L1893.25,482.8502 Z " fill="#000000"/><text fill="#000000" font-family="sans-serif" font-size="14" lengthAdjust="spacing" textLength="65" x="1918.75" y="486.3">SpikesTile</text><line style="stroke:#181818;stroke-width:0.5;" x1="1848.5" x2="2021.5" y1="497.694" y2="497.694"/><line style="stroke:#181818;stroke-width:0.5;" x1="1848.5" x2="2021.5" y1="505.694" y2="505.694"/><ellipse cx="1858.5" cy="519.5939" fill="#84BE84" rx="3" ry="3" style="stroke:#038048;stroke-width:1.0;"/><text fill="#000000" font-family="sans-serif" font-size="14" lengthAdjust="spacing" textLength="90" x="1867.5" y="522.6999">SpikesTile(int)</text><ellipse cx="1858.5" cy="536.3939" fill="#84BE84" rx="3" ry="3" style="stroke:#038048;stroke-width:1.0;"/><text fill="#000000" font-family="sans-serif" font-size="14" lengthAdjust="spacing" textLength="149" x="1867.5" y="539.4999">isDangerous(): boolean</text></g></a><!--class vv.Tiles.RockWinterTile--><a href="RockWinterTile.html" target="_top" title="RockWinterTile.html" xlink:actuate="onRequest" xlink:href="RockWinterTile.html" xlink:show="new" xlink:title="RockWinterTile.html" xlink:type="simple"><g id="elem_vv.Tiles.RockWinterTile"><rect codeLine="80" fill="#F1F1F1" height="81.5999" id="vv.Tiles.RockWinterTile" rx="2.5" ry="2.5" style="stroke:#181818;stroke-width:0.5;" width="147" x="2057.5" y="465.694"/><ellipse cx="2081.05" cy="481.694" fill="#ADD1B2" rx="11" ry="11" style="stroke:#181818;stroke-width:1.0;"/><path d="M2076.05,482.8502 C2076.05,485.3502 2078.1906,487.1627 2081.1125,487.1627 C2082.3469,487.1627 2083.5188,486.8659 2084.2688,486.3502 C2084.8781,485.9284 2085.2063,485.5065 2085.2063,485.1002 C2085.2063,484.6315 2084.7844,484.2252 2084.2844,484.2252 C2084.05,484.2252 2083.8313,484.3034 2083.6281,484.5065 C2083.1906,484.944 2083.1906,484.944 2083.0188,485.0377 C2082.5656,485.2721 2081.925,485.4127 2081.1594,485.4127 C2079.1594,485.4127 2077.8781,484.3971 2077.8781,482.819 L2077.8781,481.7721 C2077.8781,480.069 2079.0969,478.8659 2080.8,478.8659 C2081.3781,478.8659 2081.9563,479.0065 2082.425,479.2565 C2082.8938,479.5221 2083.0656,479.7096 2083.1281,480.069 C2083.2531,480.7409 2083.5031,480.9909 2084.0344,480.9909 C2084.3156,480.9909 2084.5969,480.8502 2084.7844,480.6315 C2084.9094,480.4596 2084.9563,480.2877 2084.9563,479.8502 L2084.9563,478.4909 C2084.9563,478.069 2084.9406,477.9284 2084.8156,477.7565 C2084.6438,477.5065 2084.3625,477.3502 2084.0344,477.3502 C2083.7219,477.3502 2083.5188,477.4596 2083.3,477.7252 C2082.1281,477.2252 2081.6906,477.1159 2080.7375,477.1159 C2078.0656,477.1159 2076.05,479.1315 2076.05,481.7565 L2076.05,482.8502 Z " fill="#000000"/><text fill="#000000" font-family="sans-serif" font-size="14" lengthAdjust="spacing" textLength="96" x="2096.95" y="486.3">RockWinterTile</text><line style="stroke:#181818;stroke-width:0.5;" x1="2058.5" x2="2203.5" y1="497.694" y2="497.694"/><line style="stroke:#181818;stroke-width:0.5;" x1="2058.5" x2="2203.5" y1="505.694" y2="505.694"/><ellipse cx="2068.5" cy="519.5939" fill="#84BE84" rx="3" ry="3" style="stroke:#038048;stroke-width:1.0;"/><text fill="#000000" font-family="sans-serif" font-size="14" lengthAdjust="spacing" textLength="121" x="2077.5" y="522.6999">RockWinterTile(int)</text><ellipse cx="2068.5" cy="536.3939" fill="#84BE84" rx="3" ry="3" style="stroke:#038048;stroke-width:1.0;"/><text fill="#000000" font-family="sans-serif" font-size="14" lengthAdjust="spacing" textLength="110" x="2077.5" y="539.4999">isSolid(): boolean</text></g></a><!--class vv.Tiles.WaterWinterTile--><a href="WaterWinterTile.html" target="_top" title="WaterWinterTile.html" xlink:actuate="onRequest" xlink:href="WaterWinterTile.html" xlink:show="new" xlink:title="WaterWinterTile.html" xlink:type="simple"><g id="elem_vv.Tiles.WaterWinterTile"><rect codeLine="85" fill="#F1F1F1" height="81.5999" id="vv.Tiles.WaterWinterTile" rx="2.5" ry="2.5" style="stroke:#181818;stroke-width:0.5;" width="153" x="2239.5" y="465.694"/><ellipse cx="2263.05" cy="481.694" fill="#ADD1B2" rx="11" ry="11" style="stroke:#181818;stroke-width:1.0;"/><path d="M2258.05,482.8502 C2258.05,485.3502 2260.1906,487.1627 2263.1125,487.1627 C2264.3469,487.1627 2265.5188,486.8659 2266.2688,486.3502 C2266.8781,485.9284 2267.2063,485.5065 2267.2063,485.1002 C2267.2063,484.6315 2266.7844,484.2252 2266.2844,484.2252 C2266.05,484.2252 2265.8313,484.3034 2265.6281,484.5065 C2265.1906,484.944 2265.1906,484.944 2265.0188,485.0377 C2264.5656,485.2721 2263.925,485.4127 2263.1594,485.4127 C2261.1594,485.4127 2259.8781,484.3971 2259.8781,482.819 L2259.8781,481.7721 C2259.8781,480.069 2261.0969,478.8659 2262.8,478.8659 C2263.3781,478.8659 2263.9563,479.0065 2264.425,479.2565 C2264.8938,479.5221 2265.0656,479.7096 2265.1281,480.069 C2265.2531,480.7409 2265.5031,480.9909 2266.0344,480.9909 C2266.3156,480.9909 2266.5969,480.8502 2266.7844,480.6315 C2266.9094,480.4596 2266.9563,480.2877 2266.9563,479.8502 L2266.9563,478.4909 C2266.9563,478.069 2266.9406,477.9284 2266.8156,477.7565 C2266.6438,477.5065 2266.3625,477.3502 2266.0344,477.3502 C2265.7219,477.3502 2265.5188,477.4596 2265.3,477.7252 C2264.1281,477.2252 2263.6906,477.1159 2262.7375,477.1159 C2260.0656,477.1159 2258.05,479.1315 2258.05,481.7565 L2258.05,482.8502 Z " fill="#000000"/><text fill="#000000" font-family="sans-serif" font-size="14" lengthAdjust="spacing" textLength="102" x="2278.95" y="486.3">WaterWinterTile</text><line style="stroke:#181818;stroke-width:0.5;" x1="2240.5" x2="2391.5" y1="497.694" y2="497.694"/><line style="stroke:#181818;stroke-width:0.5;" x1="2240.5" x2="2391.5" y1="505.694" y2="505.694"/><ellipse cx="2250.5" cy="519.5939" fill="#84BE84" rx="3" ry="3" style="stroke:#038048;stroke-width:1.0;"/><text fill="#000000" font-family="sans-serif" font-size="14" lengthAdjust="spacing" textLength="127" x="2259.5" y="522.6999">WaterWinterTile(int)</text><ellipse cx="2250.5" cy="536.3939" fill="#84BE84" rx="3" ry="3" style="stroke:#038048;stroke-width:1.0;"/><text fill="#000000" font-family="sans-serif" font-size="14" lengthAdjust="spacing" textLength="117" x="2259.5" y="539.4999">isWater(): boolean</text></g></a><!--class vv.Tiles.FloorBurningTile--><a href="FloorBurningTile.html" target="_top" title="FloorBurningTile.html" xlink:actuate="onRequest" xlink:href="FloorBurningTile.html" xlink:show="new" xlink:title="FloorBurningTile.html" xlink:type="simple"><g id="elem_vv.Tiles.FloorBurningTile"><rect codeLine="90" fill="#F1F1F1" height="81.5999" id="vv.Tiles.FloorBurningTile" rx="2.5" ry="2.5" style="stroke:#181818;stroke-width:0.5;" width="156" x="2428" y="465.694"/><ellipse cx="2451.55" cy="481.694" fill="#ADD1B2" rx="11" ry="11" style="stroke:#181818;stroke-width:1.0;"/><path d="M2446.55,482.8502 C2446.55,485.3502 2448.6906,487.1627 2451.6125,487.1627 C2452.8469,487.1627 2454.0188,486.8659 2454.7688,486.3502 C2455.3781,485.9284 2455.7063,485.5065 2455.7063,485.1002 C2455.7063,484.6315 2455.2844,484.2252 2454.7844,484.2252 C2454.55,484.2252 2454.3313,484.3034 2454.1281,484.5065 C2453.6906,484.944 2453.6906,484.944 2453.5188,485.0377 C2453.0656,485.2721 2452.425,485.4127 2451.6594,485.4127 C2449.6594,485.4127 2448.3781,484.3971 2448.3781,482.819 L2448.3781,481.7721 C2448.3781,480.069 2449.5969,478.8659 2451.3,478.8659 C2451.8781,478.8659 2452.4563,479.0065 2452.925,479.2565 C2453.3938,479.5221 2453.5656,479.7096 2453.6281,480.069 C2453.7531,480.7409 2454.0031,480.9909 2454.5344,480.9909 C2454.8156,480.9909 2455.0969,480.8502 2455.2844,480.6315 C2455.4094,480.4596 2455.4563,480.2877 2455.4563,479.8502 L2455.4563,478.4909 C2455.4563,478.069 2455.4406,477.9284 2455.3156,477.7565 C2455.1438,477.5065 2454.8625,477.3502 2454.5344,477.3502 C2454.2219,477.3502 2454.0188,477.4596 2453.8,477.7252 C2452.6281,477.2252 2452.1906,477.1159 2451.2375,477.1159 C2448.5656,477.1159 2446.55,479.1315 2446.55,481.7565 L2446.55,482.8502 Z " fill="#000000"/><text fill="#000000" font-family="sans-serif" font-size="14" lengthAdjust="spacing" textLength="105" x="2467.45" y="486.3">FloorBurningTile</text><line style="stroke:#181818;stroke-width:0.5;" x1="2429" x2="2583" y1="497.694" y2="497.694"/><line style="stroke:#181818;stroke-width:0.5;" x1="2429" x2="2583" y1="505.694" y2="505.694"/><ellipse cx="2439" cy="519.5939" fill="#84BE84" rx="3" ry="3" style="stroke:#038048;stroke-width:1.0;"/><text fill="#000000" font-family="sans-serif" font-size="14" lengthAdjust="spacing" textLength="130" x="2448" y="522.6999">FloorBurningTile(int)</text><ellipse cx="2439" cy="536.3939" fill="#84BE84" rx="3" ry="3" style="stroke:#038048;stroke-width:1.0;"/><text fill="#000000" font-family="sans-serif" font-size="14" lengthAdjust="spacing" textLength="110" x="2448" y="539.4999">isSolid(): boolean</text></g></a><!--class vv.Tiles.BlackTile--><a href="BlackTile.html" target="_top" title="BlackTile.html" xlink:actuate="onRequest" xlink:href="BlackTile.html" xlink:show="new" xlink:title="BlackTile.html" xlink:type="simple"><g id="elem_vv.Tiles.BlackTile"><rect codeLine="95" fill="#F1F1F1" height="81.5999" id="vv.Tiles.BlackTile" rx="2.5" ry="2.5" style="stroke:#181818;stroke-width:0.5;" width="136" x="2619" y="465.694"/><ellipse cx="2655.15" cy="481.694" fill="#ADD1B2" rx="11" ry="11" style="stroke:#181818;stroke-width:1.0;"/><path d="M2650.15,482.8502 C2650.15,485.3502 2652.2906,487.1627 2655.2125,487.1627 C2656.4469,487.1627 2657.6188,486.8659 2658.3688,486.3502 C2658.9781,485.9284 2659.3063,485.5065 2659.3063,485.1002 C2659.3063,484.6315 2658.8844,484.2252 2658.3844,484.2252 C2658.15,484.2252 2657.9313,484.3034 2657.7281,484.5065 C2657.2906,484.944 2657.2906,484.944 2657.1188,485.0377 C2656.6656,485.2721 2656.025,485.4127 2655.2594,485.4127 C2653.2594,485.4127 2651.9781,484.3971 2651.9781,482.819 L2651.9781,481.7721 C2651.9781,480.069 2653.1969,478.8659 2654.9,478.8659 C2655.4781,478.8659 2656.0563,479.0065 2656.525,479.2565 C2656.9938,479.5221 2657.1656,479.7096 2657.2281,480.069 C2657.3531,480.7409 2657.6031,480.9909 2658.1344,480.9909 C2658.4156,480.9909 2658.6969,480.8502 2658.8844,480.6315 C2659.0094,480.4596 2659.0563,480.2877 2659.0563,479.8502 L2659.0563,478.4909 C2659.0563,478.069 2659.0406,477.9284 2658.9156,477.7565 C2658.7438,477.5065 2658.4625,477.3502 2658.1344,477.3502 C2657.8219,477.3502 2657.6188,477.4596 2657.4,477.7252 C2656.2281,477.2252 2655.7906,477.1159 2654.8375,477.1159 C2652.1656,477.1159 2650.15,479.1315 2650.15,481.7565 L2650.15,482.8502 Z " fill="#000000"/><text fill="#000000" font-family="sans-serif" font-size="14" lengthAdjust="spacing" textLength="57" x="2673.85" y="486.3">BlackTile</text><line style="stroke:#181818;stroke-width:0.5;" x1="2620" x2="2754" y1="497.694" y2="497.694"/><line style="stroke:#181818;stroke-width:0.5;" x1="2620" x2="2754" y1="505.694" y2="505.694"/><ellipse cx="2630" cy="519.5939" fill="#84BE84" rx="3" ry="3" style="stroke:#038048;stroke-width:1.0;"/><text fill="#000000" font-family="sans-serif" font-size="14" lengthAdjust="spacing" textLength="82" x="2639" y="522.6999">BlackTile(int)</text><ellipse cx="2630" cy="536.3939" fill="#84BE84" rx="3" ry="3" style="stroke:#038048;stroke-width:1.0;"/><text fill="#000000" font-family="sans-serif" font-size="14" lengthAdjust="spacing" textLength="110" x="2639" y="539.4999">isSolid(): boolean</text></g></a><!--class vv.Tiles.SpikesBurningTile--><a href="SpikesBurningTile.html" target="_top" title="SpikesBurningTile.html" xlink:actuate="onRequest" xlink:href="SpikesBurningTile.html" xlink:show="new" xlink:title="SpikesBurningTile.html" xlink:type="simple"><g id="elem_vv.Tiles.SpikesBurningTile"><rect codeLine="100" fill="#F1F1F1" height="81.5999" id="vv.Tiles.SpikesBurningTile" rx="2.5" ry="2.5" style="stroke:#181818;stroke-width:0.5;" width="175" x="2790.5" y="465.694"/><ellipse cx="2818.55" cy="481.694" fill="#ADD1B2" rx="11" ry="11" style="stroke:#181818;stroke-width:1.0;"/><path d="M2813.55,482.8502 C2813.55,485.3502 2815.6906,487.1627 2818.6125,487.1627 C2819.8469,487.1627 2821.0188,486.8659 2821.7688,486.3502 C2822.3781,485.9284 2822.7063,485.5065 2822.7063,485.1002 C2822.7063,484.6315 2822.2844,484.2252 2821.7844,484.2252 C2821.55,484.2252 2821.3313,484.3034 2821.1281,484.5065 C2820.6906,484.944 2820.6906,484.944 2820.5188,485.0377 C2820.0656,485.2721 2819.425,485.4127 2818.6594,485.4127 C2816.6594,485.4127 2815.3781,484.3971 2815.3781,482.819 L2815.3781,481.7721 C2815.3781,480.069 2816.5969,478.8659 2818.3,478.8659 C2818.8781,478.8659 2819.4563,479.0065 2819.925,479.2565 C2820.3938,479.5221 2820.5656,479.7096 2820.6281,480.069 C2820.7531,480.7409 2821.0031,480.9909 2821.5344,480.9909 C2821.8156,480.9909 2822.0969,480.8502 2822.2844,480.6315 C2822.4094,480.4596 2822.4563,480.2877 2822.4563,479.8502 L2822.4563,478.4909 C2822.4563,478.069 2822.4406,477.9284 2822.3156,477.7565 C2822.1438,477.5065 2821.8625,477.3502 2821.5344,477.3502 C2821.2219,477.3502 2821.0188,477.4596 2820.8,477.7252 C2819.6281,477.2252 2819.1906,477.1159 2818.2375,477.1159 C2815.5656,477.1159 2813.55,479.1315 2813.55,481.7565 L2813.55,482.8502 Z " fill="#000000"/><text fill="#000000" font-family="sans-serif" font-size="14" lengthAdjust="spacing" textLength="114" x="2835.45" y="486.3">SpikesBurningTile</text><line style="stroke:#181818;stroke-width:0.5;" x1="2791.5" x2="2964.5" y1="497.694" y2="497.694"/><line style="stroke:#181818;stroke-width:0.5;" x1="2791.5" x2="2964.5" y1="505.694" y2="505.694"/><ellipse cx="2801.5" cy="519.5939" fill="#84BE84" rx="3" ry="3" style="stroke:#038048;stroke-width:1.0;"/><text fill="#000000" font-family="sans-serif" font-size="14" lengthAdjust="spacing" textLength="139" x="2810.5" y="522.6999">SpikesBurningTile(int)</text><ellipse cx="2801.5" cy="536.3939" fill="#84BE84" rx="3" ry="3" style="stroke:#038048;stroke-width:1.0;"/><text fill="#000000" font-family="sans-serif" font-size="14" lengthAdjust="spacing" textLength="149" x="2810.5" y="539.4999">isDangerous(): boolean</text></g></a><!--class vv.Tiles.WaterTile--><a href="WaterTile.html" target="_top" title="WaterTile.html" xlink:actuate="onRequest" xlink:href="WaterTile.html" xlink:show="new" xlink:title="WaterTile.html" xlink:type="simple"><g id="elem_vv.Tiles.WaterTile"><rect codeLine="105" fill="#F1F1F1" height="81.5999" id="vv.Tiles.WaterTile" rx="2.5" ry="2.5" style="stroke:#181818;stroke-width:0.5;" width="143" x="3000.5" y="465.694"/><ellipse cx="3038" cy="481.694" fill="#ADD1B2" rx="11" ry="11" style="stroke:#181818;stroke-width:1.0;"/><path d="M3033,482.8502 C3033,485.3502 3035.1406,487.1627 3038.0625,487.1627 C3039.2969,487.1627 3040.4688,486.8659 3041.2188,486.3502 C3041.8281,485.9284 3042.1563,485.5065 3042.1563,485.1002 C3042.1563,484.6315 3041.7344,484.2252 3041.2344,484.2252 C3041,484.2252 3040.7813,484.3034 3040.5781,484.5065 C3040.1406,484.944 3040.1406,484.944 3039.9688,485.0377 C3039.5156,485.2721 3038.875,485.4127 3038.1094,485.4127 C3036.1094,485.4127 3034.8281,484.3971 3034.8281,482.819 L3034.8281,481.7721 C3034.8281,480.069 3036.0469,478.8659 3037.75,478.8659 C3038.3281,478.8659 3038.9063,479.0065 3039.375,479.2565 C3039.8438,479.5221 3040.0156,479.7096 3040.0781,480.069 C3040.2031,480.7409 3040.4531,480.9909 3040.9844,480.9909 C3041.2656,480.9909 3041.5469,480.8502 3041.7344,480.6315 C3041.8594,480.4596 3041.9063,480.2877 3041.9063,479.8502 L3041.9063,478.4909 C3041.9063,478.069 3041.8906,477.9284 3041.7656,477.7565 C3041.5938,477.5065 3041.3125,477.3502 3040.9844,477.3502 C3040.6719,477.3502 3040.4688,477.4596 3040.25,477.7252 C3039.0781,477.2252 3038.6406,477.1159 3037.6875,477.1159 C3035.0156,477.1159 3033,479.1315 3033,481.7565 L3033,482.8502 Z " fill="#000000"/><text fill="#000000" font-family="sans-serif" font-size="14" lengthAdjust="spacing" textLength="61" x="3057" y="486.3">WaterTile</text><line style="stroke:#181818;stroke-width:0.5;" x1="3001.5" x2="3142.5" y1="497.694" y2="497.694"/><line style="stroke:#181818;stroke-width:0.5;" x1="3001.5" x2="3142.5" y1="505.694" y2="505.694"/><ellipse cx="3011.5" cy="519.5939" fill="#84BE84" rx="3" ry="3" style="stroke:#038048;stroke-width:1.0;"/><text fill="#000000" font-family="sans-serif" font-size="14" lengthAdjust="spacing" textLength="86" x="3020.5" y="522.6999">WaterTile(int)</text><ellipse cx="3011.5" cy="536.3939" fill="#84BE84" rx="3" ry="3" style="stroke:#038048;stroke-width:1.0;"/><text fill="#000000" font-family="sans-serif" font-size="14" lengthAdjust="spacing" textLength="117" x="3020.5" y="539.4999">isWater(): boolean</text></g></a><!--class vv.Tiles.RockBurningTile--><a href="RockBurningTile.html" target="_top" title="RockBurningTile.html" xlink:actuate="onRequest" xlink:href="RockBurningTile.html" xlink:show="new" xlink:title="RockBurningTile.html" xlink:type="simple"><g id="elem_vv.Tiles.RockBurningTile"><rect codeLine="110" fill="#F1F1F1" height="81.5999" id="vv.Tiles.RockBurningTile" rx="2.5" ry="2.5" style="stroke:#181818;stroke-width:0.5;" width="155" x="3178.5" y="465.694"/><ellipse cx="3202.05" cy="481.694" fill="#ADD1B2" rx="11" ry="11" style="stroke:#181818;stroke-width:1.0;"/><path d="M3197.05,482.8502 C3197.05,485.3502 3199.1906,487.1627 3202.1125,487.1627 C3203.3469,487.1627 3204.5188,486.8659 3205.2688,486.3502 C3205.8781,485.9284 3206.2063,485.5065 3206.2063,485.1002 C3206.2063,484.6315 3205.7844,484.2252 3205.2844,484.2252 C3205.05,484.2252 3204.8313,484.3034 3204.6281,484.5065 C3204.1906,484.944 3204.1906,484.944 3204.0188,485.0377 C3203.5656,485.2721 3202.925,485.4127 3202.1594,485.4127 C3200.1594,485.4127 3198.8781,484.3971 3198.8781,482.819 L3198.8781,481.7721 C3198.8781,480.069 3200.0969,478.8659 3201.8,478.8659 C3202.3781,478.8659 3202.9563,479.0065 3203.425,479.2565 C3203.8938,479.5221 3204.0656,479.7096 3204.1281,480.069 C3204.2531,480.7409 3204.5031,480.9909 3205.0344,480.9909 C3205.3156,480.9909 3205.5969,480.8502 3205.7844,480.6315 C3205.9094,480.4596 3205.9563,480.2877 3205.9563,479.8502 L3205.9563,478.4909 C3205.9563,478.069 3205.9406,477.9284 3205.8156,477.7565 C3205.6438,477.5065 3205.3625,477.3502 3205.0344,477.3502 C3204.7219,477.3502 3204.5188,477.4596 3204.3,477.7252 C3203.1281,477.2252 3202.6906,477.1159 3201.7375,477.1159 C3199.0656,477.1159 3197.05,479.1315 3197.05,481.7565 L3197.05,482.8502 Z " fill="#000000"/><text fill="#000000" font-family="sans-serif" font-size="14" lengthAdjust="spacing" textLength="104" x="3217.95" y="486.3">RockBurningTile</text><line style="stroke:#181818;stroke-width:0.5;" x1="3179.5" x2="3332.5" y1="497.694" y2="497.694"/><line style="stroke:#181818;stroke-width:0.5;" x1="3179.5" x2="3332.5" y1="505.694" y2="505.694"/><ellipse cx="3189.5" cy="519.5939" fill="#84BE84" rx="3" ry="3" style="stroke:#038048;stroke-width:1.0;"/><text fill="#000000" font-family="sans-serif" font-size="14" lengthAdjust="spacing" textLength="129" x="3198.5" y="522.6999">RockBurningTile(int)</text><ellipse cx="3189.5" cy="536.3939" fill="#84BE84" rx="3" ry="3" style="stroke:#038048;stroke-width:1.0;"/><text fill="#000000" font-family="sans-serif" font-size="14" lengthAdjust="spacing" textLength="110" x="3198.5" y="539.4999">isSolid(): boolean</text></g></a><!--class vv.Tiles.WallTile--><a href="WallTile.html" target="_top" title="WallTile.html" xlink:actuate="onRequest" xlink:href="WallTile.html" xlink:show="new" xlink:title="WallTile.html" xlink:type="simple"><g id="elem_vv.Tiles.WallTile"><rect codeLine="115" fill="#F1F1F1" height="81.5999" id="vv.Tiles.WallTile" rx="2.5" ry="2.5" style="stroke:#181818;stroke-width:0.5;" width="136" x="3369" y="465.694"/><ellipse cx="3408.3" cy="481.694" fill="#ADD1B2" rx="11" ry="11" style="stroke:#181818;stroke-width:1.0;"/><path d="M3403.3,482.8502 C3403.3,485.3502 3405.4406,487.1627 3408.3625,487.1627 C3409.5969,487.1627 3410.7688,486.8659 3411.5188,486.3502 C3412.1281,485.9284 3412.4563,485.5065 3412.4563,485.1002 C3412.4563,484.6315 3412.0344,484.2252 3411.5344,484.2252 C3411.3,484.2252 3411.0813,484.3034 3410.8781,484.5065 C3410.4406,484.944 3410.4406,484.944 3410.2688,485.0377 C3409.8156,485.2721 3409.175,485.4127 3408.4094,485.4127 C3406.4094,485.4127 3405.1281,484.3971 3405.1281,482.819 L3405.1281,481.7721 C3405.1281,480.069 3406.3469,478.8659 3408.05,478.8659 C3408.6281,478.8659 3409.2063,479.0065 3409.675,479.2565 C3410.1438,479.5221 3410.3156,479.7096 3410.3781,480.069 C3410.5031,480.7409 3410.7531,480.9909 3411.2844,480.9909 C3411.5656,480.9909 3411.8469,480.8502 3412.0344,480.6315 C3412.1594,480.4596 3412.2063,480.2877 3412.2063,479.8502 L3412.2063,478.4909 C3412.2063,478.069 3412.1906,477.9284 3412.0656,477.7565 C3411.8938,477.5065 3411.6125,477.3502 3411.2844,477.3502 C3410.9719,477.3502 3410.7688,477.4596 3410.55,477.7252 C3409.3781,477.2252 3408.9406,477.1159 3407.9875,477.1159 C3405.3156,477.1159 3403.3,479.1315 3403.3,481.7565 L3403.3,482.8502 Z " fill="#000000"/><text fill="#000000" font-family="sans-serif" font-size="14" lengthAdjust="spacing" textLength="50" x="3427.7" y="486.3">WallTile</text><line style="stroke:#181818;stroke-width:0.5;" x1="3370" x2="3504" y1="497.694" y2="497.694"/><line style="stroke:#181818;stroke-width:0.5;" x1="3370" x2="3504" y1="505.694" y2="505.694"/><ellipse cx="3380" cy="519.5939" fill="#84BE84" rx="3" ry="3" style="stroke:#038048;stroke-width:1.0;"/><text fill="#000000" font-family="sans-serif" font-size="14" lengthAdjust="spacing" textLength="75" x="3389" y="522.6999">WallTile(int)</text><ellipse cx="3380" cy="536.3939" fill="#84BE84" rx="3" ry="3" style="stroke:#038048;stroke-width:1.0;"/><text fill="#000000" font-family="sans-serif" font-size="14" lengthAdjust="spacing" textLength="110" x="3389" y="539.4999">isSolid(): boolean</text></g></a><!--class vv.Tiles.DoorTile--><a href="DoorTile.html" target="_top" title="DoorTile.html" xlink:actuate="onRequest" xlink:href="DoorTile.html" xlink:show="new" xlink:title="DoorTile.html" xlink:type="simple"><g id="elem_vv.Tiles.DoorTile"><rect codeLine="120" fill="#F1F1F1" height="98.3998" id="vv.Tiles.DoorTile" rx="2.5" ry="2.5" style="stroke:#181818;stroke-width:0.5;" width="136" x="3540" y="457.294"/><ellipse cx="3577.5" cy="473.294" fill="#ADD1B2" rx="11" ry="11" style="stroke:#181818;stroke-width:1.0;"/><path d="M3572.5,474.4502 C3572.5,476.9502 3574.6406,478.7627 3577.5625,478.7627 C3578.7969,478.7627 3579.9688,478.4659 3580.7188,477.9502 C3581.3281,477.5284 3581.6563,477.1065 3581.6563,476.7002 C3581.6563,476.2315 3581.2344,475.8252 3580.7344,475.8252 C3580.5,475.8252 3580.2813,475.9034 3580.0781,476.1065 C3579.6406,476.544 3579.6406,476.544 3579.4688,476.6377 C3579.0156,476.8721 3578.375,477.0127 3577.6094,477.0127 C3575.6094,477.0127 3574.3281,475.9971 3574.3281,474.419 L3574.3281,473.3721 C3574.3281,471.669 3575.5469,470.4659 3577.25,470.4659 C3577.8281,470.4659 3578.4063,470.6065 3578.875,470.8565 C3579.3438,471.1221 3579.5156,471.3096 3579.5781,471.669 C3579.7031,472.3409 3579.9531,472.5909 3580.4844,472.5909 C3580.7656,472.5909 3581.0469,472.4502 3581.2344,472.2315 C3581.3594,472.0596 3581.4063,471.8877 3581.4063,471.4502 L3581.4063,470.0909 C3581.4063,469.669 3581.3906,469.5284 3581.2656,469.3565 C3581.0938,469.1065 3580.8125,468.9502 3580.4844,468.9502 C3580.1719,468.9502 3579.9688,469.0596 3579.75,469.3252 C3578.5781,468.8252 3578.1406,468.7159 3577.1875,468.7159 C3574.5156,468.7159 3572.5,470.7315 3572.5,473.3565 L3572.5,474.4502 Z " fill="#000000"/><text fill="#000000" font-family="sans-serif" font-size="14" lengthAdjust="spacing" textLength="54" x="3596.5" y="477.9">DoorTile</text><line style="stroke:#181818;stroke-width:0.5;" x1="3541" x2="3675" y1="489.294" y2="489.294"/><line style="stroke:#181818;stroke-width:0.5;" x1="3541" x2="3675" y1="497.294" y2="497.294"/><ellipse cx="3551" cy="511.1939" fill="#84BE84" rx="3" ry="3" style="stroke:#038048;stroke-width:1.0;"/><text fill="#000000" font-family="sans-serif" font-size="14" lengthAdjust="spacing" textLength="79" x="3560" y="514.2999">DoorTile(int)</text><ellipse cx="3551" cy="527.9939" fill="#84BE84" rx="3" ry="3" style="stroke:#038048;stroke-width:1.0;"/><text fill="#000000" font-family="sans-serif" font-size="14" lengthAdjust="spacing" textLength="110" x="3560" y="531.0999">isSolid(): boolean</text><ellipse cx="3551" cy="544.7938" fill="#84BE84" rx="3" ry="3" style="stroke:#038048;stroke-width:1.0;"/><text fill="#000000" font-family="sans-serif" font-size="14" lengthAdjust="spacing" textLength="110" x="3560" y="547.8998">isDoor(): boolean</text></g></a><!--class vv.Tiles.FloorWinterTile--><a href="FloorWinterTile.html" target="_top" title="FloorWinterTile.html" xlink:actuate="onRequest" xlink:href="FloorWinterTile.html" xlink:show="new" xlink:title="FloorWinterTile.html" xlink:type="simple"><g id="elem_vv.Tiles.FloorWinterTile"><rect codeLine="126" fill="#F1F1F1" height="81.5999" id="vv.Tiles.FloorWinterTile" rx="2.5" ry="2.5" style="stroke:#181818;stroke-width:0.5;" width="148" x="3711" y="465.694"/><ellipse cx="3734.55" cy="481.694" fill="#ADD1B2" rx="11" ry="11" style="stroke:#181818;stroke-width:1.0;"/><path d="M3729.55,482.8502 C3729.55,485.3502 3731.6906,487.1627 3734.6125,487.1627 C3735.8469,487.1627 3737.0188,486.8659 3737.7688,486.3502 C3738.3781,485.9284 3738.7063,485.5065 3738.7063,485.1002 C3738.7063,484.6315 3738.2844,484.2252 3737.7844,484.2252 C3737.55,484.2252 3737.3313,484.3034 3737.1281,484.5065 C3736.6906,484.944 3736.6906,484.944 3736.5188,485.0377 C3736.0656,485.2721 3735.425,485.4127 3734.6594,485.4127 C3732.6594,485.4127 3731.3781,484.3971 3731.3781,482.819 L3731.3781,481.7721 C3731.3781,480.069 3732.5969,478.8659 3734.3,478.8659 C3734.8781,478.8659 3735.4563,479.0065 3735.925,479.2565 C3736.3938,479.5221 3736.5656,479.7096 3736.6281,480.069 C3736.7531,480.7409 3737.0031,480.9909 3737.5344,480.9909 C3737.8156,480.9909 3738.0969,480.8502 3738.2844,480.6315 C3738.4094,480.4596 3738.4563,480.2877 3738.4563,479.8502 L3738.4563,478.4909 C3738.4563,478.069 3738.4406,477.9284 3738.3156,477.7565 C3738.1438,477.5065 3737.8625,477.3502 3737.5344,477.3502 C3737.2219,477.3502 3737.0188,477.4596 3736.8,477.7252 C3735.6281,477.2252 3735.1906,477.1159 3734.2375,477.1159 C3731.5656,477.1159 3729.55,479.1315 3729.55,481.7565 L3729.55,482.8502 Z " fill="#000000"/><text fill="#000000" font-family="sans-serif" font-size="14" lengthAdjust="spacing" textLength="97" x="3750.45" y="486.3">FloorWinterTile</text><line style="stroke:#181818;stroke-width:0.5;" x1="3712" x2="3858" y1="497.694" y2="497.694"/><line style="stroke:#181818;stroke-width:0.5;" x1="3712" x2="3858" y1="505.694" y2="505.694"/><ellipse cx="3722" cy="519.5939" fill="#84BE84" rx="3" ry="3" style="stroke:#038048;stroke-width:1.0;"/><text fill="#000000" font-family="sans-serif" font-size="14" lengthAdjust="spacing" textLength="122" x="3731" y="522.6999">FloorWinterTile(int)</text><ellipse cx="3722" cy="536.3939" fill="#84BE84" rx="3" ry="3" style="stroke:#038048;stroke-width:1.0;"/><text fill="#000000" font-family="sans-serif" font-size="14" lengthAdjust="spacing" textLength="110" x="3731" y="539.4999">isSolid(): boolean</text></g></a><!--class vv.Tiles.WallBurningTile--><a href="WallBurningTile.html" target="_top" title="WallBurningTile.html" xlink:actuate="onRequest" xlink:href="WallBurningTile.html" xlink:show="new" xlink:title="WallBurningTile.html" xlink:type="simple"><g id="elem_vv.Tiles.WallBurningTile"><rect codeLine="131" fill="#F1F1F1" height="81.5999" id="vv.Tiles.WallBurningTile" rx="2.5" ry="2.5" style="stroke:#181818;stroke-width:0.5;" width="150" x="3894" y="465.694"/><ellipse cx="3917.55" cy="481.694" fill="#ADD1B2" rx="11" ry="11" style="stroke:#181818;stroke-width:1.0;"/><path d="M3912.55,482.8502 C3912.55,485.3502 3914.6906,487.1627 3917.6125,487.1627 C3918.8469,487.1627 3920.0188,486.8659 3920.7688,486.3502 C3921.3781,485.9284 3921.7063,485.5065 3921.7063,485.1002 C3921.7063,484.6315 3921.2844,484.2252 3920.7844,484.2252 C3920.55,484.2252 3920.3313,484.3034 3920.1281,484.5065 C3919.6906,484.944 3919.6906,484.944 3919.5188,485.0377 C3919.0656,485.2721 3918.425,485.4127 3917.6594,485.4127 C3915.6594,485.4127 3914.3781,484.3971 3914.3781,482.819 L3914.3781,481.7721 C3914.3781,480.069 3915.5969,478.8659 3917.3,478.8659 C3917.8781,478.8659 3918.4563,479.0065 3918.925,479.2565 C3919.3938,479.5221 3919.5656,479.7096 3919.6281,480.069 C3919.7531,480.7409 3920.0031,480.9909 3920.5344,480.9909 C3920.8156,480.9909 3921.0969,480.8502 3921.2844,480.6315 C3921.4094,480.4596 3921.4563,480.2877 3921.4563,479.8502 L3921.4563,478.4909 C3921.4563,478.069 3921.4406,477.9284 3921.3156,477.7565 C3921.1438,477.5065 3920.8625,477.3502 3920.5344,477.3502 C3920.2219,477.3502 3920.0188,477.4596 3919.8,477.7252 C3918.6281,477.2252 3918.1906,477.1159 3917.2375,477.1159 C3914.5656,477.1159 3912.55,479.1315 3912.55,481.7565 L3912.55,482.8502 Z " fill="#000000"/><text fill="#000000" font-family="sans-serif" font-size="14" lengthAdjust="spacing" textLength="99" x="3933.45" y="486.3">WallBurningTile</text><line style="stroke:#181818;stroke-width:0.5;" x1="3895" x2="4043" y1="497.694" y2="497.694"/><line style="stroke:#181818;stroke-width:0.5;" x1="3895" x2="4043" y1="505.694" y2="505.694"/><ellipse cx="3905" cy="519.5939" fill="#84BE84" rx="3" ry="3" style="stroke:#038048;stroke-width:1.0;"/><text fill="#000000" font-family="sans-serif" font-size="14" lengthAdjust="spacing" textLength="124" x="3914" y="522.6999">WallBurningTile(int)</text><ellipse cx="3905" cy="536.3939" fill="#84BE84" rx="3" ry="3" style="stroke:#038048;stroke-width:1.0;"/><text fill="#000000" font-family="sans-serif" font-size="14" lengthAdjust="spacing" textLength="110" x="3914" y="539.4999">isSolid(): boolean</text></g></a><!--link vv.Tiles.Tile to vv.Tiles.Tile--><g id="link_vv.Tiles.Tile_vv.Tiles.Tile"><path codeLine="136" d="M2136.21,200.134 C2156.54,202.264 2171,208.484 2171,218.794 C2171,228.134 2159.12,234.124 2141.77,236.754 " fill="none" id="vv.Tiles.Tile-to-vv.Tiles.Tile" style="stroke:#181818;stroke-width:1.0;"/><polygon fill="#181818" points="2137.21,237.454,2146.6497,240.2633,2142.1685,236.811,2145.6208,232.3297,2137.21,237.454" style="stroke:#181818;stroke-width:1.0;"/><text fill="#000000" font-family="sans-serif" font-size="13" lengthAdjust="spacing" textLength="24" x="2177" y="223.371">tiles</text><text fill="#000000" font-family="sans-serif" font-size="13" lengthAdjust="spacing" textLength="5" x="2143.9731" y="235.3726">*</text></g><!--link vv.Tiles.Tile to vv.Tiles.Tile--><g id="link_vv.Tiles.Tile_vv.Tiles.Tile"><path codeLine="137" d="M2136.48,179.884 C2175.13,178.604 2207,191.574 2207,218.794 C2207,244.634 2178.28,257.634 2142.31,257.794 " fill="none" id="vv.Tiles.Tile-to-vv.Tiles.Tile-1" style="stroke:#181818;stroke-width:1.0;"/><polygon fill="#181818" points="2137.48,257.704,2146.4219,261.8321,2142.4795,257.7754,2146.5362,253.8329,2137.48,257.704" style="stroke:#181818;stroke-width:1.0;"/><text fill="#000000" font-family="sans-serif" font-size="13" lengthAdjust="spacing" textLength="46" x="2241.5" y="59.371">floorTile</text><text fill="#000000" font-family="sans-serif" font-size="13" lengthAdjust="spacing" textLength="43" x="2243" y="74.971">wallTile</text><text fill="#000000" font-family="sans-serif" font-size="13" lengthAdjust="spacing" textLength="52" x="2238.5" y="90.571">waterTile</text><text fill="#000000" font-family="sans-serif" font-size="13" lengthAdjust="spacing" textLength="46" x="2241.5" y="106.171">rockTile</text><text fill="#000000" font-family="sans-serif" font-size="13" lengthAdjust="spacing" textLength="42" x="2243.5" y="121.771">bedTile</text><text fill="#000000" font-family="sans-serif" font-size="13" lengthAdjust="spacing" textLength="46" x="2241.5" y="137.3711">doorTile</text><text fill="#000000" font-family="sans-serif" font-size="13" lengthAdjust="spacing" textLength="59" x="2235" y="152.9711">spikesTile</text><text fill="#000000" font-family="sans-serif" font-size="13" lengthAdjust="spacing" textLength="83" x="2223" y="168.5711">floorWinterTile</text><text fill="#000000" font-family="sans-serif" font-size="13" lengthAdjust="spacing" textLength="80" x="2224.5" y="184.1711">wallWinterTile</text><text fill="#000000" font-family="sans-serif" font-size="13" lengthAdjust="spacing" textLength="89" x="2220" y="199.7711">waterWinterTile</text><text fill="#000000" font-family="sans-serif" font-size="13" lengthAdjust="spacing" textLength="83" x="2223" y="215.3711">rockWinterTile</text><text fill="#000000" font-family="sans-serif" font-size="13" lengthAdjust="spacing" textLength="79" x="2225" y="230.9711">bedWinterTile</text><text fill="#000000" font-family="sans-serif" font-size="13" lengthAdjust="spacing" textLength="83" x="2223" y="246.5712">doorWinterTile</text><text fill="#000000" font-family="sans-serif" font-size="13" lengthAdjust="spacing" textLength="96" x="2216.5" y="262.1712">spikesWinterTile</text><text fill="#000000" font-family="sans-serif" font-size="13" lengthAdjust="spacing" textLength="90" x="2219.5" y="277.7712">floorBurningTile</text><text fill="#000000" font-family="sans-serif" font-size="13" lengthAdjust="spacing" textLength="87" x="2221" y="293.3712">wallBurningTile</text><text fill="#000000" font-family="sans-serif" font-size="13" lengthAdjust="spacing" textLength="96" x="2216.5" y="308.9712">waterBurningTile</text><text fill="#000000" font-family="sans-serif" font-size="13" lengthAdjust="spacing" textLength="90" x="2219.5" y="324.5712">rockBurningTile</text><text fill="#000000" font-family="sans-serif" font-size="13" lengthAdjust="spacing" textLength="86" x="2221.5" y="340.1712">bedBurningTile</text><text fill="#000000" font-family="sans-serif" font-size="13" lengthAdjust="spacing" textLength="90" x="2219.5" y="355.7713">doorBurningTile</text><text fill="#000000" font-family="sans-serif" font-size="13" lengthAdjust="spacing" textLength="103" x="2213" y="371.3713">spikesBurningTile</text><text fill="#000000" font-family="sans-serif" font-size="13" lengthAdjust="spacing" textLength="52" x="2238.5" y="386.9713">blackTile</text></g><!--reverse link vv.Tiles.Tile to vv.Tiles.WaterBurningTile--><g id="link_vv.Tiles.Tile_vv.Tiles.WaterBurningTile"><path codeLine="138" d="M1908.96,221.954 C1608.95,230.154 822.91,269.394 200,457.294 C192.65,459.514 185.17,462.234 177.79,465.244 " fill="none" id="vv.Tiles.Tile-backto-vv.Tiles.WaterBurningTile" style="stroke:#181818;stroke-width:1.0;"/><polygon fill="none" points="1908.53,214.944,1928.71,221.424,1908.9,228.934,1908.53,214.944" style="stroke:#181818;stroke-width:1.0;"/></g><!--reverse link vv.Tiles.Tile to vv.Tiles.DoorWinterTile--><g id="link_vv.Tiles.Tile_vv.Tiles.DoorWinterTile"><path codeLine="139" d="M1909.03,222.984 C1629.45,233.294 931.3,276.614 381,457.294 C375.44,459.114 369.82,461.274 364.25,463.644 " fill="none" id="vv.Tiles.Tile-backto-vv.Tiles.DoorWinterTile" style="stroke:#181818;stroke-width:1.0;"/><polygon fill="none" points="1908.39,215.964,1928.62,222.254,1908.88,229.954,1908.39,215.964" style="stroke:#181818;stroke-width:1.0;"/></g><!--reverse link vv.Tiles.Tile to vv.Tiles.DoorBurningTile--><g id="link_vv.Tiles.Tile_vv.Tiles.DoorBurningTile"><path codeLine="140" d="M1909.12,227.034 C1653.29,244.754 1050.44,300.924 571,457.294 C565.2,459.184 559.31,461.394 553.46,463.794 " fill="none" id="vv.Tiles.Tile-backto-vv.Tiles.DoorBurningTile" style="stroke:#181818;stroke-width:1.0;"/><polygon fill="none" points="1908.43,219.994,1928.86,225.624,1909.38,233.964,1908.43,219.994" style="stroke:#181818;stroke-width:1.0;"/></g><!--reverse link vv.Tiles.Tile to vv.Tiles.WallWinterTile--><g id="link_vv.Tiles.Tile_vv.Tiles.WallWinterTile"><path codeLine="141" d="M1909.16,229.704 C1676.07,251.174 1158.68,312.224 748,457.294 C741.54,459.574 734.98,462.284 728.5,465.234 " fill="none" id="vv.Tiles.Tile-backto-vv.Tiles.WallWinterTile" style="stroke:#181818;stroke-width:1.0;"/><polygon fill="none" points="1908.26,222.674,1928.81,227.844,1909.52,236.614,1908.26,222.674" style="stroke:#181818;stroke-width:1.0;"/></g><!--reverse link vv.Tiles.Tile to vv.Tiles.BedWinterTile--><g id="link_vv.Tiles.Tile_vv.Tiles.BedWinterTile"><path codeLine="142" d="M1909.1,234.144 C1700.24,260.964 1267.11,328.074 922,457.294 C916.5,459.354 910.93,461.714 905.4,464.264 " fill="none" id="vv.Tiles.Tile-backto-vv.Tiles.BedWinterTile" style="stroke:#181818;stroke-width:1.0;"/><polygon fill="none" points="1908.09,227.084,1928.81,231.514,1909.85,240.974,1908.09,227.084" style="stroke:#181818;stroke-width:1.0;"/></g><!--reverse link vv.Tiles.Tile to vv.Tiles.BedBurningTile--><g id="link_vv.Tiles.Tile_vv.Tiles.BedBurningTile"><path codeLine="143" d="M1909.2,241.784 C1728.53,276.024 1383.8,349.534 1105,457.294 C1099.5,459.424 1093.9,461.804 1088.33,464.334 " fill="none" id="vv.Tiles.Tile-backto-vv.Tiles.BedBurningTile" style="stroke:#181818;stroke-width:1.0;"/><polygon fill="none" points="1907.67,234.764,1928.61,237.954,1910.25,248.524,1907.67,234.764" style="stroke:#181818;stroke-width:1.0;"/></g><!--reverse link vv.Tiles.Tile to vv.Tiles.RockTile--><g id="link_vv.Tiles.Tile_vv.Tiles.RockTile"><path codeLine="144" d="M1909.54,249.904 C1757.26,288.974 1492.04,363.414 1276,457.294 C1270.4,459.724 1264.69,462.434 1259.02,465.274 " fill="none" id="vv.Tiles.Tile-backto-vv.Tiles.RockTile" style="stroke:#181818;stroke-width:1.0;"/><polygon fill="none" points="1907.7,242.894,1928.8,244.734,1911.15,256.454,1907.7,242.894" style="stroke:#181818;stroke-width:1.0;"/></g><!--reverse link vv.Tiles.Tile to vv.Tiles.FloorTile--><g id="link_vv.Tiles.Tile_vv.Tiles.FloorTile"><path codeLine="145" d="M1910.24,264.494 C1790.51,309.294 1604.15,382.204 1448,457.294 C1442.14,460.114 1436.12,463.154 1430.13,466.294 " fill="none" id="vv.Tiles.Tile-backto-vv.Tiles.FloorTile" style="stroke:#181818;stroke-width:1.0;"/><polygon fill="none" points="1907.41,257.714,1928.6,257.284,1912.3,270.824,1907.41,257.714" style="stroke:#181818;stroke-width:1.0;"/></g><!--reverse link vv.Tiles.Tile to vv.Tiles.SpikesWinterTile--><g id="link_vv.Tiles.Tile_vv.Tiles.SpikesWinterTile"><path codeLine="146" d="M1911.73,291.974 C1819.51,346.864 1696.03,420.364 1620.62,465.244 " fill="none" id="vv.Tiles.Tile-backto-vv.Tiles.SpikesWinterTile" style="stroke:#181818;stroke-width:1.0;"/><polygon fill="none" points="1907.97,285.474,1928.73,281.264,1915.13,297.504,1907.97,285.474" style="stroke:#181818;stroke-width:1.0;"/></g><!--reverse link vv.Tiles.Tile to vv.Tiles.BedTile--><g id="link_vv.Tiles.Tile_vv.Tiles.BedTile"><path codeLine="147" d="M1914.98,336.464 C1872.4,378.554 1826.65,423.794 1793.19,456.864 " fill="none" id="vv.Tiles.Tile-backto-vv.Tiles.BedTile" style="stroke:#181818;stroke-width:1.0;"/><polygon fill="none" points="1909.74,331.814,1928.89,322.724,1919.59,341.764,1909.74,331.814" style="stroke:#181818;stroke-width:1.0;"/></g><!--reverse link vv.Tiles.Tile to vv.Tiles.SpikesTile--><g id="link_vv.Tiles.Tile_vv.Tiles.SpikesTile"><path codeLine="148" d="M1977.93,380.344 C1967.08,411.964 1956.64,442.424 1948.76,465.364 " fill="none" id="vv.Tiles.Tile-backto-vv.Tiles.SpikesTile" style="stroke:#181818;stroke-width:1.0;"/><polygon fill="none" points="1971.61,378.194,1984.72,361.554,1984.85,382.744,1971.61,378.194" style="stroke:#181818;stroke-width:1.0;"/></g><!--reverse link vv.Tiles.Tile to vv.Tiles.RockWinterTile--><g id="link_vv.Tiles.Tile_vv.Tiles.RockWinterTile"><path codeLine="149" d="M2088.07,380.344 C2098.92,411.964 2109.36,442.424 2117.24,465.364 " fill="none" id="vv.Tiles.Tile-backto-vv.Tiles.RockWinterTile" style="stroke:#181818;stroke-width:1.0;"/><polygon fill="none" points="2081.15,382.744,2081.28,361.554,2094.39,378.194,2081.15,382.744" style="stroke:#181818;stroke-width:1.0;"/></g><!--reverse link vv.Tiles.Tile to vv.Tiles.WaterWinterTile--><g id="link_vv.Tiles.Tile_vv.Tiles.WaterWinterTile"><path codeLine="150" d="M2151.07,338.994 C2195.8,384.144 2243.73,432.544 2276.34,465.454 " fill="none" id="vv.Tiles.Tile-backto-vv.Tiles.WaterWinterTile" style="stroke:#181818;stroke-width:1.0;"/><polygon fill="none" points="2146.47,344.284,2137.37,325.154,2156.42,334.434,2146.47,344.284" style="stroke:#181818;stroke-width:1.0;"/></g><!--reverse link vv.Tiles.Tile to vv.Tiles.FloorBurningTile--><g id="link_vv.Tiles.Tile_vv.Tiles.FloorBurningTile"><path codeLine="151" d="M2153.94,292.844 C2244.69,347.654 2365.53,420.644 2439.44,465.294 " fill="none" id="vv.Tiles.Tile-backto-vv.Tiles.FloorBurningTile" style="stroke:#181818;stroke-width:1.0;"/><polygon fill="none" points="2150.72,298.474,2137.22,282.144,2157.96,286.484,2150.72,298.474" style="stroke:#181818;stroke-width:1.0;"/></g><!--reverse link vv.Tiles.Tile to vv.Tiles.BlackTile--><g id="link_vv.Tiles.Tile_vv.Tiles.BlackTile"><path codeLine="152" d="M2155.99,266.174 C2272.53,311.284 2451.61,383.604 2602,457.294 C2607.48,459.984 2613.11,462.864 2618.72,465.844 " fill="none" id="vv.Tiles.Tile-backto-vv.Tiles.BlackTile" style="stroke:#181818;stroke-width:1.0;"/><polygon fill="none" points="2153.55,272.354,2137.41,258.624,2158.59,259.294,2153.55,272.354" style="stroke:#181818;stroke-width:1.0;"/></g><!--reverse link vv.Tiles.Tile to vv.Tiles.SpikesBurningTile--><g id="link_vv.Tiles.Tile_vv.Tiles.SpikesBurningTile"><path codeLine="153" d="M2156.13,254.394 C2304.28,297.154 2559.71,374.454 2773,457.294 C2779.45,459.804 2786.07,462.504 2792.69,465.314 " fill="none" id="vv.Tiles.Tile-backto-vv.Tiles.SpikesBurningTile" style="stroke:#181818;stroke-width:1.0;"/><polygon fill="none" points="2154.69,260.974,2137.4,248.724,2158.56,247.524,2154.69,260.974" style="stroke:#181818;stroke-width:1.0;"/></g><!--reverse link vv.Tiles.Tile to vv.Tiles.WaterTile--><g id="link_vv.Tiles.Tile_vv.Tiles.WaterTile"><path codeLine="154" d="M2157.02,240.484 C2341.37,273.534 2696.72,346.034 2983,457.294 C2989.06,459.654 2995.23,462.334 3001.34,465.194 " fill="none" id="vv.Tiles.Tile-backto-vv.Tiles.WaterTile" style="stroke:#181818;stroke-width:1.0;"/><polygon fill="none" points="2155.95,247.234,2137.48,236.844,2158.4,233.444,2155.95,247.234" style="stroke:#181818;stroke-width:1.0;"/></g><!--reverse link vv.Tiles.Tile to vv.Tiles.RockBurningTile--><g id="link_vv.Tiles.Tile_vv.Tiles.RockBurningTile"><path codeLine="155" d="M2156.75,235.034 C2367.46,263.354 2807.45,332.824 3161,457.294 C3167.63,459.624 3174.38,462.334 3181.08,465.244 " fill="none" id="vv.Tiles.Tile-backto-vv.Tiles.RockBurningTile" style="stroke:#181818;stroke-width:1.0;"/><polygon fill="none" points="2156.07,241.874,2137.17,232.304,2157.91,227.994,2156.07,241.874" style="stroke:#181818;stroke-width:1.0;"/></g><!--reverse link vv.Tiles.Tile to vv.Tiles.WallTile--><g id="link_vv.Tiles.Tile_vv.Tiles.WallTile"><path codeLine="156" d="M2157.16,228.384 C2395.08,247.814 2929.07,305.874 3351,457.294 C3357.44,459.604 3363.97,462.374 3370.41,465.394 " fill="none" id="vv.Tiles.Tile-backto-vv.Tiles.WallTile" style="stroke:#181818;stroke-width:1.0;"/><polygon fill="none" points="2156.81,235.304,2137.43,226.734,2157.93,221.344,2156.81,235.304" style="stroke:#181818;stroke-width:1.0;"/></g><!--reverse link vv.Tiles.Tile to vv.Tiles.DoorTile--><g id="link_vv.Tiles.Tile_vv.Tiles.DoorTile"><path codeLine="157" d="M2157.06,224.674 C2417.31,238.104 3036.43,286.844 3523,457.294 C3528.6,459.254 3534.26,461.584 3539.86,464.144 " fill="none" id="vv.Tiles.Tile-backto-vv.Tiles.DoorTile" style="stroke:#181818;stroke-width:1.0;"/><polygon fill="none" points="2156.97,231.634,2137.35,223.644,2157.67,217.644,2156.97,231.634" style="stroke:#181818;stroke-width:1.0;"/></g><!--reverse link vv.Tiles.Tile to vv.Tiles.FloorWinterTile--><g id="link_vv.Tiles.Tile_vv.Tiles.FloorWinterTile"><path codeLine="158" d="M2157.07,223.034 C2437.71,233.464 3139.94,277.024 3694,457.294 C3700.89,459.534 3707.87,462.274 3714.75,465.294 " fill="none" id="vv.Tiles.Tile-backto-vv.Tiles.FloorWinterTile" style="stroke:#181818;stroke-width:1.0;"/><polygon fill="none" points="2157.14,230.004,2137.4,222.304,2157.64,216.014,2157.14,230.004" style="stroke:#181818;stroke-width:1.0;"/></g><!--reverse link vv.Tiles.Tile to vv.Tiles.WallBurningTile--><g id="link_vv.Tiles.Tile_vv.Tiles.WallBurningTile"><path codeLine="159" d="M2157.29,220.794 C2459.18,226.414 3252.24,260.374 3877,457.294 C3883.96,459.494 3891.03,462.194 3897.99,465.194 " fill="none" id="vv.Tiles.Tile-backto-vv.Tiles.WallBurningTile" style="stroke:#181818;stroke-width:1.0;"/><polygon fill="none" points="2157.28,227.774,2137.41,220.434,2157.52,213.784,2157.28,227.774" style="stroke:#181818;stroke-width:1.0;"/></g><text fill="#888888" font-family="sans-serif" font-size="10" lengthAdjust="spacing" textLength="179" x="1937" y="586.984">UMLDoclet 2.1.0, PlantUML 1.2022.14</text><!--SRC=[jLVVRzem47xdhx1QJO9HqBP7DEq1fGEaJffMAXvADPd4qAZ6Hd6W3rt_zyNvrPnZNmgal93SdNsVxpxVNGWXHD0jKplgCt8u3ESXPugyT3ea__cSAaMqcDpVwx_XOxpb3m-93QdyNbHCuz1_9VtvxERwxsBcpQSZ4eeOivfUpoRJUTtiCjnkHcIyNwzPn8BPbcwOeG_gY_eQN1Sikj96FMXrjmjepBgz4Jd8C80wBwBFtKb4Tu-XhzB5sGussqZ6pdr2TIjv66ZbIahEg33rOuPfFIaZJ4t5XaLohn2RHGBElSU4nRCKG3M8hsRIqpt6-qY4OfCJm1JPoT0tpRhrF20GQq1qF1R95YpAOK210mGqia9eIfCh4LQ4C5A61C7O5AVMG2uevo2CKE3CPTNeE8Gr20dl0GBmxW00R4wAaEEssT3194A16z-vANmlm3_IVygX5OyEK8Nwp7pzv0cvSe_biyDbgJ_Jv-qkV68AqCGKEH2OPbOWQFMqKUAD2pW9FZpxsV50I1g3qL8OD9r0Hg008M5hfIDj5qRv0XAi5pMWU7yhIaaEYuGfmgx7oOMYJanEorfGFhl8MUXRkPdmz3KPIiUcyn_7oZHjLJ8qqQ050cXEmmWO4kGkj9TztPGhJRoXVRVWq7lh0nxU1hoJki2niqnwcq0rC2JOBMon9d5k3iX0WYIb3JAaJWU37-JYyqNwCYAn_e2h6sJATT6Yb-8vvuL-oeEn554-DIp5AkjdIn6KArJPK9PY3SEORGVVGTNDjgw-hwfJNUQc-gwCLfwxh0Gjysa8u6T7vXK8Lc1Oo_m2WJBhLBAcA9ymhD__3GQrRoIB2VmESHZWMy0Pt680PcIx7lTGp8iMLJdNMNJcn6LtZIv60A7x6dtT1Hm_zXX9RQrZkK0W9sXEAy89x5WDeG4NerEf6ZxJwyXQIlrtz-l6apvdCVas_3hySaL-SohYH4e-7LYaGYcwlVy0]--></g></svg>