<?xml version="1.0" encoding="UTF-8" standalone="no"?><svg xmlns="http://www.w3.org/2000/svg" xmlns:xlink="http://www.w3.org/1999/xlink" contentStyleType="text/css" height="475px" preserveAspectRatio="none" style="width:1043px;height:475px;background:#FFFFFF;" version="1.1" viewBox="0 0 1043 475" width="1043px" zoomAndPan="magnify"><defs/><g><!--cluster VV.Tiles--><g id="cluster_VV.Tiles"><path d="M8.5,6.294 L64.5,6.294 A3.75,3.75 0 0 1 67,8.794 L74,29.0939 L1033.5,29.0939 A2.5,2.5 0 0 1 1036,31.5939 L1036,446.794 A2.5,2.5 0 0 1 1033.5,449.294 L8.5,449.294 A2.5,2.5 0 0 1 6,446.794 L6,8.794 A2.5,2.5 0 0 1 8.5,6.294 " fill="none" style="stroke:#000000;stroke-width:1.5;"/><line style="stroke:#000000;stroke-width:1.5;" x1="6" x2="74" y1="29.0939" y2="29.0939"/><text fill="#000000" font-family="sans-serif" font-size="14" font-weight="bold" lengthAdjust="spacing" textLength="55" x="10" y="21.2999">VV.Tiles</text></g><!--class VV.Tiles.FloorTile--><a href="FloorTile.html" target="_top" title="FloorTile.html" xlink:actuate="onRequest" xlink:href="FloorTile.html" xlink:show="new" xlink:title="FloorTile.html" xlink:type="simple"><g id="elem_VV.Tiles.FloorTile"><rect codeLine="3" fill="#F1F1F1" height="81.5999" id="VV.Tiles.FloorTile" rx="2.5" ry="2.5" style="stroke:#181818;stroke-width:0.5;" width="137" x="22.5" y="343.294"/><ellipse cx="59.55" cy="359.294" fill="#ADD1B2" rx="11" ry="11" style="stroke:#181818;stroke-width:1.0;"/><path d="M54.55,360.4502 C54.55,362.9502 56.6906,364.7627 59.6125,364.7627 C60.8469,364.7627 62.0188,364.4659 62.7688,363.9502 C63.3781,363.5284 63.7063,363.1065 63.7063,362.7002 C63.7063,362.2315 63.2844,361.8252 62.7844,361.8252 C62.55,361.8252 62.3313,361.9034 62.1281,362.1065 C61.6906,362.544 61.6906,362.544 61.5188,362.6377 C61.0656,362.8721 60.425,363.0127 59.6594,363.0127 C57.6594,363.0127 56.3781,361.9971 56.3781,360.419 L56.3781,359.3721 C56.3781,357.669 57.5969,356.4659 59.3,356.4659 C59.8781,356.4659 60.4563,356.6065 60.925,356.8565 C61.3938,357.1221 61.5656,357.3096 61.6281,357.669 C61.7531,358.3409 62.0031,358.5909 62.5344,358.5909 C62.8156,358.5909 63.0969,358.4502 63.2844,358.2315 C63.4094,358.0596 63.4563,357.8877 63.4563,357.4502 L63.4563,356.0909 C63.4563,355.669 63.4406,355.5284 63.3156,355.3565 C63.1438,355.1065 62.8625,354.9502 62.5344,354.9502 C62.2219,354.9502 62.0188,355.0596 61.8,355.3252 C60.6281,354.8252 60.1906,354.7159 59.2375,354.7159 C56.5656,354.7159 54.55,356.7315 54.55,359.3565 L54.55,360.4502 Z " fill="#000000"/><text fill="#000000" font-family="sans-serif" font-size="14" lengthAdjust="spacing" textLength="56" x="78.45" y="363.9">FloorTile</text><line style="stroke:#181818;stroke-width:0.5;" x1="23.5" x2="158.5" y1="375.294" y2="375.294"/><line style="stroke:#181818;stroke-width:0.5;" x1="23.5" x2="158.5" y1="383.294" y2="383.294"/><ellipse cx="33.5" cy="397.1939" fill="#84BE84" rx="3" ry="3" style="stroke:#038048;stroke-width:1.0;"/><text fill="#000000" font-family="sans-serif" font-size="14" lengthAdjust="spacing" textLength="81" x="42.5" y="400.2999">FloorTile(int)</text><ellipse cx="33.5" cy="413.9939" fill="#84BE84" rx="3" ry="3" style="stroke:#038048;stroke-width:1.0;"/><text fill="#000000" font-family="sans-serif" font-size="14" lengthAdjust="spacing" textLength="111" x="42.5" y="417.0999">IsSolid(): boolean</text></g></a><!--class VV.Tiles.BedTile--><a href="BedTile.html" target="_top" title="BedTile.html" xlink:actuate="onRequest" xlink:href="BedTile.html" xlink:show="new" xlink:title="BedTile.html" xlink:type="simple"><g id="elem_VV.Tiles.BedTile"><rect codeLine="8" fill="#F1F1F1" height="81.5999" id="VV.Tiles.BedTile" rx="2.5" ry="2.5" style="stroke:#181818;stroke-width:0.5;" width="137" x="194.5" y="343.294"/><ellipse cx="235.15" cy="359.294" fill="#ADD1B2" rx="11" ry="11" style="stroke:#181818;stroke-width:1.0;"/><path d="M230.15,360.4502 C230.15,362.9502 232.2906,364.7627 235.2125,364.7627 C236.4469,364.7627 237.6188,364.4659 238.3688,363.9502 C238.9781,363.5284 239.3063,363.1065 239.3063,362.7002 C239.3063,362.2315 238.8844,361.8252 238.3844,361.8252 C238.15,361.8252 237.9313,361.9034 237.7281,362.1065 C237.2906,362.544 237.2906,362.544 237.1188,362.6377 C236.6656,362.8721 236.025,363.0127 235.2594,363.0127 C233.2594,363.0127 231.9781,361.9971 231.9781,360.419 L231.9781,359.3721 C231.9781,357.669 233.1969,356.4659 234.9,356.4659 C235.4781,356.4659 236.0563,356.6065 236.525,356.8565 C236.9938,357.1221 237.1656,357.3096 237.2281,357.669 C237.3531,358.3409 237.6031,358.5909 238.1344,358.5909 C238.4156,358.5909 238.6969,358.4502 238.8844,358.2315 C239.0094,358.0596 239.0563,357.8877 239.0563,357.4502 L239.0563,356.0909 C239.0563,355.669 239.0406,355.5284 238.9156,355.3565 C238.7438,355.1065 238.4625,354.9502 238.1344,354.9502 C237.8219,354.9502 237.6188,355.0596 237.4,355.3252 C236.2281,354.8252 235.7906,354.7159 234.8375,354.7159 C232.1656,354.7159 230.15,356.7315 230.15,359.3565 L230.15,360.4502 Z " fill="#000000"/><text fill="#000000" font-family="sans-serif" font-size="14" lengthAdjust="spacing" textLength="48" x="254.85" y="363.9">BedTile</text><line style="stroke:#181818;stroke-width:0.5;" x1="195.5" x2="330.5" y1="375.294" y2="375.294"/><line style="stroke:#181818;stroke-width:0.5;" x1="195.5" x2="330.5" y1="383.294" y2="383.294"/><ellipse cx="205.5" cy="397.1939" fill="#84BE84" rx="3" ry="3" style="stroke:#038048;stroke-width:1.0;"/><text fill="#000000" font-family="sans-serif" font-size="14" lengthAdjust="spacing" textLength="73" x="214.5" y="400.2999">BedTile(int)</text><ellipse cx="205.5" cy="413.9939" fill="#84BE84" rx="3" ry="3" style="stroke:#038048;stroke-width:1.0;"/><text fill="#000000" font-family="sans-serif" font-size="14" lengthAdjust="spacing" textLength="111" x="214.5" y="417.0999">IsSolid(): boolean</text></g></a><!--class VV.Tiles.WaterTile--><a href="WaterTile.html" target="_top" title="WaterTile.html" xlink:actuate="onRequest" xlink:href="WaterTile.html" xlink:show="new" xlink:title="WaterTile.html" xlink:type="simple"><g id="elem_VV.Tiles.WaterTile"><rect codeLine="13" fill="#F1F1F1" height="81.5999" id="VV.Tiles.WaterTile" rx="2.5" ry="2.5" style="stroke:#181818;stroke-width:0.5;" width="137" x="366.5" y="343.294"/><ellipse cx="401.3" cy="359.294" fill="#ADD1B2" rx="11" ry="11" style="stroke:#181818;stroke-width:1.0;"/><path d="M396.3,360.4502 C396.3,362.9502 398.4406,364.7627 401.3625,364.7627 C402.5969,364.7627 403.7688,364.4659 404.5188,363.9502 C405.1281,363.5284 405.4563,363.1065 405.4563,362.7002 C405.4563,362.2315 405.0344,361.8252 404.5344,361.8252 C404.3,361.8252 404.0813,361.9034 403.8781,362.1065 C403.4406,362.544 403.4406,362.544 403.2688,362.6377 C402.8156,362.8721 402.175,363.0127 401.4094,363.0127 C399.4094,363.0127 398.1281,361.9971 398.1281,360.419 L398.1281,359.3721 C398.1281,357.669 399.3469,356.4659 401.05,356.4659 C401.6281,356.4659 402.2063,356.6065 402.675,356.8565 C403.1438,357.1221 403.3156,357.3096 403.3781,357.669 C403.5031,358.3409 403.7531,358.5909 404.2844,358.5909 C404.5656,358.5909 404.8469,358.4502 405.0344,358.2315 C405.1594,358.0596 405.2063,357.8877 405.2063,357.4502 L405.2063,356.0909 C405.2063,355.669 405.1906,355.5284 405.0656,355.3565 C404.8938,355.1065 404.6125,354.9502 404.2844,354.9502 C403.9719,354.9502 403.7688,355.0596 403.55,355.3252 C402.3781,354.8252 401.9406,354.7159 400.9875,354.7159 C398.3156,354.7159 396.3,356.7315 396.3,359.3565 L396.3,360.4502 Z " fill="#000000"/><text fill="#000000" font-family="sans-serif" font-size="14" lengthAdjust="spacing" textLength="61" x="419.7" y="363.9">WaterTile</text><line style="stroke:#181818;stroke-width:0.5;" x1="367.5" x2="502.5" y1="375.294" y2="375.294"/><line style="stroke:#181818;stroke-width:0.5;" x1="367.5" x2="502.5" y1="383.294" y2="383.294"/><ellipse cx="377.5" cy="397.1939" fill="#84BE84" rx="3" ry="3" style="stroke:#038048;stroke-width:1.0;"/><text fill="#000000" font-family="sans-serif" font-size="14" lengthAdjust="spacing" textLength="86" x="386.5" y="400.2999">WaterTile(int)</text><ellipse cx="377.5" cy="413.9939" fill="#84BE84" rx="3" ry="3" style="stroke:#038048;stroke-width:1.0;"/><text fill="#000000" font-family="sans-serif" font-size="14" lengthAdjust="spacing" textLength="111" x="386.5" y="417.0999">IsSolid(): boolean</text></g></a><!--class VV.Tiles.RockTile--><a href="RockTile.html" target="_top" title="RockTile.html" xlink:actuate="onRequest" xlink:href="RockTile.html" xlink:show="new" xlink:title="RockTile.html" xlink:type="simple"><g id="elem_VV.Tiles.RockTile"><rect codeLine="18" fill="#F1F1F1" height="81.5999" id="VV.Tiles.RockTile" rx="2.5" ry="2.5" style="stroke:#181818;stroke-width:0.5;" width="137" x="538.5" y="343.294"/><ellipse cx="576" cy="359.294" fill="#ADD1B2" rx="11" ry="11" style="stroke:#181818;stroke-width:1.0;"/><path d="M571,360.4502 C571,362.9502 573.1406,364.7627 576.0625,364.7627 C577.2969,364.7627 578.4688,364.4659 579.2188,363.9502 C579.8281,363.5284 580.1563,363.1065 580.1563,362.7002 C580.1563,362.2315 579.7344,361.8252 579.2344,361.8252 C579,361.8252 578.7813,361.9034 578.5781,362.1065 C578.1406,362.544 578.1406,362.544 577.9688,362.6377 C577.5156,362.8721 576.875,363.0127 576.1094,363.0127 C574.1094,363.0127 572.8281,361.9971 572.8281,360.419 L572.8281,359.3721 C572.8281,357.669 574.0469,356.4659 575.75,356.4659 C576.3281,356.4659 576.9063,356.6065 577.375,356.8565 C577.8438,357.1221 578.0156,357.3096 578.0781,357.669 C578.2031,358.3409 578.4531,358.5909 578.9844,358.5909 C579.2656,358.5909 579.5469,358.4502 579.7344,358.2315 C579.8594,358.0596 579.9063,357.8877 579.9063,357.4502 L579.9063,356.0909 C579.9063,355.669 579.8906,355.5284 579.7656,355.3565 C579.5938,355.1065 579.3125,354.9502 578.9844,354.9502 C578.6719,354.9502 578.4688,355.0596 578.25,355.3252 C577.0781,354.8252 576.6406,354.7159 575.6875,354.7159 C573.0156,354.7159 571,356.7315 571,359.3565 L571,360.4502 Z " fill="#000000"/><text fill="#000000" font-family="sans-serif" font-size="14" lengthAdjust="spacing" textLength="55" x="595" y="363.9">RockTile</text><line style="stroke:#181818;stroke-width:0.5;" x1="539.5" x2="674.5" y1="375.294" y2="375.294"/><line style="stroke:#181818;stroke-width:0.5;" x1="539.5" x2="674.5" y1="383.294" y2="383.294"/><ellipse cx="549.5" cy="397.1939" fill="#84BE84" rx="3" ry="3" style="stroke:#038048;stroke-width:1.0;"/><text fill="#000000" font-family="sans-serif" font-size="14" lengthAdjust="spacing" textLength="80" x="558.5" y="400.2999">RockTile(int)</text><ellipse cx="549.5" cy="413.9939" fill="#84BE84" rx="3" ry="3" style="stroke:#038048;stroke-width:1.0;"/><text fill="#000000" font-family="sans-serif" font-size="14" lengthAdjust="spacing" textLength="111" x="558.5" y="417.0999">IsSolid(): boolean</text></g></a><!--class VV.Tiles.WallTile--><a href="WallTile.html" target="_top" title="WallTile.html" xlink:actuate="onRequest" xlink:href="WallTile.html" xlink:show="new" xlink:title="WallTile.html" xlink:type="simple"><g id="elem_VV.Tiles.WallTile"><rect codeLine="23" fill="#F1F1F1" height="81.5999" id="VV.Tiles.WallTile" rx="2.5" ry="2.5" style="stroke:#181818;stroke-width:0.5;" width="137" x="710.5" y="343.294"/><ellipse cx="750.25" cy="359.294" fill="#ADD1B2" rx="11" ry="11" style="stroke:#181818;stroke-width:1.0;"/><path d="M745.25,360.4502 C745.25,362.9502 747.3906,364.7627 750.3125,364.7627 C751.5469,364.7627 752.7188,364.4659 753.4688,363.9502 C754.0781,363.5284 754.4063,363.1065 754.4063,362.7002 C754.4063,362.2315 753.9844,361.8252 753.4844,361.8252 C753.25,361.8252 753.0313,361.9034 752.8281,362.1065 C752.3906,362.544 752.3906,362.544 752.2188,362.6377 C751.7656,362.8721 751.125,363.0127 750.3594,363.0127 C748.3594,363.0127 747.0781,361.9971 747.0781,360.419 L747.0781,359.3721 C747.0781,357.669 748.2969,356.4659 750,356.4659 C750.5781,356.4659 751.1563,356.6065 751.625,356.8565 C752.0938,357.1221 752.2656,357.3096 752.3281,357.669 C752.4531,358.3409 752.7031,358.5909 753.2344,358.5909 C753.5156,358.5909 753.7969,358.4502 753.9844,358.2315 C754.1094,358.0596 754.1563,357.8877 754.1563,357.4502 L754.1563,356.0909 C754.1563,355.669 754.1406,355.5284 754.0156,355.3565 C753.8438,355.1065 753.5625,354.9502 753.2344,354.9502 C752.9219,354.9502 752.7188,355.0596 752.5,355.3252 C751.3281,354.8252 750.8906,354.7159 749.9375,354.7159 C747.2656,354.7159 745.25,356.7315 745.25,359.3565 L745.25,360.4502 Z " fill="#000000"/><text fill="#000000" font-family="sans-serif" font-size="14" lengthAdjust="spacing" textLength="50" x="769.75" y="363.9">WallTile</text><line style="stroke:#181818;stroke-width:0.5;" x1="711.5" x2="846.5" y1="375.294" y2="375.294"/><line style="stroke:#181818;stroke-width:0.5;" x1="711.5" x2="846.5" y1="383.294" y2="383.294"/><ellipse cx="721.5" cy="397.1939" fill="#84BE84" rx="3" ry="3" style="stroke:#038048;stroke-width:1.0;"/><text fill="#000000" font-family="sans-serif" font-size="14" lengthAdjust="spacing" textLength="75" x="730.5" y="400.2999">WallTile(int)</text><ellipse cx="721.5" cy="413.9939" fill="#84BE84" rx="3" ry="3" style="stroke:#038048;stroke-width:1.0;"/><text fill="#000000" font-family="sans-serif" font-size="14" lengthAdjust="spacing" textLength="111" x="730.5" y="417.0999">IsSolid(): boolean</text></g></a><!--class VV.Tiles.DoorTile--><a href="DoorTile.html" target="_top" title="DoorTile.html" xlink:actuate="onRequest" xlink:href="DoorTile.html" xlink:show="new" xlink:title="DoorTile.html" xlink:type="simple"><g id="elem_VV.Tiles.DoorTile"><rect codeLine="28" fill="#F1F1F1" height="98.3998" id="VV.Tiles.DoorTile" rx="2.5" ry="2.5" style="stroke:#181818;stroke-width:0.5;" width="137" x="882.5" y="335.294"/><ellipse cx="920.45" cy="351.294" fill="#ADD1B2" rx="11" ry="11" style="stroke:#181818;stroke-width:1.0;"/><path d="M915.45,352.4502 C915.45,354.9502 917.5906,356.7627 920.5125,356.7627 C921.7469,356.7627 922.9188,356.4659 923.6688,355.9502 C924.2781,355.5284 924.6063,355.1065 924.6063,354.7002 C924.6063,354.2315 924.1844,353.8252 923.6844,353.8252 C923.45,353.8252 923.2313,353.9034 923.0281,354.1065 C922.5906,354.544 922.5906,354.544 922.4188,354.6377 C921.9656,354.8721 921.325,355.0127 920.5594,355.0127 C918.5594,355.0127 917.2781,353.9971 917.2781,352.419 L917.2781,351.3721 C917.2781,349.669 918.4969,348.4659 920.2,348.4659 C920.7781,348.4659 921.3563,348.6065 921.825,348.8565 C922.2938,349.1221 922.4656,349.3096 922.5281,349.669 C922.6531,350.3409 922.9031,350.5909 923.4344,350.5909 C923.7156,350.5909 923.9969,350.4502 924.1844,350.2315 C924.3094,350.0596 924.3563,349.8877 924.3563,349.4502 L924.3563,348.0909 C924.3563,347.669 924.3406,347.5284 924.2156,347.3565 C924.0438,347.1065 923.7625,346.9502 923.4344,346.9502 C923.1219,346.9502 922.9188,347.0596 922.7,347.3252 C921.5281,346.8252 921.0906,346.7159 920.1375,346.7159 C917.4656,346.7159 915.45,348.7315 915.45,351.3565 L915.45,352.4502 Z " fill="#000000"/><text fill="#000000" font-family="sans-serif" font-size="14" lengthAdjust="spacing" textLength="54" x="939.55" y="355.9">DoorTile</text><line style="stroke:#181818;stroke-width:0.5;" x1="883.5" x2="1018.5" y1="367.294" y2="367.294"/><line style="stroke:#181818;stroke-width:0.5;" x1="883.5" x2="1018.5" y1="375.294" y2="375.294"/><ellipse cx="893.5" cy="389.1939" fill="#84BE84" rx="3" ry="3" style="stroke:#038048;stroke-width:1.0;"/><text fill="#000000" font-family="sans-serif" font-size="14" lengthAdjust="spacing" textLength="79" x="902.5" y="392.2999">DoorTile(int)</text><ellipse cx="893.5" cy="405.9939" fill="#84BE84" rx="3" ry="3" style="stroke:#038048;stroke-width:1.0;"/><text fill="#000000" font-family="sans-serif" font-size="14" lengthAdjust="spacing" textLength="111" x="902.5" y="409.0999">IsSolid(): boolean</text><ellipse cx="893.5" cy="422.7938" fill="#84BE84" rx="3" ry="3" style="stroke:#038048;stroke-width:1.0;"/><text fill="#000000" font-family="sans-serif" font-size="14" lengthAdjust="spacing" textLength="110" x="902.5" y="425.8998">isDoor(): boolean</text></g></a><!--class VV.Tiles.Tile--><a href="Tile.html" target="_top" title="Tile.html" xlink:actuate="onRequest" xlink:href="Tile.html" xlink:show="new" xlink:title="Tile.html" xlink:type="simple"><g id="elem_VV.Tiles.Tile"><rect codeLine="34" fill="#F1F1F1" height="232.7992" id="VV.Tiles.Tile" rx="2.5" ry="2.5" style="stroke:#181818;stroke-width:0.5;" width="206" x="418" y="41.294"/><ellipse cx="505.25" cy="57.294" fill="#ADD1B2" rx="11" ry="11" style="stroke:#181818;stroke-width:1.0;"/><path d="M500.25,58.4502 C500.25,60.9502 502.3906,62.7627 505.3125,62.7627 C506.5469,62.7627 507.7188,62.4659 508.4688,61.9502 C509.0781,61.5284 509.4063,61.1065 509.4063,60.7002 C509.4063,60.2315 508.9844,59.8252 508.4844,59.8252 C508.25,59.8252 508.0313,59.9034 507.8281,60.1065 C507.3906,60.544 507.3906,60.544 507.2188,60.6377 C506.7656,60.8721 506.125,61.0127 505.3594,61.0127 C503.3594,61.0127 502.0781,59.9971 502.0781,58.419 L502.0781,57.3721 C502.0781,55.669 503.2969,54.4659 505,54.4659 C505.5781,54.4659 506.1563,54.6065 506.625,54.8565 C507.0938,55.1221 507.2656,55.3096 507.3281,55.669 C507.4531,56.3409 507.7031,56.5909 508.2344,56.5909 C508.5156,56.5909 508.7969,56.4502 508.9844,56.2315 C509.1094,56.0596 509.1563,55.8877 509.1563,55.4502 L509.1563,54.0909 C509.1563,53.669 509.1406,53.5284 509.0156,53.3565 C508.8438,53.1065 508.5625,52.9502 508.2344,52.9502 C507.9219,52.9502 507.7188,53.0596 507.5,53.3252 C506.3281,52.8252 505.8906,52.7159 504.9375,52.7159 C502.2656,52.7159 500.25,54.7315 500.25,57.3565 L500.25,58.4502 Z " fill="#000000"/><text fill="#000000" font-family="sans-serif" font-size="14" lengthAdjust="spacing" textLength="23" x="525.75" y="61.9">Tile</text><line style="stroke:#181818;stroke-width:0.5;" x1="419" x2="623" y1="73.294" y2="73.294"/><ellipse cx="429" cy="87.1939" fill="none" rx="3" ry="3" style="stroke:#038048;stroke-width:1.0;"/><text fill="#000000" font-family="sans-serif" font-size="14" lengthAdjust="spacing" text-decoration="underline" textLength="107" x="438" y="90.2999">TILE_WIDTH: int</text><ellipse cx="429" cy="103.9939" fill="none" rx="3" ry="3" style="stroke:#038048;stroke-width:1.0;"/><text fill="#000000" font-family="sans-serif" font-size="14" lengthAdjust="spacing" text-decoration="underline" textLength="114" x="438" y="107.0999">TILE_HEIGHT: int</text><polygon fill="none" points="429,115.7938,433,119.7938,429,123.7938,425,119.7938" style="stroke:#B38D22;stroke-width:1.0;"/><text fill="#000000" font-family="sans-serif" font-size="14" lengthAdjust="spacing" textLength="125" x="438" y="123.8998">img: BufferedImage</text><polygon fill="none" points="429,132.5937,433,136.5937,429,140.5937,425,136.5937" style="stroke:#B38D22;stroke-width:1.0;"/><text fill="#000000" font-family="sans-serif" font-size="14" lengthAdjust="spacing" textLength="34" x="438" y="140.6997">id: int</text><line style="stroke:#181818;stroke-width:0.5;" x1="419" x2="623" y1="148.4937" y2="148.4937"/><ellipse cx="429" cy="162.3937" fill="#84BE84" rx="3" ry="3" style="stroke:#038048;stroke-width:1.0;"/><text fill="#000000" font-family="sans-serif" font-size="14" lengthAdjust="spacing" textLength="150" x="438" y="165.4996">Tile(BufferedImage, int)</text><ellipse cx="429" cy="179.1936" fill="#84BE84" rx="3" ry="3" style="stroke:#038048;stroke-width:1.0;"/><text fill="#000000" font-family="sans-serif" font-size="14" lengthAdjust="spacing" textLength="90" x="438" y="182.2996">Update(): void</text><ellipse cx="429" cy="195.9935" fill="#84BE84" rx="3" ry="3" style="stroke:#038048;stroke-width:1.0;"/><text fill="#000000" font-family="sans-serif" font-size="14" lengthAdjust="spacing" textLength="180" x="438" y="199.0995">Draw(Graphics, int, int): void</text><ellipse cx="429" cy="212.7934" fill="#84BE84" rx="3" ry="3" style="stroke:#038048;stroke-width:1.0;"/><text fill="#000000" font-family="sans-serif" font-size="14" lengthAdjust="spacing" textLength="81" x="438" y="215.8994">rotate(): void</text><ellipse cx="429" cy="229.5934" fill="#84BE84" rx="3" ry="3" style="stroke:#038048;stroke-width:1.0;"/><text fill="#000000" font-family="sans-serif" font-size="14" lengthAdjust="spacing" textLength="111" x="438" y="232.6993">IsSolid(): boolean</text><ellipse cx="429" cy="246.3933" fill="#84BE84" rx="3" ry="3" style="stroke:#038048;stroke-width:1.0;"/><text fill="#000000" font-family="sans-serif" font-size="14" lengthAdjust="spacing" textLength="110" x="438" y="249.4993">isDoor(): boolean</text><ellipse cx="429" cy="263.1932" fill="#84BE84" rx="3" ry="3" style="stroke:#038048;stroke-width:1.0;"/><text fill="#000000" font-family="sans-serif" font-size="14" lengthAdjust="spacing" textLength="68" x="438" y="266.2992">GetId(): int</text></g></a><!--reverse link VV.Tiles.Tile to VV.Tiles.FloorTile--><g id="link_VV.Tiles.Tile_VV.Tiles.FloorTile"><path codeLine="48" d="M399.18,219.994 C333.14,253.494 250.27,296.064 177,335.294 C171.42,338.284 165.66,341.404 159.88,344.564 " fill="none" id="VV.Tiles.Tile-backto-VV.Tiles.FloorTile" style="stroke:#181818;stroke-width:1.0;"/><polygon fill="none" points="395.77,213.364,416.78,210.574,402.1,225.854,395.77,213.364" style="stroke:#181818;stroke-width:1.0;"/></g><!--reverse link VV.Tiles.Tile to VV.Tiles.BedTile--><g id="link_VV.Tiles.Tile_VV.Tiles.BedTile"><path codeLine="49" d="M402,262.344 C369.08,290.994 335.27,320.404 309.25,343.054 " fill="none" id="VV.Tiles.Tile-backto-VV.Tiles.BedTile" style="stroke:#181818;stroke-width:1.0;"/><polygon fill="none" points="396.87,256.664,416.55,248.814,406.06,267.224,396.87,256.664" style="stroke:#181818;stroke-width:1.0;"/></g><!--reverse link VV.Tiles.Tile to VV.Tiles.WaterTile--><g id="link_VV.Tiles.Tile_VV.Tiles.WaterTile"><path codeLine="50" d="M469.17,294.084 C462.39,311.784 455.92,328.684 450.47,342.924 " fill="none" id="VV.Tiles.Tile-backto-VV.Tiles.WaterTile" style="stroke:#181818;stroke-width:1.0;"/><polygon fill="none" points="462.92,291.834,476.61,275.664,476,296.844,462.92,291.834" style="stroke:#181818;stroke-width:1.0;"/></g><!--reverse link VV.Tiles.Tile to VV.Tiles.RockTile--><g id="link_VV.Tiles.Tile_VV.Tiles.RockTile"><path codeLine="51" d="M572.83,294.084 C579.61,311.784 586.08,328.684 591.53,342.924 " fill="none" id="VV.Tiles.Tile-backto-VV.Tiles.RockTile" style="stroke:#181818;stroke-width:1.0;"/><polygon fill="none" points="566,296.844,565.39,275.664,579.08,291.834,566,296.844" style="stroke:#181818;stroke-width:1.0;"/></g><!--reverse link VV.Tiles.Tile to VV.Tiles.WallTile--><g id="link_VV.Tiles.Tile_VV.Tiles.WallTile"><path codeLine="52" d="M640,262.344 C672.92,290.994 706.73,320.404 732.75,343.054 " fill="none" id="VV.Tiles.Tile-backto-VV.Tiles.WallTile" style="stroke:#181818;stroke-width:1.0;"/><polygon fill="none" points="635.94,267.224,625.45,248.814,645.13,256.664,635.94,267.224" style="stroke:#181818;stroke-width:1.0;"/></g><!--reverse link VV.Tiles.Tile to VV.Tiles.DoorTile--><g id="link_VV.Tiles.Tile_VV.Tiles.DoorTile"><path codeLine="53" d="M642.82,219.994 C708.86,253.494 791.73,296.064 865,335.294 C870.58,338.284 876.34,341.404 882.12,344.564 " fill="none" id="VV.Tiles.Tile-backto-VV.Tiles.DoorTile" style="stroke:#181818;stroke-width:1.0;"/><polygon fill="none" points="639.9,225.854,625.22,210.574,646.23,213.364,639.9,225.854" style="stroke:#181818;stroke-width:1.0;"/></g><!--link VV.Tiles.Tile to VV.Tiles.Tile--><g id="link_VV.Tiles.Tile_VV.Tiles.Tile"><path codeLine="54" d="M624.21,144.604 C644.54,146.114 659,150.504 659,157.794 C659,164.394 647.12,168.624 629.77,170.484 " fill="none" id="VV.Tiles.Tile-to-VV.Tiles.Tile" style="stroke:#181818;stroke-width:1.0;"/><polygon fill="#181818" points="625.21,170.984,634.5294,174.1696,630.1903,170.5403,633.8196,166.2012,625.21,170.984" style="stroke:#181818;stroke-width:1.0;"/><text fill="#000000" font-family="sans-serif" font-size="13" lengthAdjust="spacing" textLength="24" x="665" y="162.371">tiles</text><text fill="#000000" font-family="sans-serif" font-size="13" lengthAdjust="spacing" textLength="5" x="631.9731" y="168.5083">*</text></g><!--link VV.Tiles.Tile to VV.Tiles.Tile--><g id="link_VV.Tiles.Tile_VV.Tiles.Tile"><path codeLine="55" d="M624.48,130.294 C663.13,129.394 695,138.554 695,157.794 C695,176.054 666.28,185.244 630.31,185.354 " fill="none" id="VV.Tiles.Tile-to-VV.Tiles.Tile-1" style="stroke:#181818;stroke-width:1.0;"/><polygon fill="#181818" points="625.48,185.294,634.4454,189.371,630.4798,185.3368,634.514,181.3713,625.48,185.294" style="stroke:#181818;stroke-width:1.0;"/><text fill="#000000" font-family="sans-serif" font-size="13" lengthAdjust="spacing" textLength="46" x="704" y="123.371">floorTile</text><text fill="#000000" font-family="sans-serif" font-size="13" lengthAdjust="spacing" textLength="43" x="705.5" y="138.971">wallTile</text><text fill="#000000" font-family="sans-serif" font-size="13" lengthAdjust="spacing" textLength="52" x="701" y="154.571">waterTile</text><text fill="#000000" font-family="sans-serif" font-size="13" lengthAdjust="spacing" textLength="46" x="704" y="170.171">doorTile</text><text fill="#000000" font-family="sans-serif" font-size="13" lengthAdjust="spacing" textLength="42" x="706" y="185.771">bedTile</text><text fill="#000000" font-family="sans-serif" font-size="13" lengthAdjust="spacing" textLength="46" x="704" y="201.3711">rockTile</text></g><text fill="#888888" font-family="sans-serif" font-size="10" lengthAdjust="spacing" textLength="179" x="425" y="464.584">UMLDoclet 2.1.0, PlantUML 1.2022.14</text><!--SRC=[fPJVRu8m4CVV_IikBajm2jdsI9Oz69oIk6JPK1_KB1MADYkjePq-kFtluqT1532Bz8M3prs_TyUr000C1LXiaOjXEZKSGh60Gwi5QhaK2G4lbFCmPZ2VvxQnaG5TBYDlAAnkpZN2PEUKsUA3K-9f7HDMd5ECMCv_ppNxs5EAoghHKxIXsWn9d5MOspMAEM-e-SxTBoMPcJMA6MvS9ALvZQbPMsAA6mfQnx6nBa-DTTNG99o8EFXV-QXSwlCu28aaSN-XwzZZmUVCjfoH2L5Ebxn60tiuSifkDoHOcz3_zdqSOiyEq1gVSQySr4swS1BKWt9J9bilciAuw1qdtbalGxJNXY7QReWhak1qXohVaClQVQvlV8A7MDf9SB74mYz9ViRJZwuVhvSAfevt1ScFOGNB3anbM3hQ5SYgJ4FNdw5zrqvUJ93n3LbsIA6V5R9WUoKJMohF1VDol4hBMh2mcAdgZejP508-v_5ZyZgsk4knX4VZmRZlmHj5J4PVuNQ7Gq4uqpf_]--></g></svg>