<?xml version="1.0" encoding="UTF-8" standalone="no"?><svg xmlns="http://www.w3.org/2000/svg" xmlns:xlink="http://www.w3.org/1999/xlink" contentStyleType="text/css" height="492px" preserveAspectRatio="none" style="width:1036px;height:492px;background:#FFFFFF;" version="1.1" viewBox="0 0 1036 492" width="1036px" zoomAndPan="magnify"><defs/><g><!--cluster VV.Tiles--><g id="cluster_VV.Tiles"><path d="M8.5,6.294 L64.5,6.294 A3.75,3.75 0 0 1 67,8.794 L74,29.0939 L1026.5,29.0939 A2.5,2.5 0 0 1 1029,31.5939 L1029,463.794 A2.5,2.5 0 0 1 1026.5,466.294 L8.5,466.294 A2.5,2.5 0 0 1 6,463.794 L6,8.794 A2.5,2.5 0 0 1 8.5,6.294 " fill="none" style="stroke:#000000;stroke-width:1.5;"/><line style="stroke:#000000;stroke-width:1.5;" x1="6" x2="74" y1="29.0939" y2="29.0939"/><text fill="#000000" font-family="sans-serif" font-size="14" font-weight="bold" lengthAdjust="spacing" textLength="55" x="10" y="21.2999">VV.Tiles</text></g><!--class VV.Tiles.WaterTile--><a href="WaterTile.html" target="_top" title="WaterTile.html" xlink:actuate="onRequest" xlink:href="WaterTile.html" xlink:show="new" xlink:title="WaterTile.html" xlink:type="simple"><g id="elem_VV.Tiles.WaterTile"><rect codeLine="3" fill="#F1F1F1" height="81.5999" id="VV.Tiles.WaterTile" rx="2.5" ry="2.5" style="stroke:#181818;stroke-width:0.5;" width="136" x="22" y="360.294"/><ellipse cx="56.35" cy="376.294" fill="#ADD1B2" rx="11" ry="11" style="stroke:#181818;stroke-width:1.0;"/><path d="M51.35,377.4502 C51.35,379.9502 53.4906,381.7627 56.4125,381.7627 C57.6469,381.7627 58.8188,381.4659 59.5688,380.9502 C60.1781,380.5284 60.5063,380.1065 60.5063,379.7002 C60.5063,379.2315 60.0844,378.8252 59.5844,378.8252 C59.35,378.8252 59.1313,378.9034 58.9281,379.1065 C58.4906,379.544 58.4906,379.544 58.3188,379.6377 C57.8656,379.8721 57.225,380.0127 56.4594,380.0127 C54.4594,380.0127 53.1781,378.9971 53.1781,377.419 L53.1781,376.3721 C53.1781,374.669 54.3969,373.4659 56.1,373.4659 C56.6781,373.4659 57.2563,373.6065 57.725,373.8565 C58.1938,374.1221 58.3656,374.3096 58.4281,374.669 C58.5531,375.3409 58.8031,375.5909 59.3344,375.5909 C59.6156,375.5909 59.8969,375.4502 60.0844,375.2315 C60.2094,375.0596 60.2563,374.8877 60.2563,374.4502 L60.2563,373.0909 C60.2563,372.669 60.2406,372.5284 60.1156,372.3565 C59.9438,372.1065 59.6625,371.9502 59.3344,371.9502 C59.0219,371.9502 58.8188,372.0596 58.6,372.3252 C57.4281,371.8252 56.9906,371.7159 56.0375,371.7159 C53.3656,371.7159 51.35,373.7315 51.35,376.3565 L51.35,377.4502 Z " fill="#000000"/><text fill="#000000" font-family="sans-serif" font-size="14" lengthAdjust="spacing" textLength="61" x="74.65" y="380.9">WaterTile</text><line style="stroke:#181818;stroke-width:0.5;" x1="23" x2="157" y1="392.294" y2="392.294"/><line style="stroke:#181818;stroke-width:0.5;" x1="23" x2="157" y1="400.294" y2="400.294"/><ellipse cx="33" cy="414.1939" fill="#84BE84" rx="3" ry="3" style="stroke:#038048;stroke-width:1.0;"/><text fill="#000000" font-family="sans-serif" font-size="14" lengthAdjust="spacing" textLength="86" x="42" y="417.2999">WaterTile(int)</text><ellipse cx="33" cy="430.9939" fill="#84BE84" rx="3" ry="3" style="stroke:#038048;stroke-width:1.0;"/><text fill="#000000" font-family="sans-serif" font-size="14" lengthAdjust="spacing" textLength="110" x="42" y="434.0999">isSolid(): boolean</text></g></a><!--class VV.Tiles.Tile--><a href="Tile.html" target="_top" title="Tile.html" xlink:actuate="onRequest" xlink:href="Tile.html" xlink:show="new" xlink:title="Tile.html" xlink:type="simple"><g id="elem_VV.Tiles.Tile"><rect codeLine="8" fill="#F1F1F1" height="249.5991" id="VV.Tiles.Tile" rx="2.5" ry="2.5" style="stroke:#181818;stroke-width:0.5;" width="206" x="415" y="41.294"/><ellipse cx="502.25" cy="57.294" fill="#ADD1B2" rx="11" ry="11" style="stroke:#181818;stroke-width:1.0;"/><path d="M497.25,58.4502 C497.25,60.9502 499.3906,62.7627 502.3125,62.7627 C503.5469,62.7627 504.7188,62.4659 505.4688,61.9502 C506.0781,61.5284 506.4063,61.1065 506.4063,60.7002 C506.4063,60.2315 505.9844,59.8252 505.4844,59.8252 C505.25,59.8252 505.0313,59.9034 504.8281,60.1065 C504.3906,60.544 504.3906,60.544 504.2188,60.6377 C503.7656,60.8721 503.125,61.0127 502.3594,61.0127 C500.3594,61.0127 499.0781,59.9971 499.0781,58.419 L499.0781,57.3721 C499.0781,55.669 500.2969,54.4659 502,54.4659 C502.5781,54.4659 503.1563,54.6065 503.625,54.8565 C504.0938,55.1221 504.2656,55.3096 504.3281,55.669 C504.4531,56.3409 504.7031,56.5909 505.2344,56.5909 C505.5156,56.5909 505.7969,56.4502 505.9844,56.2315 C506.1094,56.0596 506.1563,55.8877 506.1563,55.4502 L506.1563,54.0909 C506.1563,53.669 506.1406,53.5284 506.0156,53.3565 C505.8438,53.1065 505.5625,52.9502 505.2344,52.9502 C504.9219,52.9502 504.7188,53.0596 504.5,53.3252 C503.3281,52.8252 502.8906,52.7159 501.9375,52.7159 C499.2656,52.7159 497.25,54.7315 497.25,57.3565 L497.25,58.4502 Z " fill="#000000"/><text fill="#000000" font-family="sans-serif" font-size="14" lengthAdjust="spacing" textLength="23" x="522.75" y="61.9">Tile</text><line style="stroke:#181818;stroke-width:0.5;" x1="416" x2="620" y1="73.294" y2="73.294"/><ellipse cx="426" cy="87.1939" fill="none" rx="3" ry="3" style="stroke:#038048;stroke-width:1.0;"/><text fill="#000000" font-family="sans-serif" font-size="14" lengthAdjust="spacing" text-decoration="underline" textLength="107" x="435" y="90.2999">TILE_WIDTH: int</text><ellipse cx="426" cy="103.9939" fill="none" rx="3" ry="3" style="stroke:#038048;stroke-width:1.0;"/><text fill="#000000" font-family="sans-serif" font-size="14" lengthAdjust="spacing" text-decoration="underline" textLength="114" x="435" y="107.0999">TILE_HEIGHT: int</text><polygon fill="none" points="426,115.7938,430,119.7938,426,123.7938,422,119.7938" style="stroke:#B38D22;stroke-width:1.0;"/><text fill="#000000" font-family="sans-serif" font-size="14" lengthAdjust="spacing" textLength="125" x="435" y="123.8998">img: BufferedImage</text><polygon fill="none" points="426,132.5937,430,136.5937,426,140.5937,422,136.5937" style="stroke:#B38D22;stroke-width:1.0;"/><text fill="#000000" font-family="sans-serif" font-size="14" lengthAdjust="spacing" textLength="34" x="435" y="140.6997">id: int</text><line style="stroke:#181818;stroke-width:0.5;" x1="416" x2="620" y1="148.4937" y2="148.4937"/><ellipse cx="426" cy="162.3937" fill="#84BE84" rx="3" ry="3" style="stroke:#038048;stroke-width:1.0;"/><text fill="#000000" font-family="sans-serif" font-size="14" lengthAdjust="spacing" textLength="150" x="435" y="165.4996">Tile(BufferedImage, int)</text><ellipse cx="426" cy="179.1936" fill="#84BE84" rx="3" ry="3" style="stroke:#038048;stroke-width:1.0;"/><text fill="#000000" font-family="sans-serif" font-size="14" lengthAdjust="spacing" textLength="90" x="435" y="182.2996">Update(): void</text><ellipse cx="426" cy="195.9935" fill="#84BE84" rx="3" ry="3" style="stroke:#038048;stroke-width:1.0;"/><text fill="#000000" font-family="sans-serif" font-size="14" lengthAdjust="spacing" textLength="180" x="435" y="199.0995">Draw(Graphics, int, int): void</text><ellipse cx="426" cy="212.7934" fill="#84BE84" rx="3" ry="3" style="stroke:#038048;stroke-width:1.0;"/><text fill="#000000" font-family="sans-serif" font-size="14" lengthAdjust="spacing" textLength="81" x="435" y="215.8994">rotate(): void</text><ellipse cx="426" cy="229.5934" fill="#84BE84" rx="3" ry="3" style="stroke:#038048;stroke-width:1.0;"/><text fill="#000000" font-family="sans-serif" font-size="14" lengthAdjust="spacing" textLength="110" x="435" y="232.6993">isSolid(): boolean</text><ellipse cx="426" cy="246.3933" fill="#84BE84" rx="3" ry="3" style="stroke:#038048;stroke-width:1.0;"/><text fill="#000000" font-family="sans-serif" font-size="14" lengthAdjust="spacing" textLength="104" x="435" y="249.4993">isBed(): boolean</text><ellipse cx="426" cy="263.1932" fill="#84BE84" rx="3" ry="3" style="stroke:#038048;stroke-width:1.0;"/><text fill="#000000" font-family="sans-serif" font-size="14" lengthAdjust="spacing" textLength="110" x="435" y="266.2992">isDoor(): boolean</text><ellipse cx="426" cy="279.9931" fill="#84BE84" rx="3" ry="3" style="stroke:#038048;stroke-width:1.0;"/><text fill="#000000" font-family="sans-serif" font-size="14" lengthAdjust="spacing" textLength="68" x="435" y="283.0991">GetId(): int</text></g></a><!--class VV.Tiles.DoorTile--><a href="DoorTile.html" target="_top" title="DoorTile.html" xlink:actuate="onRequest" xlink:href="DoorTile.html" xlink:show="new" xlink:title="DoorTile.html" xlink:type="simple"><g id="elem_VV.Tiles.DoorTile"><rect codeLine="23" fill="#F1F1F1" height="98.3998" id="VV.Tiles.DoorTile" rx="2.5" ry="2.5" style="stroke:#181818;stroke-width:0.5;" width="136" x="193" y="352.294"/><ellipse cx="230.5" cy="368.294" fill="#ADD1B2" rx="11" ry="11" style="stroke:#181818;stroke-width:1.0;"/><path d="M225.5,369.4502 C225.5,371.9502 227.6406,373.7627 230.5625,373.7627 C231.7969,373.7627 232.9688,373.4659 233.7188,372.9502 C234.3281,372.5284 234.6563,372.1065 234.6563,371.7002 C234.6563,371.2315 234.2344,370.8252 233.7344,370.8252 C233.5,370.8252 233.2813,370.9034 233.0781,371.1065 C232.6406,371.544 232.6406,371.544 232.4688,371.6377 C232.0156,371.8721 231.375,372.0127 230.6094,372.0127 C228.6094,372.0127 227.3281,370.9971 227.3281,369.419 L227.3281,368.3721 C227.3281,366.669 228.5469,365.4659 230.25,365.4659 C230.8281,365.4659 231.4063,365.6065 231.875,365.8565 C232.3438,366.1221 232.5156,366.3096 232.5781,366.669 C232.7031,367.3409 232.9531,367.5909 233.4844,367.5909 C233.7656,367.5909 234.0469,367.4502 234.2344,367.2315 C234.3594,367.0596 234.4063,366.8877 234.4063,366.4502 L234.4063,365.0909 C234.4063,364.669 234.3906,364.5284 234.2656,364.3565 C234.0938,364.1065 233.8125,363.9502 233.4844,363.9502 C233.1719,363.9502 232.9688,364.0596 232.75,364.3252 C231.5781,363.8252 231.1406,363.7159 230.1875,363.7159 C227.5156,363.7159 225.5,365.7315 225.5,368.3565 L225.5,369.4502 Z " fill="#000000"/><text fill="#000000" font-family="sans-serif" font-size="14" lengthAdjust="spacing" textLength="54" x="249.5" y="372.9">DoorTile</text><line style="stroke:#181818;stroke-width:0.5;" x1="194" x2="328" y1="384.294" y2="384.294"/><line style="stroke:#181818;stroke-width:0.5;" x1="194" x2="328" y1="392.294" y2="392.294"/><ellipse cx="204" cy="406.1939" fill="#84BE84" rx="3" ry="3" style="stroke:#038048;stroke-width:1.0;"/><text fill="#000000" font-family="sans-serif" font-size="14" lengthAdjust="spacing" textLength="79" x="213" y="409.2999">DoorTile(int)</text><ellipse cx="204" cy="422.9939" fill="#84BE84" rx="3" ry="3" style="stroke:#038048;stroke-width:1.0;"/><text fill="#000000" font-family="sans-serif" font-size="14" lengthAdjust="spacing" textLength="110" x="213" y="426.0999">isSolid(): boolean</text><ellipse cx="204" cy="439.7938" fill="#84BE84" rx="3" ry="3" style="stroke:#038048;stroke-width:1.0;"/><text fill="#000000" font-family="sans-serif" font-size="14" lengthAdjust="spacing" textLength="110" x="213" y="442.8998">isDoor(): boolean</text></g></a><!--class VV.Tiles.BedTile--><a href="BedTile.html" target="_top" title="BedTile.html" xlink:actuate="onRequest" xlink:href="BedTile.html" xlink:show="new" xlink:title="BedTile.html" xlink:type="simple"><g id="elem_VV.Tiles.BedTile"><rect codeLine="29" fill="#F1F1F1" height="98.3998" id="VV.Tiles.BedTile" rx="2.5" ry="2.5" style="stroke:#181818;stroke-width:0.5;" width="136" x="364" y="352.294"/><ellipse cx="404.2" cy="368.294" fill="#ADD1B2" rx="11" ry="11" style="stroke:#181818;stroke-width:1.0;"/><path d="M399.2,369.4502 C399.2,371.9502 401.3406,373.7627 404.2625,373.7627 C405.4969,373.7627 406.6688,373.4659 407.4188,372.9502 C408.0281,372.5284 408.3563,372.1065 408.3563,371.7002 C408.3563,371.2315 407.9344,370.8252 407.4344,370.8252 C407.2,370.8252 406.9813,370.9034 406.7781,371.1065 C406.3406,371.544 406.3406,371.544 406.1688,371.6377 C405.7156,371.8721 405.075,372.0127 404.3094,372.0127 C402.3094,372.0127 401.0281,370.9971 401.0281,369.419 L401.0281,368.3721 C401.0281,366.669 402.2469,365.4659 403.95,365.4659 C404.5281,365.4659 405.1063,365.6065 405.575,365.8565 C406.0438,366.1221 406.2156,366.3096 406.2781,366.669 C406.4031,367.3409 406.6531,367.5909 407.1844,367.5909 C407.4656,367.5909 407.7469,367.4502 407.9344,367.2315 C408.0594,367.0596 408.1063,366.8877 408.1063,366.4502 L408.1063,365.0909 C408.1063,364.669 408.0906,364.5284 407.9656,364.3565 C407.7938,364.1065 407.5125,363.9502 407.1844,363.9502 C406.8719,363.9502 406.6688,364.0596 406.45,364.3252 C405.2781,363.8252 404.8406,363.7159 403.8875,363.7159 C401.2156,363.7159 399.2,365.7315 399.2,368.3565 L399.2,369.4502 Z " fill="#000000"/><text fill="#000000" font-family="sans-serif" font-size="14" lengthAdjust="spacing" textLength="48" x="423.8" y="372.9">BedTile</text><line style="stroke:#181818;stroke-width:0.5;" x1="365" x2="499" y1="384.294" y2="384.294"/><line style="stroke:#181818;stroke-width:0.5;" x1="365" x2="499" y1="392.294" y2="392.294"/><ellipse cx="375" cy="406.1939" fill="#84BE84" rx="3" ry="3" style="stroke:#038048;stroke-width:1.0;"/><text fill="#000000" font-family="sans-serif" font-size="14" lengthAdjust="spacing" textLength="73" x="384" y="409.2999">BedTile(int)</text><ellipse cx="375" cy="422.9939" fill="#84BE84" rx="3" ry="3" style="stroke:#038048;stroke-width:1.0;"/><text fill="#000000" font-family="sans-serif" font-size="14" lengthAdjust="spacing" textLength="110" x="384" y="426.0999">isSolid(): boolean</text><ellipse cx="375" cy="439.7938" fill="#84BE84" rx="3" ry="3" style="stroke:#038048;stroke-width:1.0;"/><text fill="#000000" font-family="sans-serif" font-size="14" lengthAdjust="spacing" textLength="104" x="384" y="442.8998">isBed(): boolean</text></g></a><!--class VV.Tiles.RockTile--><a href="RockTile.html" target="_top" title="RockTile.html" xlink:actuate="onRequest" xlink:href="RockTile.html" xlink:show="new" xlink:title="RockTile.html" xlink:type="simple"><g id="elem_VV.Tiles.RockTile"><rect codeLine="35" fill="#F1F1F1" height="81.5999" id="VV.Tiles.RockTile" rx="2.5" ry="2.5" style="stroke:#181818;stroke-width:0.5;" width="136" x="535" y="360.294"/><ellipse cx="572.05" cy="376.294" fill="#ADD1B2" rx="11" ry="11" style="stroke:#181818;stroke-width:1.0;"/><path d="M567.05,377.4502 C567.05,379.9502 569.1906,381.7627 572.1125,381.7627 C573.3469,381.7627 574.5188,381.4659 575.2688,380.9502 C575.8781,380.5284 576.2063,380.1065 576.2063,379.7002 C576.2063,379.2315 575.7844,378.8252 575.2844,378.8252 C575.05,378.8252 574.8313,378.9034 574.6281,379.1065 C574.1906,379.544 574.1906,379.544 574.0188,379.6377 C573.5656,379.8721 572.925,380.0127 572.1594,380.0127 C570.1594,380.0127 568.8781,378.9971 568.8781,377.419 L568.8781,376.3721 C568.8781,374.669 570.0969,373.4659 571.8,373.4659 C572.3781,373.4659 572.9563,373.6065 573.425,373.8565 C573.8938,374.1221 574.0656,374.3096 574.1281,374.669 C574.2531,375.3409 574.5031,375.5909 575.0344,375.5909 C575.3156,375.5909 575.5969,375.4502 575.7844,375.2315 C575.9094,375.0596 575.9563,374.8877 575.9563,374.4502 L575.9563,373.0909 C575.9563,372.669 575.9406,372.5284 575.8156,372.3565 C575.6438,372.1065 575.3625,371.9502 575.0344,371.9502 C574.7219,371.9502 574.5188,372.0596 574.3,372.3252 C573.1281,371.8252 572.6906,371.7159 571.7375,371.7159 C569.0656,371.7159 567.05,373.7315 567.05,376.3565 L567.05,377.4502 Z " fill="#000000"/><text fill="#000000" font-family="sans-serif" font-size="14" lengthAdjust="spacing" textLength="55" x="590.95" y="380.9">RockTile</text><line style="stroke:#181818;stroke-width:0.5;" x1="536" x2="670" y1="392.294" y2="392.294"/><line style="stroke:#181818;stroke-width:0.5;" x1="536" x2="670" y1="400.294" y2="400.294"/><ellipse cx="546" cy="414.1939" fill="#84BE84" rx="3" ry="3" style="stroke:#038048;stroke-width:1.0;"/><text fill="#000000" font-family="sans-serif" font-size="14" lengthAdjust="spacing" textLength="80" x="555" y="417.2999">RockTile(int)</text><ellipse cx="546" cy="430.9939" fill="#84BE84" rx="3" ry="3" style="stroke:#038048;stroke-width:1.0;"/><text fill="#000000" font-family="sans-serif" font-size="14" lengthAdjust="spacing" textLength="110" x="555" y="434.0999">isSolid(): boolean</text></g></a><!--class VV.Tiles.WallTile--><a href="WallTile.html" target="_top" title="WallTile.html" xlink:actuate="onRequest" xlink:href="WallTile.html" xlink:show="new" xlink:title="WallTile.html" xlink:type="simple"><g id="elem_VV.Tiles.WallTile"><rect codeLine="40" fill="#F1F1F1" height="81.5999" id="VV.Tiles.WallTile" rx="2.5" ry="2.5" style="stroke:#181818;stroke-width:0.5;" width="136" x="706" y="360.294"/><ellipse cx="745.3" cy="376.294" fill="#ADD1B2" rx="11" ry="11" style="stroke:#181818;stroke-width:1.0;"/><path d="M740.3,377.4502 C740.3,379.9502 742.4406,381.7627 745.3625,381.7627 C746.5969,381.7627 747.7688,381.4659 748.5188,380.9502 C749.1281,380.5284 749.4563,380.1065 749.4563,379.7002 C749.4563,379.2315 749.0344,378.8252 748.5344,378.8252 C748.3,378.8252 748.0813,378.9034 747.8781,379.1065 C747.4406,379.544 747.4406,379.544 747.2688,379.6377 C746.8156,379.8721 746.175,380.0127 745.4094,380.0127 C743.4094,380.0127 742.1281,378.9971 742.1281,377.419 L742.1281,376.3721 C742.1281,374.669 743.3469,373.4659 745.05,373.4659 C745.6281,373.4659 746.2063,373.6065 746.675,373.8565 C747.1438,374.1221 747.3156,374.3096 747.3781,374.669 C747.5031,375.3409 747.7531,375.5909 748.2844,375.5909 C748.5656,375.5909 748.8469,375.4502 749.0344,375.2315 C749.1594,375.0596 749.2063,374.8877 749.2063,374.4502 L749.2063,373.0909 C749.2063,372.669 749.1906,372.5284 749.0656,372.3565 C748.8938,372.1065 748.6125,371.9502 748.2844,371.9502 C747.9719,371.9502 747.7688,372.0596 747.55,372.3252 C746.3781,371.8252 745.9406,371.7159 744.9875,371.7159 C742.3156,371.7159 740.3,373.7315 740.3,376.3565 L740.3,377.4502 Z " fill="#000000"/><text fill="#000000" font-family="sans-serif" font-size="14" lengthAdjust="spacing" textLength="50" x="764.7" y="380.9">WallTile</text><line style="stroke:#181818;stroke-width:0.5;" x1="707" x2="841" y1="392.294" y2="392.294"/><line style="stroke:#181818;stroke-width:0.5;" x1="707" x2="841" y1="400.294" y2="400.294"/><ellipse cx="717" cy="414.1939" fill="#84BE84" rx="3" ry="3" style="stroke:#038048;stroke-width:1.0;"/><text fill="#000000" font-family="sans-serif" font-size="14" lengthAdjust="spacing" textLength="75" x="726" y="417.2999">WallTile(int)</text><ellipse cx="717" cy="430.9939" fill="#84BE84" rx="3" ry="3" style="stroke:#038048;stroke-width:1.0;"/><text fill="#000000" font-family="sans-serif" font-size="14" lengthAdjust="spacing" textLength="110" x="726" y="434.0999">isSolid(): boolean</text></g></a><!--class VV.Tiles.FloorTile--><a href="FloorTile.html" target="_top" title="FloorTile.html" xlink:actuate="onRequest" xlink:href="FloorTile.html" xlink:show="new" xlink:title="FloorTile.html" xlink:type="simple"><g id="elem_VV.Tiles.FloorTile"><rect codeLine="45" fill="#F1F1F1" height="81.5999" id="VV.Tiles.FloorTile" rx="2.5" ry="2.5" style="stroke:#181818;stroke-width:0.5;" width="136" x="877" y="360.294"/><ellipse cx="913.6" cy="376.294" fill="#ADD1B2" rx="11" ry="11" style="stroke:#181818;stroke-width:1.0;"/><path d="M908.6,377.4502 C908.6,379.9502 910.7406,381.7627 913.6625,381.7627 C914.8969,381.7627 916.0688,381.4659 916.8188,380.9502 C917.4281,380.5284 917.7563,380.1065 917.7563,379.7002 C917.7563,379.2315 917.3344,378.8252 916.8344,378.8252 C916.6,378.8252 916.3813,378.9034 916.1781,379.1065 C915.7406,379.544 915.7406,379.544 915.5688,379.6377 C915.1156,379.8721 914.475,380.0127 913.7094,380.0127 C911.7094,380.0127 910.4281,378.9971 910.4281,377.419 L910.4281,376.3721 C910.4281,374.669 911.6469,373.4659 913.35,373.4659 C913.9281,373.4659 914.5063,373.6065 914.975,373.8565 C915.4438,374.1221 915.6156,374.3096 915.6781,374.669 C915.8031,375.3409 916.0531,375.5909 916.5844,375.5909 C916.8656,375.5909 917.1469,375.4502 917.3344,375.2315 C917.4594,375.0596 917.5063,374.8877 917.5063,374.4502 L917.5063,373.0909 C917.5063,372.669 917.4906,372.5284 917.3656,372.3565 C917.1938,372.1065 916.9125,371.9502 916.5844,371.9502 C916.2719,371.9502 916.0688,372.0596 915.85,372.3252 C914.6781,371.8252 914.2406,371.7159 913.2875,371.7159 C910.6156,371.7159 908.6,373.7315 908.6,376.3565 L908.6,377.4502 Z " fill="#000000"/><text fill="#000000" font-family="sans-serif" font-size="14" lengthAdjust="spacing" textLength="56" x="932.4" y="380.9">FloorTile</text><line style="stroke:#181818;stroke-width:0.5;" x1="878" x2="1012" y1="392.294" y2="392.294"/><line style="stroke:#181818;stroke-width:0.5;" x1="878" x2="1012" y1="400.294" y2="400.294"/><ellipse cx="888" cy="414.1939" fill="#84BE84" rx="3" ry="3" style="stroke:#038048;stroke-width:1.0;"/><text fill="#000000" font-family="sans-serif" font-size="14" lengthAdjust="spacing" textLength="81" x="897" y="417.2999">FloorTile(int)</text><ellipse cx="888" cy="430.9939" fill="#84BE84" rx="3" ry="3" style="stroke:#038048;stroke-width:1.0;"/><text fill="#000000" font-family="sans-serif" font-size="14" lengthAdjust="spacing" textLength="110" x="897" y="434.0999">isSolid(): boolean</text></g></a><!--reverse link VV.Tiles.Tile to VV.Tiles.WaterTile--><g id="link_VV.Tiles.Tile_VV.Tiles.WaterTile"><path codeLine="50" d="M396.12,232.714 C330.74,267.944 248.85,312.264 176,352.294 C170.31,355.424 164.41,358.684 158.49,361.964 " fill="none" id="VV.Tiles.Tile-backto-VV.Tiles.WaterTile" style="stroke:#181818;stroke-width:1.0;"/><polygon fill="none" points="392.61,226.114,413.54,222.804,399.25,238.444,392.61,226.114" style="stroke:#181818;stroke-width:1.0;"/></g><!--link VV.Tiles.Tile to VV.Tiles.Tile--><g id="link_VV.Tiles.Tile_VV.Tiles.Tile"><path codeLine="51" d="M621.21,152.344 C641.54,153.934 656,158.584 656,166.294 C656,173.274 644.12,177.754 626.77,179.714 " fill="none" id="VV.Tiles.Tile-to-VV.Tiles.Tile" style="stroke:#181818;stroke-width:1.0;"/><polygon fill="#181818" points="622.21,180.244,631.5474,183.3765,627.1877,179.772,630.7922,175.4122,622.21,180.244" style="stroke:#181818;stroke-width:1.0;"/><text fill="#000000" font-family="sans-serif" font-size="13" lengthAdjust="spacing" textLength="24" x="662" y="170.871">tiles</text><text fill="#000000" font-family="sans-serif" font-size="13" lengthAdjust="spacing" textLength="5" x="628.9731" y="177.8314">*</text></g><!--link VV.Tiles.Tile to VV.Tiles.Tile--><g id="link_VV.Tiles.Tile_VV.Tiles.Tile"><path codeLine="52" d="M621.48,137.204 C660.13,136.244 692,145.944 692,166.294 C692,185.614 663.28,195.324 627.31,195.454 " fill="none" id="VV.Tiles.Tile-to-VV.Tiles.Tile-1" style="stroke:#181818;stroke-width:1.0;"/><polygon fill="#181818" points="622.48,195.384,631.4454,199.461,627.4798,195.4268,631.514,191.4613,622.48,195.384" style="stroke:#181818;stroke-width:1.0;"/><text fill="#000000" font-family="sans-serif" font-size="13" lengthAdjust="spacing" textLength="46" x="701" y="131.871">floorTile</text><text fill="#000000" font-family="sans-serif" font-size="13" lengthAdjust="spacing" textLength="43" x="702.5" y="147.471">wallTile</text><text fill="#000000" font-family="sans-serif" font-size="13" lengthAdjust="spacing" textLength="52" x="698" y="163.071">waterTile</text><text fill="#000000" font-family="sans-serif" font-size="13" lengthAdjust="spacing" textLength="46" x="701" y="178.671">doorTile</text><text fill="#000000" font-family="sans-serif" font-size="13" lengthAdjust="spacing" textLength="42" x="703" y="194.271">bedTile</text><text fill="#000000" font-family="sans-serif" font-size="13" lengthAdjust="spacing" textLength="46" x="701" y="209.8711">rockTile</text></g><!--reverse link VV.Tiles.Tile to VV.Tiles.DoorTile--><g id="link_VV.Tiles.Tile_VV.Tiles.DoorTile"><path codeLine="53" d="M399.11,275.084 C369.33,302.074 338.87,329.704 314.15,352.104 " fill="none" id="VV.Tiles.Tile-backto-VV.Tiles.DoorTile" style="stroke:#181818;stroke-width:1.0;"/><polygon fill="none" points="394.06,270.304,413.58,262.054,403.46,280.674,394.06,270.304" style="stroke:#181818;stroke-width:1.0;"/></g><!--reverse link VV.Tiles.Tile to VV.Tiles.BedTile--><g id="link_VV.Tiles.Tile_VV.Tiles.BedTile"><path codeLine="54" d="M464.93,311.084 C459.54,325.674 454.38,339.654 449.81,352.044 " fill="none" id="VV.Tiles.Tile-backto-VV.Tiles.BedTile" style="stroke:#181818;stroke-width:1.0;"/><polygon fill="none" points="458.61,308.974,472.1,292.634,471.75,313.824,458.61,308.974" style="stroke:#181818;stroke-width:1.0;"/></g><!--reverse link VV.Tiles.Tile to VV.Tiles.RockTile--><g id="link_VV.Tiles.Tile_VV.Tiles.RockTile"><path codeLine="55" d="M570.48,311.154 C576.95,328.894 583.1,345.744 588.27,359.914 " fill="none" id="VV.Tiles.Tile-backto-VV.Tiles.RockTile" style="stroke:#181818;stroke-width:1.0;"/><polygon fill="none" points="563.64,313.824,563.36,292.634,576.79,309.024,563.64,313.824" style="stroke:#181818;stroke-width:1.0;"/></g><!--reverse link VV.Tiles.Tile to VV.Tiles.WallTile--><g id="link_VV.Tiles.Tile_VV.Tiles.WallTile"><path codeLine="56" d="M636.55,275.194 C669.76,305.414 703.81,336.414 729.72,359.994 " fill="none" id="VV.Tiles.Tile-backto-VV.Tiles.WallTile" style="stroke:#181818;stroke-width:1.0;"/><polygon fill="none" points="632.47,281.034,622.39,262.394,641.89,270.674,632.47,281.034" style="stroke:#181818;stroke-width:1.0;"/></g><!--reverse link VV.Tiles.Tile to VV.Tiles.FloorTile--><g id="link_VV.Tiles.Tile_VV.Tiles.FloorTile"><path codeLine="57" d="M639.59,232.374 C705.06,267.584 787.12,312.004 860,352.294 C865.49,355.324 871.17,358.484 876.86,361.674 " fill="none" id="VV.Tiles.Tile-backto-VV.Tiles.FloorTile" style="stroke:#181818;stroke-width:1.0;"/><polygon fill="none" points="636.46,238.094,622.15,222.464,643.09,225.764,636.46,238.094" style="stroke:#181818;stroke-width:1.0;"/></g><text fill="#888888" font-family="sans-serif" font-size="10" lengthAdjust="spacing" textLength="179" x="421.5" y="481.584">UMLDoclet 2.1.0, PlantUML 1.2022.14</text><!--SRC=[fPJVRu8m4CVV_IikBajm2jdsI9Oz69oIk6Hng0zgbWwADYkjWKuVdF_x-55GXBfCUU7WSxtxzkvQ00260XojaOjXCZ4SGd44kqO3vEDI54KmHGA72OFPhB2DbGZeOX5xmz7JBhX6c6YL6OdUEIMUrZBXatEA4Ilu_ZIdJAVEj8i44iJTGzknXxsFgMqv0nFYfEUy1ZsxFt2gRZSaM9hG_VPz76BF3j0Idt2lkgYTRhEqg0FLNO_NNboJPDCRJhmoiqAqrVeXMg-86wMBimXrlY4NoZXdAYjv5v-Z5kUX4lUniDF5nmMeD2m98PkMcueHoV7_9kGFfHKzyOQb76afr4XwaHX5KIjQHjpzac9oKw4cnrUUdYcYj3YmcQayhnc-Ck4BFRI_i1Kf2tvnpZJHqu-k7wwcCjFrPsZUDTCF4qHohLKTCkZdQkPiAskHM3Bid7a5_imcPSv2sQGQFVbiro0vQ3Laf8wNjwS65MLi75N7nInM3ZxdoMlyEhIuIx60H-F1kE_06qLCn7_XTeF3Y72cjNu1]--></g></svg>