<?xml version="1.0" encoding="UTF-8" standalone="no"?><svg xmlns="http://www.w3.org/2000/svg" xmlns:xlink="http://www.w3.org/1999/xlink" contentStyleType="text/css" height="710px" preserveAspectRatio="none" style="width:227px;height:710px;background:#FFFFFF;" version="1.1" viewBox="0 0 227 710" width="227px" zoomAndPan="magnify"><defs/><g><!--class vv.Tiles.Tile--><a href="Tile.html" target="_top" title="Tile.html" xlink:actuate="onRequest" xlink:href="Tile.html" xlink:show="new" xlink:title="Tile.html" xlink:type="simple"><g id="elem_vv.Tiles.Tile"><rect codeLine="5" fill="#F1F1F1" height="676.3972" id="vv.Tiles.Tile" rx="2.5" ry="2.5" style="stroke:#181818;stroke-width:0.5;" width="206" x="7" y="7"/><ellipse cx="88.75" cy="26.4" fill="#ADD1B2" rx="11" ry="11" style="stroke:#181818;stroke-width:1.0;"/><path d="M83.75,27.5562 C83.75,30.0562 85.8906,31.8687 88.8125,31.8687 C90.0469,31.8687 91.2188,31.5718 91.9688,31.0562 C92.5781,30.6343 92.9063,30.2125 92.9063,29.8062 C92.9063,29.3375 92.4844,28.9312 91.9844,28.9312 C91.75,28.9312 91.5313,29.0093 91.3281,29.2125 C90.8906,29.65 90.8906,29.65 90.7188,29.7437 C90.2656,29.9781 89.625,30.1187 88.8594,30.1187 C86.8594,30.1187 85.5781,29.1031 85.5781,27.525 L85.5781,26.4781 C85.5781,24.775 86.7969,23.5718 88.5,23.5718 C89.0781,23.5718 89.6563,23.7125 90.125,23.9625 C90.5938,24.2281 90.7656,24.4156 90.8281,24.775 C90.9531,25.4468 91.2031,25.6968 91.7344,25.6968 C92.0156,25.6968 92.2969,25.5562 92.4844,25.3375 C92.6094,25.1656 92.6563,24.9937 92.6563,24.5562 L92.6563,23.1968 C92.6563,22.775 92.6406,22.6343 92.5156,22.4625 C92.3438,22.2125 92.0625,22.0562 91.7344,22.0562 C91.4219,22.0562 91.2188,22.1656 91,22.4312 C89.8281,21.9312 89.3906,21.8218 88.4375,21.8218 C85.7656,21.8218 83.75,23.8375 83.75,26.4625 L83.75,27.5562 Z " fill="#000000"/><text fill="#000000" font-family="sans-serif" font-size="14" lengthAdjust="spacing" textLength="23" x="114.75" y="25.0059">Tile</text><text fill="#000000" font-family="sans-serif" font-size="10" lengthAdjust="spacing" textLength="34" x="109.25" y="38.0899">vv.Tiles</text><line style="stroke:#181818;stroke-width:0.5;" x1="8" x2="212" y1="45.7999" y2="45.7999"/><ellipse cx="18" cy="59.6999" fill="none" rx="3" ry="3" style="stroke:#038048;stroke-width:1.0;"/><text fill="#000000" font-family="sans-serif" font-size="14" lengthAdjust="spacing" text-decoration="underline" textLength="64" x="27" y="62.8059">tiles: Tile[]</text><ellipse cx="18" cy="76.4998" fill="none" rx="3" ry="3" style="stroke:#038048;stroke-width:1.0;"/><text fill="#000000" font-family="sans-serif" font-size="14" lengthAdjust="spacing" text-decoration="underline" textLength="82" x="27" y="79.6058">floorTile: Tile</text><ellipse cx="18" cy="93.2997" fill="none" rx="3" ry="3" style="stroke:#038048;stroke-width:1.0;"/><text fill="#000000" font-family="sans-serif" font-size="14" lengthAdjust="spacing" text-decoration="underline" textLength="78" x="27" y="96.4057">wallTile: Tile</text><ellipse cx="18" cy="110.0997" fill="none" rx="3" ry="3" style="stroke:#038048;stroke-width:1.0;"/><text fill="#000000" font-family="sans-serif" font-size="14" lengthAdjust="spacing" text-decoration="underline" textLength="89" x="27" y="113.2056">waterTile: Tile</text><ellipse cx="18" cy="126.8996" fill="none" rx="3" ry="3" style="stroke:#038048;stroke-width:1.0;"/><text fill="#000000" font-family="sans-serif" font-size="14" lengthAdjust="spacing" text-decoration="underline" textLength="81" x="27" y="130.0056">rockTile: Tile</text><ellipse cx="18" cy="143.6995" fill="none" rx="3" ry="3" style="stroke:#038048;stroke-width:1.0;"/><text fill="#000000" font-family="sans-serif" font-size="14" lengthAdjust="spacing" text-decoration="underline" textLength="78" x="27" y="146.8055">bedTile: Tile</text><ellipse cx="18" cy="160.4994" fill="none" rx="3" ry="3" style="stroke:#038048;stroke-width:1.0;"/><text fill="#000000" font-family="sans-serif" font-size="14" lengthAdjust="spacing" text-decoration="underline" textLength="83" x="27" y="163.6054">doorTile: Tile</text><ellipse cx="18" cy="177.2994" fill="none" rx="3" ry="3" style="stroke:#038048;stroke-width:1.0;"/><text fill="#000000" font-family="sans-serif" font-size="14" lengthAdjust="spacing" text-decoration="underline" textLength="94" x="27" y="180.4053">spikesTile: Tile</text><ellipse cx="18" cy="194.0993" fill="none" rx="3" ry="3" style="stroke:#038048;stroke-width:1.0;"/><text fill="#000000" font-family="sans-serif" font-size="14" lengthAdjust="spacing" text-decoration="underline" textLength="123" x="27" y="197.2053">floorWinterTile: Tile</text><ellipse cx="18" cy="210.8992" fill="none" rx="3" ry="3" style="stroke:#038048;stroke-width:1.0;"/><text fill="#000000" font-family="sans-serif" font-size="14" lengthAdjust="spacing" text-decoration="underline" textLength="119" x="27" y="214.0052">wallWinterTile: Tile</text><ellipse cx="18" cy="227.6991" fill="none" rx="3" ry="3" style="stroke:#038048;stroke-width:1.0;"/><text fill="#000000" font-family="sans-serif" font-size="14" lengthAdjust="spacing" text-decoration="underline" textLength="130" x="27" y="230.8051">waterWinterTile: Tile</text><ellipse cx="18" cy="244.4991" fill="none" rx="3" ry="3" style="stroke:#038048;stroke-width:1.0;"/><text fill="#000000" font-family="sans-serif" font-size="14" lengthAdjust="spacing" text-decoration="underline" textLength="122" x="27" y="247.6051">rockWinterTile: Tile</text><ellipse cx="18" cy="261.299" fill="none" rx="3" ry="3" style="stroke:#038048;stroke-width:1.0;"/><text fill="#000000" font-family="sans-serif" font-size="14" lengthAdjust="spacing" text-decoration="underline" textLength="119" x="27" y="264.405">bedWinterTile: Tile</text><ellipse cx="18" cy="278.0989" fill="none" rx="3" ry="3" style="stroke:#038048;stroke-width:1.0;"/><text fill="#000000" font-family="sans-serif" font-size="14" lengthAdjust="spacing" text-decoration="underline" textLength="124" x="27" y="281.2049">doorWinterTile: Tile</text><ellipse cx="18" cy="294.8989" fill="none" rx="3" ry="3" style="stroke:#038048;stroke-width:1.0;"/><text fill="#000000" font-family="sans-serif" font-size="14" lengthAdjust="spacing" text-decoration="underline" textLength="135" x="27" y="298.0048">spikesWinterTile: Tile</text><ellipse cx="18" cy="311.6988" fill="none" rx="3" ry="3" style="stroke:#038048;stroke-width:1.0;"/><text fill="#000000" font-family="sans-serif" font-size="14" lengthAdjust="spacing" text-decoration="underline" textLength="131" x="27" y="314.8048">floorBurningTile: Tile</text><ellipse cx="18" cy="328.4987" fill="none" rx="3" ry="3" style="stroke:#038048;stroke-width:1.0;"/><text fill="#000000" font-family="sans-serif" font-size="14" lengthAdjust="spacing" text-decoration="underline" textLength="127" x="27" y="331.6047">wallBurningTile: Tile</text><ellipse cx="18" cy="345.2986" fill="none" rx="3" ry="3" style="stroke:#038048;stroke-width:1.0;"/><text fill="#000000" font-family="sans-serif" font-size="14" lengthAdjust="spacing" text-decoration="underline" textLength="138" x="27" y="348.4046">waterBurningTile: Tile</text><ellipse cx="18" cy="362.0986" fill="none" rx="3" ry="3" style="stroke:#038048;stroke-width:1.0;"/><text fill="#000000" font-family="sans-serif" font-size="14" lengthAdjust="spacing" text-decoration="underline" textLength="130" x="27" y="365.2045">rockBurningTile: Tile</text><ellipse cx="18" cy="378.8985" fill="none" rx="3" ry="3" style="stroke:#038048;stroke-width:1.0;"/><text fill="#000000" font-family="sans-serif" font-size="14" lengthAdjust="spacing" text-decoration="underline" textLength="127" x="27" y="382.0045">bedBurningTile: Tile</text><ellipse cx="18" cy="395.6984" fill="none" rx="3" ry="3" style="stroke:#038048;stroke-width:1.0;"/><text fill="#000000" font-family="sans-serif" font-size="14" lengthAdjust="spacing" text-decoration="underline" textLength="132" x="27" y="398.8044">doorBurningTile: Tile</text><ellipse cx="18" cy="412.4983" fill="none" rx="3" ry="3" style="stroke:#038048;stroke-width:1.0;"/><text fill="#000000" font-family="sans-serif" font-size="14" lengthAdjust="spacing" text-decoration="underline" textLength="143" x="27" y="415.6043">spikesBurningTile: Tile</text><ellipse cx="18" cy="429.2983" fill="none" rx="3" ry="3" style="stroke:#038048;stroke-width:1.0;"/><text fill="#000000" font-family="sans-serif" font-size="14" lengthAdjust="spacing" text-decoration="underline" textLength="87" x="27" y="432.4042">blackTile: Tile</text><ellipse cx="18" cy="446.0982" fill="none" rx="3" ry="3" style="stroke:#038048;stroke-width:1.0;"/><text fill="#000000" font-family="sans-serif" font-size="14" lengthAdjust="spacing" text-decoration="underline" textLength="107" x="27" y="449.2042">TILE_WIDTH: int</text><ellipse cx="18" cy="462.8981" fill="none" rx="3" ry="3" style="stroke:#038048;stroke-width:1.0;"/><text fill="#000000" font-family="sans-serif" font-size="14" lengthAdjust="spacing" text-decoration="underline" textLength="114" x="27" y="466.0041">TILE_HEIGHT: int</text><polygon fill="none" points="18,474.698,22,478.698,18,482.698,14,478.698" style="stroke:#B38D22;stroke-width:1.0;"/><text fill="#000000" font-family="sans-serif" font-size="14" lengthAdjust="spacing" textLength="125" x="27" y="482.804">img: BufferedImage</text><polygon fill="none" points="18,491.498,22,495.498,18,499.498,14,495.498" style="stroke:#B38D22;stroke-width:1.0;"/><text fill="#000000" font-family="sans-serif" font-size="14" lengthAdjust="spacing" textLength="34" x="27" y="499.604">id: int</text><line style="stroke:#181818;stroke-width:0.5;" x1="8" x2="212" y1="507.3979" y2="507.3979"/><ellipse cx="18" cy="521.2979" fill="#84BE84" rx="3" ry="3" style="stroke:#038048;stroke-width:1.0;"/><text fill="#000000" font-family="sans-serif" font-size="14" lengthAdjust="spacing" textLength="150" x="27" y="524.4039">Tile(BufferedImage, int)</text><ellipse cx="18" cy="538.0978" fill="#84BE84" rx="3" ry="3" style="stroke:#038048;stroke-width:1.0;"/><text fill="#000000" font-family="sans-serif" font-size="14" lengthAdjust="spacing" textLength="90" x="27" y="541.2038">Update(): void</text><ellipse cx="18" cy="554.8978" fill="#84BE84" rx="3" ry="3" style="stroke:#038048;stroke-width:1.0;"/><text fill="#000000" font-family="sans-serif" font-size="14" lengthAdjust="spacing" textLength="180" x="27" y="558.0037">Draw(Graphics, int, int): void</text><ellipse cx="18" cy="571.6977" fill="#84BE84" rx="3" ry="3" style="stroke:#038048;stroke-width:1.0;"/><text fill="#000000" font-family="sans-serif" font-size="14" lengthAdjust="spacing" textLength="81" x="27" y="574.8037">rotate(): void</text><ellipse cx="18" cy="588.4976" fill="#84BE84" rx="3" ry="3" style="stroke:#038048;stroke-width:1.0;"/><text fill="#000000" font-family="sans-serif" font-size="14" lengthAdjust="spacing" textLength="110" x="27" y="591.6036">isSolid(): boolean</text><ellipse cx="18" cy="605.2975" fill="#84BE84" rx="3" ry="3" style="stroke:#038048;stroke-width:1.0;"/><text fill="#000000" font-family="sans-serif" font-size="14" lengthAdjust="spacing" textLength="104" x="27" y="608.4035">isBed(): boolean</text><ellipse cx="18" cy="622.0975" fill="#84BE84" rx="3" ry="3" style="stroke:#038048;stroke-width:1.0;"/><text fill="#000000" font-family="sans-serif" font-size="14" lengthAdjust="spacing" textLength="110" x="27" y="625.2034">isDoor(): boolean</text><ellipse cx="18" cy="638.8974" fill="#84BE84" rx="3" ry="3" style="stroke:#038048;stroke-width:1.0;"/><text fill="#000000" font-family="sans-serif" font-size="14" lengthAdjust="spacing" textLength="149" x="27" y="642.0034">isDangerous(): boolean</text><ellipse cx="18" cy="655.6973" fill="#84BE84" rx="3" ry="3" style="stroke:#038048;stroke-width:1.0;"/><text fill="#000000" font-family="sans-serif" font-size="14" lengthAdjust="spacing" textLength="117" x="27" y="658.8033">isWater(): boolean</text><ellipse cx="18" cy="672.4972" fill="#84BE84" rx="3" ry="3" style="stroke:#038048;stroke-width:1.0;"/><text fill="#000000" font-family="sans-serif" font-size="14" lengthAdjust="spacing" textLength="68" x="27" y="675.6032">GetId(): int</text></g></a><text fill="#888888" font-family="sans-serif" font-size="10" lengthAdjust="spacing" textLength="179" x="20" y="699.6872">UMLDoclet 2.1.0, PlantUML 1.2022.14</text><!--SRC=[ZPHTQy8m58RlzoiEZe6Y51sxAiCBKRJWOA332oSZDgSsc2ObYSec_lSbLV43jUb5Gixxd9oSjo4001eD29AXpacC8yo98aOg45BWavKXPHG1izpyGiAGKtqTpT2aqeQBUCo9rb1vr-mFmzPRUymuVel3ijbUhmCNqHKW6ewBOeJfr4r1QZ8-cy6ssCrzMss8OV4EwiR18JXiEhkX9rnAvTGzSuFO4CvB08EFjr0oNZu4vaWVwhJia3fdIzGFaQBJ2HDbXtNzUc6MyE1SxnwOTS23edujxDtm00jFEYibc5YKckB7sP8-eBF5XxE- -63Kiu-zCrw5EIcvjEDesFkPHDtn80HhzJrYq8lwW_4byiooHGYTLPAWGXfbP85d6hs4wwv-zG9kEA1s8hvoQeslra9OIqPFyQuYcsfVaJnbiIwIzfdNd9BcPZxJ8yaPTS9SIev4d6iTlATqxU-u9n6nG2LN-eu-SJVefjP74nK5Z-Ri3iydkdiEYPHk-leOTcNCxGFz6hI2PWC-EH76Hk5bZKepAQgrVm00]--></g></svg>