<?xml version="1.0" encoding="UTF-8" standalone="no"?><svg xmlns="http://www.w3.org/2000/svg" xmlns:xlink="http://www.w3.org/1999/xlink" contentStyleType="text/css" height="424px" preserveAspectRatio="none" style="width:227px;height:424px;background:#FFFFFF;" version="1.1" viewBox="0 0 227 424" width="227px" zoomAndPan="magnify"><defs/><g><!--class VV.Tiles.Tile--><a href="Tile.html" target="_top" title="Tile.html" xlink:actuate="onRequest" xlink:href="Tile.html" xlink:show="new" xlink:title="Tile.html" xlink:type="simple"><g id="elem_VV.Tiles.Tile"><rect codeLine="5" fill="#F1F1F1" height="390.7985" id="VV.Tiles.Tile" rx="2.5" ry="2.5" style="stroke:#181818;stroke-width:0.5;" width="206" x="7" y="7"/><ellipse cx="86.75" cy="26.4" fill="#ADD1B2" rx="11" ry="11" style="stroke:#181818;stroke-width:1.0;"/><path d="M81.75,27.5562 C81.75,30.0562 83.8906,31.8687 86.8125,31.8687 C88.0469,31.8687 89.2188,31.5718 89.9688,31.0562 C90.5781,30.6343 90.9063,30.2125 90.9063,29.8062 C90.9063,29.3375 90.4844,28.9312 89.9844,28.9312 C89.75,28.9312 89.5313,29.0093 89.3281,29.2125 C88.8906,29.65 88.8906,29.65 88.7188,29.7437 C88.2656,29.9781 87.625,30.1187 86.8594,30.1187 C84.8594,30.1187 83.5781,29.1031 83.5781,27.525 L83.5781,26.4781 C83.5781,24.775 84.7969,23.5718 86.5,23.5718 C87.0781,23.5718 87.6563,23.7125 88.125,23.9625 C88.5938,24.2281 88.7656,24.4156 88.8281,24.775 C88.9531,25.4468 89.2031,25.6968 89.7344,25.6968 C90.0156,25.6968 90.2969,25.5562 90.4844,25.3375 C90.6094,25.1656 90.6563,24.9937 90.6563,24.5562 L90.6563,23.1968 C90.6563,22.775 90.6406,22.6343 90.5156,22.4625 C90.3438,22.2125 90.0625,22.0562 89.7344,22.0562 C89.4219,22.0562 89.2188,22.1656 89,22.4312 C87.8281,21.9312 87.3906,21.8218 86.4375,21.8218 C83.7656,21.8218 81.75,23.8375 81.75,26.4625 L81.75,27.5562 Z " fill="#000000"/><text fill="#000000" font-family="sans-serif" font-size="14" lengthAdjust="spacing" textLength="23" x="114.75" y="25.0059">Tile</text><text fill="#000000" font-family="sans-serif" font-size="10" lengthAdjust="spacing" textLength="38" x="107.25" y="38.0899">VV.Tiles</text><line style="stroke:#181818;stroke-width:0.5;" x1="8" x2="212" y1="45.7999" y2="45.7999"/><rect fill="none" height="6" style="stroke:#C82930;stroke-width:1.0;" width="6" x="15" y="56.6999"/><text fill="#000000" font-family="sans-serif" font-size="14" lengthAdjust="spacing" text-decoration="underline" textLength="91" x="27" y="62.8059">NO_TILES: int</text><ellipse cx="18" cy="76.4998" fill="none" rx="3" ry="3" style="stroke:#038048;stroke-width:1.0;"/><text fill="#000000" font-family="sans-serif" font-size="14" lengthAdjust="spacing" text-decoration="underline" textLength="64" x="27" y="79.6058">tiles: Tile[]</text><ellipse cx="18" cy="93.2997" fill="none" rx="3" ry="3" style="stroke:#038048;stroke-width:1.0;"/><text fill="#000000" font-family="sans-serif" font-size="14" lengthAdjust="spacing" text-decoration="underline" textLength="82" x="27" y="96.4057">floorTile: Tile</text><ellipse cx="18" cy="110.0997" fill="none" rx="3" ry="3" style="stroke:#038048;stroke-width:1.0;"/><text fill="#000000" font-family="sans-serif" font-size="14" lengthAdjust="spacing" text-decoration="underline" textLength="78" x="27" y="113.2056">wallTile: Tile</text><ellipse cx="18" cy="126.8996" fill="none" rx="3" ry="3" style="stroke:#038048;stroke-width:1.0;"/><text fill="#000000" font-family="sans-serif" font-size="14" lengthAdjust="spacing" text-decoration="underline" textLength="89" x="27" y="130.0056">waterTile: Tile</text><ellipse cx="18" cy="143.6995" fill="none" rx="3" ry="3" style="stroke:#038048;stroke-width:1.0;"/><text fill="#000000" font-family="sans-serif" font-size="14" lengthAdjust="spacing" text-decoration="underline" textLength="83" x="27" y="146.8055">doorTile: Tile</text><ellipse cx="18" cy="160.4994" fill="none" rx="3" ry="3" style="stroke:#038048;stroke-width:1.0;"/><text fill="#000000" font-family="sans-serif" font-size="14" lengthAdjust="spacing" text-decoration="underline" textLength="78" x="27" y="163.6054">bedTile: Tile</text><ellipse cx="18" cy="177.2994" fill="none" rx="3" ry="3" style="stroke:#038048;stroke-width:1.0;"/><text fill="#000000" font-family="sans-serif" font-size="14" lengthAdjust="spacing" text-decoration="underline" textLength="81" x="27" y="180.4053">rockTile: Tile</text><ellipse cx="18" cy="194.0993" fill="none" rx="3" ry="3" style="stroke:#038048;stroke-width:1.0;"/><text fill="#000000" font-family="sans-serif" font-size="14" lengthAdjust="spacing" text-decoration="underline" textLength="107" x="27" y="197.2053">TILE_WIDTH: int</text><ellipse cx="18" cy="210.8992" fill="none" rx="3" ry="3" style="stroke:#038048;stroke-width:1.0;"/><text fill="#000000" font-family="sans-serif" font-size="14" lengthAdjust="spacing" text-decoration="underline" textLength="114" x="27" y="214.0052">TILE_HEIGHT: int</text><polygon fill="none" points="18,222.6991,22,226.6991,18,230.6991,14,226.6991" style="stroke:#B38D22;stroke-width:1.0;"/><text fill="#000000" font-family="sans-serif" font-size="14" lengthAdjust="spacing" textLength="125" x="27" y="230.8051">img: BufferedImage</text><polygon fill="none" points="18,239.4991,22,243.4991,18,247.4991,14,243.4991" style="stroke:#B38D22;stroke-width:1.0;"/><text fill="#000000" font-family="sans-serif" font-size="14" lengthAdjust="spacing" textLength="34" x="27" y="247.6051">id: int</text><line style="stroke:#181818;stroke-width:0.5;" x1="8" x2="212" y1="255.399" y2="255.399"/><ellipse cx="18" cy="269.299" fill="#84BE84" rx="3" ry="3" style="stroke:#038048;stroke-width:1.0;"/><text fill="#000000" font-family="sans-serif" font-size="14" lengthAdjust="spacing" textLength="150" x="27" y="272.405">Tile(BufferedImage, int)</text><ellipse cx="18" cy="286.0989" fill="#84BE84" rx="3" ry="3" style="stroke:#038048;stroke-width:1.0;"/><text fill="#000000" font-family="sans-serif" font-size="14" lengthAdjust="spacing" textLength="90" x="27" y="289.2049">Update(): void</text><ellipse cx="18" cy="302.8989" fill="#84BE84" rx="3" ry="3" style="stroke:#038048;stroke-width:1.0;"/><text fill="#000000" font-family="sans-serif" font-size="14" lengthAdjust="spacing" textLength="180" x="27" y="306.0048">Draw(Graphics, int, int): void</text><ellipse cx="18" cy="319.6988" fill="#84BE84" rx="3" ry="3" style="stroke:#038048;stroke-width:1.0;"/><text fill="#000000" font-family="sans-serif" font-size="14" lengthAdjust="spacing" textLength="81" x="27" y="322.8048">rotate(): void</text><ellipse cx="18" cy="336.4987" fill="#84BE84" rx="3" ry="3" style="stroke:#038048;stroke-width:1.0;"/><text fill="#000000" font-family="sans-serif" font-size="14" lengthAdjust="spacing" textLength="110" x="27" y="339.6047">isSolid(): boolean</text><ellipse cx="18" cy="353.2986" fill="#84BE84" rx="3" ry="3" style="stroke:#038048;stroke-width:1.0;"/><text fill="#000000" font-family="sans-serif" font-size="14" lengthAdjust="spacing" textLength="104" x="27" y="356.4046">isBed(): boolean</text><ellipse cx="18" cy="370.0986" fill="#84BE84" rx="3" ry="3" style="stroke:#038048;stroke-width:1.0;"/><text fill="#000000" font-family="sans-serif" font-size="14" lengthAdjust="spacing" textLength="110" x="27" y="373.2045">isDoor(): boolean</text><ellipse cx="18" cy="386.8985" fill="#84BE84" rx="3" ry="3" style="stroke:#038048;stroke-width:1.0;"/><text fill="#000000" font-family="sans-serif" font-size="14" lengthAdjust="spacing" textLength="68" x="27" y="390.0045">GetId(): int</text></g></a><text fill="#888888" font-family="sans-serif" font-size="10" lengthAdjust="spacing" textLength="179" x="20" y="414.0884">UMLDoclet 2.1.0, PlantUML 1.2022.14</text><!--SRC=[XPDTQy8m58RlzoiEZa55LtJigWmlfA85zm5MT-54OdDgmzAa99coYV_TfYf-h6el6l8-ppcXfoq0W4O3WgIeCnBX03EYY94AX1HubsD864N0D3E_43FaL9-dAPf4vd6HHvne3PKNpVxGQpwtGiRnI-osZTPevDf4Lu1es6-AEup7Td4Ja_B915P5Dtkjj266HMjuV7kVXa6_C_202VEVrunjve5jCvwKy9XBgIpTEYN6ad1-Gp1ulGMzTSOCwLMkPFHzLR0pc7u6VjYxD8Z2w7M2RYyyLUvPElUW_HF7g906APdZ4QEdSisUxvp8TIjK3yOme_b0dAe72yde8VSLMJfTHRA4HReesbQUUqgQqdgc1v8pQi5CIev47BCsNY9-FlnIr4KJ54Nx1rplFbSK-Gk5M4gx35_xlenu_aCykKstKOSFJeJ9KtXOeD9C2gUw0G00]--></g></svg>